<?xml version="1.0" encoding="UTF-8"?>
<svg width="200px" height="200px" viewBox="0 0 200 200" version="1.1" xmlns="http://www.w3.org/2000/svg" xmlns:xlink="http://www.w3.org/1999/xlink">
    <!-- Generator: Sketch 54.1 (76490) - https://sketchapp.com -->
    <title>am-corpus-chris</title>
    <desc>Created with Sketch.</desc>
    <g id="am-corpus-chris" stroke="none" stroke-width="1" fill="none" fill-rule="evenodd">
        <g id="am-corpus-chris_BGL">
            <g id="am-corpus-chris" transform="translate(46.010352, 0.000000)">
                <g id="g10" transform="translate(54.012153, 100.275604) scale(-1, 1) rotate(-180.000000) translate(-54.012153, -100.275604) translate(-0.000000, 0.753212)" fill-rule="nonzero">
                    <g id="g12" transform="translate(-0.000000, 0.090191)">
                        <path d="M10.6514492,67.333458 L0.617712277,65.4313272 L0.662528926,55.2189833 C0.720729816,41.9567802 0.778686489,28.7298221 0.836405078,15.536602 L0.900397619,0.909292305 L15.2946912,3.51056046 C40.9083655,8.13934166 66.7631378,8.13934166 92.3769276,3.51055887 L106.771212,0.90930312 L106.835205,15.536602 C106.843097,17.340344 106.843097,17.340344 106.850992,19.1440886 C106.870746,23.6563589 106.886655,27.2869042 106.92212,35.3778476 C106.965722,45.3249215 106.984937,49.7106141 107.009037,55.2191495 L107.053788,65.4482627 L97.0004895,67.3371621 C95.9987626,67.5253751 94.9999621,67.7065926 94.0040178,67.8807623 C94.028788,76.1804489 94.0563642,85.4258045 94.1012966,100.492632 C94.1397007,113.370379 94.1653548,121.971658 94.18738,129.352986 L107.323334,126.885968 L107.387774,141.615562 C107.439856,153.520376 107.463011,158.811399 107.491986,165.425165 C107.516822,171.094093 107.539658,176.301104 107.561605,181.298149 L107.60685,191.600024 L97.4690452,193.431853 C68.4856106,198.668951 39.1856451,198.668951 10.202518,193.431848 L0.0649131992,191.600035 L0.109981592,181.298358 C0.161173486,169.59698 0.213385162,157.677574 0.283791382,141.615458 L0.348468148,126.86043 L13.5875697,129.3702 C13.6197854,118.544713 13.653847,107.089965 13.6917588,94.3332828 C13.715785,86.2488571 13.7360295,79.435054 13.7702931,67.900777 C12.7252095,67.7185854 11.6856188,67.5295092 10.6514492,67.333458 Z M25.3248894,29.8308146 C25.3029908,34.8307566 25.2810579,39.8356034 25.2590902,44.8454367 C26.0404208,44.9527591 26.8257576,45.0562459 27.6151298,45.1559318 L38.3847444,46.5159735 L38.3524996,57.371077 C38.2974935,75.8886582 38.2730435,84.1186956 38.2424698,94.4062453 C38.1874371,112.923845 38.1405172,128.698101 38.0955794,143.786525 L38.0542366,157.667904 L24.7718475,155.990479 C24.748578,161.301292 24.7271861,166.185295 24.7066956,170.865512 C44.0924891,173.456638 63.5788022,173.456639 82.9647732,170.865513 C82.957165,169.130076 82.949387,167.35527 82.9414024,165.53272 C82.9274195,162.341 82.9147919,159.457335 82.8996146,155.98976 L69.7208968,157.637736 L69.6794968,143.773543 C69.6436713,131.776172 69.6151423,122.212876 69.5505864,100.565847 C69.4862868,79.0047727 69.4575301,69.3651976 69.4216762,57.358417 L69.3892219,46.4900853 L80.1735781,45.1412532 C80.9175312,45.0482047 81.6638508,44.9503151 82.412569,44.8476078 C82.401375,42.2928913 82.3882468,39.2975916 82.3715367,35.4854624 C82.3620168,33.3136342 82.3539059,31.4631888 82.3467516,29.8308052 C63.3697813,32.1003492 44.3018116,32.1003525 25.3248894,29.8308146 Z" id="path14" fill="#008350"></path>
                        <path d="M19.7622008,30.3033003 C19.7313967,37.5344357 19.705229,43.67986 19.6806497,49.4561534 C22.3805601,49.8882683 25.126373,50.2723829 27.9197836,50.6101324 L32.8204007,51.2026629 L32.8063336,56.1389512 C32.6798161,100.535187 32.6229855,120.490975 32.5525662,145.267874 L32.5348127,151.514423 L26.3333399,150.765142 C23.9445917,150.476526 21.5848268,150.155218 19.2532953,149.800292 C19.2197923,157.666669 19.1844912,165.96098 19.1438905,175.505013 C42.2274491,179.070003 65.4436166,179.070051 88.5273961,175.505193 C88.4910494,166.939959 88.4545806,158.371659 88.4179893,149.800205 C86.0721245,150.159279 83.7449303,150.477282 81.4350909,150.75354 L75.240289,151.494441 L75.2225098,145.255515 C75.1379061,115.567034 75.0530173,85.857618 74.9678419,56.126634 L74.9536815,51.1838778 L79.8614786,50.5968789 C82.541666,50.2763142 85.2506918,49.8952656 87.9908725,49.4547882 C87.9412917,37.8095864 87.9105517,30.5954368 87.8810001,23.6747167 C65.2275751,27.0031421 42.4446894,27.0030895 19.7904407,23.6746778 C19.7833544,25.337928 19.7763696,26.9774663 19.7622008,30.3033003 Z M13.1025557,59.5938367 L8.53471028,58.7532708 L8.55446534,54.1087715 C8.58498815,46.9327272 8.61673016,39.4771047 8.65601137,30.2559888 C8.68395615,23.6965308 8.68395615,23.6965308 8.71190493,17.1370451 L8.73994923,10.5551273 L15.2232009,11.6908548 C40.9024455,16.1893112 66.7700836,16.1893719 92.4481065,11.6908644 L98.9313166,10.5550772 L98.959457,17.136964 C99.0033655,27.4069342 99.0383796,35.6228856 99.1170769,54.1087508 L99.1368831,58.7611718 L94.5598436,59.5955113 C91.7077737,60.1154095 88.8846563,60.57672 86.0880749,60.9782733 C86.1624993,86.9640505 86.2367047,112.933375 86.3106922,138.886671 C88.5030274,138.555666 90.7148873,138.18643 92.947394,137.779507 L99.467927,136.590997 L99.4962641,143.2189 C99.5489824,155.549416 99.6014472,167.873357 99.6536594,180.190992 L99.6735184,184.876034 L95.0586974,185.684393 C67.6504374,190.485385 40.0204746,190.485327 12.6124866,185.68416 L7.99764011,184.875759 L8.01756811,180.190685 C8.07872455,165.812804 8.12768124,154.310496 8.17494015,143.218981 L8.20322791,136.579933 L14.7327644,137.781146 C16.9464628,138.188391 19.1900783,138.561698 21.4643267,138.901922 C21.5245119,117.732169 21.5797902,98.3221604 21.6861703,60.9914106 C18.7796793,60.5773462 15.9191176,60.1121349 13.1025557,59.5938367 Z M10.7049593,61.8573487 L6.19471238,60.9772452 L6.21541984,56.381978 C6.2419485,50.4949045 6.26315385,45.7916426 6.3109824,35.1853307 C6.35873901,24.5949714 6.38000823,19.8775403 6.4065448,13.988702 L6.43652162,7.33642722 L12.9764037,8.55445836 C40.1068233,13.6074081 67.5653392,13.6074081 94.6953262,8.55446117 L101.235308,7.33639271 L101.265201,13.9887728 C101.318243,25.7930207 101.361684,35.4349743 101.456145,56.3819599 L101.476902,60.9849102 L96.957676,61.8590836 C94.0941085,62.4129958 91.2556352,62.9076339 88.4408192,63.341784 C88.5160429,87.4960901 88.5910979,111.650565 88.6659841,135.805209 C90.8332606,135.453552 93.0196115,135.064177 95.2262028,134.637601 L101.803206,133.36614 L101.833306,140.064847 C101.868583,147.915397 101.896904,154.195852 101.960703,168.326898 C101.992602,175.392445 102.006775,178.532697 102.024476,182.458012 L102.04538,187.093593 L97.4881114,187.942329 C68.5100802,193.339136 39.1618755,193.339136 10.1835103,187.942331 L5.6262447,187.093606 L5.6471338,182.458029 C5.67366639,176.570085 5.69488121,171.859728 5.74260613,161.26142 C5.79033111,150.663101 5.81154597,145.952736 5.83807863,140.064776 L5.86831691,133.354488 L12.4545035,134.639411 C14.6417677,135.066132 16.8595935,135.459936 19.1088534,135.821722 C19.154704,121.026654 19.1612537,118.913202 19.2187105,100.373108 C19.2781383,81.197034 19.2831065,79.5938962 19.3334285,63.3560064 C16.4114335,62.9086597 13.5358803,62.4097583 10.7049593,61.8573487 Z M17.4831641,20.5968865 C17.466315,24.3345511 17.4468594,28.6492833 17.4171596,35.2354134 C17.3822462,42.9777064 17.3615192,47.5745149 17.3425522,51.7824169 C20.056851,52.2473709 22.817591,52.6639158 25.6263619,53.0336994 L30.4697852,53.6713515 L30.4546457,58.5565454 C30.3897965,79.4820645 30.3897965,79.4820645 30.3249473,100.407527 C30.2600982,121.33299 30.2600982,121.33299 30.195249,142.258509 L30.1756857,148.571176 L23.9170339,147.746902 C21.5533178,147.435596 19.219443,147.092746 16.9145087,146.717382 C16.8977279,150.442668 16.8783395,154.747961 16.8487837,161.311432 C16.8140324,169.028667 16.7933372,173.624039 16.7744098,177.825395 C41.4032993,181.903057 66.2685563,181.90306 90.8971756,177.825408 C90.8862562,175.405572 90.87354,172.588656 90.8545256,168.377039 C90.8090603,158.306666 90.7816121,152.223248 90.7568241,146.717271 C88.4371386,147.097033 86.1356576,147.436244 83.8510151,147.734265 L77.5991406,148.549791 L77.5796018,142.24498 C77.4931363,114.344281 77.4064456,86.4438064 77.3195298,58.5435577 L77.3042942,53.6528813 L82.1538502,53.0198304 C84.8522128,52.6675917 87.5768247,52.2542785 90.3289945,51.7809981 C90.2651978,37.6327723 90.226349,29.0111237 90.188505,20.5969127 C66.0270679,24.401653 41.6449036,24.4016437 17.4831641,20.5968865 Z" id="path20" fill="#FFFFFF"></path>
                        <path d="M94.5599126,15.5903047 C67.5024898,20.4799729 40.1690076,20.4799729 13.1116973,15.5903047 C13.0538284,28.817881 12.9958695,42.0452543 12.9378204,55.2728531 C17.2933666,56.0985493 21.6795585,56.7792639 26.077144,57.3346133 C25.9915791,86.1397306 25.9060142,114.944848 25.8202241,143.749965 C21.3817251,143.18943 16.9550925,142.502627 12.5590832,141.669265 C12.5011017,154.896864 12.4431427,168.124462 12.3852738,181.352061 C39.9249224,186.328335 67.7463497,186.328335 95.2863136,181.352061 C95.2282195,168.124462 95.1703506,154.896864 95.1124817,141.669265 C90.7495725,142.488648 86.3598679,143.186047 81.9548518,143.736887 C81.8688365,114.93177 81.7830465,86.1266529 81.6970312,57.3217612 C86.0615166,56.7758817 90.4111408,56.0850207 94.7337444,55.2728531 C94.6758755,42.0454798 94.6177815,28.817881 94.5599126,15.5903047" id="path22" fill="#1478C7"></path>
                        <path d="M14.2649996,17.1607058 C40.5776925,21.7701289 67.0938048,21.7703769 93.4063626,17.1607058 C93.4590526,29.484616 93.5115174,41.8085036 93.5639822,54.1323913 C89.2384513,54.9208838 84.8870258,55.5885207 80.5209642,56.110725 C80.6060787,85.8204554 80.6909681,115.52996 80.7756323,145.23969 C85.1833506,144.712526 89.5764327,144.038575 93.9431698,143.242642 C93.9958598,155.56653 94.0483246,167.890417 94.1005642,180.21453 C67.3264062,184.904449 40.344866,184.904449 13.570663,180.214305 C13.6230827,167.890417 13.675525,155.56653 13.7280348,143.242642 C18.1280972,144.052104 22.5579497,144.715457 26.9994436,145.252092 C27.0838826,115.542361 27.1685468,85.8326311 27.253211,56.1231263 C22.8540493,55.5912264 18.4659435,54.9344124 14.1075602,54.1323913 C14.1599799,41.8082781 14.2124898,29.484616 14.2649996,17.1607058 Z M95.7121115,14.0137256 C67.9100489,19.1918463 39.7621239,19.1918463 11.9596335,14.0137256 C11.8959552,28.1448326 11.8321868,42.2759171 11.7685085,56.4070016 C16.1212626,57.2563729 20.5051352,57.960537 24.9015273,58.5393361 C24.8150617,86.4400657 24.7285961,114.34057 24.6421306,142.241299 C20.206266,141.657089 15.782966,140.946611 11.3911673,140.089799 C11.327489,154.220884 11.2639008,168.351968 11.2002225,182.483053 C39.5065551,187.754701 68.1653926,187.754701 96.4713874,182.483053 C96.4076641,168.351968 96.3437156,154.220884 96.2802174,140.089799 C91.9215864,140.932406 87.5352595,141.653481 83.1327202,142.227771 C83.0462546,114.327041 82.9595638,86.4265371 82.8726479,58.5262584 C87.2357823,57.9567039 91.5831547,57.2426188 95.9030564,56.4070016 C95.839333,42.2761426 95.7756097,28.1448326 95.7121115,14.0137256 L95.7121115,14.0137256 Z" id="path24" fill="#FFFFFF"></path>
                        <path d="M94.5599126,15.5903047 C67.5024898,20.4799729 40.1690076,20.4799729 13.1116973,15.5903047 C13.0538284,28.817881 12.9958695,42.0452543 12.9378204,55.2728531 C17.2933666,56.0985493 21.6795585,56.7792639 26.077144,57.3346133 C25.9915791,86.1397306 25.9060142,114.944848 25.8202241,143.749965 C21.3817251,143.18943 16.9550925,142.502627 12.5590832,141.669265 C12.5011017,154.896864 12.4431427,168.124462 12.3852738,181.352061 C39.9249224,186.328335 67.7463497,186.328335 95.2863136,181.352061 C95.2282195,168.124462 95.1703506,154.896864 95.1124817,141.669265 C90.7495725,142.488648 86.3598679,143.186047 81.9548518,143.736887 C81.8688365,114.93177 81.7830465,86.1266529 81.6970312,57.3217612 C86.0615166,56.7758817 90.4111408,56.0850207 94.7337444,55.2728531 C94.6758755,42.0454798 94.6177815,28.817881 94.5599126,15.5903047" id="path26" fill="#1478C7"></path>
                        <path d="M14.2649996,17.1607058 C40.5776925,21.7701289 67.0938048,21.7703769 93.4063626,17.1607058 C93.4590526,29.484616 93.5115174,41.8085036 93.5639822,54.1323913 C89.2384513,54.9208838 84.8870258,55.5885207 80.5209642,56.110725 C80.6060787,85.8204554 80.6909681,115.52996 80.7756323,145.23969 C85.1833506,144.712526 89.5764327,144.038575 93.9431698,143.242642 C93.9958598,155.56653 94.0483246,167.890417 94.1005642,180.21453 C67.3264062,184.904449 40.344866,184.904449 13.570663,180.214305 C13.6230827,167.890417 13.675525,155.56653 13.7280348,143.242642 C18.1280972,144.052104 22.5579497,144.715457 26.9994436,145.252092 C27.0838826,115.542361 27.1685468,85.8326311 27.253211,56.1231263 C22.8540493,55.5912264 18.4659435,54.9344124 14.1075602,54.1323913 C14.1599799,41.8082781 14.2124898,29.484616 14.2649996,17.1607058 Z M95.7121115,14.0137256 C67.9100489,19.1918463 39.7621239,19.1918463 11.9596335,14.0137256 C11.8959552,28.1448326 11.8321868,42.2759171 11.7685085,56.4070016 C16.1212626,57.2563729 20.5051352,57.960537 24.9015273,58.5393361 C24.8150617,86.4400657 24.7285961,114.34057 24.6421306,142.241299 C20.206266,141.657089 15.782966,140.946611 11.3911673,140.089799 C11.327489,154.220884 11.2639008,168.351968 11.2002225,182.483053 C39.5065551,187.754701 68.1653926,187.754701 96.4713874,182.483053 C96.4076641,168.351968 96.3437156,154.220884 96.2802174,140.089799 C91.9215864,140.932406 87.5352595,141.653481 83.1327202,142.227771 C83.0462546,114.327041 82.9595638,86.4265371 82.8726479,58.5262584 C87.2357823,57.9567039 91.5831547,57.2426188 95.9030564,56.4070016 C95.839333,42.2761426 95.7756097,28.1448326 95.7121115,14.0137256 L95.7121115,14.0137256 Z" id="path28" fill="#1478C7"></path>
                        <path d="M7.0101994,99.7037408 C7.34311441,119.809962 28.286745,133.58096 54.0996488,133.284232 C81.5797172,132.965633 101.197947,118.009529 100.257184,99.1535773 C99.3418647,80.7747346 78.7520224,66.2073524 52.9375424,66.659659 C27.1244134,67.1117401 6.70401216,81.3043797 7.0101994,99.7037408 L7.0101994,99.7037408" id="path30" fill="#07294A"></path>
                        <path d="M68.5684483,114.188373 C66.6216216,113.392665 65.8578423,113.162002 63.7882976,110.579616 C58.5873027,104.087912 60.1810615,93.4348082 75.0376051,90.8091304 C88.5994166,88.4116352 95.4813115,95.6167476 95.4709536,95.5572217 C92.8339785,81.2829594 73.1425677,68.7419376 49.2242509,71.0368409 C28.4475169,73.031409 13.0277987,84.8245241 11.8854172,97.3885446 C10.5263764,115.53447 27.868828,125.00134 41.8753518,127.639645 C75.6237247,133.523914 100.490911,113.239792 88.2540046,102.189397 C89.0918651,104.344731 88.8617406,106.517425 87.9153477,107.854278 C87.684998,106.214836 86.918967,101.709808 80.6734048,100.98242 C81.7997091,102.829752 83.3846863,105.549228 82.247799,107.916058 C80.5741045,103.135724 75.1276734,100.959647 69.297101,102.248698 C73.3753943,104.182838 75.4046335,106.739069 75.5665313,109.324838 C72.8838465,104.485203 67.4968605,104.642811 64.165909,105.646408 C67.7213558,108.622703 68.6767554,111.86506 68.5684483,114.188373 L68.5684483,114.188373" id="path32" fill="#FFFFFF"></path>
                        <path d="M68.3414761,115.423761 C65.4518594,114.4966 63.9995078,113.208902 62.0682179,110.689198 C57.1630974,104.28994 58.8825016,92.7475548 73.2828491,89.717597 C87.1423364,86.8028579 93.462205,92.5522919 93.4394627,92.4988539 C88.6863325,81.4655957 71.5271925,70.5721331 49.2670333,72.7698559 C30.1651197,74.6548422 14.8342539,85.2468423 13.5790168,97.3177449 C12.3431444,114.533127 28.6344087,122.749729 36.263195,123.816234 C53.6130548,127.526681 66.5135397,122.36732 68.3414761,115.423761 L68.3414761,115.423761" id="path34" fill="#008350"></path>
                        <path d="M89.7158134,106.309536 C89.8250212,107.809859 88.65661,110.290555 86.9336031,111.335415 C87.0421354,108.548521 86.3886898,104.123312 83.0163069,102.926932 C84.6647822,105.637164 84.5109906,107.86465 81.6128173,111.482651 C81.100779,105.936372 77.4500849,103.708886 72.8953302,103.146096 C76.0648342,104.306174 78.3154163,109.406009 76.1094181,113.192893 C73.8804524,106.820015 68.933225,106.312016 67.1284811,106.299389 C77.2575639,118.515499 60.4161398,129.846612 38.1393181,125.289951 C63.5410601,132.61637 92.77003,119.609062 89.7158134,106.309536 L89.7158134,106.309536" id="path36" fill="#FFFFFF"></path>
                        <path d="M42.3878405,102.700779 C41.8440531,99.3567319 43.5344102,90.4824145 51.0289948,88.4296733 C50.9427544,88.4833368 48.3035275,90.8111597 48.467677,96.2492101 L46.8081683,93.8059431 C45.2166612,98.3281066 45.3756317,103.611931 46.8590569,107.068942 C46.7381402,106.922607 44.9257405,105.535699 44.8505335,105.551483 C45.5917957,111.310161 47.747806,113.87 51.1537394,115.389488 C48.43863,113.106084 48.0873636,112.023795 47.4940385,109.781428 C47.5219597,109.753018 50.2399963,111.721205 50.2399963,111.721205 C48.4528158,108.035786 49.0702341,104.331202 50.0918339,101.133264 L51.5534175,103.543386 C50.9702252,99.9562749 53.1352423,92.5297442 59.5584643,90.4253688 C58.5314603,91.6357285 56.5747262,93.1128273 56.5166321,96.7161727 L55.6729171,94.9694036 C54.3390054,98.8579772 53.9138829,103.731659 55.4484219,107.12486 C55.4484219,107.12486 53.4642169,105.700072 53.4585876,105.739981 C53.6439032,110.376236 56.4824061,113.539902 58.8334144,114.175746 C57.3204918,113.356138 56.1005165,111.295505 55.490754,109.316946 C55.481522,109.251783 57.7607007,110.796525 57.7607007,110.796525 C56.5384737,107.244588 57.2405562,103.076423 57.7924498,100.599109 L59.4035468,103.296714 C59.7262165,99.1159227 61.8777234,94.1725684 68.1921879,91.5694383 C74.9371789,88.788407 84.3412118,87.2939465 93.3216984,92.2291836 C93.3216984,92.2291836 91.8909632,89.4824247 93.3216984,92.2291836 C80.7997256,68.1687755 37.814847,65.6538068 18.1504342,86.9798573 C14.0065936,91.4722578 15.0646261,98.0848171 16.0194854,100.150185 C15.8712779,100.037221 14.023639,98.1614792 13.9456399,98.1772626 C13.7757035,105.745618 17.6487311,113.176884 22.8290554,116.911231 C21.2955297,114.452181 17.8380097,111.684678 16.9133909,104.620038 C16.98808,104.677083 20.0270976,107.846386 20.0270976,107.846386 C17.8249948,103.282058 18.5005072,98.6969867 19.7106201,95.1669213 L21.5302702,97.7093982 C21.7520635,87.8610207 29.4542555,83.5377278 32.409397,82.7886938 C31.0925982,84.3059274 27.6020006,89.917595 28.2291012,93.7682885 L26.5587843,90.871813 C25.192448,94.7991686 24.8612217,99.4469227 25.9814464,103.344741 C25.9066897,103.287695 23.6549818,100.850065 23.6383192,100.876446 C24.037547,108.22203 27.5148595,113.814983 32.3605349,116.567605 C30.2781554,114.502462 27.9075574,112.332022 26.9875095,107.200169 C27.0388485,107.194532 30.1856102,110.079509 30.1856102,110.079509 C28.1939746,105.365464 28.5472676,101.782863 29.6812277,98.4275419 L31.7235267,101.603609 C30.880037,95.593749 34.0171164,89.255144 41.4502294,85.8107598 C41.4502294,85.8107598 37.7520243,89.0977612 38.3437731,95.2102129 L36.9904967,92.6185821 C35.7142287,97.0266543 35.7579118,101.435854 37.0082852,105.1224 C36.8673283,104.967047 34.8984349,103.284088 34.897309,103.354887 C35.3544057,110.884461 38.754935,114.737635 42.4414312,116.349568 C39.3068286,113.925918 38.3980393,112.188168 37.7720645,108.678621 C37.7880516,108.675239 40.8220029,111.447251 40.8220029,111.447251 C38.8044726,105.602891 39.7263218,102.365269 40.6709133,99.9447755 L42.3878405,102.700779 L42.3878405,102.700779" id="path38" fill="#07294A"></path>
                    </g>
                </g>
            </g>
        </g>
    </g>
</svg>