<svg width="200" height="200" viewBox="0 0 200 200" fill="none" xmlns="http://www.w3.org/2000/svg">
<g clip-path="url(#clip0_10_304320)">
<mask id="mask0_10_304320" style="mask-type:luminance" maskUnits="userSpaceOnUse" x="27" y="0" width="146" height="200">
<path d="M172.502 0H27V200H172.502V0Z" fill="white"/>
</mask>
<g mask="url(#mask0_10_304320)">
<path d="M54.7987 200L56.5852 182.657C56.8986 179.578 57.8661 170.217 60.1089 160.602C61.2797 155.666 62.5661 151.417 64.0228 147.706C61.5546 146.761 59.3997 145.31 57.7726 143.479C57.5472 143.232 57.3274 142.973 57.1075 142.704L51.4455 145.453L48.4221 137.493C47.3172 134.618 32.0738 94.5277 31.9199 94.1209L27 81.1093L40.6712 83.7039C42.1389 83.9843 44.5467 84.3031 47.4216 84.5945C48.9553 81.1808 51.1047 76.3543 53.3805 71.2421C55.9696 65.4427 58.3828 60.017 59.7021 57.0431L52.6988 55.8283L61.5436 46.0765L62.9838 44.4823L63.3631 44.07C63.7644 43.6303 64.2262 43.1135 64.6989 42.5913C64.6989 42.3769 64.7044 42.0911 64.7374 41.7283L64.8254 41.0851C65.43 37.3031 67.8927 33.719 71.3119 31.5917C70.9161 29.9536 70.7182 28.3099 70.7182 26.6773C70.7182 25.358 70.8172 24.1706 71.0316 23.0217C71.9056 17.882 74.7971 13.2534 78.9528 10.3565C82.8063 7.65193 87.6987 6.27766 93.4816 6.27766C95.9718 6.27766 98.6598 6.53602 101.48 7.03625C104.052 7.48152 106.323 8.15766 108.434 8.80631L108.758 8.89976C110.902 9.53742 112.754 10.0871 115.069 10.4829C117.405 10.8897 119.692 11.0986 121.863 11.0986C128.921 11.0711 133.456 9.04269 136.771 7.56397L138.244 6.90432L153.977 0L151.646 16.986C151.487 18.1733 151.256 19.3387 150.959 20.4711L156.038 21.3616L149.97 31.5862L152.597 32.801L146.16 40.6509C146.308 40.7608 146.457 40.8707 146.6 40.9807C156.165 48.1049 161.442 59.253 161.436 72.358V72.7977C161.436 85.8753 158.787 96.4956 153.323 105.269C151.503 108.221 149.799 110.552 148.43 112.426C147.71 113.416 147.089 114.268 146.611 114.982C145.594 116.565 145.324 117.137 145.237 117.786C145.412 118.066 145.698 118.484 146.061 118.94C146.704 119.759 147.463 120.578 148.188 121.364C148.667 121.881 149.117 122.37 149.535 122.854L149.865 123.239C152.718 126.548 160.293 135.332 165.818 147.635L172.491 162.482L156.742 158.387C154.004 157.7 152.196 157.238 143.818 157.211H143.576C140.663 157.222 133.83 157.249 121.731 161.136C105.856 166.264 88.0835 175.906 68.9097 189.786L54.7877 200.011L54.7987 200Z" fill="white"/>
<path d="M162.095 153.775C162.095 153.775 156.285 151.433 143.284 151.252C122.5 151.252 95.4819 162.884 65.0995 184.883L61.0702 187.802L61.5759 182.86C63.4119 165.011 66.7871 151.648 71.641 143.006C71.3442 143.023 71.0584 143.034 70.778 143.034C63.1591 143.034 60.2511 138.757 58.7174 135.085C57.4586 135.712 56.2108 136.316 56.1228 136.355L53.935 137.416L53.0719 135.145C53.0719 135.145 38.2408 96.1932 36.5752 91.7845L35.168 88.063L39.0764 88.8051C41.5061 89.2724 45.6344 89.7561 50.3179 90.1354C53.3578 83.418 65.1655 56.8506 65.2919 56.5538L66.1385 54.6518L68.0954 55.3719C68.3208 55.4544 68.7441 55.6083 69.2058 55.7567C69.805 54.9157 70.4922 54.0306 71.2727 53.1181L63.0821 51.7054L65.7977 48.704C65.7977 48.704 68.4308 45.8015 69.9809 44.0809C69.827 43.5752 69.7226 43.0365 69.7226 42.4538C69.7226 42.2724 69.7226 42.058 69.7446 41.8601L69.772 41.6677C70.2228 39.1336 71.696 37.1271 74.1532 35.6979C75.2196 35.0712 76.3081 34.648 77.0996 34.3346C77.3085 34.2467 77.5119 34.1807 77.7208 34.1147C76.8633 32.2732 75.7419 29.6511 75.7419 26.2924C75.7419 25.3414 75.8188 24.4619 75.9672 23.6153C76.6379 19.8059 78.5839 16.667 81.5962 14.5507C85.8675 11.5548 92.0517 10.7467 99.9675 12.1484C102.232 12.5442 104.25 13.1434 106.284 13.7701L106.564 13.847C108.686 14.4847 110.879 15.1388 113.556 15.5951C126.189 17.8104 134.247 14.1878 138.579 12.2364L146.544 8.71826L145.571 15.8425C145.131 19.0528 144.109 21.9332 142.559 24.3574L146.577 25.0666L143.609 30.0579C142.861 31.3222 142.009 32.4656 141.053 33.4661L143.174 34.4501L138.914 39.6503C138.436 40.255 137.892 40.9531 137.227 41.6512C148.743 47.5001 155.317 58.1534 155.317 72.2095C155.317 88.2829 151.167 96.8748 148.039 101.943C146.368 104.659 144.818 106.786 143.449 108.661C140.712 112.41 139.068 114.663 139.068 118.061C139.068 119.913 142.168 123.266 143.669 124.877C144.12 125.361 144.505 125.778 144.785 126.108L145.016 126.383C147.737 129.533 154.966 137.899 160.199 149.526L162.101 153.764L162.095 153.775Z" fill="#7A303F"/>
<path d="M109.681 66.0749C118.158 66.0749 123.633 71.3026 123.633 79.3943C123.633 84.9739 120.455 88.5579 118.559 90.7018L118.07 91.257C117.586 91.8287 117.163 92.252 116.794 92.6148C115.865 93.5438 115.398 94.011 114.991 95.946L114.826 96.9465C114.623 98.1503 114.387 99.5796 114.233 100.805C144.631 92.9391 148.556 80.8895 148.556 71.2312C148.556 53.9978 134.951 43.2896 113.056 43.2896C86.3955 43.2896 76.2314 57.3016 72.8672 61.9796C74.8846 63.8431 83.0698 69.7744 94.3058 70.2912C96.1858 70.3846 97.9668 69.5656 100.045 68.6201C102.667 67.4272 105.641 66.0749 109.687 66.0749" fill="white"/>
<path d="M63.7543 130.396C65.1121 134.761 66.4864 136.712 70.6531 136.712C73.6106 136.712 76.2931 135.805 79.4045 134.75C79.8992 134.585 80.3994 134.414 80.9052 134.244C84.4563 133.062 104.79 123.838 108.457 121.76L108.478 120.864C108.698 111.805 108.924 102.443 110.243 94.9948C110.787 91.9055 112.535 90.0365 114.228 88.2334L114.448 87.9915C114.635 87.7882 114.839 87.5848 115.042 87.3704C116.719 85.6278 118.807 83.4565 118.807 79.6085C118.807 75.4087 116.306 70.9176 109.287 70.9176C106.164 70.9176 103.696 72.061 101.31 73.1604C99.1829 74.1444 97.182 75.0679 94.9282 75.0679C80.9711 75.0679 71.6646 68.8233 68.6412 64.519C66.8162 68.4714 57.8724 88.7391 56.3223 92.2573C57.9054 92.2518 60.3516 92.1363 61.2257 92.1034H61.2971C61.9788 90.7511 65.0626 84.5889 65.0626 84.5889L65.2 84.303L65.5024 84.3965C65.6233 84.4294 77.4365 88.118 79.2176 88.6567C83.203 87.5573 89.673 83.4565 95.39 79.8449C96.4729 79.1577 97.5228 78.4981 98.5178 77.8769C102.069 75.6231 106.137 73.2209 109.435 73.2209C114.118 73.2209 116.295 77.0194 116.295 79.5865C116.295 82.9507 114.888 84.4294 113.189 85.8917C111.656 87.2329 100.051 96.6219 93.8508 101.586C90.3601 104.417 89.651 105.615 88.2548 108.281C86.2044 112.118 84.055 115.098 82.1915 117.593C80.0366 120.485 77.1177 122.997 73.2642 125.262C71.5766 126.268 65.8927 129.319 63.7708 130.385" fill="white"/>
<path d="M45.5309 96.4408C47.8671 102.576 55.9259 123.8 57.575 128.137C59.5264 127.125 65.007 124.267 69.8225 121.634C73.9178 119.402 77.3369 116.967 84.0434 105.83C86.594 101.608 87.2921 100.591 91.7063 97.0784C95.2684 94.2639 100.568 90.1521 104.63 87.0133C107.565 84.7375 109.852 82.9674 110.358 82.5497C111.237 81.8186 111.633 81.0929 111.633 80.1969C111.633 78.9051 110.677 77.5913 108.846 77.5913C107.247 77.5913 105.768 78.5533 104.58 79.3284L104.003 79.7022C102.145 80.8291 99.9409 82.2363 97.5662 83.7425C94.2789 85.8369 90.5464 88.2117 87.0668 90.2841C77.5843 95.935 62.0111 96.7816 53.5676 96.7816C49.7252 96.7816 47.0976 96.5892 45.5254 96.4353" fill="white"/>
<path d="M75.2044 47.5169C75.6111 47.5884 75.952 47.6433 75.952 47.6433C78.728 48.1271 80.9268 46.9562 82.5374 46.1041L82.8343 45.9502C91.0469 40.5191 101.376 37.7651 113.53 37.7651C117.433 37.7651 121.187 38.1114 124.7 38.804C125.497 38.9469 125.893 39.0239 126.096 39.1009C130.208 39.788 131.687 38.6996 133.308 36.7591L125.97 33.5323L132.121 32.0041C133.649 31.6249 135.04 30.8058 136.277 29.547C133.886 29.1237 128.13 28.1067 128.13 28.1067L127.009 27.9088L132.957 24.9844C135.452 23.7695 137.272 21.7796 138.388 19.0585C132.874 21.3013 124.392 23.7805 112.48 21.6916C109.418 21.1529 106.95 20.4328 104.487 19.6797L104.361 19.6412C102.486 19.0805 100.722 18.5473 98.8912 18.2285C92.751 17.1456 87.996 17.6293 85.1376 19.6192C83.4829 20.7736 82.444 22.4832 82.0482 24.6985C81.9603 25.2867 81.9218 25.7925 81.9218 26.2817C81.9218 28.4915 82.7683 30.2726 83.5159 31.8447L83.5764 31.9767C84.2251 33.3894 84.8407 34.7252 84.8407 36.1929C84.8407 36.4788 84.8132 36.7866 84.7583 37.0725C84.346 39.3372 82.3176 39.3537 81.0697 39.3757C79.8219 39.3922 78.4531 39.5022 77.0349 41.0633C74.9625 43.3281 77.0514 45.483 77.0514 45.483L75.1934 47.5169H75.2044Z" fill="white"/>
</g>
<path d="M113.915 105.137C113.882 106.044 113.838 107.144 113.805 107.781C125.184 105.462 136.084 101.124 143.797 95.8362C144.506 94.6763 145.842 91.5979 146.688 89.52C139.943 96.2869 128.416 101.795 113.915 105.143V105.137Z" fill="white"/>
<path d="M113.86 111.503C113.849 112.184 113.827 113.509 113.811 114.29C121.479 112.707 132.451 109.079 136.453 107.479C137.206 106.16 138.498 104.499 139.636 103.026C139.828 102.784 140.01 102.548 140.18 102.328C133.715 105.857 122.87 109.656 113.86 111.503Z" fill="white"/>
<path d="M113.87 117.72C113.859 118.275 113.859 119.105 113.854 119.71V119.732C121.901 117.703 129.663 116.813 132.917 117.076C133.11 115.768 133.539 113.839 133.857 112.591C129.504 113.993 119.823 116.543 113.87 117.725V117.72Z" fill="white"/>
<path d="M107.471 128.923C107.702 130.225 107.932 131.864 107.982 132.529C114.6 129.296 123.517 125.822 136.226 125.745C135.555 124.921 134.456 123.53 133.939 122.733C123.995 122.084 113.248 126.125 107.476 128.928L107.471 128.923Z" fill="white"/>
<path d="M109.248 136.635L109.908 141.379C119.467 137.092 128.966 134.354 143.764 134.634C142.544 133.046 141.076 131.193 140.307 130.363C132.16 128.643 119.896 131.32 109.248 136.635Z" fill="white"/>
<path d="M111.298 145.816L112.085 151.115C112.085 151.115 129.158 145.343 142.758 144.985C146.183 144.898 149.602 145.068 150.976 145.167C150.097 143.562 148.574 141.039 147.271 139.439C133.908 136.723 111.293 145.816 111.293 145.816H111.298Z" fill="white"/>
<path d="M81.955 140.153C77.4474 144.1 76.48 147.354 75.1387 150.466C87.9029 140.994 97.7921 136.525 102.619 134.343L103.888 133.843C103.8 132.468 103.548 130.292 103.548 130.292C100.557 131.732 87.3147 137.96 81.9605 140.153H81.955Z" fill="white"/>
<path d="M72.3125 158.547C71.9607 159.888 71.378 162.109 70.9492 164.159C83.8893 152.929 103.25 143.919 105.762 142.764C105.762 142.764 105.377 138.933 105.262 138.064C92.7231 143.633 81.0418 150.895 72.318 158.547H72.3125Z" fill="white"/>
<path d="M69.5914 171.602L69.465 172.427C69.3605 173.086 69.2341 173.9 69.1406 174.538C84.7743 163.719 98.9073 156.078 107.472 152.742C107.472 152.742 107.065 148.767 106.971 147.547C90.013 155.573 77.6996 163.241 69.5914 171.602Z" fill="white"/>
</g>
<defs>
<clipPath id="clip0_10_304320">
<rect width="145.502" height="200" fill="white" transform="translate(27)"/>
</clipPath>
</defs>
</svg>
