<svg width="200" height="200" viewBox="0 0 200 200" fill="none" xmlns="http://www.w3.org/2000/svg">
<path d="M36.3034 2.02603e-07L165.434 2.02603e-07V61.1294L136.641 41.4007H105.059V82.7946L138.037 69.8697V136.069L104.867 120.703L104.867 172.238L129.824 200H34.5654L57.3616 172.238L57.3616 118.259L41.0157 102.714L57.6007 86.6453L57.6007 34.0609L36.3034 2.02603e-07" fill="#00263A"/>
<path d="M56.7715 11.511L69.3856 31.2034V91.5629L57.6721 102.901L69.2899 113.742L69.2899 176.377L57.6721 189.599H106.533L94.8688 176.293V109.267H106.733L128.286 119.614V86.0065L106.733 94.3208H94.8134L94.8134 30.7884H141.306L155.595 41.1532L155.595 11.5228L56.7715 11.511" fill="#FF671F"/>
</svg>
