<svg width="200" height="200" viewBox="0 0 200 200" fill="none" xmlns="http://www.w3.org/2000/svg">
<path d="M146.313 55.4422L149.11 58.3584C141.135 63.9925 135.759 64.9646 133.1 64.9646C129.331 59.9653 123.3 56.9896 116.952 56.9896H116.753C115.523 56.9896 114.353 56.6721 113.321 56.0175C112.151 55.3033 111.06 54.5296 109.889 53.8154C100.466 47.725 92.3523 42.4679 85.1509 43.0432C77.7512 43.6185 73.4066 47.0704 69.5183 50.0461C69.1215 50.3635 68.7446 50.6214 68.3478 50.9587C66.4632 52.4466 64.4595 54.0733 62.2574 55.1644C58.0517 57.307 53.3699 59.7669 50.5131 62.9411C46.228 61.6516 39.364 60.6001 29.5043 61.7111C19.6446 62.822 14.1296 59.2511 12.3243 50.5619C12.1259 49.6494 11.4117 49.0145 10.4991 48.8161C9.58658 48.6773 8.75336 49.074 8.23757 49.8477C6.23389 53.2203 5.12294 56.4539 4.86504 59.509C4.40876 59.3702 3.89296 59.1916 3.31765 58.8544C2.74234 58.5369 2.02816 58.4576 1.37349 58.7155C0.460925 59.1123 -0.0548726 60.0843 0.00464256 61.0564C0.778339 67.2857 3.51603 71.9477 7.92015 74.6655C12.6615 77.5818 19.0098 77.8397 25.8739 75.3797C32.4205 72.9793 37.9356 73.4356 41.8834 74.5465C40.3956 76.947 38.6498 79.9227 36.7651 83.6325C33.591 89.7229 26.1318 95.6347 21.9856 98.0947C19.9025 99.3246 18.4147 101.209 17.641 103.411C15.181 111.009 10.3206 122.873 4.80553 131.245C3.43668 133.328 2.9804 135.728 3.57555 138.109C4.28973 141.084 4.86504 143.822 5.32133 146.084C5.71809 147.77 6.69017 149.198 8.11854 150.17L11.6894 152.511C13.1773 153.483 15.062 153.88 16.8077 153.483C18.5535 153.087 20.0414 152.055 20.954 150.508L23.9297 145.588C25.0407 143.703 25.1002 141.382 24.0686 139.418L22.3823 136.244C22.3228 136.105 22.3228 135.926 22.3823 135.788L30.5557 114.719C30.9525 113.807 31.5873 113.033 32.4404 112.458C34.9599 110.633 39.3045 107.974 45.5337 105.911C47.7953 105.137 49.4815 104.621 51.0488 104.165C51.9613 103.907 52.8739 103.59 53.846 103.332C57.4764 106.705 61.1068 112.22 63.3089 117.596C64.2214 119.738 65.7093 121.484 67.713 122.714C68.6256 123.289 69.9746 124.142 71.5418 125.115C72.6528 125.829 73.8034 126.543 74.9738 127.317C70.8871 131.145 66.6814 133.486 66.5425 133.546C63.6263 135.232 62.2574 138.664 63.2295 141.838C64.1421 144.755 64.5984 148.98 64.6579 149.813C64.8563 151.242 65.63 152.531 66.8599 153.325L70.6888 155.844C71.3434 156.3 72.1171 156.618 72.8908 156.816C75.6087 157.471 78.4059 156.36 79.8938 154.158L83.0084 149.615C84.1193 147.988 84.1193 145.846 83.0084 144.159C82.3537 143.187 81.58 141.818 80.9254 140.648C82.4727 139.22 84.8732 137.018 87.353 134.815C89.3567 136.045 91.2413 137.216 93.1855 138.446C95.5264 139.874 98.3831 140.271 101.041 139.477L110.584 136.621C112.012 136.164 113.103 135.073 113.559 133.645C113.956 132.217 113.619 130.729 112.647 129.618L109.274 125.849C108.104 124.559 106.477 123.845 104.731 123.845H102.47L105.902 121.325C107.271 120.353 108.104 118.806 108.243 117.12C108.243 116.921 108.382 116.723 108.501 116.604C109.79 115.572 111.933 113.628 114.472 111.406C116.218 109.859 118.102 108.173 119.987 106.546C126.673 109.462 133.08 111.664 136.393 112.775C138.278 113.43 140.083 114.263 141.77 115.295C147.086 118.667 156.946 124.896 162.005 128.13C164.981 130.015 168.611 130.53 172.063 129.558L181.605 126.642C183.033 126.186 184.125 125.095 184.521 123.587C184.918 122.159 184.521 120.671 183.49 119.56L180.573 117.219C179.205 115.85 177.459 114.957 175.515 114.759C174.404 114.62 172.539 114.561 169.801 114.62C169.226 114.62 168.631 114.481 168.115 114.223C164.683 112.22 158.136 108.331 152.681 104.364C152.284 102.816 151.391 101.388 150.082 100.277L146.908 97.6781C145.36 96.3886 143.396 95.7339 141.333 95.7339C141.016 95.7339 140.619 95.595 140.222 95.4165C139.964 95.2181 139.647 95.0197 139.31 94.8412C142.543 92.5002 145.737 89.7824 149.03 86.7273C154.665 81.3511 159.089 77.5818 162.382 75.2409C166.27 75.8162 171.845 75.7567 178.133 73.0388L181.704 74.5862C184.759 75.8757 188.39 75.6178 191.167 73.9315L192.199 73.2769H193.885C195.512 73.2769 197.119 72.7015 198.23 71.5311C199.658 70.1027 200.313 68.0197 199.856 66.0755C199.4 64.1314 199.4 63.9925 199.4 63.8735C199.202 63.1593 199.142 62.3856 199.142 61.7309C199.4 52.3871 185.652 51.2959 180.216 51.038C175.296 46.9513 167.381 44.174 160.299 49.0344C160.299 49.0344 153.613 47.6655 146.412 53.9543C145.975 54.3312 145.916 54.9859 146.313 55.4422ZM79.5168 111.982C78.9415 110.613 77.4338 106.466 76.8585 100.693C82.6315 102.896 88.3449 104.324 93.8401 105.098C93.5227 106.01 93.2648 106.923 92.7292 107.815C90.3287 108.986 86.9562 111.446 84.1788 115.136C82.1157 113.866 80.5484 112.755 79.5168 111.982Z" fill="white"/>
<path d="M197.276 61.7302C197.415 56.4136 191.642 53.5568 179.501 52.9022C178.132 51.6722 169.383 44.5304 160.833 51.0175C160.833 51.0175 155.06 49.5296 148.83 54.4496C148.632 54.5884 148.632 54.9058 148.771 55.1042L152.005 58.4767C142.462 65.6781 135.995 66.7692 132.94 66.7692C132.424 66.7692 132.027 66.5708 131.769 66.1939C128.397 61.5318 122.882 58.7942 116.99 58.7942H116.792C115.165 58.7942 113.617 58.3974 112.308 57.5642C111.138 56.85 109.967 56.0763 108.876 55.3621C99.7305 49.4701 91.8944 44.332 85.2684 44.8478C78.4638 45.3636 74.4961 48.4782 70.6872 51.454C70.2904 51.7714 69.9135 52.0293 69.5167 52.3665C67.513 53.9139 65.4895 55.5407 63.0891 56.7706C58.6056 59.0322 53.6262 61.6906 51.0868 65.0631C47.4564 63.8331 40.4535 62.2659 29.6217 63.5157C18.7305 64.7457 12.4417 60.5994 10.3587 50.8786C10.3587 50.7398 10.2198 50.6803 10.1008 50.6207C9.96191 50.6207 9.84288 50.6803 9.78337 50.7596C7.46228 54.6479 6.43068 58.2784 6.68858 61.6509C5.9744 61.6509 4.28814 61.512 2.34398 60.4804C2.20511 60.4209 2.08608 60.4209 2.02656 60.4804C1.96705 60.5399 1.8877 60.6788 1.8877 60.7978C2.60188 66.4319 5.00232 70.6575 8.95016 73.0579C13.1559 75.6568 19.0082 75.8552 25.2176 73.5737C33.7084 70.5186 40.513 71.828 44.7981 73.5142C42.973 76.113 40.9098 79.7435 38.4498 84.465C35.0773 90.9521 27.3006 97.102 22.8767 99.6414C21.1904 100.613 19.9604 102.101 19.4447 103.926C16.9252 111.644 11.9854 123.646 6.41084 132.196C5.37925 133.823 4.98248 135.708 5.43876 137.572C6.15294 140.627 6.72826 143.286 7.18454 145.547C7.44244 146.718 8.15662 147.749 9.18821 148.404L12.7591 150.745C13.7907 151.459 15.1596 151.717 16.3895 151.4C17.6195 151.142 18.6511 150.368 19.3058 149.317L22.2815 144.397C23.0552 143.107 23.1148 141.48 22.4204 140.112L20.7341 136.937C20.4167 136.283 20.3374 135.569 20.5953 134.934L28.8084 113.786C29.3242 112.556 30.2367 111.445 31.3278 110.671C33.9862 108.787 38.4696 106.069 44.8774 103.867C47.2184 103.093 48.8253 102.577 50.452 102.042C51.682 101.645 52.8525 101.328 54.2213 100.871C58.308 104.383 62.5138 110.473 64.9935 116.563C65.7077 118.309 66.9377 119.797 68.624 120.769C69.5961 121.345 70.9649 122.198 72.5123 123.17C74.1985 124.281 76.1427 125.431 78.0274 126.602C73.286 131.601 67.5924 134.775 67.513 134.775C65.3705 136.005 64.3389 138.544 65.0531 140.865C66.0251 143.921 66.4814 148.265 66.5409 149.158C66.6798 150.07 67.1956 150.844 67.9098 151.36L71.7981 153.959C72.5718 154.475 73.5439 154.733 74.4565 154.733C75.9443 154.733 77.4322 154.018 78.3448 152.729L81.4594 148.186C82.1736 147.214 82.1141 145.845 81.4594 144.873C80.6857 143.702 79.7731 142.155 79.059 140.925C78.7415 140.35 78.8606 139.695 79.3169 139.239C81.0626 137.612 83.9789 134.954 87.0935 132.097C89.5534 133.585 91.8349 135.013 94.156 136.442C96.0406 137.612 98.3022 137.929 100.445 137.275L109.987 134.418C110.82 134.16 111.415 133.585 111.673 132.732C111.872 131.958 111.673 131.105 111.157 130.53L107.785 126.76C107.011 125.848 105.841 125.332 104.67 125.332L99.0957 125.273C98.1831 125.273 97.3499 125.015 96.5762 124.558C96.3778 124.419 96.1199 124.3 95.8621 124.102C96.3778 123.705 96.973 123.527 97.6078 123.527C98.5204 123.527 99.433 123.209 100.127 122.694L104.73 119.261C105.642 118.607 106.218 117.575 106.277 116.405C106.337 115.691 106.733 115.036 107.249 114.58C108.479 113.608 110.622 111.663 113.141 109.461C115.145 107.636 117.426 105.633 119.569 103.827C126.572 106.942 133.376 109.342 136.947 110.513C139.03 111.167 140.975 112.14 142.78 113.231C148.156 116.603 157.956 122.832 163.015 126.066C165.475 127.613 168.59 128.149 171.506 127.296L181.048 124.38C181.881 124.122 182.476 123.467 182.734 122.694C182.933 121.92 182.734 121.067 182.159 120.491L179.302 118.23C178.271 117.119 176.902 116.405 175.354 116.286C174.323 116.147 172.498 116.087 169.899 116.147C168.927 116.206 168.014 115.948 167.181 115.492C163.551 113.35 156.607 109.263 150.973 105.117C150.775 103.688 150.06 102.32 148.89 101.427L145.716 98.828C144.545 97.8559 142.998 97.3401 141.431 97.3401C140.717 97.3401 139.943 97.1417 139.288 96.6854C138.455 96.1101 137.285 95.3959 135.975 94.6024C140.459 91.5473 144.407 88.2541 147.839 85.0006C154.127 79.0293 158.73 75.2005 162.043 72.8794C165.673 73.5341 171.585 73.7126 178.251 70.5385L182.595 72.4231C185.055 73.5341 188.051 73.3357 190.313 71.9073L191.8 70.9352H194.201C196.8 70.9352 198.684 68.5348 198.149 66.0153C197.891 64.8449 197.692 64.0116 197.692 63.9323C197.335 63.476 197.216 62.5634 197.276 61.7302ZM95.9216 104.66C95.4653 106.208 95.009 107.636 94.0369 109.322C91.8944 110.235 87.8077 112.953 84.6335 117.754C81.4594 115.75 79.178 114.183 77.948 113.211C77.5512 112.298 75.0318 106.347 74.7143 97.8361C82.1141 100.891 89.3749 102.835 96.3183 103.55C96.1795 103.946 96.0406 104.264 95.9216 104.66Z" fill="black"/>
<path d="M78.5452 53.5579C82.1161 54.53 88.6627 55.8988 94.2373 54.8474C94.6936 54.7879 95.0705 54.3911 95.2094 53.8753C95.3483 53.3 95.3483 52.7048 95.3483 52.1891C91.6583 50.2449 88.3453 49.0149 85.7465 49.2133C82.5129 49.4712 80.0331 50.4433 77.7715 51.8716L77.9104 52.8437C77.8905 53.1611 78.1484 53.419 78.5452 53.5579Z" fill="#FF4713"/>
<path d="M71.2815 118.211C73.4835 119.58 77.1735 121.841 81.1411 124.242C82.0537 123.012 82.8274 121.841 83.4821 120.929C80.5658 119.044 77.6496 117.04 75.1896 115.156C75.1896 115.156 73.4438 103.233 63.4453 99.9199C63.4453 99.9199 63.9611 105.633 68.643 115.295C69.1984 116.445 70.111 117.497 71.2815 118.211Z" fill="#FF4713"/>
<path d="M98.3837 128.846C97.1537 128.905 95.9237 128.588 94.8723 128.013C94.1581 127.616 93.2455 127.1 92.2139 126.465L89.1191 129.302C91.0633 130.532 92.8884 131.643 94.2374 132.536C95.9237 133.647 98.0662 133.905 100.01 133.369L104.355 132.139L105.268 129.481C104.871 129.223 104.434 129.024 103.899 128.965C102.927 128.786 101.102 128.707 98.3837 128.846Z" fill="#FF4713"/>
<path d="M169.979 119.758C168.432 119.817 166.805 119.44 165.496 118.647C161.925 116.564 154.545 112.159 148.574 107.755C148.058 107.359 147.741 106.843 147.741 106.267C147.741 105.494 147.344 104.72 146.769 104.184L143.594 101.586C142.88 101.01 141.849 100.752 140.936 100.931C139.964 101.189 138.417 100.99 137.504 100.534C135.302 99.4232 132.584 98.1932 130.243 97.1616C130.382 99.3637 131.473 104.422 138.615 106.823C141.591 107.656 144.071 109.223 144.071 109.223C148.673 112.14 159.703 119.024 165.337 122.654C167.024 123.765 169.107 124.023 171.11 123.487L176.169 122.059L176.685 120.63C176.229 120.234 175.653 119.976 174.999 119.916C174.007 119.758 172.38 119.698 169.979 119.758Z" fill="#FF4713"/>
<path d="M72.572 79.1697C71.0841 78.9118 69.6557 78.6539 68.5448 78.4555C68.4059 79.1102 68.148 79.6855 67.7711 80.2013C67.3148 80.7171 66.799 81.0345 66.2237 81.3122C64.7953 85.3989 60.9665 86.5099 58.9628 86.5099C58.447 86.5099 57.9312 86.252 57.594 85.8552C56.483 84.4864 54.6182 83.1373 53.9636 82.6811C53.5668 82.4232 53.2494 81.9669 53.1899 81.4511C53.1304 80.9353 53.2494 80.479 53.5866 80.0822C53.7255 79.9434 56.1061 77.0271 60.907 77.4239C61.1054 77.4239 61.3038 77.4239 61.4823 77.4239C61.6807 75.7971 63.0297 74.4481 64.7953 74.3093C64.9937 74.3093 65.1921 74.3093 65.3706 74.3093C69.5764 69.5084 70.8262 62.2475 71.0047 56.792C69.259 58.0815 67.3743 59.3908 65.0334 60.5613C59.7762 63.2196 55.5705 65.878 53.17 69.9647C50.8291 68.6752 42.8541 65.0448 29.7012 66.7905C13.8306 68.8537 10.2596 58.6766 10.2596 58.6766C10.2596 58.6766 9.08918 63.0808 12.4617 66.2549C11.2912 66.4533 9.80336 66.5128 8.375 65.997C8.375 65.997 12.0054 73.3967 20.9525 70.7979C30.8122 67.8816 41.4456 66.9691 50.968 72.4246C48.1708 74.7656 46.1671 79.4871 41.4257 87.0852C37.0811 94.1476 28.253 100.972 25.2178 103.035C24.1068 103.809 23.2736 104.86 22.8173 106.09C17.461 120.672 11.7475 131.107 9.86288 134.36C9.4066 135.193 9.28757 136.185 9.60498 137.078C10.4382 139.28 10.8945 141.165 11.1524 142.395C11.4103 143.565 12.1245 144.537 13.0965 145.192L14.2075 145.906L15.3779 143.644L17.2626 145.39L18.7505 143.188C17.2031 140.589 16.1516 138.586 15.5763 137.475C15.3184 136.899 15.2589 136.245 15.5168 135.65C19.544 125.016 23.0951 116.525 25.0591 112.042C26.0311 109.78 27.6579 107.836 29.8004 106.408C34.5418 103.234 40.3743 100.238 47.4963 97.9764C66.5411 91.8067 71.4015 83.058 72.572 79.1697ZM51.7615 78.1976C51.7615 78.1976 52.2773 68.0205 63.4265 70.54C63.367 70.4805 57.9908 71.5121 51.7615 78.1976Z" fill="#FF4713"/>
<path d="M187.931 67.0469C186.899 67.6223 185.53 67.9595 183.983 67.9595C181.781 67.9595 179.956 66.789 179.956 65.3607C179.956 63.9323 181.781 62.7619 183.983 62.7619C187.415 62.7619 189.954 65.1623 189.954 65.1623H193.902C192.275 60.4209 184.181 59.5282 184.181 59.5282C187.554 58.8735 190.41 59.7266 192.553 60.7582C193.009 60.6987 193.386 60.6193 193.723 60.5003C193.723 60.5003 193.148 56.0168 178.15 55.8978C178.15 55.8978 169.144 47.4665 161.942 54.5289C161.942 54.5289 158.709 52.5253 154.364 54.7273C154.364 54.7273 155.277 55.6994 156.05 56.5524C156.566 57.0682 157.34 57.3261 158.133 57.2666L160.078 57.0682C147.56 67.9595 138.87 71.1336 133.038 71.1336H132.839C130.955 71.1336 129.269 70.2211 128.237 68.7332C125.777 65.3607 121.69 63.0991 117.088 63.0991H116.83C114.37 63.0991 111.97 62.4444 109.966 61.1549C107.169 59.3298 104.391 57.5245 101.673 55.8383C102.07 68.2968 97.7851 75.9345 95.2458 79.3071C95.2458 79.3666 95.3053 79.3666 95.3053 79.3666C95.8211 80.1403 96.0195 81.1123 95.8211 82.0844C95.6822 82.7391 95.3648 83.3144 94.9879 83.7707C95.7616 87.9764 93.5 90.5752 92.0121 91.3489C91.8137 91.4085 91.6154 91.4878 91.4963 91.5473C91.04 91.6068 90.5242 91.6862 90.068 91.6862C87.1517 91.6862 84.5529 90.3173 84.4339 90.2578C83.7792 89.8611 83.4023 89.1469 83.5213 88.3732C83.5808 88.0558 84.295 84.9411 88.5801 82.997C88.719 82.9375 88.838 82.8581 88.9768 82.7391C88.838 82.4217 88.7785 82.0844 88.719 81.767C84.4339 81.1123 78.284 80.0807 73.4236 79.2475C76.3398 88.1351 85.0885 94.6223 95.345 94.6223C96.7733 94.6223 98.1422 94.4834 99.4912 94.3049C100.205 90.9919 102.348 85.2982 108.954 83.4136C108.954 83.4136 103.955 87.5598 101.892 100.395C101.118 105.137 99.8086 108.628 97.4082 112.14C95.8608 112.457 93.004 113.568 90.2663 116.802C86.4971 121.404 79.1767 132.553 70.3486 137.751C69.4361 138.267 68.9798 139.298 69.317 140.27C69.9717 142.274 70.3486 144.357 70.6065 145.785C70.8049 146.956 71.5191 148.047 72.6102 148.702L73.7807 149.475L74.8123 147.472L76.6374 149.158L78.2641 146.698C77.3516 145.27 76.3795 143.385 75.5463 141.838C74.8321 140.469 75.1495 138.862 76.2605 137.751C80.4662 133.724 87.6675 126.919 94.0356 121.602C94.6109 121.087 95.7219 120.69 96.5551 120.769C97.2693 120.829 97.9835 120.571 98.4993 120.194L101.733 117.734C102.507 117.159 102.963 116.306 102.903 115.334C102.903 114.619 103.161 113.905 103.618 113.33C106.593 110.156 117.227 98.3519 123.853 88.0954C123.853 88.0954 125.023 93.9279 132.026 90.0991C136.767 87.2424 140.914 84.0087 144.405 80.8346C151.726 74.2284 156.526 70.8559 159.582 69.4275C159.185 68.6538 158.927 67.7413 159.264 66.5708C159.264 66.5708 166.128 73.1175 177.099 67.0866L184.419 70.0624C185.709 70.5782 187.216 70.5187 188.446 69.864L189.676 69.2093C190.252 68.8919 190.966 68.6935 191.68 68.6935H193.168C194.279 68.6935 195.112 67.9793 195.112 67.0668L187.931 67.0469ZM125.42 84.2865C125.162 75.7361 118.357 73.7126 118.357 73.7126C131.074 74.6252 125.42 84.2865 125.42 84.2865ZM173.29 57.2468C172.834 58.2189 171.604 58.933 170.175 58.933C168.35 58.933 166.862 57.7626 166.803 56.3342H164.541C164.541 56.3342 166.227 53.4775 170.572 55.1042C173.627 56.2152 175.056 56.2152 175.69 56.0763C175.413 56.5921 174.778 57.4452 173.29 57.2468Z" fill="#FF4713"/>
<path d="M183.978 64.1909C183.066 64.1909 182.352 64.4488 181.975 64.7662L185.208 65.5994H181.776C182.094 66.0557 182.947 66.4327 183.978 66.4327C185.268 66.4327 186.319 66.2343 187.034 65.778L187.43 65.5201H188.085C187.291 65.0241 185.724 64.1909 183.978 64.1909Z" fill="white"/>
<path d="M170.173 57.9029C170.371 57.9029 170.629 57.9029 170.827 57.8434C170.252 57.526 169.855 57.0102 169.796 56.415H167.971C168.149 57.2482 169.121 57.9029 170.173 57.9029Z" fill="white"/>
<path d="M98.3214 50.3844L96.6351 49.2734C97.2898 49.8488 97.6072 51.6144 97.4088 53.8759C97.4088 54.1338 97.3493 54.4513 97.2699 54.7091C97.0121 55.8201 96.04 56.6533 94.929 56.9112C87.7277 58.2007 80.3478 56.3359 76.638 55.1654C75.9239 54.9075 75.4081 54.3322 75.3485 53.5387L75.0906 51.2771C74.9518 50.1066 75.4081 49.3925 75.4081 49.3925C75.4081 49.3925 74.6939 49.8488 73.6623 50.6224C73.087 51.0787 72.7497 51.7929 72.8291 52.5666C73.7416 62.8826 70.3691 70.2624 68.0877 73.9722C67.8298 74.369 68.0877 74.9443 68.544 75.0038C78.0069 76.6305 84.8115 77.5233 89.037 78.0589C90.3265 78.1978 91.6954 77.6621 92.4691 76.6305C99.5315 67.6834 99.5315 56.3954 99.1546 51.8524C99.2339 51.2771 98.8372 50.7018 98.3214 50.3844Z" fill="white"/>
<path d="M64.7347 76.1936C64.1594 76.2531 63.6238 76.7094 63.3659 77.3045C63.227 77.7013 63.227 78.1378 63.4254 78.5345C63.4254 78.594 63.4254 78.594 63.4254 78.6734C63.4254 78.7329 63.3659 78.7329 63.2865 78.7329C62.5723 78.9313 61.6598 78.9908 60.5687 78.9313C57.335 78.6139 55.371 80.1613 54.9346 80.6176C55.6488 81.1333 56.6208 81.3317 57.454 81.0143L59.1998 80.439C59.2593 80.439 59.3387 80.439 59.3982 80.4985C59.4577 80.558 59.4577 80.6374 59.3982 80.6969L57.9698 82.4427C58.3666 82.7006 58.8031 82.7601 59.2593 82.6411L60.5488 82.2443H60.6083C60.6679 82.2443 60.6679 82.2443 60.7472 82.3038C60.8067 82.3633 60.8067 82.4427 60.7472 82.5022C60.7472 82.5617 60.2314 83.6131 59.3188 84.248C60.6877 84.1885 63.6635 83.5933 64.576 79.8439C64.576 79.7843 64.7149 79.705 64.7744 79.705C65.1712 79.7645 65.4886 79.705 65.8853 79.5066C66.3416 79.2487 66.659 78.7924 66.7186 78.3361C66.7781 77.8203 66.659 77.2252 66.2623 76.8483C65.8258 76.3126 65.2505 76.1142 64.7347 76.1936Z" fill="white"/>
<path d="M92.8041 79.8249C92.2883 79.6861 91.7725 79.7654 91.3163 80.0828C90.8005 80.4796 90.6021 81.0549 90.6616 81.7096C90.7211 82.1659 90.9195 82.4833 91.3163 82.7412C91.3758 82.7412 91.3758 82.8007 91.3758 82.88C91.3758 82.9396 91.3758 82.9396 91.3163 83.0189C90.8005 83.5347 90.0268 84.0505 88.9753 84.4473C85.9996 85.6772 85.0275 87.9587 84.8291 88.5935C85.8012 88.653 86.7733 88.1967 87.4874 87.4825L88.4595 86.3716C88.519 86.3121 88.5984 86.3121 88.6579 86.3716C88.7174 86.4311 88.7174 86.5105 88.7174 86.57L87.7453 89.9425C88.2016 89.7441 88.9753 88.9109 89.2927 88.5141C89.3523 88.3753 89.4911 88.3158 89.4911 88.2562L90.4037 87.2842C90.4037 87.2246 90.4632 87.2246 90.5426 87.2246H90.6021C90.6616 87.2246 90.7409 87.2842 90.7409 87.3635C90.7409 87.423 90.7409 88.8514 90.2251 89.883C91.3956 89.0498 93.8556 86.9072 92.824 83.1379C92.824 83.0784 92.824 82.9396 92.9628 82.9396C93.2802 82.8007 93.6175 82.5428 93.796 82.2254C94.0539 81.7691 94.1135 81.2533 93.9944 80.797C93.7167 80.4002 93.3199 80.0035 92.8041 79.8249Z" fill="white"/>
<path d="M87.8862 73.5341C88.9178 71.2725 89.632 69.13 89.632 69.13L84.6327 68.8126C84.3153 69.7252 83.7995 71.0742 83.7995 71.0742C83.0258 71.3321 82.2521 71.6495 81.538 71.9074C81.3396 71.9669 81.2206 71.9669 81.2206 71.9074C80.8238 71.59 80.3873 71.2527 79.9906 70.9353C81.0222 68.3365 81.7363 65.6781 82.0736 63.0198C82.7283 62.7619 83.3036 62.4445 83.9582 62.1866C84.0971 62.1271 84.2161 62.1271 84.2757 62.1866C84.851 62.504 85.3866 62.9008 85.9024 63.2182C85.9024 63.2182 85.704 64.8449 85.5056 65.6186L90.5049 65.936C90.8223 64.3093 91.0802 61.6509 91.0802 61.6509C91.0802 61.6509 87.7077 59.5084 86.8745 58.9926C85.3866 58.08 83.3631 57.961 81.8752 58.6752C81.1015 59.0719 77.2132 60.7582 77.2132 60.7582C77.2132 60.7582 76.9553 66.5312 74.0391 72.4232C74.0391 72.4232 77.1537 74.7641 77.729 75.2204C78.3837 75.7362 79.2764 75.9941 80.3278 75.9941C81.1015 75.9941 81.8752 75.8552 82.7283 75.5378C82.7481 75.5973 87.0332 73.8515 87.8862 73.5341Z" fill="black"/>
<path d="M81.0023 62.2477C81.0023 62.2477 80.6849 66.5328 78.5424 71.3337C78.5424 71.3337 79.9707 72.3653 80.4865 72.8216C80.8039 73.0795 81.3991 73.139 81.8554 72.9604C82.6886 72.643 84.5732 71.9288 84.5732 71.9288C84.5732 71.9288 85.1485 70.56 85.3469 69.9847L88.0648 70.1831C87.7474 71.0163 87.4101 71.8693 87.0332 72.7025C86.319 72.9604 83.2639 74.3293 82.2918 74.6467C80.7444 75.1625 79.1772 75.103 78.4035 74.4483C77.8282 73.992 75.7451 72.4446 75.4277 72.1867C76.9751 68.6753 77.9472 65.1838 78.2845 61.6129C78.8003 61.355 81.5975 60.1845 82.3712 59.7878C83.5416 59.2124 85.089 59.3315 86.319 60.0457C87.1522 60.5019 87.8664 61.0177 88.6599 61.474C89.1162 61.7319 89.4931 62.0493 89.9494 62.3072C89.8899 63.1404 89.751 63.9935 89.632 64.8267L86.8348 64.6283C86.8943 64.1125 87.0927 62.7437 87.0927 62.7437C87.0927 62.7437 85.5453 61.7121 84.8311 61.3153C84.4344 61.0574 83.859 61.0574 83.4623 61.2558C82.7481 61.474 81.0023 62.2477 81.0023 62.2477Z" fill="#FF4713"/>
<path d="M177.044 135.072V131.898H175.675V131.125H179.246V131.898H177.877V135.072H177.044ZM179.702 135.072V131.125H180.932L181.845 133.981H181.904L182.817 131.125H184.047V135.072H183.213V132.216H183.154L182.241 135.072H181.468L180.555 132.156H180.496V135.072H179.702Z" fill="white"/>
</svg>
