<svg width="200" height="200" viewBox="0 0 200 200" fill="none" xmlns="http://www.w3.org/2000/svg">
<path d="M163.292 198.576L164.807 194.633H166.269V200H165.317V195.632H165.29L163.61 200H162.956L161.274 195.632H161.247V200H160.295V194.633H161.757L163.292 198.576ZM159.356 195.412H157.7V200H156.746V195.412H155.091V194.633H159.358V195.412H159.356Z" fill="black"/>
<path d="M174.824 161.962V164.799L172.722 166.704L143.875 193.062L142.039 194.748H139.534H57.6861H55.0138L53.1283 192.863L25 164.666V28.6301L55.0651 0H145.745L174.824 30.3825V68.1435H115.562V49.4293H84.2274V145.568H115.562V123.149H174.824V161.962Z" fill="#B32025"/>
<path d="M169.082 32.2964L143.69 5.77234L143.405 5.47583H142.993H57.6405H57.2527L56.9752 5.74193L30.7666 30.6923L30.4663 30.9774V31.3917V162.005V162.404L30.7495 162.688L56.9961 188.999L57.2774 189.282H57.6785H139.535H139.912L140.187 189.031L169.036 162.669L169.348 162.382V161.958V129.583V128.618H168.384H122.005H121.04V129.583V151.034H78.7552V43.9572H121.04V61.7115V62.6771H122.005H168.384H169.348V61.7115V32.9655V32.5778L169.082 32.2964Z" fill="white"/>
<path d="M122.969 130.549V152V152.964H122.005H77.7916H76.8261V152V42.9917V42.0261H77.7916H122.005H122.969V42.9917V60.746H167.419V33.3552L142.579 7.40698H58.0264L32.3975 31.8042V161.606L58.0777 187.353H139.161L167.419 161.53V130.549H122.969Z" fill="#B32025"/>
</svg>
