<svg width="200" height="200" viewBox="0 0 200 200" fill="none" xmlns="http://www.w3.org/2000/svg">
<g clip-path="url(#clip0_5_199951)">
<path d="M0 11.0205C0.761121 11.0205 1.15197 11.0205 1.5531 11.0205C25.3021 11.0205 49.0512 10.9691 72.8002 11.0411C87.4775 11.0822 101.733 13.4478 115.176 19.6191C127.796 25.4201 137.979 33.9673 144.767 46.248C145.518 47.6057 146.207 49.0148 146.845 50.4342C147.102 51.0102 147.421 51.185 148.038 51.2262C161.594 52.2033 175.078 53.9004 188.501 56.05C190.167 56.3175 191.823 56.6157 193.489 56.8317C194.106 56.914 194.322 57.1094 194.322 57.7471C194.302 69.6577 194.292 81.5682 194.281 93.4787C194.281 93.5096 194.25 93.5507 194.23 93.5918C193.87 93.6535 193.757 93.3244 193.582 93.129C184.819 83.9441 176.056 74.7695 167.303 65.5641C166.665 64.8955 165.966 64.4121 165.091 64.1035C160.761 62.5504 156.359 61.2648 151.844 60.3905C150.291 60.0922 150.301 60.0819 150.62 61.563C153.602 75.4998 153.119 89.2411 147.853 102.581C142.103 117.156 131.664 127.441 117.85 134.497C112.646 137.161 107.184 139.146 101.445 140.72C103.008 143.517 104.85 146.017 106.927 148.331C114.58 156.847 124.217 161.908 135.305 164.284C156.945 168.933 175.912 163.42 192.451 148.969C193.746 147.837 194.991 146.634 196.256 145.461C197.48 144.32 198.694 143.168 199.969 141.974C200.062 142.005 199.969 142.201 199.949 142.324C196.914 153.309 191.905 163.193 183.739 171.298C175.48 179.506 165.482 184.525 154.117 186.603C135.027 190.11 116.647 187.837 99.3983 178.642C85.441 171.195 75.423 160.087 69.6426 145.297C69.3134 144.443 68.8609 144.35 68.0998 144.35C45.9553 144.361 23.8107 144.361 1.65595 144.361H0.0719979C0.596554 143.877 0.905117 143.579 1.22397 143.301C6.33582 138.92 11.4477 134.528 16.5904 130.177C17.2075 129.653 17.4852 129.138 17.4852 128.315C17.4646 94.5484 17.4646 60.7916 17.4852 27.0246C17.4852 26.2429 17.2384 25.7492 16.6624 25.2555C11.6842 21.0488 6.72666 16.7906 1.75881 12.5427C1.26511 12.1107 0.771407 11.689 0 11.0205ZM49.5346 77.7009C49.5346 96.3895 49.5346 115.078 49.514 133.767C49.514 134.775 49.7403 135.063 50.7791 135.052C55.7058 134.991 60.6428 135.011 65.5696 135.042C66.3307 135.042 66.6084 134.991 66.4335 134.044C65.0244 126.526 64.7056 118.966 65.8061 111.375C68.3363 93.9312 76.4618 79.5728 89.8123 68.156C97.4646 61.6145 106.197 57.0066 115.845 54.1575C116.781 53.8798 116.863 53.5096 116.596 52.7176C115.999 50.9691 115.526 49.1897 114.898 47.4514C111.669 38.6471 106.567 31.2828 98.3903 26.356C91.1494 21.995 83.1576 20.4419 74.8161 20.3802C66.8449 20.3288 58.8737 20.3905 50.9025 20.3391C49.7609 20.3391 49.514 20.6476 49.514 21.7482C49.5449 40.3956 49.5346 59.0431 49.5346 77.6906V77.7009ZM118.858 65.9549C118.611 66.0166 118.519 66.0269 118.457 66.068C118.21 66.212 117.963 66.3663 117.727 66.5206C110.836 70.9331 105.528 76.8163 101.589 83.9544C97.0327 92.2342 94.8933 101.172 94.4922 110.563C94.2247 116.744 94.8727 122.854 96.4361 128.85C96.6624 129.725 96.8784 130.023 97.7835 129.437C99.2337 128.501 100.694 127.595 102.052 126.526C109.097 120.93 113.284 113.484 115.876 105.04C118.869 95.3198 119.578 85.3326 119.403 75.2324C119.352 72.157 119.259 69.092 118.858 65.9652V65.9549Z" fill="#EC1C24"/>
</g>
<defs>
<clipPath id="clip0_5_199951">
<rect width="200" height="177.187" fill="white" transform="translate(0 11)"/>
</clipPath>
</defs>
</svg>
