<svg width="200" height="200" viewBox="0 0 200 200" fill="none" xmlns="http://www.w3.org/2000/svg">
<g clip-path="url(#clip0_5_234910)">
<path d="M116.508 195.607C116.508 196.337 116.249 196.961 115.732 197.487C115.215 198.004 114.592 198.262 113.852 198.262C113.112 198.262 112.497 198.004 111.972 197.487C111.455 196.97 111.196 196.346 111.196 195.607C111.196 194.867 111.455 194.252 111.972 193.726C112.488 193.209 113.121 192.951 113.852 192.951C114.583 192.951 115.215 193.209 115.732 193.726C116.249 194.243 116.508 194.876 116.508 195.607ZM115.928 195.607C115.928 195.036 115.723 194.546 115.322 194.136C114.921 193.726 114.431 193.521 113.861 193.521C113.29 193.521 112.8 193.726 112.399 194.136C111.998 194.546 111.793 195.036 111.793 195.607C111.793 196.177 111.998 196.667 112.399 197.077C112.8 197.487 113.29 197.692 113.861 197.692C114.431 197.692 114.921 197.487 115.322 197.077C115.723 196.667 115.928 196.177 115.928 195.607ZM115.349 196.863H114.52L113.718 195.892H113.451V196.863H112.8V194.216H113.807C113.994 194.216 114.146 194.216 114.253 194.234C114.369 194.252 114.476 194.288 114.592 194.341C114.716 194.412 114.797 194.493 114.859 194.582C114.912 194.68 114.948 194.796 114.948 194.938C114.948 195.134 114.895 195.286 114.788 195.41C114.681 195.535 114.538 195.633 114.36 195.705L115.358 196.845L115.349 196.863ZM114.208 195.009C114.208 194.956 114.199 194.903 114.173 194.858C114.146 194.813 114.11 194.778 114.057 194.742C114.003 194.715 113.95 194.698 113.879 194.689C113.807 194.689 113.736 194.68 113.656 194.68H113.451V195.419H113.611C113.718 195.419 113.816 195.419 113.888 195.393C113.968 195.375 114.03 195.348 114.075 195.312C114.119 195.277 114.155 195.232 114.182 195.179C114.208 195.125 114.217 195.063 114.217 194.992" fill="black"/>
<path d="M24.1846 30.9583C24.1846 30.9583 24.2113 31.0118 24.2202 31.0475C24.4519 30.4682 24.3272 30.6821 24.1846 30.9583Z" fill="#CE0E2D"/>
<path d="M186.044 2.93179C186.044 2.93179 181.855 25.2639 175.591 31.6267C173.015 20.621 149.631 -0.178312 100.378 -8.26323e-05C51.1152 0.178147 30.1822 16.8961 24.2204 31.0475C23.9263 31.7515 24.0244 31.2881 24.1848 30.9583C20.4063 25.7362 17.617 13.1711 18.0804 1.5416C-9.37581 49.4675 9.65908 87.6531 21.9302 109.736C31.8308 127.55 56.7027 159.774 96.8489 196.765L100.342 199.991L103.853 196.774C130.882 172.036 165.333 134.741 180.946 104.237C196.194 74.4463 204.179 41.5452 186.035 2.92288L186.044 2.93179Z" fill="#CE0E2D"/>
<path d="M186.899 19.1152C183.361 30.5842 177.391 39.3175 171.598 45.0565C174.013 30.9407 164.897 17.4666 138.029 10.3285C147.609 20.8529 150.728 31.0031 148.482 37.1787C141.754 23.5709 127.87 6.60349 100.387 6.67478C72.9751 6.74608 59.296 21.3876 52.4609 35.1915C48.8963 30.406 50.3667 22.4481 61.408 10.3196C32.9359 17.8854 24.4165 33.5963 28.391 47.5784C28.5247 48.0507 28.6762 48.5052 28.8455 48.9597C22.5897 40.8948 16.5923 29.0515 15.0506 18.937C3.04684 56.0532 13.7139 84.2491 26.4662 107.205C39.9047 131.391 70.8274 165.727 100.369 192.942C130.793 165.103 162.455 128.985 176.348 101.867C191.364 72.5305 194.403 44.9941 186.908 19.0974L186.899 19.1152Z" fill="black"/>
<path d="M57.9233 108.907C51.7654 109.549 41.9717 97.4647 39.2805 65.125C25.8063 63.1021 16.3691 42.2136 16.3691 42.2136C13.6689 77.9308 33.8534 123.834 100.377 183.808C87.0994 166.208 70.3904 144.277 63.4573 130.918C62.3523 128.031 57.9144 108.907 57.9144 108.907H57.9233Z" fill="#003DA6"/>
<path d="M164.612 58.379C161.911 109.584 143.794 109.54 143.794 109.54C142.28 117.213 141.584 126.561 137.628 131.997C128.182 143.653 113.665 166.199 100.387 183.799C171.162 120.697 187.897 68.5203 184.636 38.7471C180.937 45.4752 173.648 54.3956 164.612 58.379Z" fill="#003DA6"/>
<path d="M103.8 115.822V91.1108L110.011 109.281L103.8 115.822Z" fill="#003DA6"/>
<path d="M112.292 89.0167L113.335 93.9359L131.425 79.2854L112.292 89.0167Z" fill="#CE0E2D"/>
<path d="M89.9328 89.0167L88.8902 93.9359L70.791 79.2854L89.9328 89.0167Z" fill="#CE0E2D"/>
<path d="M136.477 45.4485C137.511 45.1723 138.563 44.8247 139.605 44.4148C133.225 30.504 122.05 24.2571 122.05 24.2571C130.248 31.5199 134.606 40.8859 136.477 45.4485Z" fill="#0071CE"/>
<path d="M88.0615 79.0982L92.8648 84.0976L93.4708 63.9666L88.0615 79.0982Z" fill="#003DA6"/>
<path d="M48.3792 21.2271C17.4832 42.1333 47.7822 61.8277 63.8317 63.3337C71.1302 64.0288 72.7877 62.2198 74.1334 59.0919C64.607 58.3879 25.352 48.4961 48.3792 21.2271Z" fill="#003DA6"/>
<path d="M151.057 21.2271C174.084 48.4961 134.838 58.3879 125.312 59.0919C126.649 62.2198 128.315 64.0288 135.614 63.3337C137.414 63.1644 139.401 62.7634 141.46 62.1574C141.477 62.3356 141.504 62.5139 141.522 62.6921L116.855 75.6137L118.254 79.5971L141.611 69.2688L137.788 81.4953C137.788 81.4953 119.154 105.726 116.819 122.96L120.954 124.226L124.412 130.704L131.318 122.069L136.327 112.365C136.327 112.365 128.77 113.496 127.477 113.924C135.391 104.273 142.199 97.3577 142.894 93.9446L143.349 99.9064C151.806 105.877 157.188 66.328 157.188 66.328L141.468 88.8472C141.406 88.7136 141.344 88.5799 141.281 88.4641L147.796 67.7627C147.644 65.1695 147.216 62.6743 146.593 60.286C161.493 53.7361 175.653 37.8648 151.066 21.236L151.057 21.2271Z" fill="#0071CE"/>
<path d="M109.895 121.686C109.895 121.686 112.702 122.212 116.819 122.96C119.154 105.717 137.787 81.4954 137.787 81.4954C121.809 90.1217 109.895 121.686 109.895 121.686Z" fill="#003DA6"/>
<path d="M124.403 130.705L120.945 124.226L116.81 122.96L120.232 131.605L114.226 128.477L107.248 128.379L105.368 133.574L112.809 132.273L113.371 149.044L128.057 132.407C132.967 127.398 134.393 120.884 136.309 112.365L131.301 122.069L124.394 130.705H124.403Z" fill="#003DA6"/>
<path d="M118.254 79.5973L116.854 75.6138L112.452 77.9219L107.471 63.9666L108.068 84.0976L118.254 79.5973Z" fill="#003DA6"/>
</g>
<defs>
<clipPath id="clip0_5_234910">
<rect width="192.488" height="200" fill="white" transform="translate(4)"/>
</clipPath>
</defs>
</svg>
