<svg width="200" height="200" viewBox="0 0 200 200" fill="none" xmlns="http://www.w3.org/2000/svg">
<path d="M0 65.4082V181.401L12.2701 193.965L24.5402 181.401V137.263L43.784 139.941L55.6716 116.313H24.5402V89.2423H49.4924L61.4977 65.4082H0Z" fill="white"/>
<path d="M200 65.4082H175.43V166.6L168.692 173.485L161.953 166.6V65.4082H137.384V175.486L154.803 192.7H182.551L199.97 175.486V65.4082H200Z" fill="white"/>
<path d="M96.8664 7C91.0109 7 86.2441 11.7668 86.2441 17.6223C86.2441 19.7998 86.8915 21.8889 88.1273 23.6544C86.5089 31.7168 86.2735 39.8969 87.3917 48.0769C83.3311 47.1059 79.5941 44.6931 77.3578 42.7511L67.5888 62.142H83.537V65.4081H65.3525V192.7H110.52L127.939 175.486V82.5922L110.225 65.0845V62.1126H126.173L116.404 42.7216C114.168 44.6637 110.431 47.0471 106.371 48.0475C107.489 39.8969 107.253 31.7168 105.635 23.625C106.841 21.8595 107.518 19.7703 107.518 17.5929C107.489 11.7668 102.722 7 96.8664 7Z" fill="white"/>
<path d="M91.364 94.0973C91.364 96.0982 90.9815 98.1285 90.393 99.5703C89.8927 100.806 89.3043 102.542 89.3043 104.69C89.3043 106.838 89.7162 108.28 90.2164 109.486C90.8049 110.928 91.3934 112.252 91.3934 115.519C91.3934 118.049 90.8049 120.168 90.2458 121.609C89.7456 122.845 89.3337 124.228 89.3337 126.347C89.3337 128.495 89.6279 129.584 90.1281 130.819C90.7166 132.261 91.364 133.938 91.364 137.175C91.364 139.676 90.8932 141.559 90.3047 143.001C89.8045 144.237 89.2454 145.826 89.2454 147.974C89.2454 150.122 89.7456 151.446 90.2753 152.829C90.9226 154.506 91.4228 156.978 91.364 159.479C91.3051 162.039 89.0688 164.952 89.0688 166.159L96.8958 174.25V85.8584H89.4219C90.187 87.6533 91.364 91.5374 91.364 94.0973Z" fill="#28334A"/>
<path d="M107.253 55.0801H86.4497V72.7644H107.253V55.0801ZM96.8661 68.3506C96.8661 64.29 93.6293 58.7876 87.5678 58.7876L88.2152 57.9343H104.252V68.3506H96.8661Z" fill="#28334A"/>
<path d="M109.284 68.3506H68.2656V189.757H109.284L124.967 174.25V83.828L109.284 68.3506ZM96.8665 177.693L86.6855 167.277C86.6855 163.363 88.8335 162.539 88.9218 159.45C89.0689 154.035 86.8326 153.447 86.8326 148.033C86.8326 142.619 88.9218 142.619 88.9218 137.205C88.9218 131.79 86.8326 131.79 86.8326 126.376C86.8326 120.962 88.9218 120.962 88.9218 115.548C88.9218 110.134 86.8326 110.134 86.8326 104.72C86.8326 99.3054 88.9218 99.5408 88.9218 94.1267C88.9218 89.8895 87.6565 87.8592 87.0975 86.3291H106.665C106.047 87.8592 104.841 89.9189 104.841 94.1267C104.841 99.5408 106.93 99.3054 106.93 104.72C106.93 110.134 104.841 110.134 104.841 115.548C104.841 120.962 106.93 120.962 106.93 126.376C106.93 131.79 104.841 131.79 104.841 137.205C104.841 142.619 106.93 142.619 106.93 148.033C106.93 153.447 104.664 154.035 104.841 159.45C104.929 162.539 107.077 163.363 107.077 167.277L96.8665 177.693Z" fill="#28334A"/>
<path d="M96.8663 9.94238C92.6291 9.94238 89.1864 13.3851 89.1864 17.6222C89.1864 19.6525 89.9809 21.5063 91.2756 22.8893C89.1864 32.4229 89.0981 42.1625 90.9813 51.7255C84.2725 50.8134 79.5057 48.5476 78.2699 47.4589L72.3555 59.1994H91.8641C95.5127 59.1994 96.8369 62.083 96.8369 62.083C96.8369 62.083 98.161 59.1994 101.81 59.1994H121.318L115.404 47.4589C114.168 48.5476 109.431 50.8134 102.692 51.7255C104.576 42.1625 104.487 32.4229 102.398 22.8893C103.693 21.5063 104.487 19.6525 104.487 17.6222C104.546 13.3851 101.103 9.94238 96.8663 9.94238Z" fill="#72293C"/>
<path d="M114.168 51.7257C109.578 53.6383 104.075 54.1974 99.5143 54.521C100.515 49.6071 101.515 42.1038 101.486 38.5728C101.427 33.7177 101.221 29.2452 100.162 24.5667C99.1612 25.0374 98.0431 25.3023 96.8661 25.3023C96.6013 25.3023 96.3659 25.3023 96.1305 25.2728V29.4806L98.102 29.1275V33.1587L96.1305 32.8056L96.1011 37.4547L98.102 37.1016V41.1328L96.1011 40.7797L96.1305 45.4288L98.102 45.0757V49.1069L96.1305 48.7538C96.1305 52.4907 96.4836 55.8157 96.8661 57.7283C97.6606 56.9339 99.2201 56.0511 101.78 56.0511C103.869 56.0511 116.492 56.0511 116.492 56.0511L114.168 51.7257Z" fill="white"/>
<path d="M96.7192 22.2419C99.6323 22.0948 101.515 19.9174 101.457 17.4163C101.368 14.9152 99.4557 13.0614 97.0135 13.032C97.808 15.9156 97.7491 19.888 96.7192 22.2419Z" fill="white"/>
<path d="M156.04 189.757L140.356 174.25V68.3506H159.012V167.806L168.692 177.693L178.373 167.806V68.3506H197.058V174.25L181.345 189.757H156.04Z" fill="#28334A"/>
<path d="M21.5977 86.2703H47.6974L56.7014 68.3506H2.94238V180.194L12.27 189.757L21.5977 180.194V133.85L42.1067 136.734L50.9047 119.255H21.5977V86.2703Z" fill="#28334A"/>
</svg>
