<svg width="200" height="200" viewBox="0 0 200 200" fill="none" xmlns="http://www.w3.org/2000/svg">
<path d="M172.788 84.1126L174.113 81.8047H174.105L172.622 84.3895L170.115 88.7571L170.119 88.7622L172.788 84.1126Z" fill="#104C99"/>
<path d="M198.46 91.1089L198.415 91.1984C198.415 91.1984 184.166 119.071 181.363 122.901L181.198 123.121C178.311 127.07 171.547 136.318 159.7 140.63C154.965 142.354 150.042 143.229 145.073 143.229C141.124 143.229 138.426 142.658 137.734 142.493C136.863 142.307 133.922 141.54 131.004 139.246C130.359 138.741 129.694 138.142 129.049 137.438C121.997 142.182 112.691 146.175 105.023 146.175C100.313 146.175 97.1436 144.711 95.0433 142.997C88.0081 149.256 75.5687 155.752 65.7867 155.752C59.2023 155.752 55.6197 152.891 53.7761 150.49C52.6922 149.08 51.902 147.441 51.404 145.582L49.0286 146.043L42.6788 147.275L35.9847 161.97L34.9059 164.334L32.3616 164.864L11.8082 169.132L7.70559 169.985L2.18652 156.933L11.9652 150.112L26.8442 120.382L5.3521 113.693L65.4136 101.023L68.6703 100.423L70.5595 103.145L71.6316 104.696C74.8478 102.326 78.4084 100.197 82.2476 98.3535C81.1637 96.8475 80.1018 95.1778 79.521 94.0128C78.8592 92.6892 78.0978 90.881 78.0978 88.6373C78.0978 87.7475 78.221 86.846 78.4642 85.9562C79.6021 81.7794 85.4217 79.0848 87.2265 78.3403C87.3463 78.2812 87.5574 78.1833 87.8596 78.0685C87.5101 77.4961 87.213 76.8546 86.9597 76.1286C86.6761 75.3132 86.514 74.3019 86.514 73.353C86.514 72.1138 86.7824 70.3141 88.0571 68.7845C89.9446 66.5188 92.2745 64.9402 97.5048 64.6059C99.1712 64.4996 101.12 64.0471 101.95 63.8394C104.667 60.7481 106.829 57.6822 108.524 52.9313C110.272 48.0335 111.268 41.4238 111.278 41.3563L111.472 40.0563L114.619 42.4148C118.126 44.1437 119.346 49.2744 119.353 49.3251C119.355 49.3369 119.357 49.3504 119.358 49.3639C120.626 47.9423 121.847 46.4026 123.061 44.694C124.935 42.0586 125.357 40.2943 125.374 40.22L126.468 35.0099L130.388 38.5891C131.536 39.6376 132.875 41.9472 132.883 45.0182C137.221 40.5054 137.977 36.7371 138.007 36.575L139.003 30.7976L143.141 34.9356C144.985 36.781 147.686 41.6517 147.843 46.4566C148.061 45.9586 148.201 45.5939 148.26 45.4403L148.264 45.4301L149.719 41.336L153.06 44.1234C155.184 45.8944 156.452 49.342 156.452 53.3466C156.452 54.4052 155.967 57.4762 155.542 59.801C156.33 58.8809 157.281 57.6754 158.1 56.5628L158.843 55.5566L159.425 56.6641C159.677 57.1402 161.861 61.4302 161.227 64.9807C159.873 72.5562 153.425 78.0769 151.48 79.5879C150.666 80.2211 149.886 80.8255 149.135 81.4029H149.3L162.562 81.3843L165.078 81.3809L166.497 83.4592L169.479 87.8252L170.115 88.7571L170.119 88.7622L172.788 84.1126L174.113 81.8047L174.166 81.7135L176.931 81.7237L190.186 81.7709L192.869 81.7811L192.923 81.8705H192.928L194.414 84.3523L197 88.6676L198.46 91.1089Z" fill="#164884"/>
<path d="M139.003 30.7975L143.141 34.9356C144.985 36.7809 147.686 41.6516 147.843 46.4566C148.061 45.9585 148.201 45.5938 148.26 45.4402L148.264 45.4301L149.719 41.3359L153.06 44.1233C155.184 45.8943 156.452 49.3419 156.452 53.3465C156.452 54.4051 155.967 57.4761 155.542 59.8009C156.33 58.8808 157.281 57.6753 158.1 56.5627L158.842 55.5565L159.425 56.664C159.677 57.1401 161.861 61.4301 161.226 64.9806C159.872 72.5561 153.425 78.0768 151.48 79.5879C150.666 80.221 149.886 80.8254 149.135 81.4028H149.3L162.562 81.3842L165.077 81.3808L166.497 83.4591L169.479 87.8251L170.115 88.757L170.119 88.7621L172.788 84.1125L174.113 81.8046L174.166 81.7134L176.931 81.7236L190.186 81.7708L192.869 81.781L192.923 81.8704H192.928L194.413 84.3522L197 88.6676L198.46 91.1088L198.415 91.1983C198.415 91.1983 184.165 119.071 181.363 122.901L181.197 123.121C178.31 127.07 171.547 136.318 159.7 140.63C154.964 142.354 150.041 143.229 145.073 143.229C141.124 143.229 138.426 142.658 137.734 142.492C136.862 142.307 133.921 141.54 131.004 139.246C130.359 138.741 129.694 138.142 129.049 137.438C121.997 142.182 112.691 146.175 105.023 146.175C100.312 146.175 97.1434 144.711 95.0431 142.997C88.008 149.256 75.5685 155.752 65.7865 155.752C59.2021 155.752 55.6195 152.891 53.7759 150.49C52.692 149.08 51.9019 147.441 51.4038 145.582L49.0284 146.043L42.6787 147.275L35.9845 161.97L34.9057 164.334L32.3614 164.864L11.808 169.132L7.70543 169.985L2.18636 156.932L11.965 150.112L26.8441 120.382L5.35193 113.693L65.4134 101.023L68.6701 100.423L70.5593 103.145L71.6314 104.696C74.8476 102.326 78.4083 100.197 82.2475 98.3534C81.1636 96.8474 80.1016 95.1777 79.5209 94.0127C78.859 92.6891 78.0976 90.8809 78.0976 88.6372C78.0976 87.7474 78.2209 86.8459 78.464 85.9561C79.6019 81.7793 85.4215 79.0847 87.2263 78.3402C87.3461 78.2811 87.5572 78.1832 87.8594 78.0684C87.5099 77.496 87.2128 76.8545 86.9595 76.1285C86.6759 75.3131 86.5138 74.3018 86.5138 73.3529C86.5138 72.1137 86.7823 70.314 88.0569 68.7844C89.9445 66.5187 92.2743 64.9401 97.5047 64.6058C99.171 64.4995 101.119 64.047 101.95 63.8393C104.666 60.7481 106.829 57.6821 108.524 52.9312C110.272 48.0334 111.268 41.4237 111.278 41.3562L111.472 40.0562L114.619 42.4147C118.126 44.1436 119.346 49.2743 119.353 49.325C119.355 49.3368 119.356 49.3503 119.358 49.3638C120.626 47.9423 121.847 46.4025 123.061 44.694C124.935 42.0585 125.357 40.2942 125.374 40.22L126.468 35.0098L130.388 38.589C131.536 39.6375 132.875 41.9471 132.883 45.0181C137.22 40.5053 137.977 36.737 138.007 36.5749L139.003 30.7975ZM138.115 28L137.673 30.5679L136.68 36.3301C136.655 36.45 136.147 38.7748 133.8 41.8762C133.248 39.9346 132.25 38.4607 131.299 37.5913L127.379 34.0121L125.634 32.4183L125.147 34.733L124.057 39.9262C124.031 40.0241 123.611 41.5925 121.961 43.9123C121.266 44.8915 120.572 45.8082 119.87 46.6777C119.762 46.4262 119.642 46.1645 119.512 45.9011C118.418 43.6877 117.013 42.1294 115.337 41.2633L112.284 38.9757L110.473 37.6183L110.138 39.857L109.944 41.157C109.934 41.2211 108.946 47.7363 107.255 52.477C105.678 56.8987 103.694 59.7672 101.217 62.6271C100.319 62.8399 98.749 63.1725 97.422 63.2569C91.3728 63.6435 88.8487 65.7252 87.022 67.9183C85.4873 69.7585 85.1666 71.8892 85.1666 73.3513C85.1666 74.4453 85.3556 75.6186 85.6865 76.5709C85.7862 76.8579 85.8925 77.1314 86.0039 77.3947C83.2841 78.6086 78.3188 81.3555 77.1623 85.5999C76.8871 86.6045 76.7487 87.6259 76.7487 88.6355C76.7487 91.1595 77.5861 93.1568 78.3137 94.6155C78.7476 95.4866 79.4381 96.6347 80.2435 97.8351C77.3092 99.3241 74.5319 100.985 71.9606 102.794L71.6719 102.375L69.781 99.6517L69.2847 98.9358L68.427 99.0928L65.1703 99.6922L65.1534 99.6956L65.1365 99.6989L5.07336 112.371L0 113.442L4.95011 114.983L24.9244 121.2L10.9098 149.2L1.41311 155.825L0.514934 156.451L0.940387 157.459L6.45946 170.512L6.89166 171.533L7.97893 171.307L12.0815 170.454L32.6349 166.186L35.1809 165.656L35.8495 165.516L36.1331 164.895L37.2119 162.531L43.6174 148.469L49.2833 147.37L50.4685 147.14C51.0088 148.685 51.7584 150.085 52.7021 151.314C54.7298 153.954 58.6467 157.103 65.7831 157.103C75.5381 157.103 87.6821 150.995 95.1005 144.731C97.7866 146.587 101.118 147.525 105.019 147.525C108.81 147.525 113.091 146.624 117.746 144.848C121.506 143.413 125.326 141.461 128.86 139.178C129.277 139.577 129.714 139.955 130.168 140.309C133.309 142.779 136.501 143.61 137.431 143.809C138.213 143.995 140.997 144.579 145.069 144.579C150.197 144.579 155.273 143.678 160.159 141.9C172.388 137.449 179.317 127.978 182.28 123.926L182.438 123.715L182.443 123.707L182.448 123.698C185.281 119.825 199.029 92.9542 199.613 91.8129L199.661 91.7217L200 91.0565L199.617 90.415L198.156 87.9737L195.57 83.6567L194.084 81.1749L193.691 80.5181H193.682L193.63 80.432L192.872 80.4286L190.189 80.4185L176.934 80.3712L174.169 80.3611L173.384 80.3577L172.992 81.0381L172.94 81.1293L171.615 83.4372L170.017 86.2195L167.61 82.6943L166.19 80.616L165.786 80.0268L165.072 80.0285L162.557 80.0319L153.058 80.0454C155.658 77.8742 161.258 72.4581 162.553 65.217C163.269 61.209 160.89 56.5492 160.617 56.0326L160.036 54.9268L159.033 53.0207L157.754 54.7529L157.683 54.8474C157.754 54.2396 157.799 53.7095 157.799 53.3448C157.799 48.9451 156.349 45.1093 153.921 43.085L150.58 40.2976L149.091 39.055L148.441 40.8818L148.262 41.3849C147.202 38.118 145.444 35.3323 144.092 33.9783L139.954 29.8403L138.115 28Z" fill="white"/>
<path d="M149.46 86.6179L162.43 86.5994L165.241 90.7171C163.686 93.5906 149.857 119.266 149.857 119.266C149.857 119.266 148.464 121.873 148.994 123.46C148.994 123.46 154.169 123.48 157.99 119.346C161.81 115.211 170.735 97.9684 170.735 97.9684L177.066 86.9404L190.018 86.986L192.605 91.303C192.605 91.303 179.934 116.005 177.228 119.702C174.52 123.399 168.54 131.789 157.949 135.643C147.358 139.497 138.856 137.321 138.856 137.321C138.856 137.321 129.332 135.484 129.937 124.65C130.281 118.895 136.628 109.201 136.628 109.201L149.46 86.6179Z" fill="#009366"/>
<path d="M162.429 86.5993L165.24 90.717C163.685 93.5905 149.856 119.266 149.856 119.266C149.856 119.266 148.463 121.873 148.993 123.46C148.993 123.46 148.993 123.46 148.995 123.46C149.893 123.495 154.203 123.441 157.989 119.346C161.809 115.211 170.734 97.9683 170.734 97.9683L177.065 86.9403L190.017 86.9859L192.604 91.3029C192.604 91.3029 179.933 116.004 177.227 119.702C174.519 123.399 168.539 131.788 157.948 135.643C152.974 137.453 148.46 137.934 145.071 137.934C141.246 137.934 138.855 137.323 138.855 137.323C138.855 137.323 129.331 135.486 129.936 124.652C130.28 118.897 136.626 109.202 136.626 109.202L149.458 86.6195L162.429 86.5993ZM163.106 85.3162L162.429 85.3178L149.459 85.3364L148.715 85.3381L148.347 85.9847L135.534 108.534C135.046 109.283 129.012 118.667 128.659 124.573C128.317 130.725 131.036 134.213 133.38 136.055C135.76 137.927 138.218 138.494 138.575 138.57C138.902 138.651 141.333 139.214 145.075 139.214C149.593 139.214 154.072 138.417 158.389 136.845C169.136 132.933 175.189 124.657 178.098 120.681L178.262 120.458C180.997 116.722 193.227 92.9 193.745 91.887L194.069 91.2539L193.703 90.6445L191.116 86.3275L190.745 85.7078L190.022 85.7045L177.07 85.6589L176.325 85.6555L175.954 86.3021L169.623 97.3301L169.609 97.3538L169.596 97.3791C169.508 97.5496 160.707 114.515 157.046 118.476C154.733 120.98 151.821 121.792 150.209 122.054C150.344 121.311 150.687 120.43 150.985 119.867C151.12 119.616 164.83 94.1646 166.366 91.3265L166.737 90.6394L166.297 89.9945L163.486 85.8767L163.106 85.3162Z" fill="#C4AB2F"/>
<path d="M149.46 86.6179L162.43 86.5994L146.307 115.258C146.307 115.258 141.269 123.46 148.994 123.46C151.518 123.46 154.956 122.587 157.99 119.346C161.836 115.235 170.735 97.9684 170.735 97.9684L177.066 86.9404L190.019 86.986C190.019 86.986 174.91 114.613 172.202 118.309C169.494 122.005 164.5 129.045 153.911 132.899C146.935 135.793 128.601 137.662 129.939 124.65C130.283 118.895 136.629 109.201 136.629 109.201L149.46 86.6179Z" fill="white"/>
<path d="M145.782 91.5327L142.677 87.4639C142.677 87.4639 121.711 90.1466 107.562 104.82C103.132 109.415 98.2625 115.184 96.3378 122.417C88.6189 151.412 119.025 140.316 131.265 129.065L133.367 123.075L129.586 117.951L118.362 119.903L117.371 122.523C117.371 122.523 115.693 123.673 113.358 123.973C113.454 122.981 113.493 109.28 130.735 107.668L145.782 91.5327Z" fill="#009366"/>
<path d="M142.679 87.4638L145.784 91.5326L130.738 107.671C113.495 109.283 113.456 122.984 113.36 123.977C115.697 123.676 117.373 122.526 117.373 122.526L118.364 119.906L129.588 117.955L133.37 123.079L131.268 129.069C124.818 134.996 113.326 140.882 105.023 140.882C97.5692 140.882 92.6883 136.138 96.3401 122.42C98.2648 115.187 103.134 109.417 107.564 104.823C121.712 90.1465 142.679 87.4638 142.679 87.4638ZM143.25 86.0996L142.517 86.1942C142.297 86.2229 137.057 86.9117 129.996 89.434C123.471 91.7656 114.123 96.1737 106.642 103.931C102.062 108.682 97.1083 114.554 95.1026 122.089C93.1256 129.516 93.4464 135.003 96.0565 138.4C97.9744 140.895 100.991 142.161 105.023 142.161C110.188 142.161 115.683 140.093 119.384 138.356C124.147 136.122 128.793 133.08 132.134 130.011L132.37 129.795L132.477 129.492L134.579 123.502L134.803 122.862L134.401 122.317L130.619 117.193L130.15 116.557L129.37 116.692L118.146 118.643L117.425 118.768L117.167 119.452L116.333 121.659C116.019 121.834 115.486 122.101 114.809 122.329C115.133 120.082 115.869 118.039 117.005 116.243C119.679 112.01 124.341 109.555 130.859 108.946L131.344 108.9L131.676 108.544L146.723 92.4054L147.46 91.6153L146.805 90.756L143.7 86.6871L143.25 86.0996Z" fill="#C4AB2F"/>
<path d="M128.173 102.794L142.679 87.4639C142.679 87.4639 121.714 90.1466 107.564 104.82C103.134 109.415 98.2647 115.184 96.34 122.417C89.754 144.449 114.908 137.039 127.148 125.79L129.59 117.953L118.366 119.905L117.375 122.527C117.375 122.527 115.203 124.218 109.443 124.48C108.221 124.439 108.086 123.558 108.14 122.738C109.357 104.073 128.173 102.794 128.173 102.794Z" fill="white"/>
<path d="M106.549 101.109L103.444 97.0398C103.444 97.0398 82.479 99.7225 68.3293 114.396C63.8992 118.991 59.0301 124.76 57.1054 131.993C49.3865 160.988 79.7929 149.892 92.0331 138.641L98.1008 120.737L94.7512 115.554L79.8249 121.125L74.8866 129.914L77.0409 132.518L73.8247 133.624C73.8247 133.624 74.2603 118.856 91.5046 117.245L106.549 101.109Z" fill="#009366"/>
<path d="M103.444 97.0416L106.548 101.11L92.1878 116.513L89.5523 117.497C86.1369 118.054 83.4609 119.163 81.3674 120.551L79.8226 121.129L79.1692 122.29C74.0148 127.136 73.7667 133.744 73.7667 133.744C74.3103 133.631 76.0526 133.107 77.0842 132.577C77.0369 132.52 74.8826 129.918 74.8826 129.918L79.1675 122.29C79.8175 121.679 80.5469 121.093 81.3657 120.551L89.5506 117.497C90.1753 117.396 90.8236 117.311 91.5006 117.249L92.1861 116.513L94.7472 115.557L98.0968 120.74L92.0291 138.645C85.5797 144.572 74.0874 150.458 65.7844 150.458C58.3305 150.458 53.4496 145.714 57.1014 131.996C59.0261 124.764 63.8951 118.993 68.3253 114.399C82.4783 99.7243 103.444 97.0416 103.444 97.0416ZM104.014 95.6758L103.282 95.7703C103.062 95.799 97.8216 96.4879 90.7611 99.0102C84.2358 101.342 74.8877 105.75 67.4068 113.508C62.8264 118.259 57.873 124.13 55.8673 131.665C53.8902 139.092 54.211 144.579 56.8211 147.976C58.7391 150.471 61.7561 151.738 65.7877 151.738C70.9523 151.738 76.4477 149.669 80.1485 147.932C84.9112 145.699 89.5574 142.656 92.8985 139.587L93.14 139.366L93.2446 139.055L99.3124 121.151L99.5116 120.565L99.1757 120.045L95.8261 114.862L95.6842 114.642L107.487 101.983L108.225 101.193L107.57 100.334L104.465 96.265L104.014 95.6758Z" fill="#C4AB2F"/>
<path d="M88.9387 112.371L103.445 97.0415C103.445 97.0415 82.4792 99.7242 68.3295 114.397C63.8994 118.993 59.0303 124.762 57.1057 131.994C50.5196 154.027 75.6736 146.617 87.9139 135.368L94.7515 115.557L79.8252 121.129L74.8869 129.918L79.6766 127.929L78.1403 132.104C78.1403 132.104 72.9031 134.669 70.2086 134.058C69.405 133.875 68.8512 133.136 68.9052 132.315C70.1225 113.651 88.9387 112.371 88.9387 112.371Z" fill="white"/>
<path d="M66.3449 106.062L22.5891 114.142L34.5069 116.525L15.9659 153.568L8.53906 158.749L10.7642 163.944L31.3211 159.674L39.1092 142.577L48.0505 140.841L54.1655 129.101L51.3849 125.802L60.2704 123.913L69.421 110.504L66.3449 106.062Z" fill="#009366"/>
<path d="M66.345 106.062L69.4211 110.504L60.2722 123.911L51.3867 125.8L54.1673 129.099L48.0506 140.839L39.1093 142.575L31.3211 159.674L10.766 163.944L8.54084 158.751L15.9677 153.568L34.507 116.525L22.5909 114.144L66.345 106.062ZM66.9258 104.652L66.112 104.803L22.3562 112.883L15.8039 114.093L22.3377 115.398L32.6093 117.451L14.9648 152.703L7.80643 157.699L6.95215 158.295L7.36241 159.254L9.58759 164.447L9.99954 165.409L11.0243 165.197L31.5795 160.927L32.2159 160.795L32.4844 160.204L39.999 143.708L48.292 142.099L48.8981 141.981L49.1834 141.432L55.3001 129.692L55.6969 128.93L55.1431 128.273L53.7385 126.609L60.5339 125.164L61.0353 125.057L61.324 124.633L70.4729 111.227L70.9693 110.499L70.4679 109.775L67.3918 105.333L66.9258 104.652Z" fill="#C4AB2F"/>
<path d="M66.3449 106.062L22.5891 114.142L34.5069 116.525L15.9659 153.568L8.53906 158.749L28.3294 154.854L35.9082 137.73L44.8613 135.993L50.4614 124.64L41.515 126.378L43.801 121.829L57.3058 119.209L66.3449 106.062Z" fill="white"/>
<path d="M96.988 88.7671C95.3013 88.7671 99.0967 86.9386 99.0967 86.9386L101.486 88.345C101.486 88.345 98.6746 88.7671 96.988 88.7671ZM81.2428 86.6567C80.6114 88.9764 81.2428 90.8758 82.0853 92.5607C82.9295 94.249 85.0162 97.2778 86.3483 98.7551C89.3028 102.027 93.0508 103.151 93.0508 103.151C93.0508 103.151 92.2995 98.8412 92.5325 96.5046C92.7318 94.5259 92.8145 92.8511 93.6586 92.0053C94.5011 91.1628 96.235 90.3254 98.9987 90.3186C101.766 90.3119 103.922 88.7181 103.922 88.7181L100.361 86.0945C99.5204 85.8142 100.032 81.6188 96.7415 80.7611C96.2333 80.9013 89.8025 82.6841 88.6224 83.4928C86.1626 85.1794 81.0301 86.0928 87.6398 98.5339C87.6398 98.5339 83.5018 93.4268 82.7184 90.0299C82.0195 86.996 84.4574 84.1614 86.5137 82.9998C87.9707 82.1776 91.6614 80.9705 93.662 80.2479C93.2568 80.2158 92.8651 80.1956 92.5038 80.1956C89.7029 80.1956 88.2712 81.033 88.2712 81.033C88.2712 81.033 82.087 83.5654 81.2428 86.6567Z" fill="#C4AB2F"/>
<path d="M110.859 90.9687C108.875 89.9051 106.734 89.4695 106.734 89.4695C106.734 89.4695 105.983 91.1578 104.015 91.7217C100.501 92.7245 94.501 93.4151 94.501 93.4151C99.9863 95.0949 99.1708 96.2784 107.484 94.7201C108.983 94.4365 115.032 93.2125 110.859 90.9687Z" fill="#C4AB2F"/>
<path d="M115.733 91.3436C113.118 91.4044 108.609 87.5955 107.39 87.5027C99.0698 86.8611 99.0495 77.849 99.0495 77.849C97.1755 78.4112 95.3943 78.786 92.8653 78.2238C91.491 77.9199 90.429 77.1922 89.6794 75.0379C89.4599 74.4099 88.9687 72.1611 90.2416 70.6332C91.648 68.9448 93.1455 67.8204 97.552 67.5402C100.213 67.3697 103.471 66.4563 103.502 66.4225C106.549 63.0408 109.178 59.6305 111.236 53.8565C113.11 48.6092 113.861 45.2343 113.861 45.2343C114.891 45.3288 115.973 47.9575 116.203 49.6408C116.486 51.7022 116.674 54.7006 114.796 57.2314C114.796 57.2314 119.39 54.7935 125.387 46.3587C127.781 42.9905 128.198 40.8295 128.198 40.735C128.198 40.8295 130.356 42.7035 129.512 46.7335C128.899 49.6695 124.919 54.7006 124.919 54.7006C124.919 54.7006 133.087 48.876 134.477 47.4831C140.101 41.8594 140.85 36.9869 140.85 36.9869C143.101 39.2357 145.858 45.68 144.132 49.7319C141.976 54.7935 140.101 56.5746 136.353 59.1037C136.353 59.1037 142.351 58.2596 146.288 54.2296C149.273 51.1721 150.973 46.357 150.973 46.357C153.224 48.231 154.63 54.5098 151.348 61.3525C149.729 64.7325 145.724 66.9763 145.724 66.9763C147.977 68.4755 150.989 67.1502 154.347 64.351C156.595 62.4786 158.1 60.2079 158.1 60.2079C158.1 60.2079 158.566 61.729 158.096 64.351C157.131 69.767 152.851 74.474 149.476 77.0977C143.232 81.9532 139.388 84.7811 134.104 87.2191C129.228 89.4679 124.671 91.1342 115.733 91.3436ZM107.484 94.7185C99.1728 96.2785 99.9865 95.0933 94.5012 93.4135C94.5012 93.4135 100.501 92.7246 104.015 91.7201C105.983 91.1562 106.735 89.4679 106.735 89.4679C106.735 89.4679 108.875 89.9035 110.859 90.9671C115.033 93.2109 108.984 94.4366 107.484 94.7185ZM81.2446 86.6568C82.0871 83.5656 88.2731 81.0348 88.2731 81.0348C88.2731 81.0348 89.7047 80.1974 92.5056 80.1974C93.6182 80.1974 94.9486 80.3325 96.4867 80.7005C96.6302 80.7309 96.6859 80.7461 96.7433 80.763C100.032 81.6206 99.5222 85.8161 100.363 86.0963L103.924 88.72C103.924 88.72 101.768 90.3137 99.0006 90.3205C96.2351 90.3272 94.5029 91.1646 93.6588 92.0071C92.8163 92.8512 92.7319 94.5277 92.5327 96.5064C92.2997 98.843 93.051 103.153 93.051 103.153C93.051 103.153 89.3029 102.029 86.3484 98.7569C85.0163 97.2814 82.9296 94.2508 82.0854 92.5625C81.2447 90.8759 80.6115 88.9766 81.2446 86.6568ZM161.226 64.9807C161.861 61.4302 159.677 57.1402 159.425 56.6624L158.843 55.5549L158.1 56.5611C157.279 57.6737 156.329 58.8792 155.542 59.7976C155.966 57.4728 156.452 54.4018 156.452 53.3432C156.452 49.3386 155.184 45.891 153.062 44.12L149.719 41.3326L148.264 45.4268L148.26 45.4369C148.203 45.5905 148.061 45.9552 147.845 46.4532C147.686 41.65 144.985 36.7776 143.141 34.9339L139.003 30.7959L138.007 36.5733C137.977 36.7354 137.22 40.5037 132.883 45.0182C132.876 41.9472 131.536 39.6359 130.39 38.5891L126.469 35.0082L125.374 40.22C125.357 40.2943 124.935 42.0569 123.061 44.694C121.847 46.4026 120.626 47.9423 119.358 49.3639C119.356 49.3504 119.355 49.3386 119.353 49.325C119.346 49.2761 118.126 44.1436 114.619 42.4148L111.472 40.0563L111.278 41.3562C111.268 41.4221 110.272 48.0335 108.523 52.9313C106.828 57.6822 104.665 60.7464 101.948 63.8377C101.119 64.0471 99.1711 64.4995 97.503 64.6042C92.2727 64.9385 89.9445 66.5171 88.0553 68.7845C86.7806 70.3141 86.5122 72.1121 86.5122 73.353C86.5122 74.3018 86.6742 75.3148 86.9579 76.1303C87.2111 76.8562 87.5083 77.4978 87.8577 78.0684C87.5555 78.1832 87.3428 78.2829 87.2246 78.3403C85.4198 79.0848 79.6002 81.7777 78.4623 85.9545C78.2192 86.8443 78.0977 87.7458 78.0977 88.6355C78.0977 90.8793 78.8574 92.6875 79.5192 94.0111C80.4748 95.9273 82.727 99.201 84.2431 100.883C87.645 104.652 91.854 106.01 92.325 106.152L97.0236 107.561L96.1861 102.726C96.0426 101.899 95.6678 99.3732 95.6678 97.641C95.6678 97.4941 95.6712 97.3556 95.6763 97.2223C98.1463 98.0343 102.441 98.8701 108.188 97.7929C112.004 97.0788 114.099 96.0455 114.987 94.4062C115.33 94.4551 115.649 94.4771 115.949 94.4703C125.72 94.2424 130.592 92.3414 135.519 90.0689C141.223 87.4352 145.353 84.3523 151.478 79.5879C153.425 78.0769 159.872 72.5561 161.226 64.9807Z" fill="#164884"/>
<path d="M114.335 77.9316C114.654 78.4533 114.84 79.0662 114.84 79.7229C114.84 81.6341 113.285 83.189 111.374 83.189C109.576 83.189 108.095 81.8147 107.925 80.0606C108.342 79.9728 108.752 79.8715 109.159 79.76C109.976 79.5372 110.775 79.2755 111.565 78.9919C112.286 78.7319 113.002 78.4567 113.716 78.1764C113.927 78.0937 114.133 78.0126 114.335 77.9316ZM120.78 74.7846C123.278 73.1689 124.607 71.4722 125.103 69.3213C125.188 68.9583 125.242 68.6274 125.277 68.3218C124.241 70.807 121.436 72.6134 116.868 74.9703C116.821 74.9956 116.773 75.0193 116.724 75.0446C116.432 75.1932 116.135 75.3468 115.829 75.5004C115.772 75.5292 115.715 75.5579 115.659 75.5866C115.347 75.7453 115.029 75.904 114.702 76.0677C114.464 76.1859 114.227 76.299 113.993 76.4088C113.928 76.4391 113.863 76.4678 113.798 76.4965C113.625 76.5759 113.452 76.6536 113.28 76.7278C113.189 76.7667 113.098 76.8055 113.007 76.8427C112.914 76.8815 112.819 76.9203 112.726 76.9575C112.632 76.9946 112.539 77.0317 112.444 77.0672C112.343 77.106 112.242 77.1465 112.141 77.1837C112.083 77.2056 112.026 77.2242 111.968 77.2445C111.67 77.3525 111.371 77.4521 111.07 77.545C111.068 77.545 111.068 77.545 111.067 77.5467C110.913 77.5939 110.76 77.6378 110.606 77.6817C110.575 77.6902 110.545 77.6986 110.513 77.7071C110.359 77.7493 110.206 77.7881 110.052 77.8269C110.023 77.8337 109.995 77.8404 109.966 77.8472C109.806 77.886 109.645 77.9232 109.483 77.9569C109.468 77.9603 109.454 77.962 109.439 77.9654C109.056 78.0464 108.669 78.1139 108.276 78.1697C108.291 78.168 108.306 78.1646 108.322 78.1629C108.014 78.2068 107.704 78.2439 107.39 78.2743C107.374 78.276 107.358 78.2777 107.342 78.2794C107.025 78.3081 106.704 78.33 106.378 78.3419C105.722 78.3672 105.045 78.3621 104.342 78.3216C101.747 78.1747 100.729 76.3007 100.962 74.5229C99.1558 76.4594 99.6353 80.221 103.358 80.4303C103.709 80.4506 104.054 80.4539 104.393 80.4522C104.064 81.1411 104.06 81.6442 104.06 81.6442C104.06 81.6442 110.196 89.2517 115.541 82.9054C117.538 80.5434 119.611 76.9389 120.78 74.7846Z" fill="#164884"/>
<path d="M96.9881 88.7672C98.6747 88.7672 101.486 88.3451 101.486 88.3451L99.0968 86.9387C99.0968 86.9387 95.3032 88.7672 96.9881 88.7672Z" fill="#164884"/>
<path d="M87.6423 98.5372C87.6423 98.5372 83.5043 93.4301 82.7209 90.0333C82.0219 86.9994 84.4582 84.1647 86.5162 83.0032C87.9732 82.181 91.6639 80.9738 93.6628 80.2512C94.5103 80.3171 95.4457 80.4538 96.4856 80.702C96.6292 80.7324 96.6849 80.7476 96.7423 80.7645C96.2341 80.9046 89.8033 82.6874 88.6232 83.4961C86.165 85.1811 81.0326 86.0961 87.6423 98.5372Z" fill="white"/>
<path d="M89.6799 75.0362C90.4295 77.1921 91.4914 77.9181 92.8657 78.2237C95.3965 78.7859 97.176 78.4128 99.0517 77.8489C99.0517 77.8489 99.0719 86.8611 107.392 87.5026C108.613 87.5955 113.12 91.4077 115.737 91.3452C124.673 91.1359 129.23 89.4695 134.103 87.2207C139.389 84.7811 143.233 81.9548 149.475 77.0993C152.848 74.4757 157.128 69.7687 158.095 64.3526C158.563 61.7306 158.098 60.2112 158.098 60.2112C158.098 60.2112 156.594 62.4819 154.345 64.3526C150.986 67.1518 147.972 68.4788 145.723 66.9779C145.723 66.9779 149.726 64.7358 151.347 61.3558C154.627 54.5131 153.223 48.2343 150.972 46.3586C150.972 46.3586 149.27 51.1737 146.287 54.2312C142.35 58.2612 136.353 59.1053 136.353 59.1053C140.099 56.5746 141.977 54.7951 144.133 49.7335C145.86 45.6816 143.103 39.2373 140.852 36.9885C140.852 36.9885 140.101 41.8593 134.477 47.483C133.103 48.859 125.121 54.557 124.923 54.6972C125.045 54.5435 128.908 49.6238 129.512 46.7334C130.356 42.7051 128.199 40.8311 128.199 40.7366C128.199 40.8311 127.782 42.9921 125.388 46.3586C119.391 54.7951 114.795 57.2313 114.795 57.2313C116.673 54.7005 116.483 51.7004 116.2 49.6407C115.972 47.9574 114.89 45.3288 113.858 45.2342C113.858 45.2342 113.11 48.6074 111.234 53.8547C109.176 59.6287 106.549 63.0391 103.5 66.4207C103.47 66.4562 100.213 67.3679 97.5508 67.5384C93.1443 67.8204 91.6468 68.9448 90.2421 70.6331C88.9674 72.1576 89.4604 74.4064 89.6799 75.0362ZM130.025 87.3152C130.025 87.3152 141.129 80.9064 146.613 76.0694C151.393 71.852 156.484 64.5737 156.484 64.5737C156.484 64.5737 156.716 68.4991 151.534 73.726C141.413 83.9403 130.025 87.3152 130.025 87.3152ZM127.162 63.8917C127.162 63.8917 120.137 65.4753 115.168 67.1636C109.577 69.0646 101.601 72.9562 101.353 73.0777C101.486 72.9376 104.414 69.9206 109.264 67.5401C117.674 63.4156 127.162 63.8917 127.162 63.8917ZM100.965 74.5263C100.732 76.3041 101.75 78.1781 104.345 78.325C105.049 78.3655 105.724 78.3706 106.381 78.3452C106.708 78.3317 107.029 78.3098 107.346 78.2828C107.362 78.2811 107.377 78.2794 107.394 78.2777C107.706 78.249 108.018 78.2119 108.326 78.168C108.51 78.141 108.692 78.1106 108.874 78.0802C108.891 78.0768 108.91 78.0734 108.927 78.0717C109.099 78.0414 109.271 78.0059 109.442 77.9704C109.457 77.9671 109.47 77.9637 109.485 77.962C109.647 77.9265 109.81 77.8911 109.968 77.8523C109.997 77.8455 110.027 77.8371 110.054 77.8303C110.21 77.7915 110.363 77.7527 110.517 77.7121C110.546 77.7037 110.578 77.6936 110.608 77.6868C110.762 77.6429 110.917 77.599 111.069 77.5517C111.071 77.5517 111.071 77.5517 111.072 77.5517C111.373 77.4606 111.67 77.3576 111.969 77.2512C112.028 77.2293 112.084 77.2107 112.141 77.1888C112.244 77.1516 112.344 77.1111 112.445 77.074C112.54 77.0368 112.634 77.0014 112.727 76.9642C112.82 76.9254 112.914 76.8866 113.007 76.8494C113.098 76.8106 113.19 76.7717 113.279 76.7329C113.453 76.6603 113.625 76.581 113.799 76.5016C113.863 76.4729 113.929 76.4425 113.993 76.4138C114.23 76.3041 114.466 76.191 114.702 76.0711C115.028 75.9056 115.346 75.7469 115.66 75.5899C115.717 75.5612 115.773 75.5308 115.83 75.5038C116.136 75.3485 116.434 75.1966 116.725 75.0463C116.772 75.0227 116.819 74.9973 116.868 74.9737C121.439 72.6168 124.241 70.8087 125.279 68.3252C125.244 68.6307 125.19 68.96 125.106 69.3246C124.609 71.4755 123.279 73.174 120.782 74.788C119.614 76.944 117.54 80.5468 115.545 82.9138C110.201 89.2601 104.064 81.6526 104.064 81.6526C104.064 81.6526 104.066 81.1478 104.397 80.459C104.054 80.4607 103.713 80.4573 103.362 80.4371C99.6375 80.2226 99.158 76.4611 100.965 74.5263Z" fill="white"/>
<path d="M107.926 80.0606C108.096 81.813 109.579 83.189 111.375 83.189C113.284 83.189 114.841 81.6341 114.841 79.7212C114.841 79.0662 114.657 78.4533 114.338 77.9299C114.134 78.0127 113.928 78.0954 113.718 78.1747C113.046 78.4381 112.373 78.6981 111.694 78.9446C111.849 78.8889 112.005 78.8349 112.16 78.7775C112.494 79.1219 112.704 79.5895 112.704 80.1062C112.704 81.1563 111.851 82.0106 110.801 82.0106C109.749 82.0106 108.9 81.1563 108.9 80.1062C108.9 80.0099 108.915 79.9137 108.927 79.8208C108.598 79.9103 108.263 79.988 107.926 80.0606Z" fill="white"/>
<path d="M109.265 67.5383C104.296 69.9745 101.347 73.0793 101.347 73.0793C101.347 73.0793 109.488 69.0932 115.169 67.1635C120.136 65.4751 127.161 63.8915 127.161 63.8915C127.161 63.8915 117.674 63.4154 109.265 67.5383Z" fill="#009366"/>
<path d="M146.612 76.0675C141.128 80.9061 130.024 87.3132 130.024 87.3132C130.024 87.3132 141.412 83.94 151.532 73.7241C156.711 68.4971 156.482 64.5718 156.482 64.5718C156.482 64.5718 151.392 71.8501 146.612 76.0675Z" fill="#009366"/>
<path d="M108.898 80.1077C108.898 81.1579 109.748 82.0122 110.799 82.0122C111.85 82.0122 112.702 81.1579 112.702 80.1077C112.702 79.5911 112.493 79.1235 112.159 78.7791C112.003 78.8365 111.848 78.8905 111.693 78.9462C110.783 79.2653 109.862 79.5574 108.929 79.814C108.929 79.8174 108.927 79.819 108.927 79.8224C108.914 79.9153 108.898 80.0098 108.898 80.1077Z" fill="#009366"/>
</svg>
