<svg width="200" height="200" viewBox="0 0 200 200" fill="none" xmlns="http://www.w3.org/2000/svg">
<path d="M194.971 37.5358C194.971 37.5358 190.232 37.5358 186.557 37.5358C184.429 37.5358 183.172 37.5358 182.689 37.5358C164.894 37.4391 157.447 33.8607 147.969 29.3153L147.582 29.1219C137.427 24.1896 124.758 18 100.387 18H100.097H99.8066C75.3385 18 62.766 24.1896 52.6112 29.1219L52.2244 29.3153C42.7466 33.8607 35.2998 37.4391 17.5048 37.5358C17.0213 37.5358 15.764 37.5358 13.6364 37.5358C9.96132 37.5358 5.22244 37.5358 5.22244 37.5358H0L1.06383 42.5648C1.25725 43.3385 5.51257 62.1006 21.6634 70.1277C23.0174 72.6422 25.1451 75.9304 28.53 79.0251C28.53 81.5397 28.7234 86.1818 28.8201 89.0832C29.1103 98.8511 31.0445 107.555 34.5261 114.905C38.4913 124.286 44.5841 132.023 52.5145 138.019H52.6112C54.1586 139.18 56.5764 141.017 57.06 141.694C57.8337 142.952 58.7041 146.046 59.381 148.851C60.9284 154.847 63.1528 162.971 68.8588 169.644C75.6286 177.574 86.3636 181.83 100 182.023C113.636 181.83 124.371 177.574 131.141 169.644C136.847 162.971 138.975 154.75 140.619 148.851C141.296 146.143 142.166 142.952 142.94 141.694C143.424 141.017 145.841 139.18 147.389 138.019H147.485C155.416 132.023 161.509 124.19 165.474 114.905C169.052 107.555 170.89 98.8511 171.18 89.0832C171.373 86.1818 171.47 81.5397 171.47 79.0251C174.758 75.9304 176.983 72.7389 178.337 70.1277C194.584 62.1973 198.743 43.4352 198.936 42.5648L200 37.5358H194.971Z" fill="white"/>
<path d="M71.9539 167.323C66.8282 161.327 64.8939 153.977 63.3465 148.077C62.4761 144.692 61.6057 141.598 60.5419 139.76C59.6715 138.406 57.4471 136.762 55.0293 134.924C49.8069 130.959 42.9404 124.286 38.2982 113.358V113.261C35.3001 107.071 33.1725 99.2378 32.979 88.9864C32.7856 84.9245 32.6889 77.0908 32.6889 77.0908C28.5303 73.6092 26.1125 69.8374 24.7585 66.9361C8.8978 60.0695 4.93262 41.5976 4.93262 41.5976C4.93262 41.5976 15.7643 41.5976 17.215 41.5976C36.2672 41.5009 44.5845 37.439 54.2556 32.7001C64.7972 27.4777 76.6928 21.8684 100.097 21.9651C123.501 21.9651 135.3 27.5744 145.938 32.7001C155.61 37.3423 163.927 41.5009 182.979 41.5976C184.526 41.5976 195.261 41.5976 195.261 41.5976C195.261 41.5976 191.296 60.1663 175.629 66.9361C174.275 69.8374 171.857 73.6092 167.699 77.0908C167.699 77.0908 167.602 84.9245 167.408 88.9864C167.118 99.2378 164.991 107.071 162.089 113.261V113.358C157.447 124.286 150.581 130.959 145.358 134.924C142.94 136.762 140.619 138.503 139.846 139.76C138.685 141.598 137.911 144.692 137.041 148.077C135.494 153.977 133.559 161.327 128.434 167.323C122.341 174.383 112.67 178.058 100.29 178.251C87.7179 178.058 78.0467 174.383 71.9539 167.323Z" fill="#0039A6"/>
<path d="M141.973 70.2239L146.905 71.9647C145.841 72.3515 138.008 75.6397 132.592 82.6997C130.561 81.5392 128.336 80.7655 126.692 80.1852C127.853 80.1852 129.207 80.1852 130.561 80.2819H130.948L131.141 79.9918C134.429 74.4792 140.425 71.0943 141.973 70.2239ZM123.598 72.0614C123.598 70.8041 123.404 69.16 122.63 67.8061C122.147 67.9028 121.663 68.0962 121.47 68.1929C119.923 69.0633 118.665 70.9009 117.601 72.9318C117.408 73.2219 117.408 73.5121 117.408 73.7055C117.408 74.4792 117.988 75.1562 119.149 75.1562H119.246C119.729 75.1562 120.309 75.1562 120.986 75.1562C122.824 75.1562 125.048 75.2529 127.079 75.543C129.497 71.868 132.882 69.5469 134.719 68.3863C132.398 67.8061 130.174 67.5159 128.24 67.4192C127.659 69.5469 126.402 72.3515 124.178 73.8989C124.178 73.8989 124.081 73.9956 123.888 73.9956C123.791 73.9956 123.694 73.9956 123.598 73.8989C123.501 73.8022 123.501 73.6088 123.501 73.5121V73.4154C123.501 73.1252 123.598 72.6417 123.598 72.0614ZM76.7891 73.5121C76.7891 73.7055 76.7891 73.8989 76.6924 73.9956C76.5957 74.0923 76.4022 74.0923 76.4022 74.0923C76.2088 74.0923 76.1121 73.9956 76.1121 73.9956C73.8877 72.4482 72.6305 69.5469 72.0502 67.5159C70.116 67.6127 67.9883 67.9028 65.5705 68.4831C67.408 69.6436 70.793 71.9647 73.2108 75.6397C75.2417 75.3496 77.4661 75.2529 79.3036 75.2529C79.8839 75.2529 80.4641 75.2529 81.0444 75.2529H81.1411C82.3017 75.2529 82.8819 74.5759 82.8819 73.8022C82.8819 73.5121 82.7852 73.3187 82.6885 73.0285C81.6247 70.9976 80.3674 69.2568 78.82 68.2896C78.5299 68.1929 78.1431 67.9995 77.6595 67.9028C76.8858 69.2568 76.6924 70.9009 76.6924 72.1581C76.6924 72.6417 76.6924 73.1252 76.7891 73.5121ZM88.1044 153.106C88.3945 152.912 88.5879 152.719 88.8781 152.526C90.0386 151.752 91.3926 151.365 92.7465 151.365C94.1972 151.365 95.5512 151.752 96.7117 152.139C97.8723 152.526 98.9361 152.816 100.097 152.816C101.257 152.816 102.321 152.526 103.482 152.139C104.642 151.752 105.996 151.365 107.447 151.365C108.897 151.365 110.155 151.752 111.315 152.526C111.605 152.719 111.799 152.912 112.089 153.106C117.118 146.336 113.153 135.891 112.959 138.309C112.572 142.758 110.832 145.466 109.188 147.013C107.93 145.659 106.576 144.499 106.576 144.499C106.576 144.499 104.642 146.626 103.288 148.367C102.031 146.626 99.9999 144.499 99.9999 144.499C99.9999 144.499 98.0657 146.143 96.8084 147.787C95.5512 146.143 93.5202 144.499 93.5202 144.499C93.5202 144.499 92.1663 145.659 90.909 147.11C89.2649 145.466 87.5241 142.758 87.1373 138.309C87.0405 135.794 83.0754 146.336 88.1044 153.106ZM74.468 122.158C74.9516 125.736 76.6924 133.183 82.1082 137.922C82.6885 138.406 82.9786 138.406 83.0754 137.535C83.0754 136.665 82.3017 127.381 84.526 121.675C80.851 121.675 77.4661 121.868 74.468 122.158ZM118.182 137.825C123.598 133.087 125.338 125.64 125.822 122.061C122.824 121.868 119.342 121.578 115.764 121.481C117.988 127.284 117.215 136.568 117.215 137.342C117.215 138.309 117.601 138.309 118.182 137.825ZM92.8432 124.576L96.3249 128.928C96.3249 128.928 98.2591 126.51 100.097 124.092C101.934 126.51 103.868 128.928 103.868 128.928L107.35 124.576C108.704 126.8 109.961 128.928 109.961 128.928C111.992 126.51 112.863 123.415 113.153 121.384C108.994 121.191 104.642 121.094 100.097 121.094C95.5512 121.094 91.1991 121.191 87.0405 121.384C87.4274 123.319 88.2978 126.413 90.232 128.928C90.3287 128.928 91.586 126.8 92.8432 124.576ZM111.992 100.398C112.186 99.4308 112.089 98.6571 111.605 98.2703C110.735 97.69 108.897 98.7538 107.543 100.785C106.189 102.816 105.899 104.847 106.77 105.524C107.06 105.717 107.447 105.717 107.93 105.62C108.027 105.62 108.317 105.427 108.607 105.04C109.671 103.783 110.638 102.526 111.605 101.172C111.799 100.882 111.895 100.591 111.992 100.398ZM115.957 29.7983C114.313 32.3128 111.605 36.5682 109.284 41.4038C109.381 45.8525 109.574 54.073 109.865 60.0691C110.928 61.0363 112.282 62.2935 113.636 63.454C115.667 61.6165 119.246 58.1349 120.696 55.7171C120.696 55.7171 129.497 56.7809 141.683 64.4212C140.619 61.5198 138.975 57.8448 138.491 56.8776C136.944 56.104 134.623 54.75 132.398 53.1059C128.433 50.3012 129.69 44.692 129.69 44.692C135.783 48.6571 144.681 52.0421 150 53.6862C148.162 50.4947 147.292 47.4966 147.292 47.4966C159.574 52.719 175.822 54.9434 182.302 49.3341C146.035 49.4308 144.004 33.9569 115.957 29.7983ZM115.571 86.5682C114.894 84.2471 113.83 82.0227 113.056 81.6359C111.799 80.9589 107.93 80.1852 104.932 80.6688C105.899 79.0246 108.511 77.7674 110.542 77.0904C109.188 76.22 107.543 76.0266 106.286 76.0266C105.609 76.0266 104.932 76.1233 104.352 76.22C105.416 73.6088 108.994 71.6745 111.025 71.2877C108.897 69.9337 104.255 68.5798 100.193 74.866C96.2282 68.5798 91.4893 69.9337 89.3616 71.2877C91.3926 71.5778 95.3578 73.3187 96.0347 76.22C95.8413 76.22 95.6479 76.1233 95.4545 76.1233C94.2939 76.0266 91.7794 75.8332 89.8452 77.1871C91.7794 77.8641 94.1972 79.2181 95.1643 80.8622C90.7156 80.0885 86.3636 82.1194 84.9129 83.4734L84.0425 84.3438C81.3345 79.4115 75.822 83.1833 73.9844 84.2471C76.3055 85.5043 77.7562 87.4386 78.6266 89.3728L79.3036 90.7268L78.82 90.5334C76.7891 89.7597 68.3752 87.3419 60.1547 94.7887C63.4429 95.6591 67.6982 96.9163 70.793 98.6571C63.8297 97.9802 55.8026 100.495 55.8026 100.495C55.8026 100.495 66.9245 101.268 73.5009 104.266C63.056 104.46 55.7059 108.232 55.7059 108.232C55.7059 108.232 61.0251 107.845 64.5067 107.845C68.1817 107.845 73.0173 108.232 77.6595 109.392C68.3752 110.456 59.9612 115.582 59.9612 115.582C59.9612 115.582 75.0483 114.228 86.1701 113.841C86.2668 113.841 83.9458 111.423 82.6885 107.458C87.1373 109.876 91.8761 111.423 96.0347 111.52C94.4874 110.359 92.94 108.812 91.3926 107.071C91.2959 106.878 91.1024 106.781 91.1024 106.394C91.1024 105.814 91.7794 105.62 91.9728 105.62C92.1663 105.62 92.3597 105.62 92.5531 105.717C92.7465 105.814 92.94 105.814 93.1334 105.814C93.3268 105.814 93.5202 105.814 93.6169 105.717C93.9071 105.524 94.1005 105.137 94.1005 104.46C94.1005 103.589 93.7137 102.235 92.8432 100.978C91.6827 99.2374 90.1353 98.2703 89.2649 98.2703C89.0715 98.2703 88.8781 98.367 88.7814 98.4637C88.4912 98.6571 88.2978 99.044 88.2978 99.6243C88.2978 100.205 88.2011 100.882 87.3307 100.978C86.8471 100.978 86.557 100.688 86.2669 100.301C83.9458 96.8196 82.205 93.9183 82.205 92.3709C82.205 92.1774 82.205 91.8873 82.3984 91.6939C82.8819 91.0169 83.7523 90.9202 84.6227 90.9202C89.0715 90.9202 98.646 94.692 100.29 95.3689C101.837 94.7887 111.509 91.0169 115.957 90.9202C116.344 90.9202 116.634 90.9202 116.924 91.0169C116.441 89.7597 116.054 88.1156 115.571 86.5682ZM90.909 165.582C81.9148 165.582 78.7233 159.876 78.7233 159.876C75.9187 155.427 74.5647 150.011 73.3075 145.176C72.2436 141.017 71.2765 137.148 69.5357 134.247C67.8916 131.539 65.1837 129.411 61.9922 126.897C55.4158 121.675 46.615 114.228 43.7137 98.4637H46.5183C49.9032 81.0556 58.8974 68.9666 60.4448 67.0324C59.1875 64.6146 58.8974 61.6165 58.8974 61.6165C59.7678 61.8099 61.0251 62.1968 62.1856 62.3902C65.9574 60.2626 69.3423 58.9086 72.0502 57.8448C72.5338 54.6533 73.2108 52.0421 73.8877 50.398C74.8549 47.8834 76.2088 46.5295 76.8858 46.0459C79.5937 43.8216 81.8181 42.7577 81.8181 42.7577C80.6576 46.8196 79.9806 52.0421 79.6904 56.0072C81.1411 58.425 84.6227 61.81 86.6537 63.6475C88.0077 62.4869 89.4583 61.2297 90.4255 60.2626C90.7156 54.1697 90.909 45.9492 91.0057 41.5972C88.5879 36.7616 85.9767 32.5063 84.3326 29.9918C56.2862 34.1504 54.352 49.6243 17.8916 49.6243C18.3752 50.398 19.3423 51.8486 20.6962 53.2993C22.9206 55.7171 26.6924 58.5217 31.3345 59.6823C31.3345 59.6823 31.6247 61.4231 32.7852 63.5508C33.8491 65.5817 35.5899 68.1929 38.6846 70.6107C39.555 69.16 40.4255 67.8061 41.3926 66.4521C38.9748 64.3245 37.5241 62.1001 36.557 60.3593C35.4932 58.2316 35.1063 56.4908 35.1063 56.4908C33.7523 56.2007 30.0773 55.3303 26.6924 53.2026C32.205 53.8796 40.6189 53.1059 52.9013 47.8834C52.9013 47.8834 52.0309 51.1717 49.9999 54.4599C54.1585 53.6862 60.1547 52.4289 64.9903 49.4308C60.2514 56.4908 55.6092 58.425 53.9651 60.3593C51.9342 62.6804 42.263 74.866 40.5222 81.926C36.3636 119.063 61.7988 126.704 67.2146 135.504C72.6305 144.692 70.793 166.162 90.1353 171.191C90.1353 171.191 99.2262 173.802 102.128 161.133C102.128 161.133 97.5821 165.582 90.909 165.582ZM143.81 99.044C143.133 97.8835 141.876 96.5295 140.425 94.9821C133.946 96.0459 128.723 97.8835 126.692 98.7539C129.497 98.4637 136.654 98.1736 143.81 99.044ZM144.777 107.168C145.261 105.137 145.261 103.203 144.777 101.462C134.333 101.655 125.629 103.589 123.888 103.976C126.112 104.073 135.203 104.557 144.777 107.168ZM130.367 88.5024C131.238 88.5024 132.108 88.5991 133.075 88.6958C130.948 87.1484 128.723 85.6011 126.402 84.1504C123.984 85.4076 122.63 87.3419 121.76 89.3728L121.083 90.7268L122.437 90.1465C124.661 89.1794 127.369 88.5024 130.367 88.5024ZM141.393 114.131C141.393 114.131 142.94 112.197 144.101 109.392C144.101 109.295 144.197 109.199 144.197 109.102C132.592 107.555 122.437 108.425 119.826 108.715C126.015 109.586 134.139 111.52 141.102 114.518L141.393 114.131Z" fill="white"/>
<path d="M142.553 172.545C140.812 172.545 139.362 171.094 139.362 169.354C139.362 167.613 140.812 166.162 142.553 166.162C144.294 166.162 145.745 167.516 145.745 169.354C145.648 171.191 144.294 172.545 142.553 172.545ZM142.553 166.839C141.103 166.839 139.942 168 139.942 169.45C139.942 170.901 141.103 172.062 142.553 172.062C144.004 172.062 145.165 170.901 145.165 169.45C145.165 168 144.004 166.839 142.553 166.839ZM141.199 167.806H142.65C143.52 167.806 143.811 168.29 143.811 168.677C143.811 169.257 143.424 169.644 142.843 169.644C143.134 169.74 143.327 170.031 143.617 170.514L144.004 171.191H143.327L143.037 170.708C142.65 169.934 142.457 169.837 142.07 169.837H141.78V171.288H141.199V167.806ZM142.457 169.257C142.843 169.257 143.134 169.063 143.134 168.773C143.134 168.483 142.843 168.29 142.553 168.29H141.683V169.354H142.457V169.257Z" fill="#0039A6"/>
</svg>
