<svg width="200" height="200" viewBox="0 0 200 200" fill="none" xmlns="http://www.w3.org/2000/svg">
<path d="M102.452 98.3018V177.263H112.843V124.573L138.383 151.723H143.066L168.679 124.573V177.263H179.071V98.3018L140.798 139.209L102.452 98.3018Z" fill="#1A5632"/>
<path d="M171.46 76.2749L140.798 108.986L110.135 76.2749H60.666V86.3737H105.379L140.871 124.061L176.144 86.3737H189.609V177.263H200V76.2749H171.46Z" fill="#1A5632"/>
<path d="M62.8613 138.478C33.9554 138.478 10.4647 114.84 10.4647 85.7881C10.4647 56.7358 33.9554 33.0988 62.8613 33.0988C75.5946 33.0988 87.6692 37.7091 97.9144 46.4907L99.5975 47.9543L105.745 39.9777L104.208 38.6604C92.4259 28.4153 78.0827 23 62.7881 23C28.1742 23 0 51.1742 0 85.7881C0 120.402 28.1742 148.576 62.7881 148.576C69.1548 148.576 75.4482 147.625 81.449 145.722V177.19H91.8405V129.696L88.5474 131.599C80.7172 136.136 71.7892 138.478 62.8613 138.478Z" fill="#1A5632"/>
<path d="M60.666 106.059H81.8881V112.572C76.3996 116.743 70.1794 118.719 62.8614 118.719C45.2251 118.719 31.3941 104.229 31.3941 85.715C31.3941 67.2737 45.2251 52.7842 62.8614 52.7842C71.3502 52.7842 78.3755 55.4918 86.2057 61.7853L87.8888 63.1025L94.0359 55.1991L92.5723 53.8819C84.0835 46.5639 73.8383 42.7585 62.9346 42.7585C39.8098 42.7585 21.0758 62.078 21.0758 85.7882C21.0758 109.498 39.883 128.818 62.9346 128.818C72.887 128.818 83.2053 124.866 91.2551 117.987L92.0601 117.329V96.0333H60.666V106.059Z" fill="#1A5632"/>
<path d="M176.143 86.3737L140.798 124.134L105.379 86.3737H60.666V96.0334H91.9869V117.329L91.1819 117.987C83.1321 124.866 72.8138 128.818 62.8614 128.818C39.7366 128.818 21.0026 109.498 21.0026 85.7882C21.0026 62.078 39.8098 42.7586 62.8614 42.7586C73.7651 42.7586 84.0103 46.6371 92.4991 53.8819L93.9627 55.1991L99.5975 47.9543L97.9144 46.4908C87.6693 37.7092 75.5214 33.0989 62.8614 33.0989C33.9554 33.0989 10.4647 56.7359 10.4647 85.7882C10.4647 114.841 33.9554 138.478 62.8614 138.478C71.7893 138.478 80.7172 136.063 88.6206 131.599L91.9137 129.696V177.19H102.452V98.3019L140.871 139.136L179.071 98.2288V177.116H189.609V86.3737H176.143Z" fill="#FFC629"/>
<path d="M54.3724 167.969H58.3241V177.189H59.6414V167.969H63.6663V166.652H54.3724V167.969Z" fill="#1A5632"/>
<path d="M70.2525 174.701L66.8862 166.652H64.9835V177.189H66.3008V168.408L69.9597 177.189H70.5452L74.2042 168.408V177.189H75.5214V166.652H73.6187L70.2525 174.701Z" fill="#1A5632"/>
</svg>
