<svg width="200" height="200" viewBox="0 0 200 200" fill="none" xmlns="http://www.w3.org/2000/svg">
<path d="M87.4682 100.445H69.6942L67.6196 108.183H85.3376L87.4682 100.445Z" fill="#623493"/>
<path d="M64.6479 119.004H82.3659L84.2723 111.939H66.5543L64.6479 119.004Z" fill="#623493"/>
<path d="M88.3093 97.3616L90.6081 88.9512H72.8902L70.5913 97.3616H88.3093Z" fill="#623493"/>
<path d="M115.783 118.724L102.551 113.958L100.813 120.294C100.308 122.032 98.4019 123.434 96.4956 123.434H63.4146L61.6764 129.882C61.34 131.115 61.6203 132.461 62.3492 133.47C63.1342 134.479 64.3677 135.096 65.6573 135.096H114.55L117.914 122.817C118.363 121.079 117.41 119.341 115.783 118.724Z" fill="#623493"/>
<path d="M93.5237 78.4097C93.6359 78.0733 93.8041 77.7369 93.9723 77.4565H76.0301L75.5254 79.3629L73.563 86.5398H91.281L93.5237 78.4097Z" fill="#623493"/>
<path d="M76.647 75.2139L76.5349 75.6064H113.092L112.588 77.6249C112.139 79.307 113.036 81.0451 114.662 81.6619L127.895 86.4839L132.604 69.2145C132.941 67.9809 132.66 66.6353 131.875 65.626C131.091 64.6168 129.857 64 128.567 64H75.021C78.3291 68.9341 77.2638 72.859 76.647 75.2139Z" fill="#623493"/>
<path d="M25.9599 100.445H8.24197L6.11133 108.183H23.8293L25.9599 100.445Z" fill="#623493"/>
<path d="M29.0998 88.9512H11.3819L9.08301 97.3616H26.801L29.0998 88.9512Z" fill="#623493"/>
<path d="M22.8201 111.939H5.04601L3.13965 119.004H20.8576L22.8201 111.939Z" fill="#623493"/>
<path d="M32.0154 78.4097C32.1275 78.0733 32.2396 77.7369 32.4639 77.4565L14.4656 77.6248L11.9985 86.5398H29.7165L32.0154 78.4097Z" fill="#623493"/>
<path d="M15.1387 75.2139L14.9705 75.8307L51.5839 75.6625L51.0232 77.681C50.5747 79.363 51.4718 81.1012 53.0978 81.718L66.3302 86.5399L71.04 69.2705C71.3764 68.037 71.0961 66.6913 70.3111 65.6821C69.5822 64.6168 68.4048 64 67.1152 64H13.5127C16.8208 68.9341 15.8115 72.859 15.1387 75.2139Z" fill="#623493"/>
<path d="M61.0596 100.894C60.4428 100.052 59.4336 99.5479 58.3683 99.5479H35.3237L41.3231 106.557C42.1081 107.734 42.3324 109.304 41.8838 110.874L39.3607 120.181C38.8561 122.088 37.1179 123.433 35.0994 123.433H1.90625L0.168099 129.881C-0.168318 131.115 0.112029 132.461 0.840933 133.47C1.62591 134.479 2.85944 135.096 4.14903 135.096H53.0417L61.6203 103.809C61.9006 102.8 61.6764 101.735 61.0596 100.894Z" fill="#623493"/>
<path d="M126.1 119.004H143.874L145.781 111.939H128.063L126.1 119.004Z" fill="#623493"/>
<path d="M149.818 97.3616L152.116 88.9512H134.342L132.043 97.3616H149.818Z" fill="#623493"/>
<path d="M148.976 100.445H131.202L129.072 108.183H146.846L148.976 100.445Z" fill="#623493"/>
<path d="M177.796 64L162.377 120.182C161.873 122.088 160.078 123.434 158.116 123.434H142.641H124.867L123.129 129.882C122.792 131.115 123.072 132.461 123.801 133.47C124.586 134.479 125.82 135.096 127.109 135.096H176.002L192.487 74.7654C193.103 72.3544 194.281 67.1399 200 64L177.796 64Z" fill="#623493"/>
<path d="M155.256 77.4004H137.538L135.015 86.5397H152.789L155.256 77.4004Z" fill="#623493"/>
<path d="M138.155 75.2139L138.043 75.6064H155.817L158.957 64H136.529C139.837 68.9341 138.772 72.859 138.155 75.2139Z" fill="#623493"/>
<path d="M181.329 131.9H180.432V131.452H182.787V131.9H181.889V134.535H181.329V131.9ZM184.525 134.479L183.628 132.012V134.479H183.179V131.452H183.908L184.749 133.975L185.59 131.452H186.263V134.479H185.758V132.012L184.917 134.479H184.525Z" fill="#623493"/>
</svg>
