<svg width="200" height="200" viewBox="0 0 200 200" fill="none" xmlns="http://www.w3.org/2000/svg">
<path d="M196.054 41.9336C193.819 38.7276 191.045 36.2171 188.883 34.5336C187.627 33.5582 186.521 32.8161 185.787 32.3539L185.35 32.0782L189.523 23.1643L180.524 19L173.001 25.9377L166.551 22.753L158.867 31.7856L162.862 34.4573L155.551 41.7597L155.14 41.4204C154.334 40.7547 153.503 40.038 152.65 39.2789L147.824 34.7075L145.827 36.3232C138.118 42.5612 139.593 52.2596 141.196 57.6198L141.294 57.9506L134.466 64.9053H102.364V79.4466H88.4635V64.9053H66.7343L58.9611 57.094L59.0502 56.7675C60.509 51.3606 61.5182 42.2686 54.1734 36.3232L52.0912 34.6354L47.4137 39.4485C46.6377 40.1398 45.8659 40.8013 45.1323 41.4162L44.7252 41.7512L37.1852 34.4276L41.1333 31.7856L33.4492 22.753L26.9991 25.9377L19.4762 19L10.4775 23.1643L14.6503 32.0782L14.2135 32.3539C13.4799 32.8161 12.373 33.554 11.1178 34.5336C8.95505 36.2214 6.17741 38.7276 3.94681 41.9336C-0.713692 48.6254 -2.81283 58.2475 6.65236 68.7007C19.6331 83.0385 36.6509 78.8359 44.2035 74.8243L44.6022 74.6122L49.9709 80.4219L54.0716 85.8161V126.268L38.1775 147.174H51.0226L19.7985 179.281C47.965 188.245 70.3431 167.339 84.2016 153.12C88.578 159.214 95.7193 163.183 103.794 163.183L115.879 163.179H124.768H126.04C152.799 185.332 170.677 183.284 181.071 179.505L161.598 160.032C163.939 159.04 165.58 156.724 165.58 154.032C165.58 150.563 162.858 147.738 159.431 147.531C160.415 144.901 160.958 142.052 160.958 139.079L160.979 99.0555L177.28 78.0769C182.751 76.9785 188.37 74.1882 193.344 68.6965C202.813 58.2432 200.714 48.6254 196.054 41.9336ZM159.944 151.75L160.784 154.019L161.67 151.75H162.739L163.362 155.999H162.289L161.988 153.552H161.976L160.983 155.999H160.555L159.609 153.552H159.597L159.253 155.999H158.184L158.884 151.75H159.944ZM191.173 66.7288C177.658 81.656 159.156 74.2687 154.932 70.8041L144.165 82.9706H168.79L157.459 97.8723L157.438 139.083C157.438 144.901 155.021 150.151 151.141 153.892L175.075 177.945C174.151 178.068 172.883 178.424 172.883 178.424C172.883 178.424 154.83 182.427 126.837 159.659H124.768H115.875L103.789 159.663C95.6387 159.663 88.5949 154.922 85.2618 148.052L84.473 148.62C70.8138 162.823 49.1482 180.286 27.1094 178.428C27.1094 178.428 25.8414 178.072 24.917 177.949L59.0417 143.659H45.2764L57.5914 127.464V84.6287L56.37 83.0257L45.0686 70.7999C40.8577 74.2602 22.3429 81.6645 8.81935 66.7288C-7.97797 48.1759 16.4695 34.4106 16.4695 34.4106L18.5051 33.4056L14.3789 24.5934L18.9206 22.4901L26.486 29.466L32.6901 26.4L36.7569 31.1792L32.529 34.0035L42.6387 43.8207C42.6387 43.8207 37.2064 48.6635 30.9684 50.2792L22.0079 39.5461C22.0079 39.5461 13.8742 44.3677 19.544 50.7881C23.5048 55.2747 34.1955 55.2026 49.445 41.5689L52.3244 38.6089C59.0968 44.0878 57.2479 53.1586 55.6322 57.9124L66.0982 68.4293H84.9437V82.9706H105.888V68.4293H133.902L144.368 57.9124C142.748 53.1544 140.904 44.0878 147.676 38.6089L150.666 41.4417C165.915 55.0712 176.496 55.2747 180.456 50.7881C186.122 44.3677 177.988 39.5461 177.988 39.5461L169.426 49.9866C165.003 49.465 157.684 43.7868 157.684 43.7868L167.467 34.0035L163.239 31.1792L167.306 26.4L173.51 29.466L181.076 22.4901L185.617 24.5934L181.491 33.4056L183.522 34.4106C183.522 34.4064 207.97 48.1759 191.173 66.7288ZM155.191 152.683V151.75H158.04V152.687H157.154V155.999H156.081V152.687H155.191V152.683ZM27.3426 50.5125L26.0026 50.4446C23.8653 50.3386 22.4234 49.6134 21.7449 48.8459C20.2522 47.1538 20.4006 45.5466 21.1428 44.3041L21.5668 43.5959L27.3426 50.5125ZM172.815 50.4743L178.446 43.6129L178.875 44.338C179.604 45.5763 179.731 47.1708 178.251 48.8459C177.59 49.5965 176.203 50.2962 174.146 50.4064L172.815 50.4743Z" fill="white"/>
<path d="M47.3885 49.8805C39.2464 55.9149 28.3097 60.7875 19.4551 56.4111C9.40473 51.441 13.7769 42.2388 13.7769 42.2388C13.7769 42.2388 2.19134 53.9218 13.9719 63.9129C24.1708 72.5638 33.3009 68.5649 33.3009 68.5649C14.1755 65.3589 13.5648 56.6613 13.5648 56.6613C13.5648 56.6613 24.1156 64.8501 37.3381 61.1904C50.5605 57.5349 47.3885 49.8805 47.3885 49.8805Z" fill="white"/>
<path d="M30.7903 38.4478L24.459 38.9948L27.4444 42.7054L30.7903 38.4478Z" fill="white"/>
<path d="M31.0364 47.3445L34.3823 43.0869L28.0552 43.634L31.0364 47.3445Z" fill="white"/>
<path d="M46.3833 65.8508L48.7666 68.4291H52.0192L48.1898 64.375C47.5961 64.8966 46.9897 65.3885 46.3833 65.8508Z" fill="white"/>
<path d="M52.3965 59.5449C52.053 60.0835 51.6841 60.6051 51.2939 61.1055L58.4268 68.4291H61.3486L52.3965 59.5449Z" fill="white"/>
<path d="M172.552 42.7054L175.538 38.9948L169.21 38.4478L172.552 42.7054Z" fill="white"/>
<path d="M168.96 47.3445L171.941 43.634L165.614 43.0869L168.96 47.3445Z" fill="white"/>
<path d="M89.0104 97.4187H102.767V88.7974H83.6035L89.0104 95.9047V97.4187Z" fill="white"/>
<path d="M112.682 136.857H131.842L126.439 129.745V82.3387L131.842 75.2271H112.682V101.502H78.1462V75.2271H58.9868L64.3894 82.3387V129.745L58.9868 136.857H78.1462V111.701H112.682V136.857Z" fill="white"/>
<path d="M137.88 139.003C137.868 141.611 135.828 143.655 133.296 143.655H107.352C104.82 143.655 102.776 141.611 102.767 139.003V115.789H89.0234L89.0362 139.079C89.0362 147.229 95.6431 153.836 103.794 153.836H136.863C145.013 153.836 151.62 147.229 151.62 139.079L151.641 95.9046L157.048 88.793H137.889V139.003H137.88Z" fill="white"/>
<path d="M148.834 61.0802C148.477 60.5119 148.151 59.9479 147.858 59.4009L138.66 68.4293H141.37L148.834 61.0802Z" fill="white"/>
<path d="M151.747 64.8418L134.64 82.9707H137.515L153.019 66.131C152.574 65.7069 152.15 65.2743 151.747 64.8418Z" fill="white"/>
<path d="M186.219 42.2432C186.219 42.2432 190.587 51.4497 180.541 56.4155C171.691 60.7919 160.75 55.9194 152.608 49.8849C152.608 49.8849 149.436 57.535 162.658 61.1947C175.881 64.8544 186.432 56.6657 186.432 56.6657C186.432 56.6657 185.821 65.3633 166.695 68.5693C166.695 68.5693 175.826 72.5682 186.024 63.9173C197.801 53.9262 186.219 42.2432 186.219 42.2432Z" fill="white"/>
<path d="M66.5688 143.65L39.0723 172.3C63.9523 162.559 69.6306 152.738 69.6306 152.738C69.6306 152.738 70.2243 155.312 69.1556 157.996C75.3046 153.654 80.228 148.68 83.8835 144.337C83.8241 144.108 83.769 143.879 83.7139 143.646H66.5688V143.65Z" fill="white"/>
<path d="M137.312 159.655C141.938 163.225 149.355 167.771 160.924 172.3L146.497 157.267C143.745 158.73 140.623 159.587 137.312 159.655Z" fill="white"/>
<path d="M57.2903 73.7769L62.7354 83.9714V128.223L55.2124 138.18H79.7702V114.063H86.8521V143.65L91.4999 151.75L99.9982 155.999H141.502L149.118 151.75L153.019 141.721V97.4186L160.771 87.7329H128.89V82.9706L136.413 73.9041H109.421L109.688 86.3505L80.6183 86.4056L80.6565 73.9041L57.2903 73.7769Z" fill="white" stroke="black" stroke-miterlimit="10"/>
<path d="M183.522 34.4064L181.491 33.4013L185.617 24.5892L181.075 22.4858L173.51 29.4618L167.306 26.3957L163.239 31.175L167.467 33.9993L157.684 43.7825C157.684 43.7825 165.003 49.4608 169.426 49.9824L177.988 39.5418C177.988 39.5418 186.122 44.3635 180.456 50.7839C176.496 55.2705 165.915 55.067 150.666 41.4374L147.676 38.6047C140.904 44.0836 142.752 53.1544 144.368 57.9082L133.902 68.4251H105.888V82.9664H84.9436V68.4251H66.098L55.632 57.9082C57.252 53.1502 59.0967 44.0836 52.3243 38.6047L49.4449 41.5647C34.1954 55.1942 23.5004 55.2663 19.5439 50.7839C13.8783 44.3635 22.0077 39.5418 22.0077 39.5418L30.9683 50.275C37.2063 48.6593 42.6386 43.8164 42.6386 43.8164L32.5288 33.9993L36.7568 31.175L32.69 26.3957L26.4859 29.4618L18.9205 22.4858L14.3787 24.5892L18.5049 33.4013L16.4694 34.4064C16.4694 34.4064 -7.97812 48.1759 8.8192 66.7246C22.3427 81.6602 40.8575 74.256 45.0685 70.7956L56.3699 83.0215L57.5912 84.6245V127.451L45.2763 143.646H59.0415L24.9168 177.936C25.8413 178.059 27.1092 178.416 27.1092 178.416C49.1438 180.273 70.8137 162.814 84.4729 148.608L85.2616 148.04C88.5948 154.914 95.6386 159.651 103.789 159.651L115.875 159.646H124.768H126.837C154.83 182.414 172.882 178.411 172.882 178.411C172.882 178.411 174.15 178.055 175.075 177.932L151.141 153.879C155.021 150.134 157.438 144.884 157.438 139.071L157.459 97.8596L168.79 82.9579H144.165L154.932 70.7914C159.155 74.256 177.657 81.639 191.173 66.7161C207.97 48.1759 183.522 34.4064 183.522 34.4064ZM168.96 47.3447L165.618 43.0871L171.945 43.6299L168.96 47.3447ZM172.552 42.7054L169.21 38.4478L175.537 38.9906L172.552 42.7054ZM34.382 43.0871L31.0403 47.3447L28.0549 43.6341L34.382 43.0871ZM30.7901 38.4478L27.4485 42.7054L24.4631 38.9948L30.7901 38.4478ZM147.858 59.4009C148.155 59.948 148.477 60.512 148.834 61.0802L141.37 68.4293H138.66L147.858 59.4009ZM102.767 88.7973V97.4186H89.0146V95.9089L83.6078 88.7973H102.767ZM37.3378 61.1947C24.1153 64.8544 13.5645 56.6657 13.5645 56.6657C13.5645 56.6657 14.1752 65.3633 33.3006 68.5693C33.3006 68.5693 24.1705 72.5682 13.9716 63.9173C2.19527 53.9262 13.7766 42.2431 13.7766 42.2431C13.7766 42.2431 9.40866 51.4497 19.4548 56.4155C28.3051 60.7919 39.2461 55.9193 47.3882 49.8849C47.3882 49.8806 50.5602 57.535 37.3378 61.1947ZM48.7664 68.4293L46.3831 65.851C46.9895 65.3888 47.596 64.8968 48.1854 64.3752L52.0147 68.4293H48.7664ZM51.2938 61.1057C51.684 60.6053 52.0529 60.0837 52.3964 59.5451L61.3485 68.4293H58.4266L51.2938 61.1057ZM69.1598 158.001C70.2284 155.317 69.6347 152.742 69.6347 152.742C69.6347 152.742 63.9565 162.56 39.0764 172.305L66.573 143.655H83.7223C83.7732 143.888 83.8325 144.117 83.8919 144.346C80.2279 148.68 75.3088 153.654 69.1598 158.001ZM78.1458 111.701V136.857H58.9864L64.3933 129.745V82.3387L58.9864 75.2271H78.1458V101.502H112.682V75.2271H131.841L126.434 82.3387V129.745L131.841 136.857H112.682V111.701H78.1458ZM160.924 172.3C149.355 167.771 141.938 163.221 137.312 159.655C140.624 159.583 143.749 158.73 146.497 157.267L160.924 172.3ZM157.039 88.7973L151.632 95.9089L151.611 139.083C151.611 147.234 145.004 153.841 136.854 153.841H103.785C95.6343 153.841 89.0274 147.234 89.0274 139.083L89.0146 115.793H102.759V139.007C102.771 141.615 104.811 143.659 107.343 143.659H133.287C135.819 143.659 137.859 141.615 137.871 139.007V88.7973H157.039ZM137.515 82.9706H134.64L151.747 64.8417C152.15 65.2785 152.574 65.7068 153.019 66.1309L137.515 82.9706ZM186.024 63.913C175.826 72.564 166.695 68.565 166.695 68.565C185.821 65.3591 186.431 56.6614 186.431 56.6614C186.431 56.6614 175.881 64.8502 162.658 61.1905C149.436 57.5308 152.608 49.8806 152.608 49.8806C160.75 55.9151 171.687 60.7876 180.541 56.4112C190.592 51.4412 186.219 42.2389 186.219 42.2389C186.219 42.2389 197.801 53.9262 186.024 63.913Z" fill="#2B5597"/>
<path d="M157.154 155.999V152.683H158.041V151.75H155.191V152.683H156.077V155.999H157.154Z" fill="#2B5597"/>
<path d="M158.185 155.999H159.253L159.597 153.552H159.609L160.555 155.999H160.983L161.976 153.552H161.988L162.29 155.999H163.362L162.739 151.75H161.67L160.78 154.019L159.944 151.75H158.884L158.185 155.999Z" fill="#2B5597"/>
</svg>
