<svg width="201" height="201" viewBox="0 0 201 201" fill="none" xmlns="http://www.w3.org/2000/svg">
<g clip-path="url(#clip0_5_234824)">
<g clip-path="url(#clip1_5_234824)">
<path d="M172.474 166.526C172.547 163.352 171.504 160.62 169.374 158.408C166.974 155.915 160.741 151.698 145.937 151.453C142.349 151.393 137.313 151.274 135.957 151.242C132.832 161.065 126.091 164.175 125.802 164.303L125.13 164.604L125.155 163.868C125.208 162.387 124.607 160.955 123.416 159.724C121.151 157.382 117.09 156.036 112.272 156.036L98.8272 156.025L98.7056 155.752C98.6826 155.702 96.4571 150.68 93.7245 145.2C90.9277 139.594 89.0142 136.619 79.2448 135.567C63.9734 133.922 59.1163 122.746 54.4174 111.938C51.7399 105.777 48.9729 99.408 44.2855 95.0328C35.9225 87.2197 26.8758 83.8872 14.0365 83.8872C10.8084 83.8872 7.24521 84.1073 3.44574 84.5381L2.19531 84.6802L3.06258 83.7681C12.1689 74.1742 20.6489 68.4696 26.16 65.3733C29.3147 63.6016 31.8569 62.4648 33.58 61.7795C23.8518 61.8781 15.1287 63.4756 15.0392 63.4916L13.6832 63.7437L14.6193 62.7307C23.0442 53.6089 34.6629 46.1258 48.2203 41.0928C61.663 36.0965 77.1431 33.4585 92.9834 33.4585C113.78 33.4585 132.476 38.7918 148.558 49.3093C161.835 57.9933 169.953 68.1212 173.607 73.3857C175.331 75.8656 175.028 79.2118 172.887 81.3387L172.527 81.6985C193.711 96.6875 200.413 108.071 200.479 108.186L200.541 108.291V108.413C200.541 120.819 191.832 130.901 190.696 132.162L190.662 133.415C190.416 146.559 185.676 154.971 181.743 159.71C177.469 164.862 173.302 166.868 173.128 166.95L172.456 167.269L172.472 166.526H172.474Z" fill="#004F9D"/>
<path d="M92.9831 33.9168C141.087 33.9168 165.657 62.7443 173.231 73.6469C174.823 75.9411 174.546 79.0443 172.566 81.0131L171.818 81.758C193.52 97.0175 200.084 108.413 200.084 108.413C200.084 121.587 190.244 131.978 190.244 131.978L190.205 133.404C189.734 158.599 172.933 166.538 172.933 166.538C173.272 151.64 150.156 151.065 145.944 150.994C141.741 150.925 135.622 150.776 135.622 150.776C132.57 160.778 125.616 163.886 125.616 163.886C125.774 159.451 120.577 155.58 112.276 155.58L99.1298 155.569C99.1298 155.569 96.9088 150.552 94.1395 144.998C91.2234 139.154 89.1057 136.17 79.2972 135.116C55.5505 132.558 57.526 106.77 44.6041 94.7003C36.9317 87.5336 28.2522 83.431 14.0431 83.431C10.8012 83.431 7.27017 83.6442 3.40186 84.0842C20.9538 65.5909 36.2182 61.3325 36.2182 61.3325C35.6492 61.3211 35.0825 61.3165 34.5181 61.3165C24.2645 61.3165 14.9609 63.04 14.9609 63.04C32.0975 44.4801 60.94 33.9168 92.9831 33.9168ZM92.9831 33C84.9919 33 77.0992 33.6578 69.5278 34.9527C62.0138 36.2385 54.7911 38.1591 48.0617 40.6573C41.2956 43.1692 35.0114 46.2747 29.3787 49.8845C23.6474 53.5607 18.5676 57.7755 14.284 62.4143L12.4141 64.4403L15.1261 63.9384C15.2087 63.9224 22.5323 62.5839 31.2165 62.2859C29.7435 62.9529 27.9654 63.8307 25.9394 64.9698C20.4008 68.0822 11.8795 73.8119 2.7342 83.4494L1.00195 85.276L3.50511 84.9918C7.28623 84.5632 10.8333 84.3455 14.0431 84.3455C20.7955 84.3455 26.4855 85.2898 31.4413 87.2287C35.936 88.9889 39.919 91.5742 43.9778 95.3673C48.594 99.6784 51.3427 106.004 54.0018 112.121C58.7512 123.049 63.6634 134.35 79.2009 136.023C83.7483 136.514 86.692 137.428 88.75 138.989C90.7874 140.534 92.0241 142.81 93.3204 145.404C96.0484 150.873 98.2717 155.887 98.2923 155.935L98.5332 156.481H99.1298L112.276 156.495C116.971 156.495 120.912 157.787 123.09 160.043C124.191 161.182 124.749 162.499 124.7 163.852L124.648 165.321L125.992 164.72C126.286 164.59 133.057 161.466 136.289 151.707C138.01 151.748 142.597 151.854 145.93 151.909C149.707 151.97 153.238 152.321 156.432 152.947C162.204 154.081 166.449 156.025 169.046 158.722C171.088 160.842 172.086 163.464 172.017 166.513L171.983 167.998L173.327 167.363C173.506 167.278 177.762 165.231 182.101 160.001C184.639 156.944 186.678 153.421 188.167 149.534C190.021 144.694 191.015 139.271 191.125 133.417L191.155 132.34C191.845 131.568 193.894 129.157 195.961 125.591C198.262 121.621 201.004 115.417 201.004 108.408V108.163L200.883 107.95C200.814 107.831 199.141 104.959 194.77 100.183C190.875 95.9265 184.008 89.296 173.242 81.6319C175.518 79.3469 175.833 75.7715 173.99 73.1175C170.315 67.8255 162.158 57.6471 148.814 48.9196C141.481 44.1249 133.479 40.3524 125.031 37.7099C115.018 34.586 104.237 33 92.9831 33Z" fill="white"/>
<path d="M131.566 119.721L121.078 108.951C121.078 108.951 126.112 112.751 127.927 113.776C129.742 114.803 131.382 115.596 134.693 115.628C138.006 115.66 141.753 115.697 141.753 115.697C141.753 115.697 134.714 104.333 115.009 90.3137C115.009 90.3137 115.156 89.1563 115.276 87.8614C115.397 86.5665 115.815 82.9636 112.479 81.2332C109.15 79.5074 94.5598 71.2107 73.7063 68.2473C73.7063 68.2473 71.1779 58.4104 59.7818 58.4219C48.7895 58.4219 46.9241 67.0028 46.9241 69.2236C46.8369 70.7455 47.3922 77.3874 53.9495 79.606C53.9495 79.606 52.5912 77.5432 52.5912 75.178C52.5912 72.8127 54.1468 67.5597 60.6628 67.5597C67.1788 67.5597 68.6036 73.6126 68.6036 76.4981C68.6036 82.0697 61.8788 89.6514 42.9365 84.4373C42.9365 84.4373 62.4249 93.5499 74.9154 120.042C89.6567 118.827 96.3838 123.778 105.694 133.686C105.694 133.686 110.469 139.933 120.082 140.073C129.732 140.213 137.88 134.087 138.118 126.796C138.355 119.533 131.566 119.719 131.566 119.719V119.721ZM100.094 88.7804C100.094 88.7804 99.7909 92.2183 102.028 93.1924C104.141 94.1137 105.609 92.9907 105.981 92.6538C108.576 95.5301 110.315 101.086 110.315 101.086L105.224 96.4102C96.6775 95.608 92.8505 93.6737 91.0815 88.8905L85.0611 85.613C85.0611 85.613 89.6751 83.9079 96.7073 84.5037C102.939 85.0309 106.429 86.7246 107.881 88.0195L106.213 88.714L107.193 90.9417C107.193 90.9417 104.283 88.7827 100.094 88.7804Z" fill="#FFC62F"/>
<path d="M184.401 110.478C194.448 111.044 195.849 108.752 195.849 108.752C178.385 89.0486 165.431 82.2485 165.431 82.2485L167.537 80.1056C168.819 78.7992 168.792 76.6975 167.47 75.4301C163.522 71.6439 156.258 64.8598 147.408 60.1087C136.942 54.4912 129.104 52.0252 129.104 52.0252C142.166 54.3698 150.621 57.4226 150.621 57.4226C113.447 27.9648 58.7724 42.0141 57.7927 42.2548C75.0165 41.5626 90.1846 45.5184 90.1846 45.5184C49.8886 44.7002 29.751 56.6273 29.751 56.6273C29.751 56.6273 47.7526 53.139 69.3242 55.1238C91.146 57.1315 109.145 63.6245 109.145 63.6245C90.1686 62.2746 78.8757 65.5772 78.8757 65.5772C92.6969 67.8324 101.634 71.7722 112.527 76.7067C123.494 81.6732 120.385 90.0776 120.385 90.0776C120.385 90.0776 132.238 98.1703 141.751 108.954C149.533 117.778 149.68 122.941 149.68 122.941C151.699 125.577 165.552 135.76 177.513 131.923C189.503 128.077 190.286 120.42 189.274 116.877C188.267 113.34 181.138 113.32 181.138 113.32L169.237 101.851L178.86 108.56C180.493 109.699 182.411 110.37 184.401 110.482V110.478ZM147.422 79.6678C147.422 79.6678 147.119 83.1057 149.356 84.0797C151.816 85.1523 153.404 83.4517 153.404 83.4517C155.413 85.2853 157.559 87.921 159.188 91.6338L153.906 87.6666C153.906 87.6666 147.092 88.0906 142.939 86.1585C138.795 84.231 138.681 80.6167 138.681 80.6167L131.474 75.8793C131.474 75.8793 146.885 73.2963 156.017 78.7671L154.429 80.156L154.998 82.0949C154.998 82.0949 151.967 80.0093 147.42 79.6678H147.422Z" fill="#FFC62F"/>
<path d="M174.489 88.4181C174.223 88.2119 173.964 88.0125 173.707 87.8177C173.626 87.7558 173.548 87.6962 173.468 87.6366C168.423 83.8183 165.428 82.2483 165.428 82.2483L166.915 80.7357L167.45 80.1902C168.732 78.8861 168.739 76.7432 167.466 75.4299C164.467 72.5536 159.557 67.9514 153.493 63.8237C158.646 67.4931 161.496 72.1571 162.882 75.0518C163.62 76.5965 163.329 78.4369 162.138 79.6677L158.793 83.133C158.793 83.133 180.177 97.1297 186.872 110.567C186.984 110.567 187.096 110.567 187.204 110.569C187.22 110.569 187.234 110.569 187.25 110.569C187.356 110.569 187.459 110.569 187.562 110.569C187.576 110.569 187.592 110.569 187.606 110.569C187.709 110.569 187.812 110.569 187.913 110.567C187.922 110.567 187.934 110.567 187.943 110.567C188.049 110.567 188.154 110.565 188.257 110.563C192.738 110.471 194.636 109.662 195.391 109.158C195.407 109.146 195.423 109.135 195.439 109.123C195.439 109.123 195.443 109.121 195.446 109.119C195.459 109.107 195.475 109.098 195.489 109.089C195.492 109.089 195.494 109.084 195.496 109.084C195.51 109.075 195.521 109.066 195.535 109.057C195.537 109.057 195.54 109.052 195.542 109.05C195.553 109.041 195.565 109.032 195.576 109.022C195.579 109.022 195.581 109.018 195.586 109.015C195.597 109.006 195.606 108.999 195.615 108.99C195.618 108.99 195.62 108.986 195.622 108.983C195.632 108.974 195.641 108.967 195.65 108.96C195.65 108.96 195.652 108.958 195.654 108.956C195.68 108.933 195.703 108.912 195.721 108.894C195.726 108.889 195.73 108.885 195.735 108.88C195.737 108.878 195.742 108.873 195.744 108.871C195.749 108.867 195.753 108.862 195.758 108.857C195.76 108.855 195.762 108.853 195.765 108.85C195.769 108.846 195.774 108.841 195.778 108.837C195.778 108.837 195.781 108.832 195.783 108.832C195.788 108.828 195.792 108.823 195.794 108.818C195.794 108.818 195.794 108.816 195.797 108.814C195.801 108.809 195.806 108.805 195.808 108.8C195.829 108.775 195.838 108.761 195.838 108.761C187.317 99.1465 179.871 92.6055 174.477 88.4273L174.489 88.4181Z" fill="white"/>
<path d="M113.58 81.9781C113.268 81.7053 112.905 81.4532 112.481 81.2332C112.385 81.1828 112.274 81.1255 112.157 81.0636C112.141 81.0544 112.125 81.0476 112.111 81.0384C111.967 80.9628 111.809 80.878 111.637 80.7863C111.591 80.7634 111.542 80.7359 111.497 80.7106C111.384 80.6511 111.267 80.5892 111.146 80.525C111.051 80.4769 110.955 80.4242 110.856 80.3737C110.794 80.3417 110.733 80.3096 110.668 80.2752C110.528 80.2018 110.382 80.1239 110.23 80.046C110.164 80.0116 110.097 79.9772 110.028 79.9406C109.87 79.8581 109.705 79.7733 109.535 79.6862C109.468 79.6518 109.397 79.6151 109.328 79.5807C109.179 79.5051 109.026 79.4272 108.867 79.347C108.785 79.3057 108.702 79.2645 108.617 79.2209C108.45 79.1361 108.275 79.0513 108.099 78.9619C108.021 78.923 107.945 78.8863 107.865 78.8473C107.656 78.7442 107.44 78.6388 107.22 78.5333C107.142 78.4967 107.064 78.4577 106.986 78.421C106.931 78.3958 106.873 78.3683 106.818 78.3408C109.122 79.732 113.47 83.5366 111.338 91.7141C111.338 91.7141 126.281 105.798 133.454 115.573C133.841 115.603 134.252 115.621 134.693 115.626C138.006 115.658 141.752 115.694 141.752 115.694C141.752 115.694 141.323 115.004 140.39 113.76C140.33 113.68 140.263 113.593 140.199 113.508C138.848 111.732 136.565 108.958 133.13 105.498C132.483 104.847 131.797 104.171 131.068 103.472C130.338 102.775 129.567 102.053 128.755 101.315C127.94 100.575 127.082 99.816 126.181 99.0367C123.023 96.3139 119.318 93.3757 115.009 90.3091C115.009 90.3091 115.156 89.1517 115.275 87.8568C115.353 87.0248 115.553 85.244 114.803 83.6168C114.534 83.0323 114.144 82.4685 113.58 81.9735V81.9781Z" fill="white"/>
<path d="M123.951 142.725C119.025 143.17 112.793 142.303 112.793 142.303L105.655 152.106L116.79 152.294C122.985 152.399 127.066 157.43 127.066 157.43C135.069 149.048 134.046 139.324 134.046 139.324C134.046 139.324 128.886 142.28 123.951 142.725Z" fill="#FFC62F"/>
<path d="M173.059 137.08C166.061 137.064 158.442 132.833 158.442 132.833L148.525 146.55L156.948 146.683C171.96 146.919 176.397 158.363 176.397 158.363C187.589 146.589 185.586 134.55 185.586 134.55C185.586 134.55 180.725 137.098 173.057 137.082L173.059 137.08Z" fill="#FFC62F"/>
<path d="M91.0811 88.8905L85.0607 85.613C85.0607 85.613 80.7817 102.64 110.317 101.088L105.226 96.4125C96.6794 95.6103 92.8524 93.676 91.0834 88.8905H91.0811Z" fill="white"/>
<path d="M142.938 86.1608C138.795 84.2333 138.68 80.619 138.68 80.619L131.473 75.8816C131.473 75.8816 127.991 96.1076 159.185 91.6361L153.906 87.6688C153.906 87.6688 147.091 88.0929 142.938 86.1608Z" fill="white"/>
<path d="M156.019 78.7692L150.561 70.1471C136.813 69.9981 131.477 75.8837 131.477 75.8837C131.477 75.8837 146.888 73.3007 156.019 78.7715V78.7692Z" fill="white"/>
<path d="M120.084 140.073C129.734 140.213 137.882 134.087 138.12 126.796C138.357 119.533 131.568 119.719 131.568 119.719L121.08 108.949C125.086 114.624 124.283 122.137 124.283 122.137C121.913 117.759 114.775 115.172 109.794 115.694C115.273 119.549 116.37 130.695 105.696 133.683C105.696 133.683 110.471 139.931 120.084 140.071V140.073Z" fill="url(#paint0_linear_5_234824)"/>
<path d="M134.046 139.326C134.046 139.326 128.886 142.282 123.95 142.727C119.024 143.172 112.793 142.305 112.793 142.305C112.793 142.305 128.755 145.904 127.069 157.432C135.071 149.05 134.048 139.326 134.048 139.326H134.046Z" fill="white"/>
<path d="M185.588 134.547C185.588 134.547 180.727 137.096 173.059 137.078C166.061 137.062 158.441 132.831 158.441 132.831C158.441 132.831 180.408 146.717 176.399 158.36C187.591 146.587 185.588 134.547 185.588 134.547Z" fill="white"/>
<path d="M96.7068 84.5036C102.938 85.0307 106.428 86.7244 107.88 88.0194L104.152 80.9809C91.1131 79.6677 85.0605 85.6129 85.0605 85.6129C85.0927 85.6014 89.6975 83.91 96.7045 84.5036H96.7068Z" fill="white"/>
<path d="M177.51 131.916C165.552 135.753 151.703 125.575 149.682 122.937C151.132 124.069 152.958 124.747 154.945 124.747C159.669 124.747 163.501 120.92 163.501 116.201C163.501 112.932 161.663 110.095 158.962 108.656C158.939 108.64 158.914 108.619 158.889 108.603C166.66 108.404 174.631 114.177 174.631 114.177C174.254 108.227 169.232 101.872 169.232 101.844L181.135 113.315C181.135 113.315 188.264 113.336 189.271 116.872C190.28 120.416 189.5 128.07 177.51 131.919" fill="url(#paint1_linear_5_234824)"/>
</g>
</g>
<defs>
<linearGradient id="paint0_linear_5_234824" x1="105.696" y1="124.514" x2="138.125" y2="124.514" gradientUnits="userSpaceOnUse">
<stop stop-color="white"/>
<stop offset="1" stop-color="white"/>
</linearGradient>
<linearGradient id="paint1_linear_5_234824" x1="149.679" y1="117.305" x2="189.588" y2="117.305" gradientUnits="userSpaceOnUse">
<stop stop-color="white"/>
<stop offset="1" stop-color="white"/>
</linearGradient>
<clipPath id="clip0_5_234824">
<rect width="200" height="200" fill="white" transform="translate(0.599609 0.649902)"/>
</clipPath>
<clipPath id="clip1_5_234824">
<rect width="200" height="135" fill="white" transform="translate(1 33)"/>
</clipPath>
</defs>
</svg>
