<svg width="200" height="200" viewBox="0 0 200 200" fill="none" xmlns="http://www.w3.org/2000/svg">
<path d="M99.7713 185.98C88.1393 185.98 82.3454 183.238 76.065 172.048C66.8213 170.544 60.5851 180.628 67.3521 200C56.295 197.7 47.8474 190.137 42.8939 180.717C39.621 178.461 36.6134 175.763 34.004 172.888C34.004 175.453 34.1367 178.063 34.4905 180.717C21.5759 169.527 15.1185 158.956 13.3936 147.766C12.3322 149.359 11.3149 150.995 10.3419 152.72C5.87484 137.594 5.3441 126.404 7.99779 116.807C6.40557 117.559 4.7249 118.487 3 119.593C6.05175 104.821 9.98806 91.9947 20.0721 81.6895C18.5241 80.5396 16.6665 79.655 14.5436 78.9031C17.0203 76.161 19.9836 73.7284 23.345 72.4016C22.2393 68.9076 21.4432 65.7231 20.7355 62.3618C23.3892 61.9195 26.5294 61.7868 29.0946 62.3176C34.4463 33.4808 47.3167 11.8974 65.8041 0C76.3304 7.96108 84.778 20.0354 89.0681 37.2844C93.2256 36.4441 97.4272 36.3114 99.8598 36.3114C102.292 36.3114 106.494 36.4441 110.651 37.2844C114.942 20.0354 123.389 8.00531 133.916 0C152.403 11.8974 165.273 33.525 170.625 62.3176C173.19 61.7868 176.33 61.9195 178.984 62.3618C178.276 65.7231 177.48 68.8633 176.375 72.4016C179.736 73.7284 182.655 76.161 185.176 78.9031C183.053 79.6992 181.196 80.5838 179.648 81.6895C189.732 91.9947 193.668 104.821 196.72 119.593C194.995 118.487 193.358 117.559 191.722 116.807C194.376 126.404 193.889 137.594 189.378 152.72C188.405 150.995 187.387 149.359 186.326 147.766C184.601 158.956 178.144 169.483 165.229 180.717C165.539 178.063 165.716 175.409 165.716 172.888C163.062 175.763 160.054 178.461 156.826 180.717C151.872 190.137 143.425 197.7 132.368 200C139.09 180.628 132.898 170.544 123.655 172.048C117.153 183.238 111.403 185.98 99.7713 185.98Z" fill="#FF4D00"/>
<path d="M99.7714 40.1152C95.0832 40.1152 89.997 40.7344 85.8838 42.1055C82.3013 24.5468 73.8979 12.3399 65.583 5.08643C49.3955 16.2319 36.9231 37.6384 32.4561 67.2713C30.7754 66.3425 28.1659 65.856 25.8661 66.0771C26.3526 68.377 27.2371 71.5172 28.3428 75.2766C25.9987 75.3651 23.3893 76.515 21.7086 77.9303C23.3008 78.7264 24.8488 79.9206 25.9545 81.6455C17.3742 88.8104 12.5976 98.4964 9.32471 111.234C11.2707 110.35 13.6591 109.598 15.6051 109.155C10.8285 117.426 9.41316 128.793 12.2438 142.194C13.6591 140.027 15.4282 137.815 16.9762 136.179C16.2685 148.961 19.8953 159.62 30.2004 170.633C30.112 168.067 30.3773 164.795 30.9965 162.185C34.8002 168.156 40.196 173.507 46.0784 177.223C49.0859 184.034 54.8355 190.27 61.0717 192.879C57.3565 173.729 67.6617 164.706 79.0726 168.2C85.2203 179.965 89.8201 181.513 99.7714 181.513C109.723 181.513 114.323 179.965 120.47 168.2C131.881 164.662 142.231 173.729 138.471 192.879C144.707 190.314 150.457 184.034 153.464 177.223C159.391 173.507 164.743 168.156 168.546 162.185C169.165 164.839 169.431 168.067 169.342 170.633C179.648 159.62 183.274 148.961 182.567 136.179C184.115 137.815 185.884 140.027 187.299 142.194C190.13 128.793 188.714 117.426 183.938 109.155C185.84 109.598 188.228 110.35 190.218 111.234C186.945 98.4522 182.169 88.8104 173.588 81.6455C174.694 79.9206 176.242 78.7706 177.834 77.9303C176.109 76.515 173.544 75.3651 171.2 75.2766C172.306 71.5172 173.19 68.3328 173.677 66.0771C171.377 65.856 168.812 66.3425 167.087 67.2713C162.575 37.5942 150.103 16.2319 133.96 5.08643C125.689 12.2956 117.242 24.5468 113.659 42.1055C109.502 40.7344 104.46 40.1152 99.7714 40.1152Z" fill="#002F87"/>
<path d="M99.771 167.89C96.2769 167.89 91.3676 169.571 87.2544 170.19C89.8196 175.055 93.0483 175.807 99.771 175.807C106.494 175.807 109.722 175.055 112.288 170.19C108.13 169.571 103.265 167.89 99.771 167.89Z" fill="white"/>
<path d="M99.7712 56.2139C93.8004 65.2364 93.5793 80.9374 96.0118 94.4713C93.5793 93.1444 91.8986 90.1369 90.8814 86.5102C89.3776 81.3797 89.7314 76.4262 87.0335 72.8437C84.6452 69.7035 79.7801 67.3594 76.4187 67.3594C74.2958 67.3594 73.5439 68.2882 71.9074 71.4284C65.0521 84.6968 57.091 94.0732 42.1861 97.2576C36.3922 98.496 28.5638 99.2037 25.2024 103.273C34.4461 101.769 43.0264 102.609 47.5819 106.634C32.1021 107.696 21.7969 115.878 20.9565 128.527C27.2812 120.699 36.746 117.912 43.7341 119.947C30.2002 125.387 24.6717 140.911 29.3157 152.454C30.8637 145.643 35.3749 139.849 40.7266 138.434C35.0211 147.545 37.9844 159.619 44.9282 165.413C45.9013 156.523 51.7836 150.376 58.0198 150.243C53.1547 156.258 51.2086 167.359 54.8354 174.524C57.7986 163.335 66.6885 159.354 75.0919 161.477C71.9959 155.152 68.9884 148.96 66.202 145.953C63.3272 142.901 59.9216 142.415 56.2507 143.963C56.9141 140.867 59.4793 139.186 62.7522 139.053C59.3909 136.355 51.8721 136.975 47.7146 141.928C47.7146 136.046 52.2701 132.729 56.7814 132.419C54.6584 129.987 51.076 129.677 47.4492 130.65C48.8203 128.262 51.474 126.404 54.968 126.404C60.0543 126.404 64.4771 130.385 67.75 135.294C72.7478 142.857 76.9052 155.595 80.5762 161.123C82.2126 163.556 84.1144 165.192 87.2546 165.192C89.6872 165.192 93.6235 164.219 96.0118 162.406C97.2502 161.433 97.6925 160.548 97.6925 157.718C97.6925 154.754 97.206 154.047 95.3484 152.366C93.712 150.906 91.2794 149.049 89.1122 146.351C91.2794 145.201 93.3139 144.759 94.3754 144.272C95.3926 143.786 95.7022 143.078 95.2157 142.061C94.4638 140.557 93.2255 140.557 91.4563 141.088C89.8641 141.53 88.095 142.238 86.7681 142.857C86.1489 141.663 85.8393 140.734 85.8393 140.026C85.8393 138.611 86.9893 135.825 88.7142 133.525C89.5545 132.419 89.9083 132.198 90.9256 132.198C92.2524 132.198 95.7907 132.508 99.727 132.508C103.663 132.508 107.246 132.198 108.528 132.198C109.546 132.198 109.899 132.375 110.74 133.525C112.465 135.825 113.615 138.611 113.615 140.026C113.615 140.734 113.305 141.663 112.686 142.857C111.359 142.238 109.59 141.574 107.998 141.088C106.184 140.557 104.99 140.557 104.238 142.061C103.752 143.034 104.061 143.742 105.079 144.272C106.14 144.803 108.175 145.201 110.342 146.351C108.175 149.049 105.742 150.951 104.106 152.366C102.248 154.002 101.761 154.754 101.761 157.718C101.761 160.548 102.204 161.433 103.442 162.406C105.83 164.175 109.723 165.192 112.199 165.192C115.34 165.192 117.286 163.556 118.878 161.123C122.549 155.595 126.662 142.857 131.704 135.294C134.977 130.385 139.4 126.404 144.486 126.404C148.024 126.404 150.634 128.262 152.005 130.65C148.378 129.677 144.796 129.987 142.673 132.419C147.184 132.684 151.739 136.046 151.739 141.928C147.538 136.975 140.063 136.355 136.702 139.053C139.975 139.23 142.54 140.867 143.203 143.963C139.532 142.415 136.127 142.901 133.252 145.953C130.466 148.96 127.458 155.152 124.362 161.477C132.765 159.354 141.655 163.335 144.619 174.524C148.245 167.404 146.299 156.258 141.434 150.243C147.67 150.42 153.597 156.568 154.526 165.413C161.47 159.664 164.433 147.545 158.727 138.434C164.035 139.849 168.546 145.643 170.138 152.454C174.782 140.911 169.254 125.387 155.72 119.947C162.752 117.912 172.173 120.699 178.497 128.527C177.657 115.878 167.352 107.696 151.872 106.634C156.428 102.609 165.008 101.769 174.252 103.273C170.846 99.2037 163.062 98.5403 157.268 97.2576C142.363 94.0732 134.402 84.6526 127.547 71.4284C125.91 68.2882 125.202 67.3594 123.035 67.3594C119.674 67.3594 114.853 69.7035 112.42 72.8437C109.723 76.4262 110.076 81.424 108.573 86.5102C107.511 90.0927 105.83 93.1444 103.442 94.4713C105.963 80.9374 105.698 65.2364 99.7712 56.2139Z" fill="white"/>
<path d="M69.2541 29.4116C70.2271 27.2887 70.979 24.3696 70.6251 22.6447C68.7676 23.1312 66.4677 24.635 64.787 26.2272C65.0524 22.114 64.9639 18.0892 64.2563 15.2144C52.6685 22.3351 43.3363 43.5204 41.0807 56.7889C42.1422 60.0175 46.2112 63.1135 50.2802 63.8212C47.8476 65.5461 43.5133 66.2979 39.5327 65.6788C41.0365 68.244 44.7959 70.0131 48.6437 70.19C47.3611 72.0034 45.592 73.4187 43.9113 74.3033C49.0418 75.0551 56.6933 72.0918 58.9931 67.7575C56.6048 68.1998 53.6415 67.669 52.0493 66.2979C56.0298 65.4576 59.5681 62.9808 59.5681 59.2657C59.6565 53.6929 53.3761 51.968 49.5283 54.6217C50.059 50.42 52.9781 47.5894 57.8874 47.7221C57.6221 45.5107 55.4549 43.1666 52.9339 42.3263C55.1895 40.3802 58.6393 40.4244 61.3815 42.4589C62.4429 40.8225 63.5929 36.3112 64.2563 31.225C66.6004 33.3922 68.0157 36.7093 68.0157 39.6726C68.0157 44.803 65.937 46.9702 65.937 51.4373C65.937 56.2139 71.5097 57.4523 75.6229 56.3466C79.2939 45.7318 76.3306 33.8344 69.2541 29.4116Z" fill="#FDFDFD"/>
<path d="M130.289 29.4116C129.316 27.2887 128.564 24.3696 128.918 22.6447C130.775 23.1312 133.075 24.635 134.756 26.2272C134.49 22.114 134.579 18.0892 135.287 15.2144C146.874 22.3351 156.207 43.5204 158.462 56.7889C157.401 60.0175 153.332 63.1135 149.263 63.8212C151.695 65.5461 156.03 66.2979 160.01 65.6788C158.506 68.244 154.747 70.0131 150.899 70.19C152.182 72.0034 153.951 73.4187 155.632 74.3033C150.501 75.0551 142.85 72.0918 140.55 67.7575C142.938 68.1998 145.901 67.669 147.494 66.2979C143.513 65.4576 139.975 62.9808 139.975 59.2657C139.886 53.6929 146.167 51.968 150.015 54.6217C149.484 50.42 146.565 47.5894 141.655 47.7221C141.921 45.5107 144.088 43.1666 146.609 42.3263C144.353 40.3802 140.904 40.4244 138.161 42.4589C137.1 40.8225 135.95 36.3112 135.287 31.225C132.942 33.3922 131.527 36.7093 131.527 39.6726C131.527 44.803 133.606 46.9702 133.606 51.4373C133.606 56.2139 128.033 57.4523 123.92 56.3466C120.249 45.7318 123.212 33.8344 130.289 29.4116Z" fill="#FDFDFD"/>
<path d="M89.9971 103.096C88.051 103.096 86.3261 102.256 84.6897 100.663C81.9918 98.0539 78.5419 92.4811 75.5787 89.6063C73.6326 87.7045 71.6423 86.7314 69.6521 86.7314C66.2907 86.7314 63.2832 89.562 62.4429 93.4984C64.1678 92.3042 66.0254 91.7292 68.1041 91.7292C66.9984 93.4099 66.3792 95.4444 66.3792 97.6116C66.3792 103.627 71.2443 108.492 77.2593 108.492C80.2226 108.492 82.9205 107.298 84.9108 105.352C86.3261 106.457 87.6087 106.988 88.9356 106.988C91.5893 106.988 93.5353 104.953 93.9334 102.079C92.6508 102.698 91.3239 103.096 89.9971 103.096ZM70.3597 97.6558C70.3597 95.754 71.0674 94.0291 72.2173 92.7465C73.4115 93.4099 74.6056 94.3829 76.0652 95.7982C76.2863 96.0194 76.5075 96.2405 76.7286 96.4617C76.2863 96.727 75.7998 96.9482 75.2248 96.9924C75.1806 97.2135 75.1364 97.4347 75.1364 97.6558C75.1364 99.1154 76.3305 100.265 77.7458 100.265C78.4535 100.265 79.0727 99.9999 79.515 99.5576C80.6649 100.84 81.6821 102.123 82.6109 103.14C81.2841 104.334 79.5592 105.042 77.6574 105.042C73.6768 105.086 70.3597 101.769 70.3597 97.6558Z" fill="#002F87"/>
<path d="M74.8712 97.0365C74.0308 97.0365 73.279 96.7712 72.7482 96.2847C72.6155 96.727 72.5713 97.1692 72.5713 97.6557C72.5713 100.575 74.9154 102.919 77.8345 102.919C79.1613 102.919 80.3997 102.432 81.3285 101.592C80.7977 100.973 80.2228 100.265 79.6036 99.6018C79.1171 100.044 78.4979 100.309 77.8345 100.309C76.3749 100.309 75.225 99.1153 75.225 97.7C75.225 97.4788 75.2692 97.2577 75.3134 97.0365C75.1365 96.9923 75.0038 97.0365 74.8712 97.0365Z" fill="#FF4D00"/>
<path d="M109.546 103.096C111.492 103.096 113.217 102.256 114.853 100.663C117.551 98.0539 121.001 92.4811 123.964 89.6063C125.91 87.7045 127.9 86.7314 129.891 86.7314C133.252 86.7314 136.26 89.562 137.1 93.4984C135.375 92.3042 133.517 91.7292 131.439 91.7292C132.544 93.4099 133.164 95.4444 133.164 97.6116C133.164 103.627 128.298 108.492 122.283 108.492C119.32 108.492 116.622 107.298 114.632 105.352C113.217 106.457 111.934 106.988 110.607 106.988C107.953 106.988 106.007 104.953 105.609 102.079C106.892 102.698 108.175 103.096 109.546 103.096ZM129.183 97.6558C129.183 95.754 128.475 94.0291 127.325 92.7465C126.131 93.4099 124.937 94.3829 123.478 95.7982C123.256 96.0194 123.035 96.2405 122.814 96.4617C123.256 96.727 123.743 96.9482 124.318 96.9924C124.362 97.2135 124.406 97.4347 124.406 97.6558C124.406 99.1154 123.212 100.265 121.797 100.265C121.089 100.265 120.47 99.9999 120.028 99.5576C118.878 100.84 117.861 102.123 116.932 103.14C118.259 104.334 119.984 105.042 121.885 105.042C125.866 105.086 129.183 101.769 129.183 97.6558Z" fill="#002F87"/>
<path d="M124.672 97.0365C125.512 97.0365 126.264 96.7712 126.795 96.2847C126.927 96.727 126.972 97.1692 126.972 97.6557C126.972 100.575 124.627 102.919 121.708 102.919C120.382 102.919 119.143 102.432 118.214 101.592C118.745 100.973 119.32 100.265 119.939 99.6018C120.426 100.044 121.045 100.309 121.708 100.309C123.168 100.309 124.318 99.1153 124.318 97.7C124.318 97.4788 124.274 97.2577 124.229 97.0365C124.406 96.9923 124.539 97.0365 124.672 97.0365Z" fill="#FF4D00"/>
</svg>
