<?xml version="1.0" encoding="UTF-8"?>
<svg width="200px" height="200px" viewBox="0 0 200 200" version="1.1" xmlns="http://www.w3.org/2000/svg" xmlns:xlink="http://www.w3.org/1999/xlink">
    <!-- Generator: Sketch 54.1 (76490) - https://sketchapp.com -->
    <title>indiana</title>
    <desc>Created with Sketch.</desc>
    <g id="indiana" stroke="none" stroke-width="1" fill="none" fill-rule="evenodd">
        <g id="indiana_BGL" fill="#A80C30">
            <g id="indiana" transform="translate(20.000000, 0.000000)">
                <g id="g10" transform="translate(79.200077, 100.255261) scale(-1, 1) rotate(-180.000000) translate(-79.200077, -100.255261) translate(0.000000, 0.676216)" fill-rule="nonzero">
                    <g id="g12">
                        <polyline id="path14" points="106.286504 172.6608 106.286504 157.660954 116.656619 157.660954 116.656619 74.1241396 94.7112502 74.1241396 94.7112502 184.143422 106.37543 184.143422 106.37543 199.144194 51.6421556 199.144194 51.6421556 184.143422 63.3097628 184.143422 63.3097628 74.1241396 41.1179938 74.1241396 41.1179938 157.660954 51.487646 157.660954 51.487646 172.6608 0 172.6608 0 157.660954 11.6321292 157.660954 11.6321292 60.928851 30.5557603 41.6147774 63.3097628 41.6147774 63.3097628 19.3205578 51.6837472 19.3205578 51.6837472 0 106.337451 0 106.337451 19.3205578 94.7112502 19.3205578 94.7112502 41.6147774 127.218482 41.6147774 146.142206 60.928851 146.142206 157.660954 157.80268 157.660954 157.80268 172.6608 106.286504 172.6608"></polyline>
                    </g>
                </g>
            </g>
        </g>
    </g>
</svg>