<svg width="200" height="200" viewBox="0 0 200 200" fill="none" xmlns="http://www.w3.org/2000/svg">
<path d="M80.5845 194.641C80.2643 194.641 80.0901 194.641 80.0901 194.641C74.4609 194.483 67.6014 192.854 62.1575 190.393C55.0452 187.18 51.0283 183.006 50.5396 178.315C50.5059 178.011 50.5059 177.719 50.5396 177.416C50.5789 176.955 50.6913 176.528 50.8542 176.129C47.7811 173.933 43.6744 169.933 41.6519 163.36L39.9834 157.921L45.5564 159.062C48.1238 159.584 55.4834 160.933 59.2081 160.978C60.7193 157.365 62.5396 154.214 64.4384 151.478C57.1688 151.163 51.0789 146.831 46.5227 142.039L45.6407 144.511L41.489 140.629L40.1463 143.382L37.68 141.556L37.4778 144.017C39.416 147.332 41.1238 149.354 41.1519 149.388L47.7924 157.169L37.8261 154.871C22.0789 151.236 14.6969 139.837 12.8373 129.669C3.62944 125.663 -0.69639 115.006 0.618217 99.3484C1.2081 92.3146 8.87101 83.1517 11.9216 79.7528C11.4328 74.9158 13.1744 70.4607 17.107 66.4776C17.4104 64.1124 18.1688 61.7472 18.8036 59.7809C18.989 59.2079 19.1631 58.663 19.3036 58.191L19.416 55.8371L20.5002 54.8933C27.3261 48.9382 38.0115 39.5337 41.3036 36.4551C41.0733 32.5169 41.18 29.7697 41.6463 26.7472C42.4103 21.8371 44.1631 18.3371 46.8654 16.3427L48.8935 14.854L51.0901 15.9326C51.298 16.0225 53.4665 16.9045 57.1744 16.9045C61.2643 16.9045 65.6575 15.8764 70.2306 13.8427C82.8823 7.76409 97.8261 4.41577 112.326 4.41577C132.309 4.41577 149.759 10.7191 160.36 21.7416C164.405 23.1405 186.174 29.4551 192.073 29.4551C192.304 29.4551 192.422 29.4439 192.467 29.4382C193.186 29.3484 193.691 29.309 194.146 29.309C194.663 29.309 196.242 29.309 197.562 30.5731C198.877 31.8427 199.534 33.5057 199.461 35.3933C199.455 35.6517 199.427 35.9326 199.377 36.236C198.658 40.8989 186.815 55.0787 181.933 60.4214C199.776 97.2585 195.141 118.64 194.927 119.551L194.028 123.438L187.556 120.742C183.377 139.034 171.388 151.034 161.708 158.028C149.433 166.899 136.36 171.101 129.405 171.247C122.253 171.399 113.629 174.489 110.174 175.848L109.393 179.247L117.371 185.629L112.652 187.989C100.006 194.309 83.7418 194.629 80.607 194.629L80.5845 194.641ZM61.8092 125.624C60.6407 133.067 66.1969 142.798 68.6126 146.124L68.6407 146.163C71.1519 143.337 73.5395 141.169 75.3036 139.573C76.0227 138.921 76.8879 138.135 77.298 137.702C77.3261 137.601 77.3542 137.489 77.3879 137.371C77.8373 135.77 79.2137 130.893 77.1463 127.702C76.0002 125.933 73.8092 124.781 70.6182 124.258H70.5452C69.0733 124.32 65.4778 124.472 61.8036 125.618L61.8092 125.624Z" fill="#B9BBBD"/>
<path d="M196.023 35.7191C196.045 35.5675 196.062 35.4214 196.068 35.2697C196.101 34.3596 195.815 33.6012 195.202 33.0169C194.82 32.6461 194.242 32.6236 192.865 32.7922C187.129 33.5057 159.124 25.118 158.405 24.6124C139.888 4.62926 100.607 2.96633 71.6351 16.9102H71.6519C58.0564 22.9663 49.7193 19.0338 49.635 18.9944L49.2249 18.7922L48.8598 19.0618C46.8935 20.5169 45.5957 23.2641 44.9721 27.2697C44.4946 30.3821 44.4272 33.1686 44.7643 37.7753C43.5227 39.2809 22.7137 57.4382 22.7137 57.4382L22.6519 58.7472C22.0002 61.1068 20.489 64.854 20.3542 68.0394C13.6631 74.1573 15.3317 79.7079 15.4946 80.8596C15.4946 80.8596 4.59573 92.2809 3.97775 99.6349C3.35977 106.978 3.24743 123.315 15.8823 127.202C16.3486 131.388 19.3766 147.146 38.5845 151.584C38.5845 151.584 32.8541 144.916 30.0395 135.444L34.5058 138.91L34.8092 135.236L38.8879 138.253L40.4553 135.039L44.1912 138.534L45.3204 135.371C49.5395 141.006 56.8542 148.444 65.8823 148.107C65.8823 148.107 55.5789 133.961 58.944 123.062C64.0733 121.006 69.4384 120.944 70.8092 120.876C86.4328 123.174 80.5676 137.972 80.4834 138.893C80.3036 140.899 67.5901 147.983 61.6182 164.067C59.0171 165.253 44.8823 162.365 44.8823 162.365C47.8373 171.983 55.9609 175.202 55.9609 175.202C54.7362 176.292 53.9609 177.045 53.8991 177.758C53.8935 177.826 53.8935 177.893 53.8991 177.961C54.68 185.455 70.0957 190.978 80.1575 191.264C80.1575 191.264 97.8879 191.601 111.124 184.983L105.607 180.573L107.259 173.405C107.259 173.405 119.377 168.101 129.315 167.888C141.641 167.624 179.489 151.882 185 116.039L191.618 118.798C191.618 118.798 196.59 97.3034 177.843 59.8034C179.955 58.0169 195.393 39.7697 196.023 35.7191Z" fill="#0A1823"/>
<path d="M143.017 31.6855C140.197 33.2697 131.421 37.5282 116.573 42.6574C116.348 42.736 116.124 42.8147 115.893 42.8933C115.376 43.0731 114.854 43.2473 114.326 43.427C112.579 44.59 110.635 45.809 108.539 47.0394H108.534C94.9945 54.9944 74.8428 63.7135 57.6405 63.9158C55.3933 63.9439 50.7136 63.2922 51.3765 59.8877C51.8203 58.1855 52.8709 56.0787 54.2697 53.8147C59.5057 45.3034 69.5787 34.4776 70.1855 33.6798C68.6518 33.7697 40.8203 63.9888 36.3484 59.3091C36.3203 59.2754 36.3091 59.2641 36.3091 59.2641C36.3147 59.236 36.3259 59.2136 36.3315 59.1855L66.1405 25.8821C66.1405 25.8821 66.1405 25.8765 66.1518 25.8709C67.8203 24.7304 69.5619 23.6124 71.3709 22.545C73.0057 21.9158 74.6181 21.3147 76.2136 20.7529C81.6012 19.0731 90.899 16.854 101.416 16.854C105.405 16.854 109.562 17.1855 113.747 18.0057C132.292 21.6293 140.955 29.5225 143.034 31.6798L143.017 31.6855Z" fill="url(#paint0_linear_5_234807)"/>
<path d="M105.174 76.4437C101.309 76.4437 97.4495 76.6741 93.663 77.073C102.36 78.4044 108.438 84.6853 113.36 92.2415C118.275 99.8033 122.028 108.646 126.056 115.107C97.3484 95.6909 74.2473 94.3482 60.7529 94.9662C53.9607 95.2752 47.4102 96.4887 41.7304 98.7303H41.7248C40.8652 99.0673 40.0281 99.4325 39.2079 99.8145C31.8484 103.27 26.8933 109.511 24.0282 116.253L21.9888 116.567C19.4607 107.753 8.7304 101.635 8.39332 101.449H8.3877L9.49445 99.6123V99.601C11.3652 95.4381 19.3034 79.3482 32.7866 72.9887H32.8146V72.9718L36.2978 59.264C36.2978 59.264 36.309 59.2752 36.3371 59.3089C40.809 63.9887 68.6349 33.7696 70.1742 33.6797C69.5731 34.4718 59.5001 45.3033 54.2585 53.8145C52.8652 56.0842 51.809 58.1853 51.3652 59.8876C50.7079 63.2921 55.3877 63.9437 57.6293 63.9156C74.8371 63.7134 94.9832 54.9943 108.523 47.0392H108.528C110.624 45.8089 112.567 44.5898 114.315 43.4269L118.388 46.3819L118.433 46.41C122.062 48.7977 125.742 51.5112 129.326 54.3145L129.343 54.3258C132.832 57.0505 136.236 59.8482 139.433 62.4999C140.174 63.1179 140.905 63.7246 141.624 64.3201C140.483 64.1123 124.837 61.2022 116.899 61.2022C111.371 61.2022 105.86 61.8482 100.388 63.4943C114.865 64.9381 129.298 71.7583 137.371 84.5336C127.905 78.4943 116.528 76.4437 105.152 76.4437H105.174Z" fill="url(#paint1_linear_5_234807)"/>
<path d="M41.798 73.1124C41.798 73.1124 38.7081 75.5338 35.7418 79.1742C34.6632 80.4945 33.5789 82.0057 32.6014 83.6518C31.6913 85.2079 30.8879 86.8933 30.2811 88.6742C29.0789 92.281 28.7418 96.2866 30.1519 100.438C27.0845 101.405 22.1575 102.68 17.8935 102.517C11.9665 102.303 9.49463 99.6012 9.49463 99.6012C11.4272 95.2866 19.8766 78.1742 34.2699 72.3372L41.798 73.1068V73.1124Z" fill="url(#paint2_linear_5_234807)"/>
<path d="M41.7868 73.118L31.7531 75.6855L35.7418 79.1799L27.0059 80.281L32.6014 83.6574L21.18 84.9214L30.2811 88.6799L18.0115 90.4214L29.2306 94.6574L15.2306 96.4439L30.1519 100.438C27.0845 101.405 22.1575 102.68 17.8935 102.517C11.9665 102.303 9.49463 99.6012 9.49463 99.6012C11.4272 95.2866 19.8766 78.1742 34.2699 72.3372L41.798 73.1068H41.7868V73.118Z" fill="url(#paint3_linear_5_234807)"/>
<path d="M92.2471 161.523C92.0504 162.5 91.9437 163.068 91.8988 163.382C82.1797 165.27 76.6347 160.219 76.6347 160.219C76.6347 160.219 74.0673 156.59 86.41 147.803C87.2414 149.068 87.9887 150.36 88.6684 151.669C87.4774 154.242 86.4718 157.461 86.0954 161.388C86.674 159.09 88.1347 156.534 89.8314 154.118C90.8763 156.523 91.674 158.994 92.2527 161.517L92.2471 161.523Z" fill="url(#paint4_linear_5_234807)"/>
<path d="M100.887 148.893C95.3987 151.444 93.1571 157.09 92.247 161.528C91.674 159 90.8762 156.534 89.8257 154.124C93.2358 149.281 97.5897 145.084 97.5897 145.084C97.5897 145.084 97.2583 142.663 97.5223 139.714C98.792 145.124 100.887 148.893 100.887 148.893Z" fill="url(#paint5_linear_5_234807)"/>
<path d="M96.6068 133.27C95.6742 135.399 94.8371 138.686 94.5113 143.747C94.5113 143.747 91.1686 146.253 88.6686 151.674C87.9944 150.365 87.2472 149.073 86.4102 147.809C89.045 145.882 91.045 144.899 91.045 144.899C89.5394 131.612 97.1461 126.264 97.1461 126.264C96.6349 128.646 96.5001 131.011 96.6068 133.27Z" fill="url(#paint6_linear_5_234807)"/>
<path d="M69.4829 158.865C70.0897 159.489 71.32 160.051 72.2189 160.169C73.7132 155.573 77.6065 148.455 83.8425 143.011C83.8425 143.011 74.393 149.219 69.4829 158.865Z" fill="url(#paint7_linear_5_234807)"/>
<path d="M98.4717 117.247C107.663 124.14 113.174 133.331 115.011 137.921C116.848 142.517 119.606 146.652 115.011 149.41C111.68 151.41 108.831 154.135 107.517 155.477C109.331 154.011 111.241 152.522 115.927 151.247C118.455 150.556 119.601 148.837 120.118 147.286C120.59 145.871 120.533 144.326 120.073 142.904C113.786 123.382 98.4604 117.253 98.4604 117.253L98.4717 117.247Z" fill="url(#paint8_radial_5_234807)"/>
<path d="M99.7471 67.2641C99.7471 67.2641 87.3258 68.59 83.8988 70.4102C83.0955 70.8372 86.3876 73.899 85.6854 74.3035C62.7696 87.6293 51.8539 77.2136 51.3707 73.2304C51.0056 70.2248 51.1235 66.1012 53.6348 65.2192C53.6348 65.2192 52.3033 73.4271 63.9831 70.7529C68.8876 69.6293 72.8089 66.4439 77.3202 64.3934C82.8932 61.854 88.8146 61.7641 94.7247 60.8035C92.9381 62.1125 90.5393 63.163 89.6966 65.1518C91.5393 65.0394 93.4831 65.6237 95.2471 66.208C97.0224 66.7922 98.6235 67.3821 99.7528 67.2585" fill="#0E0F0F"/>
<path d="M83.837 80.764L82.5842 85.0898C64.2303 87.3932 58.4044 80.028 58.1011 79.6292C67.7022 85.9213 81.6797 81.5056 83.837 80.764Z" fill="#0A1823"/>
<path d="M85.7249 74.2754L83.8429 80.7642H83.8373C81.6856 81.5057 67.7024 85.9215 58.1013 79.6293C58.0957 79.6237 58.0957 79.6181 58.0901 79.6181C58.0901 79.6125 58.0845 79.6125 58.0845 79.6125C58.0845 79.6125 58.0901 79.6125 58.0901 79.6068C62.7362 81.4215 69.8429 81.7417 79.5676 77.4439C81.5002 76.59 83.5452 75.5563 85.6856 74.3035C85.7025 74.2923 85.7137 74.2866 85.7249 74.2754Z" fill="url(#paint9_linear_5_234807)"/>
<path d="M61.3932 116.955C49.8988 120.421 43.7078 124.595 40.8482 126.225C39.1404 124.68 37.6347 122.899 36.5336 120.815C35.4381 118.736 34.983 116.376 35.1066 114.028C35.3875 108.522 37.7527 102.837 41.7246 98.7415H41.7303C43.4156 98.0729 45.1909 97.4943 47.0168 97.0111C48.3988 96.8033 49.7808 96.6853 51.1179 96.6853C54.4381 96.6853 57.5561 97.3763 60.2303 98.9999C65.3538 101.859 64.5561 110.64 61.3876 116.961L61.3932 116.955Z" fill="url(#paint10_radial_5_234807)"/>
<path d="M40.8485 126.23C30.5452 127.461 25.1688 122.635 24.0283 116.264C26.8991 109.522 31.8541 103.281 39.2081 99.8257C40.0227 99.4437 40.8598 99.0785 41.7249 98.7471C37.7474 102.848 35.3878 108.528 35.1013 114.034C34.9834 116.382 35.4328 118.736 36.5339 120.82C37.6351 122.91 39.1351 124.685 40.8485 126.23Z" fill="url(#paint11_radial_5_234807)"/>
<path d="M21.9886 116.573C21.7919 122.803 19.3593 124.174 19.3593 124.174C4.02789 118.64 8.38742 101.449 8.38742 101.449H8.39305C8.73012 101.64 19.4605 107.758 21.9886 116.573Z" fill="url(#paint12_radial_5_234807)"/>
<path d="M23.7189 130.832C22.2919 130.832 20.9155 131.871 20.9155 131.871C20.9155 131.871 22.1684 141.202 32.7639 146.832C32.7639 146.832 27.7414 140.416 26.6459 134.292C26.1627 131.573 24.9211 130.832 23.7189 130.832Z" fill="url(#paint13_linear_5_234807)"/>
<path d="M28.2246 129.303L33.1291 134.079L34.3538 131.191L38.3651 134.725L38.5673 131.455L43.2639 134.146L42.9606 130.584C35.3875 132.214 28.2246 129.303 28.2246 129.303Z" fill="url(#paint14_radial_5_234807)"/>
<path d="M181.152 101.163L173.983 98.9606C173.034 125.938 153.714 150.022 137.826 160.303C137.826 160.303 146.281 141.573 144.275 136.084C144.275 136.084 138.815 157.202 125.832 158.888C116.472 160.101 108.343 162.039 104.658 164.444C104.888 163.764 111.045 155.14 122.253 152.382C132.388 149.888 120.427 116.741 92.8542 113.062C82.3429 111.663 74.9384 113.522 74.9384 113.522C82.3429 114.876 86.7418 119.354 86.8766 119.489C86.5227 119.365 72.2137 114.236 61.3879 116.955C64.5564 110.635 65.3542 101.854 60.2306 98.9943C57.5564 97.3763 54.4384 96.6797 51.1182 96.6797C49.7867 96.6797 48.4047 96.7977 47.0283 97.0055C51.3373 95.8538 55.989 95.1909 60.753 94.9718C74.2474 94.3538 97.3429 95.6909 126.056 115.112C122.028 108.652 118.276 99.8089 113.36 92.2471C108.438 84.6853 102.36 78.41 93.6631 77.0785C97.4496 76.6797 101.309 76.4493 105.174 76.4493C116.556 76.4493 127.927 78.4943 137.393 84.5392C129.315 71.7639 114.888 64.9493 100.41 63.4999C105.877 61.8595 111.388 61.2078 116.922 61.2078C124.86 61.2078 140.5 64.1179 141.646 64.3258C141.658 64.3258 141.669 64.3258 141.674 64.3258C143.405 65.7583 146.124 68.0449 148.242 70.0336L165.163 66.4156C178.399 82.4044 181.158 101.157 181.158 101.157L181.152 101.163Z" fill="url(#paint15_linear_5_234807)"/>
<path d="M93.7807 177.843C82.6065 183.916 62.1908 179.236 59.2751 178.523C59.0504 178.466 58.9268 178.433 58.9268 178.433C58.9268 178.433 58.9324 178.444 58.9492 178.472C59.2582 179.006 63.056 185.163 74.393 186.938C87.0897 188.416 99.1908 183.242 99.1908 183.242C99.1908 183.242 95.4211 181.955 95.4211 180.77C95.4211 180.657 95.4492 180.556 95.5166 180.45C99.0728 174.961 99.8762 169.101 104.657 164.433C104.696 164.315 104.921 163.95 105.326 163.41C106.421 161.95 108.848 159.225 112.5 156.753C101.163 163.337 96.9661 172.174 93.7807 177.843Z" fill="url(#paint16_linear_5_234807)"/>
<path d="M72.0898 161.91C72.0898 161.91 78.5281 172.753 90.8876 173.337C92.8932 171.933 95.4662 167.865 96.3089 165.646C87.7247 167.416 76.7921 165.292 72.0898 161.91Z" fill="url(#paint17_linear_5_234807)"/>
<path d="M95.4211 180.775C95.4211 180.663 95.4492 180.562 95.5166 180.455C95.0335 181.23 93.6121 178.674 93.7807 177.843C82.6065 183.916 62.1908 179.236 59.2751 178.523C59.0504 178.466 58.9268 178.433 58.9268 178.433C58.9268 178.433 58.9324 178.444 58.9492 178.472C59.2582 179.006 63.056 185.163 74.393 186.938C87.0897 188.416 99.1908 183.242 99.1908 183.242C99.1908 183.242 95.4211 181.955 95.4211 180.77V180.775Z" fill="url(#paint18_linear_5_234807)"/>
<path d="M185.567 108.331L179.5 106.129C176.742 130.944 154.017 154.657 137.832 160.303C153.725 150.022 173.039 125.938 173.989 98.9606L181.157 101.163C181.157 101.163 178.399 82.41 165.163 66.4212L148.242 70.0392L169.579 64.2134C180.601 79.101 184.303 95.9044 185.573 108.331H185.567Z" fill="url(#paint19_linear_5_234807)"/>
<path d="M122.253 152.376C126.646 150.893 121.59 128.702 106.022 117.466C111.163 120.354 115.376 124.281 118.573 128.461C126.539 138.888 128.202 150.91 122.253 152.371V152.376Z" fill="url(#paint20_linear_5_234807)"/>
<path d="M99.1908 183.242C99.1908 183.242 87.0897 188.416 74.393 186.938C63.0504 185.163 59.2582 179.006 58.9492 178.472C58.9492 178.466 58.9436 178.466 58.938 178.461C58.938 178.449 58.938 178.444 58.938 178.438C59.2807 178.646 73.9324 187.483 92.4155 181.77C91.8256 183.146 99.2021 183.242 99.2021 183.242H99.1908Z" fill="url(#paint21_linear_5_234807)"/>
<path d="M122.253 152.376C127.708 150.534 123.607 139.399 122.264 136.489C121.101 133.966 119.916 131.23 118.573 128.461C126.54 138.888 128.202 150.91 122.253 152.371V152.376Z" fill="url(#paint22_linear_5_234807)"/>
<path d="M74.4102 163.247C74.4102 163.247 80.3708 167.062 92.0225 166.932C92.0225 166.932 91.7641 169.82 89.0956 170.753C89.0956 170.753 80.1911 168.067 74.4102 163.247Z" fill="white"/>
<path d="M66.8484 174.719C66.8484 174.719 80.0282 179.213 90.2641 175.865L80.9383 173.888L78.5563 175.079L75.5731 172.101L71.4214 175.185L67.6012 171.646L66.8428 174.725L66.8484 174.719Z" fill="url(#paint23_linear_5_234807)"/>
<path d="M61.146 144.854C55.1628 136.719 54.0842 127.017 54.0842 127.017C50.5505 127.275 47.2021 130.129 47.2021 130.129C47.2021 130.129 50.4606 138.635 61.146 144.86V144.854Z" fill="url(#paint24_linear_5_234807)"/>
<path d="M63.5337 168.202C56.8314 168.41 50.0898 166.022 50.0898 166.022C55.3202 172.944 61.7303 173.197 61.7303 173.197C65.2022 170.185 63.5337 168.197 63.5337 168.197V168.202Z" fill="url(#paint25_linear_5_234807)"/>
<path d="M54.0841 127.011C54.0841 127.011 55.1627 136.719 61.1459 144.854C61.1459 144.854 55.3649 139.972 53.4717 134.129L54.0841 127.011Z" fill="white"/>
<path d="M50.0898 166.028C55.2977 169.691 63.1011 170.798 63.1011 170.798C63.7528 169.528 63.5337 168.208 63.5337 168.208C56.8314 168.416 50.0898 166.028 50.0898 166.028Z" fill="white"/>
<path d="M45.5956 103.371L45.1631 104.337C45.1631 104.337 46.017 104.972 47.2755 104.826C47.7586 104.77 48.4328 104.489 48.4328 104.489C48.4328 104.489 49.0957 103.236 47.5901 103.039C46.7137 102.927 45.6013 103.371 45.6013 103.371" fill="#0E0F0F"/>
<path d="M49.6516 100.129L49.0674 101.523C49.0674 101.523 50.1629 102.416 51.7977 102.18C52.4269 102.09 53.3033 101.669 53.3033 101.669C53.3033 101.669 54.191 99.854 52.2415 99.6068C51.1067 99.4607 49.6573 100.129 49.6573 100.129" fill="#0E0F0F"/>
<path d="M44.8486 108.219L44.416 109.185C44.416 109.185 45.27 109.82 46.5284 109.674C47.0171 109.618 47.6801 109.337 47.6801 109.337C47.6801 109.337 48.3486 108.084 46.8374 107.888C45.961 107.775 44.8486 108.219 44.8486 108.219Z" fill="#0E0F0F"/>
<path d="M48.8987 104.972L48.3145 106.365C48.3145 106.365 49.4156 107.258 51.0448 107.023C51.6796 106.933 52.5448 106.511 52.5448 106.511C52.5448 106.511 53.4381 104.702 51.483 104.449C50.3538 104.303 48.8987 104.966 48.8987 104.966" fill="#0E0F0F"/>
<path d="M44.2697 115.253L43.8315 116.219C43.8315 116.219 44.6911 116.854 45.9439 116.708C46.4271 116.652 47.0956 116.371 47.0956 116.371C47.0956 116.371 47.7585 115.118 46.2529 114.916C45.3765 114.803 44.2641 115.253 44.2641 115.253" fill="#0E0F0F"/>
<path d="M48.3203 112.011L47.7305 113.405C47.7305 113.405 48.8316 114.298 50.4608 114.062C51.0956 113.972 51.9608 113.551 51.9608 113.551C51.9608 113.551 52.854 111.736 50.899 111.489C49.7698 111.343 48.3147 112.011 48.3147 112.011" fill="#0E0F0F"/>
<path d="M56.236 98.5169L55.4438 100.466C55.4438 100.466 56.9101 101.702 59.1124 101.36C59.9663 101.23 61.1405 100.64 61.1405 100.64C61.1405 100.64 62.354 98.1124 59.7304 97.7809C58.2079 97.5899 56.2416 98.5225 56.2416 98.5225" fill="#0E0F0F"/>
<path d="M56.7865 103.652L55.9888 105.601C55.9888 105.601 57.4607 106.837 59.6573 106.489C60.5056 106.36 61.6798 105.77 61.6798 105.77C61.6798 105.77 62.8933 103.242 60.2697 102.91C58.7472 102.719 56.7809 103.652 56.7809 103.652" fill="#0E0F0F"/>
<path d="M56.2587 109.511L55.4609 111.455C55.4609 111.455 56.9272 112.691 59.1295 112.348C59.9778 112.219 61.1576 111.629 61.1576 111.629C61.1576 111.629 62.3654 109.101 59.7475 108.77C58.225 108.573 56.2643 109.511 56.2643 109.511" fill="#0E0F0F"/>
<path d="M183.747 40.6685C180.916 49.7696 151.904 63.5842 144.281 66.5112C142.736 65.2359 141.112 63.8876 139.444 62.4999C136.241 59.8482 132.843 57.0505 129.354 54.3258L129.337 54.3145C125.747 51.5112 122.067 48.7977 118.444 46.41L118.399 46.3819L114.326 43.4269C128.736 45.9718 142.725 47.0336 157.59 46.1067C157.595 46.1123 157.601 46.1123 157.607 46.1067C158.14 46.073 158.674 46.028 159.213 45.9831C159.365 45.9718 159.517 45.9606 159.674 45.9437C159.736 45.9437 159.803 45.9437 159.871 45.9269C160.393 45.8876 160.921 45.837 161.438 45.7808H161.455C162.095 45.7134 162.736 45.646 163.376 45.5673C164.022 45.4943 164.668 45.41 165.314 45.3201C165.966 45.2359 166.612 45.1404 167.258 45.0336C167.916 44.9269 168.567 44.8202 169.219 44.7022C170.505 44.4718 171.792 44.219 173.067 43.9325C173.095 43.9213 173.123 43.9156 173.152 43.9156C173.764 43.7752 174.371 43.6291 174.977 43.4774C174.994 43.4718 175.017 43.4662 175.039 43.4606C175.359 43.3819 175.68 43.2977 175.994 43.2134C176.314 43.1291 176.629 43.0449 176.944 42.955C177.258 42.8707 177.573 42.7808 177.887 42.6853C178.253 42.5786 178.618 42.4718 178.983 42.3539C180.174 41.9831 181.354 41.5842 182.5 41.146C182.505 41.1516 182.505 41.146 182.505 41.146C182.91 40.9943 183.309 40.837 183.708 40.6797C183.725 40.6741 183.73 40.6685 183.73 40.6741L183.747 40.6685Z" fill="url(#paint26_linear_5_234807)"/>
<path d="M167.854 44.9439C164.477 51.0281 141.708 64.3371 141.708 64.3371L139.444 62.5L145.326 55.6742L135.955 58.8427L143.578 51.7472L129.354 54.3259L129.337 54.3146C125.747 51.5113 122.067 48.7978 118.444 46.4101L118.399 46.3821L114.326 43.427C128.736 45.9719 142.725 47.0338 157.59 46.1068C157.595 46.1124 157.601 46.1124 157.607 46.1068C158.292 46.0618 158.983 46.0057 159.674 45.9439C160.264 45.8989 160.854 45.8427 161.438 45.7809H161.455C162.095 45.7135 162.736 45.6461 163.376 45.5674C164.022 45.4944 164.668 45.4101 165.314 45.3203C165.966 45.236 166.612 45.1405 167.258 45.0338C167.455 45.0057 167.646 44.9776 167.843 44.9439H167.854Z" fill="#0E0F0F"/>
<path d="M187.579 38.9382C186.337 39.5618 185.045 40.1404 183.725 40.6741C183.326 40.8314 182.927 40.9887 182.523 41.1404C182.523 41.1404 182.523 41.146 182.517 41.1404C181.371 41.5786 180.191 41.9775 179 42.3483C178.635 42.4662 178.27 42.573 177.905 42.6797C177.59 42.7696 177.275 42.8595 176.961 42.9494C176.646 43.0393 176.332 43.1236 176.011 43.2078C175.697 43.2921 175.376 43.3764 175.056 43.455C175.034 43.4606 175.011 43.4662 174.994 43.4719C174.388 43.6236 173.781 43.7696 173.169 43.9101C173.141 43.9101 173.112 43.9157 173.084 43.9269C171.809 44.2134 170.523 44.4662 169.236 44.6966C168.584 44.8146 167.933 44.9213 167.275 45.028C166.629 45.1292 165.983 45.2247 165.332 45.3146C164.685 45.4045 164.039 45.4831 163.393 45.5618C162.753 45.6404 162.112 45.7078 161.472 45.7752H161.455C160.933 45.8314 160.41 45.8764 159.888 45.9213C159.82 45.9325 159.753 45.9382 159.691 45.9382C159.539 45.9494 159.382 45.9662 159.23 45.9775C158.691 46.0224 158.157 46.0618 157.624 46.1011H157.607C142.747 47.028 128.753 45.9663 114.343 43.4213C128.348 44.1966 143.141 44.146 156.921 42.0898C156.927 42.0955 156.933 42.0955 156.933 42.0898C157.663 41.9887 158.371 41.882 159.062 41.7696C162.062 41.3089 164.736 40.7977 167.056 40.2865C167.405 40.2191 167.764 40.1348 168.096 40.0561C170.506 39.5224 172.921 38.8876 175.258 38.1797H175.236C177.281 37.5449 178.382 37.1123 178.382 37.1067L187.601 38.9325L187.579 38.9382Z" fill="url(#paint27_linear_5_234807)"/>
<path d="M175.214 38.1853C174.787 38.3201 174.354 38.4494 173.916 38.5729C172.006 39.1291 170.045 39.6179 168.09 40.0617C168.09 40.0617 168.084 40.0673 168.079 40.0617C167.803 40.1235 167.523 40.1853 167.236 40.2527C167.174 40.264 167.112 40.2808 167.051 40.292C167.045 40.2977 167.039 40.292 167.039 40.292C165.343 40.6572 163.45 41.0336 161.382 41.3932C161.376 41.3932 161.371 41.3932 161.36 41.3988C160.73 41.5055 160.079 41.6123 159.41 41.719C159.292 41.7359 159.18 41.7583 159.062 41.7752C159.056 41.7808 159.051 41.7752 159.051 41.7752C158.36 41.8819 157.652 41.9887 156.921 42.0954C156.921 42.101 156.916 42.101 156.91 42.0954C154.511 42.4493 152.09 42.7471 149.635 42.9887H149.629C148.208 43.1291 146.77 43.2527 145.332 43.3595C143.107 43.5224 140.86 43.6404 138.612 43.7302C138.039 43.7527 137.472 43.7696 136.905 43.7864C133.348 43.8932 129.781 43.91 126.236 43.8538H126.051C125.933 43.8482 125.815 43.8482 125.697 43.8426C124.567 43.8258 123.427 43.7977 122.303 43.7696C119.624 43.6853 116.966 43.5729 114.332 43.4269C115.096 43.1684 115.843 42.9156 116.584 42.6572C131.433 37.528 140.208 33.2696 143.028 31.6853C152.646 33.7471 169.685 37.6235 175.225 38.1797L175.214 38.1853Z" fill="url(#paint28_linear_5_234807)"/>
<path d="M75.8373 72.2809C75.2362 74.3371 71.9384 74.4944 68.6013 74.618C68.5171 74.618 68.4328 74.618 68.3429 74.618C67.8935 74.618 67.4441 74.5731 67.0059 74.5057C67.7587 75.4045 68.6126 76.2135 69.5901 76.9214C74.2587 76.5394 77.0789 74.2922 77.3261 71.9382C76.8261 72.0562 76.3317 72.1686 75.8317 72.2753" fill="url(#paint29_linear_5_234807)"/>
<path d="M63.2134 73.3259C63.2134 73.3259 63.8819 75.5619 65.5055 76.8091C66.9943 77.0057 68.3538 77.0282 69.5954 76.9214C68.6179 76.2136 67.7639 75.4046 67.0111 74.5057C65.4381 74.2529 64.028 73.6349 63.2134 73.3203V73.3259Z" fill="url(#paint30_linear_5_234807)"/>
<path d="M74.2919 72.837C74.2919 72.837 74.247 72.837 74.2301 72.837C73.2863 72.8145 72.5279 72.1853 72.5447 71.4381C72.5559 70.7078 73.2975 70.1348 74.2132 70.1348C74.2357 70.1348 74.2526 70.1348 74.2751 70.1348C75.2189 70.1629 75.9717 70.7864 75.9604 71.5336C75.9548 72.264 75.2132 72.837 74.2975 72.837" fill="#BFBCBD"/>
<path d="M60.944 25.9718L53.9777 35.5112C52.635 36.719 51.3373 37.9325 50.0957 39.1292C50.0227 38.8539 47.6912 29.9044 51.6406 25.6404L60.9384 25.9718H60.944Z" fill="url(#paint31_linear_5_234807)"/>
<path d="M91.9941 53.0393C92.0391 53.0225 92.084 53 92.1233 52.9775L92.0896 53.0169L91.9941 53.0393Z" fill="#0E0F0F"/>
<path d="M66.1291 25.8877L36.3202 59.1911C36.3145 59.2192 28.1348 61.1967 28.1348 61.1967C31.3763 57.7079 44.101 45.09 50.0954 39.1349C54.764 34.6349 59.7977 30.3034 65.1404 26.5731C65.1909 26.5281 65.8482 26.0731 66.1235 25.8877H66.1291Z" fill="url(#paint32_linear_5_234807)"/>
<path d="M30.6066 66.1855C23.7808 61.0169 32.955 54.899 32.4156 54.8203C32.4156 54.8203 18.9662 64.5338 24.7359 70.6349C27.1685 73.2079 32.8089 72.9888 32.8089 72.9888L36.292 59.2641L30.601 66.1855H30.6066Z" fill="#0E0F0F"/>
<path d="M29.3428 71.2303L31.2304 71.5168L26.899 67.0112C26.899 67.0112 26.7529 70.4494 29.3428 71.2303Z" fill="url(#paint33_linear_5_234807)"/>
<path d="M66.5112 52.8145L67.455 54.8875L69.7022 54.9324L72.3989 53.0167C72.3989 53.0167 71.5112 52.1178 70.2191 51.9493C68.4494 51.719 66.5112 52.8145 66.5112 52.8145Z" fill="#0E0F0F"/>
<path d="M47.0898 53.3483L48.0337 55.4213L50.2809 55.4606L52.9775 53.5505C52.9775 53.5505 52.0842 52.646 50.7977 52.4775C49.028 52.2471 47.0955 53.3483 47.0955 53.3483H47.0898Z" fill="#0E0F0F"/>
<path d="M39.3032 57.219L40.247 59.2977L42.4942 59.3426L45.1909 57.4269C45.1909 57.4269 44.2976 56.5224 43.0111 56.3595C41.2414 56.1291 39.3032 57.2246 39.3032 57.2246V57.219Z" fill="#0E0F0F"/>
<path d="M77.6684 36.4493C79.2976 36.0785 82.0841 34.9043 82.0841 34.9043L81.6853 33.0616L78.9381 32.8481C78.9381 32.8481 72.8201 33.674 72.8369 35.174C73.5785 35.1122 74.4886 36.1122 73.9324 36.2358C73.9324 36.4099 73.9549 36.556 74.0055 36.7245C74.1066 37.0504 75.792 36.8762 77.674 36.4493H77.6684Z" fill="#0E0F0F"/>
<path d="M56.9832 47.601C58.1967 47.0954 60.1967 45.7808 60.1967 45.7808L59.6686 44.3032L57.5282 44.4605C57.5282 44.4605 52.9158 45.8875 53.1068 47.1291C53.663 46.9886 54.4945 47.7077 54.0731 47.8819C54.0956 48.0279 54.1293 48.1459 54.1911 48.2751C54.3091 48.5336 55.59 48.1852 56.9776 47.601H56.9832Z" fill="#0E0F0F"/>
<path d="M88.7135 40.2583C90.3708 40.028 93.2472 39.0954 93.2472 39.0954L93.0112 37.2302L90.2921 36.7808C90.2921 36.7808 84.1292 37.0841 84.0112 38.5785C84.7528 38.5785 85.5787 39.6572 85.0056 39.7302C84.9888 39.9044 85.0056 40.0504 85.0393 40.2246C85.1124 40.556 86.809 40.5336 88.7191 40.2639L88.7135 40.2583Z" fill="#0E0F0F"/>
<path d="M59.8035 38.3313C61.427 37.7639 64.1686 36.2077 64.1686 36.2077L63.663 34.2808L60.8821 34.3369C60.8821 34.3369 54.7585 35.8706 54.8596 37.4718C55.6012 37.3313 56.5787 38.3089 56.0169 38.4999C56.0282 38.6909 56.0619 38.8426 56.1181 39.0111C56.2417 39.3538 57.9327 38.9886 59.8035 38.3313Z" fill="#0E0F0F"/>
<path d="M67.1349 29.2808C68.7585 28.7077 71.5 27.1572 71.5 27.1572L70.9944 25.2302L68.2135 25.2864C68.2135 25.2864 62.0955 26.8145 62.191 28.4212C62.9326 28.2808 63.9101 29.2527 63.3484 29.4493C63.3596 29.6403 63.3877 29.792 63.4551 29.9606C63.5787 30.2976 65.2641 29.9381 67.1349 29.2808Z" fill="#0E0F0F"/>
<path d="M62.0675 52.5C63.6237 51.8876 66.2023 50.3146 66.2023 50.3146L65.5282 48.5562L62.7753 48.7472C62.7753 48.7472 56.854 50.4719 57.0956 51.955C57.8147 51.7865 58.8709 52.6404 58.3315 52.8427C58.3596 53.0168 58.4045 53.1573 58.4832 53.3146C58.6349 53.6236 60.2753 53.2022 62.0675 52.4944V52.5Z" fill="#0E0F0F"/>
<path d="M155.017 92.6234C155.539 95.3481 157.359 100.062 157.359 100.062L160.579 99.6347L161.168 95.1571C161.168 95.1571 160.202 85.0223 157.601 84.8594C157.652 86.0785 155.843 87.4549 155.669 86.5167C155.36 86.4942 155.112 86.5167 154.815 86.5841C154.236 86.7133 154.416 89.4942 155.011 92.629L155.017 92.6234Z" fill="#0E0F0F"/>
<path d="M154.371 122.427C153.584 125.079 153.022 130.101 153.022 130.101L156.084 131.197L158.674 127.483C158.674 127.483 162.5 118.039 160.258 116.708C159.736 117.809 157.5 118.208 157.781 117.292C157.517 117.14 157.287 117.039 156.994 116.961C156.427 116.815 155.292 119.365 154.371 122.421V122.427Z" fill="#0E0F0F"/>
<path d="M118.893 93.7415L122.725 100.697L120.449 104.916L115.753 107.247L110.702 101.393L112.23 95.028L118.893 93.7415Z" fill="#0E0F0F"/>
<path d="M93.101 71.7078L99.483 77.3033L97.4268 79.7639L92.792 80.9044L87.2695 76.9774L88.4212 73.146L93.101 71.7078Z" fill="#0E0F0F"/>
<path d="M124.05 77.6067L129.371 84.1011L127.427 87.2134L123.281 88.8539L118.624 84.3539L119.848 79.6123L124.05 77.6067Z" fill="#0E0F0F"/>
<path d="M147.028 77.1628L152.343 83.6572L150.404 86.7696L146.258 88.41L141.601 83.9044L142.826 79.1684L147.028 77.1628Z" fill="#0E0F0F"/>
<path d="M116.236 60.573L121.55 67.073L119.607 70.1853L115.461 71.8202L110.803 67.3202L112.028 62.5842L116.236 60.573Z" fill="#0E0F0F"/>
<path d="M134.567 58.7639L139.888 65.2639L137.944 68.3763L133.798 70.0111L129.146 65.5111L130.371 60.7751L134.567 58.7639Z" fill="#0E0F0F"/>
<path d="M102.354 51.5281L107.944 57.2359L106.045 59.8595L101.86 61.1629L97 57.1854L98.1236 53.1461L102.354 51.5281Z" fill="#0E0F0F"/>
<path d="M73.5617 45.2527L77.7583 48.6516L76.4437 50.1066L73.4324 50.7471L69.8032 48.3538L70.5223 46.0785L73.5617 45.2527Z" fill="#0E0F0F"/>
<path d="M133.798 117.359L137.32 123.798L135.315 128.157L130.781 130.775L125.365 125.258L126.483 118.809L133.798 117.359Z" fill="#0E0F0F"/>
<path d="M143.382 42.9326C148.314 42.8539 153.292 42.5 153.129 41.7023L152.477 38.4719L146.55 37.5056C142.977 36.9214 135.601 37.0056 132.606 39.2135C135.488 39.7865 140.112 37.9551 142.151 40.7641C139.646 42.0281 136.078 40.5337 133.96 42.6292C134.651 42.8652 139 43.0056 143.382 42.9326Z" fill="#0E0F0F"/>
<path d="M88.3367 45.8145L93.8873 50.8032L92.0839 53.0167L88.0334 54.0504L83.2188 50.556L84.2412 47.1235L88.3367 45.8145Z" fill="#0E0F0F"/>
<path d="M111.309 42.3931L116.629 48.8874L114.685 51.9998L110.539 53.6346L105.882 49.1346L107.107 44.3987L111.309 42.3931Z" fill="#0E0F0F"/>
<path d="M147.719 97.1011L146.837 100.764L143.713 103.865L139.062 99.6292L139.169 95.1067L137.708 95.8651L137.522 104.764L143.955 110.983L148.253 106.483L149.674 100.197L147.719 97.1011Z" fill="#0E0F0F"/>
<path d="M96.348 33.3089C98.6907 33.0224 102.753 31.8314 102.753 31.8314L102.387 29.3538L98.5278 28.719C98.5278 28.719 89.803 29.0336 89.6626 31.0111C90.7132 31.028 91.8986 32.4606 91.0896 32.5561C91.0727 32.7864 91.0896 32.9774 91.1458 33.2078C91.2581 33.6572 93.657 33.6403 96.3536 33.3145L96.348 33.3089Z" fill="#0E0F0F"/>
<path d="M101.286 22.3145C103.629 22.028 107.691 20.837 107.691 20.837L107.326 18.3594L103.466 17.7246C103.466 17.7246 94.7415 18.0392 94.6011 20.0167C95.6516 20.028 96.837 21.4662 96.028 21.5561C96.0112 21.7864 96.028 21.983 96.0842 22.2078C96.1966 22.6516 98.5954 22.6403 101.292 22.3145H101.286Z" fill="#0E0F0F"/>
<path d="M84.8258 25.7303C87.1685 25.4494 91.2303 24.2527 91.2303 24.2527L90.8651 21.7752L87.0055 21.1404C87.0055 21.1404 78.2752 21.455 78.1348 23.4325C79.1853 23.4438 80.3707 24.882 79.5617 24.9775C79.5449 25.2078 79.5617 25.3988 79.6179 25.6291C79.7246 26.073 82.1235 26.0561 84.8258 25.7303Z" fill="#0E0F0F"/>
<path d="M121.685 31.938C125.618 31.4155 132.444 29.2863 132.444 29.2863L131.854 24.9605L125.387 23.8931C125.387 23.8931 110.753 24.5391 110.494 27.9998C112.253 28.011 114.224 30.511 112.871 30.6796C112.842 31.0841 112.865 31.4211 112.955 31.82C113.135 32.5953 117.157 32.5447 121.685 31.9436V31.938Z" fill="#0E0F0F"/>
<path d="M137.516 18.3033L137.415 19.3876L137.37 19.8876C137.37 19.8876 137.337 19.8932 137.264 19.8932C137.219 19.8988 137.157 19.9044 137.09 19.91C137.022 19.9157 136.949 19.9213 136.865 19.9269C136.674 19.9381 136.427 19.955 136.146 19.9718C136.061 19.9775 135.972 19.9831 135.882 19.9887C135.427 20.0168 134.882 20.0505 134.286 20.0786C134.09 20.0898 133.882 20.0954 133.674 20.1067C133.646 20.1067 133.618 20.1123 133.584 20.1123C133.443 20.1179 133.297 20.1235 133.151 20.1291C130.904 20.219 128.224 20.264 126.292 20.0898C121.741 19.6741 117.809 18.837 117.809 18.0393C117.803 17.6348 117.854 17.2977 117.977 16.91C118.545 16.9662 118.64 16.4943 118.427 15.8988C118.41 15.837 118.382 15.7752 118.354 15.7078C118.32 15.6404 118.292 15.573 118.252 15.5055C118.151 15.3089 118.016 15.1011 117.859 14.9044C117.809 14.837 117.752 14.7696 117.696 14.7078C117.64 14.646 117.584 14.5842 117.522 14.5224C117.398 14.4044 117.269 14.2977 117.134 14.1966C117 14.0954 116.859 14.0112 116.713 13.9381C116.64 13.9044 116.567 13.8707 116.488 13.8426C116.415 13.8145 116.342 13.7921 116.269 13.7752H116.264C116.297 13.6628 116.348 13.5617 116.41 13.4662C116.634 13.1123 117.039 12.8426 117.578 12.6404C118.415 12.7359 119.247 12.8539 120.078 12.9943C126.988 14.1797 132.736 16.1179 137.421 18.264C137.455 18.2808 137.488 18.2921 137.522 18.3089L137.516 18.3033Z" fill="#0A1823"/>
<path d="M168.326 85.3651C168.848 88.0898 170.668 92.8033 170.668 92.8033L173.893 92.3763L174.477 87.8988C174.477 87.8988 173.517 77.764 170.916 77.6011C170.966 78.8202 169.157 80.1966 168.983 79.2584C168.68 79.2359 168.427 79.2584 168.135 79.3258C167.556 79.455 167.73 82.2359 168.331 85.3707" fill="#0A1823"/>
<path d="M104.455 46.8315C92.045 52.7529 80.4663 59.7304 67.0169 63.0619C63.8315 63.5844 60.6854 63.8877 57.6349 63.9214C55.3877 63.9495 50.7079 63.2978 51.3708 59.8933C51.8146 58.1911 52.8652 56.0844 54.2641 53.8203C54.3203 53.7304 54.3764 53.6405 54.4382 53.545C68.7697 55.9608 92.1068 50.0282 104.461 46.8315H104.455Z" fill="url(#paint34_linear_5_234807)"/>
<path d="M71.7022 53.5115L69.7079 54.9328L67.4607 54.8879L67.0225 53.9272C68.5562 53.8261 70.118 53.6856 71.7022 53.5115Z" fill="url(#paint35_linear_5_234807)"/>
<path d="M93.8876 50.8091L92.1236 52.9777C92.0843 53.0001 92.0393 53.0226 91.9944 53.0395L88.0337 54.0507L84.5112 51.4889C87.3315 50.9383 90.0843 50.3372 92.7023 49.7361L93.8876 50.8035V50.8091Z" fill="url(#paint36_linear_5_234807)"/>
<path d="M59.7751 58.1688L57.0729 60.0789L54.8313 60.0395L53.8818 57.9665C53.8818 57.9665 55.4661 57.0676 57.0897 57.0676C57.2583 57.0676 57.4268 57.0789 57.5953 57.1013C58.8819 57.2699 59.7695 58.1688 59.7695 58.1688H59.7751Z" fill="url(#paint37_linear_5_234807)"/>
<path d="M149.483 31.0673L145.051 32.1235C145.051 32.1235 145.011 32.1235 144.995 32.1123C144.298 31.9606 143.635 31.8201 143.017 31.6853C140.944 29.528 132.281 21.6348 113.73 18.0112C109.545 17.1909 105.388 16.8595 101.399 16.8595C90.8878 16.8595 81.59 19.0786 76.1968 20.7584C82.9552 18.5673 95.7417 15.1516 108.59 15.1516C111.905 15.1516 115.214 15.3819 118.433 15.9325C118.815 15.9943 119.197 16.0673 119.579 16.1404C124.882 17.1741 129.377 18.5954 133.135 20.1348C142.348 23.9213 147.152 28.4774 148.714 30.1572C148.809 30.264 148.91 30.3707 149 30.4775C149.051 30.5336 149.096 30.5842 149.129 30.6291C149.157 30.6628 149.18 30.6909 149.202 30.7246C149.365 30.9213 149.478 31.0673 149.478 31.0673H149.483Z" fill="url(#paint38_linear_5_234807)"/>
<path d="M118.438 15.9326C115.219 15.3821 111.91 15.1517 108.595 15.1517C95.7471 15.1517 82.955 18.5674 76.2021 20.7585C83.3426 18.2247 90.2021 16.3596 97.7527 15.1236C104.079 14.0843 112.741 13.4438 115.067 13.4438C115.652 13.4438 116.101 13.4495 116.41 13.4663C116.343 13.5618 116.298 13.6686 116.264 13.7753C117.27 14.0113 118.157 15.1012 118.438 15.9326Z" fill="url(#paint39_linear_5_234807)"/>
<path d="M154.045 30.1686L149.483 31.0675L149.135 30.6293C149.101 30.5843 149.056 30.5338 149.005 30.4776C148.915 30.3708 148.814 30.2641 148.719 30.1574C147.163 28.4776 142.359 23.9214 133.14 20.1349C135.5 20.0394 137.365 19.8933 137.365 19.8933L137.41 19.3933C137.865 19.5956 138.314 19.7978 138.758 20.0057C141.848 21.4439 144.545 22.9607 146.781 24.3147C148.719 25.4888 150.123 26.4102 151.123 27.1461C152.163 28.0899 152.915 28.8765 153.399 29.4158C153.831 29.8989 154.045 30.1742 154.045 30.1742V30.1686Z" fill="url(#paint40_linear_5_234807)"/>
<path d="M118.067 16.9101C118.039 16.9101 118.011 16.9101 117.978 16.9101C117.854 17.2978 117.803 17.6349 117.809 18.0394C117.809 18.8371 121.742 19.6742 126.292 20.0955C127.247 20.1798 128.393 20.2135 129.573 20.2135C130.753 20.2135 132.011 20.1798 133.14 20.1349C129.382 18.5899 124.893 17.1798 119.584 16.1405C119.202 16.0674 118.82 15.9944 118.433 15.9326C118.618 16.4832 118.539 16.9158 118.062 16.9158" fill="url(#paint41_linear_5_234807)"/>
<path d="M36.3204 59.1853C36.3148 59.2134 36.3035 59.2359 36.2979 59.2639L30.6125 66.1853C28.4496 64.5505 27.8878 62.8089 28.1237 61.2078L28.135 61.1965C28.135 61.1965 36.3148 59.219 36.3204 59.1909V59.1853Z" fill="url(#paint42_linear_5_234807)"/>
<path d="M32.7867 72.9943C29.8148 74.3932 27.1182 76.2696 24.6912 78.3763C24.0845 77.2583 20.8541 77.91 21.0283 76.837C21.5002 73.8819 23.298 71.8763 24.7699 70.6797C27.1238 73.1123 32.3485 73.0112 32.7867 72.9999V72.9943Z" fill="url(#paint43_linear_5_234807)"/>
<path d="M146.022 93.3707C141.86 93.219 89.5056 91.5168 61.1348 100.635C61.1348 100.635 62.3483 98.1067 59.7247 97.7696C59.3258 97.719 58.8933 97.7471 58.4775 97.8145C59.1742 97.6179 77.4887 92.5955 117.966 92.5955C126.382 92.5955 135.719 92.8202 146.022 93.3707Z" fill="url(#paint44_radial_5_234807)"/>
<path d="M143.91 99.5393C143.91 99.5393 91.3539 99.1236 61.6853 105.775C61.6853 105.775 62.8932 103.242 60.2752 102.91C60.0561 102.882 59.8314 102.876 59.6011 102.893H59.5898H59.5955C59.5955 102.893 82.8202 98.5898 117.258 98.5898H117.27C125.629 98.5898 134.573 98.8651 143.91 99.5337V99.5393Z" fill="url(#paint45_radial_5_234807)"/>
<path d="M142.292 105.36C142.292 105.36 93.8202 104.191 61.1572 111.629C61.1572 111.629 62.3651 109.096 59.7471 108.764C59.3763 108.719 58.9831 108.736 58.6011 108.792C60.1292 108.506 82.4213 104.41 115.646 104.41H115.657C124.017 104.41 132.961 104.68 142.298 105.354L142.292 105.36Z" fill="url(#paint46_radial_5_234807)"/>
<path d="M151.129 27.1405C150.129 26.4102 148.725 25.4888 146.787 24.3091C144.567 22.9214 141.86 21.427 138.764 20.0001C138.32 19.7922 137.871 19.59 137.416 19.3877L137.371 19.8877C137.371 19.8877 135.506 20.0338 133.146 20.1293C133.107 20.1124 133.067 20.0956 133.023 20.0787C129.292 18.5619 124.837 17.1574 119.59 16.1349C119.208 16.0619 118.826 15.9888 118.444 15.927C118.197 15.2023 117.489 14.2754 116.64 13.8933C116.64 13.8933 116.624 13.8877 116.618 13.8821C116.506 13.8372 116.388 13.7978 116.27 13.7697C116.27 13.7641 116.275 13.7585 116.275 13.7529C116.309 13.6518 116.354 13.5506 116.416 13.4608C116.376 13.4608 116.332 13.4608 116.287 13.4608C115.989 13.4495 115.579 13.4439 115.073 13.4439C112.747 13.4439 104.09 14.0844 97.7585 15.1237C90.2079 16.3596 83.3484 18.2304 76.2079 20.7585C74.6124 21.3203 73.0001 21.9214 71.3652 22.5506C72.6461 21.927 92.7978 12.3315 111.905 12.3315C113.747 12.3315 115.59 12.4214 117.399 12.6181C117.461 12.6237 117.517 12.6293 117.579 12.6349C118.416 12.7304 119.247 12.8484 120.079 12.9888C126.989 14.1742 132.736 16.1124 137.421 18.2585C137.455 18.2754 137.489 18.2866 137.523 18.3035C144.056 21.3203 148.511 24.7417 151.135 27.1405H151.129Z" fill="#C4BA9B"/>
<path d="M60.7586 94.9776C53.9665 95.2866 47.4159 96.5001 41.7361 98.7416H41.7305C40.871 99.0787 40.0339 99.4439 39.2137 99.8259C31.8541 103.281 26.8991 109.523 24.0339 116.264C24.0339 116.264 24.0339 116.219 24.017 116.135C24.017 116.112 24.0114 116.09 24.0058 116.062C24.0058 116.011 24.0002 115.944 23.9946 115.876C23.8317 113.983 23.6799 105.708 32.6743 102.242L33.1182 99.4439V99.4158C38.5901 69.3765 61.6182 72.9102 61.6182 72.9102C54.4889 77.5169 61.7923 79.663 61.7923 79.663C44.517 81.2472 37.0845 96.6236 37.0845 96.6236C48.2811 91.8034 60.753 94.9832 60.753 94.9832L60.7586 94.9776Z" fill="#0A1823"/>
<path d="M33.118 99.4158V99.4439L32.6686 102.242C23.6742 105.708 23.8259 113.983 23.9888 115.876C23.9888 115.944 24 116.011 24 116.062C24.0057 116.09 24.0113 116.112 24.0113 116.135C24.0225 116.219 24.0282 116.264 24.0282 116.264L21.9888 116.579C19.4607 107.764 8.7304 101.646 8.39332 101.461H8.3877L9.49445 99.6236V99.6124C9.49445 99.6124 11.972 102.315 17.8989 102.528C22.163 102.685 27.0899 101.416 30.1574 100.449C31.9607 99.8877 33.1237 99.427 33.1237 99.427L33.118 99.4158Z" fill="url(#paint47_linear_5_234807)"/>
<defs>
<linearGradient id="paint0_linear_5_234807" x1="45.0563" y1="29.6911" x2="167.191" y2="65.8596" gradientUnits="userSpaceOnUse">
<stop stop-color="#FFD489"/>
<stop offset="1" stop-color="#C87A29"/>
</linearGradient>
<linearGradient id="paint1_linear_5_234807" x1="29.8821" y1="16.1516" x2="88.9102" y2="103.438" gradientUnits="userSpaceOnUse">
<stop stop-color="#FFD489"/>
<stop offset="0.06" stop-color="#FBCE82"/>
<stop offset="0.7" stop-color="#D69142"/>
<stop offset="1" stop-color="#C87A29"/>
</linearGradient>
<linearGradient id="paint2_linear_5_234807" x1="29.3317" y1="88.4945" x2="172.652" y2="165.669" gradientUnits="userSpaceOnUse">
<stop stop-color="#FFD489"/>
<stop offset="1" stop-color="#C87A29"/>
</linearGradient>
<linearGradient id="paint3_linear_5_234807" x1="28.2025" y1="71.7585" x2="19.3991" y2="122.112" gradientUnits="userSpaceOnUse">
<stop stop-color="white"/>
<stop offset="0.01" stop-color="white"/>
<stop offset="1" stop-color="#FFD489"/>
</linearGradient>
<linearGradient id="paint4_linear_5_234807" x1="84.3257" y1="143.86" x2="84.3257" y2="183.354" gradientUnits="userSpaceOnUse">
<stop stop-color="#F58C82"/>
<stop offset="0.02" stop-color="#F58C82"/>
<stop offset="0.52" stop-color="#EB2033"/>
<stop offset="1" stop-color="#9B2E3E"/>
</linearGradient>
<linearGradient id="paint5_linear_5_234807" x1="100.573" y1="137.809" x2="88.6909" y2="169.006" gradientUnits="userSpaceOnUse">
<stop stop-color="#9B2E3E"/>
<stop offset="0.24" stop-color="#BC2839"/>
<stop offset="0.53" stop-color="#EB2033"/>
<stop offset="0.62" stop-color="#EC2F3E"/>
<stop offset="0.8" stop-color="#F0565B"/>
<stop offset="1" stop-color="#F58C82"/>
</linearGradient>
<linearGradient id="paint6_linear_5_234807" x1="92.5337" y1="140.332" x2="85.1461" y2="159.725" gradientUnits="userSpaceOnUse">
<stop stop-color="#9B2E3E"/>
<stop offset="0.67" stop-color="#EB2033"/>
<stop offset="0.98" stop-color="#F58C82"/>
<stop offset="1" stop-color="#F58C82"/>
</linearGradient>
<linearGradient id="paint7_linear_5_234807" x1="69.438" y1="151.169" x2="83.4211" y2="151.86" gradientUnits="userSpaceOnUse">
<stop stop-color="#067BC0"/>
<stop offset="0.02" stop-color="#067BC0"/>
<stop offset="1" stop-color="#19375F"/>
</linearGradient>
<radialGradient id="paint8_radial_5_234807" cx="0" cy="0" r="1" gradientUnits="userSpaceOnUse" gradientTransform="translate(122.466 146.285) scale(25.2416 39.1244)">
<stop stop-color="#7CA3D5"/>
<stop offset="0.02" stop-color="#7CA3D5"/>
<stop offset="0.19" stop-color="#0E6CA8"/>
<stop offset="1" stop-color="#19375F"/>
</radialGradient>
<linearGradient id="paint9_linear_5_234807" x1="90.635" y1="70.6237" x2="71.944" y2="79.7136" gradientUnits="userSpaceOnUse">
<stop stop-color="white"/>
<stop offset="0.01" stop-color="white"/>
<stop offset="1" stop-color="#FFD489"/>
</linearGradient>
<radialGradient id="paint10_radial_5_234807" cx="0" cy="0" r="1" gradientUnits="userSpaceOnUse" gradientTransform="translate(30.5673 108.438) scale(50.4719 50.4719)">
<stop stop-color="white"/>
<stop offset="1" stop-color="#566364"/>
</radialGradient>
<radialGradient id="paint11_radial_5_234807" cx="0" cy="0" r="1" gradientUnits="userSpaceOnUse" gradientTransform="translate(32.562 114.573) scale(218.865 218.865)">
<stop stop-color="white"/>
<stop offset="1" stop-color="#566364"/>
</radialGradient>
<radialGradient id="paint12_radial_5_234807" cx="0" cy="0" r="1" gradientUnits="userSpaceOnUse" gradientTransform="translate(11.7357 107.899) scale(72.4663 72.4663)">
<stop stop-color="white"/>
<stop offset="1" stop-color="#566364"/>
</radialGradient>
<linearGradient id="paint13_linear_5_234807" x1="20.3369" y1="137.82" x2="33.5785" y2="139.494" gradientUnits="userSpaceOnUse">
<stop stop-color="white"/>
<stop offset="1" stop-color="#566364"/>
</linearGradient>
<radialGradient id="paint14_radial_5_234807" cx="0" cy="0" r="1" gradientUnits="userSpaceOnUse" gradientTransform="translate(20.146 123) scale(39.3259 39.3258)">
<stop stop-color="white"/>
<stop offset="1" stop-color="#566364"/>
</radialGradient>
<linearGradient id="paint15_linear_5_234807" x1="41.1688" y1="57.2696" x2="134.674" y2="115.286" gradientUnits="userSpaceOnUse">
<stop stop-color="#FFD489"/>
<stop offset="1" stop-color="#C87A29"/>
</linearGradient>
<linearGradient id="paint16_linear_5_234807" x1="88.8088" y1="148.652" x2="104.157" y2="54.6911" gradientUnits="userSpaceOnUse">
<stop stop-color="#FFD489"/>
<stop offset="1" stop-color="#C87A29"/>
</linearGradient>
<linearGradient id="paint17_linear_5_234807" x1="86.455" y1="158.573" x2="75.8988" y2="182.983" gradientUnits="userSpaceOnUse">
<stop stop-color="white"/>
<stop offset="1" stop-color="#566364"/>
</linearGradient>
<linearGradient id="paint18_linear_5_234807" x1="72.1964" y1="188.444" x2="97.7189" y2="160.169" gradientUnits="userSpaceOnUse">
<stop stop-color="white"/>
<stop offset="0.01" stop-color="white"/>
<stop offset="1" stop-color="#FFD489"/>
</linearGradient>
<linearGradient id="paint19_linear_5_234807" x1="156.921" y1="163.522" x2="170.899" y2="59.4269" gradientUnits="userSpaceOnUse">
<stop stop-color="#FFD489"/>
<stop offset="1" stop-color="#C87A29"/>
</linearGradient>
<linearGradient id="paint20_linear_5_234807" x1="85.8427" y1="124.539" x2="63.3708" y2="116.287" gradientUnits="userSpaceOnUse">
<stop stop-color="#FFD489"/>
<stop offset="1" stop-color="#C87A29"/>
</linearGradient>
<linearGradient id="paint21_linear_5_234807" x1="150.258" y1="196.298" x2="128.674" y2="192.444" gradientUnits="userSpaceOnUse">
<stop stop-color="white"/>
<stop offset="0.01" stop-color="white"/>
<stop offset="1" stop-color="#FFD489"/>
</linearGradient>
<linearGradient id="paint22_linear_5_234807" x1="116.32" y1="167.713" x2="145.023" y2="22.3091" gradientUnits="userSpaceOnUse">
<stop stop-color="#FFD489"/>
<stop offset="1" stop-color="#C87A29"/>
</linearGradient>
<linearGradient id="paint23_linear_5_234807" x1="66.8484" y1="174.371" x2="90.2641" y2="174.371" gradientUnits="userSpaceOnUse">
<stop stop-color="white"/>
<stop offset="1" stop-color="#566364"/>
</linearGradient>
<linearGradient id="paint24_linear_5_234807" x1="51.5111" y1="123.787" x2="58.1797" y2="158.079" gradientUnits="userSpaceOnUse">
<stop stop-color="white"/>
<stop offset="1" stop-color="#566364"/>
</linearGradient>
<linearGradient id="paint25_linear_5_234807" x1="51.1011" y1="163.691" x2="75.4606" y2="180.876" gradientUnits="userSpaceOnUse">
<stop stop-color="white"/>
<stop offset="1" stop-color="#566364"/>
</linearGradient>
<linearGradient id="paint26_linear_5_234807" x1="136.938" y1="17.1909" x2="152.387" y2="48.9437" gradientUnits="userSpaceOnUse">
<stop stop-color="#FFD489"/>
<stop offset="1" stop-color="#855121"/>
</linearGradient>
<linearGradient id="paint27_linear_5_234807" x1="114.326" y1="41.7752" x2="187.579" y2="41.7752" gradientUnits="userSpaceOnUse">
<stop stop-color="white"/>
<stop offset="0.01" stop-color="white"/>
<stop offset="1" stop-color="#FFD489"/>
</linearGradient>
<linearGradient id="paint28_linear_5_234807" x1="180.382" y1="37.5673" x2="88.1686" y2="38.0392" gradientUnits="userSpaceOnUse">
<stop stop-color="#FFD489"/>
<stop offset="1" stop-color="#C87A29"/>
</linearGradient>
<linearGradient id="paint29_linear_5_234807" x1="76.7643" y1="72.5113" x2="69.062" y2="75.7809" gradientUnits="userSpaceOnUse">
<stop stop-color="#65A744"/>
<stop offset="0.02" stop-color="#65A744"/>
<stop offset="1" stop-color="#03793E"/>
</linearGradient>
<linearGradient id="paint30_linear_5_234807" x1="66.5842" y1="75.7136" x2="102.208" y2="85.9945" gradientUnits="userSpaceOnUse">
<stop stop-color="#65A744"/>
<stop offset="0.02" stop-color="#65A744"/>
<stop offset="1" stop-color="#03793E"/>
</linearGradient>
<linearGradient id="paint31_linear_5_234807" x1="87.5901" y1="61.5056" x2="40.0507" y2="18.5842" gradientUnits="userSpaceOnUse">
<stop stop-color="#FFD489"/>
<stop offset="1" stop-color="#C87A29"/>
</linearGradient>
<linearGradient id="paint32_linear_5_234807" x1="29.4438" y1="62.9888" x2="63.6572" y2="28.2079" gradientUnits="userSpaceOnUse">
<stop stop-color="white"/>
<stop offset="0.01" stop-color="white"/>
<stop offset="1" stop-color="#FFD489"/>
</linearGradient>
<linearGradient id="paint33_linear_5_234807" x1="26.6855" y1="68.8708" x2="31.1855" y2="69.6517" gradientUnits="userSpaceOnUse">
<stop stop-color="#65A744"/>
<stop offset="0.02" stop-color="#65A744"/>
<stop offset="1" stop-color="#03793E"/>
</linearGradient>
<linearGradient id="paint34_linear_5_234807" x1="49.8989" y1="55.3765" x2="84.9101" y2="55.3765" gradientUnits="userSpaceOnUse">
<stop stop-color="#FEE4BB"/>
<stop offset="1" stop-color="#F8C97C"/>
</linearGradient>
<linearGradient id="paint35_linear_5_234807" x1="79.8483" y1="52.2306" x2="55.809" y2="56.8373" gradientUnits="userSpaceOnUse">
<stop stop-color="#ACA582"/>
<stop offset="0.99" stop-color="#A8BCC6"/>
<stop offset="1" stop-color="#A8BCC6"/>
</linearGradient>
<linearGradient id="paint36_linear_5_234807" x1="80.1573" y1="53.8484" x2="56.118" y2="58.4552" gradientUnits="userSpaceOnUse">
<stop stop-color="#ACA582"/>
<stop offset="0.99" stop-color="#A8BCC6"/>
<stop offset="1" stop-color="#A8BCC6"/>
</linearGradient>
<linearGradient id="paint37_linear_5_234807" x1="80.2078" y1="54.1013" x2="56.1627" y2="58.7081" gradientUnits="userSpaceOnUse">
<stop stop-color="#ACA582"/>
<stop offset="0.16" stop-color="#ACA88C"/>
<stop offset="0.99" stop-color="#A8BCC6"/>
<stop offset="1" stop-color="#A8BCC6"/>
</linearGradient>
<linearGradient id="paint38_linear_5_234807" x1="61.1069" y1="23.6348" x2="141.5" y2="23.6348" gradientUnits="userSpaceOnUse">
<stop stop-color="#F5C578"/>
<stop offset="1" stop-color="#E5AE67"/>
</linearGradient>
<linearGradient id="paint39_linear_5_234807" x1="153.489" y1="17.0955" x2="66.0729" y2="17.0955" gradientUnits="userSpaceOnUse">
<stop stop-color="#F5C780"/>
<stop offset="0.99" stop-color="#FBE9CE"/>
</linearGradient>
<linearGradient id="paint40_linear_5_234807" x1="153.488" y1="25.2304" x2="66.0727" y2="25.2304" gradientUnits="userSpaceOnUse">
<stop stop-color="#F5C780"/>
<stop offset="0.99" stop-color="#FBE9CE"/>
</linearGradient>
<linearGradient id="paint41_linear_5_234807" x1="103.719" y1="18.0731" x2="186.713" y2="18.0731" gradientUnits="userSpaceOnUse">
<stop stop-color="#5D6F6B"/>
<stop offset="0.99" stop-color="#597785"/>
<stop offset="1" stop-color="#597785"/>
</linearGradient>
<linearGradient id="paint42_linear_5_234807" x1="97.1351" y1="82.3763" x2="74.9553" y2="75.5167" gradientUnits="userSpaceOnUse">
<stop stop-color="#FFD489"/>
<stop offset="1" stop-color="#C87A29"/>
</linearGradient>
<linearGradient id="paint43_linear_5_234807" x1="93.0563" y1="95.5786" x2="70.8766" y2="88.719" gradientUnits="userSpaceOnUse">
<stop stop-color="#FFD489"/>
<stop offset="1" stop-color="#C87A29"/>
</linearGradient>
<radialGradient id="paint44_radial_5_234807" cx="0" cy="0" r="1" gradientUnits="userSpaceOnUse" gradientTransform="translate(65.1685 125.045) scale(350.635 350.635)">
<stop stop-color="white"/>
<stop offset="1" stop-color="#566364"/>
</radialGradient>
<radialGradient id="paint45_radial_5_234807" cx="0" cy="0" r="1" gradientUnits="userSpaceOnUse" gradientTransform="translate(65.1685 125.045) scale(350.635 350.635)">
<stop stop-color="white"/>
<stop offset="1" stop-color="#566364"/>
</radialGradient>
<radialGradient id="paint46_radial_5_234807" cx="0" cy="0" r="1" gradientUnits="userSpaceOnUse" gradientTransform="translate(65.1685 125.045) scale(350.635 350.634)">
<stop stop-color="white"/>
<stop offset="1" stop-color="#566364"/>
</radialGradient>
<linearGradient id="paint47_linear_5_234807" x1="7.85399" y1="105.225" x2="31.5169" y2="108.551" gradientUnits="userSpaceOnUse">
<stop stop-color="#F58C82"/>
<stop offset="0.02" stop-color="#F58C82"/>
<stop offset="0.52" stop-color="#EB2033"/>
<stop offset="1" stop-color="#9B2E3E"/>
</linearGradient>
</defs>
</svg>
