<svg width="200" height="200" viewBox="0 0 200 200" fill="none" xmlns="http://www.w3.org/2000/svg">
<path d="M109.91 50.5686H107.731L100.155 75.6682H107.527L109.91 50.5686Z" fill="black"/>
<path d="M186.052 31.0393H157.997L156.407 34.5643L156.117 31.0157L98.1214 31.0393L87.1025 60.3627L93.0143 31H66.1247L58.9135 66.8947H37.343L33.9278 83.6448C33.2604 86.9226 33.123 89.3211 33.123 90.75C33.123 101.993 45.2724 101.993 55.0352 101.993C63.6006 101.993 69.3946 101.592 73.4536 99.6883L72.7431 101.584H98.1567L99.5267 97.1956L99.0831 101.584L144.16 101.588L145.91 97.6431L146.185 101.584H173.302L168.553 64.1312L186.052 31.0393ZM132.136 68.1469L126.974 79.209L128.108 36.5506L132.136 68.1469ZM55.0352 96.4105C42.98 96.4105 38.7012 95.5548 38.7012 90.75C38.7012 89.7882 38.7915 87.7273 39.396 84.7557L41.9005 72.4768H56.4994L54.1715 83.9863C54.0224 84.371 53.936 84.9167 53.936 85.4976C53.936 88.0217 56.2835 88.0217 57.1667 88.0217C60.0598 88.0217 60.6565 86.377 61.0961 84.375L70.6939 36.5821H86.1997L76.5626 84.4417C74.4075 95.1779 72.1935 96.4105 55.0352 96.4105ZM119.814 96.0023H105.254L106.471 83.9824H97.8034L94.0506 96.0023H79.6676L101.98 36.6174H121.392L119.814 96.0023ZM151.39 96.0023L150.162 78.3101L148.639 78.0392L140.717 95.5901H127.786L139.516 69.1283L135.339 36.2052H150.358L151.799 55.13H152.839L161.597 36.6213H176.223L162.229 63.0831L166.405 96.0062H151.39V96.0023Z" fill="black"/>
<path d="M53.4414 89.3445C53.4924 89.5447 53.5552 89.7253 53.6259 89.898C53.5592 89.7253 53.4924 89.5447 53.4414 89.3445Z" fill="#010101"/>
<path d="M70.0423 35.7773L60.3149 84.214C59.9027 86.0983 59.5023 87.221 57.1706 87.221C55.4512 87.221 54.7368 86.7695 54.7368 85.4937C54.7368 84.8931 54.8389 84.4417 54.9409 84.214L57.4768 71.676H41.2527L38.6187 84.5948C38.0103 87.5939 37.9082 89.6979 37.9082 90.75C37.9082 96.5361 43.3843 97.2074 55.0391 97.2074C72.5821 97.2074 75.118 95.7039 77.3476 84.5948L87.1771 35.7813H70.0423V35.7773Z" fill="#CA2127"/>
<path d="M101.431 35.8206L78.5176 96.7992H94.6396L98.3924 84.7793H105.592L104.375 96.7992H120.595L122.216 35.8206H101.431ZM108.324 51.3655H109.03L106.801 74.8714H101.227L108.324 51.3655Z" fill="#CA2127"/>
<path d="M177.326 36.2484H160.298L152.203 54.184L152.164 54.2428L150.884 35.8323H133.651L137.91 69.4031L123.414 96.807H140.446L148.576 78.789L149.86 97.2231H167.089L162.833 63.6523L177.326 36.2484Z" fill="#CA2127"/>
<path d="M71.7109 38.5723C70.8513 42.8511 68.9945 52.0838 67.1888 61.0732C64.9002 72.4689 62.6862 83.4681 62.6823 83.4917C62.4664 84.4927 62.0699 86.3298 60.6057 87.5703C60.5861 87.5899 60.5586 87.6056 60.539 87.6213C60.4094 87.7273 60.2799 87.8294 60.1347 87.9236C59.2907 88.4771 58.1562 88.8421 56.6253 88.8421C55.7106 88.8421 54.4819 88.7479 53.3867 88.1159C53.2533 88.0374 53.1159 87.955 52.9863 87.8608C53.0374 88.057 53.1002 88.2337 53.1669 88.4025C53.4221 89.058 53.7793 89.5409 54.1051 89.8706C55.3691 91.1386 57.0806 91.2838 58.2583 91.2838C63.1612 91.2838 63.9738 87.5389 64.3192 85.9334C64.3192 85.9255 64.5273 84.9009 64.8766 83.1541C66.2466 76.3355 69.8228 58.5491 72.0171 47.6127C72.5628 44.9041 73.0221 42.6155 73.3439 41.0178H81.7249L81.9329 39.9854L82.2195 38.5723H71.7109Z" fill="white"/>
<path d="M43.5689 73.6467C43.5454 73.7606 43.5218 73.8783 43.4983 74C42.7407 77.7175 41.4924 83.8216 41.4924 83.8177C40.9428 86.5341 40.8604 88.3752 40.8604 89.2309C40.8604 90.3615 41.1744 90.6716 41.3118 90.8129C41.5787 91.0759 41.9909 91.2918 42.4973 91.4802C42.5012 91.2094 42.513 90.86 42.5405 90.4439C42.5562 90.2359 42.5719 90.0082 42.5954 89.7648C42.6818 88.8423 42.8388 87.6804 43.1254 86.2672C43.1254 86.2711 44.4522 79.7666 45.2019 76.0962H52.6957L53.1864 73.6467H43.5689Z" fill="white"/>
<path d="M146.417 38.9963L139.496 39.0317H137.282L140.776 68.6888L128.426 91.9316L130.703 92.9366L143.355 68.7751L139.81 41.4498L146.676 41.4851L146.417 38.9963Z" fill="white"/>
<path d="M163.057 41.4692H170.516L171.721 39.0354H162.064L152.902 56.7629L154.602 57.7325L163.057 41.4692Z" fill="white"/>
<path d="M83.6089 92.2927H86.1565L86.1605 92.2887L91.4991 78.0824L105.333 41.2691H118.687L118.715 40.2485L118.754 38.8196H103.7L83.6089 92.2927Z" fill="white"/>
<path d="M108.779 82.9971L107.841 92.2887V92.2927H109.722L110.66 82.9932H108.783L108.779 82.9971Z" fill="white"/>
<path d="M114.008 50.3408H112.144L109.616 76.9753H99.6369L99.2875 78.1412L98.8989 79.4287H111.245L114.008 50.3408Z" fill="white"/>
<path d="M152.14 92.4027H154.017L152.27 77.1953H150.503L152.14 92.4027Z" fill="white"/>
<path d="M50.2227 87.6409C50.2737 87.8371 50.3365 88.0138 50.4032 88.1826C50.3365 88.0138 50.2698 87.8371 50.2227 87.6409Z" fill="#CB2128"/>
<path d="M179.638 158.685L179.517 159.324L179.638 158.685Z" fill="#010101"/>
<path d="M106.558 117.377L98.9814 142.476H106.357L108.736 117.377H106.558Z" fill="black"/>
<path d="M196.004 117.251L200 97.8472H163.395L162.598 97.8511H53.9049L53.4613 100.053C52.5113 99.4606 51.4318 98.9817 50.2306 98.6245C46.5367 97.5253 41.4532 97.439 35.196 97.439C17.9631 97.439 11.168 98.8521 8.20428 113.828L6.78718 120.937C6.58698 121.914 6.28472 123.394 6.28472 125.055C6.28472 128.694 7.67827 131.854 10.3398 134.315H4.12962L0.808651 150.437C0.141317 153.648 0 155.925 0 157.267C0 168.812 12.1808 168.812 22.9249 168.812C32.9506 168.812 39.3609 168.549 43.8399 164.918C47.7576 161.817 48.578 157.844 49.4573 153.605C49.5358 153.216 49.6182 152.816 49.7164 152.368L50.6821 147.642L51.1492 145.354L52.0364 141.012C52.2523 140.062 52.5506 138.759 52.5506 137.22C52.5506 135.245 52.0207 131.74 48.8253 128.635H54.5251L56.7705 117.483H58.8824L48.6447 168.4H96.9793L98.3493 164.011L97.9058 168.4H146.166L156.403 117.483H158.794L148.549 168.4H185.801L189.597 148.922H179.415L180.624 143.053H190.869L194.858 123.583H184.467L185.703 117.259H196.004V117.251ZM104.077 162.81L105.294 150.794H96.626L92.8733 162.81H78.4903L100.803 103.425H120.218L118.632 162.81H104.077ZM58.4742 103.425H91.8291L90.1254 111.893H81.1989L70.9612 162.81H55.4555L65.6931 111.893H56.7744L58.4742 103.425ZM89.5719 117.475L81.3912 139.249L85.7681 117.475H89.5719ZM177.691 129.153H188.023L186.32 137.467H176.078L172.573 154.492H182.83L181.209 162.81H155.363L167.312 103.425H193.158L191.458 111.673H181.107L177.691 129.153ZM124.803 140.902L125.427 117.475H129.514L124.803 140.902ZM126.087 162.81L136.328 111.893H127.402L129.106 103.425H162.457L160.749 111.893H151.83L141.593 162.81H126.087ZM51.9343 113.216C51.8401 113.671 51.7459 114.138 51.6556 114.601L49.9558 123.045H34.6464L36.1695 115.32C36.3854 114.448 36.3972 114.008 36.3972 113.93C36.3972 111.335 33.9673 111.335 33.1704 111.335C30.4147 111.335 29.6414 113.164 29.241 114.978L28.1419 120.709C27.9927 121.157 27.9103 121.773 27.9103 122.417C27.9103 124.128 29.1821 125.027 31.2312 125.926L41.0724 130.209C44.9862 131.866 46.9685 134.221 46.9685 137.212C46.9685 138.127 46.7723 138.982 46.5799 139.83L44.2521 151.238C44.1579 151.67 44.0715 152.09 43.9891 152.502C43.2432 156.098 42.7055 158.696 40.3737 160.545C37.2883 163.046 31.7258 163.226 22.9288 163.226C9.6999 163.226 5.58205 162.402 5.58205 157.26C5.58205 156.372 5.67234 154.457 6.27294 151.564L8.67927 139.885H24.287L22.0574 150.83C21.9357 151.238 21.9357 151.678 21.9357 152.231C21.9357 154.83 24.3655 154.83 25.1624 154.83C27.9927 154.83 28.6169 152.949 28.9819 151.183L30.8112 142.091L30.8622 141.825C30.9486 141.389 31.0271 140.977 31.0271 140.592C31.0271 139.049 30.5639 138.158 27.8161 136.933L17.0759 132.129C13.6175 130.535 11.8628 128.152 11.8628 125.047C11.8628 124.03 12.0395 123.088 12.2515 122.044L13.6725 114.915C15.7648 104.348 18.179 103.013 35.1921 103.013C47.7811 103.013 52.5388 103.527 52.5388 108.98C52.5467 110.24 52.2483 111.685 51.9343 113.216Z" fill="black"/>
<path d="M192.106 112.47L194.135 102.628H166.661L154.39 163.607H181.864L183.796 153.695H173.554L176.73 138.264H186.967L188.997 128.356H178.661L181.762 112.47H192.106Z" fill="#CA2127"/>
<path d="M90.7771 112.693L92.8026 102.632H57.8225L55.8009 112.693H64.7196L54.4819 163.607H71.6128L81.8505 112.693H90.7771Z" fill="#CA2127"/>
<path d="M77.3438 163.607H93.4618L97.2146 151.591H104.414L103.197 163.607H119.417L121.046 102.628H100.261L77.3438 163.607ZM105.631 141.679H100.057L107.15 118.173H107.857L105.631 141.679Z" fill="#CA2127"/>
<path d="M35.1998 102.216C18.3673 102.216 15.1288 103.492 12.8991 114.758L11.4781 121.887C11.2779 122.868 11.0738 123.92 11.0738 125.047C11.0738 128.494 13.0012 131.128 16.75 132.851L27.498 137.66C30.0339 138.786 30.238 139.461 30.238 140.588C30.238 140.965 30.136 141.412 30.0339 141.938L28.2046 151.022C27.8003 152.977 27.1918 154.029 25.1663 154.029C23.4469 154.029 22.7364 153.499 22.7364 152.227C22.7364 151.705 22.7364 151.324 22.8345 151.022L25.2683 139.085H8.03543L5.49956 151.399C4.89111 154.327 4.79297 156.278 4.79297 157.252C4.79297 163.485 10.4692 164.015 22.9366 164.015C32.0673 164.015 37.6376 163.788 40.88 161.154C43.7221 158.904 44.1225 155.674 45.0371 151.395L47.3689 139.98C47.573 139.081 47.7732 138.182 47.7732 137.204C47.7732 133.903 45.6456 131.273 41.3904 129.467L31.557 125.188C29.3273 124.211 28.7149 123.461 28.7149 122.409C28.7149 121.734 28.817 121.204 28.923 120.906L30.0339 115.119C30.4461 113.247 31.1527 112.124 33.1782 112.124C34.8976 112.124 35.6081 112.646 35.6081 113.922C35.6081 113.922 35.6081 114.299 35.404 115.119L33.6846 123.834H50.6153L52.4445 114.75C52.8489 112.65 53.3513 110.699 53.3513 108.968C53.3435 102.593 47.4631 102.216 35.1998 102.216ZM49.8341 107.237C49.9244 107.37 50.0264 107.575 50.101 107.896L49.8341 107.237Z" fill="#CA2127"/>
<path d="M163.438 102.632H128.458L126.432 112.693H135.359L125.113 163.607H142.252L152.49 112.693H161.408L163.438 102.632Z" fill="#CA2127"/>
<path d="M131.111 160.475H128.937L137.616 117.322L138.672 112.069H140.846L131.111 160.475Z" fill="white"/>
<path d="M159.112 108.262H132.694L132.431 109.565H130.256L131.025 105.761H159.615L159.112 108.262Z" fill="white"/>
<path d="M110.177 150.967L110.157 151.183L109.215 160.475H107.295H107.292L108.135 152.141L108.257 150.963H110.181L110.177 150.967Z" fill="white"/>
<path d="M113.384 119.877L110.781 147.312H98.145L98.8987 144.808H109.109L111.7 117.549H113.604L113.384 119.877Z" fill="white"/>
<path d="M118.459 105.761V105.765L118.393 108.262H104.728L85.1085 160.475H85.1046H82.498L103.06 105.761H118.459Z" fill="white"/>
<path d="M60.476 160.475H58.3013L68.0404 112.069H70.2112H70.2151L60.476 160.475Z" fill="white"/>
<path d="M62.0583 108.262L61.7953 109.565H59.6245L60.39 105.761H88.9833L88.4769 108.262H62.0583Z" fill="white"/>
<path d="M20.7698 144.239H12.0945C11.3565 147.838 10.0729 154.06 10.0729 154.064C9.51152 156.761 9.42908 158.492 9.42908 159.285C9.42908 159.293 9.42908 159.301 9.42908 159.309C9.42908 159.316 9.42908 159.324 9.42908 159.332C9.08756 159.199 8.82063 159.061 8.60472 158.908C8.59295 158.9 8.57332 158.892 8.56154 158.881C8.51444 158.849 8.48304 158.81 8.44378 158.779C8.3849 158.728 8.31816 158.68 8.27106 158.626C7.85103 158.178 7.76074 157.609 7.76074 156.781C7.76074 156.38 7.7843 155.732 7.87851 154.841C7.96879 153.978 8.12974 152.886 8.40453 151.56C8.40453 151.556 9.68816 145.334 10.4262 141.738H21.2801L20.7698 144.239Z" fill="white"/>
<path d="M33.8104 148.604C33.2962 151.21 32.7859 153.676 32.7819 153.684C32.4993 155.042 31.6396 159.183 26.6739 159.183C26.0379 159.183 24.1694 159.183 22.7366 157.974C22.6385 157.892 22.5442 157.805 22.454 157.715C22.1831 157.444 21.8926 157.059 21.6532 156.581C21.5118 156.302 21.3823 155.996 21.2881 155.638C21.5511 155.835 21.8259 155.98 22.1046 156.109C23.2979 156.663 24.5148 156.679 25.0055 156.679C26.823 156.679 28.087 156.121 28.9742 155.356C30.5169 154.021 30.933 152.047 31.1097 151.183C31.1136 151.159 33.2608 141.197 33.202 140.113C33.1863 139.799 33.1666 139.501 33.1313 139.222C33.096 138.935 33.0489 138.665 32.9743 138.409C33.0724 138.492 33.1627 138.578 33.253 138.665C33.5788 138.971 33.8614 139.304 34.0891 139.677C34.3404 140.09 34.5288 140.553 34.6622 141.063C34.78 141.53 34.8546 142.041 34.8703 142.614C34.886 143.053 34.3482 145.903 33.8104 148.604Z" fill="white"/>
<path d="M29.9043 127.473C29.9867 127.508 30.0692 127.547 30.1438 127.579C30.1477 127.579 32.2753 128.509 34.5521 129.498C37.1704 130.637 39.981 131.861 39.981 131.861C41.3039 132.423 42.2343 133.008 42.8938 133.577C43.8398 134.389 44.2245 135.167 44.3815 135.771C44.3972 135.838 44.4129 135.905 44.4247 135.971C43.777 135.442 42.8859 134.892 41.6494 134.366C41.6494 134.366 31.8121 130.083 31.8082 130.083C31.6511 130.013 31.4666 129.934 31.2704 129.84C29.971 129.235 27.9612 128.101 27.3135 125.914V125.91C28.1967 126.68 29.2056 127.163 29.9043 127.473Z" fill="white"/>
<path d="M39.9302 118.04C39.8242 118.562 39.6868 119.257 39.5023 120.234H37.3394H37.3354L38.1245 116.25L38.3129 115.3C38.3404 115.19 38.36 115.088 38.3836 114.982C38.6426 113.761 38.6269 112.992 38.4424 112.215C38.4307 112.164 38.4189 112.113 38.4071 112.062C38.4346 112.081 38.466 112.109 38.4935 112.132C39.0941 112.603 40.2521 113.714 40.2521 115.956C40.2521 116.541 40.2011 116.705 39.9302 118.04Z" fill="white"/>
<path d="M50.0618 108.415C49.5554 108.218 48.9431 108.061 48.2443 107.932C45.2178 107.37 40.6407 107.367 36.7152 107.367C24.0986 107.367 20.5696 108.026 18.8267 112.234C18.2771 113.565 17.9042 115.253 17.4802 117.388C17.4802 117.388 16.4714 122.468 16.1495 124.07C16.0906 124.368 16.0553 124.544 16.0553 124.548C15.8747 125.424 15.7452 126.146 15.7177 126.817C15.7098 127.049 15.7098 127.273 15.7255 127.496C15.7452 127.763 15.7844 128.026 15.8512 128.289C15.7177 128.179 15.596 128.066 15.4782 127.956C14.2338 126.755 14.0415 125.506 14.0415 124.564C14.0415 123.889 14.1553 123.198 14.2927 122.488C14.3202 122.338 14.3516 122.193 14.3791 122.044C14.3791 122.04 14.4223 121.84 14.4851 121.518C14.8148 119.865 15.804 114.888 15.804 114.888C16.1102 113.345 16.3889 112.038 16.7265 110.927C17.8257 107.315 19.5725 105.804 24.9504 105.215C27.4392 104.941 30.6974 104.862 35.039 104.862C38.9174 104.862 43.4395 104.862 46.4661 105.404C47.8832 105.655 48.9745 106.028 49.5162 106.57C49.6379 106.691 49.9205 106.994 50.0187 107.869C50.0461 108.03 50.0618 108.207 50.0618 108.415Z" fill="white"/>
<path d="M179.898 156.482L179.536 158.347L179.415 158.987H179.411H171.301L171.807 156.482H179.898Z" fill="white"/>
<path d="M185.063 131.143L184.549 133.648H176.412L176.91 131.147V131.143H185.063Z" fill="white"/>
<path d="M170.791 107.92L160.286 160.137H158.115L162.492 138.382L169.122 105.423H190.198L189.68 107.92H170.791Z" fill="white"/>
</svg>
