<?xml version="1.0" encoding="UTF-8"?>
<svg width="200px" height="200px" viewBox="0 0 200 200" version="1.1" xmlns="http://www.w3.org/2000/svg" xmlns:xlink="http://www.w3.org/1999/xlink">
    <!-- Generator: Sketch 54.1 (76490) - https://sketchapp.com -->
    <title>kent-st</title>
    <desc>Created with Sketch.</desc>
    <g id="kent-st" stroke="none" stroke-width="1" fill="none" fill-rule="evenodd">
        <g id="kent-st_BGL" transform="translate(0.000000, 0.000000)">
            <g id="Group" transform="translate(9.000000, 47.000000)">
                <path d="M73.0593959,101.436685 C52.7753537,101.572769 33.5219701,96.4216215 20.2599366,84.1327423 C20.1901493,84.954107 19.5980234,90.5362884 19.5980234,90.5362884 L14.0845185,83.6406525 L13.0837253,82.3949363 C8.43341967,76.5697476 3.414003,69.3782503 1.44280002,60.2038134 C0.929482101,57.812014 0.665905357,55.4922056 0.665905357,53.1623731 C0.665905357,48.8022146 1.59706357,44.4031749 3.5298378,39.4400546 C1.91287416,39.7605204 0,40.1414344 0,40.1414344 L2.58143083,35.2083862 C10.4819068,20.1109501 24.3642858,9.23391292 42.9877548,3.04755456 C50.4537817,0.567422047 54.660831,0.248110454 57.0445717,0 C42.6857493,5.20555052 32.9667188,15.474067 26.8354892,25.1363411 C28.0776429,24.883006 29.3210157,24.6275445 29.3210157,24.6275445 L27.5001451,29.2112697 C25.9818894,33.0316483 25.2544553,38.0515716 25.2544553,42.0985544 C25.2544553,44.1686729 25.4321236,45.9875825 25.8164111,47.2539543 C27.7177353,53.5177712 43.3174924,60.4082433 52.6107897,59.2247977 C51.7699893,59.126076 49.7431089,58.7321004 49.7431089,58.7321004 C49.7431089,58.7321004 57.7936429,58.3855112 64.5813002,56.7172661 C71.369567,55.0496285 79.6160541,52.6392999 86.8373682,49.4665358 C90.0478908,48.0543596 99.6029668,43.2695459 106.677087,38.4856434 L105.471808,40.5463453 C105.471808,40.5463453 106.029497,40.4303093 107.565733,39.3984396 C109.92997,37.8116019 112.346928,34.7940587 112.534348,34.2193465 C112.554767,33.8274972 112.253675,33.7126762 110.526972,33.3414826 C108.245322,32.8515191 105.850305,32.441748 105.850305,32.441748 C105.850305,32.441748 108.144755,30.127711 111.669778,28.9558083 C115.193277,27.7848169 117.518201,27.6882215 119.734025,27.923331 C121.666129,25.0464284 125.220103,21.8681966 131.751467,20.1647154 C141.540894,17.6101012 149.8078,19.8497172 155.711687,22.2892068 C156.956279,19.6483249 157.621849,17.1575001 157.621849,15.0822178 C157.621849,14.4032857 157.552062,13.7675179 157.409135,13.1855154 C156.884968,11.0449552 152.891547,7.64652848 150.258827,6.63652939 C147.627021,5.62771495 146.912082,5.37951337 146.074634,5.08951453 C147.047085,4.27079256 149.516765,3.07070101 150.630315,2.66727851 C152.122667,2.12749854 153.938662,1.79217884 154.916599,1.62392666 C159.419864,0.850525553 163.986821,1.24386325 167.964699,2.5263039 C173.064966,4.17207084 176.829825,7.38799909 178.850611,11.8228823 C180.398122,15.2201244 181,18.5420342 181,21.6534389 C181,29.6772362 177.002922,36.2946288 174.900769,39.2186141 C176.048146,40.3571034 176.695736,41.8364103 176.752419,43.5259186 C176.754248,43.6042884 176.757295,43.6838733 176.757295,43.763762 C176.757295,48.3380706 172.462174,53.4576269 168.118902,56.6306948 C166.919413,61.7508586 163.838713,66.8300149 158.450155,72.5093993 C155.903983,75.19463 152.821455,77.8027059 149.559125,80.5635726 C146.579906,83.0841658 136.76549,89.8619432 134.138865,93.4863971 C134.138865,93.4863971 135.949983,89.4579435 136.494568,88.2511085 C129.911092,92.7142414 119.091921,98.0373163 112.396297,100.672123 L103.299868,104.25162 C103.299868,104.25162 105.543119,101.37654 107.322239,99.0974356 C99.8025769,101.483464 91.3247858,103.249215 88.1267579,103.675389 L88.2258011,103.660201 C81.5088454,104.644685 71.0849322,105.174441 67.8332685,104.94814 C68.6384134,104.411702 70.726853,103.003474 73.0593959,101.436685" id="path14" fill="#FFFFFF" transform="translate(90.500000, 52.500000) scale(-1, 1) rotate(-180.000000) translate(-90.500000, -52.500000) "></path>
                <path d="M119.355648,76.6775794 C119.355648,76.6775794 118.759431,74.9467051 119.110923,72.1066378 C119.460016,69.2677552 119.845397,68.2974704 119.845397,68.2974704 L120.583471,66.4632294 L122.090508,65.8747203 L127,63 L124.824468,64.7317628 C124.824468,64.7317628 122.370022,66.9480756 121.599259,69.3370612 C120.828195,71.726343 120.336946,74.8424498 120.441614,76.4358967 C120.547782,78.0284551 119.881686,75.7431324 119.881686,75.7431324 L119.355648,76.6775794" id="path16" fill="#E9A411" transform="translate(123.000000, 70.000000) scale(-1, 1) rotate(-180.000000) translate(-123.000000, -70.000000) "></path>
                <path d="M41.8221334,71.4829083 C23.0637202,78.7707733 10.3585439,90.6506747 3.25181179,104.455693 L3.34178581,104.436605 C3.32504292,104.467392 3.3112779,104.500641 3.29821176,104.534199 L1,105 C8.13237819,91.2248448 20.8099637,79.3782236 39.4690135,72.1226846 C43.4262295,70.582739 46.4226287,69.6471343 49,69 C46.9610751,69.6003387 44.6316565,70.3915234 41.8221334,71.4829083" id="path18" fill="#FFFFFF" transform="translate(25.000000, 87.000000) scale(-1, 1) rotate(-180.000000) translate(-25.000000, -87.000000) "></path>
                <path d="M8.02885916,57.5267613 C3.82976682,66.3243325 2.31888815,73.3245243 4.06304294,81.4491056 C6.03104518,90.6177192 11.2942672,97.7098346 15.223162,102.635354 L14.9207727,106 C11.212735,101.213887 3.99234304,93.1203533 1.670231,81.9443361 C-0.0143308266,73.8328433 1.5250475,66.8478707 5.74247849,58.0703887 L2.67812423,58.6791539 C9.8577501,45.0263753 22.6205632,33.2838716 41.4040973,26.0928319 C45.3888624,24.5673575 48.4051273,23.6395688 51,23 C48.9467429,23.5933331 46.6026916,24.3783054 43.7737799,25.4603857 C24.8901614,32.6818637 12.0997946,44.4571798 4.94494571,58.1400923 L8.02885916,57.5267613" id="path20" fill="#E9A411" transform="translate(26.000000, 64.500000) scale(-1, 1) rotate(-180.000000) translate(-26.000000, -64.500000) "></path>
                <path d="M24.8903782,31.5830862 L24.8903782,31.5830862 L25.4735566,31.4638614 C25.4583539,31.503603 25.4422389,31.5433446 25.426428,31.5839963 L24.8903782,31.5830862 Z M25.4255159,31.5909738 C22.9924637,37.8182701 22.4360421,46.9157592 23.7079063,51.2660992 C24.4960182,53.9651909 25.7365646,56.7125185 27.4839717,58.8279244 C28.647288,60.2364759 30.3354042,61.5840498 31.8191951,62.3491515 L30.865677,60.8592965 L27.8150881,56.4619341 C32.6763276,61.0206899 45.8543973,66.3263451 59.9543634,65.396513 C61.1635921,65.3164231 62.3767736,65.197805 63.5872186,65.026097 L57.9837796,63.7856131 L56.6352935,63.4877028 C58.0363812,63.5884219 60.2790947,63.3751521 63.014378,62.9049271 C69.2998135,61.8231062 81.1686202,58.3504185 88.3881142,55.1750344 C92.4381336,53.3930332 98.2091071,50.7564359 105.075897,46.1075789 C104.334913,47.4809394 103.686971,48.8673448 102.956326,50.1114692 C106.525633,47.4054 110.88731,43.8929707 111.911673,42.8175206 C114.348982,40.2522155 116.475546,37.756079 116.36791,36.2595499 C116.262403,34.7627175 113.097185,34.9153131 112.937252,34.7478523 C116.975413,33.5013009 120.192928,33.5110088 121.462664,34.3022003 C119.672689,36.3566287 118.965456,38.48872 118.683597,41.3152274 C117.422679,43.0957118 109.851697,53.0241341 90.8950519,58.8743402 C90.8950519,58.8743402 92.4071199,57.784935 94.6258129,56.1652373 C91.2118777,57.7603619 87.1335812,59.461363 83.2523126,60.8071167 C80.1676695,61.8768028 72.441315,64.0319503 67.8059888,65.007288 L72.8745941,66.2565698 C63.8307671,70.6372468 44.6895607,69.0988525 35.9659041,64.8246587 L39.772375,69.8290665 C28.5995513,67.5525706 23.0751668,59.9643521 21.1343805,54.8980566 C19.0233231,49.3848957 18.7116662,41.2660813 21.0735694,33.7142674 L17.6933843,34.4007959 C18.0390954,33.4463908 18.4267662,32.5101879 18.8560926,31.5909738 L18.8591331,31.5830862 C21.3350571,26.2801613 25.1932175,21.5123829 30.3165528,16.5671628 C24.0849351,20.3110338 18.1965962,25.9588914 13.7844467,31.584603 L13.780494,31.5909738 C12.2109594,33.5950426 10.8280846,35.5936506 9.68431898,37.5030676 L12.636029,36.9090672 C8.01961507,45.361893 5.76069549,51.9517176 8.06604435,60.9730607 C8.07474034,61.0097685 8.16559212,61.3598587 8.1742577,61.3956564 C9.37266208,66.0181202 13.145018,72.6364616 16.2153705,76.6433856 L17.1834832,71.1235505 C36.9236789,95.3480272 61.6756216,100.730132 91.2264724,95.5804094 C90.6077194,96.2705784 89.1984221,98.7190856 87.4473665,100.320581 C99.703844,100.293884 118.227514,91.4761033 121.636584,89.5976301 L118.953598,93.9391723 C128.123,89.8548887 137.580647,84.6930314 143.599425,79.3391402 C143.274086,80.2031408 142.736516,82.1720185 142.515468,82.7341649 C143.562635,81.9350857 151.277435,75.3519353 155.486172,71.4287417 C162.076575,65.2827489 165.011014,58.4735871 166.409366,54.1927191 C166.503927,54.2530899 166.212338,56.4176419 166.193182,56.8596534 C169.717185,53.2601567 173.562575,48.2123668 171.185774,44.0759034 C171.08726,43.9038921 170.979928,43.7330942 170.859218,43.5641166 L168.77887,44.751814 L169.326474,43.9727573 C169.941274,43.0966219 173.331493,38.0646073 174.843561,31.5903671 L174.845386,31.5830862 C175.884951,27.1359709 176.037587,22.0096079 173.795786,17.0831058 C171.722128,12.5249567 167.101396,9.75220658 162.253535,8.82513518 C159.766665,8.34947981 156.697529,8.10311223 154.868331,8.3985349 C155.448165,8.30609776 160.387242,10.5364813 162.377286,14.383104 C163.851651,17.232425 163.519318,21.8315292 162.288805,25.1234077 C161.573667,27.0398023 160.644169,29.0447811 159.548657,30.7721755 C159.181662,31.3500973 159.014128,31.5909738 159.014128,31.5909738 C153.12366,40.2337099 143.57875,44.4903082 138.949505,45.6179381 C132.839205,47.1056695 128.202967,45.2402413 126.957555,41.2493959 C126.957555,41.2493959 126.80796,40.2306762 126.834109,39.7719792 C126.859041,39.8032264 126.888231,39.8335635 126.921373,39.8657209 C127.39053,39.9864625 128.011108,40.041676 128.695233,40.0525974 C130.005408,40.0747435 131.557003,39.9379232 132.765624,39.7986759 C134.684518,39.5778218 138.371191,38.9094955 140.09397,38.5785178 C138.570043,39.3791138 134.125056,40.6435641 132.39498,40.8277103 C132.135013,40.8547103 131.880822,40.8811036 131.630889,40.9065867 C130.589194,41.0088227 129.652703,41.0676767 128.874017,40.9690811 C128.976788,41.0145868 129.037903,41.0394632 129.037903,41.0394632 L129.523176,41.6568232 C131.518996,43.7691954 135.221784,43.9257348 138.452374,43.1321163 C142.156986,42.2226101 148.795126,39.362125 153.822684,33.8950765 C150.904359,32.6928172 143.764528,30.5913664 135.798577,33.1936827 C129.0452,35.4007067 128.657226,39.515024 128.672124,39.7009904 C128.649016,39.4619341 127.021711,34.3492228 134.611849,31.5909738 C134.611849,31.5909738 134.786073,31.5193783 135.205669,31.3780074 C142.415129,28.9565002 148.086069,30.3265235 151.41274,31.584603 L151.422774,31.5909738 C152.464468,31.9859628 153.276296,32.3739743 153.836974,32.642761 L154.604106,33.0101433 C154.989041,32.5541767 155.360901,32.0812213 155.71999,31.5924907 C155.71999,31.5924907 155.94043,31.3027714 156.415365,30.5883327 C151.245813,28.262084 143.196856,25.8997341 133.439715,28.4474437 C130.460275,29.226197 128.13577,30.3586809 126.327552,31.5839963 L126.318735,31.5909738 C121.8777,34.6001106 120.579687,38.1568321 120.555971,38.3427985 L120.595194,37.3777754 C120.614045,37.1972697 120.835094,34.4623802 123.228923,31.5918839 L123.235916,31.5830862 C125.006735,29.460096 127.961851,27.2612631 132.910658,25.9698128 C143.347668,23.2446312 151.975243,26.4424648 157.422093,28.9549833 C159.611597,25.1410033 161.537484,20.0252583 160.49579,15.76866 C159.839638,13.0817032 156.627596,10.0552135 153.012072,8.24505951 C153.487007,8.02478184 154.85252,7.69865803 155.748571,7.54672984 C163.007897,6.32044364 173.127776,7.83065475 176.910835,16.139713 C179.415036,21.6458661 179.122839,27.0473865 177.803846,31.584603 L177.80263,31.5909738 C176.542015,35.9282688 174.342174,39.4728554 172.748923,41.5603512 C172.735849,42.2147224 172.482874,43.6047683 172.606321,43.6769706 C177.454182,46.4810286 172.59051,54.0543819 166.236662,58.3121937 C165.3698,63.1339722 162.55607,68.1068294 156.996719,73.9722041 C152.262575,78.9681175 145.649976,83.6473116 138.380009,90.6657994 C138.625381,89.9550012 139.833698,86.0372682 139.742177,86.1316166 C136.023578,89.9185966 120.583944,98.0974785 111.891605,101.521323 C112.61769,100.590278 114.270535,98.3562539 115.480676,96.5697022 C108.278513,100.275075 93.316854,103.689819 88.2442959,104.365123 C84.8422189,104.950022 81.3914929,105.028292 77.6677251,105.2 C79.1740161,104.187348 81.2504112,102.547021 82.4386601,101.583818 C56.5705296,104.491325 32.481732,95.4144654 18.5705844,79.6543427 L18.3194346,82.6322323 L17.954568,86.9452576 C17.2819972,86.0879312 16.4899326,85.1183575 15.6297596,84.0416939 C11.715805,79.1325446 6.47036104,72.0643039 4.50932464,62.9261631 C2.77192106,54.8282813 4.27760394,47.8498385 8.46192462,39.0845406 L5.40485933,39.6931028 C6.86171089,36.9060335 8.55338452,34.1978407 10.483164,31.5934008 L10.4897012,31.5830862 C18.0035209,21.4401806 29.1313444,12.8426772 44.1024295,7.11169584 C46.9222403,6.03318165 49.2579947,5.25354855 51.3033761,4.66079198 C53.6616306,3.97820726 55.6334306,3.5461463 57.5170544,3.2 C38.8936546,9.95816514 27.8689059,20.1126292 22.4767855,31.5824794 L22.4731369,31.5909738 C22.3873932,31.7729964 22.3031699,31.9559291 22.2204668,32.1382551 L24.8940268,31.5909738 L25.4255159,31.5909738 L25.4255159,31.5909738 Z" id="path22" fill="#15356F" transform="translate(91.300000, 54.200000) scale(-1, 1) rotate(-180.000000) translate(-91.300000, -54.200000) "></path>
                <path d="M167.807258,91.7625403 C166.410981,91.1293916 165.138906,91.0868167 164.166857,91.2218398 C161.64123,90.9371966 159.465128,91.7972084 159.337283,91.8187999 C159.357933,91.8151506 160.44568,91.7862606 161.912408,92.0547862 C160.116501,92.1378071 158.351872,92.7590957 156.717518,93.760821 C155.888802,93.7425746 155.199774,93.712164 154.456996,93.8195134 C156.895773,91.7826113 158.662831,89.983216 159.853826,88.3568569 C162.949746,84.6926835 165.326271,81.0336798 165.326271,81.0336798 C165.326271,81.0336798 162.03995,84.7002861 160.328159,86.4157482 C157.288419,89.4607618 152.993304,92.4741484 148.870068,94.9513961 C141.051769,98.9546478 138.466319,100.081969 132.811065,100.196921 C127.064406,100.314002 121.950597,97.0752725 120.470811,93.370653 C119.921167,91.1920374 120.212995,88.4036893 121.302564,85.867445 L121.264605,86.7855411 C121.297705,86.5227935 123.140377,79.6180663 133.415977,76.9258156 C143.162582,74.3716291 151.199827,76.7400069 156.36435,79.0725001 C155.800434,79.9246051 155.195522,80.7307902 154.557207,81.4913594 L153.791047,81.123087 C151.440638,79.9921167 144.659677,76.7542998 135.18182,79.8637839 C131.688396,81.0090472 129.982072,82.6320611 129.175219,84.1431639 C128.002141,85.3659742 127.277887,86.8007464 127.224137,88.4289301 C127.114208,88.4091632 127.007013,88.3881799 126.908016,88.3635473 C126.875827,88.3322244 126.84546,88.3002932 126.820559,88.2695785 C126.796265,88.7293868 126.944153,89.7514872 126.944153,89.7514872 C128.188898,93.7520019 132.819872,95.6219498 138.92061,94.1306139 C143.687932,92.9652796 153.669275,88.4675515 159.492459,79.2564842 C160.588101,77.5242963 161.516118,75.5144596 162.230351,73.5937259 C163.459305,70.2935674 163.791521,65.6835938 162.318719,62.8271563 C160.329374,58.9710615 155.397159,56.7356389 154.819578,56.828665 C156.646156,56.5321616 159.71019,56.7787612 162.195429,57.2555994 C167.036846,58.1868025 171.651725,60.9648414 173.721847,65.5340344 C174.110848,66.3912485 174.423933,67.2543318 174.677801,68.1173847 C176.279966,78.2009322 168.723735,92.1779491 167.805436,91.7625403 L167.807258,91.7625403" id="path24" fill="#E9A411" transform="translate(147.550000, 78.450000) scale(-1, 1) rotate(-180.000000) translate(-147.550000, -78.450000) "></path>
                <path d="M169.705395,39.7029043 C168.224205,42.6192445 166.202685,43.0931728 166.202685,43.0931728 L166.117097,39.676609 C166.117097,39.676609 165.335232,42.6259713 164.903332,44.0703822 C163.415138,49.0478515 159.03005,55.7317681 153.940156,60.4566795 C154.283422,59.738449 154.528002,59.0263336 154.504854,58.4313244 C151.757511,61.8163949 143.885248,68.2410269 143.885248,68.2410269 L144.855651,65.2696499 C144.855651,65.2696499 144.339382,65.9539411 143.769811,66.6318113 C138.555038,72.8454688 124.139104,80.3720604 119.761935,82.6484446 L121.679897,79.5269394 C121.342114,79.7131473 120.855999,79.9693743 120.243177,80.2775805 L122.186115,76.9610003 L112.017597,81.7635748 L117.496139,81.6033565 C115.952206,82.3221986 114.100948,83.1437761 112.052319,83.9895086 C107.01786,85.7638347 101.547846,87.1840905 94.9667117,88.4251709 C93.7965021,88.645624 92.607713,88.8348895 91.4097863,89 C92.4791788,88.3031726 94.350844,85.7323414 95.225303,84.9187137 C73.7576534,87.9335086 56.0878547,86.4676945 42.2442331,81.2025049 C33.1015521,76.9567197 24.6965723,70.3547467 17.0448273,60.90737 L16.8169988,62.2154118 C16.8078613,62.2022642 16.7965918,62.1891165 16.7865405,62.1750515 L16.0451844,66.4297038 C12.9755926,62.3875548 9.21761172,55.7464446 8.02081203,51.1025596 C8.01200957,51.0661741 7.92112187,50.7133269 7.91228895,50.6769415 C6.86388232,46.5479566 6.76071991,42.9243932 7.39011111,39.4020364 C8.26006232,35.6087761 9.95966834,31.8766678 12.2311907,27.6905058 L11.7642643,27.7843741 C11.9997073,27.3355182 12.2406328,26.8823817 12.4903912,26.42313 L10.1336159,26.898587 C14.09981,20.7109191 20.3212312,13.8276468 27.1865418,9 C22.7344458,13.7781137 19.4866726,18.5253456 17.5565274,23.8954109 L17.8059813,23.844349 C17.6277999,24.2803629 17.4572332,24.7191287 17.2979361,25.1630925 L20.5706851,24.494395 C20.3270183,25.3985278 20.1217291,26.3063296 19.9493349,27.2156603 C18.4075335,34.0035354 18.8302953,40.9479596 20.7452114,45.8211647 C22.304374,49.7884025 28.5891486,58.7196562 39.1316949,61.4815875 L37.5658315,59.0884029 C38.2453572,59.2813375 38.9462036,59.4537863 39.6738535,59.6020799 L37.1878435,56.3145469 C45.8602476,59.9292433 58.1227766,61.1504493 73.0287853,56.7615682 L71.5399814,56.5594608 C71.9889374,56.3848718 72.4247963,56.2014157 72.8335473,56.0014485 L70.2872298,55.3700539 C74.7996334,54.2739038 80.4411277,52.6588787 82.9709977,51.7767607 C85.6592511,50.8380771 88.9484476,49.2949057 92.1812962,47.6187286 C91.3662309,48.2140436 90.8862074,48.5616928 90.8862074,48.5616928 C95.6358815,47.0867059 98.8123821,43.9896615 102.214579,42.1933207 L101.630997,43.2640927 C106.511642,40.5761553 110.917137,39.0433797 112.725144,37.1491957 C112.740373,37.1332961 112.755298,37.1180081 112.771441,37.1018028 C116.321665,34.1163608 118.157085,31.6678337 118.721478,30.8646018 C118.878643,29.2871852 119.165256,27.924718 119.694927,26.6714072 C118.209473,33.504229 119.760108,35.5072637 120.304398,36.7284697 C120.458518,37.0733671 120.675686,37.3883001 120.913261,37.6656245 C123.164132,41.1308042 128.25098,43.0662659 132.615052,42.919501 C137.139334,42.7653979 141.508888,41.5117813 145.896108,38.8883593 C145.078606,39.8120607 145.036573,41.0818826 145.314353,42.0107819 C145.353645,42.144399 145.402987,42.2700665 145.455375,42.3914532 C145.501672,42.6623567 145.572945,42.9228644 145.677721,43.1598285 C145.928089,43.7215098 146.427301,44.0798607 146.940829,44.3107096 C146.629545,45.3536575 145.533958,47.5661378 142.919414,47.8538581 C141.236895,48.0394545 140.433708,47.4184557 140.405991,47.39002 C140.432185,47.4184557 140.949063,48.3192251 141.823523,48.6974503 C140.939926,49.2102101 138.675957,48.7112095 138.617477,48.6904179 C138.719208,48.7283321 140.810478,50.708129 144.023529,49.7000378 C144.66224,49.4985419 145.226938,49.1777995 145.741988,48.896806 C145.296383,49.5389022 145.010379,49.9293579 144.995454,49.9302752 C145.378011,49.9192679 147.797927,49.2175483 149.109158,46.439106 C149.404604,45.8138265 150.146569,44.1951323 150.557148,43.3224929 C151.294849,41.7536376 152.720604,39.5546107 154.199661,38.0368173 C156.600388,35.5717791 159.247218,34.7046433 162.244928,34.7245178 C165.312083,34.7440864 166.435996,36.7871757 166.453053,36.8675906 C166.43691,36.7920678 166.527371,35.3754811 165.614839,34.3007342 C166.296192,34.6682579 167.138365,35.5491529 167.363757,36.1625077 C167.670777,37.0024308 167.461528,38.6413051 167.155727,38.983145 C167.315633,38.8048868 169.262835,37.0791766 168.864135,35.3409302 C168.792863,35.0269145 168.68504,34.650218 168.432236,34.2628199 C168.713062,34.0686623 169.056327,33.8289463 169.435838,33.5669099 L168.905254,34.3285584 L170.636506,33.3339206 C171.281309,34.0781408 171.125363,36.9033645 169.705395,39.7029043" id="path26" fill="#E9A411" transform="translate(89.000000, 49.000000) scale(-1, 1) rotate(-180.000000) translate(-89.000000, -49.000000) "></path>
                <path d="M147.173141,22.0706448 C146.954652,22.995156 145.895122,25.5152687 143.093782,25.8235412 C141.411393,26.0092402 140.607223,25.3871793 140.581016,25.3586809 C140.607223,25.3871793 141.122513,26.2893208 141.99738,26.6689924 C141.115505,27.1828821 138.850176,26.6830884 138.790755,26.661638 C138.892533,26.7002487 140.984473,28.684102 144.199021,27.6740957 C144.839554,27.4727686 145.402991,27.1513194 145.919805,26.8687873 C145.472773,27.5122986 145.185722,27.904534 145.171399,27.904534 C145.555963,27.8944217 147.975483,27.1908494 149.287021,24.4062843 C149.5823,23.7799333 150.32522,22.157672 150.735685,21.2831096 C151.47373,19.7098778 152.900454,17.5066178 154.379287,15.9857862 C156.4179,13.8891652 158.634777,12.948413 161.092387,12.7231841 C159.764394,13.0749702 158.889527,13.8490224 159.057431,14.6564758 C160.932101,13.8658762 162.7312,13.5327825 163.663355,15.7623958 C164.591853,17.992622 164.120443,25.5168008 155.394022,35.1155374 C155.49062,34.5878581 155.720383,33.667637 155.730439,32.6931771 C153.461149,35.9389254 148.837246,40.81766 145.982274,43.0472733 C146.102945,42.4705647 146.578012,40.5645456 146.807775,39.7665916 C145.286281,41.3631124 141.013726,45.0096762 141.013726,45.0096762 L141.898649,42.2919137 C141.898649,42.2919137 141.428457,42.9185711 140.908901,43.5378741 C136.145129,49.2216107 122.978859,56.1074876 118.982385,58.1900126 L120.733947,55.3346612 C120.426783,55.5050385 119.98097,55.7400733 119.423932,56.0210732 L121.197129,52.9879901 L111.911842,57.3804142 L116.914214,57.2342452 C115.504859,57.8921588 113.814547,58.6441477 111.942314,59.417587 C107.345227,61.0413804 102.34895,62.3397409 96.3388507,63.4750787 C95.2686551,63.6770186 94.1844422,63.8492345 93.0898686,64 C93.9336532,63.4508704 95.3210679,61.6239113 96.2008101,60.6546607 C86.9176557,61.961295 78.3435974,62.4273811 70.4829012,62.1120605 C85.294993,62.1595578 112.107171,54.4472285 123.006284,46.9555317 C132.058761,40.73431 130.564997,39.2781359 120.86376,43.6365458 C99.2843263,53.3339541 81.8156385,53.8726649 81.8156385,53.8726649 L69.8643086,46.5896496 C69.8643086,46.5896496 89.9216387,43.9481891 103.801576,36.4819263 C115.740412,30.0587646 111.651302,29.7161715 99.8069304,33.9823447 C82.0268132,40.3858946 62.8370364,41.5239902 54,40.3638314 C61.8628293,40.0812993 75.6458635,38.2665975 81.0279234,36.4476057 C79.6676292,36.0305491 76.1830944,34.4852028 74.5162465,34.0908223 C77.500727,34.2875529 110.774607,24.0198711 119.879192,12 C119.91454,12.3769137 119.973962,12.7844709 120.062637,13.2171556 C121.147764,18.1770952 127.497936,21.0575742 132.785531,20.8780039 C137.311922,20.7244805 141.683208,19.4684078 146.072777,16.8392047 C145.254285,17.7643287 145.213756,19.0366424 145.490447,19.9675887 C145.73636,20.7992504 146.272068,21.4096668 146.583802,21.4697279 C146.752315,21.71273 146.949167,21.9140571 147.173141,22.0706448" id="path28" fill="#6F4705" transform="translate(109.000000, 38.000000) scale(-1, 1) rotate(-180.000000) translate(-109.000000, -38.000000) "></path>
                <path d="M142.497095,51.9897123 C139.765042,52.128367 137.392585,50.8500377 135.991336,49.0878001 C134.868626,47.6763498 134.729504,45.4886173 135.422465,44 C135.179,45.5937613 135.900847,47.0396446 136.773017,48.1384299 C137.903685,49.5609479 140.233992,50.4823412 142.536297,50.5515149 C145.17403,50.6302191 148.306946,49.7444887 150,47.4473081 C148.767643,50.0795967 146.43321,51.78834 142.497095,51.9887899 L142.497095,51.9897123" id="path30" fill="#FFFFFF" transform="translate(142.500000, 48.000000) scale(-1, 1) rotate(-180.000000) translate(-142.500000, -48.000000) "></path>
                <path d="M142.497242,51.9896233 C139.764904,52.1289168 137.390938,50.8503276 135.989899,49.0879238 C134.869524,47.6762781 134.729477,45.4882719 135.421741,44 C135.179221,45.5934103 135.900519,47.039805 136.773251,48.1387086 C137.903589,49.5619373 140.232865,50.4835314 142.5351,50.5515446 C145.173789,50.6311409 148.305489,49.7448899 150,47.4469934 C148.766335,50.080501 146.431365,51.7888507 142.497242,51.9896233" id="path32" fill="#E9A411" transform="translate(142.500000, 48.000000) scale(-1, 1) rotate(-180.000000) translate(-142.500000, -48.000000) "></path>
                <path d="M78.7595122,26.7079215 C52.3967544,28.562812 31.3855351,21.4962734 18,7.97704478 L18.251737,5 C31.1675455,19.6295547 52.2243693,27.6562934 79,26.4249566 C78.9185199,26.5189749 78.8370398,26.6132966 78.7595122,26.7079215" id="path34" fill="#E9A411" transform="translate(48.500000, 16.000000) scale(-1, 1) rotate(-180.000000) translate(-48.500000, -16.000000) "></path>
                <path d="M7,100 C7.18128557,98.5433717 10.5288185,94.688567 16.3028327,90.8102464 C23.7217249,85.8250003 27.5570721,85.1139547 29,85 C23.6616154,87.4523396 20.0999012,89.4488309 16.4574428,91.9250989 C11.3244474,95.4138164 8.02425451,98.6435647 7,100" id="path36" fill="#E9A411" transform="translate(18.000000, 92.500000) scale(-1, 1) rotate(-180.000000) translate(-18.000000, -92.500000) "></path>
                <path d="M160.982817,48 C160.596295,48.4006166 160.234797,48.7957827 159.8534,49.2154763 C158.483688,50.7152905 156.930665,52.4158672 153.67417,54.8758895 C153.663618,54.8831569 152.651484,55.6326098 152.566763,55.6665244 C152.623747,55.6786368 152.675604,55.6795452 152.726256,55.6795452 L152.775099,55.6801509 C153.648241,55.6801509 154.143605,56.1143793 154.666405,56.5737409 L154.696555,56.6000853 C154.237371,56.9910121 153.792057,57.4279658 153.377495,57.88006 C153.106749,57.7686262 152.822736,57.716543 152.52184,57.716543 C152.22637,57.716543 151.911303,57.7701403 151.585684,57.8761235 C150.446017,58.246762 149.922011,59.2472437 149.993767,60.0436321 L151.418352,59.8558903 C151.393629,59.8689111 151.065598,60.4736212 150.542798,61.0583458 C150.754149,61.2376089 150.998966,61.3245152 151.25102,61.3245152 C151.285692,61.3245152 151.321872,61.3230011 151.356545,61.3193674 C150.888316,62.105763 150.439082,62.8830743 149.966331,63.5710569 C149.653978,63.7799953 148.832693,64.27418 148.010505,64.27418 C147.679157,64.27418 147.380974,64.1933299 147.124398,64.0346579 C146.932946,65.0006194 145.86413,67.5581463 143.054156,67.8676173 C142.849137,67.890328 142.645926,67.9024404 142.45176,67.9024404 C141.18275,67.9024404 140.580957,67.4155231 140.576133,67.4112838 L140.580957,67.457008 C140.975318,68.0638377 141.453496,68.5013971 141.964537,68.723659 C141.70555,68.8550782 141.299128,68.931689 140.756429,68.931689 C139.831731,68.931689 138.843717,68.7121523 138.8,68.6961034 C138.801809,68.7191169 138.833768,68.7436444 138.873867,68.7742282 C139.929417,69.5878766 141.103757,70 142.359803,70 C142.948631,70 143.552233,69.9046151 144.151614,69.7165705 C144.737729,69.5327653 145.269272,69.2414628 145.737501,68.9852862 L145.855387,68.9201822 C145.395902,69.5445749 145.130884,69.9082488 145.106161,69.9249033 L145.115206,69.9249033 C145.529768,69.9249033 147.89503,69.2326814 149.192985,66.4816594 C149.326549,66.1961103 149.555689,65.70132 149.803521,65.166256 C150.091755,64.5403493 150.405616,63.8611482 150.624504,63.3954276 C151.315842,61.9228662 152.699121,59.7338582 154.228326,58.1634895 C156.40485,55.9269404 158.900964,54.8858822 162.087511,54.8858822 L162.185196,54.8867906 C165.240893,54.9064732 166.336541,56.9785969 166.340762,56.9997935 C166.359757,56.9867727 166.359757,56.9613368 166.359757,56.9222744 C166.339556,55.9072578 166.061574,55.0748352 165.53003,54.4483228 C166.202977,54.8359187 167.025166,55.7122486 167.242848,56.3030295 C167.54676,57.1369661 167.331791,58.7566928 167.039638,59.086452 C167.068582,59.0855436 167.095717,59.0582908 167.133404,59.0201368 C168.766928,57.4004102 168.91225,56.2034052 168.747933,55.4842333 C168.576682,54.7305411 168.21639,53.8690488 166.852407,53.189242 C165.779069,52.6544809 164.557695,52.3834666 163.222656,52.3834666 C162.054346,52.3834666 160.834178,52.5899825 159.592302,52.9960497 C159.52356,53.0184576 159.481651,53.0326896 159.465672,53.0342037 C159.474717,53.0523722 159.516324,53.0538863 159.588382,53.0538863 L159.617025,53.0538863 C159.878123,53.0538863 160.824228,53.0705408 162.023894,53.2912887 C160.305649,53.3497309 158.56841,53.9220404 156.860114,54.9700632 L156.611076,54.9618873 C156.346058,54.9564368 156.092798,54.949775 155.847679,54.949775 C155.364979,54.949775 154.987502,54.9743025 154.621783,55.0269913 C157.81647,52.3768048 159.899228,50.0760602 160.999701,48.0130208 L160.982817,48" id="path38" fill="#15356F" transform="translate(153.800000, 59.000000) scale(-1, 1) rotate(-180.000000) translate(-153.800000, -59.000000) "></path>
                <path d="M162,42 C159.913045,42.4915916 158.732645,43.8433192 157.323065,45.9700652 L156.304385,47.4812764 C152.802306,52.5184479 150.092499,54.2623139 148,55 C149.374772,54.9220502 153.651257,53.4162149 157.356642,48.1009925 L158.391648,46.5721604 C159.75533,44.5206763 160.378182,42.3816854 162,42" id="path40" fill="#E9A411" transform="translate(155.000000, 48.500000) scale(-1, 1) rotate(-180.000000) translate(-155.000000, -48.500000) "></path>
                <path d="M161,43 C158.911721,43.4924763 157.733118,44.8435755 156.323168,46.9702727 L155.303518,48.4820465 C151.800669,53.5199982 149.092591,55.2629282 147,56 C148.374832,55.9229479 152.649658,54.4159526 156.355821,49.1026442 L157.389949,47.5723541 C158.755847,45.5206184 159.376879,43.3825725 161,43" id="path42" fill="#15356F" transform="translate(154.000000, 49.500000) scale(-1, 1) rotate(-180.000000) translate(-154.000000, -49.500000) "></path>
                <path d="M122.204974,39 L124,39.4181494 C117.040432,44.8048432 108.038835,49.7143513 98.7932774,53.2727504 C95.8986033,54.386184 90.9734594,56.1349477 88,57 C90.6069102,56.1312771 93.560293,55.0643385 95.5469594,54.2987 C105.918629,50.3053276 114.766002,45.2667346 122.204974,39" id="path44" fill="#E9A411" transform="translate(106.000000, 48.000000) scale(-1, 1) rotate(-180.000000) translate(-106.000000, -48.000000) "></path>
                <path d="M146.921814,61.3125867 C145.674245,62.5855939 145.242794,64.2882864 146.458256,66.5 C146.146976,66.4545787 145.59933,65.8447223 145.347981,65.0123016 C145.069113,64.0914608 145.111616,62.8341997 145.932626,61.9200207 C141.52822,64.518118 137.140938,65.7593303 132.59985,65.9113402 C127.293403,66.0884832 120.920102,63.2423856 119.833066,58.3417321 C119.358195,56.0818719 119.756011,54.5 119.756011,54.5 C119.756011,54.5 119.932749,55.8181256 120.113769,56.3640894 C120.892582,60.5031795 126.500525,64.4372682 132.879941,64.3085745 C138.640161,64.1925989 141.234369,63.0461657 149.326135,58.9455323 L150.6,58.6624063 C149.368638,59.6574352 148.144308,60.5346716 146.921814,61.3125867" id="path46" fill="#15356F" transform="translate(135.100000, 60.500000) scale(-1, 1) rotate(-180.000000) translate(-135.100000, -60.500000) "></path>
                <path d="M116.051163,17.0008968 L117,17.7120689 C109.127408,21.6353235 100.157533,24.6070604 90.3591082,26.361524 C87.2919164,26.9106721 82.0993299,27.7034541 79,28 C81.7381597,27.6355953 84.8549359,27.1414517 86.9607417,26.7638938 C97.9510278,24.7935973 107.543463,21.680762 116.051163,17 L116.051163,17.0008968" id="path48" fill="#6F4705" transform="translate(98.000000, 22.500000) scale(-1, 1) rotate(-180.000000) translate(-98.000000, -22.500000) "></path>
                <path d="M99.5344718,21 C99.8121763,21.2130375 100.584353,21.7338268 101,21.9282548 C88.3316999,26.8889461 66.0416643,27.2803019 52,23.3023052 C55.1866295,24.0489087 57.9233534,24.4952598 60.1865244,24.8163437 C70.6250023,26.2984405 91.3624996,24.1594549 99.5344718,21" id="path52" fill="#15356F" transform="translate(76.500000, 23.500000) scale(-1, 1) rotate(-180.000000) translate(-76.500000, -23.500000) "></path>
                <polyline id="path54" fill="#E9A411" fill-rule="nonzero" transform="translate(86.000000, 63.500000) scale(-1, 1) rotate(-180.000000) translate(-86.000000, -63.500000) " points="55.1488728 101 50.7155183 82.2944439 55.0923171 82.2944439 46.1247251 45.354346 41.7898081 45.354346 37 26 121.001703 26 125.718142 45.3448769 115.385265 45.3448769 105.607551 69.0257113 121.098001 82.2816148 130.456286 82.2816148 135 100.992364 55.1488728 101 55.1488728 101"></polyline>
                <polyline id="path56" fill="#FFFFFF" fill-rule="nonzero" transform="translate(86.000000, 63.000000) scale(-1, 1) rotate(-180.000000) translate(-86.000000, -63.000000) " points="103.358669 68.9099751 113.941922 42.9843245 123.133144 42.9843245 119.352912 27 39.5 27 43.3521231 42.994126 47.6926246 42.994126 57.383752 83.4417918 52.9531583 83.4417918 56.707909 99 132.5 98.9923426 128.633923 83.4344407 120.104591 83.4344407 103.358669 68.9099751 103.358669 68.9099751"></polyline>
                <polyline id="path58" fill="#15356F" fill-rule="nonzero" transform="translate(86.000000, 63.000000) scale(-1, 1) rotate(-180.000000) translate(-86.000000, -63.000000) " points="126.711125 86.2542935 129 96 92.232909 96 89.8312516 86.2542935 94.0435251 86.2542935 77.4489537 72.1954648 80.839744 86.2542935 83.8357955 86.2545991 86.2368432 96 58.997129 96 56.6924037 86.2542935 61.2497306 86.2542935 50.0674994 40.1317268 45.5296807 40.1317268 43 30 71.7595344 30 74.2303853 40.1317268 69.6340417 40.1317268 70.7704015 44.7003419 83.3871041 55.5239469 89.7824808 40.1555646 82.7817365 40.1555646 80.3066181 30 117.445282 30 119.922839 40.1555646 112.236864 40.1555646 100.117319 69.7364992 119.505543 86.2542935 126.711125 86.2542935 126.711125 86.2542935"></polyline>
            </g>
        </g>
    </g>
</svg>