<svg width="200" height="200" viewBox="0 0 200 200" fill="none" xmlns="http://www.w3.org/2000/svg">
<path d="M51.6155 170.252C51.2894 170.252 50.9633 170.157 50.6947 169.971C49.2239 168.986 48.6547 166.908 48.61 165.303C48.5652 163.551 49.1151 162.118 50.1127 161.37C50.343 161.197 50.6052 161.089 50.8865 161.057L57.2366 160.219C64.514 158.754 64.5076 158.057 64.4181 149.757C64.4053 148.312 64.3861 146.675 64.4117 144.807C64.4373 143.183 64.9233 141.629 65.8314 140.318C68.1719 136.942 71.5676 132.951 71.7083 132.785C71.9001 132.561 71.9321 132.261 71.7978 132.024L66.1063 121.83C65.0128 119.874 64.4373 117.661 64.4373 115.436V32.6347C64.4373 31.1831 65.6203 30 67.0783 30C67.8265 30 68.5108 30.307 69.016 30.8633C69.016 30.8633 89.5308 55.3941 89.5436 55.4132C91.0208 57.3381 91.8265 59.7298 91.8265 62.1598V96.187C96.3605 97.8944 102.154 100.977 110.826 106.278C115.667 109.252 118.129 112.878 118.352 117.367C118.372 117.891 118.755 118.39 119.376 119.151L119.593 119.42C121.416 121.658 122.145 125.501 121.448 129.21C120.629 133.546 118.078 137.114 114.273 139.25C113.985 139.416 113.639 139.506 113.294 139.506C112.68 139.506 112.086 139.218 111.702 138.732C111.325 138.246 111.19 137.632 111.337 137.037C111.388 136.82 111.465 136.603 111.542 136.392C111.44 136.385 111.331 136.379 111.222 136.379C110.973 136.379 110.749 136.398 110.557 136.436C110.033 136.545 109.317 136.654 108.492 136.782C106.707 137.057 103.388 137.575 102.551 138.157C100.703 139.429 99.1743 139.736 97.8249 140.005C96.2006 140.331 94.9217 140.587 92.9137 142.595C91.7434 143.771 91.7626 149.015 91.769 152.846V154.214C91.769 155.557 93.5979 158.684 110.544 158.684C124.952 158.684 129.301 158.684 139.034 139.557C139.085 139.455 139.149 139.359 139.219 139.269C140.031 138.252 141.355 137.696 142.934 137.696C144.821 137.696 147.225 138.559 148.351 140.491C148.524 140.791 148.6 141.137 148.568 141.482C147.711 150.275 143.708 164.395 141.15 169.357C140.862 169.907 140.293 170.252 139.679 170.252C139.66 170.252 139.635 170.252 139.615 170.252C131.596 169.946 116.351 169.741 100.779 169.741H78.2182C70.6339 169.741 62.1991 169.901 51.6731 170.252C51.6539 170.252 51.6347 170.252 51.6155 170.252Z" fill="#EBA900"/>
<path d="M159.184 137.664C158.736 137.664 157.189 137.606 156.102 136.89C155.782 136.679 155.545 136.366 155.43 136.001C153.243 129.056 147.846 117.354 143.082 107.026C142.007 104.705 140.965 102.441 140.006 100.337C139.922 102.671 139.871 104.807 139.827 107.109C139.75 112.743 139.66 121.012 139.66 125.833C139.66 129.664 139.986 129.715 142.09 130.035L145.345 130.534C145.652 130.578 145.946 130.713 146.177 130.917C146.893 131.538 147.251 132.606 147.161 133.84C147.117 134.409 146.899 135.803 145.819 136.487C145.55 136.654 145.249 136.743 144.936 136.743C144.904 136.743 144.879 136.743 144.847 136.743C141.937 136.583 138.381 136.494 135.094 136.494C132.396 136.494 129.249 136.577 126.007 136.743C125.982 136.743 125.95 136.743 125.924 136.743C125.758 136.743 125.592 136.718 125.438 136.673C124.325 136.327 123.577 135.304 123.436 133.936C123.321 132.861 123.609 131.378 124.792 130.726C124.958 130.636 125.138 130.572 125.329 130.54L126.832 130.291C130.285 129.677 130.285 129.677 130.701 125.347C130.95 122.924 131.136 119.323 131.36 115.154C131.507 112.417 131.667 109.309 131.871 106.144C132.217 100.286 132.37 93.5138 132.37 89.4082C132.37 85.5202 131.213 84.9126 128.578 84.4522L126.73 84.1197C126.397 84.0621 126.09 83.9023 125.854 83.6593C124.92 82.7256 124.735 81.0821 125.029 79.9502C125.297 78.9398 125.95 78.2172 126.826 77.9678C126.973 77.9294 127.12 77.9039 127.273 77.9039C127.305 77.9039 127.337 77.9039 127.376 77.9039C130.126 78.0701 133.63 78.1533 137.78 78.1533C140.517 78.1533 142.877 78.1533 145.806 77.9039C145.851 77.8975 145.902 77.8975 145.946 77.8975C146.362 77.8975 146.759 78.051 147.066 78.3323C147.411 78.6457 147.603 79.0869 147.603 79.5537C147.603 83.5186 149.585 87.6433 152.322 93.3539C152.866 94.4858 153.441 95.6816 154.03 96.9414L159.529 108.695C160.022 109.795 161.639 112.692 162.893 114.93C163.705 113.325 164.728 111.208 166.103 108.209L170.567 98.5913C174.455 90.2396 176.412 86.0445 178.177 79.1445C178.362 78.4027 179.034 77.8975 179.782 77.8975C179.833 77.8975 179.878 77.8975 179.929 77.9039C182.352 78.1149 183.97 78.1597 185.659 78.1597C186.042 78.1597 187.615 78.1533 188.038 78.1533C190.384 78.1533 194.279 78.0893 197.528 77.8975C197.56 77.8975 197.591 77.8975 197.623 77.8975C197.905 77.8975 198.18 77.9678 198.423 78.1021C199.203 78.5306 199.734 79.2979 199.926 80.2572C200.149 81.3955 199.862 82.6425 199.165 83.5122C198.909 83.8319 198.551 84.0429 198.154 84.1133L195.737 84.5289C192.93 85.0086 192.022 85.4562 192.022 88.8967C192.022 105.933 192.181 114.828 192.693 125.501C192.866 129.536 193.256 129.965 194.995 130.188L197.655 130.521C198.02 130.566 198.359 130.732 198.615 130.988C199.542 131.902 199.727 133.418 199.51 134.511C199.305 135.528 198.717 136.295 197.905 136.622C197.707 136.698 197.502 136.743 197.291 136.743C197.265 136.743 197.24 136.743 197.221 136.743C193.269 136.57 189.745 136.494 185.78 136.494C181.835 136.494 177.249 136.59 173.515 136.743C173.489 136.743 173.47 136.743 173.444 136.743C173.227 136.743 173.01 136.698 172.805 136.615C171.807 136.2 171.129 135.208 170.995 133.961C170.854 132.657 171.334 131.448 172.249 130.809C172.466 130.655 172.715 130.559 172.978 130.521L175.478 130.188C177.352 129.945 177.512 129.638 177.576 129.511C177.876 128.916 177.876 127.298 177.876 125.245L177.71 103.586V101.2C172.447 112.519 167.005 124.228 162.407 136.014C162.298 136.283 162.125 136.526 161.902 136.705C161.128 137.331 160.169 137.664 159.184 137.664Z" fill="#EBA900"/>
<path d="M197.617 79.5732C198.531 80.0784 198.531 81.6644 197.866 82.4957L195.449 82.9114C192.028 83.4997 190.359 84.4909 190.359 88.9098C190.359 106.086 190.531 115.084 191.03 125.591C191.196 129.428 191.529 131.423 194.777 131.845L197.444 132.178C198.116 132.843 198.116 134.761 197.284 135.094C193.447 134.927 189.86 134.844 185.773 134.844C182.026 134.844 177.441 134.927 173.438 135.094C172.44 134.678 172.357 132.759 173.188 132.178L175.689 131.845C179.526 131.346 179.526 130.342 179.526 125.258L179.359 103.586V94.0768H179.187C173.022 107.417 166.352 121.338 160.853 135.426C160.437 135.759 159.855 136.008 159.183 136.008C158.435 136.008 157.521 135.842 157.016 135.509C153.767 125.175 143.516 104.5 138.848 93.6676H138.682C138.349 99.084 138.259 102.748 138.176 107.084C138.1 112.507 138.01 120.839 138.01 125.84C138.01 130.01 138.509 131.174 141.847 131.679L145.096 132.178C145.767 132.759 145.594 134.678 144.936 135.094C141.847 134.927 138.259 134.844 135.094 134.844C132.427 134.844 129.262 134.927 125.924 135.094C124.843 134.761 124.843 132.593 125.591 132.178L127.094 131.928C131.347 131.174 131.845 130.675 132.344 125.508C132.76 121.421 133.009 114.17 133.514 106.253C133.841 100.67 134.013 93.917 134.013 89.415C134.013 84.6636 132.178 83.4102 128.846 82.8283L127.011 82.4957C126.346 81.8306 126.346 79.829 127.26 79.5732C130.093 79.7459 133.681 79.8291 137.767 79.8291C140.517 79.8291 142.934 79.829 145.933 79.5732C145.933 84.7467 148.849 89.8306 152.52 97.6644L158.02 109.418C158.768 111.087 161.773 116.337 162.937 118.422C164.024 116.421 165.355 113.837 167.606 108.919L171.858 99.7491C175.855 91.1672 177.94 86.7483 179.775 79.5732C183.612 79.9122 185.53 79.8291 188.031 79.8291C190.781 79.8291 194.611 79.7459 197.617 79.5732Z" fill="#8A2432"/>
<path d="M118.308 120.462C121.23 124.043 121.045 133.54 113.46 137.805C113.204 137.952 112.878 137.716 112.949 137.434C113.128 136.724 113.69 135.708 113.703 135.298C113.716 135.049 111.746 134.505 110.231 134.812C108.306 135.209 103.158 135.727 101.611 136.795C97.9271 139.334 95.8552 137.313 91.7433 141.425C89.9271 143.247 90.119 149.035 90.119 154.214C90.119 158.742 98.2533 160.341 110.551 160.341C125.873 160.341 130.586 159.829 140.517 140.306C141.866 138.624 145.735 139.289 146.918 141.322C146.068 150.077 142.026 164.043 139.679 168.597C130.746 168.251 114.592 168.085 100.779 168.085H78.2181C70.4675 168.085 62.0519 168.251 51.6154 168.597C50.0998 167.58 49.7609 163.704 51.1038 162.7L57.5115 161.856C67.6666 159.816 65.908 157.514 66.0678 144.827C66.087 143.548 66.4707 142.307 67.1933 141.258C69.5083 137.914 72.9679 133.86 72.9679 133.86C73.6074 133.131 73.7225 132.075 73.2493 131.218L67.5515 121.019C66.5986 119.311 66.0934 117.386 66.0934 115.429V81.2041V32.635C66.0934 31.7397 67.1933 31.324 67.7817 31.9763L88.2261 56.4239C89.4859 58.0674 90.1701 60.0818 90.1701 62.1601V97.3512C94.7808 98.9243 100.856 102.122 109.962 107.692C113.441 109.828 116.466 112.801 116.696 117.45C116.747 118.672 117.572 119.554 118.308 120.462ZM99.1933 116.683C96.9935 116.67 97.8248 114.061 94.9215 112.545C93.5978 111.855 91.3276 112.763 91.027 114.873C90.5538 118.218 94.0518 119.298 96.5906 118.601C97.5946 118.333 98.6242 117.725 99.3276 116.983C99.4299 116.868 99.3532 116.689 99.1933 116.683ZM90.5858 120.264C90.5794 120.27 90.5666 120.27 90.5602 120.27C90.5155 120.264 90.4707 120.27 90.4323 120.283H90.4259C90.3812 120.302 90.3364 120.328 90.298 120.366C90.2916 120.366 90.2916 120.373 90.2852 120.379C90.2533 120.411 90.2277 120.443 90.2085 120.488C90.1829 120.539 90.1701 120.59 90.1701 120.648V128.808V129.613C92.4595 129.198 94.7617 128.897 97.0894 128.782C97.6138 128.756 98.3044 128.756 98.7265 128.386C99.3148 127.848 98.8096 127.004 98.4579 126.486C96.5714 123.775 94.0966 121.012 90.7585 120.296C90.7329 120.29 90.7009 120.283 90.6753 120.277C90.6562 120.27 90.6434 120.27 90.6242 120.264C90.6178 120.264 90.6178 120.264 90.6178 120.264H90.6114C90.605 120.264 90.605 120.264 90.5986 120.264H90.5922H90.5858ZM90.8096 105.62C90.8096 106.425 91.2381 107.167 91.9287 107.577C92.2996 107.794 92.6833 108.018 92.9199 108.146C93.9751 108.721 94.9343 109.425 95.804 110.256C97.5626 111.931 98.8032 114.579 101.112 115.583C102.308 116.101 103.676 116.114 104.961 116.063C105.972 116.024 107.155 115.82 108.121 116.19C109.067 116.555 109.451 117.68 109.099 118.601C108.651 119.772 107.596 119.836 106.528 119.989C105.601 120.117 104.757 120.462 103.957 120.948C103.51 121.217 102.762 121.581 102.442 121.997C102.237 122.272 102.256 122.176 102.442 122.502C102.499 122.611 102.557 122.713 102.621 122.822C102.781 123.078 102.953 123.334 103.152 123.564C104.162 124.74 105.69 124.568 107.008 125.15C108.197 125.68 109.08 126.697 110.333 127.081C111.529 127.452 112.712 127.375 113.78 128.149C114.567 128.718 115.11 129.543 115.411 130.457C115.513 130.764 115.571 131.602 116.089 131.327C116.485 131.116 116.798 130.182 116.958 129.786C117.457 128.558 117.604 127.183 117.233 125.898C116.792 124.363 115.603 123.525 114.758 122.253C114.605 122.023 114.471 121.633 114.253 121.588C114.017 121.53 113.671 121.607 113.409 121.562C113.045 121.505 112.821 121.511 112.527 121.773C112.373 121.907 112.079 122.419 111.804 122.336C111.491 122.24 111.471 121.626 111.523 121.396C111.58 121.108 111.759 120.84 111.964 120.635C112.392 120.206 113.198 119.938 113.793 120.111C113.479 119.004 113.371 117.847 113.358 116.702C113.352 116.139 113.505 115.084 112.667 115.071C112.169 115.059 111.926 115.378 111.484 114.988C111.113 114.662 110.858 114.144 110.557 113.754C109.949 112.98 109.265 112.251 108.555 111.567C105.448 108.574 101.534 106.451 97.5946 104.763C95.3883 103.81 93.1118 103.023 90.8096 102.333V102.531V102.557V105.62ZM83.6985 153.594C83.9543 153.914 84.4723 153.735 84.4723 153.326V139.82C84.4723 139.263 83.8072 138.988 83.4171 139.378L77.7257 145.063C77.4571 145.338 77.4315 145.773 77.6681 146.067L83.6985 153.594ZM72.4244 114.176L83.302 134.013C83.6538 134.371 84.2677 134.115 84.2677 133.61V62.8892C84.2677 62.5119 84.1334 62.141 83.884 61.8532L72.4691 48.149C72.3092 47.9571 71.9895 48.0722 71.9895 48.328V52.8428L80.3348 68.9387L71.9895 58.5151V65.0954L80.3348 81.1913L71.9895 70.7612V77.3416L80.3348 93.4439L71.9895 83.0138V89.5942L80.3348 105.69L71.9895 95.2664V101.847L80.3348 117.943L71.9895 107.513V113.121C71.9895 113.517 72.143 113.895 72.4244 114.176Z" fill="#8A2432"/>
<path d="M31.1774 137.837C23.3181 137.837 17.908 136.283 13.6235 132.791C8.99357 128.967 6.8449 122.572 6.8449 112.667V91.8323C6.8449 85.0345 6.78735 85.0217 3.92884 84.4526L1.8505 84.0369C1.6075 83.9857 1.38367 83.8898 1.18543 83.7427C0.219803 83.0265 -0.0551749 81.7283 0.00877388 80.7563C0.0855124 79.5733 0.64187 78.614 1.53076 78.1216C1.77376 77.9873 2.05514 77.917 2.33012 77.917C2.3557 77.917 2.37488 77.917 2.40046 77.917C6.25657 78.0833 10.4452 78.1728 14.506 78.1728C18.6243 78.1728 22.6914 78.0897 26.6051 77.917C26.6307 77.917 26.6498 77.917 26.6754 77.917C27.0399 77.917 27.3916 78.0321 27.6794 78.2559C28.4148 78.8187 28.8369 79.8227 28.8305 81.0121C28.8241 82.1952 28.402 83.1864 27.6666 83.7427C27.4556 83.9026 27.2062 84.0113 26.944 84.0497L24.9424 84.3822C22.2374 84.8618 22.0775 84.8874 22.0775 91.8323V111.087C22.0775 122.726 24.1047 129.939 34.1766 129.939C42.426 129.939 46.442 123.692 46.442 110.838V100.753C46.442 93.2583 46.0199 87.7971 45.3229 86.1408C44.9264 85.2136 43.7945 84.849 41.7162 84.4526L39.4652 84.0369C39.1326 83.9729 38.8257 83.8131 38.5891 83.5765C37.2717 82.2463 37.47 79.5349 38.5891 78.4094C38.9024 78.0961 39.3245 77.917 39.7657 77.917C39.7849 77.917 39.8105 77.917 39.8297 77.917C44.6067 78.1024 47.721 78.1728 50.9376 78.1728C54.0327 78.1728 57.0575 78.0897 60.1846 77.917C60.2165 77.917 60.2421 77.917 60.2741 77.917C60.7154 77.917 61.1438 78.0961 61.4508 78.4094C62.5699 79.5413 62.7681 82.2463 61.4508 83.5765C61.2269 83.8003 60.9456 83.9602 60.6322 84.0305L59.1294 84.363C57.0255 84.8554 56.2006 85.2008 55.7913 86.1472C55.0942 87.7971 54.6786 93.2583 54.6786 100.753V110.09C54.6786 117.776 53.9815 125.668 48.9104 131.289C45.0095 135.458 38.5571 137.837 31.1774 137.837Z" fill="#EBA900"/>
<path d="M60.2679 79.5732C60.7667 80.0784 60.9329 81.7411 60.2679 82.4126L58.7651 82.7451C56.5972 83.2503 55.0113 83.7427 54.2631 85.4949C53.3486 87.6628 53.0161 94.0001 53.0161 100.753V110.09C53.0161 117.923 52.2615 125.092 47.6764 130.176C44.0121 134.096 37.9306 136.181 31.1776 136.181C24.8403 136.181 19.1744 135.177 14.6724 131.506C10.3367 127.925 8.50134 121.76 8.50134 112.667V91.8322C8.50134 84.0816 8.00254 83.5765 4.24875 82.8283L2.17041 82.4126C1.49895 81.9138 1.41581 80.0784 2.33028 79.5732C6.33348 79.7459 10.5029 79.8291 14.5061 79.8291C18.5925 79.8291 22.6724 79.7459 26.6756 79.5732C27.3406 80.0784 27.3406 81.9138 26.6756 82.4126L24.674 82.7451C20.9202 83.4102 20.4214 84.0816 20.4214 91.8322V111.087C20.4214 120.839 21.5085 131.596 34.1768 131.596C44.8434 131.596 48.0984 122.259 48.0984 110.838V100.753C48.0984 94.0001 47.7659 87.6628 46.845 85.4949C46.0968 83.7427 44.2615 83.2503 42.0169 82.8283L39.7595 82.4126C39.0944 81.7411 39.2607 80.0784 39.7595 79.5732C44.2615 79.7459 47.5165 79.8291 50.9313 79.8291C54.0201 79.8291 57.1024 79.7459 60.2679 79.5732Z" fill="#8A2432"/>
</svg>
