<svg width="200" height="201" viewBox="0 0 200 201" fill="none" xmlns="http://www.w3.org/2000/svg">
<g clip-path="url(#clip0_5_234783)">
<mask id="mask0_5_234783" style="mask-type:luminance" maskUnits="userSpaceOnUse" x="0" y="4" width="200" height="193">
<path d="M200 4H0V196.818H200V4Z" fill="white"/>
</mask>
<g mask="url(#mask0_5_234783)">
<path d="M6.50781 196.818V136.709H23.9444C24.2719 136.709 24.595 136.645 24.898 136.518C25.1996 136.392 25.4739 136.207 25.7022 135.972C25.9305 135.738 26.1129 135.463 26.2335 135.158C26.3556 134.855 26.4145 134.529 26.4087 134.202V65.9329C26.3958 65.2767 26.1258 64.6505 25.6577 64.1896C25.1895 63.7286 24.5591 63.4701 23.9028 63.4672H6.50781V4H130.761V62.9747H113.119C112.466 62.9747 111.838 63.2346 111.376 63.697C110.914 64.1594 110.654 64.787 110.654 65.4404C110.605 80.2892 110.53 115.681 110.852 131.852C110.852 132.506 111.112 133.133 111.574 133.596C112.037 134.058 112.664 134.318 113.318 134.318C116.349 134.318 120.237 134.153 122.356 133.497C124.321 130.744 126.917 118.944 130.655 104.022L186.212 107.49L182.834 196.82H6.50781V196.818Z" fill="#FFCF01"/>
<path d="M13.2378 190.096V143.43H26.731C27.5768 143.43 28.414 143.263 29.1967 142.94C29.9779 142.616 30.6888 142.142 31.2862 141.543C31.885 140.944 32.3589 140.235 32.682 139.454C33.0051 138.672 33.1717 137.834 33.1717 136.988V63.1471C33.1717 62.3013 33.0051 61.4626 32.6806 60.68C32.356 59.8973 31.8807 59.1865 31.2819 58.5891C30.683 57.9902 29.9722 57.5163 29.1895 57.1932C28.4069 56.8701 27.5682 56.7049 26.7209 56.7049H13.2363V10.7295H124.079V56.244H110.323C109.48 56.244 108.645 56.4077 107.865 56.7294C107.086 57.051 106.378 57.5235 105.782 58.118C105.184 58.714 104.712 59.4205 104.387 60.1989C104.064 60.9772 103.896 61.8116 103.896 62.6545C103.83 79.3186 103.724 123.676 104.209 136.864C104.239 137.872 104.64 138.835 105.335 139.566C106.029 140.298 106.968 140.749 107.973 140.832C113.775 141.309 123.421 141.152 126.379 138.885C130.044 136.066 132.131 125.687 135.764 111.045L179.192 113.757L176.348 190.086L13.2363 190.095L13.2378 190.096Z" fill="#003767"/>
<path d="M32.2939 162.494C52.7549 162.494 52.3112 152.682 52.3112 135.286V63.7961C52.3112 46.4815 52.5007 37.6655 32.2939 37.6655V29.7844H104.976V37.1801C84.0869 37.1801 84.8193 46.2187 84.8351 63.5577V125.137C84.8351 146.568 84.4243 159.469 110.308 160.045C134.22 160.727 144.533 154.663 150.449 131.063L159.487 131.63L158.017 171.024H32.2939V162.494Z" fill="#FFCF01"/>
<path d="M199.68 105.574L198.035 105.056C197.609 94.7102 197.821 99.6818 197.075 82.63C119.167 58.701 68.0635 68.2666 66.2641 68.4561C63.7409 68.2508 54.3735 68.1445 48.3177 76.106L45.9927 70.7323C44.571 71.0109 37.5774 71.8912 0 83.3954V102.812L4.32254 101.284V111.539L0 112.789V132.19C30.6096 121.679 96.8737 97.9571 200 132.263C199.097 113.495 199.161 119.321 199.68 105.574Z" fill="#FFCF01"/>
<path d="M51.4729 100.232C50.9272 100.239 50.3901 100.087 49.9277 99.7966C49.1622 98.8904 48.5634 97.855 48.1613 96.7392C45.7832 91.2276 43.4094 85.7505 41.037 80.3049L39.3942 80.6424C37.1151 86.6135 34.8419 92.612 32.5743 98.6377C31.6782 100.996 30.6845 104.546 27.8741 105.285V106.535C29.1723 106.173 30.4791 105.786 31.7859 105.442L34.0133 104.989C32.6906 110.396 30.3815 112.385 25.2203 113.692C19.5421 115.195 19.6483 112.295 19.6412 107.521V93.8068C19.6412 89.9538 19.5923 87.7265 24.0542 86.6667V84.9736C21.2194 85.795 18.343 86.6753 15.524 87.5542C13.0583 88.2363 10.6845 88.8854 8.24316 89.625V91.3267C12.6562 89.7657 12.5743 92.0332 12.5743 95.8876V111.812C12.5743 115.682 12.6562 117.844 8.24316 119.117V120.819C10.864 119.916 13.4446 119.028 16.0826 118.198C18.8513 117.417 27.2824 115.116 35.804 113.317C35.9103 110.408 36.1487 103.334 36.1487 103.334C34.8749 103.515 33.2967 103.777 33.2967 102.077C33.423 101.01 33.7002 99.9675 34.1181 98.9795C34.2574 98.609 34.3981 98.2485 34.5288 97.878C37.0678 97.3021 39.6067 96.7679 42.1543 96.2351C42.4013 96.844 42.6382 97.4515 42.8766 98.0676C43.1997 98.7497 43.4209 99.4749 43.5343 100.22C43.5343 101.715 41.7019 102.004 40.6665 102.357V103.598C42.4659 103.196 44.2983 102.776 46.0977 102.406C47.8971 102.037 49.7137 101.839 51.5203 101.584L51.4714 100.237L51.4729 100.232ZM35.1362 96.0327C36.232 93.1404 37.3104 90.2496 38.3746 87.3632C39.3827 89.8016 40.3965 92.2472 41.4147 94.7014C39.3195 95.0791 37.2243 95.5315 35.1362 96.0327Z" fill="#FDCB26"/>
<path d="M134.854 106.576C139.406 107.274 139.307 105.08 139.307 101.21V85.2854C139.307 81.431 139.406 79.2051 134.854 78.7857V77.0854C137.368 77.4387 139.834 77.858 142.34 78.2688C145.232 78.6378 148.157 79.017 151.034 79.4765V81.1696C146.506 80.2491 146.547 82.5008 146.547 86.3552V100.061C146.547 104.836 146.457 107.695 152.208 108.706C157.533 109.675 159.834 108.706 161.149 103.628L163.163 104.063C163.058 107.037 162.949 110.013 162.834 112.987C154.354 111.064 145.75 109.609 142.907 109.157C140.211 108.812 137.558 108.55 134.854 108.278V106.578V106.576Z" fill="#003767"/>
<path d="M164.099 111.572C168.593 112.731 168.494 110.52 168.494 106.642V90.7251C168.494 86.8707 168.593 84.652 164.099 83.7731V82.0642C166.768 82.7047 169.382 83.4199 172.037 84.135C177.731 85.5237 183.427 87.0445 189.039 88.7778L189.408 97.1845L187.427 96.5598C186.606 91.6298 184.025 89.3695 179.572 88.1215C179.022 87.9578 176.047 87.1522 175.768 87.5959C175.647 88.4748 175.6 89.3637 175.629 90.2497V98.9595C179.393 99.9618 181.8 99.9618 181.98 95.6723L183.829 96.2151C183.787 98.3678 183.697 100.513 183.648 102.666C183.697 104.613 183.787 106.618 183.829 108.557L181.98 108.022C181.102 103.437 179.901 102.271 175.629 101.17V106.684C175.629 111.121 175.489 113.866 180.962 115.402C186.197 116.915 188.21 115.978 189.369 111.015L191.201 111.607C191.16 113.382 191.069 115.091 191.02 116.866C191.069 118.155 191.16 119.413 191.201 120.696C184.866 118.592 178.472 116.66 172.039 114.993C169.385 114.368 166.771 113.843 164.1 113.291V111.574L164.099 111.572Z" fill="#003767"/>
<path d="M54.389 109.493L52.3096 109.83V100.035L54.1994 99.7235C55.522 103.832 57.6919 107.382 62.9508 106.675C65.7037 106.305 68.3575 104.21 68.3575 101.302C68.3575 96.9146 63.8052 96.264 60.4937 95.3277C56.2286 94.087 52.7863 92.3278 52.7863 87.1106C52.7863 81.3175 57.2152 77.4387 62.7124 76.7078C65.2758 76.3703 67.931 76.6259 69.8295 78.1625C70.0349 77.5292 70.2402 76.8887 70.4542 76.2554L72.4919 76.05C72.591 78.8604 72.6815 81.678 72.7792 84.4969L70.7328 84.7109C69.9113 81.1696 67.1742 78.2932 63.0499 78.836C60.7234 79.1404 58.3583 80.8077 58.3583 83.3553C58.3583 86.8808 61.957 87.349 64.6611 88.2365C69.7304 89.7558 74.5211 91.5236 74.5211 97.8509C74.5211 104.178 69.1143 108.024 63.2724 108.797C60.2409 109.191 57.1591 108.624 55.0553 106.792L54.389 109.496V109.493Z" fill="#003767"/>
<path d="M51.4725 100.093C50.9254 100.093 50.3912 99.9389 49.9273 99.6488C49.1605 98.7469 48.5616 97.7144 48.161 96.6C45.7828 91.0884 43.409 85.6113 41.0367 80.1658L39.3938 80.5104C37.1091 86.4758 34.83 92.4714 32.5567 98.4985C31.6606 100.857 30.6669 104.406 27.8565 105.146V106.387C29.1547 106.025 30.4615 105.639 31.7683 105.294C32.5079 105.137 33.2561 104.989 33.9957 104.85C32.6731 110.257 30.3639 112.246 25.2027 113.553C19.5245 115.048 19.6308 112.155 19.6236 107.382V93.6676C19.6236 89.8132 19.5748 87.5787 24.0366 86.5275V84.8344C21.2018 85.6558 18.3254 86.5275 15.5064 87.415C13.0407 88.0885 10.6669 88.7376 8.22559 89.4858V91.1789C12.6386 89.6179 12.5567 91.8941 12.5567 95.747V111.647C12.5567 115.517 12.6386 117.67 8.22559 118.952V120.686C10.8464 119.79 13.427 118.895 16.065 118.072C18.8338 117.251 27.2649 114.99 35.7864 113.191C35.8927 110.281 36.1311 103.207 36.1311 103.207C34.8573 103.388 33.2791 103.642 33.2791 101.951C33.404 100.884 33.6812 99.8412 34.1005 98.8532C34.2398 98.4827 34.3805 98.1136 34.5112 97.7518C37.0473 97.2046 39.5891 96.656 42.1367 96.1089C42.3837 96.7164 42.6206 97.3252 42.859 97.9413C43.1821 98.6234 43.4033 99.3487 43.5167 100.094C43.5167 101.582 41.6843 101.869 40.6489 102.222V103.472C42.4483 103.069 44.2807 102.65 46.0801 102.28C47.8795 101.911 49.6961 101.712 51.5027 101.458L51.4696 100.094L51.4725 100.093ZM35.1373 95.8518C36.2331 92.9596 37.3115 90.0688 38.3757 87.1824L41.4158 94.5206C39.3235 94.9428 37.2311 95.3866 35.1373 95.8518Z" fill="#003767"/>
<path d="M195.159 116.814L195.447 108.597L192.48 107.685L187.894 106.206C187.894 105.927 187.788 102.845 187.78 102.673C187.771 102.501 187.78 101.852 187.828 101.079L193.787 102.953L193.54 97.0609L193.047 85.7376L190.261 84.9162C185.027 83.2733 179.415 81.7683 173.087 80.2332L172.184 79.9862C169.866 79.3615 167.475 78.721 165.068 78.138L159.957 76.913V86.2976C158.593 86.0104 156.999 85.6888 155.175 85.3527V75.9437L151.691 75.3936C148.824 74.9327 145.94 74.5722 143.097 74.1945H142.94L141.633 73.9806C139.611 73.6517 137.525 73.3071 135.421 73.0112L130.712 72.3621V82.0168C129.127 81.8775 127.475 81.7453 125.782 81.6218V71.9011L121.879 71.68C119.011 71.5163 116.127 71.4258 113.284 71.3511H113.07L111.78 71.2693C109.734 71.1372 107.623 70.9979 105.502 70.9246L101.204 70.7609V80.6712H97.6539L93.4879 70.4651L90.6287 70.5714L85.6412 70.7437L84.6389 73.2094L81.3517 81.2456C79.8324 81.3447 78.3202 81.4509 76.8411 81.5658L76.4964 71.5163L72.1093 71.9686L67.3516 72.4612L67.2697 72.7082C65.5895 72.4325 63.8778 72.4138 62.1918 72.6508C54.9685 73.6115 49.7268 78.6004 48.8063 85.1L47.7867 85.2809L43.5144 75.4209L40.2273 76.1031L36.3155 76.9245L35.4941 79.0369L31.8953 88.5365C30.5224 88.8567 29.2745 89.1612 28.1644 89.4397V79.3744L22.9056 80.8535C20.0708 81.675 17.203 82.5467 14.4342 83.4097H14.328L13.2437 83.7142C11.2218 84.2814 9.13518 84.8558 7.02274 85.4978L4.11328 86.4269V97.0437L8.43582 95.5071V112.147C8.46741 112.944 8.42577 113.741 8.31232 114.531C7.92746 114.737 7.51961 114.898 7.09598 115.007L4.11328 115.829V126.446L10.3171 124.309C12.7081 123.487 14.9598 122.723 17.2776 121.991C18.494 121.646 27.3516 119.165 36.6372 117.2L39.8008 116.518C39.8008 116.518 40.0062 110.527 40.1052 107.816L42.7189 107.224L46.8274 106.328L48.2003 106.114V114.684L57.7645 113.106C57.7645 113.106 57.8549 112.761 57.888 112.613C59.8424 113.054 61.8601 113.143 63.8462 112.876C65.3971 112.669 66.9222 112.293 68.3899 111.75V112.079L74.8248 111.298L78.2599 110.896L82.4101 110.757L86.0591 110.666L88.1055 110.56L91.5248 110.388C93.5798 110.273 95.6994 110.166 97.7286 110.109C100.104 110.109 102.429 110.224 105.206 110.33H106.381C108.756 110.33 111.006 110.33 113.308 110.403C114.474 110.469 122.249 110.938 130.736 111.907L137.573 112.662C139.218 112.835 140.762 113.007 142.356 113.212C143.53 113.402 151.46 114.683 159.982 116.499L166.819 117.961C168.241 118.257 169.654 118.562 171.075 118.898C177.041 120.443 183.204 122.275 189.925 124.51L195.676 126.417C195.676 126.417 195.175 117.032 195.167 116.82L195.159 116.814Z" fill="#003767"/>
<path d="M131.864 98.9336C130.541 104.119 128.207 105.351 122.825 104.916C117.016 104.488 117.114 101.629 117.114 96.847V83.1413C117.114 79.2869 117.065 77.0352 121.633 77.5047V75.8116C118.732 75.6393 115.774 75.5574 112.873 75.4742C110.343 75.3176 107.861 75.1453 105.338 75.0462V76.7393C109.915 76.7393 109.816 78.9408 109.816 82.7952V98.7197C109.816 102.327 109.898 104.471 106.217 104.554C105.052 104.471 103.936 104.062 102.996 103.371C102.042 102.418 101.089 100.084 100.53 98.7857C97.243 90.6993 93.9559 82.6746 90.6702 74.7087L88.3854 74.782C85.2849 82.3744 82.1644 90.02 79.0266 97.7159C77.7858 100.732 76.4058 105.333 72.5098 105.736V107.429C74.3178 107.215 76.1258 106.977 77.9338 106.797C79.9299 106.691 81.9274 106.658 83.9322 106.599V104.906C82.1658 104.849 79.9801 104.857 79.9801 102.548C79.9801 101.274 80.6953 99.722 81.1218 98.5129L81.6891 97.1156C85.2002 96.9016 88.7114 96.7508 92.224 96.6632L93.235 99.3257C93.6715 100.311 93.976 101.351 94.1383 102.415C94.1383 104.437 91.6079 104.395 90.1776 104.633V106.335C92.6433 106.203 95.1823 106.064 97.6638 105.998C100.145 105.932 102.783 106.112 105.347 106.212H106.25C108.657 106.212 111.041 106.212 113.448 106.285C116.307 106.457 124.952 107.04 133.571 108.101C133.686 105.119 133.794 102.127 133.908 99.1447L131.862 98.9308L131.864 98.9336ZM82.601 94.7102C84.0916 91.0123 85.5836 87.326 87.0786 83.6496L91.2776 94.3325C88.3768 94.3899 85.4601 94.5465 82.601 94.7102Z" fill="#003767"/>
<path d="M134.853 106.576C139.405 107.274 139.306 105.081 139.306 101.211V85.2868C139.306 81.4324 139.405 79.2065 134.853 78.7872V77.0869C137.368 77.4401 139.833 77.8595 142.339 78.2702C145.231 78.6392 148.157 79.0184 151.033 79.4779V81.171C146.505 80.2505 146.547 82.5022 146.547 86.3566V100.062C146.547 104.837 146.456 107.696 152.208 108.707C157.533 109.677 159.833 108.707 161.149 103.63L163.162 104.065C163.059 107.039 162.948 110.014 162.833 112.988C154.353 111.065 145.75 109.611 142.906 109.158C140.211 108.814 137.557 108.549 134.853 108.28V106.578V106.576ZM164.098 111.572C168.593 112.731 168.494 110.52 168.494 106.642V90.7251C168.494 86.8707 168.593 84.652 164.098 83.7731V82.0642C166.769 82.7047 169.382 83.4199 172.037 84.135C177.731 85.5237 183.426 87.0445 189.038 88.7778L189.407 97.1845L187.427 96.5598C186.606 91.6298 184.025 89.3695 179.572 88.1215C179.022 87.9578 176.046 87.1522 175.768 87.5959C175.647 88.4748 175.6 89.3637 175.628 90.2498V98.9595C179.392 99.9618 181.799 99.9618 181.98 95.6723L183.828 96.2152C183.787 98.3678 183.696 100.513 183.647 102.666C183.696 104.613 183.787 106.618 183.828 108.558L181.98 108.024C181.101 103.439 179.901 102.272 175.628 101.171V106.685C175.628 111.123 175.489 113.867 180.962 115.404C186.196 116.916 188.21 115.98 189.369 111.017L191.201 111.608C191.159 113.383 191.069 115.092 191.02 116.867C191.069 118.157 191.159 119.415 191.201 120.697C184.865 118.593 178.472 116.662 172.038 114.995C169.384 114.37 166.771 113.844 164.1 113.293V111.575L164.098 111.572ZM54.3906 109.493L52.3112 109.83V100.035L54.201 99.722C55.5236 103.831 57.6935 107.381 62.9524 106.674C65.7053 106.303 68.3591 104.208 68.3591 101.3C68.3591 96.9131 63.8068 96.2626 60.4953 95.3262C56.2302 94.0855 52.7879 92.3263 52.7879 87.1091C52.7879 81.316 57.2168 77.4373 62.7154 76.7063C65.2788 76.3688 67.9326 76.6244 69.8311 78.161C70.0365 77.5277 70.2418 76.8872 70.4558 76.2539L72.4936 76.0486C72.5926 78.859 72.6831 81.6779 72.7808 84.4955L70.7344 84.7095C69.913 81.1681 67.1758 78.2917 63.0515 78.8345C60.7265 79.139 58.3599 80.8063 58.3599 83.3538C58.3599 86.8793 61.9586 87.3475 64.6627 88.235C69.732 89.7543 74.5227 91.5221 74.5227 97.8494C74.5227 104.177 69.1159 108.022 63.2726 108.795C60.2411 109.19 57.1593 108.623 55.0555 106.79L54.3892 109.493H54.3906ZM51.4725 100.093C50.9254 100.093 50.3912 99.9389 49.9273 99.6488C49.1605 98.7469 48.5616 97.7144 48.161 96.6C45.7828 91.0884 43.409 85.6113 41.0367 80.1658L39.3938 80.5104C37.1091 86.4758 34.83 92.4714 32.5567 98.4985C31.6606 100.857 30.6669 104.406 27.8565 105.146V106.387C29.1547 106.025 30.4615 105.639 31.7683 105.294C32.5079 105.137 33.2561 104.989 33.9957 104.85C32.6731 110.257 30.3639 112.246 25.2027 113.553C19.5245 115.048 19.6308 112.155 19.6236 107.382V93.6676C19.6236 89.8132 19.5748 87.5787 24.0366 86.5275V84.8344C21.2018 85.6558 18.3254 86.5275 15.5064 87.415C13.0407 88.0885 10.6669 88.7376 8.22559 89.4858V91.1789C12.6386 89.6179 12.5567 91.8941 12.5567 95.747V111.647C12.5567 115.517 12.6386 117.67 8.22559 118.952V120.686C10.8464 119.79 13.427 118.895 16.065 118.072C18.8338 117.251 27.2649 114.99 35.7864 113.191C35.8927 110.281 36.1311 103.207 36.1311 103.207C34.8573 103.388 33.2791 103.642 33.2791 101.951C33.404 100.884 33.6812 99.8412 34.1005 98.8532C34.2398 98.4827 34.3805 98.1136 34.5112 97.7518C37.0473 97.2046 39.5891 96.656 42.1367 96.1089C42.3837 96.7164 42.6206 97.3252 42.859 97.9413C43.1821 98.6234 43.4033 99.3487 43.5167 100.094C43.5167 101.582 41.6843 101.869 40.6489 102.222V103.472C42.4483 103.069 44.2807 102.65 46.0801 102.28C47.8795 101.911 49.6961 101.712 51.5027 101.458L51.4696 100.094L51.4725 100.093ZM35.1373 95.8518C36.2331 92.9596 37.3115 90.0688 38.3757 87.1824L41.4158 94.5206C39.3235 94.9428 37.2311 95.3866 35.1373 95.8518ZM131.862 98.9336C130.539 104.119 128.205 105.351 122.823 104.916C117.013 104.488 117.112 101.629 117.112 96.847V83.1413C117.112 79.2869 117.063 77.0352 121.631 77.5047V75.8116C118.73 75.6393 115.772 75.5574 112.871 75.4742C110.341 75.3176 107.859 75.1453 105.336 75.0462V76.7393C109.913 76.7393 109.814 78.9408 109.814 82.7952V98.7197C109.814 102.327 109.896 104.471 106.215 104.554C105.052 104.471 103.935 104.062 102.994 103.371C102.04 102.418 101.087 100.084 100.53 98.7857C97.2426 90.6993 93.9555 82.6746 90.6698 74.7087L88.385 74.782C85.2845 82.3744 82.164 90.02 79.0248 97.7159C77.784 100.732 76.4039 105.333 72.5079 105.736V107.429C74.3159 107.215 76.1239 106.977 77.9319 106.797C79.928 106.691 81.9256 106.658 83.9303 106.599V104.906C82.164 104.849 79.9783 104.857 79.9783 102.548C79.9783 101.274 80.6935 99.722 81.12 98.5129L81.6872 97.1156C85.1984 96.9016 88.7095 96.7508 92.2221 96.6632L93.2331 99.3257C93.6697 100.311 93.9741 101.351 94.1364 102.415C94.1364 104.437 91.6061 104.395 90.1758 104.633V106.335C92.6415 106.203 95.1804 106.064 97.6619 105.998C100.143 105.932 102.781 106.112 105.345 106.212H106.248C108.655 106.212 111.039 106.212 113.446 106.285C116.305 106.457 124.95 107.04 133.569 108.101C133.684 105.119 133.792 102.127 133.907 99.1447L131.86 98.9308L131.862 98.9336ZM82.6005 94.7102C84.0912 91.0123 85.5832 87.326 87.0782 83.6496L91.2772 94.3325C88.3764 94.3899 85.4597 94.5465 82.5991 94.7102H82.6005Z" fill="white"/>
</g>
</g>
<defs>
<clipPath id="clip0_5_234783">
<rect width="200" height="192.818" fill="white" transform="translate(0 4)"/>
</clipPath>
</defs>
</svg>
