<?xml version="1.0" encoding="UTF-8"?>
<svg width="200px" height="200px" viewBox="0 0 200 200" version="1.1" xmlns="http://www.w3.org/2000/svg" xmlns:xlink="http://www.w3.org/1999/xlink">
    <!-- Generator: Sketch 54.1 (76490) - https://sketchapp.com -->
    <title>mercyhurst</title>
    <desc>Created with Sketch.</desc>
    <g id="mercyhurst" stroke="none" stroke-width="1" fill="none" fill-rule="evenodd">
        <g id="mercyhurst_BGL">
            <g id="mercyhurst" transform="translate(0.000000, 24.000000)">
                <g id="g10" transform="translate(100.150827, 76.434391) scale(-1, 1) rotate(-180.000000) translate(-100.150827, -76.434391) translate(0.301659, 0.416293)" fill-rule="nonzero">
                    <g id="g12" transform="translate(0.542986, 0.000000)">
                        <polyline id="path14" fill="#1C294D" points="19.8338457 151.549921 77.9420795 151.549921 99.0690775 113.33514 119.820811 151.549921 176.09532 151.549921 176.09532 97.6301635 169.436497 97.6301635 169.436497 48.6835584 177.927597 48.6835584 177.927597 0 109.874507 0 109.874507 38.9670578 98.8814455 24.0809044 87.8877806 38.9670578 87.8877806 0 19.8338457 0 19.8338457 48.4224422 27.1630159 48.4224422 27.1630159 97.8920036 19.8338457 97.8920036 19.8338457 151.549921"></polyline>
                        <polyline id="path16" fill="#FFFFFF" points="28.17285 143.539061 72.6690781 143.539061 98.8669659 96.425337 124.756558 143.539061 167.68265 143.539061 167.68265 106.371641 161.662741 106.371641 161.662741 40.1501046 169.253088 40.1501046 169.253088 8.47897415 117.428051 8.47897415 117.428051 40.1501046 125.540872 40.1501046 125.540872 81.7429844 98.8814455 41.2132116 72.1460012 80.9580674 72.1460012 40.411462 79.4745078 40.411462 79.4745078 8.47897415 28.17285 8.47897415 28.17285 40.411462 35.5019599 40.411462 35.5019599 106.633481 28.17285 106.633481 28.17285 143.539061"></polyline>
                        <path d="M98.8874787,48.4553834 C89.1668153,61.1155339 69.1734523,92.387328 69.1734523,92.387328 L69.1734523,37.4177366 L76.8259408,37.4177366 L76.8259408,11.2886272 L31.1627745,11.2886272 L31.1627745,37.4177366 L38.8218995,37.4177366 L38.8218995,109.205427 L31.1627745,109.205427 L31.1627745,140.494717 L71.0558052,140.494717 C81.2295606,122.367418 98.8639493,90.4138741 98.8639493,90.4138741 C98.8639493,90.4138741 117.088987,122.988836 126.721565,140.494717 L164.536949,140.494717 L164.536949,109.205427 L158.939966,109.205427 L158.939966,37.4177366 L166.597884,37.4177366 L166.597884,11.2886272 L120.920661,11.2886272 L120.920661,37.4177366 L128.582802,37.4177366 L128.582802,92.4162873 C128.582802,92.4162873 108.84223,61.3520347 98.8874787,48.4553834" id="path18" fill="#1A554B"></path>
                        <polyline id="path20" fill="#1C294D" points="0.0600961523 50.4168917 198.831971 50.4168917 198.831971 95.5656085 0.0600961523 95.5656085 0.0600961523 50.4168917"></polyline>
                        <polyline id="path22" fill="#FFFFFF" points="18.5091398 65.4576153 18.5091398 70.0458504 19.7749618 70.0458504 19.7749618 79.4594249 15.772066 70.9158353 11.7852184 79.4594249 11.7852184 70.0458504 13.0509801 70.0458504 13.0509801 65.4576153 5.82037391 65.4576153 5.82037391 70.0458504 7.1969229 70.0458504 7.1969229 85.7248847 5.86774043 85.7248847 5.86774043 90.3125166 11.7852184 90.3125166 15.772066 81.7689271 19.7749618 90.3125166 25.6921864 90.3125166 25.6921864 85.7248847 24.3787626 85.7248847 24.3787626 70.0458504 25.7395469 70.0458504 25.7395469 65.4576153 18.5091398 65.4576153"></polyline>
                        <polyline id="path24" fill="#FFFFFF" points="28.6538756 65.4576153 28.6538756 70.0458504 29.9672391 70.0458504 29.9672391 85.7248847 28.6538756 85.7248847 28.6538756 90.3125166 43.1617485 90.3125166 43.1617485 83.7146284 38.5739357 83.7146284 38.5739357 85.7248847 34.5550519 85.7248847 34.5550519 80.18763 40.8363791 80.18763 40.8363791 75.5831052 34.5550519 75.5831052 34.5550519 70.0458504 38.5739357 70.0458504 38.5739357 72.0555035 43.1617485 72.0555035 43.1617485 65.4576153 28.6538756 65.4576153"></polyline>
                        <path d="M51.9933019,80.18763 L56.7552927,80.18763 L56.7552927,85.7248847 L51.9933019,85.7248847 L51.9933019,80.18763 Z M62.1822006,65.4576153 L57.2619594,65.4576153 L53.3540861,75.5831052 L51.9933019,75.5831052 L51.9933019,70.0458504 L53.3064843,70.0458504 L53.3064843,65.4576153 L46.0763186,65.4576153 L46.0763186,70.0458504 L47.3894407,70.0458504 L47.3894407,85.7248847 L46.0763186,85.7248847 L46.0763186,90.3125166 L58.4165295,90.3125166 L61.3435882,87.7025619 L61.3435882,78.5725471 L58.2112806,75.6464536 L60.3945686,70.0458504 L62.1822006,70.0458504 L62.1822006,65.4576153 L62.1822006,65.4576153 Z" id="path26" fill="#FFFFFF"></path>
                        <polyline id="path28" fill="#FFFFFF" points="79.2096511 68.052487 76.2033163 65.4576153 68.024131 65.4576153 65.096831 68.052487 65.096831 87.7025619 68.024131 90.3125166 76.2033163 90.3125166 79.2096511 87.6862723 79.2096511 83.7146284 74.6214159 83.7146284 74.6214159 85.7248847 69.6856694 85.7248847 69.6856694 70.0458504 74.6214159 70.0458504 74.6214159 72.0555035 79.2096511 72.0555035 79.2096511 68.052487"></polyline>
                        <polyline id="path30" fill="#FFFFFF" points="92.4078408 74.6183993 92.4078408 70.0458504 93.6886854 70.0458504 93.6886854 65.4576153 86.4585197 65.4576153 86.4585197 70.0458504 87.7562572 70.0458504 87.7562572 74.6497719 83.8642513 85.7248847 82.1236782 85.7248847 82.1236782 90.3125166 89.3544472 90.3125166 89.3544472 85.7248847 88.5158349 85.7248847 90.0977353 81.0576149 91.6482632 85.7248847 90.8567096 85.7248847 90.8567096 90.3125166 97.8974335 90.3125166 97.8974335 85.7248847 96.410254 85.7248847 92.4078408 74.6183993"></polyline>
                        <polyline id="path32" fill="#FFFFFF" points="110.605125 65.4576153 110.605125 70.0458504 111.919153 70.0458504 111.919153 75.5831052 106.71312 75.5831052 106.71312 70.0458504 108.04223 70.0458504 108.04223 65.4576153 100.812064 65.4576153 100.812064 70.0458504 102.124884 70.0458504 102.124884 85.7248847 100.812064 85.7248847 100.812064 90.3125166 108.04223 90.3125166 108.04223 85.7248847 106.71312 85.7248847 106.71312 80.18763 111.919153 80.18763 111.919153 85.7248847 110.605125 85.7248847 110.605125 90.3125166 117.835291 90.3125166 117.835291 85.7248847 116.506784 85.7248847 116.506784 70.0458504 117.835291 70.0458504 117.835291 65.4576153 110.605125 65.4576153"></polyline>
                        <polyline id="path34" fill="#FFFFFF" points="136.38069 68.0675699 133.375562 65.4576153 125.005728 65.4576153 122.063345 68.052487 122.063345 85.7248847 120.750525 85.7248847 120.750525 90.3125166 127.965004 90.3125166 127.965004 85.7248847 126.650977 85.7248847 126.650977 70.0458504 131.793059 70.0458504 131.793059 85.7248847 130.463948 85.7248847 130.463948 90.3125166 137.694718 90.3125166 137.694718 85.7248847 136.38069 85.7248847 136.38069 68.0675699"></polyline>
                        <path d="M146.525487,80.18763 L151.288081,80.18763 L151.288081,85.7248847 L146.525487,85.7248847 L146.525487,80.18763 Z M156.714928,65.4576153 L151.793661,65.4576153 L147.886572,75.5831052 L146.525487,75.5831052 L146.525487,70.0458504 L147.839514,70.0458504 L147.839514,65.4576153 L140.609348,65.4576153 L140.609348,70.0458504 L141.922168,70.0458504 L141.922168,85.7248847 L140.609348,85.7248847 L140.609348,90.3125166 L152.949016,90.3125166 L155.876919,87.7025619 L155.876919,78.5725471 L152.743888,75.6464536 L154.927296,70.0458504 L156.714928,70.0458504 L156.714928,65.4576153 L156.714928,65.4576153 Z" id="path36" fill="#FFFFFF"></path>
                        <polyline id="path38" fill="#FFFFFF" points="173.441323 68.052487 170.514626 65.4576153 162.588231 65.4576153 159.630162 68.052487 159.630162 72.0555035 164.217794 72.0555035 164.217794 70.0458504 168.853691 70.0458504 168.853691 75.5831052 162.588231 75.5831052 159.630162 78.1936632 159.630162 87.7025619 162.588231 90.3125166 170.514626 90.3125166 173.441323 87.7182482 173.441323 83.7146284 168.853691 83.7146284 168.853691 85.7248847 164.217794 85.7248847 164.217794 80.18763 170.514626 80.18763 173.441323 77.5764686 173.441323 68.052487"></polyline>
                        <polyline id="path40" fill="#FFFFFF" points="188.111006 85.7248847 186.829558 85.7248847 186.829558 70.0458504 188.141775 70.0458504 188.141775 65.4576153 180.911609 65.4576153 180.911609 70.0458504 182.22443 70.0458504 182.22443 85.7248847 180.943585 85.7248847 180.943585 83.7146284 176.35535 83.7146284 176.35535 90.3125166 192.698638 90.3125166 192.698638 83.7146284 188.111006 83.7146284 188.111006 85.7248847"></polyline>
                        <path d="M70.5791838,62.4211146 L70.5791838,57.8419292 C70.5791838,56.6195461 70.9351415,55.9240408 71.6585201,55.9240408 C72.3909484,55.9240408 72.7475095,56.5598779 72.7475095,57.8419292 L72.7475095,62.4211146 L74.5906467,62.4211146 L74.5906467,57.9619292 C74.5906467,55.4685356 73.5318232,54.2104964 71.607238,54.2104964 C69.7236785,54.2104964 68.7360465,55.4209338 68.7360465,58.022261 L68.7360465,62.4211146 L70.5791838,62.4211146" id="path42" fill="#FFFFFF"></path>
                        <path d="M76.45671,54.3420198 L76.45671,62.4211146 L78.6256391,62.4211146 L79.7152318,59.9403907 C80.0917024,59.1371931 80.4886858,58.0578568 80.7939648,57.1106471 L80.824734,57.1106471 C80.7233766,58.1780378 80.6823509,59.3043122 80.6823509,60.5152323 L80.6823509,62.4211146 L82.3619889,62.4211146 L82.3619889,54.3420198 L80.4277506,54.3420198 L79.2669663,57.0267859 C78.8802394,57.890255 78.4319739,58.9689276 78.1061821,59.9516727 L78.0754128,59.9516727 C78.1164385,58.8614767 78.1369513,57.6385506 78.1369513,56.3317633 L78.1369513,54.3420198 L76.45671,54.3420198" id="path44" fill="#FFFFFF"></path>
                        <polyline id="path46" fill="#FFFFFF" points="86.0917022 62.4211146 86.0917022 54.3420198 84.2491683 54.3420198 84.2491683 62.4211146 86.0917022 62.4211146"></polyline>
                        <path d="M89.6361969,54.3420198 L87.4576147,62.4211146 L89.4733009,62.4211146 L90.1966795,59.2446441 C90.4205106,58.3458206 90.6039193,57.4582791 90.7668152,56.4156849 L90.787328,56.4156849 C90.9598771,57.410436 91.1535422,58.3458206 91.3568605,59.2091086 L92.1001485,62.4211146 L94.0555029,62.4211146 L91.8051259,54.3420198 L89.6361969,54.3420198" id="path48" fill="#FFFFFF"></path>
                        <polyline id="path50" fill="#FFFFFF" points="99.7194545 57.6030152 97.2555028 57.6030152 97.2555028 56.1163787 100.01508 56.1163787 100.01508 54.3420198 95.4123656 54.3420198 95.4123656 62.4211146 99.8726974 62.4211146 99.8726974 60.658822 97.2555028 60.658822 97.2555028 59.352638 99.7194545 59.352638 99.7194545 57.6030152"></polyline>
                        <path d="M103.469077,58.9206018 L103.947509,58.9206018 C104.639515,58.9206018 105.036498,59.3285656 105.036498,59.9276606 C105.036498,60.539365 104.701053,60.8742066 104.089892,60.8868763 C103.743587,60.8868763 103.560178,60.8627436 103.469077,60.8386108 L103.469077,58.9206018 Z M101.64585,62.3131206 C102.16591,62.4084449 102.949017,62.4808431 103.866061,62.4808431 C104.914628,62.4808431 105.668172,62.3131206 106.187629,61.8576153 C106.625035,61.4618386 106.869379,60.8868763 106.869379,60.0952021 C106.869379,59.088445 106.228052,58.3698326 105.688082,58.141718 L105.688082,58.0941162 C106.146604,57.8660016 106.390948,57.3508281 106.5641,56.6551419 C106.777675,55.8285959 107.001506,54.6540559 107.134236,54.3420198 L105.250676,54.3420198 C105.148715,54.5821404 104.975563,55.2054888 104.772245,56.1998176 C104.588836,57.170979 104.334236,57.3748402 103.7641,57.3748402 L103.469077,57.3748402 L103.469077,54.3420198 L101.64585,54.3420198 L101.64585,62.3131206 L101.64585,62.3131206 Z" id="path52" fill="#FFFFFF"></path>
                        <path d="M108.664251,56.4995461 C109.081144,56.2479021 109.763497,55.996439 110.445849,55.996439 C111.07692,55.996439 111.382803,56.2479021 111.382803,56.6551419 C111.382803,57.051522 111.07692,57.2784903 110.303466,57.5902851 C109.142682,58.0701041 108.378881,58.8253982 108.378881,60.0235882 C108.378881,61.4503755 109.397282,62.552638 111.128202,62.552638 C111.952938,62.552638 112.533331,62.3728491 112.991249,62.1327285 L112.604522,60.4072383 C112.308896,60.5628944 111.799696,60.7909487 111.10769,60.7909487 C110.54781,60.7909487 110.241928,60.550828 110.241928,60.1918537 C110.241928,59.7841312 110.609349,59.6163484 111.473904,59.232638 C112.70588,58.7052172 113.266362,57.9263334 113.266362,56.7993349 C113.266362,55.40935 112.339665,54.2104964 110.334236,54.2104964 C109.508896,54.2104964 108.704673,54.4742068 108.317946,54.7143878 L108.664251,56.4995461" id="path54" fill="#FFFFFF"></path>
                        <polyline id="path56" fill="#FFFFFF" points="116.710103 62.4211146 116.710103 54.3420198 114.866965 54.3420198 114.866965 62.4211146 116.710103 62.4211146"></polyline>
                        <polyline id="path58" fill="#FFFFFF" points="119.918549 60.6111599 118.16772 60.6111599 118.16772 62.4211146 123.543285 62.4211146 123.543285 60.6111599 121.761686 60.6111599 121.761686 54.3420198 119.918549 54.3420198 119.918549 60.6111599"></polyline>
                        <path d="M126.611158,54.3420198 L126.611158,57.6030152 L124.442229,62.4211146 L126.550223,62.4211146 L127.130012,60.5984902 C127.32428,60.0355943 127.446151,59.6283545 127.59879,59.113181 L127.619303,59.113181 C127.75143,59.6042821 127.893813,60.0476003 128.057312,60.5984902 L128.627448,62.4211146 L130.694416,62.4211146 L128.444039,57.6861524 L128.444039,54.3420198 L126.611158,54.3420198" id="path60" fill="#FFFFFF"></path>
                        <polyline id="path62" fill="#FFFFFF" points="63.4238295 57.9734525 5.82037391 57.9734525 5.82037391 59.180089 63.4238295 59.180089 63.4238295 57.9734525"></polyline>
                        <polyline id="path64" fill="#FFFFFF" points="193.091398 57.9734525 135.487779 57.9734525 135.487779 59.180089 193.091398 59.180089 193.091398 57.9734525"></polyline>
                    </g>
                </g>
            </g>
        </g>
    </g>
</svg>