<?xml version="1.0" encoding="UTF-8"?>
<svg width="200px" height="200px" viewBox="0 0 200 200" version="1.1" xmlns="http://www.w3.org/2000/svg" xmlns:xlink="http://www.w3.org/1999/xlink">
    <!-- Generator: Sketch 56.3 (81716) - https://sketch.com -->
    <title>merrimack</title>
    <desc>Created with Sketch.</desc>
    <g id="merrimack" stroke="none" stroke-width="1" fill="none" fill-rule="evenodd">
        <g id="merrimack_BGL" transform="translate(0.000000, -0.000000)">
            <g id="merrimack" transform="translate(0.000000, 25.000000)">
                <g id="g10" transform="translate(99.880523, 75.302271) scale(-1, 1) rotate(-180.000000) translate(-99.880523, -75.302271) translate(0.000000, 0.033455)" fill-rule="nonzero">
                    <g id="g12">
                        <path d="M199.751488,135.212422 L138.603103,115.987572 L149.804058,150.212661 L91.6281936,131.87192 C91.6281936,131.87192 89.7691734,128.853043 89.1732355,127.884824 C89.1311806,129.29462 89.0776561,131.067619 89.0776561,131.067619 L37.5748617,114.828671 L0,0 L12.1589483,5.22719222 C25.7691272,11.0963438 60.3617667,26.0119946 84.0597351,34.9443719 C84.3163659,29.9344795 85.9698903,25.5723769 89.0188747,21.9765347 C91.4700097,19.0843484 98.2422915,13.0221263 110.414334,15.1542171 C110.440141,15.0935241 113.703701,15.8079327 113.703701,15.8079327 C114.912781,16.1915886 155.816484,27.3610985 155.816484,27.3610985 L171.60812,75.7218619 C171.60812,75.7218619 151.802625,70.3264021 144.281956,68.2776566 C145.213855,71.1412169 145.743843,72.7675012 146.160092,74.04731 C149.258778,75.0246098 173.873353,82.785661 173.873353,82.785661 L186.259971,120.7221 L196.969171,123.984226 L199.751488,135.212422" id="path14" fill="#FFFFFF"></path>
                        <path d="M171.02413,85.6630803 C171.555551,87.2907983 182.437749,120.618874 184.409075,126.65376 C179.267379,125.032255 147.448503,115.000236 133.001191,110.445397 C138.57204,127.469531 143.354835,142.083151 144.201669,144.670964 C137.72186,142.628909 95.3056129,129.255911 93.9904397,128.841096 C93.3170825,127.747189 85.9350038,115.756747 85.9350038,115.756747 C85.9350038,115.756747 85.6745498,124.430104 85.6215032,126.202625 C81.097728,124.77658 42.2405246,112.52425 40.4218867,111.950774 C39.7830814,109.997608 7.60716827,11.6677655 5.90145744,6.45648729 C12.7031299,9.34437253 60.6083617,30.2900829 87.9139763,40.2135713 C87.7142153,38.8692941 87.6076442,37.5655427 87.6076442,36.3149812 C87.6076442,31.5994735 89.0064494,27.5589957 91.7648723,24.3053757 C93.9732354,21.69988 100.422937,15.9985659 112.571562,19.30853 C112.571562,19.30853 148.854954,29.1961761 152.996412,30.3244437 C153.534046,31.970943 164.211704,64.671444 166.11278,70.4931882 C160.625563,68.9978477 138.794262,63.0499387 138.794262,63.0499387 L143.309435,76.9242514 C143.309435,76.9242514 169.163198,85.0752667 171.02413,85.6630803" id="path16" fill="#0B335E"></path>
                        <path d="M165.903461,90.8353621 L174.347427,116.693904 L127.823175,102.026282 C126.042052,101.464753 124.345039,100.752208 122.739304,99.9005949 L134.130463,134.708718 L98.2379904,123.393067 C98.2379904,123.393067 86.7369154,104.712542 80.1075249,93.9436058 C79.8413361,102.848743 79.4054938,117.455194 79.4054938,117.455194 L45.5394971,106.77658 L16.4848264,17.9842289 L42.7193299,29.1287926 L49.5651123,49.9885292 L50.0912771,32.2461163 L70.2623638,40.3307995 L76.870249,51.0456379 L73.847071,41.8107994 L97.6669032,50.808123 C97.6669032,50.808123 96.2556726,46.4702975 95.4752664,44.0707277 C93.2654696,37.3023169 93.677417,32.0592585 96.7029844,28.4903219 C98.8387072,25.9712777 103.030344,23.4179206 110.869292,25.5536911 L147.9264,35.6517076 L156.233688,61.0919937 C156.233688,61.0919937 136.279566,55.6559126 128.929029,53.6525674 C131.518754,61.6095564 137.563198,80.1839884 138.184943,82.0960553 C140.853521,82.9376323 165.903461,90.8353621 165.903461,90.8353621" id="path18" fill="#FAB20B"></path>
                        <path d="M135.66977,84.8750277 L163.209076,93.5579427 L169.05137,111.452327 L128.847309,98.7765806 C123.604776,97.1240119 119.168456,93.9909176 115.804059,89.6616465 L128.829626,129.465708 L100.473116,120.525206 C100.473116,120.525206 82.4047769,91.1775365 77.0418141,82.4664257 C76.7789706,91.2516106 76.1342872,112.85161 76.1342872,112.85161 L48.2332127,104.054 L22.0551488,24.0520424 L39.9707039,31.6631294 C39.9707039,31.6631294 47.8833919,55.8021491 52.3913965,69.5784929 C52.7479079,57.6009544 53.35197,37.2238939 53.35197,37.2238939 L67.9588991,43.0777528 C67.9588991,43.0777528 80.5189944,63.4800462 89.0853024,77.4093171 C85.0680982,65.136438 79.3046575,47.5317551 79.3046575,47.5317551 C79.3046575,47.5317551 102.839185,56.3780153 103.091993,56.4707274 C100.720667,49.1813608 98.7154097,43.0165342 98.7154097,43.0165342 C96.8960549,37.4451126 97.0934265,33.2989717 99.3013117,30.6929502 C101.477178,28.1270722 105.068576,27.503942 109.974191,28.8401426 L145.257822,38.4559608 L151.033688,56.1448015 L123.737153,48.7077646 L135.66977,84.8750277" id="path20" fill="#FFFFFF"></path>
                        <path d="M129.461407,96.8272377 C121.502984,94.3177993 115.537393,88.0898425 112.665708,79.2907985 C112.664274,79.2864974 100.659018,42.3846106 100.659018,42.3846106 C99.0747884,37.5320899 99.1431277,34.0421497 100.861168,32.0157698 C102.478373,30.1090076 105.363438,29.702795 109.437034,30.812998 L143.656866,40.1381591 L147.914453,53.1756259 C147.914453,53.1756259 121.5221,45.9847061 120.621741,45.7405484 C121.666903,48.9510143 133.406448,85.0250875 133.406448,85.0250875 C133.851371,86.3880504 134.277177,86.5787314 135.05376,86.8238927 L161.591872,95.1913955 L165.874787,108.307763 L129.461407,96.8272377" id="path22" fill="#0B335E"></path>
                        <path d="M101.813618,118.804776 C101.813618,118.804776 81.3524472,85.5703682 75.2019097,75.5789706 C74.9897233,82.69725 74.9906791,82.6771783 74.1720412,110.089364 L49.849939,102.420547 L25.3974187,27.6931893 L38.3213849,33.183225 C38.3213849,33.183225 48.952448,65.6430091 54.0884096,81.3323755 C54.5037023,67.3400222 55.3089592,40.2098437 55.3089592,40.2098437 L66.5768203,44.7259726 C66.5768203,44.7259726 85.706091,75.8164856 96.4143345,93.2272378 C91.1718018,77.2133792 82.5792094,50.9634396 82.5792094,50.9634396 L103.559854,58.8219818 L125.648742,126.319232 L101.813618,118.804776" id="path24" fill="#0B335E"></path>
                        <path d="M130.076938,94.877417 C130.076938,94.877417 153.430343,100.097489 159.516364,102.015768 C158.837272,99.9350035 157.575145,96.0683369 157.575145,96.0683369 L159.975145,96.8248482 L162.69677,105.162243 L130.076938,94.877417" id="path26" fill="#647AA5"></path>
                        <path d="M103.156031,117.084346 C103.053761,116.919949 115.005015,118.677655 119.288886,120.027237 C117.347667,114.096054 99.4752663,59.486259 99.4752663,59.486259 L101.925445,60.3985648 C101.925445,60.3985648 120.296293,116.53333 122.469292,123.173235 C117.297966,121.543605 104.297249,117.44468 103.156031,117.084346" id="path28" fill="#647AA5"></path>
                        <path d="M51.0566295,85.4996394 L34.1780637,33.6435834 C35.34571,34.1399753 36.2485057,34.523201 36.672066,34.702986 C36.7869047,35.0494615 51.0188757,78.525685 51.0188757,78.525685 L51.0566295,85.4996394" id="path30" fill="#647AA5"></path>
                        <path d="M70.2465932,104.56535 L71.2176804,69.1378716 L73.1923518,72.2556732 L72.2093172,107.327596 C72.2093172,107.327596 53.1039413,101.303223 51.4655516,100.786138 C51.4026271,100.594024 70.2465932,104.56535 70.2465932,104.56535" id="path32" fill="#647AA5"></path>
                        <path d="M95.146951,99.0002365 L62.1146938,45.1392581 C62.9022684,45.4547659 64.9338096,46.2686727 65.1947415,46.3741446 C65.3462349,46.6173943 92.4621243,90.7034625 92.4621243,90.7034625 L95.146951,99.0002365" id="path34" fill="#647AA5"></path>
                        <path d="M119.918754,43.4294852 L141.614333,47.0624122 L139.692709,41.1760563 C139.692709,41.1760563 141.77873,41.7448974 142.056388,41.8203096 C142.460689,43.0604051 143.698443,46.8540968 144.794262,50.2074062 C140.429626,49.0183978 125.739543,45.0154827 119.918754,43.4294852" id="path36" fill="#647AA5"></path>
                        <path d="M118.260929,45.0939057 C118.260929,45.0939057 131.472398,85.6826741 131.477177,85.6965331 C130.951968,85.5326143 129.165588,85.2215032 128.282434,82.5118259 L115.89486,44.4496524 L118.260929,45.0939057" id="path38" fill="#647AA5"></path>
                        <path d="M192.562958,127.526879 L193.670724,129.595696 L194.730222,129.918754 L193.965587,126.83345 L193.231058,126.609316 L193.752922,128.713497 L193.738585,128.709674 L192.539063,126.398563 L191.978012,126.227954 L191.820784,128.125206 L191.806447,128.120905 L191.286017,126.016723 L190.551967,125.793067 L191.315646,128.87885 L192.375145,129.200953 L192.562958,127.526879 Z M190.618394,128.077416 L189.822217,127.834644 L189.215766,125.386377 L188.440139,125.150296 L189.04659,127.598563 L188.257104,127.357703 L188.41481,127.99474 L190.7761,128.714453 L190.618394,128.077416 L190.618394,128.077416 Z" id="path40" fill="#0B335E"></path>
                    </g>
                </g>
            </g>
        </g>
    </g>
</svg>