<svg width="200" height="200" viewBox="0 0 200 200" fill="none" xmlns="http://www.w3.org/2000/svg">
<g clip-path="url(#clip0_10_304166)">
<path d="M28.291 103.587V99.0645H21.4697V103.815C21.4697 103.815 22.9497 103.995 22.9497 106.532V115.918L17.4091 99.0645H8.40576V104.489C8.40576 104.489 9.9332 104.546 9.9332 106.817V141.883C9.9332 144.419 8.40576 145.217 8.40576 145.217V150.642L15.7678 146.965V141.93C15.7678 141.93 14.136 142.576 14.136 139.413V115.063L21.8397 135.764C23.1015 139.147 20.7581 140.572 20.7581 140.572V144.875L28.272 142.044V137.436C28.272 137.436 26.9438 137.617 26.9438 135.223V105.677C26.9438 103.71 28.272 103.587 28.272 103.587" fill="white"/>
<path d="M30.0176 136.952V141.417C30.0176 141.417 38.1766 138.472 47.8251 136.382V126.027L45.5481 126.426C45.5481 126.426 45.5481 130.102 43.8879 130.482L37.9868 131.917V120.545L41.3169 120.003C42.7969 119.785 42.6356 122.416 42.6356 122.416L44.8651 122.074V110.598L42.6356 110.759C42.6356 110.759 42.9581 113.268 41.2125 113.486L37.9868 113.876V106.18L42.9487 105.914C45.3015 105.914 45.254 109.629 45.254 109.629L47.6733 109.467V99.0645H30.0176V103.473C30.0176 103.473 31.9719 103.435 31.9719 105.8V134.073C31.9719 136.154 30.0176 136.952 30.0176 136.952Z" fill="white"/>
<path d="M58.8302 102.655V99.0544H49.751V102.959C49.751 102.959 50.7851 103.349 51.25 105.866L55.4907 134.795L61.3728 133.721L63.4031 118.103L65.5757 133.094L71.0688 132.42L75.4329 104.28C75.7175 102.684 76.8085 102.494 76.8085 102.494V99.0449H69.9872V102.608C69.9872 102.608 71.5146 102.494 71.3154 105.059L69.4939 119.699L67.6534 105.572C67.3592 102.589 68.5926 102.617 68.5926 102.617V99.0544H59.7979V102.731C59.7979 102.731 60.851 102.75 61.1167 104.527L61.6195 107.88L59.7979 120.896L57.8531 105.971C57.4546 102.845 58.8397 102.665 58.8397 102.665" fill="white"/>
<path d="M101.134 127.394V130.729L110.63 130.9V127.508C110.63 127.508 109.046 127.717 109.046 125.351V104.479C109.046 102.465 110.63 102.38 110.63 102.38V99.0449H101.134V102.38C101.134 102.38 102.661 102.513 102.661 104.422V111.034H97.1775V103.909C97.1775 102.456 98.5627 102.38 98.5627 102.38V99.0449H89.2178V102.38C89.2178 102.38 90.6314 102.427 90.6314 104.375V125.456C90.6314 127.575 89.2178 127.508 89.2178 127.508V130.9L98.5627 130.729V127.394C98.5627 127.394 97.1775 127.166 97.1775 125.541V116.82H102.661V125.247C102.661 127.47 101.134 127.394 101.134 127.394Z" fill="white"/>
<path d="M119.814 116.346L121.56 107.311L123.268 116.498L119.814 116.336V116.346ZM133.58 129.371C133.58 129.371 132.366 129.171 131.958 127.11L126.607 99.0645H118.941L113.638 125.38C113.135 127.746 112.054 127.395 112.054 127.395V131.014L119.245 131.47V127.965C119.245 127.965 117.661 127.775 118.059 125.466L118.647 122.407L124.444 122.758L125.08 126.207C125.554 128.383 123.894 128.307 123.894 128.307V131.926L133.59 133.057V129.38L133.58 129.371Z" fill="white"/>
<path d="M143.03 102.133V102.779C143.03 102.779 144.766 102.76 144.348 105.676L141.796 121.618L139.197 105.543C138.732 102.598 140.364 102.722 140.364 102.722V102.085C137.726 101.8 135.136 100.784 133.039 99.0547H130.924V102.617C130.924 102.617 132.091 102.807 132.651 105.847C133.201 108.878 137.603 133.617 137.603 133.617L143.684 134.691L148.532 106.18C149.13 102.703 150.316 102.959 150.316 102.959V99.3017C150.24 99.3017 150.164 99.2827 150.097 99.2732C148.2 100.974 145.686 101.924 143.039 102.123" fill="white"/>
<path d="M169.385 129.598L167.108 129.095C167.108 129.095 166.88 133.104 165.296 132.743C163.702 132.382 159.594 131.413 159.594 131.413V120.212C159.594 120.212 161.131 120.44 162.668 120.706C164.195 120.972 164.243 123.661 164.243 123.661L166.425 124.107V111.662L164.243 111.434C164.243 111.434 164.347 114.113 162.914 113.98L159.594 113.704V106.066C159.594 106.066 162.715 106.218 164.688 106.341C166.662 106.465 166.804 110.645 166.804 110.645L169.233 110.873V99.0547H159.138C156.672 99.6342 153.949 99.6817 151.577 99.4537V103.007C151.577 103.007 153.209 102.807 153.209 105.439V130.539C153.209 132.952 151.577 132.363 151.577 132.363V136.325C151.577 136.325 159.167 137.94 169.385 141.303V129.589V129.598Z" fill="white"/>
<path d="M191.594 104.432V99.0547H184.763V104.09C184.763 104.09 186.205 104.289 186.205 107.32V117.324L180.712 99.0642H171.709V103.586C171.709 103.586 173.236 103.662 173.236 105.676V135.717C173.236 137.807 171.709 137.522 171.709 137.522V142.044L179.024 144.761V139.954C179.024 139.954 177.439 139.27 177.439 136.334V113.875L185.361 139.175C186.471 142.69 184.061 142.376 184.061 142.376V146.851L191.575 150.461V145.027C191.575 145.027 190.238 144.409 190.238 141.265V106.522C190.238 104.774 191.575 104.422 191.575 104.422" fill="white"/>
<path d="M131.692 80.1866C131.929 79.9586 132.356 79.9206 132.233 79.4931L130.677 78.4766C131.028 79.0371 131.066 79.8636 131.692 80.1866Z" fill="white"/>
<path d="M36.9434 75.7703C40.7477 76.2073 41.5447 76.2073 43.5654 76.7013C54.5516 62.1847 74.285 50.3853 93.4302 45.0746C93.4302 45.0746 67.2171 56.8645 51.9047 77.8128C55.3011 78.9814 61.2306 80.5679 64.4753 82.0595C71.6286 72.5116 77.5392 66.7164 86.3623 61.3012L79.2943 61.5957C96.969 45.9676 113.856 47.4401 114.644 47.4401C104.559 49.9672 95.9823 56.5795 89.6069 64.2463C91.6182 63.5053 96.6749 63.6573 101.39 63.6573C89.0187 70.6971 81.742 80.1499 76.5051 88.6908C76.9889 89.0138 77.4443 89.3463 77.9092 89.6693H90.2141C94.0184 85.4606 97.8323 81.9645 103.42 80.1879C100.365 83.7031 98.0505 86.8572 96.2954 89.6693H103.155C106.257 85.3561 109.72 81.2805 112.879 77.9553C103.012 73.7182 105.403 57.7766 110.204 53.2544C108.05 59.4391 107.671 74.7537 121.892 74.7537C121.892 74.7537 108.183 68.645 112.168 54.4039C114.852 52.9884 117.101 50.6513 117.613 47.7537C116.484 45.2741 115.516 42.576 113.41 40.5619C74.3515 37.4743 36.9434 75.7798 36.9434 75.7798" fill="white"/>
<path d="M115.431 84.6992C113.714 86.2668 112.101 87.9293 110.602 89.6584H112.443C113.372 87.9768 114.359 86.3143 115.431 84.6992Z" fill="white"/>
<path d="M108.429 24.8848C104.322 31.668 112.699 37.3778 119.169 41.5674C119.245 40.3799 119.169 38.9928 118.818 37.8433C119.406 36.1902 121.427 36.0287 123.021 35.4017C119.757 30.2905 110.422 31.2785 108.439 24.8848" fill="white"/>
<path d="M135.895 30.0249C137.309 31.9345 139.291 33.3881 139.832 35.2311L141.881 35.8012C140.8 33.4546 138.618 31.3835 139.083 28.6094C137.802 28.7424 136.749 29.3979 135.895 30.0249Z" fill="white"/>
<path d="M135.487 54.204L133.912 52.627C132.356 53.4915 132.119 57.5101 134.795 58.0897C134.795 58.0897 133.438 55.9426 135.487 54.2135" fill="white"/>
<path d="M136.084 88.8887C136.322 92.9928 137.517 96.6695 145.306 96.6695C138.855 95.5104 136.084 88.8887 136.084 88.8887Z" fill="white"/>
<path d="M143.902 89.5451C141.938 88.8325 139.699 89.2126 139.699 89.2126C139.699 89.2126 140.876 95.3878 147.944 95.0838C147.944 95.0838 145.164 91.9582 143.902 89.5356" fill="white"/>
<path d="M136.9 40.7793C136.9 40.7793 147.147 46.052 150.552 50.6027C150.552 50.6027 146.691 67.6463 160.353 75.9307C149.765 61.5186 153.256 54.9824 153.256 51.4957C153.256 45.596 136.9 40.7793 136.9 40.7793Z" fill="white"/>
<path d="M117.224 55.818C117.224 55.818 126.038 48.9588 121.892 39.2969C123.22 49.4148 115.744 55.647 115.744 55.647C112.765 68.14 135.999 75.1513 139.234 81.925C141.179 79.3884 152.213 75.6928 158.759 83.8346C158.759 83.8346 162.715 81.051 165.571 82.6471C163.19 79.4549 159.148 82.3146 159.148 82.3146C150.088 74.4863 142.631 78.0299 139.623 79.873C135.212 72.5577 115.687 68.197 117.224 55.799" fill="white"/>
<path d="M155.761 88.8234C155.761 88.8234 155.268 86.9993 154.291 86.6763C154.291 86.6763 153.921 88.6049 151.947 88.6049C149.974 88.6049 148.513 85.6313 148.513 84.0732C148.513 83.3892 148.921 82.2681 150.657 82.2681C153.294 82.2681 157.203 86.7238 155.771 88.8139M163.085 84.5862C160.296 84.5862 160.372 87.2178 158.968 87.2178C156.786 87.2178 154.888 81.3086 150.344 81.3086C149.177 81.3086 147.593 81.9831 147.593 84.1397C147.593 86.2963 149.528 89.7354 154.471 89.7354C157.82 89.7354 157.915 88.1014 157.915 88.1014C159.527 90.4669 160.097 94.5331 155.344 94.5331C145.676 94.5331 150.363 85.2987 142.697 85.2987C141.72 85.2987 140.828 85.3843 139.737 85.3843C136.559 85.3843 137.176 83.7027 136.635 83.4557C135.8 83.4557 135.022 84.7287 135.022 84.7287C135.999 86.3533 138.845 85.4698 143.124 85.8308C148.598 86.2868 145.373 95.4166 155.647 95.4166C163.939 95.4166 159.414 86.6193 163.797 86.6193C164.688 86.6193 164.176 88.4244 164.176 88.4244C165.713 88.2154 166.861 84.5767 163.095 84.5767" fill="white"/>
<path d="M40.7663 158.033L43.8592 153.473C43.8592 153.473 42.493 151.307 40.0263 151.307C34.2107 151.307 28.5278 159.154 28.5278 164.797C28.5278 166.982 29.4291 170.592 33.6889 170.592C37.9486 170.592 43.0148 166.963 43.0148 166.963V162.527L41.2217 163.173C41.2217 163.173 39.7892 166.469 37.313 166.469C36.2694 166.469 34.0209 166.061 34.0209 162.071C34.0209 158.08 35.833 154.774 38.1004 154.774C40.3679 154.774 39.1345 157.548 39.1345 157.548L40.7758 158.033H40.7663Z" fill="#FFC425"/>
<path d="M54.8551 148.437C54.8551 148.437 56.2117 147.772 56.2117 150.147V152.817L51.4302 154.071V151.126C51.4302 149.558 52.7489 149.007 52.7489 149.007V147.183L45.0073 149.52V151.344C45.0073 151.344 46.2786 150.841 46.2786 151.99V162.811C46.2786 164.293 45.0073 164.892 45.0073 164.892V166.716L52.7489 164.426V162.602C52.7489 162.602 51.6484 162.697 51.6484 162.165V158.46L48.584 157.757L56.1453 155.933V160.274C56.1453 161.623 54.8456 162.032 54.8456 162.032V163.866L62.7484 162.06V160.227C62.7484 160.227 61.4487 160.113 61.4487 158.289V148.171C61.4487 146.831 62.7484 146.603 62.7484 146.603V144.779L54.8456 146.603V148.437H54.8551Z" fill="#FFC425"/>
<path d="M70.3097 152.579L71.8277 147.497L73.2507 152.152L70.3097 152.579ZM80.1195 155.724L75.9925 142.547L69.6551 143.487L65.642 157.301C65.1012 159.04 63.9248 160.037 63.9248 160.037V161.823L69.8828 160.731V158.85C69.8828 158.85 68.4597 158.897 69.0194 157.044L66.9892 156.427L74.1615 155.249L74.6264 156.778C75.0154 158.032 73.6966 158.232 73.6966 158.232V160.142L81.7797 159.201V157.32C81.7797 157.32 80.7077 157.453 80.11 155.743" fill="#FFC425"/>
<path d="M90.4513 148.95V144.219C90.4513 144.219 94.2746 143.345 94.2746 146.081C94.2746 149.492 90.4513 148.95 90.4513 148.95ZM99.1415 154.954L96.6369 150.641C96.6369 150.641 99.6918 149.435 99.6918 145.691C99.6918 142.727 97.2726 141.074 94.1228 141.074C90.973 141.074 83.7817 141.692 83.7817 141.692V143.516C83.7817 143.516 85.0435 143.421 85.0435 144.675V155.572C85.0435 156.911 83.7817 157.168 83.7817 157.168V158.992L91.2956 158.479V156.655C91.2956 156.655 90.4228 156.246 90.4228 155.182V153.016L88.2597 151.781L91.2956 151.715L95.1474 158.355L100.944 158.298V156.474C100.944 156.474 99.8626 156.047 99.1415 154.954Z" fill="#FFC425"/>
<path d="M111.864 151.127C111.864 151.127 113.145 151.326 113.145 153.321V155.725C113.145 155.725 108.031 155.953 108.031 150.11C108.031 144.267 111.076 143.935 111.788 143.935C115.023 143.935 114.34 147.184 114.34 147.184L115.943 148.201L118.23 144.837C118.23 144.837 115.478 140.762 110.915 140.762C106.352 140.762 102.547 144.856 102.547 149.217C102.547 155.402 106.826 158.318 110.137 158.556C113.439 158.784 119.074 159.24 119.074 159.24V157.416C119.074 157.416 117.898 156.836 117.898 154.195C117.898 151.554 119.074 151.716 119.074 151.716V149.911L111.864 149.322V151.127Z" fill="#FFC425"/>
<path d="M132.204 157.957L127.584 157.253V153.805L123.723 151.696L129.529 152.56C131.246 152.826 131.436 154.109 131.436 154.109L133.267 154.432V149.216L131.436 148.893C131.18 150.261 130.136 149.9 127.584 149.435V146.1L131.123 146.547C133.495 146.851 133.58 148.846 133.58 148.846L135.601 149.245V144.409L120.953 142.129V143.953C120.953 143.953 122.328 144.19 122.328 145.815V155.79C122.328 157.386 120.953 157.615 120.953 157.615V159.439C125.544 160.018 130.165 160.617 135.762 161.719V156.93L133.846 156.55C133.846 156.55 134.073 158.232 132.204 157.957Z" fill="#FFC425"/>
<path d="M144.225 154.033V149.33C144.225 149.33 148.029 149.691 148.029 152.427C148.029 155.733 144.225 154.042 144.225 154.042M152.811 162.573L150.411 157.624C150.411 157.624 153.465 157.367 153.465 153.824C153.465 147.753 146.53 146.584 137.546 144.779V146.603C137.546 146.603 139.035 147.031 139.035 149.083V158.745C139.035 160.046 137.546 160.227 137.546 160.227V162.06L145.06 163.809V161.984C145.06 161.984 144.13 161.433 144.13 159.723V158.374L140.819 155.99L145.06 157.063L148.912 164.835L154.67 166.583V164.759C154.67 164.759 153.741 164.36 152.801 162.583" fill="#FFC425"/>
<path d="M156.985 155.819C156.985 161.538 166.387 163.714 166.387 166.345C166.387 167.314 165.713 167.561 165.163 167.561C161.396 167.561 160.827 163.277 160.827 163.277L159.49 161.69L156.254 163.752C156.254 163.752 160.173 171.181 167.8 171.181C169.385 171.181 171.472 170.317 171.472 167.229C171.472 160.512 162.032 159.315 162.032 156.19C162.032 155.591 162.544 155.135 163.19 155.135C164.755 155.135 167.174 157.434 166.662 158.707L168.075 160.275L170.979 158.983C170.979 158.983 167.193 151.715 161.083 151.715C158.427 151.715 156.994 153.33 156.994 155.829" fill="#FFC425"/>
<path d="M197.771 91.9013V165.634C197.771 165.634 189.213 160.276 175.039 154.271V179.628C157.061 172.018 130.051 163.382 99.9953 163.382C69.9398 163.382 42.9202 172.018 24.9514 179.628V154.271C10.7775 160.266 2.22001 165.634 2.22001 165.634V91.9013H128.77C129.415 94.9795 130.981 97.3641 133.03 99.0646C135.126 100.794 137.726 101.81 140.363 102.095C141.255 102.19 142.147 102.209 143.029 102.143C145.676 101.934 148.19 100.984 150.078 99.2926C150.145 99.3021 150.221 99.3116 150.296 99.3211C150.704 99.3781 151.141 99.4351 151.577 99.4731C153.949 99.7011 156.662 99.6536 159.139 99.0741C162.877 98.1906 166.026 96.0815 166.558 91.9108H197.78L197.771 91.9013ZM126.74 89.6688H122.072C123.078 87.7782 123.751 86.7616 123.751 86.7616C124.32 87.8637 125.279 88.9277 126.74 89.6688ZM20.796 80.9759C20.796 80.9759 36.4499 62.1557 53.6597 48.2946C50.6997 48.1996 47.7492 48.4941 45.1402 48.6272C45.1402 48.6272 56.2497 38.9748 70.4616 34.4431C66.809 34.0726 62.369 34.1486 58.6784 34.3766C67.1221 28.2393 78.1652 25.1422 89.7491 24.6482C87.4152 23.4892 84.8157 22.7956 82.4819 21.7791C102.196 15.1858 127.878 23.1947 134.87 29.0659C134.87 29.0659 138.646 26.3393 140.354 27.7168C139.225 31.346 143.153 33.9491 144.557 36.8182C147.204 38.0057 149.727 40.1813 149.964 42.9174C152.725 45.131 156.501 47.4396 156.7 51.0687C155.22 61.2626 160.239 70.0315 165.761 78.0783C168.36 78.2683 172.639 83.4365 164.357 90.6473C164.831 94.9035 160.154 98.6371 149.149 96.908C149.149 96.908 147.555 99.7391 142.498 99.7391C132.109 99.7391 131.483 92.9274 130.364 88.3672C125.193 87.9587 125.222 83.75 125.222 83.75L123.353 83.123C121.92 85.2321 120.63 87.4172 119.463 89.6688H65.2815C53.1379 82.572 38.8312 79.0948 20.7865 80.9759M167.174 76.1497C160.486 65.7373 158.019 60.7021 158.958 51.1733C158.807 46.5181 154.67 43.763 152.023 41.6729C151.397 39.0508 149.262 36.6852 146.141 35.1081C143.21 30.5289 141.521 30.4244 142.963 26.9283C139.908 23.1662 135.013 26.3583 135.013 26.3583C103.819 8.54508 75.8408 21.6366 75.8408 21.6366C75.8408 21.6366 78.8483 22.7956 80.3662 23.3752C63.7636 25.7408 51.1076 37.1032 51.1076 37.1032L59.4469 36.5807C48.954 41.5684 38.6699 51.2683 38.6699 51.2683C38.6699 51.2683 46.9902 50.7647 47.2558 50.7457C33.1009 62.4882 15.5401 83.7785 15.5401 83.7785C34.0591 81.3749 48.2235 83.446 60.462 89.6593H0V169.652C11.7641 162.09 22.7219 157.653 22.7219 157.653V182.981C22.7219 182.981 58.5836 165.605 99.9953 165.605C141.407 165.605 177.269 182.981 177.269 182.981V157.653C177.269 157.653 188.226 162.09 199.991 169.652V89.6593H168.341C172.553 84.3961 172.829 78.9903 167.165 76.1402" fill="#FFC425"/>
<path d="M100.811 39.6869C103.809 39.4304 105.602 39.2309 108.088 39.0314C108.012 38.4423 108.088 37.6823 108.752 37.2168C106.304 37.2833 103.856 37.3878 101.56 37.7108C101.048 38.2048 100.621 38.8699 100.82 39.6869" fill="#FFC425"/>
<path d="M108.819 39.1367L112.357 39.2982L110.023 37.3887C108.468 37.7402 108.819 39.1367 108.819 39.1367Z" fill="#FFC425"/>
<path d="M86.343 41.2727C85.5271 41.8047 85.5271 42.6597 85.565 43.4768C87.8135 42.7547 90.1948 42.2987 92.4907 41.4912C92.5286 40.8072 92.3768 39.8761 92.965 39.2871C90.8589 39.9141 88.4871 40.4747 86.3524 41.2632" fill="#FFC425"/>
<path d="M118.894 44.4374L117.414 43.3164C117.063 44.3424 118.305 45.131 118.543 46.0905C118.932 45.701 118.932 45.036 118.894 44.4374Z" fill="#FFC425"/>
<path d="M56.4678 57.5C54.7222 58.8206 52.5781 60.3976 50.9463 61.9842V62.2502L56.5437 58.298C56.3635 57.8515 56.4678 57.5095 56.4678 57.5095" fill="#FFC425"/>
<path d="M128.618 77.7455C127.375 76.9855 125.658 76.558 124.491 75.8359C125.345 77.6125 126.123 79.4271 127.29 81.0801C127.869 80.8711 128.922 80.3866 129.899 80.4531C129.425 79.5601 129.045 78.6765 128.618 77.755" fill="#FFC425"/>
<path d="M136.104 51.7722C138.504 53.5773 136.692 58.052 141.217 59.477C139.073 56.9499 141.321 52.9693 137.375 50.6417C133.912 48.5991 133.087 47.6016 133.087 47.6016C132.868 48.5231 133.703 49.9577 136.104 51.7722Z" fill="#FFC425"/>
<path d="M117.224 55.8177C115.697 68.2062 135.221 72.5763 139.623 79.8916C142.631 78.0581 150.097 74.5049 159.148 82.3332C159.148 82.3332 163.18 79.4641 165.571 82.6562C162.715 81.0602 158.759 83.8438 158.759 83.8438C152.213 75.6925 141.17 79.3976 139.234 81.9342C135.999 75.1604 112.756 68.1397 115.744 55.6562C115.744 55.6562 123.21 49.4239 121.882 39.2965C126.038 48.9584 117.215 55.8177 117.215 55.8177M120.649 37.9665C123.704 48.0939 114.425 55.4187 114.425 55.4187C114.425 72.6428 133.485 72.2058 139.045 83.3023C139.045 83.3023 149.68 73.4219 158.693 85.2593C159.433 83.2738 164.736 81.4307 166.51 84.8033C168.844 81.1647 163.787 77.7065 159.044 80.8512C147.289 72.6523 140.022 78.7041 140.022 78.7041C134.377 70.6953 117.015 67.8262 118.552 55.9127C118.552 55.9127 126.683 51.571 123.571 39.3535C123.571 39.3535 134.31 33.5773 147.564 42.2892C143.304 33.7578 123.837 34.3563 120.649 37.957" fill="#FFC425"/>
<path d="M127.413 82.7226C130.098 81.7251 132.925 83.8532 131.957 86.2282C135.164 83.2641 129.908 80.0245 127.413 82.7226Z" fill="#FFC425"/>
<path d="M126.009 33.9859C126.009 33.9859 131.36 33.3684 136.901 34.0524C118.315 15.4412 86.96 21.8824 86.96 21.8824C86.96 21.8824 117.841 21.4549 126.009 33.9859Z" fill="#FFC425"/>
<path d="M101.817 28.6752C101.817 28.6752 96.3996 32.7509 99.2173 37.9476L94.2745 39.0306C94.2745 39.0306 93.1455 39.9522 93.4206 41.2727L99.5683 39.8192C99.5683 39.8192 99.8624 38.6601 100.422 37.8336C100.422 37.8336 97.7658 32.9979 103.961 28.7322C100.716 24.9131 92.6806 24.248 92.6806 24.248L97.1396 26.1956C76.1444 26.1956 65.4238 32.2949 65.4238 32.2949C65.4238 32.2949 89.066 25.4071 101.826 28.6657" fill="#FFC425"/>
<path d="M79.4177 43.8775C79.4177 43.8775 77.1597 44.704 78.2887 46.4141L84.6261 43.944C84.6261 43.944 84.3795 42.6139 85.091 41.6639L81.2012 43.146C77.7953 36.3152 83.222 32.8571 83.222 32.8571L76.8087 31.375L73.5356 32.002L78.0135 33.0281C56.2783 40.2673 50.6714 46.8131 50.6714 46.8131C50.6714 46.8131 64.7599 38.2628 80.3569 33.5886C80.3569 33.5886 76.543 38.1488 79.4177 43.8775Z" fill="#FFC425"/>
<path d="M77.5486 44.7324L70.7368 48.1336C69.456 49.1881 70.0347 50.2996 70.0347 50.2996L77.6245 46.6515C77.6245 46.6515 76.7137 46.0055 77.5391 44.7419" fill="#FFC425"/>
<path d="M63.4031 52.5418C62.4259 53.1973 63.0046 54.1663 63.0046 54.1663L69.2282 50.7747C69.2282 50.7747 68.8582 49.7582 69.3421 48.9316L63.3936 52.5418H63.4031Z" fill="#FFC425"/>
<path d="M62.2268 53.2725L60.3579 54.5551C57.1227 50.5364 60.5855 45.6152 60.5855 45.6152L53.6694 47.1068L57.0943 47.3348C35.046 65.946 26.479 77.964 26.479 77.964C26.479 77.964 47.9865 57.1962 57.5591 48.8454C57.5591 48.8454 56.8666 52.921 58.8873 55.5051L57.3978 56.7212C56.9235 57.0727 57.2935 57.7092 57.2935 57.7092L62.445 54.5836C62.0086 53.9566 62.2363 53.2535 62.2363 53.2535" fill="#FFC425"/>
<path d="M133.172 44.7311C134.244 48.0848 139.395 49.2533 141.103 52.0844C142.811 54.925 141.739 59.1052 145.23 61.7463C143.579 62.4018 139.547 60.7393 139.547 60.7393C139.547 60.7393 138.153 61.3473 136.274 61.3473C131.303 61.3473 129.235 58.7442 129.235 55.1055C129.235 51.4669 131.976 49.1773 131.976 49.1773C131.976 49.1773 131.113 46.1562 133.181 44.7216M153.256 51.4954C153.256 54.982 149.765 61.5088 160.353 75.9304C146.691 67.6365 150.552 50.6024 150.552 50.6024C147.137 46.0517 136.9 40.779 136.9 40.779C136.9 40.779 153.256 45.5957 153.256 51.4954ZM128.153 39.3634L132.631 43.6481C132.631 43.6481 129.529 44.9686 130.231 48.9588C130.231 48.9588 127.631 50.9539 127.631 54.868C127.631 58.7822 130.933 64.2354 138.779 61.9838C138.779 61.9838 142.716 63.7509 145.98 63.1048C144.813 64.2259 142.782 64.9194 141.037 65.1474C141.378 73.9353 155.429 68.0735 159.319 78.866C160.41 78.6 161.377 78.1059 162.43 77.7449C157.526 69.4606 152.393 60.3307 154.964 50.4409C154.964 50.4409 147.194 37.9384 128.163 39.3539" fill="#FFC425"/>
<path d="M70.3096 152.581L73.2506 152.153L71.8275 147.498L70.3096 152.581Z" fill="#102B4E"/>
<path d="M121.56 107.311L119.814 116.336L123.267 116.497L121.56 107.311Z" fill="#102B4E"/>
<path d="M144.225 149.32V154.023C144.225 154.023 148.029 155.714 148.029 152.417C148.029 149.681 144.225 149.32 144.225 149.32Z" fill="#102B4E"/>
<path d="M90.4512 144.22V148.951C90.4512 148.951 94.2745 149.493 94.2745 146.082C94.2745 143.355 90.4512 144.22 90.4512 144.22Z" fill="#102B4E"/>
<path d="M163.18 155.125C162.535 155.125 162.023 155.581 162.023 156.18C162.023 159.305 171.462 160.493 171.462 167.219C171.462 170.307 169.366 171.171 167.781 171.171C160.163 171.171 156.235 163.742 156.235 163.742L159.471 161.69L160.799 163.276C160.799 163.276 161.378 167.561 165.144 167.561C165.694 167.561 166.368 167.314 166.368 166.345C166.368 163.713 156.966 161.547 156.966 155.828C156.966 153.33 158.399 151.714 161.055 151.714C167.174 151.714 170.95 158.982 170.95 158.982L168.047 160.274L166.633 158.707C167.146 157.434 164.736 155.135 163.161 155.135M171.709 137.521C171.709 137.521 173.246 137.806 173.246 135.716V105.676C173.246 103.662 171.709 103.586 171.709 103.586V99.0634H180.712L186.206 117.323V107.319C186.206 104.298 184.773 104.089 184.773 104.089V99.0539H191.594V104.431C191.594 104.431 190.266 104.783 190.266 106.531V141.274C190.266 144.418 191.594 145.036 191.594 145.036V150.47L184.08 146.86V142.385C184.08 142.385 186.481 142.699 185.38 139.183L177.449 113.884V136.343C177.449 139.269 179.033 139.963 179.033 139.963V144.77L171.719 142.053V137.521H171.709ZM154.67 166.583L148.911 164.834L145.06 157.063L140.819 155.999L144.13 158.374V159.714C144.13 161.433 145.06 161.975 145.06 161.975V163.799L137.546 162.051V160.217C137.546 160.217 139.035 160.027 139.035 158.726V149.064C139.035 147.012 137.546 146.584 137.546 146.584V144.76C146.53 146.575 153.465 147.734 153.465 153.814C153.465 157.358 150.41 157.614 150.41 157.614L152.811 162.564C153.75 164.34 154.68 164.739 154.68 164.739V166.564L154.67 166.583ZM135.753 161.718C130.165 160.616 125.544 160.018 120.943 159.438V157.614C120.943 157.614 122.319 157.386 122.319 155.8V145.824C122.319 144.209 120.943 143.962 120.943 143.962V142.138L135.591 144.418V149.254L133.571 148.855C133.571 148.855 133.485 146.86 131.113 146.565L127.575 146.119V149.453C130.127 149.928 131.17 150.28 131.426 148.912L133.257 149.235V154.451L131.426 154.128C131.426 154.128 131.237 152.845 129.519 152.579L123.704 151.714L127.565 153.824V157.272L132.185 157.975C134.045 158.251 133.827 156.569 133.827 156.569L135.734 156.949V161.728L135.753 161.718ZM119.235 131.469L112.044 131.013V127.394C112.044 127.394 113.126 127.745 113.638 125.379L118.941 99.0634H126.607L131.958 127.109C132.375 129.17 133.589 129.37 133.589 129.37V133.046L123.894 131.916V128.296C123.894 128.296 125.554 128.382 125.079 126.196L124.444 122.738L118.647 122.387L118.059 125.455C117.66 127.755 119.245 127.954 119.245 127.954V131.46L119.235 131.469ZM119.074 151.714C119.074 151.714 117.898 151.553 117.898 154.194C117.898 156.835 119.074 157.415 119.074 157.415V159.239C119.074 159.239 113.448 158.783 110.137 158.555C106.826 158.327 102.547 155.401 102.547 149.216C102.547 144.846 106.352 140.761 110.915 140.761C115.478 140.761 118.23 144.836 118.23 144.836L115.943 148.199L114.34 147.183C114.34 147.183 115.023 143.934 111.788 143.934C111.067 143.934 108.031 144.257 108.031 150.109C108.031 155.961 113.145 155.724 113.145 155.724V153.32C113.145 151.325 111.864 151.125 111.864 151.125V149.32L119.074 149.909V151.714ZM97.1776 116.81V125.531C97.1776 127.156 98.5627 127.384 98.5627 127.384V130.719L89.2178 130.89V127.498C89.2178 127.498 90.6314 127.574 90.6314 125.455V104.374C90.6314 102.427 89.2178 102.379 89.2178 102.379V99.0539H98.5627V102.379C98.5627 102.379 97.1776 102.465 97.1776 103.909V111.034H102.661V104.422C102.661 102.512 101.134 102.379 101.134 102.379V99.0539H110.63V102.379C110.63 102.379 109.046 102.465 109.046 104.479V125.351C109.046 127.707 110.63 127.498 110.63 127.498V130.89L101.134 130.719V127.384C101.134 127.384 102.661 127.46 102.661 125.227V116.801H97.1776V116.81ZM100.944 158.298L95.1473 158.355L91.2955 151.714L88.2596 151.781L90.4227 153.016V155.182C90.4227 156.246 91.2955 156.655 91.2955 156.655V158.479L83.7816 158.992V157.168C83.7816 157.168 85.0434 156.902 85.0434 155.572V144.675C85.0434 143.411 83.7816 143.516 83.7816 143.516V141.692C83.7816 141.692 90.9634 141.074 94.1227 141.074C97.2819 141.074 99.6917 142.727 99.6917 145.691C99.6917 149.425 96.6368 150.631 96.6368 150.631L99.1414 154.945C99.8624 156.028 100.944 156.455 100.944 156.455V158.289V158.298ZM81.7893 159.182L73.7062 160.122V158.213C73.7062 158.213 75.0249 158.013 74.6359 156.759L74.1711 155.23L66.9987 156.408L69.029 157.025C68.4692 158.878 69.8923 158.83 69.8923 158.83V160.711L63.9343 161.813V160.027C63.9343 160.027 65.1108 159.039 65.6515 157.291L69.6646 143.478L76.0021 142.537L80.129 155.714C80.7267 157.424 81.7988 157.291 81.7988 157.291V159.172L81.7893 159.182ZM61.3728 133.73L55.4812 134.804L51.2405 105.866C50.7851 103.348 49.7415 102.968 49.7415 102.968V99.0634H58.8302V102.664C58.8302 102.664 57.4451 102.845 57.8436 105.97L59.7789 120.895L61.61 107.88L61.0977 104.526C60.832 102.75 59.7789 102.731 59.7789 102.731V99.0539H68.5831V102.617C68.5831 102.617 67.3498 102.588 67.6439 105.571L69.4749 119.698L71.2964 105.068C71.5051 102.503 69.9682 102.617 69.9682 102.617V99.0539H76.799V102.503C76.799 102.503 75.708 102.693 75.4234 104.289L71.0593 132.429L65.5662 133.103L63.3936 118.112L61.3633 133.73H61.3728ZM62.7579 146.613C62.7579 146.613 61.4582 146.841 61.4582 148.18V158.298C61.4582 160.113 62.7579 160.236 62.7579 160.236V162.07L54.8551 163.865V162.041C54.8551 162.041 56.1548 161.633 56.1548 160.284V155.942L48.5935 157.766L51.6579 158.469V162.174C51.6579 162.716 52.7584 162.611 52.7584 162.611V164.435L45.0168 166.716V164.891C45.0168 164.891 46.2881 164.293 46.2881 162.811V151.99C46.2881 150.84 45.0168 151.344 45.0168 151.344V149.52L52.7584 147.183V149.007C52.7584 149.007 51.4397 149.558 51.4397 151.135V154.08L56.2212 152.826V150.156C56.2212 147.781 54.8646 148.446 54.8646 148.446V146.613L62.7674 144.789V146.613H62.7579ZM38.1007 154.774C35.8332 154.774 34.0212 158.08 34.0212 162.07C34.0212 166.06 36.2696 166.469 37.3132 166.469C39.7894 166.469 41.222 163.172 41.222 163.172L43.015 162.526V166.963C43.015 166.963 37.9489 170.592 33.6891 170.592C29.4293 170.592 28.5281 166.982 28.5281 164.796C28.5281 159.153 34.2109 151.306 40.0266 151.306C42.4932 151.306 43.8594 153.472 43.8594 153.472L40.7666 158.032L39.1253 157.548C39.1253 157.548 40.3681 154.774 38.0912 154.774M28.2814 103.586C28.2814 103.586 26.9532 103.709 26.9532 105.676V135.222C26.9532 137.616 28.2814 137.435 28.2814 137.435V142.043L20.7675 144.874V140.571C20.7675 140.571 23.1109 139.145 21.8491 135.763L14.1454 115.062V139.411C14.1454 142.575 15.7772 141.929 15.7772 141.929V146.964L8.41516 150.641V145.216C8.41516 145.216 9.9426 144.418 9.9426 141.882V106.816C9.9426 104.545 8.41516 104.488 8.41516 104.488V99.0634H17.4185L22.9591 115.917V106.531C22.9591 103.994 21.4791 103.814 21.4791 103.814V99.0634H28.3004V103.586H28.2814ZM30.0175 136.951C30.0175 136.951 31.9719 136.153 31.9719 134.072V105.799C31.9719 103.434 30.0175 103.472 30.0175 103.472V99.0634H47.6733V109.466L45.254 109.628C45.254 109.628 45.3015 105.913 42.9486 105.913L37.9868 106.17V113.865L41.2125 113.475C42.9486 113.266 42.6355 110.749 42.6355 110.749L44.865 110.587V122.073L42.6355 122.415C42.6355 122.415 42.7873 119.784 41.3168 120.002L37.9868 120.544V131.916L43.8879 130.481C45.5481 130.101 45.5481 126.424 45.5481 126.424L47.8251 126.025V136.381C38.1766 138.471 30.0175 141.407 30.0175 141.407V136.941V136.951ZM159.139 99.0539H169.242V110.872L166.814 110.644C166.814 110.644 166.662 106.455 164.689 106.341C162.715 106.227 159.594 106.065 159.594 106.065V113.703L162.914 113.979C164.338 114.112 164.243 111.433 164.243 111.433L166.415 111.661V124.106L164.243 123.65C164.243 123.65 164.195 120.962 162.668 120.696C161.14 120.43 159.594 120.202 159.594 120.202V131.403C159.594 131.403 163.702 132.372 165.296 132.733C166.88 133.094 167.108 129.085 167.108 129.085L169.385 129.588V141.302C159.177 137.939 151.577 136.324 151.577 136.324V132.362C151.577 132.362 153.209 132.951 153.209 130.538V105.438C153.209 102.807 151.577 103.006 151.577 103.006V99.4529C151.141 99.4054 150.704 99.3579 150.296 99.3009V102.959C150.296 102.959 149.111 102.693 148.522 106.179L143.674 134.69L137.584 133.616C137.584 133.616 133.191 108.887 132.631 105.847C132.081 102.807 130.905 102.617 130.905 102.617V99.0539H133.02C130.971 97.3533 129.406 94.9687 128.76 91.8906H2.22949V165.623C2.22949 165.623 10.787 160.265 24.9514 154.261V179.617C42.9297 172.007 69.9398 163.371 100.005 163.371C130.07 163.371 157.07 172.007 175.049 179.617V154.261C189.223 160.265 197.771 165.623 197.771 165.623V91.8906H166.558C166.026 96.0518 162.877 98.1609 159.139 99.0539Z" fill="#102B4E"/>
<path d="M140.354 102.095V102.732C140.354 102.732 138.732 102.608 139.187 105.563L141.787 121.628L144.339 105.687C144.766 102.76 143.02 102.789 143.02 102.789V102.133C142.138 102.209 141.246 102.19 140.354 102.086" fill="#102B4E"/>
<path d="M181.671 170.839V168.075H182.629V167.742H180.418V168.075H181.339V170.839H181.671Z" fill="#102B4E"/>
<path d="M185.712 170.839V167.742H185.181L184.394 170.26L183.597 167.742H183.065V170.839H183.397V168.208L184.223 170.839H184.555L185.38 168.208V170.839H185.712Z" fill="#102B4E"/>
<path d="M150.657 82.2773C148.921 82.2773 148.513 83.3984 148.513 84.0824C148.513 85.6405 149.983 88.6141 151.957 88.6141C153.93 88.6141 154.3 86.6855 154.3 86.6855C155.277 87.0085 155.77 88.8326 155.77 88.8326C157.203 86.733 153.294 82.2868 150.657 82.2868" fill="#102B4E"/>
<path d="M90.2139 89.6689H96.3047C98.0598 86.8663 100.365 83.7121 103.43 80.1875C97.8416 81.9641 94.0182 85.4507 90.2234 89.6689" fill="#102B4E"/>
<path d="M133.912 52.6255L135.487 54.2026C133.438 55.9317 134.795 58.0788 134.795 58.0788C132.11 57.4992 132.356 53.4901 133.912 52.616M133.096 47.5998C133.096 47.5998 133.922 48.5974 137.385 50.64C141.331 52.9676 139.083 56.9482 141.227 59.4753C136.702 58.0503 138.514 53.5851 136.113 51.7705C133.713 49.9559 132.878 48.5214 133.096 47.5998ZM131.967 49.1864C131.967 49.1864 129.226 51.476 129.226 55.1146C129.226 58.7533 131.294 61.3564 136.265 61.3564C138.144 61.3564 139.538 60.7484 139.538 60.7484C139.538 60.7484 143.57 62.4109 145.221 61.7554C141.739 59.1048 142.811 54.9341 141.094 52.0935C139.386 49.2624 134.235 48.0939 133.163 44.7402C131.104 46.1653 131.958 49.1959 131.958 49.1959" fill="#102B4E"/>
<path d="M57.0941 47.334L53.6692 47.106L60.5853 45.6144C60.5853 45.6144 57.1225 50.5356 60.3671 54.5543L62.2266 53.2717C62.2266 53.2717 61.9989 53.9747 62.4354 54.6018L57.2838 57.7274C57.2838 57.7274 56.9233 57.0909 57.3882 56.7394L58.8777 55.5233C56.8664 52.9297 57.5494 48.8635 57.5494 48.8635C47.9768 57.2144 26.4693 77.9822 26.4693 77.9822C26.4693 77.9822 35.0363 65.9642 57.0846 47.353M50.6712 46.8115C50.6712 46.8115 56.2876 40.2657 78.0134 33.0264L73.5354 32.0099L76.8085 31.3829L83.2218 32.8649C83.2218 32.8649 77.7952 36.3231 81.2011 43.1538L85.0908 41.6623C84.3698 42.6123 84.626 43.9423 84.626 43.9423L78.2885 46.4219C77.1595 44.7119 79.4175 43.8758 79.4175 43.8758C76.5334 38.1471 80.3567 33.5869 80.3567 33.5869C64.7597 38.2611 50.6712 46.8115 50.6712 46.8115ZM65.4143 32.3044C65.4143 32.3044 76.1444 26.2052 97.1301 26.2052L92.6806 24.2576C92.6806 24.2576 100.716 24.9226 103.961 28.7418C97.7657 33.0074 100.422 37.8431 100.422 37.8431C99.8529 38.6696 99.5683 39.8287 99.5683 39.8287L93.4206 41.2822C93.1455 39.9522 94.2745 39.0402 94.2745 39.0402L99.2173 37.9571C96.4091 32.7604 101.817 28.6943 101.817 28.6943C89.0565 25.4356 65.4143 32.3234 65.4143 32.3234M86.9598 21.8825C86.9598 21.8825 118.315 15.4412 136.901 34.0525C131.36 33.3684 126.009 33.986 126.009 33.986C117.85 21.455 86.9598 21.8825 86.9598 21.8825ZM139.083 28.6087C138.618 31.3734 140.8 33.4539 141.881 35.8005L139.832 35.2305C139.282 33.3874 137.299 31.9339 135.895 30.0243C136.749 29.4068 137.802 28.7418 139.083 28.6087ZM147.564 42.2988C134.31 33.5774 123.571 39.3632 123.571 39.3632C126.683 51.5711 118.552 55.9223 118.552 55.9223C117.015 67.8358 134.377 70.7049 140.022 78.7042C140.022 78.7042 147.289 72.6525 159.044 80.8513C163.787 77.7067 168.844 81.1743 166.51 84.8034C164.736 81.4403 159.442 83.2834 158.693 85.2595C149.68 73.422 139.045 83.3024 139.045 83.3024C133.495 72.206 114.425 72.643 114.425 55.4188C114.425 55.4188 123.704 48.094 120.649 37.9666C123.827 34.366 143.295 33.758 147.564 42.2893M154.955 50.4406C152.384 60.3305 157.516 69.4698 162.421 77.7447C161.378 78.1057 160.4 78.5997 159.309 78.8657C155.429 68.0733 141.369 73.935 141.027 65.1472C142.773 64.9192 144.803 64.2256 145.97 63.1046C142.707 63.7506 138.769 61.9836 138.769 61.9836C130.924 64.2351 127.622 58.7724 127.622 54.8678C127.622 50.9631 130.212 48.9585 130.212 48.9585C129.519 44.9684 132.612 43.6478 132.612 43.6478L128.144 39.3632C147.175 37.9381 154.945 50.4406 154.945 50.4406M164.167 88.4326C164.167 88.4326 164.679 86.618 163.787 86.618C159.404 86.618 163.93 95.4154 155.638 95.4154C145.363 95.4154 148.589 86.2855 143.115 85.8295C138.836 85.4685 135.999 86.352 135.022 84.7274C135.022 84.7274 135.8 83.4544 136.635 83.4544C137.176 83.7014 136.559 85.3925 139.737 85.3925C140.828 85.3925 141.73 85.307 142.697 85.307C150.353 85.307 145.676 94.5413 155.344 94.5413C160.097 94.5413 159.537 90.4847 157.915 88.1096C157.915 88.1096 157.829 89.7436 154.471 89.7436C149.528 89.7436 147.593 86.3045 147.593 84.1479C147.593 81.9913 149.177 81.3168 150.344 81.3168C154.888 81.3168 156.786 87.226 158.968 87.226C160.372 87.226 160.296 84.5944 163.085 84.5944C166.852 84.5944 165.704 88.2236 164.167 88.4421M139.709 89.2211C139.709 89.2211 141.948 88.8411 143.912 89.5441C145.173 91.9572 147.953 95.0923 147.953 95.0923C140.885 95.3964 139.709 89.2211 139.709 89.2211ZM136.085 88.8886C136.085 88.8886 138.855 95.5104 145.306 96.6694C137.527 96.6694 136.331 92.9928 136.085 88.8886ZM130.686 78.4667L132.242 79.4927C132.356 79.9203 131.929 79.9583 131.702 80.1863C131.075 79.8538 131.037 79.0272 130.686 78.4667ZM131.967 86.219C132.925 83.8534 130.098 81.7253 127.423 82.7229C129.918 80.0248 135.174 83.2644 131.967 86.219ZM124.491 75.8351C125.658 76.5666 127.375 76.9941 128.618 77.7542C129.045 78.6757 129.434 79.5592 129.899 80.4523C128.922 80.3858 127.869 80.8703 127.29 81.0793C126.123 79.4262 125.345 77.6212 124.491 75.8351ZM117.414 43.3153L118.894 44.4364C118.932 45.0349 118.932 45.6904 118.543 46.0894C118.306 45.1299 117.063 44.3414 117.414 43.3248M108.429 24.8846C110.412 31.2879 119.748 30.2903 123.011 35.4015C121.417 36.0285 119.397 36.19 118.808 37.8431C119.159 39.0022 119.235 40.3797 119.159 41.5673C112.689 37.3681 104.312 31.6679 108.42 24.8846M108.818 39.1352C108.818 39.1352 108.467 37.7386 110.023 37.3871L112.357 39.2967L108.818 39.1352ZM108.078 39.0307C105.602 39.2302 103.8 39.4392 100.802 39.6862C100.612 38.8596 101.039 38.2041 101.542 37.7101C103.838 37.3776 106.285 37.2826 108.733 37.2161C108.069 37.6816 107.993 38.4416 108.069 39.0307M92.4814 41.5008C90.1855 42.2988 87.8137 42.7548 85.5557 43.4863C85.5178 42.6598 85.5178 41.8048 86.3337 41.2822C88.4683 40.4937 90.8401 39.9332 92.9462 39.3062C92.358 39.8952 92.5193 40.8167 92.4719 41.5103M70.0346 50.2981C70.0346 50.2981 69.4559 49.1866 70.7367 48.132L77.5485 44.7309C76.7231 45.9944 77.6339 46.6405 77.6339 46.6405L70.0441 50.2886L70.0346 50.2981ZM69.2282 50.7731L63.0046 54.1647C63.0046 54.1647 62.4164 53.1957 63.4031 52.5402L69.342 48.93C68.8582 49.7566 69.2282 50.7731 69.2282 50.7731ZM50.9463 62.2401V61.9741C52.5781 60.3875 54.7223 58.8104 56.4679 57.4899C56.4679 57.4899 56.373 57.8414 56.5438 58.2784L50.9463 62.2401ZM65.291 89.6676H77.8995C77.4346 89.3446 76.9698 89.0121 76.4954 88.6891C81.7323 80.1483 89.0185 70.6954 101.38 63.6556C96.6652 63.6556 91.6085 63.5036 89.5973 64.2446C95.9727 56.5683 104.549 49.9561 114.634 47.4385C113.847 47.4385 96.9688 45.9659 79.2941 61.594L86.3621 61.2995C77.539 66.7147 71.638 72.51 64.4751 82.0578C61.2305 80.5663 55.301 78.9797 51.9045 77.8112C67.2169 56.8724 93.4301 45.0824 93.4301 45.0824C74.2849 50.3931 54.561 62.1831 43.5748 76.6996C41.554 76.2056 40.7571 76.2056 36.9527 75.7686C36.9527 75.7686 74.3703 37.4631 113.42 40.5507C115.516 42.5553 116.494 45.2629 117.622 47.7425C117.12 50.6401 114.862 52.9867 112.177 54.4023C108.183 68.6433 121.901 74.7521 121.901 74.7521C107.68 74.7521 108.05 59.447 110.213 53.2527C105.422 57.7654 103.031 73.7165 112.898 77.9537C109.739 81.2883 106.276 85.3545 103.173 89.6676H110.621C112.12 87.9386 113.733 86.276 115.45 84.7084C114.378 86.3235 113.391 87.9861 112.461 89.6676H119.491C120.658 87.416 121.949 85.2215 123.381 83.1219L125.25 83.7489C125.25 83.7489 125.212 87.9481 130.383 88.3661C131.502 92.9263 132.128 99.738 142.517 99.738C147.574 99.738 149.167 96.9069 149.167 96.9069C160.173 98.636 164.85 94.9023 164.375 90.6462C172.658 83.4354 168.379 78.2672 165.78 78.0867C160.258 70.0399 155.239 61.271 156.719 51.0771C156.52 47.448 152.754 45.1394 149.983 42.9258C149.756 40.1897 147.223 38.0141 144.576 36.8266C143.172 33.9575 139.244 31.3544 140.373 27.7252C138.665 26.3477 134.889 29.0743 134.889 29.0743C127.888 23.203 102.206 15.1942 82.5008 21.7875C84.8347 22.804 87.4437 23.4975 89.768 24.6566C78.1746 25.1506 67.1315 28.2477 58.6974 34.385C62.3879 34.157 66.8279 34.0905 70.4805 34.4515C56.2687 38.9832 45.1591 48.6355 45.1591 48.6355C47.7681 48.5025 50.7186 48.1985 53.6787 48.303C36.4688 62.1546 20.8149 80.9843 20.8149 80.9843C38.8501 79.1032 53.1663 82.5804 65.31 89.6771" fill="#102B4E"/>
</g>
<defs>
<clipPath id="clip0_10_304166">
<rect width="200" height="166" fill="white" transform="translate(0 17)"/>
</clipPath>
</defs>
</svg>
