<svg width="200" height="201" viewBox="0 0 200 201" fill="none" xmlns="http://www.w3.org/2000/svg">
<g clip-path="url(#clip0_5_200214)">
<path d="M180.361 123.699L180.353 123.913L180.366 123.45V93.3243C181.069 93.3777 187.617 93.8807 187.617 93.8807L200 52.605L181.532 56.117L180.691 55.2713C175.216 49.6984 168.388 45.719 160.937 43.7694C157.38 42.8391 153.735 42.3673 150.093 42.3673C148.696 42.3673 147.285 42.4385 145.892 42.5765L144.903 42.6744L144.708 41.6996C144.378 40.0349 143.911 38.3702 143.319 36.7455C141.231 31.0168 136.9 24.3579 131.002 22.8623L130.495 22.7332L130.277 22.2569C129.347 20.2361 127.717 18.4601 125.563 17.1203C122.323 15.1039 117.782 13.9955 112.775 13.9955C109.744 13.9955 106.65 14.3872 103.588 15.1573C97.4584 16.6974 88.8765 21.3444 81.7457 26.9707L80.3837 28.1147L79.667 28.7378C75.5364 32.3477 64.5642 41.9355 50.9704 41.94C47.405 41.94 43.8618 41.2723 40.4344 39.9592L39.6599 39.661L39.9003 40.4578C42.7446 49.8141 47.2403 53.059 50.8413 54.8395L53.1648 55.9879L50.7211 56.8514C48.7626 57.5458 46.6527 57.8841 44.2758 57.8841C42.0057 57.8841 39.4641 57.5681 36.7222 56.9404L36.0589 56.7891L36.237 57.4434C37.6525 62.5756 40.5724 65.5045 42.7757 67.0579L43.9998 67.9215L42.8069 68.8251C39.2727 71.5002 34.5366 76.125 32.044 82.9486L31.679 84.0036L20.324 86.1223V150.7C20.324 155.093 15.9396 160.528 14.404 162.086L0 176.708L20.1816 173.071C20.1816 173.071 58.2881 166.012 74.4636 163.088C70.8982 169.105 66.8165 173.69 66.7542 173.757L54.923 186.812L73.3197 184.582C103.659 180.696 114.07 163.595 117.377 155.356C124.13 154.105 198.104 140.422 198.104 140.422L185.636 131.52C180.433 127.808 180.366 123.859 180.366 123.695L180.361 123.699Z" fill="#CBCCCE"/>
<path d="M175.39 123.748C175.39 123.615 175.394 123.53 175.399 123.503V87.1772C176.827 87.2885 183.486 88.5793 183.486 88.5793L191.868 59.9138L180.121 62.1038C175.029 55.7653 168.17 51.0515 159.957 48.9061C153.325 47.1701 146.706 47.3036 140.461 48.9773C140.884 38.9889 134.942 29.1651 129.89 27.901C128.675 27.5983 127.428 27.5983 126.177 27.8698C126.356 27.0998 126.382 26.3297 126.218 25.5775C125.083 20.2939 115.415 17.5031 104.821 20.1693C99.8266 21.4245 91.948 25.435 84.7683 31.1014C81.8483 33.4071 64.6401 50.1568 47.5832 46.4668C48.8384 48.4075 55.3727 54.0116 65.1697 52.8097C64.6846 53.3172 64.2038 53.8157 63.7142 54.3053C60.7942 57.2253 51.883 64.6009 44.2003 62.6023C45.5223 63.7329 51.1308 66.9511 58.8936 65.9229C57.0864 67.0134 55.0567 68.0639 52.7643 69.0565C45.0505 72.3993 37.6927 79.2853 36.5665 88.8865L26.0128 90.8539V150.704C26.0128 158.423 18.5126 166.025 18.4369 166.101L16.603 167.939C16.603 167.939 80.9536 156.041 83.5442 155.569C80.1301 166.769 70.5334 177.474 70.431 177.589L68.9443 179.223L71.1343 178.943C103.712 174.772 111.871 153.891 112.82 150.371C113.825 150.188 185.552 137.271 185.552 137.271L183.994 136.158C176.752 130.99 175.376 125.039 175.376 123.753L175.39 123.748ZM52.4884 80.4426C54.8074 80.6251 54.34 82.7528 52.3415 85.9888L46.9422 86.9947C46.9422 86.9947 46.9066 86.968 46.8888 86.9547L40.8441 88.0808C43.5326 84.7157 47.463 81.1904 52.4884 80.4382V80.4426Z" fill="#021D49"/>
<path d="M160.767 55.7074C165.637 57.0695 169.946 59.5755 173.578 62.9139L173.72 62.8872C169.701 58.4182 164.658 55.1021 158.809 53.4462C145.406 49.6539 131.323 55.5784 121.873 67.4407L123.173 69.0921L120.64 69.0565C119.736 70.2984 118.882 71.5981 118.081 72.9513L121.619 72.3103C131.038 58.7431 146.297 51.6613 160.767 55.703V55.7074Z" fill="white"/>
<path d="M93.4169 73.3163C94 72.9424 94.5964 72.564 95.2329 72.1768C91.9035 69.9646 89.5043 67.5832 88.0532 65.0416C87.4746 65.3576 86.9137 65.6692 86.3662 65.9852C87.8173 68.5046 90.123 70.9394 93.4169 73.3163Z" fill="#D7282F"/>
<path d="M88.623 63.2388C89.4732 62.7937 90.3589 62.3575 91.2759 61.9213C89.669 58.2491 91.5608 55.614 92.8249 54.4033C91.1646 55.1466 89.62 55.8944 88.1645 56.6422C87.6615 58.2802 87.4657 60.5459 88.5874 63.1632C88.5963 63.1899 88.6141 63.2166 88.623 63.2433V63.2388Z" fill="#D7282F"/>
<path d="M87.4565 63.8576C87.4298 63.7997 87.3986 63.7418 87.3763 63.6795C86.3526 61.2937 86.3214 59.1438 86.6285 57.4479C85.8718 57.8529 85.1419 58.2624 84.443 58.663C84.403 60.7729 84.8258 62.816 85.7561 64.8057C86.3081 64.4896 86.8734 64.1736 87.4565 63.8576Z" fill="#D7282F"/>
<path d="M96.528 71.4112C97.4004 70.9038 98.3263 70.3919 99.2922 69.8756C95.393 67.3785 93.1184 65.0995 91.8899 63.0875C90.9685 63.5237 90.0827 63.9689 89.2236 64.414C90.4433 66.5149 92.651 68.9275 96.528 71.4068V71.4112Z" fill="#D7282F"/>
<path d="M77.8555 70.0402C79.3333 68.9007 81.0292 67.7078 82.9388 66.5016C81.8438 64.4273 81.3364 62.3931 81.4521 60.4791C79.5603 61.6943 77.9134 62.8694 76.4935 63.9777C76.3065 64.8279 76.2665 65.8339 76.5335 66.9823C76.7472 67.9126 77.1612 68.9364 77.8555 70.0358V70.0402Z" fill="#D7282F"/>
<path d="M108.43 74.7051C105.137 73.2228 102.417 71.7985 100.182 70.4319L97.623 72.0878C99.497 73.205 101.723 74.3267 104.353 75.444L108.426 74.7095L108.43 74.7051Z" fill="#D7282F"/>
<path d="M101.998 75.8668C99.9108 74.9187 98.0324 73.9261 96.3632 72.8979L94.5249 74.0863C95.7267 74.8965 97.0487 75.7021 98.4909 76.5033L101.998 75.8668Z" fill="#D7282F"/>
<path d="M91.8053 75.849L87.8081 78.4351L93.9863 77.3179C93.2296 76.8327 92.4996 76.3431 91.8053 75.849Z" fill="#D7282F"/>
<path d="M83.2235 79.263L85.7206 78.809C81.808 76.3564 79.2397 74.0418 77.6105 71.9453C77.0853 72.3682 76.6046 72.7777 76.1372 73.1783C77.7441 75.1056 80.0809 77.1843 83.219 79.263H83.2235Z" fill="#D7282F"/>
<path d="M86.9314 78.0568C87.964 77.1933 89.2504 76.1873 90.7816 75.1012C87.5812 72.6754 85.1732 70.1515 83.6019 67.6633C81.7324 68.8562 80.0721 70.0269 78.6255 71.153C80.219 73.2362 82.8274 75.5642 86.9314 78.0613V78.0568Z" fill="#D7282F"/>
<path d="M72.83 74.3979C71.3789 72.6041 70.5288 70.8681 70.6133 69.4215C69.6919 70.4631 69.1177 71.2509 68.8284 71.6872C68.8284 71.6872 67.907 73.9572 70.3641 77.0508C70.9694 76.3342 71.784 75.435 72.8345 74.4024L72.83 74.3979Z" fill="#D7282F"/>
<path d="M79.0973 80.0108C77.032 78.5731 75.1669 76.9885 73.7158 75.4217C72.652 76.4677 71.8419 77.3669 71.2588 78.0568C72.1223 78.9337 73.2663 79.8551 74.7708 80.7943L79.0973 80.0108Z" fill="#D7282F"/>
<path d="M76.8314 70.8459C75.9946 69.5595 75.505 68.3621 75.2513 67.2805C75.0777 66.5416 75.0198 65.8339 75.0376 65.1617C74.4411 65.6647 73.8981 66.1455 73.3996 66.6039C73.1592 68.0194 73.7646 69.9378 75.3225 72.11C75.7987 71.6961 76.2973 71.2777 76.8359 70.8459H76.8314Z" fill="#D7282F"/>
<path d="M158.72 62.0949C157.456 61.7076 156.182 61.4539 154.909 61.3159L152.297 64.5742L152.252 61.2002C145.731 61.3426 139.366 64.5742 134.283 70.0224L164.119 64.6231C162.445 63.5415 160.643 62.6824 158.72 62.0904V62.0949Z" fill="#D7282F"/>
<path d="M60.1754 61.5073C60.1754 61.5073 70.0302 59.2239 81.403 49.2355C88.3691 43.1151 102.604 22.1412 118.766 25.4529C111.52 20.3518 95.1304 26.668 82.814 38.8197C78.3317 43.2442 71.7528 45.7546 68.9842 46.6805C68.9842 46.6805 76.115 46.587 82.7161 42.7724C77.0497 48.9728 67.1904 58.8589 60.1709 61.5073H60.1754Z" fill="#D7282F"/>
<path d="M96.1899 38.0319C105.818 38.4414 115.958 32.7038 118.317 30.2468C112.989 32.5525 105.613 35.1653 96.1899 38.0319Z" fill="#D7282F"/>
<path d="M132.316 52.2578C133.544 51.2341 136.001 50.0011 136.001 50.0011C137.639 40.9875 131.492 32.9976 128.625 31.5643C136.615 41.6017 132.316 52.2578 132.316 52.2578Z" fill="#D7282F"/>
<path d="M66.4336 67.9126C58.9289 69.5818 47.1466 76.628 44.0264 81.9071C49.1363 76.7971 59.7212 74.7808 59.7212 74.7808C62.3607 70.2584 66.4336 67.9126 66.4336 67.9126Z" fill="#D7282F"/>
<path d="M158.965 58.8633C162.517 59.8648 165.726 61.5741 168.535 63.8308L173.573 62.9184C169.941 59.58 165.637 57.0695 160.763 55.7119C146.292 51.6702 131.033 58.7521 121.615 72.3192L126.444 71.4468C134.674 60.8619 147.124 55.525 158.96 58.8633H158.965Z" fill="#CBCCCE"/>
<path d="M98.4864 76.5033C97.0443 75.7066 95.7267 74.9009 94.5204 74.0864L91.8008 75.849C92.4952 76.3431 93.2207 76.8327 93.9819 77.3179L98.4864 76.5033Z" fill="white"/>
<path d="M90.7818 75.1012C91.5919 74.527 92.4688 73.9306 93.4169 73.3163C90.123 70.9394 87.8173 68.5046 86.3662 65.9852C85.3959 66.5416 84.4745 67.1025 83.6021 67.6589C85.1733 70.1515 87.5814 72.6753 90.7818 75.0968V75.1012Z" fill="white"/>
<path d="M85.7565 64.8056C84.8262 62.8115 84.4033 60.7684 84.4434 58.663C84.4167 58.6764 84.3944 58.6942 84.3677 58.7075C83.9137 58.9702 83.473 59.2328 83.0412 59.4954C82.9344 59.5577 82.832 59.6245 82.7252 59.6912C82.3246 59.9361 81.9329 60.1809 81.5546 60.4257C81.5234 60.4479 81.4878 60.4658 81.4566 60.488C81.3365 62.402 81.8483 64.4362 82.9433 66.5104C83.8336 65.9451 84.7728 65.3798 85.7609 64.8145L85.7565 64.8056Z" fill="white"/>
<path d="M75.318 72.11C73.7601 69.9379 73.1548 68.0194 73.3951 66.6039C73.3907 66.6084 73.3818 66.6128 73.3773 66.6217C72.2423 67.6678 71.3342 68.607 70.6354 69.3993C70.6309 69.4082 70.622 69.4126 70.6176 69.4215C70.533 70.8682 71.3832 72.6041 72.8343 74.3979C73.5509 73.6902 74.3788 72.9246 75.3225 72.11H75.318Z" fill="white"/>
<path d="M79.0972 80.0108L83.2279 79.263C80.0898 77.1843 77.753 75.1056 76.1461 73.1783C75.2247 73.975 74.4146 74.7273 73.7202 75.4172C75.1713 76.9885 77.0319 78.5686 79.1017 80.0064L79.0972 80.0108Z" fill="white"/>
<path d="M116.923 41.0141V48.9283L118.895 49.1687L119.963 47.5529L121.325 51.0693H115.891V53.4017H120.658L122.109 57.1452H121.343L119.416 56.0057H114.635V58.7832H118.966L117.204 61.6542L113.945 61.5207L112.276 64.276L115.917 66.3992C115.917 66.3992 117.337 64.1825 119.794 62.1171C122.251 60.0473 123.177 59.4642 123.177 59.4642L125.603 52.3735H123.854L126.845 48.1939L127.357 44.4059L125.812 43.1418L123.68 44.2679L120.582 43.8762L119.447 41.2055L126.364 38.5838C125.372 34.9071 122.563 34.2573 122.563 34.2573C122.149 34.689 111.257 37.7425 108.448 38.4325L114.871 40.3999L116.928 41.0141H116.923Z" fill="#CBCCCE"/>
<path d="M106.735 61.5652L106.027 60.1497L104.647 58.2134L102.337 52.4759C102.337 52.4759 102.711 57.5057 103.321 58.6541C103.899 59.7402 104.727 60.3812 106.73 61.5607L106.735 61.5652Z" fill="#CBCCCE"/>
<path d="M106.851 52.1777L110.447 50.6019L113.955 43.2531L109.276 43.9697L105.497 43.0795L102.515 46.2754L107.643 49.1776L106.851 52.1777Z" fill="#CBCCCE"/>
<path d="M61.6756 90.8183C65.0763 95.2606 64.8003 100.963 64.7825 101.163V124.033L48.8919 93.0483L32.7697 96.0618C32.7697 104.065 32.7697 149.627 32.7697 149.552C32.7831 149.805 33.0145 154.55 30.4907 158.757L51.3489 154.888C47.9482 150.442 48.2242 144.744 48.242 144.539V121.607L64.1327 152.592L80.2548 149.578C80.2548 141.575 80.2548 96.0707 80.2548 96.1464C80.2415 95.8926 80.01 91.1432 82.5338 86.9369L61.6756 90.8094V90.8183Z" fill="white"/>
<path d="M90.3054 84.9205C93.7106 89.3672 93.4301 95.0603 93.4168 95.2695V145.443C93.4079 146.048 93.1542 158.926 85.8364 169.021C93.5993 166.332 108.885 158.276 108.885 136.532C108.885 136.532 108.885 90.1729 108.885 90.2575C108.871 90.0037 108.64 85.2588 111.164 81.0524L90.3054 84.9205Z" fill="white"/>
<path d="M137.599 128.075C137.599 128.137 137.599 85.7306 137.599 85.7484C137.586 85.4903 137.354 80.7453 139.874 76.5434L119.016 80.4115C122.416 84.8493 122.14 90.5512 122.127 90.756C122.127 90.756 122.127 133.256 122.127 133.167C122.145 133.425 122.372 138.174 119.848 142.376L140.702 138.508C137.301 134.061 137.586 128.351 137.599 128.075Z" fill="white"/>
<path d="M141.712 87.422L152.964 83.0332C152.964 83.0332 152.964 127.652 152.964 127.567C152.978 127.821 153.209 132.57 150.685 136.772L171.544 132.9C168.139 128.457 168.419 122.76 168.432 122.555V80.1399L179.031 80.7764L182.801 68.1173L145.722 75.6131L141.712 87.4265V87.422Z" fill="white"/>
<path d="M68.7974 131.782V98.2918C68.7974 98.2918 68.0496 93.8985 61.8091 91.0097C65.0629 95.4208 64.7958 100.958 64.7825 101.158V124.028L64.5777 123.628L64.6044 123.882L68.8019 131.782H68.7974Z" fill="#CBCCCE"/>
<path d="M157.135 131.636V77.9989L147.125 81.7824L149.386 74.8653L145.718 75.6042L141.708 87.4176L152.96 83.0287C152.96 83.0287 152.96 127.647 152.96 127.563C152.973 127.816 153.205 132.566 150.681 136.768L171.539 132.895C170.667 131.76 170.039 130.536 169.585 129.348L157.131 131.631L157.135 131.636Z" fill="#CBCCCE"/>
<path d="M90.3054 84.9205C93.7106 89.3673 93.4301 95.0603 93.4168 95.2695V145.443C93.4079 146.048 93.1542 158.926 85.8364 169.021C97.5608 159.282 97.5386 144.379 97.5386 144.379V92.7234C97.5386 92.7234 97.7656 87.244 90.3099 84.925L90.3054 84.9205Z" fill="#CBCCCE"/>
<path d="M37.3767 99.4358L33.3706 95.946L32.7697 96.0573C32.7697 104.061 32.7697 149.623 32.7697 149.547C32.7831 149.801 33.0145 154.546 30.4907 158.752L51.3489 154.884C50.4854 153.758 49.8578 152.547 49.4037 151.363L37.3767 153.562V99.4313V99.4358Z" fill="#CBCCCE"/>
<path d="M48.2505 114.521V121.629L64.1278 152.592L80.2499 149.578V145.884L65.9795 148.403L48.2505 114.516V114.521Z" fill="#CBCCCE"/>
<path d="M125.906 137.324V87.5244C125.906 87.5244 125.323 83.2424 119.341 80.3536L119.016 80.4159C122.416 84.8537 122.14 90.5557 122.127 90.7604C122.127 90.7604 122.127 133.26 122.127 133.171C122.145 133.429 122.372 138.179 119.848 142.381L140.702 138.513C139.838 137.382 139.215 136.167 138.765 134.987L125.91 137.324H125.906Z" fill="#CBCCCE"/>
<path d="M168.432 80.1355L179.03 80.772L180.17 76.944L168.432 76.1517V80.1355Z" fill="#CBCCCE"/>
</g>
<defs>
<clipPath id="clip0_5_200214">
<rect width="200" height="172.812" fill="white" transform="translate(0 14)"/>
</clipPath>
</defs>
</svg>
