<svg width="200" height="201" viewBox="0 0 200 201" fill="none" xmlns="http://www.w3.org/2000/svg">
<g clip-path="url(#clip0_5_200235)">
<path d="M163.911 82.4137C164.48 82.7133 165.029 83.0059 165.536 83.2986C167.134 77.5712 164.327 71.7602 160.424 68.2485C160.737 70.7568 160.737 74.2616 159.854 77.9892C161.056 77.9544 162.084 77.2437 162.584 76.2125C162.945 76.5887 163.279 76.9929 163.529 77.4736C164.341 78.9856 164.425 80.7345 163.904 82.4067L163.911 82.4137Z" fill="white"/>
<path d="M190.373 145.798C197.375 136.699 200 124.24 200 112.793C200 105.56 196.68 98.8713 191.797 93.6873C189.338 91.0745 186.505 88.8169 183.462 86.9217C182.698 86.4479 174.753 82.8108 174.773 82.5948C175.524 74.1222 172.294 64.2699 166.064 56.1178C165.952 55.9784 165.841 55.8391 165.73 55.6928C165.473 55.3304 165.216 54.9751 164.945 54.6128C153.027 38.9216 130.794 29.7662 98.8574 27.3902C43.9312 23.3072 21.858 52.4458 20.9481 53.6861L17.6003 58.2429L24.8863 61.5456C16.746 71.6626 12.2938 84.2113 11.9396 98.2163C11.6617 109.016 13.8913 117.315 14.5025 119.356C13.3426 120.812 12.2591 122.31 11.2728 123.822C11.2658 123.829 -0.00694244 141.165 3.20832e-06 141.165L17.7878 130.672C19.2672 129.801 20.8786 128.971 22.5873 128.184C18.5518 135.026 11.8632 147.812 9.89755 152.766C9.89755 152.766 1.85449 173 1.86144 173C9.79337 164.722 16.9404 158.006 22.3372 153.17C24.15 151.386 26.5463 149.185 29.526 146.781C30.4636 146.021 31.4846 145.227 32.5751 144.412L36.423 147.213C42.0559 151.359 47.6819 155.379 50.5921 156.619C66.1156 165.127 84.5911 169.621 104.018 169.621C113.575 169.621 122.994 168.52 131.995 166.346C132.822 166.144 133.648 165.935 134.461 165.719C134.982 165.579 135.496 165.433 136.01 165.287C136.239 165.224 136.461 165.161 136.69 165.099C149.144 161.503 160.445 155.846 169.648 148.571C170.516 149.902 171.141 151.219 171.433 152.341L172.905 157.964L172.933 158.075C172.933 158.075 178.281 155.567 178.323 155.546C183.303 153.212 187.262 149.84 190.366 145.805L190.373 145.798Z" fill="white"/>
<path d="M140.288 90.3986C137.412 91.2417 135.009 91.1093 132.78 90.3428C131.585 93.109 128.376 95.0878 124.591 95.0878C119.791 95.0878 115.902 91.9036 115.902 87.9669C115.902 87.1656 116.068 86.3991 116.367 85.6815C116.909 85.9114 117.499 86.0438 118.124 86.0438C120.041 86.0438 121.667 84.8384 122.313 83.1383C118.319 79.8705 113.54 76.317 106.622 74.0176C105.858 76.0661 105.435 78.2888 105.435 80.609C105.435 91.0187 113.846 99.4565 124.229 99.4565C131.029 99.4565 136.989 95.8333 140.288 90.3986Z" fill="white"/>
<path d="M123.459 92.5655C123.091 92.5028 122.744 92.4123 122.403 92.3008C122.737 92.4192 123.091 92.5028 123.459 92.5655Z" fill="white"/>
<path d="M118.896 88.0992C119.048 88.2874 119.222 88.4616 119.403 88.6288C119.222 88.4616 119.055 88.2874 118.896 88.0992Z" fill="white"/>
<path d="M165.474 129.403C167.988 130.665 170.322 132.19 172.385 133.995C172.565 134.148 172.725 134.323 172.899 134.476C172.725 134.316 172.565 134.148 172.385 133.995C170.322 132.19 167.995 130.665 165.474 129.403Z" fill="white"/>
<path d="M178.19 140.419C178.343 140.273 178.552 140.064 178.774 139.827C178.545 140.064 178.343 140.266 178.19 140.419Z" fill="white"/>
<path d="M165.112 89.3395C177.614 95.5686 191.7 109.385 179.538 139.019C182.851 135.312 189.596 125.961 188.512 112.235C187.651 101.338 179.955 93.7849 165.112 89.3465C160.66 88.0157 155.569 86.9635 149.825 86.1901C149.818 86.1901 149.804 86.1901 149.797 86.1901C149.429 87.2701 148.978 88.4267 148.422 89.6043C148.998 88.4407 149.464 87.291 149.825 86.1971C155.569 86.9705 160.667 88.0226 165.112 89.3534V89.3395Z" fill="white"/>
<path d="M177.94 140.663C177.183 139.388 176.336 138.197 175.412 137.089C176.343 138.197 177.183 139.388 177.94 140.663Z" fill="white"/>
<path d="M124.591 92.6561C124.397 92.6561 124.209 92.6491 124.015 92.6352C124.202 92.6491 124.397 92.6561 124.591 92.6561Z" fill="white"/>
<path d="M148.623 135.493C138.587 134.337 133.579 137.347 131.37 142.008C130.155 144.913 129.099 148.181 128.231 151.874C124.39 152.801 120.403 153.518 116.312 153.999C114.576 154.201 112.812 154.362 111.04 154.48C108.477 154.626 105.894 154.661 103.317 154.557C90.2799 154.034 81.4589 153.059 70.7001 148.92C57.802 144.335 70.1236 131.368 77.6319 125.07L80.8616 122.812C61.1707 124.986 37.3818 141.883 37.3818 141.883L39.4377 143.715C41.4034 145.143 49.37 151.066 52.447 152.264C67.1578 160.368 85.0151 164.778 103.741 164.778C110.582 164.778 117.34 164.172 123.911 163.008C124.029 162.988 124.147 162.967 124.265 162.946C125.217 162.772 126.161 162.59 127.106 162.395C127.286 162.36 127.467 162.319 127.647 162.277C128.168 162.165 128.689 162.061 129.203 161.949C129.203 161.949 129.203 161.935 129.203 161.928C129.662 161.824 130.12 161.726 130.572 161.622C144.748 158.201 157.041 152.216 166.682 144.488C163.682 141.283 158.104 137.11 148.623 135.493Z" fill="#001B49"/>
<path d="M119.395 127.885C126.299 125.522 134.759 124.185 143.198 124.387C148.65 124.519 154.089 125.293 159.097 126.853C161.319 127.543 163.452 128.386 165.466 129.403C167.98 130.665 170.314 132.191 172.377 133.995C172.557 134.148 172.717 134.323 172.891 134.476C173.78 135.291 174.627 136.148 175.405 137.082C176.336 138.19 177.183 139.381 177.933 140.656C178.003 140.594 178.086 140.517 178.19 140.412C178.343 140.266 178.551 140.057 178.774 139.82C178.996 139.583 179.246 139.325 179.531 139.012C191.7 109.385 177.614 95.5616 165.105 89.3326C160.652 88.0017 155.561 86.9496 149.817 86.1762C149.456 87.2701 148.991 88.4198 148.414 89.5834C146.324 94.0148 142.74 98.8294 136.412 101.791C129.953 104.808 123.577 104.013 117.499 102.285C115.964 102.836 114.172 103.811 112.957 104.731C106.206 109.838 102.962 119.962 102.962 119.962C106.546 117.586 110.171 116.116 113.512 115.224C120.319 113.406 125.924 113.991 127.466 114.207C127.466 114.207 127.466 114.207 127.473 114.207L127.897 114.277C127.897 114.277 121.653 118.757 119.388 127.878L119.395 127.885Z" fill="#A7A8A9"/>
<path d="M157.458 99.0454C157.458 99.0454 157.041 100.892 158.93 101.616C160.264 102.132 161.479 101.693 162.104 100.669C162.202 100.536 162.285 100.39 162.354 100.237C162.966 98.8991 162.764 97.4219 160.833 96.3141C159.146 95.3386 153.443 94.4816 149.373 97.7703C149.373 97.7703 153.777 97.4638 157.465 99.0454H157.458Z" fill="#001B49"/>
<path d="M161.779 81.3824C162.39 80.7693 162.806 79.9959 162.945 79.1319C162.181 79.8426 161.202 80.3652 160.098 80.6578C160.681 80.8947 161.244 81.1386 161.779 81.3824Z" fill="#00B3E3"/>
<path d="M130.293 88.0505C129.828 88.6149 129.238 89.1026 128.564 89.4997C128.112 89.7645 127.619 89.9805 127.098 90.1477C126.834 90.2313 126.57 90.301 126.293 90.3637C125.744 90.4822 125.167 90.5449 124.57 90.5449C124.278 90.5449 123.987 90.531 123.702 90.5031C122.563 90.3846 121.514 90.0432 120.618 89.5276C120.174 89.2698 119.764 88.9702 119.403 88.6358C119.222 88.4685 119.055 88.2943 118.896 88.1062C118.944 89.6809 119.944 91.0675 121.452 91.8896C121.75 92.0499 122.07 92.1962 122.41 92.3077C122.75 92.4192 123.098 92.5098 123.466 92.5725C123.646 92.6003 123.834 92.6282 124.021 92.6422C124.209 92.6561 124.403 92.6631 124.598 92.6631C125.181 92.6631 125.744 92.5934 126.279 92.454C128.578 91.8687 130.259 90.1268 130.3 88.0505H130.293Z" fill="#00B3E3"/>
<path d="M194.867 113.106C194.548 108.166 193.006 103.602 190.318 99.7561C190.026 99.338 189.72 98.9339 189.401 98.5368C189.387 98.3277 188.345 97.2965 188.345 97.2965C187.574 96.4534 186.734 95.6522 185.831 94.9066C182.337 91.7921 177.336 88.8935 169.106 85.6188C169.085 85.6048 169.071 85.5909 169.057 85.5839C172.544 68.2345 155.867 48.6136 131.148 39.486C143.83 47.5476 151.846 58.2708 152.207 71.3699C150.144 66.9942 145.963 61.7825 140.837 56.9539C130.648 46.9832 113.193 35.4935 86.8692 35.4935C86.0635 35.4935 85.2647 35.5075 84.4729 35.5353C48.1819 36.3715 29.9565 55.853 29.9565 55.853L35.2005 58.647C33.7836 60.2496 32.457 61.887 31.2206 63.5522C25.4419 70.6314 21.4481 78.8253 19.4408 87.6881C18.5101 91.3462 18.0447 94.7533 18.0447 97.7355C17.9822 98.8712 17.9475 100.007 17.9475 101.157C17.9475 104.884 18.3712 108.563 19.2116 112.165C19.3227 112.681 19.3991 112.96 19.3991 112.967C22.3094 110.047 25.5599 106.905 28.109 104.731C28.0395 104.013 27.9979 103.296 27.9701 102.571C29.387 71.2236 60.0381 60.9672 60.0381 60.9672L53.5231 57.5461C61.3509 52.9475 70.8525 49.7424 81.8475 48.3558L81.785 48.5021C109.984 44.7396 131.148 60.0336 140.642 77.9125C140.969 78.5466 141.302 79.1598 141.608 79.8147C139.531 81.9677 134.391 80.9574 131.891 78.9856C108.72 60.7721 94.94 61.239 81.8128 73.1188C81.8128 73.1188 87.3484 71.4117 95.1553 71.8437C94.5789 73.6623 94.2594 75.5854 94.2594 77.5851C94.2594 79.5848 94.565 81.4312 95.1137 83.201C86.4455 83.0268 60.1423 83.3543 45.0842 92.9487C45.0842 92.9487 55.5721 91.7921 66.7337 94.3074C66.7337 94.3074 58.135 96.0981 47.4735 100.857C36.4507 105.783 23.2262 113.88 15.0303 126.477C28.5049 118.534 46.0565 116.409 46.0565 116.409C46.0565 116.409 33.1724 122.589 22.2191 139.026C19.2811 143.436 16.475 148.585 14.0996 154.557C14.0996 154.557 18.1211 149.484 26.1781 142.983C36.4507 134.692 53.28 124.066 76.6869 118.659L76.673 118.645C76.4993 118.478 72.9362 115.175 64.6778 111.378C64.6917 111.378 64.6987 111.371 64.7126 111.364C78.9998 105.1 91.363 106.111 91.363 106.111V106.097C91.2936 105.936 89.3488 101.456 82.3684 98.9897C82.3684 98.9897 82.3753 98.9897 82.3823 98.9827C82.6462 98.8224 89.953 94.5234 103.379 97.7912C107.817 98.8712 112.568 100.892 117.513 102.292C123.591 104.02 129.967 104.815 136.426 101.798C142.747 98.8364 146.338 94.0217 148.428 89.5903C148.984 88.4128 149.443 87.2562 149.804 86.1762C149.811 86.1762 149.818 86.1762 149.832 86.1762C155.576 86.9496 160.674 88.0017 165.119 89.3325C179.962 93.7709 187.658 101.324 188.519 112.221C189.602 125.954 182.851 135.298 179.545 139.005C179.26 139.318 179.017 139.583 178.788 139.813C178.559 140.05 178.357 140.252 178.204 140.405C178.1 140.503 178.017 140.586 177.947 140.649C177.19 139.374 176.343 138.183 175.419 137.075C174.641 136.148 173.794 135.284 172.905 134.469C172.731 134.309 172.572 134.141 172.391 133.988C170.328 132.184 168.001 130.658 165.48 129.396C163.466 128.386 161.327 127.543 159.111 126.846C154.103 125.286 148.658 124.512 143.212 124.38C134.773 124.178 126.314 125.515 119.41 127.878C121.667 118.757 127.918 114.277 127.918 114.277C117.868 115.768 106.116 124.213 102.962 133.814C102.191 136.148 101.907 138.545 102.233 140.921C102.289 141.325 102.365 141.736 102.455 142.14C102.455 142.14 102.455 142.126 102.469 142.098V142.085C102.483 142.036 102.504 141.966 102.539 141.855C102.559 141.945 102.566 142.043 102.594 142.133C102.594 142.133 105.817 131.062 114.86 126.191C114.867 126.191 114.874 126.184 114.881 126.177C114.381 127.494 113.999 128.923 113.791 130.483C113.575 132.093 113.534 133.842 113.707 135.737C113.707 135.751 113.707 135.765 113.707 135.779C113.742 135.765 113.77 135.758 113.804 135.744C113.804 135.765 113.804 135.779 113.804 135.8C151.755 121.126 172.891 139.862 175.85 151.163C175.899 151.149 175.919 151.142 175.982 151.115C188.692 145.157 195.826 128.003 194.867 113.085V113.106ZM161.778 81.3824C161.243 81.1386 160.674 80.8947 160.097 80.6578C161.202 80.3652 162.188 79.8356 162.945 79.1319C162.806 79.9959 162.389 80.7623 161.778 81.3824ZM163.535 77.4805C163.278 76.9998 162.952 76.5957 162.591 76.2194C162.091 77.2506 161.063 77.9613 159.861 77.9962C160.743 74.2685 160.743 70.7637 160.431 68.2554C164.334 71.7671 167.133 77.5781 165.543 83.3055C165.036 83.0198 164.487 82.7202 163.917 82.4206C164.431 80.7484 164.355 78.9995 163.542 77.4875L163.535 77.4805ZM124.591 92.6561C124.397 92.6561 124.209 92.6491 124.015 92.6352C123.827 92.6212 123.639 92.5934 123.459 92.5655C123.091 92.5028 122.743 92.4122 122.403 92.3007C122.063 92.1892 121.743 92.0429 121.445 91.8827C119.944 91.0675 118.944 89.6809 118.889 88.0992C119.041 88.2804 119.215 88.4616 119.396 88.6288C119.757 88.9632 120.167 89.2628 120.611 89.5206C121.507 90.0362 122.556 90.3777 123.695 90.4961C123.98 90.524 124.272 90.5379 124.563 90.5379C125.161 90.5379 125.737 90.4752 126.286 90.3568C126.564 90.301 126.828 90.2244 127.091 90.1408C127.612 89.9735 128.106 89.7506 128.557 89.4928C129.231 89.0956 129.821 88.6079 130.286 88.0435C130.245 90.1129 128.564 91.8618 126.265 92.447C125.737 92.5794 125.167 92.6561 124.584 92.6561H124.591ZM105.435 80.609C105.435 78.2958 105.859 76.0731 106.623 74.0176C113.534 76.317 118.319 79.8704 122.313 83.1383C121.667 84.8384 120.042 86.0438 118.125 86.0438C117.5 86.0438 116.902 85.9114 116.367 85.6815C116.069 86.3991 115.902 87.1656 115.902 87.9669C115.902 91.8966 119.792 95.0878 124.591 95.0878C128.376 95.0878 131.585 93.109 132.78 90.3428C135.003 91.1093 137.413 91.2416 140.288 90.3986C136.989 95.8333 131.03 99.4565 124.23 99.4565C113.846 99.4565 105.435 91.0187 105.435 80.609Z" fill="#001B49"/>
<path d="M33.0132 155.609L34.2773 159.281H35.0066L36.2568 155.609V159.281H37.0903V154.731H35.7984L34.6384 157.992L33.4785 154.731H32.1797V159.281H33.0132V155.609Z" fill="#001B49"/>
<path d="M29.0262 159.281H29.9361V155.49H31.4155V154.731H27.5537V155.49H29.0262V159.281Z" fill="#001B49"/>
</g>
<defs>
<clipPath id="clip0_5_200235">
<rect width="200" height="146" fill="white" transform="translate(0 27)"/>
</clipPath>
</defs>
</svg>
