<svg width="200" height="200" viewBox="0 0 200 200" fill="none" xmlns="http://www.w3.org/2000/svg">
<path d="M100 28C44.8 28 0 60.3077 0 100.185C0 140.062 44.7385 172.369 100 172.369C155.262 172.369 200 140.062 200 100.185C200 60.3077 155.2 28 100 28Z" fill="#592C82"/>
<path d="M100 33.7231C151.939 33.7231 194.215 63.5078 194.215 100.185C194.215 136.862 151.939 166.646 100 166.646C48.0616 166.646 5.78467 136.862 5.78467 100.185C5.78467 63.5078 48.0001 33.7231 100 33.7231Z" fill="white"/>
<path d="M131.385 74.6465C133.723 76.1849 135.754 78.0311 137.354 80.1234C138.585 81.7234 139.508 83.3849 140.123 85.0465H152.308C147.569 79.2003 139.692 75.508 131.385 74.6465Z" fill="#592C82"/>
<path d="M87.8769 45.4768C106.523 45.9076 121.661 51.9999 131.077 61.4768C131.692 60.4306 132.185 59.3229 132.431 58.2153C134.892 47.8768 120.369 39.9999 99.9384 40.6768C90.523 40.9845 81.4769 43.0768 74.2153 46.2153C78.7692 45.5999 83.323 45.3537 87.8769 45.4768Z" fill="#592C82"/>
<path d="M99.2002 68.123L112.062 73.5384C112.123 73.5384 103.139 79.7538 99.2002 68.123Z" fill="#592C82"/>
<path d="M146.523 49.1079C147.261 51.0771 147.569 53.2925 147.261 55.631C146.769 59.4464 144.861 63.0156 142.031 65.9079C147.508 67.8771 155.323 71.5079 161.908 77.7233L158.031 80.8618C165.969 85.7848 175.692 94.5233 175.692 94.5233L169.415 94.7079L167.877 94.7695L167.015 96.7387C167.015 96.7387 170.708 98.3387 173.169 102.462C172.985 103.139 172.738 103.877 172.369 104.616C170.523 108.431 166.584 111.569 162.523 112.862C163.508 110.831 164.061 108.616 164.061 106.462C164.061 106.216 164.061 105.969 164.061 105.785C161.6 102.769 156.738 101.6 150.831 103.139C142.092 105.416 134.277 112.739 132.923 119.754C134.092 123.139 136.184 126.831 140.061 129.969C142.277 130.4 144.861 130.277 147.692 129.539C148.246 129.416 148.8 129.231 149.354 129.046C146.154 134.462 141.231 138.031 136.246 140.431C131.631 140.123 127.754 139.077 124.677 137.908C124.8 137.108 124.861 136.308 124.923 135.508C125.231 127.508 121.169 120.246 114.831 116L125.538 107.262C123.692 107.631 121.723 107.877 119.754 107.939C106.708 108.308 97.1076 100.616 98.2768 90.831C98.3999 90.031 98.523 89.2925 98.7691 88.5541C93.2922 94.6464 87.0153 106.769 99.5691 123.508C115.384 144.493 109.169 156.616 104.984 160.677C150.461 158.708 186.646 132.308 186.646 100.123C186.708 78.7694 170.646 59.8771 146.523 49.1079Z" fill="#592C82"/>
<path d="M77.1079 52.0615C41.8463 52.0615 13.231 73.6 13.231 100.185C13.231 116.738 22.5233 131.692 37.5386 142.708C36.6156 139.323 36.0002 135.815 35.754 132.185C35.2617 123.692 36.9233 115.569 40.2463 108.123C40.2463 108.492 40.2463 108.862 40.3079 109.231C41.9079 136.123 64.7386 157.354 93.7233 161.169C80.7386 147.508 72.6156 129.785 72.9233 112.185C73.231 96.8 79.8771 84.3692 90.5233 76.5538C93.1079 77.9692 96.1233 78.5846 99.0771 78.0923C99.3848 78.0308 99.6925 77.9692 100 77.9077C96.3079 75.5692 93.5386 72.3077 92.6771 68.9846C92.2463 67.2615 92.3694 65.6615 92.9233 64.3692C92.9233 64.3692 101.846 59.4461 116.185 67.7538C118.831 67.5692 121.6 67.6307 124.369 67.8154C112.677 58.1538 95.8771 52.0615 77.1079 52.0615Z" fill="#592C82"/>
<path d="M182.277 150.954H180.677V155.262H179.2V150.954H177.6V149.785H182.277V150.954ZM190.154 155.323H188.677V151.015H188.492L187.139 154.031H186.154L184.8 150.954H184.615V155.323H183.2V149.785H185.6L186.708 152.492L187.877 149.785H190.215V155.323H190.154Z" fill="#592C82"/>
</svg>
