<?xml version="1.0" encoding="UTF-8"?>
<svg width="200px" height="200px" viewBox="0 0 200 200" version="1.1" xmlns="http://www.w3.org/2000/svg" xmlns:xlink="http://www.w3.org/1999/xlink">
    <!-- Generator: Sketch 54.1 (76490) - https://sketchapp.com -->
    <title>queens-nc</title>
    <desc>Created with Sketch.</desc>
    <g id="queens-nc" stroke="none" stroke-width="1" fill="none" fill-rule="evenodd">
        <g id="queens-nc_BGL" fill="#243167">
            <g id="queens-nc" transform="translate(21.000000, 0.000000)">
                <g id="g10" transform="translate(78.213910, 99.789780) scale(-1, 1) rotate(-180.000000) translate(-78.213910, -99.789780) translate(0.139668, 0.206712)" fill-rule="nonzero">
                    <g id="g12" transform="translate(0.251402, 0.000000)">
                        <path d="M93.1214813,25.8408144 C54.5483362,44.75372 55.2575688,72.5540163 55.2575688,72.5540163 C49.1093968,69.8014453 41.095823,63.692101 41.095823,63.692101 C41.095823,63.692101 36.0549365,91.3873672 56.3006071,108.622361 C56.3006071,108.622361 50.2415431,111.440296 48.8007312,119.056935 C48.8007312,119.056935 54.6701264,109.641097 68.0025254,109.641097 C68.0025254,109.641097 50.9708878,97.9028652 47.8724997,76.6172289 C47.8724997,76.6172289 56.8562052,83.4922316 66.7050125,84.7408608 C66.7050125,84.7408608 51.1337404,59.0056911 93.1214813,25.8408144" id="path14"></path>
                        <path d="M42.6081448,121.406704 C16.9487867,98.7514861 30.1930833,63.9907105 30.1930833,63.9907105 C9.31125426,86.9328057 21.1825615,114.711593 42.6081448,121.406704" id="path16"></path>
                        <path d="M101.188687,103.842374 C100.31772,103.872542 99.6394934,104.663061 99.6730136,105.609729 C99.7065338,106.55472 100.440069,107.29468 101.312712,107.262836 C102.182283,107.232667 102.86023,106.440472 102.82671,105.495481 C102.79319,104.550489 102.059655,103.81025 101.188687,103.842374 L101.188687,103.842374 Z M99.0118267,99.6160292 C95.9218186,99.592565 93.310312,102.288152 93.4245602,105.497157 C93.4949527,107.439096 94.3374283,109.129355 95.5743254,110.141387 L98.2179555,109.506737 C96.6972537,108.87907 92.9594668,103.211355 99.0118267,99.6160292 C99.3640687,99.6177052 98.6774623,99.5389326 99.0118267,99.6160292 Z M91.7485478,102.150439 C86.7534723,105.045751 86.1149116,110.852854 86.5344734,113.078598 L92.9837689,110.950342 C88.6468076,106.613101 91.7485478,102.150439 91.7485478,102.150439 L91.7485478,102.150439 Z M132.075361,86.1389345 L115.121937,110.717376 C92.7220317,114.268847 72.9671534,124.881077 64.6454727,134.384068 C64.6454727,134.384068 68.9170695,133.491312 71.9517692,134.203058 C71.9517692,134.203058 60.8775175,141.762433 50.9650218,157.23901 C50.9650218,157.23901 53.3617195,145.6262 60.4629838,138.737789 L53.6418929,141.504047 C53.6418929,141.504047 56.0916643,129.597376 80.7648008,115.854634 C80.7648008,115.854634 78.4739713,102.593465 92.1354274,96.8670896 L80.7860303,89.9035376 L111.561807,99.1190915 C111.561807,99.1190915 114.7845,97.1559224 113.039212,90.590144 C107.735192,70.6405689 128.890658,71.0768907 128.890658,71.0768907 C116.653533,75.5549164 120.813395,91.6105562 132.075361,86.1389345 L132.075361,86.1389345 Z" id="path18"></path>
                        <path d="M140.130835,81.9983459 C136.868756,82.2131549 136.439138,80.0061259 132.217263,80.1823866 C128.502102,80.3382557 129.275861,84.671865 126.780837,82.9835619 C124.250617,81.2698392 126.03585,74.636741 133.756401,71.3154432 C133.754725,71.3171192 138.810696,69.081598 134.900838,62.9633149 C130.992098,56.8475458 117.122537,54.6452656 109.956467,55.3084078 C98.4495246,56.3740723 93.5619932,63.0775631 93.5619932,63.0775631 C99.6311133,59.9207938 104.075619,61.5739007 104.075619,61.5739007 C99.9464829,64.3281477 93.2077959,74.7711013 100.862144,87.1878389 C100.862144,87.1878389 89.6362136,82.1930427 91.866986,71.8724379 C91.866986,71.8724379 87.934223,72.0389218 83.1500458,75.9007336 C83.1500458,75.9007336 79.1058279,47.6691435 107.459208,28.9455714 C95.834666,18.2861049 88.0434432,12.1600283 82.8293687,10.0284758 C48.1820033,22.9772914 35.1459791,54.1368752 35.1459791,54.1368752 C35.1459791,54.1368752 29.8740823,54.0712314 25.4448285,45.7070917 C0.951921946,77.6345684 8.04399338,112.066287 27.5638668,124.266819 C22.040205,129.790397 12.9336756,128.175559 12.9336756,128.175559 C20.9514674,144.211366 34.3060176,145.946597 34.3060176,145.946597 C35.5968265,141.163258 40.4480442,124.954822 59.4501137,120.977086 C59.4501137,120.977086 32.2590479,143.627555 44.7500886,171.038458 C76.5010254,130.31862 120.672331,118.790449 120.672331,118.790449 L148.049434,80.1857386 C144.754953,76.5904127 145.291835,81.6609088 140.130835,81.9983459 Z M144.056056,60.843718 C144.056056,60.843718 143.642918,60.5171749 142.416915,62.4912381 C141.224433,64.4127863 141.828635,68.2472232 141.828635,68.2472232 L143.282017,69.0729386 C143.282017,69.0729386 145.547148,69.1098109 144.056056,60.843718 L144.056056,60.843718 Z M104.907759,48.6308952 C123.237747,45.4319463 138.545606,57.1595635 138.545606,57.1595635 C138.545606,57.1595635 140.02776,55.2561721 142.252666,54.5782251 C142.252666,54.5782251 141.58701,52.9080788 140.940628,50.4418266 C137.251445,48.0297655 131.212773,51.2993863 131.212773,51.2993863 C131.700213,47.5917676 135.029332,44.2282901 139.888371,44.7972963 C139.723005,43.2070399 139.678591,41.5586818 139.843119,39.9650733 C140.494529,33.6568422 142.639266,30.7447707 142.639266,30.7447707 C113.304301,24.9831709 100.845384,49.3409658 104.907759,48.6308952 Z M58.5755146,190.979374 C58.542553,190.974904 60.6610326,191.365974 60.6610326,191.365974 L61.3222195,189.359787 C60.5319797,187.527347 60.0523608,185.297133 60.0523608,183.276979 C60.0523608,175.925989 66.0929887,169.945418 73.5171647,169.945418 C77.1876318,169.945418 80.6969223,171.544055 83.2517239,174.293832 L86.5512335,174.398025 L87.294545,171.196562 C86.5780497,169.485074 86.1836281,167.79286 86.1836281,166.165452 C86.1836281,158.270316 93.9396547,152.768526 100.901531,152.768526 C104.565573,152.768526 108.071791,154.363532 110.626313,157.107722 L113.177483,157.242083 L114.169403,154.59119 C113.459333,152.857355 113.012955,150.786921 113.012955,148.933251 C113.012955,141.63729 118.801622,136.1355 126.478876,136.1355 C129.973362,136.1355 133.84523,138.282752 136.698641,141.71746 C136.632159,141.72556 139.263219,141.849027 139.263219,141.849027 L139.546744,139.578868 C138.845054,138.970475 123.560938,125.069908 122.886064,124.484142 C86.9657672,136.847526 59.3713411,164.628828 53.79022,173.663093 C54.020113,174.498865 58.3204814,190.054773 58.5755146,190.979374 Z M155.632552,81.1656471 L129.556035,120.622609 L147.187126,137.265133 L145.048534,148.583803 L133.257787,147.897755 C132.427044,145.450777 130.11275,143.691802 127.386716,143.691802 C123.962902,143.691802 121.188543,146.466161 121.188543,149.889975 C121.188543,151.655934 121.926826,153.248704 123.110091,154.376381 L123.152271,154.366325 L118.521449,166.266292 L106.427064,165.129956 C105.596041,162.684374 103.283424,160.925679 100.557669,160.925679 C97.1335755,160.925679 94.3592164,163.701714 94.3592164,167.122176 C94.3592164,168.887855 95.0961032,170.480625 96.2807646,171.610257 L96.2424956,171.586793 L91.6099975,183.399328 L79.5642173,182.36048 L79.5438258,182.350424 C78.7150377,179.904843 76.4001853,178.146147 73.6747099,178.146147 C70.2520133,178.146147 67.4784922,180.922182 67.4784922,184.342644 C67.4784922,186.108323 68.2142616,187.701093 69.3986437,188.830726 L65.3879461,199.162504 L53.6689884,197.368891 L48.6320126,180.010711 L43.0006111,186.785153 C43.0006111,186.785153 33.366892,174.163942 33.366892,155.419699 C3.38727684,143.306599 0.728780454,118.039874 0.728780454,118.039874 C7.05888918,120.42484 10.9107846,119.360851 10.9107846,119.360851 C-3.03176669,103.674214 -8.66702304,69.8249095 25.7519857,28.9405434 C25.7519857,28.9405434 28.745288,36.6270154 32.6065411,40.463687 C37.5192126,31.8157426 51.3929636,9.42756951 83.6913978,0 C84.6880664,0.5505952 100.293418,8.76970673 116.506602,24.9831709 C144.352989,16.3040248 151.343357,29.6422339 151.343357,29.6422339 C151.343357,29.6422339 144.097676,37.3795449 147.694678,51.8348722 C148.634363,55.6120454 153.167138,63.9638943 150.113164,73.5962167 C152.970765,75.1001584 155.242321,76.577284 155.632552,81.1656471 L155.632552,81.1656471 Z" id="path20"></path>
                    </g>
                </g>
            </g>
        </g>
    </g>
</svg>