<svg width="200" height="200" viewBox="0 0 200 200" fill="none" xmlns="http://www.w3.org/2000/svg">
<path d="M37.7344 70.3047C35.4297 70.3047 30.4297 70.2656 30.4297 70.2656V85.8516C36.4063 85.0703 45.8594 84.9922 45.8594 76.6328C45.8984 71.4766 41.5625 70.4609 37.7344 70.3047Z" fill="#091F40"/>
<path d="M191.484 56.2422H109.258C109.258 56.2422 101.484 71.2812 97.3828 78.7422L86.4844 56.2422H8.24219L4.0625 74.5625L10 74.4063V111.086C10 111.398 10.0391 111.477 10 111.516C10 111.516 9.76563 111.711 8.63281 112.102L4.21875 113.586L8.98438 130.578C8.98438 130.578 13.7109 127.922 18.2813 125.969C21.2109 124.719 24.8437 123.312 28.9453 122.062C29.5703 123 30.1172 123.977 30.7422 125.227C33.5156 130.734 33.5156 136.555 33.2812 140.852C37.8516 142.063 38.6328 142.492 45.3906 141.32C49.375 140.656 54.6094 137.453 55.5859 137.18C64.6484 134.484 68.1641 134.953 72.7734 137.023L70.3906 130.344C76.7969 130.461 81.6406 130.813 88.7109 131.945C100.508 133.82 113.32 138.938 118.203 140.227C127.891 142.805 135.586 143.703 143.203 144.055C161.328 144.836 174.922 135.617 174.922 135.617L167.109 126.555L168.047 121.711C177.813 122.023 184.336 119.055 187.578 112.414C189.023 109.367 189.57 106.008 189.805 102.844C190 99.8359 189.961 96.5156 189.961 93.1172V75.1484V74.5234L195.859 74.8359L191.484 56.2422ZM168.633 134.328L167.93 134.719C167.617 134.914 166.914 135.344 165.82 135.891C164.727 136.477 163.242 137.141 161.289 137.805C157.422 139.094 151.875 140.266 144.336 140.031C132.617 139.719 122.812 137.063 113.828 134.289C109.336 132.922 105.039 131.477 100.781 130.305C96.5625 129.133 92.3438 128.195 88.0469 127.766C75.3125 126.477 61.4062 126.047 51.3281 129.172C45.6641 130.93 43.0859 132.258 38.2422 135.148L37.2656 135.734L37.3047 134.563C37.3828 130.969 37.3047 129.641 35.5859 125.578C34.6484 123.391 34.1797 122.414 33.75 121.75C33.5156 121.398 33.2812 121.125 33.0078 120.813C32.6953 120.461 32.3437 120.07 31.875 119.523L31.4453 119.055L31.9141 118.625C35.6641 115.383 39.6875 113.547 47.1875 111.359L47.3047 111.32C53.6328 109.484 63.4375 107.609 77.2656 108.625C83.8672 109.094 91.4063 110.227 99.9219 112.297C105.82 113.742 113.672 116.828 122.578 119.328C131.445 121.828 141.328 123.703 151.328 122.766C153.711 122.531 159.219 121.047 164.063 119.133L165.156 118.703L163.32 128.195L168.633 134.328ZM185.781 70.4219C184.883 71.3203 185.039 73.9375 185.039 75.1484V93.1172C185.039 105.734 185.938 116.984 169.023 116.789L169.688 113.469C169.688 113.469 166.523 114.953 162.031 116.438C149.648 115.031 134.805 108.43 134.805 94.7578C134.805 87.0234 135.117 79.2891 135.117 71.5938C135.117 68.625 133.984 67.9219 131.641 67.7266C130.742 67.7656 129.766 67.9219 129.102 68.5078C128.242 69.2109 128.164 70.3828 128.125 71.3984C127.852 80.9297 127.656 90.5391 127.656 100.07C127.656 103.352 129.18 103.977 132.227 104.289L130.469 109.992C123.789 109.211 117.969 108.547 109.922 108.234L108.359 102.414C109.531 102.453 111.172 102.531 112.109 101.789C113.594 100.617 113.281 87.6875 113.32 84.9531C109.922 92.0234 102.852 105.031 102.852 105.031L91.7578 104.875L80.4297 83.7031C80.3516 88.7031 80.5078 93.7031 80.5078 98.6641C80.5078 101.555 81.7188 102.102 84.375 102.102H85.0391L83.9453 105.617C70.2734 104.055 57.3047 104.719 46.0156 107.609L45.3125 107.805C44.2578 104.953 43.5156 101.711 43.2422 100.617C42.3828 97.0625 41.1719 93.9766 36.9531 93.9766C34.8047 93.9766 32.5 94.5625 30.3906 94.9531V105.695C30.3906 107.453 30.5859 109.172 32.7734 109.172C33.5156 109.172 34.2969 109.016 35.0391 108.82L34.2578 112.141C30.7422 114.016 27.8125 116.125 25.625 118.313L25.7031 118.391C21.4453 119.836 17.1875 121.477 12.1094 123.664L10.1953 116.867C13.125 115.852 14.8828 114.484 14.8828 111.164V73.9766C14.8828 70.9687 14.1406 69.5234 10.9375 69.5234H10.2344L12.1094 61.2031H38.7891C48.5938 61.2031 61.0547 63.8203 61.0547 75.3828C61.0547 82.1016 56.1328 86.3203 50.4297 88.8594C62.6953 90.6563 56.9141 103.391 64.3359 103.508C65.0781 103.312 65.7813 103.039 66.25 102.57C67.0313 101.789 67.1484 100.695 67.1875 99.6406C67.4219 90.2266 67.1484 80.7344 67.1484 71.3203C67.1484 67.9609 65.5078 67.6484 62.5391 67.6875L64.4922 61.2422H81.6406L97.1094 91.9844C102.734 81.75 108.359 71.5547 113.867 61.2422H131.016H154.062L155.703 68.2734C154.57 68.2344 152.852 68.1953 151.953 69.0547C151.68 69.3281 151.328 72.1797 151.328 72.1797L151.094 94.7969C151.094 94.7969 150.469 104.836 162.5 106.672C164.023 106.672 166.289 106.633 167.5 105.695C169.297 104.328 169.844 102.023 169.883 99.875C170.117 91.0078 170.273 82.0625 170.273 73.1563C170.273 69.6016 169.141 68.7422 165.664 68.625L167.656 61.2422H187.461L189.453 69.6406C188.32 69.4844 186.758 69.4453 185.781 70.4219Z" fill="#091F40"/>
<path d="M165.117 118.781L164.023 119.211C159.18 121.086 153.672 122.609 151.289 122.844C141.289 123.781 131.406 121.867 122.539 119.406C113.633 116.906 105.781 113.781 99.8828 112.375C91.3672 110.305 83.8672 109.172 77.2266 108.703C63.4375 107.727 53.5937 109.563 47.2656 111.398L47.1484 111.438C39.6484 113.625 35.625 115.461 31.875 118.703L31.4062 119.133L31.8359 119.602C32.3047 120.148 32.6562 120.539 32.9688 120.891C33.2422 121.203 33.4766 121.477 33.7109 121.828C34.1797 122.492 34.6484 123.469 35.5469 125.656C37.2656 129.68 37.3047 131.047 37.2656 134.641L37.2266 135.813L38.2031 135.227C43.0469 132.336 45.625 131.008 51.2891 129.25C61.3672 126.125 75.2344 126.555 88.0078 127.844C92.3047 128.273 96.4844 129.211 100.742 130.383C105 131.555 109.297 133 113.789 134.367C122.773 137.141 132.578 139.797 144.297 140.109C151.875 140.305 157.422 139.172 161.25 137.883C163.164 137.219 164.688 136.555 165.781 135.969C166.875 135.422 167.539 134.953 167.891 134.797L168.594 134.406L163.242 128.391L165.117 118.781Z" fill="#E31937"/>
<path d="M193.203 77.9219L200 78.3125L194.023 53.0391H107.344C107.344 53.0391 100.586 66.1641 97.5 71.8672L88.4375 53H5.66406L0 77.9219L6.79687 77.7266L6.875 109.367L0.3125 111.594L6.99219 135.422C6.99219 135.422 15.0781 130.852 19.5312 128.937C21.7187 128 24.3359 126.984 27.2656 126.008C27.4219 126.281 27.5391 126.555 27.6953 126.828C30.0391 131.516 30.1172 136.555 29.8828 140.695L29.7266 143.469L32.4219 144.211C33.5938 144.523 34.5312 144.797 35.3906 144.992C36.4062 145.227 37.3047 145.383 38.3203 145.461C40.3906 145.617 42.6172 145.344 46.0156 144.758C48.5156 144.328 51.1719 143.195 53.1641 142.258C54.1406 141.789 55.0391 141.32 55.7813 140.969L56.6406 140.539C65.1953 138 69.5312 139.055 72.4219 140.031L77.8906 141.945L75.4297 133.977C79.4922 134.172 83.3203 134.602 88.2812 135.383C99.9219 137.219 112.578 142.297 117.383 143.586C127.344 146.242 135.273 147.18 143.125 147.531C162.383 148.352 176.719 138.625 176.914 138.508L180.117 136.359L174.844 130.266L170 124.328L171.602 124.367C171.602 124.367 173.281 124.484 176.172 124.133C179.063 123.742 181.445 122.766 181.445 122.766C185.391 120.969 188.477 118.078 190.508 113.859C192.227 110.305 192.813 106.437 193.047 103.117C193.281 100.031 193.203 96.6328 193.203 93.1953V77.9219ZM189.961 74.5234V75.1484V93.1172C189.961 96.5156 190 99.7969 189.805 102.844C189.57 106.008 189.063 109.367 187.578 112.414C184.375 119.094 177.813 122.023 168.047 121.711L167.109 126.555L174.922 135.617C174.922 135.617 161.328 144.836 143.203 144.055C135.547 143.742 127.852 142.844 118.203 140.227C113.32 138.937 100.508 133.82 88.75 131.945C81.6797 130.813 76.8359 130.461 70.4297 130.344L72.8125 137.023C68.2031 134.953 64.6875 134.484 55.625 137.18C54.6484 137.453 49.4141 140.656 45.4297 141.32C38.6719 142.453 37.8906 142.062 33.3203 140.852C33.5547 136.555 33.5547 130.773 30.7813 125.227C30.1563 123.977 29.5703 122.961 28.9844 122.062C24.8828 123.312 21.2109 124.719 18.3203 125.969C13.75 127.922 9.02344 130.578 9.02344 130.578L4.25781 113.625L8.67188 112.141C9.80469 111.75 10.0391 111.555 10.0391 111.555C10.0391 111.516 10.0391 111.437 10.0391 111.125V74.4453L4.10156 74.6016L8.20312 56.2031H86.4453L97.3437 78.7031C101.445 71.2422 109.219 56.2031 109.219 56.2031H191.445L195.859 74.7969L189.961 74.5234Z" fill="#B0B3B2"/>
<path d="M167.773 61.1641L165.781 68.5469C169.258 68.6641 170.391 69.5625 170.391 73.0781C170.391 81.9844 170.234 90.8906 170 99.7969C169.961 101.945 169.414 104.25 167.617 105.617C166.367 106.555 164.141 106.594 162.617 106.594C150.586 104.758 151.211 94.7188 151.211 94.7188L151.445 72.1016C151.445 72.1016 151.797 69.25 152.07 68.9766C152.969 68.1172 154.687 68.1562 155.82 68.1953L154.18 61.1641H131.133H113.984C108.477 71.4375 102.852 81.6719 97.2266 91.9063L81.7578 61.1641H64.6094L62.6562 67.6094C65.625 67.5312 67.2656 67.8828 67.2656 71.2422C67.2656 80.6563 67.5391 90.1484 67.3047 99.5625C67.2656 100.617 67.1484 101.75 66.3672 102.492C65.8984 102.961 65.1953 103.234 64.4531 103.43C57.0313 103.313 62.8125 90.5781 50.5469 88.7813C56.25 86.2422 61.1719 82.0234 61.1719 75.3047C61.1719 63.7422 48.7109 61.125 38.9062 61.125H12.2266L10.3516 69.4453H11.0547C14.2969 69.4453 15 70.8906 15 73.8984V111.086C15 114.406 13.2422 115.812 10.3125 116.789L12.2266 123.586C17.3047 121.359 21.6016 119.719 25.8203 118.313L25.7422 118.234C27.8906 116.086 30.8594 113.938 34.375 112.063L35.1562 108.742C34.4141 108.938 33.6719 109.094 32.8906 109.094C30.7031 109.094 30.5078 107.414 30.5078 105.617V94.875C32.6172 94.4844 34.9219 93.8984 37.0703 93.8984C41.3281 93.8984 42.5 96.9453 43.3594 100.539C43.6328 101.672 44.375 104.914 45.4297 107.727L46.1328 107.531C57.4219 104.641 70.3906 104.016 84.0625 105.539L85.1563 102.023H84.4922C81.8359 102.023 80.625 101.477 80.625 98.5859C80.625 93.5859 80.4688 88.5859 80.5469 83.625L91.875 104.797L102.969 104.953C102.969 104.953 110.039 91.9453 113.438 84.875C113.398 87.6094 113.75 100.5 112.227 101.711C111.25 102.492 109.609 102.414 108.477 102.336L110.039 108.156C118.047 108.469 123.906 109.133 130.586 109.914L132.344 104.211C129.336 103.898 127.773 103.273 127.773 99.9922C127.773 90.4609 127.969 80.8516 128.242 71.3203C128.281 70.3047 128.359 69.1328 129.219 68.4297C129.883 67.8828 130.859 67.6875 131.758 67.6484C134.141 67.8047 135.234 68.5469 135.234 71.5156C135.234 79.25 134.922 86.9844 134.922 94.6797C134.922 108.352 149.766 114.953 162.148 116.359C166.641 114.875 169.805 113.391 169.805 113.391L169.141 116.711C186.055 116.906 185.156 105.656 185.156 93.0391V75.0703C185.156 73.8594 185 71.2812 185.898 70.3437C186.836 69.4062 188.438 69.4062 189.648 69.4844L187.656 61.0859L167.773 61.1641ZM30.4297 85.8516V70.2656C30.4297 70.2656 35.4297 70.3047 37.7344 70.3047C41.6016 70.4609 45.8984 71.4766 45.8984 76.6328C45.8984 84.9922 36.4063 85.0703 30.4297 85.8516Z" fill="white"/>
<path d="M50.7813 121.789C50.8203 121.867 50.8203 121.984 50.8203 122.023C50.8203 122.18 50.7422 122.297 50.5469 122.453C49.5312 123.352 48.7891 123.742 47.8125 124.055C45.7422 124.758 44.5313 124.211 44.5313 122.687C44.5313 121.164 45.8594 119.68 47.8906 118.977C49.375 118.469 50.7813 118.547 50.7813 119.055C50.7813 119.094 50.7812 119.172 50.7422 119.25H50.9766L52.4609 115.695H52.2266C52.0703 115.969 51.9531 116.086 51.7578 116.125C51.25 116.281 49.8828 115.969 47.5781 116.75C43.8672 118.039 41.6797 120.93 41.6797 123.664C41.6797 126.477 43.8281 127.844 47.8125 126.477C50.5859 125.5 51.9141 124.016 52.2266 123.898C52.3047 123.859 52.4219 123.898 52.5781 124.016L52.8125 123.82L51.0156 121.477L50.7813 121.789Z" fill="white"/>
<path d="M61.3672 113.469C58.0078 113.938 55.7812 116.438 55.7812 119.172C55.7812 121.906 58.0469 123.781 61.3672 123.313C64.6875 122.844 66.9531 120.344 66.9531 117.609C66.9531 114.875 64.7266 113 61.3672 113.469ZM61.3672 121.086C59.6094 121.32 58.5156 120.383 58.5156 118.781C58.5156 117.18 59.6484 115.891 61.3281 115.656C63.0469 115.422 64.1406 116.398 64.1406 117.961C64.1406 119.523 63.0859 120.852 61.3672 121.086Z" fill="white"/>
<path d="M80.1172 120.695L74.2578 120.305V113.82C74.2578 113.469 74.3359 113.391 74.7266 113.312V113.078L71.1328 112.844V113.078C71.5234 113.195 71.6016 113.273 71.6016 113.625V121.555C71.6016 121.906 71.5234 121.984 71.1328 122.062V122.297L80.1172 122.922C80.4688 122.961 80.5469 123.039 80.625 123.43H80.8594V120.266H80.625C80.5469 120.617 80.4688 120.695 80.1172 120.695Z" fill="white"/>
<path d="M89.375 114.367C86.0156 113.82 83.7891 115.656 83.7891 118.391C83.7891 121.125 86.0547 123.664 89.375 124.211C92.6953 124.758 94.9609 122.922 94.9609 120.188C94.9609 117.453 92.7344 114.914 89.375 114.367ZM89.375 122.023C87.6172 121.75 86.5234 120.5 86.5234 118.859C86.5234 117.258 87.6562 116.32 89.3359 116.594C91.0547 116.867 92.1484 118.156 92.1484 119.758C92.1875 121.359 91.0938 122.297 89.375 122.023Z" fill="white"/>
<path d="M106.289 118.391C106.68 118.586 106.758 118.703 106.758 119.016V123.586L102.773 118.195C102.617 117.961 102.5 117.844 102.5 117.687C102.5 117.57 102.617 117.492 102.852 117.453V117.219L98.6719 116.164V116.398C99.0625 116.594 99.1406 116.711 99.1406 117.023V124.953C99.1406 125.305 99.0625 125.383 98.6719 125.383V125.617L101.875 126.398V126.164C101.484 125.969 101.406 125.852 101.406 125.539V120.109L106.172 126.516C106.328 126.75 106.445 126.906 106.445 127.023C106.445 127.141 106.328 127.219 106.094 127.258V127.492L109.531 128.352V128.078C109.141 127.883 109.063 127.766 109.063 127.453V119.523C109.063 119.172 109.141 119.094 109.531 119.133V118.898L106.289 118.078V118.391Z" fill="white"/>
<path d="M114.023 120.578C114.414 120.773 114.492 120.891 114.492 121.242V129.172C114.492 129.523 114.414 129.602 114.023 129.563V129.797L117.617 130.813V130.539C117.227 130.344 117.148 130.227 117.148 129.875V121.945C117.148 121.594 117.227 121.555 117.617 121.555V121.359L114.023 120.344V120.578Z" fill="white"/>
<path d="M131.992 133.82L128.984 125.461C128.867 125.148 128.828 124.914 128.828 124.875C128.828 124.68 128.906 124.641 129.102 124.641V124.406L124.375 123.234V123.469C124.57 123.547 124.648 123.625 124.648 123.82C124.648 123.898 124.609 124.094 124.492 124.328L121.992 130.539C121.797 131.047 121.68 131.477 121.133 131.633V131.867L124.375 132.688V132.453C124.102 132.336 123.984 132.141 123.984 131.906C123.984 131.828 123.984 131.711 124.062 131.633L124.453 130.695L128.867 131.789L129.258 132.922C129.336 133.156 129.375 133.273 129.375 133.352C129.375 133.508 129.258 133.586 129.023 133.586V133.82L132.5 134.68V134.445C132.148 134.25 132.07 134.055 131.992 133.82ZM125 129.25L126.523 125.461L128.164 130.07L125 129.25Z" fill="white"/>
<path d="M145.117 133.898L139.258 133.391V126.906C139.258 126.555 139.336 126.477 139.727 126.437V126.203L136.133 125.891V126.125C136.523 126.242 136.602 126.359 136.602 126.672V134.602C136.602 134.953 136.523 135.031 136.133 135.07V135.305L145.117 136.086C145.469 136.125 145.547 136.203 145.625 136.594L145.898 136.633V133.469L145.625 133.43C145.547 133.859 145.469 133.938 145.117 133.898Z" fill="white"/>
<path d="M154.805 129.562C152.773 129.68 151.719 129.797 151.719 129.055C151.719 128.508 152.578 127.922 154.063 127.766C155.82 127.57 157.5 127.961 157.5 128.469C157.5 128.508 157.461 128.586 157.461 128.703L157.695 128.781L158.867 126.125L158.633 126.047C158.516 126.281 158.398 126.32 158.203 126.32C157.656 126.398 156.133 125.773 153.945 126.008C151.055 126.32 149.297 127.766 149.297 129.484C149.297 131.203 150.781 131.906 153.711 131.711C155.469 131.594 156.641 131.437 156.641 132.492C156.641 133.156 155.82 133.703 154.297 133.898C152.031 134.133 150.273 133.508 150.273 132.883C150.273 132.844 150.273 132.766 150.312 132.727L150.078 132.648L148.75 135.695L148.984 135.773C149.141 135.578 149.219 135.461 149.336 135.461C149.531 135.422 151.055 136.125 154.258 135.812C157.305 135.5 159.18 133.859 159.18 132.023C159.141 130.031 157.734 129.406 154.805 129.562Z" fill="white"/>
<path d="M175.586 125.656C175.586 127.844 173.828 129.602 171.641 129.602C169.453 129.602 167.695 127.844 167.695 125.656C167.695 123.469 169.453 121.711 171.641 121.711C173.828 121.672 175.586 123.469 175.586 125.656Z" fill="#B0B3B2"/>
<path d="M174.57 125.617C174.57 127.219 173.32 128.508 171.641 128.508C170 128.508 168.711 127.219 168.711 125.617C168.711 124.016 170 122.766 171.641 122.766C173.281 122.766 174.57 124.055 174.57 125.617ZM169.414 125.617C169.414 126.906 170.352 127.883 171.641 127.883C172.891 127.883 173.828 126.867 173.828 125.617C173.828 124.328 172.891 123.312 171.641 123.312C170.352 123.352 169.414 124.367 169.414 125.617ZM171.172 127.141H170.508V124.289C170.781 124.25 171.133 124.211 171.602 124.211C172.148 124.211 172.383 124.289 172.578 124.406C172.734 124.523 172.852 124.758 172.852 125.031C172.852 125.344 172.617 125.578 172.266 125.695V125.734C172.539 125.852 172.695 126.047 172.773 126.437C172.852 126.867 172.93 127.062 172.969 127.141H172.266C172.188 127.023 172.109 126.789 172.031 126.437C171.992 126.125 171.797 125.969 171.445 125.969H171.133V127.141H171.172ZM171.211 125.5H171.523C171.875 125.5 172.187 125.383 172.187 125.07C172.187 124.797 171.992 124.641 171.563 124.641C171.406 124.641 171.25 124.641 171.211 124.68V125.5Z" fill="#091F40"/>
</svg>
