<svg width="200" height="201" viewBox="0 0 200 201" fill="none" xmlns="http://www.w3.org/2000/svg">
<path d="M190.083 147.69C180.948 149.368 173.181 144.254 173.181 144.254C188.558 147.681 194.958 130.692 194.958 130.692C185.985 141.429 175.058 140.213 175.058 140.213C189.245 135 185.642 120.109 185.642 120.109C183.874 137.75 159.133 136.482 159.133 136.482C161.587 133.809 162.983 129.839 163.526 126.265C163.536 126.137 163.555 126.013 163.583 125.884C163.569 125.689 163.569 125.489 163.583 125.289C163.688 123.854 163.512 122.568 163.278 121.147C163.259 121.033 163.255 120.919 163.245 120.804C163.193 120.59 163.14 120.375 163.088 120.161C162.964 120.428 162.83 120.695 162.687 120.952C162.687 120.952 162.687 120.952 162.687 120.957C162.64 121.114 162.583 121.267 162.511 121.414C162.468 121.505 162.421 121.591 162.373 121.681C162.092 122.282 161.773 122.849 161.42 123.392C161.215 123.787 160.967 124.15 160.662 124.459C151.67 135.982 126.014 134.114 121.568 126.904C122.221 126.747 122.869 126.642 123.526 126.594C125.466 127.409 126.667 127.128 126.667 127.128C126.914 127.566 126.586 128.253 126.586 128.253C134.139 124.569 129.912 120.204 129.912 120.204C130.412 117.459 128.258 116.759 125.756 115.215C125.733 115.2 125.704 115.196 125.68 115.177C119.885 110.902 116.331 114.471 112.051 111.15C102.897 89.4725 50.5503 84.812 56.0018 55.9962C56.0018 55.9962 48.9491 59.2747 49.1731 70.2635C49.1731 70.2635 32.566 44.7215 44.2219 37.1017C44.2219 37.1017 26.6522 38.0262 37.5362 60.7234C37.5362 60.7234 24.3744 49.6393 30.4835 36.406C30.4835 36.406 15.0058 46.904 36.2543 64.7405C36.2543 64.7405 26.4569 61.5287 19.5615 49.7584C19.5615 49.7584 13.824 57.0112 35.1345 69.8871C35.1345 69.8871 18.9086 68.9149 14.3959 60.7615C14.3959 60.7615 10.717 69.5583 31.1507 75.6245C31.5176 75.7341 31.3556 75.796 31.3556 75.796L7.65771 71.736C7.65771 71.736 14.9725 80.4184 29.6448 82.3531C29.6448 82.3531 15.5538 84.7405 12.2562 84.1258C12.2562 84.1258 17.622 90.5304 32.9377 88.4956C32.9377 88.4956 25.5133 89.9204 22.1585 92.5461C22.1585 92.5461 26.7761 96.263 32.6089 94.6238C32.6089 94.6238 29.2922 95.7293 28.4011 96.7682C37.6267 112.394 69.6353 115.281 72.4802 126.518C65.9565 129.587 58.7037 126.828 55.8493 128.72C55.8493 128.72 54.9963 129.468 54.6723 129.682C53.7144 130.945 54.2148 133.985 54.2148 133.985C52.0704 134.786 52.6089 141.352 52.6089 141.352C52.7423 142.558 53.4142 142.963 53.4142 142.963C53.1473 143.63 53.0139 146.447 53.0139 146.447C53.0139 151.136 55.692 150.464 55.692 150.464C55.1583 150.731 54.7533 151.669 54.7533 151.669C55.5586 157.03 59.042 157.697 59.042 157.697C60.1142 162.792 65.337 162.391 65.337 162.391C68.1485 167.08 73.9146 163.597 73.9146 163.597C76.8643 166.68 81.5534 162.258 81.5534 162.258C87.3146 162.525 89.7926 157.84 89.7926 157.84C92.4468 157.397 93.8336 156.396 94.5198 155.286C94.6437 155.243 94.7676 155.181 94.8819 155.105C95.0487 155.239 95.1631 155.362 95.1774 155.439L95.6396 158.87L97.5267 155.968C97.6077 155.844 98.2415 154.814 97.9841 153.59C98.6751 153.771 99.2803 153.742 99.795 153.399C99.9713 153.285 100.195 153.085 100.362 152.78C100.686 152.837 101.029 152.994 101.201 153.375L103.093 156.554L103.488 154.252C118.985 164.145 137.55 164.602 137.55 164.602C137.174 162.977 137.431 161.915 137.431 161.915C143.05 167.285 149.535 168.062 149.535 168.062C148.039 164.44 148.168 161.414 148.168 161.414C156.159 169.153 166.147 168.805 166.147 168.805C158.28 163.564 156.283 159.294 156.283 159.294C166.533 165.579 174.51 164.312 174.51 164.312C166.767 159.065 163.021 154.424 163.021 154.424C175.759 160.666 182.816 156.954 182.816 156.954C173.309 155.005 165.213 147.133 165.213 147.133C181.939 155.548 190.083 147.695 190.083 147.695V147.69Z" fill="black"/>
<path d="M128.306 121.286C128.306 121.286 125.795 121.586 125.29 122.191C125.29 122.191 122.769 123.559 118.294 122.148C118.294 122.148 116.793 122.644 118.957 123.597C118.957 123.597 120.367 123.454 122.754 125.179C124.532 126.461 126.352 126.423 127.305 125.77C127.305 125.77 124.413 126.251 123.431 124.15L119.038 122.958C122.945 123.711 124.236 123.197 124.236 123.197C124.236 123.197 124.236 124.855 126.4 124.903L127.806 123.549C127.806 123.549 129.621 124.683 128.058 126.466C128.058 126.466 130.503 125.079 129.917 123.249C129.917 123.249 130.069 121.791 128.311 121.29L128.306 121.286Z" fill="#E6E7E8"/>
<path d="M122.406 121.214C122.406 121.214 123.693 121.843 124.427 120.518C124.427 120.518 124.131 120.375 123.736 120.166C123.736 120.175 123.855 120.842 123.174 121.005C122.797 121.09 122.359 120.776 122.363 120.294C122.282 120.237 122.22 120.147 122.201 120.037C122.163 119.823 122.311 119.618 122.525 119.584C122.635 119.565 122.745 119.599 122.83 119.661C122.83 119.661 122.835 119.661 122.84 119.661C122.416 119.403 122.03 119.132 121.868 118.917C121.868 118.917 120.791 120.375 122.411 121.219L122.406 121.214Z" fill="#A90533"/>
<path d="M66.1948 136.363C73.0235 135.258 86.0614 134.791 84.7843 127.609C81.2294 134.257 69.2303 131.836 66.1948 136.363Z" fill="#A90533"/>
<path d="M122.659 120.356C122.873 120.318 123.016 120.118 122.983 119.904C122.964 119.804 122.911 119.718 122.835 119.656C122.749 119.594 122.64 119.561 122.53 119.58C122.316 119.618 122.168 119.823 122.206 120.032C122.225 120.137 122.282 120.228 122.368 120.29C122.449 120.347 122.554 120.376 122.664 120.356H122.659Z" fill="white"/>
<path d="M122.135 125.975C111.132 123.773 106.924 133.042 93.948 128.967C91.1269 135.005 86.5522 136.635 86.5522 136.635C90.05 136.387 92.2325 134.824 92.2325 134.824C91.2318 136.258 89.5496 137.759 89.5496 137.759C93.1093 137.388 97.1646 135.015 97.1646 135.015C95.4681 136.711 91.9752 138.751 88.7824 140.542C108.635 137.321 108.816 128.477 122.135 125.98V125.975Z" fill="#A90533"/>
<path d="M111.975 140.547C111.975 140.547 115.049 139.351 116.874 140.218C116.588 140.228 116.288 140.294 115.987 140.404C117.341 140.795 118.932 141.981 121.115 144.478C119.771 143.978 116.554 143.544 116.554 143.544C116.226 143.487 115.968 143.478 115.782 143.492C115.835 143.706 115.84 143.888 115.835 143.983C115.825 144.164 115.754 144.607 115.382 145.022C115.754 145.193 116.716 145.889 117.622 146.818C125.027 148.867 131.756 148.681 131.756 148.681C128.511 145.999 128.02 143.306 128.02 143.306C136.383 149.673 149.931 150.483 149.931 150.483C142.502 146.985 139.9 142.882 139.9 142.882C153.571 147.814 161.229 144.34 161.229 144.34C152.428 143.84 147.572 141.086 147.572 141.086C156.249 138.403 158.022 131.178 158.022 131.178C137.255 143.435 117.341 130.511 117.341 130.511C111.861 132.498 111.599 135.505 104.169 139.499C105.537 140.895 107.086 142.077 108.735 143.082C109.411 141.09 110.798 140.418 111.989 140.542L111.975 140.547Z" fill="#A90533"/>
<path d="M109.716 144.369C109.716 144.369 109.64 144.521 109.516 144.755C109.526 144.745 109.54 144.736 109.549 144.721C109.878 144.412 110.255 144.064 110.808 143.911C110.903 143.883 111.117 143.544 111.193 143.244L111.208 143.182C111.117 142.873 111.117 142.301 112.023 141.729C112.023 141.729 112.023 141.724 112.032 141.719C111.908 141.729 110.126 141.896 109.716 144.364V144.369Z" fill="#E6E7E8"/>
<path d="M104.384 152.546C104.384 152.546 105.18 151.931 105.509 150.931C105.838 149.925 106.348 150.254 106.776 149.72C106.776 149.72 108.139 149.696 108.53 149.225C108.53 149.225 115.044 148.457 113.148 147.557C113.148 147.557 113.996 146.165 115.726 146.828C115.726 146.828 113.753 144.574 111.747 147.423L109.679 147.986L111.599 146.747C111.599 146.747 112.814 144.783 113.743 144.526C114.673 144.269 114.82 143.687 114.039 143.368C114.039 143.368 114.201 141.853 116.76 142.282C116.76 142.282 114.01 139.98 112.438 143.554C112.438 143.554 112.128 144.883 111.146 145.15C110.165 145.422 109.65 147.833 105.099 146.308C103.326 145.713 101.878 145.208 100.772 144.812C100.196 145.165 99.6094 145.508 99.0376 145.832C100.153 146.232 105.633 148.214 105.819 148.615C105.819 148.615 103.951 149.844 103.831 150.306C103.831 150.306 103.207 150.302 102.578 150.516C102.759 150.697 103.107 151.121 103.293 151.512C103.322 151.512 103.35 151.503 103.379 151.503C103.417 151.827 103.455 152.656 104.375 152.546H104.384Z" fill="#E6E7E8"/>
<path d="M102.364 153.151C102.364 153.151 102.73 150.144 97.6507 150.445C97.6507 150.445 94.8487 149.12 94.5246 149.234C94.5246 149.234 96.9692 148.577 97.8079 149.086C97.8079 149.086 98.3702 148.896 97.8317 148.505C97.8317 148.505 99.6854 148.2 100.686 149.606C100.686 149.606 99.8141 146.313 95.6921 147.519C95.6921 147.519 90.76 148.157 89.135 147.271C87.5148 146.385 81.9061 144.073 81.9061 144.073C81.9061 144.073 80.3669 143.768 78.9087 144.092C81.1817 145.736 82.883 146.437 82.883 146.437C82.883 146.437 86.4569 148.033 86.8239 148.5C87.1908 148.972 88.1963 149.463 87.8198 151.345C87.8198 151.345 86.5475 151.788 86.3378 152.398C86.3378 152.398 82.5684 153.599 85.2656 156.582C85.2656 156.582 84.8081 153.904 86.2711 153.618C86.2711 153.618 87.5196 155.362 88.5489 153.032C89.5782 150.702 89.7164 151.312 89.6592 150.769C89.6592 150.769 92.6375 152.613 93.2856 153.771C93.9337 154.929 94.415 154.209 94.6104 153.814C94.9297 153.952 96.2973 154.49 96.445 155.586C96.445 155.586 97.8746 153.38 94.6199 152.503C94.6199 152.503 91.8417 150.426 91.7178 150.035C91.7178 150.035 95.2728 151.031 95.8541 151.402C96.4355 151.774 99.6092 153.899 99.2756 151.86C99.2756 151.86 101.53 151.336 102.364 153.156V153.151Z" fill="#E6E7E8"/>
<path d="M79.8714 117.64C79.8714 117.64 76.0306 120.476 76.5786 126.332C76.5786 126.332 80.124 118.574 93.2 115.605C90.1406 115.429 87.92 113.799 87.92 113.799C79.6808 116.458 74.4723 112.703 74.4723 112.703C82.5209 114.076 85.0847 110.602 85.0847 110.602C71.1795 113.161 65.2324 104.836 65.2324 104.836C75.4778 109.868 80.2336 107.671 80.2336 107.671C69.5307 104.011 72.2755 100.809 72.2755 100.809C66.4189 97.6974 68.4299 95.2242 68.4299 95.2242C52.5138 86.6276 50.8697 78.7648 50.8697 78.7648C50.8697 78.7648 46.9336 85.808 57.5459 92.7605C57.5459 92.7605 50.8697 91.5692 45.6517 85.808C45.6517 85.808 43.7313 92.4842 56.3546 96.7872C56.3546 96.7872 49.95 96.9683 44.0029 94.4999C44.0029 94.4999 45.4659 99.899 55.4397 100.814C55.4397 100.814 52.3708 102.915 45.1418 100.652C45.1418 100.652 48.4871 104.841 55.7113 104.016C55.7113 104.016 54.7058 106.304 49.8547 105.756C49.8547 105.756 54.4723 109.153 59.4616 106.489C59.4616 106.489 59.109 108.748 55.4492 109.115C55.4492 109.115 62.1159 114.285 72.0849 113.737C72.0849 113.737 71.2605 114.995 67.9677 115.272C67.9677 115.272 71.9753 117.531 75.9114 115.334C75.9114 115.334 76.569 117.011 79.8619 117.65L79.8714 117.64Z" fill="#A90533"/>
<path d="M147.567 154.047C147.567 154.047 145.008 154.767 136.683 151.288C136.683 151.288 133.114 151.941 121.677 150.549C121.677 150.549 125.432 154.047 133.938 154.69C133.938 154.69 136.454 159.508 145.604 164.54C145.604 164.54 142.173 161.095 142.078 155.057C142.078 155.057 145.28 160.18 155.702 163.821C155.702 163.821 149.397 159.537 147.567 154.047Z" fill="#A90533"/>
<path d="M134.653 162.348C131.909 158.412 131.832 156.611 131.832 156.611C124.699 155.972 121.406 154.052 121.406 154.052C123.326 158.994 128.906 161.41 128.906 161.41C127.534 159.489 127.81 157.345 127.81 157.345C130.188 159.999 134.658 162.348 134.658 162.348H134.653Z" fill="#A90533"/>
<path d="M154.334 153.957C157.446 157.707 164.637 160.599 164.637 160.599C160.61 156.849 159.18 153.499 159.18 153.499C155.887 153.957 154.334 153.957 154.334 153.957Z" fill="#A90533"/>
<path d="M71.6415 159.16C72.1276 157.688 72.4516 156.911 72.79 154.705C71.0125 157.321 69.3303 159.646 68.8062 160.366C70.4549 162.315 72.5374 161.867 73.9574 160.885L74.2577 160.08C72.4945 160.371 71.7225 159.265 71.6367 159.16H71.6415Z" fill="#A90533"/>
<path d="M65.6137 155.934C67.1481 153.961 67.6818 153.066 68.1869 152.122C65.6375 153.995 63.2739 155.624 62.54 156.125C63.3835 158.369 65.3563 158.841 67.2243 158.336L67.7771 157.678C66.0521 157.369 65.6899 156.144 65.6137 155.934Z" fill="#A90533"/>
<path d="M61.2436 151.24C63.1116 149.973 63.8788 149.296 64.8223 148.353C61.8345 149.391 59.0992 150.254 58.251 150.521C58.4321 153.456 60.9338 153.971 62.0775 154.009L62.8018 153.542C61.2341 152.737 61.2579 151.436 61.2484 151.24H61.2436Z" fill="#A90533"/>
<path d="M60.4575 147.752C59.3567 146.675 59.514 145.627 59.6521 145.093C61.8251 144.464 62.8068 143.94 63.9266 143.392C60.7672 143.502 57.8985 143.516 57.0074 143.521C56.2735 146.551 58.8277 147.705 59.6331 147.986L60.4622 147.752H60.4575Z" fill="#A90533"/>
<path d="M58.5895 141.567C57.5602 140.051 58.2941 138.874 58.3274 138.803C60.6672 138.612 61.9824 138.236 62.8545 137.983C59.7332 137.464 56.9217 136.911 56.0448 136.735C54.9679 139.041 56.245 140.752 57.7318 141.629L58.5848 141.567H58.5895Z" fill="#A90533"/>
<path d="M59.8857 135.591L60.734 135.472C59.5712 133.99 60.2813 132.737 60.3194 132.646C61.8586 132.985 65.9091 133.766 70.6029 130.607C64.7416 131.464 59.1614 130.959 57.8653 130.821C56.936 133.218 58.3656 134.833 59.8857 135.591Z" fill="#A90533"/>
<path d="M79.1899 158.017C78.7848 157.778 78.4989 157.445 78.2988 157.126L77.2266 160.857C78.437 160.857 79.39 160.561 80.0572 159.951C80.6481 159.413 80.9006 158.741 81.0055 158.288C80.3193 158.407 79.7093 158.317 79.1899 158.012V158.017Z" fill="#A90533"/>
<path d="M53.8718 64.2211C58.1463 87.6902 101.601 94.6809 108.139 110.773C110.598 113.542 116.207 114.409 119.495 114.233C122.278 114.081 123.674 115.839 125.766 117.121C127.858 118.398 126.757 119.623 126.757 119.623C126.29 120.609 123.207 119.68 121.873 117.645C120.534 115.61 118.79 115.782 118.79 115.782C119.428 116.306 119.662 117.064 119.662 117.064C119.428 116.659 116.059 115.844 116.059 115.844C116.64 116.077 118.442 117.998 118.442 117.998C118.327 118.693 118.732 119.451 118.732 119.451C118.208 119.508 117.86 120.032 115.244 118.288C112.628 116.544 108.263 116.544 108.263 116.544C111.465 115.42 114.31 116.311 114.31 116.311C109.755 112.456 100.477 112.984 100.477 112.984C93.5478 95.8151 44.3698 94.4856 53.8718 64.2306V64.2211Z" fill="#A90533"/>
</svg>
