<svg width="200" height="200" viewBox="0 0 200 200" fill="none" xmlns="http://www.w3.org/2000/svg">
<path d="M113.601 135.427L85.2172 122.89L83.5615 121.944C77.6481 118.633 72.681 115.085 69.606 111.773C62.9831 104.441 60.6178 98.2909 59.9082 93.3237C59.1986 87.6469 59.6717 82.2066 60.3813 79.6048C62.7466 70.6165 66.7676 61.8648 68.8964 56.188L69.133 55.4784H68.4234C67.7138 55.4784 67.2407 55.4784 66.5311 55.2419L65.585 55.0053L65.3484 54.5323C64.6388 53.5861 63.2196 51.6939 61.8004 50.2747C60.6178 48.8555 59.6717 47.6728 59.4351 47.4363C54.4679 40.3403 54.941 36.7923 58.0159 34.427C58.7255 33.7174 60.6178 32.2982 60.6178 32.2982C62.2735 31.1155 63.6927 29.6963 65.1119 28.5137L66.058 27.5675V27.331C65.8215 25.9118 66.2946 23.783 65.585 22.3638L65.1119 20.9446C64.8754 20.235 64.6388 19.5254 64.6388 19.2889C63.9292 16.4505 63.9292 13.6121 66.058 11.4833C66.5311 11.0102 67.2407 10.5372 67.7138 10.3006L74.3367 5.8065C74.8098 5.56997 75.2828 5.0969 75.9924 4.62384C76.9385 3.91424 78.3578 3.20464 79.3039 2.49504C80.4865 1.78544 81.6692 1.31238 83.0884 1.31238C84.2711 1.31238 85.4537 1.54891 86.8729 1.78544L89.0017 2.02198C90.894 2.25851 92.7862 3.67771 94.2054 5.8065L94.442 6.04304L94.6785 5.8065C101.301 3.20464 108.397 1.78544 115.02 1.78544C119.988 1.78544 124.718 2.49504 128.976 3.91424C130.158 4.3873 131.105 4.62384 132.051 5.0969H132.287L132.524 4.86037C134.653 3.20464 137.018 2.49504 139.62 2.49504H142.222L142.931 2.96811C152.156 7.2257 158.069 13.6121 158.779 14.3217L159.962 15.5043L160.198 21.4177L159.489 22.6003C159.489 22.6003 157.833 25.2022 156.887 28.2771V28.5137V28.7502C159.489 35.6096 164.929 39.8672 164.929 39.8672L166.348 41.0499L165.165 44.1248C163.036 49.5651 160.198 53.1131 156.177 55.2419C155.941 55.4784 154.994 55.7149 154.994 55.7149V56.188C155.231 57.1341 155.231 58.0803 155.231 59.0264C163.51 77.0029 165.402 90.7218 160.908 102.548C158.069 110.354 152.156 117.687 143.168 124.546L141.985 125.492L113.601 135.427Z" fill="white"/>
<path d="M185.744 124.309H143.405C152.629 117.45 158.306 110.118 161.381 102.312C165.875 90.2487 163.983 76.2933 155.704 58.5533C155.704 57.6072 155.468 56.6611 155.468 55.7149C155.704 55.4784 155.941 55.4784 156.414 55.2419C160.435 53.1131 163.51 49.5651 165.639 43.8883L167.058 40.3403L165.402 38.9211C165.402 38.9211 160.198 34.6635 157.597 28.0406C158.543 24.9657 160.198 22.6004 160.198 22.3638L161.144 20.9446L160.908 14.7948L159.725 13.3756C159.016 12.666 153.102 6.27958 143.878 1.78546L142.931 1.31239H140.33C137.728 1.31239 135.126 2.25852 132.997 3.91425C132.051 3.44119 130.868 2.96812 129.922 2.73159C119.278 -0.816404 106.978 -0.106805 95.1518 4.62385C93.4961 2.49506 91.6038 0.839327 89.475 0.602794L87.3463 0.36626C84.0348 -0.106806 81.906 -0.343338 79.3041 1.07586C78.1215 1.78546 76.9388 2.49506 75.9927 3.20466C75.2831 3.67772 74.5735 4.15079 74.3369 4.38732L67.714 8.88144C67.241 9.35451 66.5314 9.59104 66.0583 10.3006C63.693 12.4294 62.7468 15.9774 63.693 18.8158C63.693 19.0524 63.9295 19.9985 64.166 20.4716L64.6391 21.8908C65.1122 23.3099 65.5852 24.9657 65.8218 26.3849C65.5852 26.6214 65.3487 26.8579 65.1122 27.0945C63.693 28.2771 62.0372 29.6963 60.3815 30.879C59.6719 31.5886 58.7258 32.2982 58.0162 32.7713C54.9412 35.3731 52.3394 39.8673 57.5431 47.1998C57.7796 47.4363 58.7258 48.619 59.9084 50.0382C61.3276 51.6939 62.7468 53.5862 63.4564 54.2958L64.166 55.2419L65.3487 55.4784C66.0583 55.4784 66.7679 55.7149 67.241 55.7149C64.8756 61.6283 61.8007 70.1435 59.1988 79.1317C58.4892 81.9701 57.7796 87.1738 58.7258 93.0871C59.4354 98.0543 61.5642 105.387 68.4236 112.956C71.4986 116.504 76.7023 120.525 82.6156 123.836H20.1709H10L18.5152 129.277L33.8898 138.975C33.4167 142.759 32.2341 150.092 31.9976 151.747C31.288 156.478 31.9976 160.499 33.8898 164.047H32.9437H30.3418L29.8688 166.649L29.3957 170.197C28.9226 173.508 27.5034 184.389 27.5034 186.518C27.5034 190.066 28.4496 192.904 30.5784 195.033C34.1264 199.29 40.0397 200 47.6087 200C53.7586 200 182.196 200 183.379 200H186.217V197.162L189.055 126.675L189.292 123.6H185.744V124.309ZM140.093 9.11798H140.803C147.426 12.1929 151.92 16.687 153.339 18.1062V19.5254C152.629 20.9446 150.737 24.2561 149.791 28.0406L149.554 28.5137L149.791 28.9867C151.21 33.7174 156.414 40.8134 158.543 42.7056C156.887 46.7267 153.812 48.8555 150.501 50.0382C150.027 48.8555 149.318 47.9094 148.608 46.7267C146.716 44.1248 144.114 39.1576 144.587 35.6097C148.372 30.1694 148.135 24.2561 148.135 24.2561C145.533 18.1062 141.749 13.3756 136.782 9.82757C137.964 9.59104 138.91 9.11798 140.093 9.11798ZM137.728 75.5837C136.309 73.6914 135.599 73.928 131.578 71.5627C129.449 70.38 128.266 68.4877 128.503 65.4128C128.739 62.3379 128.74 54.2958 131.341 53.1131L131.814 52.8766C132.524 52.4035 133.234 51.9304 133.234 51.2208L133.47 50.5112C133.47 50.2747 133.707 49.8016 133.943 49.8016L135.599 48.3824C135.835 48.1459 136.072 47.6728 136.309 47.1998L136.782 44.3614C136.782 43.8883 136.782 43.4152 136.545 43.1787L135.835 41.996C138.674 42.9422 140.803 44.5979 142.695 47.9094C142.222 52.8766 138.437 59.9725 138.437 59.9725C138.437 59.9725 140.566 62.8109 141.276 65.4128C141.749 66.832 141.276 68.9608 140.803 70.8531C140.566 71.5627 141.039 72.2722 141.985 71.0896C144.587 67.0685 143.878 64.7032 143.168 63.284L141.749 60.4456C141.749 60.4456 145.297 55.715 146.243 51.2208C146.243 50.9843 146.243 50.7478 146.243 50.7478C149.081 55.2419 150.737 59.9725 147.899 70.6165C147.899 70.6165 147.426 69.9069 146.953 68.9608C144.587 83.8624 140.566 85.9912 136.545 86.9373C136.545 86.4642 136.545 86.2277 136.545 85.7546C136.309 83.3893 136.072 79.8413 137.018 77.949C137.255 77.949 138.201 78.4221 138.91 79.6048C139.147 78.8952 138.674 76.7664 137.728 75.5837ZM131.105 80.3144C130.395 80.5509 129.449 80.5509 128.266 80.3144C128.739 79.8413 129.449 79.1317 129.922 78.4221L130.159 78.1856C130.159 78.1856 130.395 78.1856 130.395 78.4221C131.105 79.1317 131.105 79.8413 131.105 80.3144ZM135.835 35.3731C135.362 35.1366 134.889 34.9001 134.889 34.6635C134.889 34.6635 134.416 34.6635 134.18 34.6635C133.943 34.6635 133.943 34.427 133.943 34.427C134.18 34.427 134.653 34.427 134.653 34.1905C134.653 33.9539 134.889 33.4809 135.599 33.0078C135.599 33.2443 135.362 33.4809 135.362 33.9539C135.362 34.427 135.599 34.9001 135.835 35.3731ZM135.599 34.1905V33.7174C135.599 33.7174 135.599 33.4809 135.835 33.4809H137.491C137.491 33.4809 137.728 33.4809 137.728 33.7174V34.1905C137.728 34.1905 137.728 34.427 137.491 34.427L135.599 34.1905ZM140.566 32.5347C141.039 32.7713 141.276 33.0078 141.276 33.2443C141.276 33.9539 141.039 34.427 140.566 34.9001C140.566 34.6635 140.803 34.1905 140.803 33.9539C141.039 33.2443 140.803 33.0078 140.566 32.5347ZM131.105 124.309C129.922 125.019 128.739 125.729 127.32 126.438C127.084 126.438 127.084 126.675 126.847 126.675C125.665 127.384 124.482 128.094 123.299 128.567C123.063 128.804 122.826 128.804 122.59 129.04C121.407 129.75 120.224 130.223 119.042 130.932C118.805 131.169 118.332 131.169 118.096 131.405C116.44 132.115 115.021 132.825 113.365 133.534C113.128 133.061 112.655 132.588 112.419 132.115C112.182 131.879 112.182 131.879 111.946 131.642C111.709 131.405 111.236 130.932 111 130.696C110.763 130.459 110.526 130.459 110.29 130.223C109.817 129.986 109.344 129.513 108.871 129.277C108.634 129.277 108.398 129.04 108.398 129.04C105.796 127.621 102.248 125.965 97.7537 124.073C95.3884 123.127 93.023 121.944 90.4212 120.525C72.9177 111.537 70.789 99.237 70.789 99.237C70.789 99.237 69.6063 100.656 69.3697 103.022C67.714 100.893 63.4564 92.8506 66.2948 81.497C70.0794 66.5955 76.4657 52.4035 77.1753 50.9843C80.9599 48.1459 82.6156 43.4152 82.6156 39.1576C82.6156 36.0827 82.6156 33.4809 83.5617 30.4059C83.7982 29.9329 83.0887 29.6963 82.8521 29.9329C79.7772 33.2443 80.0137 38.9211 79.3041 41.996C77.8849 47.6728 71.7351 49.5651 67.9505 48.8555C66.7679 47.4363 64.8756 45.071 63.693 43.4152C62.2738 41.2864 62.0372 39.3942 64.166 37.7385C67.241 35.1366 70.5524 32.7713 73.3908 29.9329C73.6273 27.331 72.9177 24.7291 72.2081 22.3638C71.7351 20.9446 71.262 19.2889 70.789 17.8697C70.789 17.6332 70.5524 17.3966 70.5524 17.1601C70.5524 16.4505 70.7889 15.9774 71.4985 15.7409L72.2081 15.2678L73.3908 14.3217C75.7561 12.666 80.0137 9.82758 82.3791 8.40838L83.0887 7.93531C83.3252 7.69878 83.5617 7.69878 83.7983 7.69878L85.2175 7.93531C85.9271 7.93531 86.4001 7.93531 87.3463 8.17184C89.2385 8.40838 89.9481 9.82757 90.1846 10.0641C91.8404 12.1929 93.2596 14.0852 94.9153 16.214C95.1518 15.0313 95.1518 14.0852 94.9153 13.139C105.796 7.93531 117.622 6.75265 127.32 10.0641C134.18 12.4294 139.383 16.214 143.405 23.783C142.695 23.783 141.985 23.783 141.276 23.783C138.91 24.2561 136.545 26.1483 136.545 26.1483L137.491 24.2561C135.599 24.7291 133.943 25.4387 132.524 25.9118L130.395 28.7502L129.686 24.9657L127.793 30.6425L128.976 32.7713L128.503 33.4809C125.191 30.879 122.117 33.7174 121.407 34.427C121.644 34.427 121.644 34.427 121.88 34.427C127.32 34.1905 129.686 35.1366 129.686 35.1366L133.943 40.3403C132.761 40.3403 130.868 40.5768 128.74 40.5768C126.847 40.5768 124.245 39.8673 122.826 39.8673C121.88 39.8673 121.17 40.1038 120.224 40.5768L118.096 41.996C117.622 42.2326 117.386 42.7056 117.386 43.1787V46.0171C117.386 46.4902 117.622 46.9632 117.859 47.1998L120.224 49.092C120.461 49.3286 120.697 49.5651 120.697 50.0382V50.5112C120.934 51.4574 121.407 51.9304 122.117 52.4035C122.353 52.4035 122.59 52.64 122.826 52.8766C125.665 54.5323 124.009 63.5205 123.536 65.4128C123.063 67.3051 122.59 69.6704 118.805 71.0896C115.021 72.5088 106.978 73.928 106.505 77.0029C106.978 77.949 107.215 78.4221 107.688 78.4221C107.925 78.4221 108.161 78.4221 108.161 78.1856L108.871 77.2394C108.871 77.2394 110.763 77.2394 112.419 80.5509C114.074 83.8624 115.257 86.4642 120.461 85.9911C126.138 85.5181 128.266 85.7546 129.922 85.9911C131.578 86.2277 132.761 85.7546 133.47 85.045C133.47 85.7546 133.234 86.4642 132.997 87.1738C132.524 88.8295 131.341 90.4853 129.686 91.6679C127.557 92.8506 120.224 93.3237 114.784 92.8506C110.053 92.3775 106.742 89.7757 105.323 88.593C107.688 86.9373 108.398 85.2815 108.161 84.8085C103.194 88.593 98.2268 87.1738 95.8614 86.2277C90.4212 84.0989 81.1964 75.3472 80.0137 56.4245C77.6484 62.1013 78.1215 71.0896 80.2503 76.0568C80.4868 75.5837 80.7233 75.5837 80.9599 75.3472C88.2924 90.9583 96.8076 91.1949 99.4094 90.9583C103.43 93.3237 107.215 96.1621 114.074 96.8717C115.967 97.1082 118.569 97.1082 121.17 97.1082C125.192 96.8717 128.976 96.3986 130.868 95.2159C133.234 94.0333 134.416 92.6141 135.126 90.9583C142.458 89.7757 147.189 84.3354 150.027 74.8741C150.501 73.6915 151.21 71.3261 151.683 68.2512C160.198 88.1199 160.908 106.096 131.105 124.309ZM122.59 43.6518C121.644 43.4152 120.697 42.9422 119.751 42.7056C119.988 42.4691 120.934 41.7595 121.644 41.523C122.353 41.7595 122.826 42.2326 123.063 42.9422C123.299 43.1787 123.063 43.6518 122.59 43.6518ZM119.988 80.5509C118.569 80.5509 117.386 80.3144 116.676 79.8413C116.913 79.6048 116.913 79.6048 117.149 79.3682C117.622 79.1317 117.859 78.6586 118.332 78.4221C118.569 78.1856 118.569 78.1856 118.805 77.949C118.805 77.949 118.805 77.949 119.042 77.949C119.042 77.949 119.042 77.949 119.278 77.949C119.515 78.6586 119.988 79.6048 119.988 80.5509Z" fill="#006549"/>
<path d="M136.071 61.8648C135.598 61.8648 134.889 62.3379 134.889 63.0475C134.889 63.7571 135.362 64.2301 136.071 64.2301C136.544 64.2301 137.254 63.7571 137.254 63.0475C137.017 62.3379 136.544 61.8648 136.071 61.8648Z" fill="#006549"/>
<path d="M118.806 60.6821C119.515 60.6821 119.988 60.2091 119.988 59.4995C119.988 58.7899 119.515 58.3168 118.806 58.3168C118.096 58.3168 117.859 58.7899 117.859 59.4995C117.623 59.9725 118.096 60.6821 118.806 60.6821Z" fill="#006549"/>
<path d="M119.278 64.4667C119.278 65.1763 119.751 65.6494 120.461 65.6494C121.171 65.6494 121.644 65.1763 121.644 64.4667C121.644 63.7571 121.171 63.284 120.698 63.284C119.751 63.284 119.278 63.7571 119.278 64.4667Z" fill="#006549"/>
<path d="M133.47 59.9725C133.47 59.2629 132.997 58.7898 132.523 58.7898C131.814 58.7898 131.341 59.2629 131.341 59.9725C131.341 60.6821 131.814 61.1552 132.287 61.1552C132.76 61.1552 133.233 60.6821 133.47 59.9725Z" fill="#006549"/>
<path d="M132.761 65.8858C132.288 65.8858 131.814 66.3589 131.814 67.0685C131.814 67.5415 132.288 68.2511 132.997 68.2511C133.47 68.2511 134.18 67.7781 134.18 67.0685C133.943 66.3589 133.47 65.8858 132.761 65.8858Z" fill="#006549"/>
<path d="M115.257 66.359C114.784 66.5955 114.548 67.3051 114.784 67.7782C115.021 68.4878 115.73 68.4877 116.203 68.2512C116.44 68.0147 116.676 67.7782 116.676 67.3051C116.913 66.5955 115.967 66.1224 115.257 66.359Z" fill="#006549"/>
<path d="M115.02 61.8648C115.02 61.3918 114.547 60.9187 113.838 60.9187C113.365 60.9187 112.892 61.3918 112.892 62.1014C112.892 62.811 113.365 63.284 113.838 63.284C114.547 63.0475 115.257 62.3379 115.02 61.8648Z" fill="#006549"/>
<path d="M91.8398 111.064C106.268 117.923 112.891 102.785 106.978 97.3447C107.214 103.968 101.538 111.064 91.8398 111.064Z" fill="#006549"/>
<path d="M121.17 111.3C119.041 112.246 116.439 113.429 114.547 115.321C112.418 117.45 111.472 120.761 113.127 123.6C114.074 121.235 114.783 119.579 117.148 118.16C124.481 113.666 129.921 111.773 136.071 107.516C142.694 103.022 142.694 97.3447 139.856 92.8506C140.565 100.183 137.727 103.258 121.17 111.3Z" fill="#006549"/>
<path d="M89.4745 37.975C90.8937 41.2864 93.0225 44.1248 96.5705 46.4902C96.8071 48.8555 97.7532 53.1131 101.065 56.8976C101.065 56.8976 100.828 56.8976 100.828 57.1342C97.7532 59.263 93.7321 62.5744 93.4956 68.7243C93.9687 72.2723 97.5167 76.0568 99.6455 77.476C100.119 77.7125 100.355 77.2394 100.119 77.0029C99.1724 75.5837 96.0975 71.3261 96.0975 68.7243C96.334 61.6283 102.957 58.7899 105.559 58.0803C102.72 55.4784 102.011 51.4574 101.774 48.3824C103.193 42.7056 108.397 38.9211 114.074 38.6846C114.074 38.6846 114.547 39.8673 114.784 41.0499C115.257 39.1577 115.966 36.5558 118.332 35.1366H115.493C115.493 35.1366 114.547 35.1366 115.73 33.4809C116.676 32.0617 119.278 31.3521 119.278 31.3521C119.278 31.3521 117.622 28.5137 115.02 24.7292C116.439 28.7502 115.73 30.879 114.784 31.5886C113.837 29.2233 112.655 26.6214 112.655 26.6214C111.709 25.9118 110.526 25.2022 109.343 24.7292C108.634 24.4926 107.924 24.0196 107.215 23.783C106.978 23.783 106.741 23.5465 106.505 23.5465L107.215 25.9118L102.72 22.6004C97.5167 21.6542 92.0764 21.8908 87.5823 22.8369C87.1092 27.0945 87.1092 33.2443 91.6033 37.975C91.3668 37.975 90.4207 37.975 89.4745 37.975ZM107.451 32.7713C107.688 33.0078 107.924 33.4809 107.924 33.7174C107.924 33.9539 108.634 33.9539 108.87 33.9539C109.107 33.9539 108.87 34.427 108.634 34.427C108.397 34.427 107.924 34.427 107.688 34.427L107.451 34.6635C107.688 34.1905 107.688 33.9539 107.688 33.4809C107.451 33.2443 107.451 33.0078 107.451 32.7713ZM103.903 33.2443L104.14 34.1905C104.14 34.1905 104.14 34.427 103.903 34.427H102.011C102.011 34.427 101.774 34.427 101.774 34.1905V33.4809C101.774 33.4809 101.774 33.2443 102.011 33.2443H103.903ZM101.774 31.5886C101.301 32.0617 101.065 32.7713 101.065 33.4809C101.065 34.1905 101.301 34.6635 101.538 35.1366C100.355 34.6635 99.1724 33.9539 99.1724 32.2982C99.4089 32.0617 100.119 31.5886 101.774 31.5886Z" fill="#006549"/>
<path d="M49.9741 152.693L51.1568 144.415C51.3933 142.049 51.3933 141.34 53.9951 141.34C56.3605 141.34 56.3605 142.049 56.1239 144.415L54.9413 153.166H66.2949L67.4775 144.178C68.8967 134.48 68.8967 131.169 55.4144 131.169C54.7048 131.169 33.6533 131.169 33.6533 131.169L41.2224 136.136C40.2763 138.028 40.0397 140.63 39.5666 144.178L38.384 153.166C36.2552 168.541 53.2856 164.757 52.1029 172.089L50.9202 180.368C50.6837 182.733 50.4472 183.443 48.0818 183.443C45.48 183.443 45.48 182.733 45.953 180.368L47.1357 171.616H35.7821L34.5995 180.604C33.1803 190.302 33.1803 193.614 46.8992 193.614C61.3277 193.614 61.3277 190.302 62.7469 180.604L63.9295 171.616C66.0583 156.241 49.028 160.262 49.9741 152.693Z" fill="#FFC62D"/>
<path d="M74.3367 131.405L65.585 193.614H77.6481L86.3999 131.405H74.3367Z" fill="#FFC62D"/>
<path d="M160.435 131.405L145.533 193.614H157.123L159.489 182.97H167.767L167.058 193.614H178.648L181.25 131.405H160.435ZM168.24 172.799H161.617L168.477 142.286H169.896L168.24 172.799Z" fill="#FFC62D"/>
<path d="M103.194 131.405H91.1306L82.3789 193.614H102.957L104.376 183.443H95.8613L98.2266 167.358H106.505L107.924 157.424H99.6458L101.775 141.576H110.29L110.526 139.448C110.763 136.609 108.398 134.244 103.194 131.405Z" fill="#FFC62D"/>
<path d="M140.565 131.405L135.835 165.466L134.652 179.185L133.233 131.405H127.32C123.772 133.298 119.987 135.19 115.966 137.082L107.924 193.614H117.858L122.589 159.553L123.772 145.597L125.191 193.614H141.748L150.5 131.405H140.565Z" fill="#FFC62D"/>
<path d="M146.007 50.7477C145.061 55.4784 141.513 59.9725 141.513 59.9725C145.297 60.4456 147.426 64.4666 146.716 68.4877C147.189 69.4338 147.663 70.1434 147.663 70.1434C150.737 59.2629 149.082 54.5322 146.007 50.2747C146.243 50.2747 146.243 50.5112 146.007 50.7477Z" fill="#FFC62D"/>
<path d="M150.029 29.2233L149.792 28.7502L150.029 28.2771C150.975 24.2561 152.631 20.9446 153.577 19.7619V18.3427C152.157 16.687 147.663 12.4294 141.04 9.35449H140.331C139.148 9.35449 138.202 9.59103 137.256 10.3006C142.223 13.6121 146.008 18.3427 148.609 24.7291C148.609 24.7291 148.846 30.4059 145.061 36.0827C144.588 39.6307 147.19 44.5979 149.083 47.1997C149.792 48.3824 150.502 49.3285 150.975 50.5112C154.286 49.5651 157.125 47.1997 159.017 43.1787C156.652 41.0499 151.448 33.9539 150.029 29.2233Z" fill="#FFC62D"/>
<path d="M132.762 81.024C132.289 81.497 130.87 82.4432 128.268 81.9701C125.666 81.4971 124.011 81.497 120.226 82.2066C118.807 82.4432 116.915 82.2066 114.549 80.3144C114.313 80.3144 114.076 80.0779 114.076 80.3144C114.313 80.7875 115.259 81.9701 117.151 82.9162C118.097 83.3893 118.807 83.6258 121.409 83.1528C124.011 82.6797 126.139 82.9162 128.032 83.1528C130.16 83.3893 131.816 83.8624 133.945 80.7875C133.708 80.5509 133.472 80.5509 132.762 81.024Z" fill="#FFC62D"/>
<path d="M115.495 78.6586C116.441 77.949 116.914 77.476 117.387 77.0029C117.624 76.5298 118.333 76.2933 118.806 76.2933C119.516 76.2933 119.989 76.5298 120.225 77.0029C120.935 78.1856 121.408 79.1317 121.408 80.5509H121.645C123.3 80.3143 124.72 80.3144 125.902 80.3144L126.612 79.6048L126.848 79.3682C127.321 78.8952 128.031 78.1856 128.504 77.476C128.977 77.0029 129.45 76.5298 130.16 76.5298C130.869 76.5298 131.579 77.0029 131.816 77.476C132.289 78.1856 132.289 79.1317 132.525 79.6048C133.471 79.1317 133.708 78.4221 133.708 78.4221C133.708 78.4221 134.181 77.2394 132.998 76.5298C132.052 75.8202 130.396 75.1106 128.977 74.401C127.795 73.928 126.848 72.7453 126.375 71.7992C126.612 72.7453 126.612 73.6914 126.375 74.6376C126.139 76.0568 125.193 77.0029 124.956 75.8202C124.72 75.1106 124.483 73.928 123.537 72.5088C120.462 75.1106 114.785 74.6376 113.603 76.5298C114.312 77.476 114.785 77.949 115.495 78.6586Z" fill="#FFC62D"/>
<path d="M124.01 47.9093C125.429 48.8555 127.558 47.9094 127.321 45.7806C127.085 44.3614 124.956 43.4152 123.537 44.5979C123.064 44.8344 123.537 45.7806 124.01 45.544C125.193 44.8344 125.902 45.3075 126.139 46.2536C126.375 47.1997 125.666 48.1459 124.01 47.9093Z" fill="#FFC62D"/>
<path d="M132.761 45.544C133.234 45.7805 133.707 44.8344 133.234 44.5979C131.815 43.4152 129.686 44.1248 129.45 45.7805C129.213 47.9093 131.106 48.8555 132.761 47.9093C131.106 48.1459 130.396 47.1997 130.632 46.2536C130.869 45.3075 131.815 44.8344 132.761 45.544Z" fill="#FFC62D"/>
<path d="M141.275 36.7923C140.566 37.7385 138.91 37.975 137.018 37.7385C137.254 37.975 141.039 40.3403 141.275 40.5769C141.985 39.6307 141.512 37.975 141.275 36.7923Z" fill="#FFC62D"/>
<path d="M140.802 34.6635C140.802 34.427 141.039 33.9539 141.039 33.7174C141.039 33.2444 141.039 32.7713 140.802 32.5348C140.566 32.5348 140.093 32.2982 139.619 32.2982C140.093 32.5348 140.329 33.0078 140.329 33.7174C140.329 34.6635 139.383 35.6097 138.437 35.6097C137.727 35.6097 137.018 35.1366 136.781 34.427H136.308C136.308 34.427 136.071 34.427 136.071 34.1905V33.7174C136.071 33.7174 136.071 33.4809 136.308 33.4809H136.781C136.781 33.0078 137.018 32.7713 137.254 32.5348C136.781 32.5348 136.308 32.7713 136.071 32.7713C136.071 33.0078 135.835 33.2444 135.835 33.7174C135.835 34.1905 136.071 34.9001 136.308 35.1366C137.018 35.3731 137.727 35.6097 138.673 35.6097C139.146 35.6097 140.093 35.3731 140.802 34.6635Z" fill="#FFC62D"/>
<path d="M139.383 30.6425C140.802 30.879 141.039 31.3521 141.748 31.1155C141.985 31.1155 142.222 30.879 142.222 30.6425C141.985 29.2233 139.147 28.5137 137.018 28.7502C135.599 28.9867 134.652 29.4598 133.943 29.6963C133.943 29.6963 133.706 29.4598 133.47 29.2233C132.997 29.6963 132.76 30.4059 132.997 31.5886C132.76 31.8251 132.524 31.8251 132.287 32.0617C131.814 32.0617 131.578 32.0617 131.104 32.0617C131.578 32.2982 132.287 32.5347 132.997 32.5347C133.706 32.2982 133.943 31.8251 134.416 31.3521C135.835 30.879 137.964 30.4059 139.383 30.6425Z" fill="#FFC62D"/>
<path d="M115.021 24.7291C114.311 23.3099 114.312 23.3099 113.602 22.6003C115.967 18.3427 114.785 11.9564 114.785 11.9564L115.731 10.7737C115.731 10.7737 118.569 10.7737 121.171 11.2468C129.923 18.5793 130.869 20.4715 129.45 25.4387L130.159 29.2233L132.288 26.3849C133.707 25.6753 135.363 25.2022 137.255 24.7291L136.309 26.6214C136.309 26.6214 138.674 24.7291 141.04 24.2561C141.749 24.2561 142.459 24.2561 143.169 24.2561C139.147 16.4505 133.944 12.9025 127.084 10.5372C117.15 7.2257 105.56 8.40836 94.6793 13.6121C94.6793 14.5582 94.6793 15.7409 94.6793 16.687C93.0235 14.5582 91.6044 12.4294 89.9486 10.5372C89.7121 10.0641 88.7659 8.88143 87.1102 8.64489C86.1641 8.40836 85.691 8.40836 84.9814 8.40836L83.5622 8.17183C83.3257 8.17183 83.0892 8.17183 82.8526 8.40836L82.143 8.88143C79.7777 10.3006 75.5201 13.3756 73.1548 14.7947L71.9721 15.7409L71.2625 16.2139C70.7895 16.4505 70.5529 17.1601 70.3164 17.6331C70.3164 17.8697 70.3164 18.1062 70.5529 18.3427C71.026 19.7619 71.4991 21.4177 71.9721 22.8369C72.6817 25.2022 73.3913 27.8041 73.1548 30.4059C70.3164 33.2443 67.0049 35.8462 63.93 38.2115C62.0377 39.8672 62.0377 41.7595 63.4569 43.8883C64.6396 45.7806 66.5319 47.9093 67.7145 49.3285C71.4991 50.0381 77.6489 48.1459 79.0681 42.4691C79.7777 39.3942 79.3046 33.7174 82.6161 30.4059C82.8526 30.1694 83.5622 30.4059 83.3257 30.879C82.3796 34.1904 82.3796 36.7923 82.3796 39.6307C82.3796 43.8883 80.7238 48.6189 76.9393 51.4573C76.2297 52.8765 69.8433 67.0685 66.0588 81.9701C63.2204 93.3237 67.478 101.602 69.1337 103.495C69.3703 101.129 70.5529 99.71 70.5529 99.71C69.8433 96.1621 70.7895 92.8506 71.9721 91.1949C71.9721 95.4524 73.8644 97.5812 75.5201 98.0543C74.574 90.9583 77.8854 83.8623 85.4545 82.2066C84.0353 80.3143 82.6161 77.949 81.4334 75.3472C81.1969 75.5837 80.9604 75.8202 80.7238 76.0568C78.3585 71.0896 78.122 61.8648 80.4873 56.4245C81.1969 67.305 84.5084 74.8741 88.2929 79.8413C84.0353 73.4549 83.7988 68.0146 85.4545 63.9936C86.1641 65.8858 87.1102 66.832 87.1102 66.832C87.1102 66.832 90.8947 56.6611 101.302 57.3707C97.9907 53.3496 97.0446 49.092 96.8081 46.9632C93.4966 44.5979 91.1313 41.523 89.7121 38.448C90.6582 38.448 91.6044 38.448 92.3139 38.448C87.8198 33.7174 87.8198 27.5675 88.2929 23.3099C92.5505 22.3638 98.2273 22.1273 103.431 23.0734L107.925 26.3849L107.216 24.0195C107.452 24.0195 107.689 24.2561 107.925 24.2561C108.635 24.4926 109.344 24.7291 110.054 25.2022C111.237 25.6753 112.419 26.3849 113.365 27.0945C113.365 27.0945 114.548 29.6963 115.494 32.0616C115.731 30.879 116.44 28.7502 115.021 24.7291Z" fill="#FFC62D"/>
<path d="M106.032 32.0617C106.505 32.5347 106.505 33.0078 106.505 33.4809C106.505 34.427 106.032 35.1366 105.086 35.3731C106.032 35.1366 106.742 34.9001 107.215 34.6635C107.451 34.1905 107.451 33.9539 107.451 33.4809C107.451 33.2443 107.451 33.0078 107.451 32.7713C107.215 32.5347 106.742 32.2982 106.032 32.0617Z" fill="#FFC62D"/>
<path d="M101.776 33.2443H102.249C102.249 32.5347 102.722 32.0616 103.195 31.8251C102.722 31.8251 102.249 31.8251 101.776 31.8251C101.303 32.2982 101.066 33.0078 101.066 33.7174C101.066 34.427 101.303 34.9 101.539 35.3731C102.013 35.6096 102.486 35.6096 103.195 35.6096C103.432 35.6096 103.668 35.6096 103.905 35.6096C103.195 35.3731 102.486 34.9 102.249 34.1904H101.776C101.776 34.1904 101.539 34.1904 101.539 33.9539L101.776 33.2443Z" fill="#FFC62D"/>
<path d="M98.2262 36.3192C97.7531 37.7384 98.2262 40.3403 99.4089 41.0499C101.774 40.8133 104.376 39.1576 106.032 37.0288C102.957 38.6845 99.6454 37.5019 98.2262 36.3192Z" fill="#FFC62D"/>
<path d="M110.29 31.3521C110.054 31.3521 109.817 31.3521 109.817 31.1156C110.054 29.2233 109.344 28.2772 108.635 27.8041C108.635 28.2772 108.398 28.5137 108.161 28.5137C107.452 28.2772 106.033 27.5676 104.14 27.5676C101.539 27.5676 97.9905 28.5137 98.2271 30.1694C98.4636 30.406 98.7001 30.6425 98.9366 30.6425C99.6462 30.879 100.119 30.1694 101.775 29.6964C103.667 29.4598 106.269 29.6964 107.688 30.879C108.398 31.3521 108.634 32.0617 109.581 32.2982C110.29 32.2982 111.236 31.8252 111.709 31.3521C111.236 31.3521 110.763 31.3521 110.29 31.3521Z" fill="#FFC62D"/>
</svg>
