<svg width="200" height="200" viewBox="0 0 200 200" fill="none" xmlns="http://www.w3.org/2000/svg">
<path d="M196.345 25H0L11.2281 41.6374C10.5263 43.3626 10.0292 45.1754 9.73684 47.0468C9.32749 49.7076 9.41521 52.3684 9.94152 55C10.4971 57.7193 11.5497 60.1754 13.0702 62.3392C13.3626 62.7485 13.6842 63.1287 14.0058 63.5088L1.81287 66.9883L3.09942 73.0702C3.77193 76.1988 4.53216 78.5672 5.49708 80.2924C7.63158 84.2982 11.0234 87.3977 15.5263 89.5322C19.2105 91.3158 23.8012 92.193 29.5614 92.193C33.7719 92.193 37.6608 91.7544 41.1404 90.8772C43.9181 90.1462 46.7544 88.8304 49.5614 86.9591C52.5439 84.9708 54.9708 82.6608 56.8713 80.0292L55.117 92.193H83.9181L86.7544 72.7485C87.6608 80 91.2281 85.5848 97.193 88.9474C101.053 91.1403 106.199 92.193 112.924 92.193C117.339 92.193 120.936 91.8129 123.947 91.0234C129.415 89.5906 134.035 86.7251 137.719 82.5731C138.977 81.1404 140.058 79.6491 140.994 78.0409L138.947 92.193H189.62L193.421 65.9357H190.439L196.345 25Z" fill="black"/>
<path d="M142.457 68.7719H57.749V87.3392H142.457V68.7719Z" fill="black"/>
<path d="M53.6251 54.0643C51.9877 52.6316 49.8824 51.462 47.2508 50.5263L61.6368 45.1462L61.2274 42.7778C60.9935 41.3158 60.7011 40.2047 60.4087 39.3567C59.6485 37.3684 58.4204 35.4971 56.6953 33.7719C53.3034 30.4386 47.8064 28.8011 39.9116 28.8011H39.8824H7.04614L14.9994 40.5848L15.5257 41.3158C14.473 43.3041 13.7713 45.4386 13.4496 47.6316C13.0988 49.8538 13.1572 52.076 13.6251 54.2397C14.0929 56.462 14.9116 58.4503 16.1105 60.1462C17.3093 61.7836 18.9467 63.2748 21.052 64.5321C21.4029 64.7368 21.7245 64.9415 22.0754 65.1169L6.16895 69.6783L6.7245 72.3392C7.3093 75.0877 7.98181 77.1345 8.74205 78.5672C10.4964 81.8421 13.3327 84.4152 17.1046 86.1988C20.2625 87.7485 24.3268 88.4795 29.5315 88.4795C33.4496 88.4795 37.0169 88.0702 40.1456 87.2807C42.5432 86.6374 44.9701 85.4971 47.4263 83.8889C53.2742 79.9415 56.7537 74.6491 57.7479 68.1286C58.1572 65.5263 58.0403 62.9824 57.4262 60.6433C56.7245 57.8655 55.4379 55.6725 53.6251 54.0643ZM34.8824 69.3859C34.8239 69.6783 34.7654 69.7953 34.473 69.9415C33.859 70.2631 33.0695 70.4386 32.1046 70.4386C29.4146 70.4386 28.6251 69.4152 28.3619 69.0935C28.3327 69.0351 27.9818 68.5965 27.6309 67.1345C32.4263 68.1579 33.8005 68.5965 34.1806 68.7719C34.707 68.9766 34.8824 69.1813 34.8824 69.1813C34.8824 69.152 34.8824 69.2397 34.8824 69.3859ZM38.7128 48.3333C37.6017 48.0702 36.5198 47.7193 35.4964 47.2514C35.2625 47.1345 35.1456 47.0468 35.0578 46.9883C35.0578 46.9883 35.0578 46.9883 35.0578 46.959C35.0871 46.7836 35.1456 46.4035 35.9643 45.9357C36.6368 45.5555 37.3385 45.3801 38.128 45.3801C39.1222 45.3801 39.8532 45.6725 40.4964 46.3158C40.9643 46.7544 41.2859 47.6316 41.4321 48.8596V48.9473L38.7128 48.3333Z" fill="white"/>
<path d="M189.268 47.5146L191.988 28.7427H125.643L120.76 61.6667C120.146 65.7017 119.532 67.3099 119.21 67.8947C118.654 68.8889 117.66 70 114.766 70C112.28 70 111.959 69.1813 111.812 68.8596C111.725 68.6257 111.315 67.2514 112.017 62.5438L117.046 28.8012H57.7188L66.169 41.9006L59.4147 88.4503H80.6135L88.5375 33.8596L93.8591 41.8713L90.8766 61.8713C90.3503 65.3801 90.1457 68.0994 90.2334 70.1754C90.555 77.3684 93.479 82.6023 98.9761 85.7017C102.251 87.5731 106.812 88.4795 112.865 88.4795C116.959 88.4795 120.233 88.1286 122.923 87.4269C127.66 86.1696 131.666 83.7134 134.824 80.1169C136.783 77.8947 138.304 75.4386 139.356 72.7778C140.38 70.2047 141.169 66.9298 141.783 62.7485L145.847 35.5263L149.97 41.9006L143.216 88.5088H186.315L189.035 69.7368H167.163L167.485 67.5146H186.403L189.005 49.5322H170.087L170.38 47.5731H189.268V47.5146Z" fill="white"/>
<path d="M54.6201 61.3158C54.0646 59.152 53.0704 57.4854 51.6961 56.2573C49.6786 54.4737 46.5792 53.0994 42.3979 52.1637L38.0412 51.1988C36.7254 50.9064 35.4681 50.4678 34.24 49.9123C32.6318 49.152 31.9593 48.0409 32.164 46.5789C32.3687 45.2631 33.1581 44.2398 34.5324 43.4503C35.6435 42.8362 36.8423 42.5146 38.1289 42.5146C39.8833 42.5146 41.3453 43.0994 42.5441 44.269C43.4798 45.2047 44.0938 46.6082 44.3277 48.5088L58.3628 43.2456C58.1581 41.9591 57.9242 40.9941 57.6903 40.3509C57.0763 38.7427 56.0821 37.2222 54.6494 35.7895C51.8423 33.0409 46.9593 31.6667 39.9125 31.6667H39.8833H12.5149L17.3979 38.8889L18.9476 41.1403C18.7429 41.4327 18.5675 41.7544 18.392 42.076L18.2166 42.3684C17.2517 44.152 16.6084 46.0526 16.316 48.0409C16.0236 49.9123 16.0821 51.7836 16.4622 53.6257C16.8423 55.4678 17.5149 57.076 18.4798 58.421C19.4447 59.7368 20.7897 60.9357 22.5733 62.0175C24.357 63.0702 26.1991 63.8304 28.1289 64.2398C31.9301 65.0292 34.2985 65.6433 35.2926 66.0526C37.1932 66.8421 38.0119 68.0702 37.7488 69.8245C37.5733 71.0234 36.9301 71.9298 35.8482 72.4854C34.7956 73.0702 33.5382 73.3626 32.1055 73.3626C29.357 73.3626 27.3394 72.5438 26.0821 70.8772C25.5265 70.1754 25.088 69.0058 24.7371 67.3684L9.62012 71.6959C10.1464 74.152 10.7312 75.9649 11.3745 77.1345C12.8365 79.8538 15.2049 81.9883 18.4505 83.5088C21.1698 84.8245 24.8833 85.4971 29.5909 85.4971C33.2751 85.4971 36.5792 85.1462 39.4739 84.4152C41.5499 83.8596 43.6844 82.8655 45.8774 81.4035C51.0529 77.924 54.0646 73.3333 54.9418 67.6023C55.2342 65.4093 55.1464 63.3041 54.6201 61.3158Z" fill="#CE202F"/>
<path d="M63.0708 31.6667L69.2404 41.1988L62.8076 85.5263H78.1293L85.9363 31.6667H63.0708Z" fill="#CE202F"/>
<path d="M128.158 31.6667L123.626 62.076C123.129 65.4971 122.486 67.8947 121.755 69.269C120.439 71.6667 118.1 72.8947 114.766 72.8947C111.755 72.8947 109.883 71.9006 109.123 69.883C108.567 68.5088 108.597 65.9064 109.152 62.076L113.684 31.6667H90.6143L96.9008 41.1696L93.7722 62.2807C93.2751 65.5555 93.0704 68.1579 93.1581 70.0292C93.4213 76.1988 95.8482 80.5555 100.41 83.1579C103.217 84.7368 107.369 85.5555 112.866 85.5555C116.667 85.5555 119.766 85.2339 122.193 84.5906C126.374 83.4795 129.854 81.345 132.661 78.1579C134.415 76.1696 135.731 74.0058 136.667 71.6667C137.603 69.3275 138.363 66.1988 138.948 62.2807L143.509 31.6667H128.158Z" fill="#CE202F"/>
<path d="M186.755 44.6199L188.655 31.6667H146.901L153.041 41.1696L146.579 85.5263H183.801L185.673 72.5731H163.801L164.971 64.5322H183.86L185.643 52.3976H166.725L167.866 44.6199H186.755Z" fill="#CE202F"/>
<path d="M196.053 84.3275C193.889 84.3275 192.105 86.0819 192.105 88.2749C192.105 90.4678 193.86 92.2222 196.053 92.2222C198.217 92.2222 200 90.4678 200 88.2749C200 86.0819 198.246 84.3275 196.053 84.3275ZM196.053 91.345C194.357 91.345 192.953 89.9708 192.953 88.2456C192.953 86.5497 194.328 85.1462 196.053 85.1462C197.749 85.1462 199.152 86.5205 199.152 88.2456C199.152 89.9708 197.778 91.345 196.053 91.345Z" fill="black"/>
<path d="M197.69 87.3392C197.69 86.6082 197.105 85.9941 196.345 85.9941H194.444V90.4971H195.292V88.6842H195.906L196.754 90.4971H197.69L196.813 88.5965C197.31 88.421 197.69 87.924 197.69 87.3392ZM196.345 87.8363H195.292V86.8421H196.345C196.608 86.8421 196.842 87.076 196.842 87.3392C196.842 87.6023 196.608 87.8363 196.345 87.8363Z" fill="black"/>
<path d="M131.666 148.713C131.666 148.713 127.778 151.93 118.684 147.485C117.076 147.31 115.029 147.456 112.953 147.749C110.175 148.626 107.251 149.942 104.386 151.93C108.596 159.766 117.251 159.357 117.251 159.357C117.251 159.357 116.462 160.819 115.263 161.491C121.14 162.222 125.497 157.515 125.497 157.515C125.497 157.515 125.204 158.801 124.824 159.708C131.374 157.544 135.935 150.117 135.935 150.117C133.596 148.626 131.666 148.713 131.666 148.713Z" fill="white"/>
<path d="M144.269 109.912C144.006 109.912 143.714 109.942 143.451 110C143.451 110 143.1 112.719 141.375 114.035C142.135 112.251 141.404 110.497 141.404 110.497C141.258 110.526 141.141 110.585 140.995 110.643H140.965C140.848 110.673 140.761 110.731 140.644 110.76C140.585 110.789 140.556 110.789 140.497 110.819C140.439 110.848 140.41 110.848 140.351 110.877C140.176 110.936 140.03 111.023 139.854 111.082C139.825 111.082 139.825 111.082 139.796 111.111C138.743 111.579 137.983 112.018 137.983 112.018L140.088 111.784C140.117 111.93 140.147 112.076 140.147 112.222C140.147 113.216 139.445 114.035 138.509 114.24C138.334 114.269 138.129 114.298 137.837 114.269C137.193 114.181 136.638 113.801 136.316 113.275C135.234 114.181 134.679 114.912 134.679 114.912C134.679 114.912 134.796 115.351 135.059 116.053C135.059 116.053 135.585 116.959 138.86 116.374C137.369 117.485 135.731 117.778 135.731 117.778C136.93 120.76 139.24 125.439 142.895 128.86C142.954 128.713 143.012 128.567 143.071 128.421C143.1 128.333 143.129 128.275 143.158 128.216C143.187 128.158 143.217 128.07 143.246 128.012C143.275 127.924 143.334 127.807 143.363 127.719C143.363 127.69 143.392 127.661 143.392 127.602C143.421 127.485 143.48 127.368 143.509 127.251C143.509 127.222 143.509 127.222 143.538 127.193C143.568 127.076 143.626 126.959 143.655 126.842V126.813C144.766 123.275 144.386 120.848 143.977 118.304C143.568 115.789 143.158 113.246 144.269 109.912Z" fill="white"/>
<path d="M141.257 137.456C141.257 137.456 142.105 136.199 143.743 134.444C143.538 133.626 143.304 133.187 143.304 133.187C143.158 133.392 141.842 134.971 139.883 136.374C138.392 139.181 135.263 140.526 132.603 140.205C131.813 140.877 130.468 141.784 130.468 141.784L130.088 143.421C134.737 144.211 137.924 146.52 139.415 147.836C141.257 145.614 142.398 143.538 143.07 141.725C142.339 142.134 141.579 142.544 140.848 142.982C140.848 142.982 141.725 142.193 143.334 141.023C143.626 140.117 143.801 139.298 143.918 138.538C142.573 139.298 141.228 140.088 139.883 140.936C139.883 140.936 141.374 139.474 144.006 137.456C144.035 136.667 144.006 135.965 143.918 135.38C143.041 135.994 142.135 136.696 141.257 137.456Z" fill="white"/>
<path d="M146.111 102.31C139.591 99.1813 127.134 86.9883 127.134 86.9883C127.105 86.9591 127.076 86.9591 127.047 86.9298C127.018 86.9006 126.959 86.8713 126.901 86.8421C125.965 86.3158 122.865 84.8538 117.632 85.0585C117.982 85.3801 118.304 85.731 118.626 86.0526C121.345 89.0058 123.187 92.3977 124.591 95.6725V95.7018C124.708 95.9941 124.825 96.2573 124.941 96.5497C124.941 96.5789 124.971 96.6082 124.971 96.6082C125.088 96.8713 125.175 97.1345 125.292 97.3977C125.292 97.4269 125.322 97.4561 125.322 97.4854C125.409 97.7485 125.526 98.0117 125.614 98.2748C125.614 98.3041 125.643 98.3333 125.643 98.3626C125.731 98.6257 125.819 98.8889 125.936 99.1228C125.936 99.152 125.965 99.1813 125.965 99.1813C126.053 99.4444 126.14 99.7076 126.228 99.9415C113.099 76.3743 91.1696 81.1111 83.3625 84.7953C83.3625 84.7953 84.2105 85.9064 85.9941 87.076C86.1403 87.1637 86.2573 87.2515 86.4035 87.3392C86.4327 87.3392 86.4327 87.3684 86.462 87.3684C86.6082 87.4561 86.7544 87.5439 86.9006 87.6316C86.9298 87.6316 86.959 87.6608 86.959 87.6608C87.1052 87.7485 87.2514 87.8363 87.4269 87.924C87.4561 87.924 87.4853 87.9532 87.4853 87.9532C87.6315 88.0409 87.807 88.1286 87.9824 88.1871C88.0117 88.1871 88.0117 88.2164 88.0409 88.2164C88.2163 88.3041 88.3918 88.3918 88.5965 88.4795C75.8187 87.4269 65.5263 81.4035 58.9766 78.1871C58.9766 78.1871 64.9707 91.345 81.7836 93.7427C81.7836 93.7427 78.8011 95.9357 73.538 95.9357C75.3216 97.5439 77.6608 98.3333 77.6608 98.3333C70.731 101.053 65.5848 97.4561 65.5848 97.4561C66.6666 96.7836 67.3684 95.9064 67.3684 95.9064C67.3684 95.9064 63.6549 94.5322 60.8479 89.9708C61.462 90.117 62.2807 90.0877 62.2807 90.0877C59.0351 86.6374 58.1286 82.0175 58.1286 82.0175C56.9883 94.4152 64.5614 102.982 72.5146 105.848L66.6082 104.883C64.9707 107.368 57.69 118.041 48.0994 125.409C47.807 132.953 49.8538 139.357 51.6082 143.421L52.3391 139.62L54.7953 145.175C54.8245 145.234 58.0994 152.398 66.2573 159.094C70.2046 162.339 74.6783 164.942 79.5321 166.871C75.3216 163.684 73.6257 160.76 73.4795 160.526L70.731 155.643L75.8772 157.836C75.9649 157.865 81.1403 160.029 87.2222 160.731C86.9005 160.614 86.6082 160.497 86.2865 160.351C78.2456 157.047 72.807 151.608 70.3801 144.474C70.1754 144.942 69.6783 146.14 69.3859 147.895C65.9649 146.287 56.959 127.398 70.4093 112.368C61.8421 129.006 68.3625 139.064 68.3625 139.064C68.7134 138.304 69.2105 137.456 69.8245 136.784C77.4269 149.737 90.497 140.673 101.754 149.152C101.725 149.123 101.725 149.094 101.696 149.064C101.637 148.977 101.579 148.889 101.491 148.801L101.462 148.772C101.403 148.684 101.345 148.596 101.287 148.509C101.257 148.48 101.257 148.45 101.228 148.421C101.17 148.333 101.111 148.246 101.053 148.158C101.023 148.129 100.994 148.07 100.965 148.041C100.906 147.953 100.848 147.865 100.789 147.778C100.76 147.719 100.731 147.661 100.702 147.632C100.643 147.544 100.585 147.456 100.556 147.368C100.526 147.31 100.468 147.222 100.439 147.164C100.38 147.076 100.351 146.988 100.292 146.901C100.234 146.813 100.205 146.754 100.146 146.667C100.088 146.579 100.058 146.491 100 146.404C99.9415 146.316 99.9122 146.228 99.8538 146.111C99.7953 146.023 99.766 145.936 99.7076 145.848C99.6491 145.731 99.5906 145.643 99.5614 145.526C99.5321 145.439 99.4736 145.351 99.4444 145.263C99.3859 145.146 99.3274 145.029 99.269 144.912C99.2397 144.825 99.1813 144.737 99.152 144.649C99.0935 144.532 99.035 144.386 98.9766 144.269C98.9473 144.181 98.8889 144.094 98.8596 144.006C98.8011 143.86 98.7427 143.713 98.6842 143.596C98.6549 143.509 98.5965 143.421 98.5672 143.333C98.5087 143.187 98.4503 143.041 98.3918 142.895C98.3625 142.807 98.3333 142.719 98.2748 142.602C98.2163 142.456 98.1579 142.281 98.0994 142.105C98.0701 142.018 98.0409 141.93 98.0117 141.842C97.9532 141.667 97.8947 141.462 97.8362 141.287C97.807 141.199 97.7777 141.111 97.7485 141.023C97.6608 140.76 97.5731 140.468 97.4853 140.175C97.1345 139.152 96.9005 138.129 96.7543 137.135C83.5087 134.327 72.7777 134.942 72.7777 134.942C81.4912 132.427 89.8245 133.275 96.5497 135.088C96.5204 134.415 96.5497 133.772 96.6081 133.158C80.9064 128.977 68.1286 129.444 68.1286 129.444C79.152 127.018 89.1813 128.567 96.9883 131.111C97.1345 130.526 97.3099 130 97.5438 129.474C82.1637 123.977 70.2924 122.602 70.2924 122.602C81.0526 121.462 90.9356 124.094 98.5965 127.398C98.9766 126.813 99.4444 126.228 99.9707 125.673C87.7777 120.205 76.959 119.035 76.959 119.035C87.3684 117.515 95.8772 120.497 101.959 124.064C104.912 122.281 109.035 121.959 113.743 125.731C111.287 124.825 108.246 124.708 105.409 126.316C110.058 129.678 112.573 132.865 112.573 132.865C109.678 130.76 106.696 128.977 103.743 127.456C103.216 127.895 102.69 128.421 102.193 129.035C109.825 132.836 114.503 136.813 114.503 136.813C109.971 134.444 105.468 132.456 101.17 130.789C100.965 131.287 100.789 131.842 100.672 132.427C108.655 135.585 113.509 139.357 113.509 139.357C109.123 137.251 104.708 135.585 100.439 134.269C100.409 134.942 100.439 135.643 100.526 136.345C107.485 138.772 111.901 141.842 111.901 141.842C108.216 140.292 104.474 139.064 100.848 138.129C101.316 140.029 102.222 142.018 103.538 143.918C103.567 143.947 103.567 143.977 103.596 144.006C103.713 144.181 103.83 144.327 103.947 144.503C103.977 144.532 104.006 144.561 104.006 144.591C104.152 144.766 104.298 144.971 104.444 145.146C104.474 145.205 104.532 145.234 104.561 145.292C104.678 145.439 104.795 145.556 104.912 145.702C104.971 145.76 105.029 145.848 105.088 145.906C105.175 146.023 105.292 146.14 105.38 146.228C105.439 146.287 105.497 146.374 105.585 146.433C105.672 146.52 105.76 146.608 105.848 146.725C109.883 144.795 116.696 142.544 126.023 143.07L126.374 141.579L124.503 139.094C124.503 139.094 119.561 138.48 119.181 133.07C118.246 132.339 117.222 131.637 116.199 130.936L115.468 127.134L117.076 130.117C117.076 130.117 120.117 131.93 124.444 132.573C124.444 132.573 124.006 131.111 123.421 129.035C125.672 132.339 126.316 132.953 126.316 132.953C126.403 133.012 126.52 133.099 126.608 133.158C126.637 133.187 126.667 133.187 126.696 133.216C126.784 133.275 126.871 133.333 126.959 133.392C126.988 133.392 126.988 133.421 127.018 133.421C127.134 133.48 127.222 133.538 127.339 133.596C127.368 133.626 127.398 133.626 127.427 133.655C127.515 133.713 127.602 133.743 127.69 133.772C127.719 133.801 127.748 133.801 127.778 133.83C127.895 133.889 128.012 133.947 128.129 133.977C128.158 134.006 128.216 134.006 128.246 134.035C128.333 134.064 128.421 134.094 128.509 134.152C128.567 134.181 128.596 134.181 128.655 134.211C128.772 134.24 128.889 134.298 129.035 134.327C129.064 134.327 129.123 134.357 129.152 134.357C129.24 134.386 129.327 134.415 129.415 134.444C129.474 134.474 129.532 134.474 129.591 134.503C129.678 134.532 129.795 134.561 129.883 134.591C129.941 134.62 130.029 134.62 130.088 134.649C130.175 134.678 130.292 134.678 130.38 134.708C130.439 134.708 130.497 134.737 130.556 134.737C130.643 134.766 130.731 134.766 130.819 134.795C134.327 135.409 138.392 134.708 140.322 131.637C130.322 117.924 132.632 111.374 132.953 110.585C132.982 110.526 132.982 110.497 132.982 110.497C133.099 112.105 133.772 113.216 133.772 113.216C133.772 113.216 135.38 107.69 139.152 106.491C137.748 108.187 137.164 109.591 136.93 110.38C136.813 110.819 136.784 111.053 136.784 111.053C137.281 110.76 137.778 110.497 138.275 110.263C141.433 108.743 144.766 108.304 144.766 108.304L145.409 106.93C145.672 106.374 145.819 105.789 145.877 105.175C146.287 104.269 146.316 103.099 146.111 102.31ZM109.766 99.9415C109.766 99.9415 113.187 101.374 115.175 103.363C115.175 103.363 115.38 102.573 115.322 102.047C117.719 104.064 117.164 108.655 119.298 111.374C117.865 111.14 116.725 107.544 116.725 107.544C116.725 107.544 116.608 108.041 116.082 108.743C114.941 102.982 109.766 99.9415 109.766 99.9415ZM118.363 117.485C115.175 121.52 106.14 120.643 99.6491 116.55C107.134 119.24 111.403 117.164 111.403 117.164C111.403 117.164 108.333 117.018 106.696 115.848C111.287 116.257 112.661 113.538 112.661 113.538C112.661 113.538 111.637 113.041 110 112.164C109.444 113.187 108.333 113.86 107.105 113.801C106.023 113.743 105.088 113.129 104.591 112.281C104.386 111.959 104.21 111.433 104.181 111.082C104.152 110.906 104.152 110.702 104.152 110.526C104.152 110.439 104.181 110.351 104.181 110.263L107.339 110.702C107.339 110.702 105.263 109.561 103.363 108.421C102.602 107.982 101.901 107.544 101.316 107.164C101.316 107.164 100.292 110.175 102.368 113.83C97.6315 110.585 98.1871 105.146 98.1871 105.146C97.69 104.825 97.1929 104.474 96.6959 104.123C96.6082 104.064 96.5204 104.006 96.4619 103.947C96.2865 103.83 96.1403 103.713 95.9649 103.596C95.497 103.246 95.0292 102.924 94.5614 102.573C94.5321 102.573 94.5321 102.544 94.5029 102.544C94.3275 102.427 94.1812 102.31 94.0058 102.164C93.9181 102.105 93.8596 102.047 93.7719 101.988C93.3333 101.667 92.9239 101.316 92.4853 100.965C92.4561 100.936 92.3976 100.906 92.3684 100.877C92.1637 100.702 91.959 100.556 91.7836 100.38C91.7543 100.351 91.7251 100.351 91.6959 100.322C90.3801 99.2105 89.152 98.0702 88.0994 96.9298C87.9239 96.7544 87.7485 96.5497 87.6023 96.3743C113.977 115.029 106.199 104.532 102.69 100.468C109.532 105.029 108.479 109.269 114.152 112.836C114.152 112.836 113.655 112.222 113.275 111.257C113.246 111.199 113.216 111.111 113.187 111.023C113.187 110.994 113.187 110.994 113.158 110.965C113.129 110.906 113.099 110.819 113.099 110.76C113.099 110.731 113.07 110.702 113.07 110.673C113.041 110.585 113.012 110.468 112.982 110.38C112.953 110.322 112.953 110.234 112.924 110.175C112.924 110.117 112.895 110.088 112.895 110.029C112.895 109.971 112.865 109.883 112.865 109.825C112.865 109.766 112.865 109.737 112.836 109.678C112.836 109.591 112.807 109.503 112.807 109.415C112.807 109.386 112.807 109.327 112.807 109.298C112.807 109.181 112.778 109.035 112.778 108.918C116.754 114.737 119.415 112.953 119.415 112.953C119.415 112.953 119.474 113.275 119.474 113.713C119.474 114.269 119.444 114.795 119.327 115.263C119.591 119.415 121.082 121.842 121.082 121.842C119.825 120.322 118.977 119.006 118.363 117.485ZM133.655 108.977C134.971 105.731 134.298 105.673 135.877 102.953C135.936 103.421 136.053 103.743 136.053 103.743C137.573 101.784 139.532 101.345 139.532 101.345C139.532 101.345 136.199 103.012 135.702 107.164C135.439 106.842 135.263 106.52 135.263 106.52C135.263 106.52 134.708 107.895 133.655 108.977Z" fill="white"/>
<path d="M140.906 94.6199C140.906 94.6199 146.433 89.7953 146.053 81.8713C141.14 85.9941 132.485 86.7251 132.485 86.7251C135.994 91.7251 140.906 94.6199 140.906 94.6199Z" fill="white"/>
<path d="M140.907 94.6199C140.907 94.6199 146.434 89.7953 146.054 81.8713C141.141 85.9941 132.486 86.7251 132.486 86.7251C135.995 91.7251 140.907 94.6199 140.907 94.6199Z" fill="#D4AE7D"/>
<path d="M141.375 114.035C141.024 114.532 140.614 115 140.205 115.409C139.767 115.819 139.299 116.111 138.86 116.316C137.369 117.427 135.731 117.719 135.731 117.719C136.93 120.702 139.24 125.38 142.895 128.801C143.392 127.661 143.743 126.608 143.977 125.643C144.416 120.643 140.819 115.76 144.299 109.883C144.299 109.883 144.299 109.883 144.299 109.854C144.006 109.883 143.743 109.912 143.48 109.971C143.451 110 143.1 112.719 141.375 114.035Z" fill="#D4AE7D"/>
<path d="M146.112 102.31C139.591 99.1813 127.135 86.9883 127.135 86.9883C127.077 86.9591 127.018 86.9006 126.901 86.8421C124.796 86.3158 121.346 85.6725 118.627 86.0819C122.603 90.3801 124.708 95.6725 126.229 99.9708C111.434 77.9532 90.5271 84.0936 84.8838 86.2865C85.7318 86.9883 86.9891 87.807 88.5973 88.5088C75.8195 87.4561 65.5271 81.4327 58.9774 78.2164C58.9774 78.2164 64.9715 91.3743 81.7844 93.7719C81.7844 93.7719 78.8019 95.9649 73.5388 95.9649C75.3224 97.5731 77.6616 98.3626 77.6616 98.3626C76.1704 102.076 71.7844 103.83 71.7844 103.83L72.5446 105.877H72.5154L68.5973 105.234C67.3107 107.251 59.6791 118.772 49.7961 126.433C49.7961 126.433 49.7376 135.789 51.6382 143.421L52.3692 139.649L54.8253 145.205C54.8546 145.263 58.1294 152.427 66.2873 159.123C70.2347 162.368 74.7084 164.971 79.5622 166.901C75.3517 163.713 73.6557 160.789 73.5095 160.556L70.761 155.672L75.9072 157.865C75.9949 157.895 81.1704 160.058 87.2522 160.76C86.9306 160.643 86.6382 160.526 86.3166 160.38C78.2756 157.076 72.837 151.637 70.4101 144.503C70.2054 144.971 69.7084 146.17 69.416 147.924C65.9949 146.316 56.9891 127.427 70.4394 112.398C70.4394 112.398 65.878 125.877 69.299 134.152C69.299 134.152 70.0592 133.304 70.9949 132.427C74.9715 148.187 89.5914 137.368 101.697 149.123C100.673 147.719 98.8312 144.737 97.5154 140.175C97.1645 139.152 96.9306 138.129 96.7844 137.134C83.5388 134.327 72.8078 134.942 72.8078 134.942C81.5212 132.427 89.8546 133.275 96.5797 135.088C96.5505 134.415 96.5797 133.772 96.6382 133.158C80.9364 128.977 68.1587 129.444 68.1587 129.444C79.1821 127.018 89.2113 128.567 97.0183 131.111C97.1645 130.526 97.34 130 97.5739 129.474C82.1938 123.977 70.3224 122.602 70.3224 122.602C81.0826 121.462 90.9657 124.094 98.6265 127.398C99.0066 126.813 99.4745 126.228 100.001 125.673C87.8078 120.205 76.9891 119.035 76.9891 119.035C87.3984 117.515 95.9072 120.497 101.989 124.064C104.942 122.281 109.065 121.959 113.773 125.731C114.387 126.111 115.644 127.076 115.644 127.076L117.252 130.058C117.252 130.058 120.293 131.871 124.621 132.515C124.621 132.515 124.182 131.053 123.597 128.977C125.849 132.281 126.492 132.895 126.492 132.895C127.691 133.743 129.387 134.415 131.229 134.708C133.1 134.649 137.515 134.181 139.299 131.433C138.246 129.737 129.679 117.895 133.217 110.468C133.246 110.409 133.246 110.38 133.246 110.38C133.363 111.988 134.036 113.099 134.036 113.099C134.036 113.099 134.942 106.17 140.439 105.38C140.439 105.38 140.001 106.403 139.913 107.339C144.007 106.842 145.556 104.035 146.112 102.31C146.141 102.31 146.141 102.31 146.112 102.31ZM115.176 103.333C115.176 103.333 115.381 102.544 115.322 102.018C117.72 104.035 117.165 108.626 119.299 111.345C117.866 111.111 116.726 107.515 116.726 107.515C116.726 107.515 116.609 108.012 116.083 108.713C114.942 102.982 109.767 99.9123 109.767 99.9123C109.767 99.9123 113.188 101.345 115.176 103.333ZM118.363 117.485C115.176 121.52 106.141 120.643 99.6499 116.55C107.135 119.24 111.404 117.164 111.404 117.164C111.404 117.164 108.334 117.018 106.697 115.848C106.726 115.848 106.726 115.848 106.755 115.848C105.936 115.731 105.118 115.468 104.299 115.058C103.568 114.708 102.954 114.269 102.428 113.801C102.428 113.801 102.428 113.801 102.428 113.83C97.6908 110.585 98.2464 105.146 98.2464 105.146C94.2405 102.456 90.2932 99.4152 87.6616 96.3743C87.9247 96.5497 95.8195 101.579 96.8429 100.731C98.0417 99.5322 92.837 94.3567 92.837 94.3567C100.556 97.4561 100.79 103.772 103.1 103.333C104.094 103.129 102.749 100.439 102.749 100.439C108.685 102.807 110.673 108.275 113.334 111.228C113.071 110.585 112.866 109.795 112.866 108.889C116.843 114.708 119.504 112.924 119.504 112.924C119.504 112.924 119.562 113.246 119.562 113.684C119.562 114.24 119.533 114.766 119.416 115.234C119.679 119.386 121.17 121.813 121.17 121.813C119.825 120.322 118.977 119.006 118.363 117.485ZM135.703 107.164C135.439 106.842 135.264 106.52 135.264 106.52C135.264 106.52 134.738 107.895 133.685 108.977C135.001 105.731 134.328 105.673 135.907 102.953C135.966 103.421 136.083 103.743 136.083 103.743C137.603 101.784 139.562 101.345 139.562 101.345C139.562 101.345 136.2 103.012 135.703 107.164Z" fill="#D4AE7D"/>
<path d="M116.082 108.713C116.609 108.012 116.726 107.515 116.726 107.515C116.726 107.515 117.866 111.111 119.299 111.345C117.164 108.626 117.72 104.035 115.322 102.018C115.351 102.515 115.176 103.333 115.176 103.333C113.188 101.345 109.767 99.9123 109.767 99.9123C109.767 99.9123 114.942 102.982 116.082 108.713Z" fill="black"/>
<path d="M147.866 99.269C147.866 99.269 145.234 97.8363 143.714 96.4035C152.252 85.9942 147.836 76.4328 147.836 76.4328C140.351 83.8597 128.772 83.5088 128.772 83.5088C126.989 82.5439 121.579 80.2924 113.217 81.7252C106.287 77.7193 95.7604 76.462 79.2107 81.6667C79.2107 81.6667 69.7663 80.2924 57.1347 71.7836C57.1347 71.7836 47.778 90.4386 62.4856 104.094L62.6025 104.123C60.0002 107.865 53.3043 116.901 45.1464 122.953L44.4447 123.48L44.3862 124.357C43.4797 139.064 50.6142 149.825 50.9066 150.292L53.4797 154.123L54.0061 151.374C71.7546 179.912 110.965 174.474 110.965 174.474C110.965 174.474 108.538 169.737 108.772 164.094C108.772 164.094 112.193 165.058 115.497 164.825C115.146 165.205 114.445 165.556 114.445 165.556C114.445 165.556 128.567 166.813 138.48 152.164C138.743 152.456 139.006 152.749 139.269 153.07C139.269 153.07 145.322 147.164 146.959 139.825C147.047 139.386 147.135 138.947 147.193 138.509C147.281 137.895 147.339 137.281 147.339 136.667C147.339 136.14 147.339 135.614 147.31 135.117C147.252 134.474 147.164 133.83 147.018 133.216C146.901 132.719 146.755 132.251 146.579 131.754C146.345 131.053 146.024 130.351 145.643 129.678C147.836 124.386 147.281 120.936 146.784 117.865C146.287 114.883 145.877 112.31 148.217 108.158L148.626 107.193C149.006 106.316 150.059 100.556 147.866 99.269ZM146.053 81.8713C146.404 89.7953 140.907 94.6199 140.907 94.6199C140.907 94.6199 135.994 91.7544 132.515 86.7251C132.486 86.7251 141.141 85.9942 146.053 81.8713ZM124.825 159.678C125.205 158.772 125.497 157.485 125.497 157.485C125.497 157.485 121.141 162.164 115.263 161.462C116.462 160.789 117.252 159.327 117.252 159.327C117.252 159.327 108.597 159.737 104.386 151.901C107.252 149.912 110.176 148.596 112.953 147.719C115.029 147.427 117.076 147.281 118.684 147.456C127.778 151.901 131.667 148.684 131.667 148.684C131.667 148.684 133.597 148.626 135.936 150.058C135.965 150.088 131.374 157.485 124.825 159.678ZM144.035 137.427C141.374 139.444 139.912 140.906 139.912 140.906C141.258 140.058 142.603 139.269 143.948 138.509C143.831 139.269 143.655 140.117 143.363 140.994C141.755 142.164 140.877 142.953 140.877 142.953C141.608 142.515 142.369 142.105 143.1 141.696C142.398 143.509 141.258 145.585 139.445 147.807C137.953 146.491 134.796 144.181 130.117 143.392L130.497 141.754C130.497 141.754 131.842 140.848 132.632 140.175C135.322 140.497 138.421 139.123 139.912 136.345C141.842 134.942 143.158 133.363 143.334 133.158C143.334 133.158 143.567 133.596 143.772 134.415C142.135 136.17 141.287 137.427 141.287 137.427C142.164 136.667 143.041 135.965 143.948 135.292C144.035 135.906 144.065 136.608 144.035 137.427ZM142.895 128.83C139.24 125.409 136.93 120.731 135.731 117.749C135.731 117.749 137.369 117.456 138.889 116.345C135.614 116.93 135.088 116.023 135.088 116.023C134.854 115.292 134.708 114.883 134.708 114.883C134.708 114.883 135.263 114.152 136.345 113.246C136.667 113.772 137.222 114.152 137.866 114.24C138.158 114.269 138.334 114.24 138.538 114.211C139.474 114.035 140.176 113.187 140.176 112.193C140.176 112.047 140.146 111.901 140.117 111.754L138.012 111.988C138.012 111.988 138.772 111.55 139.825 111.082C139.854 111.082 139.854 111.082 139.883 111.053C140.029 110.994 140.205 110.906 140.38 110.848C140.439 110.819 140.468 110.819 140.527 110.789C140.585 110.76 140.614 110.76 140.673 110.731C140.79 110.702 140.877 110.643 140.994 110.614H141.024C141.17 110.556 141.287 110.526 141.433 110.468C141.433 110.468 142.164 112.251 141.404 114.035C143.129 112.719 143.48 110 143.48 110C143.743 109.971 144.035 109.912 144.298 109.883C143.158 113.246 143.567 115.789 143.977 118.275C144.445 121.287 144.912 124.123 142.895 128.83ZM146.228 105.117C146.17 105.731 146.024 106.316 145.76 106.871L145.117 108.246C145.117 108.246 141.784 108.684 138.626 110.205C138.129 110.439 137.632 110.702 137.135 110.994C137.135 110.994 137.164 110.76 137.281 110.322C137.515 109.532 138.1 108.129 139.503 106.433C135.702 107.632 134.123 113.158 134.123 113.158C134.123 113.158 133.45 112.047 133.334 110.439C133.334 110.439 129.971 116.901 140.643 131.579C137.749 136.17 130.029 135.439 126.579 132.953C126.579 132.953 125.936 132.339 123.684 129.035C124.269 131.111 124.708 132.573 124.708 132.573C120.41 131.93 117.339 130.117 117.339 130.117L115.731 127.135L116.462 130.936C117.456 131.637 118.509 132.339 119.445 133.07C119.825 138.48 124.766 139.094 124.766 139.094L126.638 141.579L126.287 143.07C116.959 142.573 110.117 144.825 106.111 146.725C106.024 146.637 105.936 146.55 105.848 146.433C105.79 146.374 105.731 146.287 105.643 146.228C105.527 146.111 105.439 145.994 105.351 145.906C105.293 145.848 105.234 145.76 105.176 145.702C105.059 145.585 104.942 145.439 104.825 145.292C104.796 145.234 104.737 145.205 104.708 145.146C104.562 144.971 104.415 144.795 104.269 144.591C104.24 144.561 104.211 144.532 104.211 144.503C104.094 144.327 103.977 144.181 103.86 144.006C103.831 143.977 103.831 143.947 103.801 143.918C102.456 142.018 101.579 140.058 101.111 138.129C104.737 139.064 108.45 140.292 112.164 141.842C112.164 141.842 107.72 138.772 100.79 136.345C100.702 135.643 100.673 134.942 100.702 134.269C104.971 135.585 109.386 137.251 113.772 139.357C113.772 139.357 108.918 135.585 100.936 132.427C101.053 131.871 101.228 131.316 101.433 130.789C105.731 132.456 110.205 134.444 114.766 136.813C114.766 136.813 110.088 132.836 102.456 129.035C102.953 128.421 103.48 127.924 104.006 127.456C106.959 128.977 109.942 130.76 112.836 132.865C112.836 132.865 110.322 129.678 105.673 126.316C108.509 124.708 111.55 124.825 114.006 125.731C109.298 121.959 105.176 122.281 102.222 124.064C96.1406 120.497 87.6318 117.515 77.2224 119.035C77.2224 119.035 88.0119 120.205 100.234 125.673C99.7078 126.228 99.24 126.784 98.8599 127.398C91.199 124.094 81.316 121.462 70.5558 122.602C70.5558 122.602 82.4271 123.977 97.8072 129.474C97.6025 130 97.3979 130.556 97.2517 131.111C89.4447 128.567 79.4446 127.018 68.392 129.444C68.392 129.444 81.1698 129.006 96.8715 133.158C96.8131 133.801 96.7838 134.444 96.8131 135.088C90.0879 133.275 81.7546 132.456 73.0411 134.942C73.0411 134.942 83.7721 134.327 97.0177 137.135C97.1639 138.129 97.4271 139.123 97.7487 140.175C99.0938 144.795 100.994 147.807 101.989 149.181C90.7312 140.702 77.6318 149.766 70.0587 136.813C69.4447 137.485 68.9476 138.333 68.5967 139.094C68.5967 139.094 62.0762 129.035 70.6435 112.398C57.1932 127.427 66.199 146.316 69.6201 147.924C69.9125 146.199 70.4096 144.971 70.6142 144.503C73.0119 151.608 78.4797 157.076 86.5207 160.38C86.8423 160.497 87.1347 160.643 87.4563 160.76C81.3745 160.058 76.199 157.924 76.1113 157.865L70.9651 155.673L73.7137 160.556C73.8599 160.789 75.5558 163.743 79.7663 166.901C74.8832 164.971 70.4388 162.368 66.4914 159.123C58.3335 152.427 55.0587 145.292 55.0294 145.205L52.5733 139.649L51.8423 143.45C50.0879 139.386 48.0411 132.953 48.3335 125.439C57.9242 118.07 65.2049 107.398 66.8423 104.912L72.7487 105.877C64.7663 103.012 57.1932 94.4444 58.3628 82.0468C58.3628 82.0468 59.2692 86.6667 62.5148 90.117C62.5148 90.117 61.6961 90.1462 61.0821 90C63.8599 94.5614 67.6025 95.9357 67.6025 95.9357C67.6025 95.9357 66.9008 96.7836 65.8189 97.4854C65.8189 97.4854 70.9651 101.082 77.8949 98.3626C77.8949 98.3626 75.5558 97.5731 73.7721 95.9649C79.0353 95.9649 82.0178 93.7719 82.0178 93.7719C65.2341 91.3743 59.2107 78.2164 59.2107 78.2164C65.7604 81.462 76.0528 87.4561 88.8306 88.5088C85.2926 86.9883 83.5967 84.8246 83.5967 84.8246C91.4037 81.1403 113.334 76.4035 126.462 99.9708C124.825 95.2924 122.515 89.5029 117.895 85.0585C123.714 84.8246 126.901 86.6374 127.398 86.9591C127.398 86.9591 139.854 99.152 146.374 102.281C146.316 103.099 146.287 104.269 146.228 105.117Z" fill="black"/>
<path d="M119.532 113.713C119.532 113.275 119.474 112.953 119.474 112.953C119.474 112.953 116.842 114.737 112.837 108.918C112.866 111.199 114.182 112.836 114.182 112.836C108.509 109.269 109.562 105 102.72 100.468C106.228 104.532 114.006 115.029 87.6318 96.3743C90.2634 99.386 94.2108 102.456 98.2166 105.146C98.2166 105.146 97.6611 110.585 102.398 113.83C100.322 110.175 101.345 107.164 101.345 107.164C101.901 107.515 102.632 107.953 103.392 108.421C105.293 109.561 107.369 110.702 107.369 110.702L104.211 110.263C104.211 110.351 104.182 110.439 104.182 110.526C104.182 110.702 104.182 110.906 104.211 111.082C104.24 111.433 104.415 111.93 104.62 112.281C105.146 113.158 106.053 113.743 107.135 113.801C108.363 113.86 109.474 113.187 110.029 112.164C111.667 113.041 112.69 113.538 112.69 113.538C112.69 113.538 111.316 116.257 106.725 115.848C108.334 117.018 111.433 117.164 111.433 117.164C111.433 117.164 107.164 119.24 99.6786 116.55C106.199 120.643 115.234 121.52 118.392 117.485C119.006 119.006 119.854 120.322 121.17 121.842C121.17 121.842 119.679 119.386 119.415 115.263C119.474 114.795 119.532 114.269 119.532 113.713Z" fill="black"/>
<path d="M136.053 103.772C136.053 103.772 135.936 103.45 135.877 102.982C134.299 105.702 134.971 105.76 133.655 109.006C134.708 107.924 135.234 106.55 135.234 106.55C135.234 106.55 135.41 106.871 135.673 107.193C136.17 103.041 139.503 101.374 139.503 101.374C139.503 101.374 137.573 101.813 136.053 103.772Z" fill="black"/>
</svg>
