<svg width="200" height="201" viewBox="0 0 200 201" fill="none" xmlns="http://www.w3.org/2000/svg">
<g clip-path="url(#clip0_5_200123)">
<path d="M199.481 92.1704C200.173 93.2078 199.942 93.3807 200 94.4757C200.058 95.9742 198.444 96.2047 197.349 98.4524C196.773 99.6627 196.311 100.354 194.986 100.758C193.603 101.161 190.145 100.297 188.761 98.7982C187.321 97.2421 188.416 95.2826 187.724 94.0723C186.168 91.2482 183.402 90.2108 182.249 89.1158C181.039 88.0784 179.713 87.675 178.042 87.2715C173.373 86.1189 172.797 83.6406 171.126 81.3353C169.454 78.9723 168.474 79.4334 167.898 79.5486C160.694 81.3353 152.107 84.6204 148.187 87.041C141.502 91.133 138.736 95.8013 137.41 103.178C140.637 108.481 139.254 110.094 139.139 112.227C138.851 117.817 141.041 120.641 141.56 122.025C142.078 123.408 142.021 124.099 141.329 124.849C140.637 125.655 139.658 127.154 138.563 128.191C137.41 129.229 136.373 128.768 135.278 128.48C129.572 127.039 124.903 126.405 119.255 126.174C115.452 126.001 111.994 129.747 111.071 130.785C110.092 131.822 111.532 132.456 112.339 132.975C114.529 134.416 115.394 136.145 117.296 137.009C119.198 137.816 120.869 138.393 121.791 140.352C122.483 141.735 121.561 142.946 120.869 143.522C121.791 144.041 123.866 145.654 124.788 146.519C125.768 147.383 125.941 149.228 124.615 149.631C123.29 150.034 120.984 150.668 119.659 150.841C117.987 151.014 117.815 149.919 117.526 149.458C116.086 147.326 112.973 144.098 110.207 143.407C105.366 142.196 105.078 139.66 101.965 136.836C100.121 135.223 99.8905 136.548 97.6428 138.393C93.3203 141.851 93.1474 139.084 89.3436 141.447C83.0039 145.366 82.7733 142.946 83.1191 141.908C83.4649 140.871 84.2718 139.315 85.7703 136.202C87.4993 132.687 90.0928 135.684 92.3405 133.724C94.0695 132.168 95.3374 130.093 95.3374 130.093C92.2252 126.808 91.4184 128.48 85.3668 128.191C79.7187 127.961 79.4306 125.944 78.105 122.025C74.7623 111.823 69.1142 109.403 61.1031 104.101C54.4176 99.6627 57.2993 97.4727 53.2649 93.5536C51.1901 91.5364 51.1901 90.2685 50.7291 88.136C50.3256 85.946 49.9798 85.946 48.0203 85.6578C46.0608 85.3696 38.626 84.6204 34.7646 81.2776C30.615 77.7044 30.5573 79.1452 25.7161 79.3757C9.9245 80.125 0.299699 69.117 0.0115316 63.3536C-0.161369 60.2414 1.45237 59.5498 3.12374 61.1059C4.73748 62.662 9.5787 66.2353 16.8982 67.0421C26.6959 68.0795 30.2115 65.486 33.2661 66.0047C39.2024 67.0998 38.9142 69.6933 42.2569 74.765C44.1588 77.7044 55.9161 72.6326 57.5298 71.8257C64.9646 68.0219 73.3214 63.0078 87.2111 65.1979C103.291 67.7337 115.279 64.8521 121.445 62.6044C126.171 60.933 123.808 60.5295 122.713 59.7227C121.618 58.9158 118.218 56.4952 118.967 54.9967C120.005 52.8067 132.108 59.3769 134.01 57.0139C134.874 55.9189 125.71 51.3658 127.9 48.7147C130.033 46.0635 132.972 51.4811 140.407 53.5559C144.672 54.7662 146.113 55.2849 146.689 54.5933C147.784 53.2101 145.594 52.2303 146.689 51.1929C148.187 49.8673 152.222 52.9219 155.795 54.478C159.541 56.1494 155.565 49.9826 162.077 54.478C166.918 57.8208 170.203 58.2242 173.834 58.2818C176.197 58.2818 175.333 57.5326 175.621 55.8036C175.967 54.0746 176.889 49.1757 178.157 48.3689C180.577 46.7551 180.981 52.2303 181.73 56.1494C182.479 60.1261 184.151 62.8925 188.531 66.8116C191.874 69.8086 191.47 71.8834 192.392 74.8227C193.891 79.8944 195.389 85.7731 199.769 92.0551L199.481 92.1704ZM108.017 115.166C108.305 116.78 109.919 116.953 111.532 116.953C113.607 114.244 114.702 111.708 115.279 110.037C114.99 109.345 114.357 107.501 114.011 106.521C113.665 105.541 112.628 106.002 111.532 106.175C104.04 107.501 96.202 102.141 89.8046 101.046C87.4417 100.643 87.9603 102.026 88.2485 103.524C88.5367 105.023 90.4962 112.4 92.11 116.146C93.3779 119.201 96.029 120.238 99.0836 120.757C102.887 121.448 103.752 123.869 105.711 124.849C106.518 124.33 107.498 123.235 107.786 122.428C107.383 121.16 106.23 121.102 104.789 120.641C102.311 119.777 101.735 118.739 100.582 117.933C97.1817 115.454 97.931 113.552 99.8329 113.668C101.677 113.841 105.135 113.841 106.23 113.668C107.095 113.552 107.671 113.552 107.959 115.166H108.017ZM126.748 113.38C125.653 114.993 123.29 118.624 122.829 119.431C122.368 120.238 121.561 121.506 123.924 121.794C126.344 122.082 129.514 122.486 130.84 122.255C132.281 121.967 133.318 121.391 132.338 119.546C131.589 118.221 128.88 114.013 128.477 113.495C128.073 112.976 127.497 112.227 126.69 113.38H126.748Z" fill="#A80000"/>
<path d="M140.522 148.709C140.522 150.438 139.139 151.821 137.352 151.821C135.566 151.821 134.182 150.438 134.182 148.709C134.182 146.98 135.623 145.597 137.352 145.597C139.081 145.597 140.522 147.038 140.522 148.709ZM140.003 148.939C140.119 147.326 138.966 145.942 137.352 146C135.739 146.058 134.816 147.153 134.759 148.478C134.701 149.804 135.796 151.418 137.41 151.418C139.024 151.418 139.946 150.323 140.061 148.939H140.003ZM136.718 150.553H136.2V146.807H137.641C138.505 146.807 138.851 147.153 138.851 147.844C138.851 148.536 138.39 148.824 137.986 148.882L139.024 150.553H138.447L137.41 148.882H136.661V150.553H136.718ZM137.295 148.478C137.756 148.478 138.332 148.478 138.332 147.844C138.332 147.21 137.929 147.268 137.525 147.268H136.718V148.478H137.295Z" fill="#A80000"/>
</g>
<defs>
<clipPath id="clip0_5_200123">
<rect width="200" height="103.821" fill="white" transform="translate(0 48)"/>
</clipPath>
</defs>
</svg>
