<?xml version="1.0" encoding="UTF-8"?>
<svg width="200px" height="200px" viewBox="0 0 200 200" version="1.1" xmlns="http://www.w3.org/2000/svg" xmlns:xlink="http://www.w3.org/1999/xlink">
    <!-- Generator: Sketch 54.1 (76490) - https://sketchapp.com -->
    <title>southern-ind</title>
    <desc>Created with Sketch.</desc>
    <g id="southern-ind" stroke="none" stroke-width="1" fill="none" fill-rule="evenodd">
        <g id="southern-ind_BGL" transform="translate(0.000000, 0.000000)">
            <g id="southern-ind" transform="translate(0.000000, 28.000000)">
                <g id="g10" transform="translate(99.962586, 72.167603) scale(-1, 1) rotate(-180.000000) translate(-99.962586, -72.167603) translate(0.000000, 0.188555)" fill-rule="nonzero">
                    <g id="g12">
                        <path d="M183.566026,36.6410765 C187.853044,40.361241 190.173733,45.1609416 188.673695,48.2430216 C187.80875,50.0207993 184.855364,52.0820039 180.887089,53.5188913 C180.605458,52.729965 179.856935,52.0766167 179.856935,52.0766167 C176.618028,51.419677 175.00456,52.2214727 175.00456,52.2214727 C176.896666,52.5982778 178.487089,53.3740353 179.51395,53.9783002 C177.054691,54.7334068 174.286266,55.2359133 171.423565,55.3032534 C170.588847,54.7474734 169.822368,54.0920301 169.132805,53.3668524 C169.132805,53.3668524 163.684844,51.2436949 155.59835,51.7533844 C151.688735,48.9843609 148.507591,45.2543199 148.507591,45.2543199 C150.281777,40.8873914 155.812641,30.7145522 165.864567,25.9657906 C165.864567,25.9657906 166.161163,28.7850647 165.568271,30.7875787 C156.779644,35.6722774 153.629326,45.0391309 153.629326,45.0391309 C153.629326,45.0391309 154.847733,46.4975671 157.028653,48.0344171 C157.028653,48.0344171 173.07205,49.1498678 182.910583,41.5087158 C184.387874,40.3633361 184.104447,38.2683118 183.566026,36.6410765" id="path14" fill="#C6C5C5"></path>
                        <path d="M125.361164,38.6861195 C127.735126,39.0461644 129.990868,39.7171707 129.990868,39.7171707 C122.247958,44.875719 106.580768,48.6317983 106.580768,48.6317983 C115.571714,48.1397668 121.965728,46.5245031 121.965728,46.5245031 C120.174483,50.38683 115.736623,58.1207617 99.522332,64.9442558 C99.522332,64.9442558 102.342833,67.2134663 108.54201,69.8493061 C105.339316,69.391693 97.0391296,67.7764293 89.3677494,62.8106232 C89.3677494,62.8106232 109.469208,57.8648695 115.61571,49.878637 C115.61571,49.878637 111.818927,51.5860818 105.822669,53.5718655 C103.277513,52.8939755 96.8323208,50.9647574 90.7723135,47.2769161 C90.7723135,47.2769161 102.849231,46.9291421 113.628729,43.542685 C113.628729,43.542685 108.720386,43.6181059 102.172238,43.549868 C98.6771393,41.6670397 95.6315726,39.3442564 95.6315726,39.3442564 C105.377925,40.6787869 114.060304,39.6154124 119.627981,38.4984652 C119.627981,38.4984652 117.123828,36.5237552 115.505272,35.4178816 C115.505272,35.4178816 128.506693,32.4453415 141.545227,37.1364001 C140.811968,35.6007473 139.278111,33.6637478 139.278111,33.6637478 C139.278111,33.6637478 144.979271,34.0160111 148.5878,35.3738861 C147.420872,37.2043388 146.29315,39.0566395 145.356974,40.8909829 C135.756375,36.6273092 125.361164,38.6861195 125.361164,38.6861195" id="path16" fill="#C6C5C5"></path>
                        <path d="M36.9804705,95.83479 L37.9657304,95.83479 C38.5104367,95.83479 38.9770286,95.6139146 38.9770286,94.9916924 C38.9770286,94.6807309 38.7827899,94.3823396 38.4975673,94.2781869 L39.0943499,93.2025416 L38.4975673,93.2025416 L38.0435456,94.1099864 L37.5126066,94.1099864 L37.5126066,93.2025416 L36.9804705,93.2025416 L36.9804705,95.83479 Z M37.9139534,92.411221 C39.003366,92.411221 39.8458651,93.2543187 39.8458651,94.4858936 C39.8458651,95.7045992 39.003366,96.573735 37.9139534,96.573735 C36.8251394,96.573735 35.9955098,95.7045992 35.9955098,94.4858936 C35.9955098,93.2543187 36.8251394,92.411221 37.9139534,92.411221 L37.9139534,92.411221 Z" id="path18" fill="#C6C5C5"></path>
                        <path d="M38.4068827,94.9656542 C38.4068827,95.2248386 38.264421,95.3936377 37.8759437,95.3936377 L37.5126066,95.3936377 L37.5126066,94.5248012 L37.8493069,94.5248012 C38.2000739,94.5248012 38.4068827,94.6807309 38.4068827,94.9656542" id="path20" fill="#C6C5C5"></path>
                        <path d="M191.908113,36.9424607 C186.550239,31.4259626 178.624163,30.1105866 176.026932,29.9097336 C175.65282,30.1620643 175.916494,30.6696588 176.521657,31.3020568 C177.124724,31.9326591 181.664343,36.308267 178.45716,39.0386822 C176.992738,40.2855209 173.950164,41.1576496 170.76034,41.5248774 C170.76034,41.5248774 170.098612,38.6831266 170.017803,35.5313122 C169.896891,30.9794231 171.633067,26.2707064 169.643692,19.6210994 C169.643692,19.6210994 160.812865,22.6049826 156.889484,26.0821243 C151.197303,18.5645787 141.298313,16.2855514 141.298313,16.2855514 C141.298313,16.2855514 142.733405,19.5971263 142.793562,22.617852 C138.898912,19.9940436 132.292103,16.8478858 123.303551,17.1816531 C123.303551,17.1816531 127.511258,19.7256112 130.731011,24.3149115 C130.731011,24.3149115 118.275792,16.6919263 99.1488191,23.3457233 C99.1488191,23.3457233 102.336548,19.6028428 109.089111,18.0264567 C104.844891,9.86310488 99.7171692,5.79639342 98.0980148,4.65604178 C87.0820779,50.2464634 47.7776269,68.8999609 26.2059103,75.6710793 C34.3545072,77.9516628 41.6502795,78.9758304 41.6502795,78.9758304 C28.0577621,86.6208733 14.8002091,89.1435818 14.8002091,89.1435818 C20.9712827,90.0800576 30.4005978,90.7127549 41.7472492,90.8938249 C41.4895613,91.9993991 41.4240169,93.1854821 41.5976046,94.4269337 L44.4603057,115.093749 L43.5908706,116.380992 C40.9984277,120.17119 41.7957341,124.862249 42.4113719,129.228579 C63.4032158,136.925399 85.7598183,141.147771 108.960416,141.270778 C132.073023,141.393188 157.482375,136.877812 178.484994,129.199548 C178.978522,124.316645 179.706094,118.974932 175.934152,115.075792 L177.507814,98.9473975 C178.966251,98.5125303 180.421095,98.0629979 181.877137,97.6188528 L184.030224,77.2046371 L166.235387,73.7218089 C174.560415,70.1414124 181.21092,65.9052733 185.386901,60.9221085 C185.386901,60.9221085 184.822143,59.9470243 183.97276,59.4687602 C201.942382,52.8236425 197.551211,42.6355395 191.908113,36.9424607 Z M175.003063,33.9890751 C174.465839,33.4566396 173.291429,32.0894867 173.073845,31.3113348 C172.771563,33.5203882 172.782338,35.8626254 173.113052,38.1354274 C174.152483,37.9723148 175.882674,37.73857 176.512678,36.7697709 C176.924799,36.1379714 175.53909,34.5218098 175.003063,33.9890751 L175.003063,33.9890751 Z M37.9139534,97.0403268 C39.263149,97.0403268 40.3654311,96.0029905 40.3654311,94.4858936 C40.3654311,92.9684975 39.263149,91.9311612 37.9139534,91.9311612 C36.5782258,91.9311612 35.4759437,92.9684975 35.4759437,94.4858936 C35.4759437,96.0029905 36.5782258,97.0403268 37.9139534,97.0403268 Z M196.196927,55.4927034 C194.375453,57.4428717 191.908712,59.1676753 188.665614,60.6988387 L189.009198,61.2405522 C185.40426,65.9854828 180.491728,69.7304883 175.16887,72.7290666 L186.968046,75.0380827 L184.369019,99.6797581 C182.917167,100.123005 181.465016,100.56715 180.013164,101.009799 L178.727717,114.195882 C182.57059,119.088961 181.573957,125.435089 180.996329,131.154804 C157.233068,140.038904 132.379495,144.042495 108.960416,143.91859 C85.6254374,143.794684 61.254918,139.10602 39.9709679,131.198201 C39.6878404,129.17321 39.10273,125.331834 39.0988393,122.982114 C39.0928535,120.341187 39.5869799,117.444965 41.365057,114.852223 L41.6502795,114.429627 C41.6502795,114.429627 40.14695,103.618404 39.3753825,98.0345655 C38.9485961,98.1991745 38.4861943,98.2922534 38.0013459,98.2922534 C35.8889628,98.2922534 34.1764301,96.5794215 34.1764301,94.4670384 C34.1764301,94.1485947 34.217732,93.8403269 34.2910579,93.5449285 C34.2904593,93.5449285 34.29016,93.5449285 34.2895614,93.5449285 C19.7722704,92.8074799 5.39363997,91.1018309 0,89.4907572 C0,89.4907572 21.6791614,85.1172444 33.3273467,79.8473605 C33.3273467,79.8473605 22.6489482,77.3333314 17.2547096,75.8285054 C17.2547096,75.8285054 48.6748959,67.9805445 70.3961075,47.329591 C92.7955083,26.0339387 96.1529344,0 96.1529344,0 C96.1529344,0 107.175456,5.21664035 112.381292,17.5149715 C112.381292,17.5149715 115.764756,17.2285218 118.219825,17.5868608 L113.196256,14.54722 C121.848108,13.898361 130.18391,13.5102129 138.300932,16.8565353 L136.158919,11.8979122 C145.995956,13.8567299 153.090606,17.5801866 157.338417,22.0812265 C157.338417,22.0812265 163.971863,18.2135125 171.595656,15.8482899 C171.595656,15.8482899 174.221919,22.5262995 173.361462,28.537822 C173.940287,27.7515893 175.225734,26.8863443 175.225734,26.8863443 C182.414361,27.3218399 190.116568,30.5427602 194.805233,35.70909 C199.939838,41.3629619 201.87175,49.449157 196.196927,55.4927034 L196.196927,55.4927034 Z" id="path22" fill="#C6C5C5"></path>
                        <path d="M156.823939,59.4792353 C157.049005,59.2110722 157.401567,59.0270094 157.812491,58.9860068 C158.310509,58.9399162 158.779195,59.1314613 159.112604,59.4349405 C157.411444,62.5406644 155.301156,62.382939 155.301156,62.382939 C154.502054,61.8870168 153.786154,60.8903838 153.620049,59.9138032 C153.25312,57.6993626 155.320011,55.7165717 158.244964,55.4448172 C159.75428,55.3191157 161.197751,55.6767663 162.273696,56.3432833 C161.862772,56.5210611 161.668234,56.5285433 161.040924,57.0412257 C160.506693,56.7940128 159.889259,56.688663 159.223041,56.7425351 C157.650576,56.8840988 156.533629,57.9666278 156.73116,59.1595945 C156.750314,59.2649443 156.782637,59.366104 156.823939,59.4792353" id="path24" fill="#FFFFFF"></path>
                        <path d="M180.761986,54.8070319 C181.056187,54.3901221 181.035536,53.9358011 180.887089,53.5188913 C184.855364,52.0820039 187.80875,50.0207993 188.673695,48.2430216 C190.173733,45.1609416 187.853044,40.361241 183.566026,36.6410765 C183.140437,35.3535345 182.555327,34.3586972 182.555327,34.3586972 C189.390493,38.0692845 193.57276,44.764982 191.819225,48.7796471 C190.737294,51.2290298 188.253493,53.8618767 181.832244,56.3432833 C177.799023,57.908865 174.225809,57.1708179 171.423565,55.3032534 C174.286266,55.2359133 177.054691,54.7334068 179.51395,53.9783002 C180.304971,54.4433956 180.761986,54.8070319 180.761986,54.8070319" id="path26" fill="#FFFFFF"></path>
                        <path d="M103.9147,75.9790479 C103.9147,75.9790479 112.505796,73.2091265 118.073173,65.2950227 C118.073173,65.2950227 114.723529,67.4391304 108.54201,69.8493061 C102.342833,67.2134663 99.522332,64.9442558 99.522332,64.9442558 C115.736623,58.1207617 120.174483,50.38683 121.965728,46.5245031 C121.965728,46.5245031 115.571714,48.1397668 106.580768,48.6317983 C106.580768,48.6317983 122.247958,44.875719 129.990868,39.7171707 C129.990868,39.7171707 127.735126,39.0461644 125.361164,38.6861195 C125.361164,38.6861195 135.756375,36.6273092 145.356974,40.8909829 C144.813165,41.9564524 144.333704,43.0156368 143.951212,44.0607546 C142.630449,44.2798343 141.064568,44.4656929 141.064568,44.4656929 C141.064568,44.4656929 143.423266,48.0846976 149.425511,52.6320974 C146.386828,53.2989137 143.137445,54.3880271 139.774033,56.0592579 C139.774033,56.0592579 145.297415,55.4639717 151.149716,55.3179186 C150.345526,56.4462388 149.805907,57.8813304 149.787351,59.3975294 C141.581441,65.4267099 134.013614,69.9100619 134.013614,69.9100619 C134.013614,69.9100619 141.059181,68.446837 150.317392,65.774484 C149.869057,67.4514012 148.708713,69.2285804 148.708713,69.2285804 C148.708713,69.2285804 154.133928,70.0303761 159.033591,65.5784495 C163.496591,61.5117082 165.336921,59.3565268 170.912379,59.5717157 C172.359143,60.2690595 173.882824,60.7302641 175.448406,60.9484459 C170.345226,68.593788 133.096592,82.6831255 103.9147,75.9790479" id="path28" fill="#FFFFFF"></path>
                        <path d="M103.493899,113.670031 C106.731011,111.643244 110.826484,111.616308 114.479309,111.532507 C118.759443,111.439728 123.039877,111.214064 127.327793,110.855515 L127.659705,102.832171 C124.316645,103.105422 120.977775,103.300858 117.639803,103.418479 L117.563484,107.40112 C111.875792,107.604337 106.195583,107.575905 100.507891,107.317618 L100.272351,94.8438435 C110.336548,95.2879886 120.386679,95.0530466 130.469731,94.1381196 C133.78406,93.8367354 136.913726,93.4835742 139.971564,94.1054971 C145.896592,95.2239408 145.676016,98.7726126 145.452746,101.612268 L144.909237,108.367225 C144.722181,110.755253 144.446835,113.869657 139.713577,116.477363 C136.374707,118.347921 132.353158,118.907591 128.855066,119.235313 C125.005309,119.60284 121.162436,119.857835 117.321359,120.000895 L117.183387,127.200595 C120.344778,127.079982 124.406731,126.886042 127.573809,126.607704 L127.719264,123.090457 C132.942758,122.672949 140.027531,121.394685 141.765503,126.19648 C142.391616,127.965579 142.200371,130.425436 142.015111,132.856862 C133.021171,134.389222 123.188025,135.562436 114.265317,135.776727 C110.819301,135.866813 106.621172,135.77523 103.394535,133.460827 C100.598576,131.446611 100.456414,129.288437 100.325624,127.09345 L100.184659,120.169395 C100.230749,117.860079 100.34837,115.577999 103.493899,113.670031" id="path30" fill="#FFFFFF"></path>
                        <path d="M152.932581,122.496368 L154.296442,99.0192269 C154.296442,99.0192269 151.446311,99.5830877 150.022293,99.8434693 L150.422742,91.45589 C159.435836,89.8460135 168.481253,87.707293 177.562584,84.9984266 L176.684769,93.3258488 C175.216756,93.7732861 172.288211,94.6229681 172.288211,94.6229681 L170.024388,117.83464 C173.291429,118.864793 173.549116,122.278785 173.26569,125.010098 C164.953232,127.772836 156.705421,130.124351 148.49113,131.767748 L148.875417,123.37119 C150.225511,123.106619 152.932581,122.496368 152.932581,122.496368" id="path32" fill="#FFFFFF"></path>
                        <path d="M88.5147752,95.9126052 C92.7497171,98.4341165 92.8374088,101.521284 92.9361743,104.185557 L93.7319842,126.645115 C97.2375584,129.031647 97.960641,132.703925 98.0336676,135.476839 C91.1610901,135.027905 84.2744461,134.188698 77.3539824,132.95862 L74.9381201,100.677289 C71.6743716,100.145751 68.4040387,99.5405886 65.1280193,98.8606036 L68.230451,131.114999 C61.2746711,129.540438 54.2760929,127.573809 47.2176569,125.212417 C46.8216973,122.452373 46.9485959,119.05993 50.1731375,118.048931 L47.1589962,95.6803568 C46.8106236,93.0585835 46.3715664,89.9537576 50.3039269,88.9580225 C53.8041139,88.1203121 59.3346787,89.3782245 63.5510646,90.2344908 C67.396332,91.0270086 71.2338179,91.7222573 75.0638215,92.31904 C79.2257369,92.9825641 84.7533088,93.7197133 88.5147752,95.9126052" id="path34" fill="#FFFFFF"></path>
                        <path d="M158.079158,42.6385324 C159.850351,39.2424981 162.156375,36.8885887 165.533254,34.7759064 C165.533254,34.7759064 165.142083,37.2498307 165.347396,39.5998494 C165.582338,42.3467255 163.941036,43.4813307 162.450277,43.5866805 C162.783385,42.4894864 162.429326,41.1848849 162.429326,41.1848849 C161.162435,42.6017198 158.079158,42.6385324 158.079158,42.6385324" id="path36" fill="#DD1731"></path>
                        <path d="M136.412118,24.3393335 C140.25978,25.747519 144.964605,29.8980614 144.964605,29.8980614 C141.401268,29.0678631 139.722555,29.0487086 139.722555,29.0487086 C139.722555,29.0487086 138.034864,26.2491875 136.412118,24.3393335" id="path38" fill="#DD1731"></path>
                        <path d="M147.453195,23.8836358 C151.263146,26.102446 152.433966,31.69652 152.433966,31.69652 C150.010621,30.5882521 147.994908,30.3392435 147.994908,30.3392435 C148.438156,26.3847954 147.453195,23.8836358 147.453195,23.8836358" id="path40" fill="#DD1731"></path>
                        <path d="M104.111632,33.2701825 C104.111632,33.2701825 114.599623,26.8091875 124.34837,26.9279455 C128.810173,28.1888208 130.512829,30.0728762 130.512829,30.0728762 C116.027232,28.9514396 104.111632,33.2701825 104.111632,33.2701825" id="path42" fill="#DD1731"></path>
                        <path d="M84.2322463,79.7916927 C77.8696576,75.8683109 72.9203124,70.5203125 72.9203124,70.5203125 C72.9203124,70.5203125 84.6356881,77.9256247 108.066739,81.4314982 C99.990121,81.3916927 92.0377081,80.8212475 84.2322463,79.7916927" id="path44" fill="#DD1731"></path>
                        <path d="M162.450277,43.5866805 C163.941036,43.4813307 165.582338,42.3467255 165.347396,39.5998494 C165.142083,37.2498307 165.533254,34.7759064 165.533254,34.7759064 C162.156375,36.8885887 159.850351,39.2424981 158.079158,42.6385324 C158.079158,42.6385324 161.162435,42.6017198 162.429326,41.1848849 C162.429326,41.1848849 162.783385,42.4894864 162.450277,43.5866805 Z M157.028653,48.0344171 C154.847733,46.4975671 153.629326,45.0391309 153.629326,45.0391309 C153.629326,45.0391309 156.779644,35.6722774 165.568271,30.7875787 C166.161163,28.7850647 165.864567,25.9657906 165.864567,25.9657906 C155.812641,30.7145522 150.281777,40.8873914 148.507591,45.2543199 C148.507591,45.2543199 151.688735,48.9843609 155.59835,51.7533844 C163.684844,51.2436949 169.132805,53.3668524 169.132805,53.3668524 C169.822368,54.0920301 170.588847,54.7474734 171.423565,55.3032534 C174.225809,57.1708179 177.799023,57.908865 181.832244,56.3432833 C188.253493,53.8618767 190.737294,51.2290298 191.819225,48.7796471 C193.57276,44.764982 189.390493,38.0692845 182.555327,34.3586972 C182.555327,34.3586972 183.140437,35.3535345 183.566026,36.6410765 C184.104447,38.2683118 184.387874,40.3633361 182.910583,41.5087158 C173.07205,49.1498678 157.028653,48.0344171 157.028653,48.0344171 L157.028653,48.0344171 Z M147.453195,23.8836358 C147.453195,23.8836358 148.438156,26.3847954 147.994908,30.3392435 C147.994908,30.3392435 150.010621,30.5882521 152.433966,31.69652 C152.433966,31.69652 151.263146,26.102446 147.453195,23.8836358 Z M136.412118,24.3393335 C138.034864,26.2491875 139.722555,29.0487086 139.722555,29.0487086 C139.722555,29.0487086 141.401268,29.0678631 144.964605,29.8980614 C144.964605,29.8980614 140.25978,25.747519 136.412118,24.3393335 L136.412118,24.3393335 Z M124.34837,26.9279455 C114.599623,26.8091875 104.111632,33.2701825 104.111632,33.2701825 C104.111632,33.2701825 116.027232,28.9514396 130.512829,30.0728762 C130.512829,30.0728762 128.810173,28.1888208 124.34837,26.9279455 L124.34837,26.9279455 Z M72.9203124,70.5203125 C72.9203124,70.5203125 77.8696576,75.8683109 84.2322463,79.7916927 C92.0377081,80.8212475 99.990121,81.3916927 108.066739,81.4314982 C84.6356881,77.9256247 72.9203124,70.5203125 72.9203124,70.5203125 L72.9203124,70.5203125 Z M50.3039269,88.9580225 C46.3715664,89.9537576 46.8106236,93.0585835 47.1589962,95.6803568 L50.1731375,118.048931 C46.9485959,119.05993 46.8216973,122.452373 47.2176569,125.212417 C54.2760929,127.573809 61.2746711,129.540438 68.230451,131.114999 L65.1280193,98.8606036 C68.4040387,99.5405886 71.6743716,100.145751 74.9381201,100.677289 L77.3539824,132.95862 C84.2744461,134.188698 91.1610901,135.027905 98.0336676,135.476839 C97.960641,132.703925 97.2375584,129.031647 93.7319842,126.645115 L92.9361743,104.185557 C92.8374088,101.521284 92.7497171,98.4341165 88.5147752,95.9126052 C84.7533088,93.7197133 79.2257369,92.9825641 75.0638215,92.31904 C71.2338179,91.7222573 67.396332,91.0270086 63.5510646,90.2344908 C59.3346787,89.3782245 53.8041139,88.1203121 50.3039269,88.9580225 L50.3039269,88.9580225 Z M100.325624,127.09345 C100.456414,129.288437 100.598576,131.446611 103.394535,133.460827 C106.621172,135.77523 110.819301,135.866813 114.265317,135.776727 C123.188025,135.562436 133.021171,134.389222 142.015111,132.856862 C142.200371,130.425436 142.391616,127.965579 141.765503,126.19648 C140.027531,121.394685 132.942758,122.672949 127.719264,123.090457 L127.573809,126.607704 C124.406731,126.886042 120.344778,127.079982 117.183387,127.200595 L117.321359,120.000895 C121.162436,119.857835 125.005309,119.60284 128.855066,119.235313 C132.353158,118.907591 136.374707,118.347921 139.713577,116.477363 C144.446835,113.869657 144.722181,110.755253 144.909237,108.367225 L145.452746,101.612268 C145.676016,98.7726126 145.896592,95.2239408 139.971564,94.1054971 C136.913726,93.4835742 133.78406,93.8367354 130.469731,94.1381196 C120.386679,95.0530466 110.336548,95.2879886 100.272351,94.8438435 L100.507891,107.317618 C106.195583,107.575905 111.875792,107.604337 117.563484,107.40112 L117.639803,103.418479 C120.977775,103.300858 124.316645,103.105422 127.659705,102.832171 L127.327793,110.855515 C123.039877,111.214064 118.759443,111.439728 114.479309,111.532507 C110.826484,111.616308 106.731011,111.643244 103.493899,113.670031 C100.34837,115.577999 100.230749,117.860079 100.184659,120.169395 L100.325624,127.09345 Z M173.26569,125.010098 C173.549116,122.278785 173.291429,118.864793 170.024388,117.83464 L172.288211,94.6229681 C172.288211,94.6229681 175.216756,93.7732861 176.684769,93.3258488 L177.562584,84.9984266 C168.481253,87.707293 159.435836,89.8460135 150.422742,91.45589 L150.022293,99.8434693 C151.446311,99.5830877 154.296442,99.0192269 154.296442,99.0192269 L152.932581,122.496368 C152.932581,122.496368 150.225511,123.106619 148.875417,123.37119 L148.49113,131.767748 C156.705421,130.124351 164.953232,127.772836 173.26569,125.010098 Z M159.223041,56.7425351 C159.889259,56.688663 160.506693,56.7940128 161.040924,57.0412257 C161.668234,56.5285433 161.862772,56.5210611 162.273696,56.3432833 C161.197751,55.6767663 159.75428,55.3191157 158.244964,55.4448172 C155.320011,55.7165717 153.25312,57.6993626 153.620049,59.9138032 C153.786154,60.8903838 154.502054,61.8870168 155.301156,62.382939 C155.301156,62.382939 157.411444,62.5406644 159.112604,59.4349405 C158.779195,59.1314613 158.310509,58.9399162 157.812491,58.9860068 C157.401567,59.0270094 157.049005,59.2110722 156.823939,59.4792353 C156.782637,59.366104 156.750314,59.2649443 156.73116,59.1595945 C156.533629,57.9666278 157.650576,56.8840988 159.223041,56.7425351 L159.223041,56.7425351 Z M175.448406,60.9484459 C173.882824,60.7302641 172.359143,60.2690595 170.912379,59.5717157 C165.336921,59.3565268 163.496591,61.5117082 159.033591,65.5784495 C154.133928,70.0303761 148.708713,69.2285804 148.708713,69.2285804 C148.708713,69.2285804 149.869057,67.4514012 150.317392,65.774484 C141.059181,68.446837 134.013614,69.9100619 134.013614,69.9100619 C134.013614,69.9100619 141.581441,65.4267099 149.787351,59.3975294 C149.805907,57.8813304 150.345526,56.4462388 151.149716,55.3179186 C145.297415,55.4639717 139.774033,56.0592579 139.774033,56.0592579 C143.137445,54.3880271 146.386828,53.2989137 149.425511,52.6320974 C143.423266,48.0846976 141.064568,44.4656929 141.064568,44.4656929 C141.064568,44.4656929 142.630449,44.2798343 143.951212,44.0607546 C144.333704,43.0156368 144.813165,41.9564524 145.356974,40.8909829 C146.29315,39.0566395 147.420872,37.2043388 148.5878,35.3738861 C144.979271,34.0160111 139.278111,33.6637478 139.278111,33.6637478 C139.278111,33.6637478 140.811968,35.6007473 141.545227,37.1364001 C128.506693,32.4453415 115.505272,35.4178816 115.505272,35.4178816 C117.123828,36.5237552 119.627981,38.4984652 119.627981,38.4984652 C114.060304,39.6154124 105.377925,40.6787869 95.6315726,39.3442564 C95.6315726,39.3442564 98.6771393,41.6670397 102.172238,43.549868 C108.720386,43.6181059 113.628729,43.542685 113.628729,43.542685 C102.849231,46.9291421 90.7723135,47.2769161 90.7723135,47.2769161 C96.8323208,50.9647574 103.277513,52.8939755 105.822669,53.5718655 C111.818927,51.5860818 115.61571,49.878637 115.61571,49.878637 C109.469208,57.8648695 89.3677494,62.8106232 89.3677494,62.8106232 C97.0391296,67.7764293 105.339316,69.391693 108.54201,69.8493061 C114.723529,67.4391304 118.073173,65.2950227 118.073173,65.2950227 C112.505796,73.2091265 103.9147,75.9790479 103.9147,75.9790479 C133.096592,82.6831255 170.345226,68.593788 175.448406,60.9484459 L175.448406,60.9484459 Z M183.97276,59.4687602 C184.822143,59.9470243 185.386901,60.9221085 185.386901,60.9221085 C181.21092,65.9052733 174.560415,70.1414124 166.235387,73.7218089 L184.030224,77.2046371 L181.877137,97.6188528 C180.421095,98.0629979 178.966251,98.5125303 177.507814,98.9473975 L175.934152,115.075792 C179.706094,118.974932 178.978522,124.316645 178.484994,129.199548 C157.482375,136.877812 132.073023,141.393188 108.960416,141.270778 C85.7598183,141.147771 63.4032158,136.925399 42.4113719,129.228579 C41.7957341,124.862249 40.9984277,120.17119 43.5908706,116.380992 L44.4603057,115.093749 L41.5976046,94.4269337 C41.4240169,93.1854821 41.4895613,91.9993991 41.7472492,90.8938249 C30.4005978,90.7127549 20.9712827,90.0800576 14.8002091,89.1435818 C14.8002091,89.1435818 28.0577621,86.6208733 41.6502795,78.9758304 C41.6502795,78.9758304 34.3545072,77.9516628 26.2059103,75.6710793 C47.7776269,68.8999609 87.0820779,50.2464634 98.0980148,4.65604178 C99.7171692,5.79639342 104.844891,9.86310488 109.089111,18.0264567 C102.336548,19.6028428 99.1488191,23.3457233 99.1488191,23.3457233 C118.275792,16.6919263 130.731011,24.3149115 130.731011,24.3149115 C127.511258,19.7256112 123.303551,17.1816531 123.303551,17.1816531 C132.292103,16.8478858 138.898912,19.9940436 142.793562,22.617852 C142.733405,19.5971263 141.298313,16.2855514 141.298313,16.2855514 C141.298313,16.2855514 151.197303,18.5645787 156.889484,26.0821243 C160.812865,22.6049826 169.643692,19.6210994 169.643692,19.6210994 C171.633067,26.2707064 169.896891,30.9794231 170.017803,35.5313122 C170.098612,38.6831266 170.76034,41.5248774 170.76034,41.5248774 C173.950164,41.1576496 176.992738,40.2855209 178.45716,39.0386822 C181.664343,36.308267 177.124724,31.9326591 176.521657,31.3020568 C175.916494,30.6696588 175.65282,30.1620643 176.026932,29.9097336 C178.624163,30.1105866 186.550239,31.4259626 191.908113,36.9424607 C197.551211,42.6355395 201.942382,52.8236425 183.97276,59.4687602 L183.97276,59.4687602 Z" id="path46" fill="#0F2B53"></path>
                        <path d="M180.761986,54.8070319 C180.761986,54.8070319 180.304971,54.4433956 179.51395,53.9783002 C178.487089,53.3740353 176.896666,52.5982778 175.00456,52.2214727 C175.00456,52.2214727 176.618028,51.419677 179.856935,52.0766167 C179.856935,52.0766167 180.605458,52.729965 180.887089,53.5188913 C181.035536,53.9358011 181.056187,54.3901221 180.761986,54.8070319" id="path48" fill="#0F2B53"></path>
                        <path d="M37.8493069,94.5248012 C38.2000739,94.5248012 38.4068827,94.6807309 38.4068827,94.9656542 C38.4068827,95.2248386 38.264421,95.3936377 37.8756444,95.3936377 L37.5126066,95.3936377 L37.5126066,94.5248012 L37.8493069,94.5248012 Z M36.9804705,95.83479 L37.9657304,95.83479 C38.5104367,95.83479 38.9770286,95.6139146 38.9770286,94.9916924 C38.9770286,94.6807309 38.7827899,94.3823396 38.4975673,94.2781869 L39.0943499,93.2025416 L38.4975673,93.2025416 L38.0435456,94.1099864 L37.5126066,94.1099864 L37.5126066,93.2025416 L36.9804705,93.2025416 L36.9804705,95.83479 Z M39.8458651,94.4858936 C39.8458651,95.7045992 39.003366,96.573735 37.9139534,96.573735 C36.8251394,96.573735 35.9955098,95.7045992 35.9955098,94.4858936 C35.9955098,93.2543187 36.8251394,92.411221 37.9139534,92.411221 C39.003366,92.411221 39.8458651,93.2543187 39.8458651,94.4858936 Z M35.4759437,94.4858936 C35.4759437,96.0029905 36.5782258,97.0403268 37.9139534,97.0403268 C39.263149,97.0403268 40.3654311,96.0029905 40.3654311,94.4858936 C40.3654311,92.9684975 39.263149,91.9311612 37.9139534,91.9311612 C36.5782258,91.9311612 35.4759437,92.9684975 35.4759437,94.4858936 L35.4759437,94.4858936 Z" id="path50" fill="#0F2B53"></path>
                    </g>
                </g>
            </g>
        </g>
    </g>
</svg>