<svg width="200" height="201" viewBox="0 0 200 201" fill="none" xmlns="http://www.w3.org/2000/svg">
<g clip-path="url(#clip0_5_200078)">
<g clip-path="url(#clip1_5_200078)">
<path d="M130.688 74.597C121.936 76.858 111.503 82.9106 105.296 88.5737L99.9972 116.527L94.6986 88.5737C88.4909 82.9106 78.0583 76.858 69.3065 74.597C59.3839 81.4988 50.9828 92.3924 47.2732 104.113C43.5125 106.044 40.2912 108.768 37.7256 112.457C42.9891 109.495 48.2067 107.535 53.3596 107.034C54.5008 101.028 57.0044 95.9325 60.4954 91.4945C61.7121 92.9008 63.1635 94.0259 64.7984 94.9373C65.883 90.9428 68.3596 86.5048 70.2535 84.6117C75.9864 93.1118 82.4234 99.6403 89.5592 104.219L93.231 125.392C91.4342 124.943 89.7508 124.162 88.1941 122.993C85.6258 130.106 83.7373 137.484 82.7391 145.208C81.4117 144.031 80.0817 141.808 78.7517 139.158C78.266 147.696 80.6294 154.873 87.2499 160.017C89.5997 159.601 93.2283 157.289 94.909 154.906C91.2777 153.316 88.472 151.266 86.3056 148.856C87.2094 144.345 88.8901 140.883 91.2373 138.322L93.4522 142.341C95.4378 142.949 97.3317 143.174 99.9999 143.174C102.668 143.174 104.562 142.949 106.548 142.341L108.762 138.322C111.11 140.883 112.79 144.345 113.694 148.856C111.528 151.266 108.722 153.316 105.091 154.906C106.771 157.289 110.4 159.598 112.75 160.017C119.37 154.873 121.734 147.696 121.248 139.158C119.918 141.808 118.591 144.029 117.261 145.208C116.26 137.481 114.374 130.103 111.806 122.993C110.249 124.162 108.566 124.943 106.769 125.392L110.441 104.219C117.576 99.6403 124.013 93.1118 129.746 84.6117C131.64 86.5048 134.117 90.9428 135.201 94.9373C136.834 94.0259 138.288 92.9008 139.504 91.4945C142.995 95.9325 145.499 101.028 146.64 107.034C151.79 107.537 157.011 109.498 162.274 112.457C159.708 108.768 156.487 106.044 152.726 104.113C149.017 92.3924 140.613 81.4988 130.693 74.597H130.688Z" fill="#B5ADA5"/>
<path d="M159.9 67.0002C159.18 70.8649 158.192 74.5619 156.941 78.0209C158.959 77.5611 161.508 77.5476 162.881 78.2399C160.283 79.5705 157.283 82.5752 156.49 85.2174C157.272 86.2289 160.407 86.6183 162.121 86.1207C166.763 93.942 169.939 104.979 169.297 116.63C168.145 107.045 163.24 94.8372 158.956 90.2991C154.453 90.8562 150.781 86.9104 149.891 83.9815C152.605 78.9891 154.747 72.8256 156.015 65.8346C156.015 65.8346 156.01 65.8346 156.007 65.8346C156.757 61.7022 157.194 57.2777 157.272 52.6368C158.465 52.9289 159.652 53.2372 160.842 53.5482C163.424 54.2217 166 54.9221 168.563 55.6821V46.8926C167.147 46.4734 165.725 46.065 164.303 45.6729V46.0731C164.303 46.9575 163.591 47.4794 162.711 47.2442C162.061 47.0684 161.411 46.9061 160.761 46.7357C159.549 46.4193 158.338 46.1137 157.121 45.8189C157.113 45.6945 157.111 45.5755 157.103 45.4511C157.103 45.4295 157.103 45.4105 157.1 45.3889C157.032 44.345 156.943 43.2902 156.838 42.2301C156.835 42.2301 156.833 42.2301 156.83 42.2301C156.226 42.2815 155.627 42.3572 155.025 42.4275V32.6185C157.828 33.2756 160.623 33.9842 163.405 34.7415V27.956C160.621 27.196 157.828 26.4902 155.025 25.833V13.1437C157.596 13.7468 160.156 14.3904 162.711 15.0801C163.591 15.3153 164.303 16.2349 164.303 17.1192V17.5195C165.725 17.9143 167.147 18.32 168.563 18.7392V9.9497C160.691 7.61576 152.729 5.69018 144.711 4.17839V8.48659C144.846 8.51093 144.978 8.53798 145.113 8.56232C146.004 8.72999 146.727 9.59542 146.727 10.4798V43.777C145.051 44.1449 143.392 44.5695 141.746 45.0454C140.926 44.8264 140.276 44.0367 140.276 43.201V9.20868C140.276 8.373 140.964 7.81048 141.806 7.95652C141.97 7.98627 142.132 8.01331 142.297 8.04306V3.73486C138.169 2.99925 134.028 2.37181 129.876 1.85526C129.876 3.29133 129.876 4.7274 129.879 6.16346C130.013 6.17969 130.148 6.19862 130.283 6.21485C131.179 6.32843 131.907 7.14789 131.907 8.03224V42.0246C131.907 42.8602 131.217 43.4471 130.372 43.3389C130.208 43.3173 130.043 43.2984 129.879 43.2767V47.5849C130.987 47.7228 132.091 47.8905 133.197 48.042C128.503 49.9919 123.987 52.3745 119.727 55.1763C119.673 55.2115 119.619 55.2466 119.565 55.2845C118.011 56.3122 116.489 57.3913 115.005 58.5244C115.003 58.5244 114.997 58.5244 114.995 58.5244C111.965 60.8395 109.089 63.3735 106.402 66.1186C107.095 63.3032 108.069 60.6474 109.397 58.1972C106.283 58.0512 103.156 57.9673 100.008 57.9673C96.8597 57.9673 93.7329 58.0512 90.6196 58.1972C91.9469 60.6502 92.9182 63.3032 93.6142 66.1186C90.9272 63.3735 88.0513 60.8395 85.0216 58.5244C85.0189 58.5244 85.0135 58.5244 85.0108 58.5244C83.527 57.3913 82.0054 56.3095 80.4514 55.2845C80.3975 55.2494 80.3435 55.2115 80.2896 55.1763C76.0297 52.3772 71.5135 49.9919 66.8165 48.042C69.0773 47.7283 71.3381 47.447 73.6043 47.1982C74.6673 47.0819 75.7275 46.9521 76.7932 46.8493V42.5411C76.6583 42.5546 76.5234 42.5682 76.3885 42.5817C75.4901 42.6709 74.759 42.0273 74.759 41.1429V23.7073C78.1745 31.131 81.5926 38.6278 85.0162 46.1948C88.2239 45.9947 91.4344 45.8595 94.6448 45.7892V41.481C94.4802 41.4837 94.313 41.4891 94.1484 41.4918C93.2959 41.5134 92.6025 40.8535 92.6025 40.0179V5.93899C92.6025 5.10061 93.2959 4.40016 94.1484 4.37852C94.313 4.37582 94.4802 4.37041 94.6448 4.3677V0.0595043C90.4685 0.151456 86.295 0.35429 82.1241 0.662598V4.9708C82.2887 4.95728 82.4559 4.94646 82.6205 4.93564C83.4703 4.87344 84.1637 5.50898 84.1637 6.34737V23.8695C80.7401 16.3133 77.3219 8.82735 73.9092 1.41714C70.7122 1.76602 67.5207 2.17709 64.3345 2.65308V6.96128C64.4991 6.93694 64.6637 6.9126 64.8282 6.88826C65.6727 6.76385 66.3633 7.34802 66.3633 8.1864V42.2653C66.3633 42.8332 66.0423 43.3687 65.5728 43.6959C65.3516 43.8501 65.1007 43.9637 64.8282 44.0042C64.6637 44.0286 64.4991 44.0529 64.3345 44.0772V47.0603C62.7023 46.4463 61.0513 45.8811 59.3813 45.3727C60.0315 44.6154 60.6817 43.8447 61.3318 43.0928V42.2274C61.3318 31.1121 61.3318 19.9941 61.3318 8.87874C59.3948 7.275 57.4631 5.69289 55.5342 4.13512C50.7347 5.0357 45.9541 6.08233 41.2032 7.2777C39.2932 9.67655 37.3858 12.0997 35.4865 14.5473V48.7614C36.7005 49.6511 37.9227 50.5652 39.1394 51.4739C39.8273 51.9878 40.5126 52.4881 41.2032 53.0074C41.7158 52.8775 42.2284 52.7585 42.741 52.6341C42.8165 57.2723 43.2563 61.6968 44.0063 65.8319C44.0063 65.8319 44.0009 65.8319 43.9982 65.8319C45.2662 72.8229 47.411 78.9891 50.1223 83.9788C49.232 86.9077 45.5576 90.8535 41.0576 90.2964C36.7734 94.8345 31.8687 107.042 30.7167 116.627C30.0746 104.976 33.2473 93.9393 37.893 86.118C39.6034 86.6156 42.7383 86.2262 43.5234 85.2147C42.7302 82.5725 39.7302 79.5678 37.1322 78.2372C38.5054 77.5449 41.0549 77.5611 43.0728 78.0182C41.821 74.5592 40.8336 70.8622 40.1133 66.9975C33.2959 69.1097 26.6295 71.5653 20.1439 74.3563C19.1079 95.7351 22.8984 116.451 30.652 135.331C32.5162 133.035 34.6205 130.939 36.9272 129.081C49.1889 158.884 71.3678 184.082 100.013 199.997C128.659 184.079 150.838 158.884 163.1 129.081C165.406 130.936 167.513 133.032 169.375 135.331C177.126 116.451 180.919 95.7351 179.883 74.3563C173.397 71.5653 166.731 69.1097 159.914 66.9975L159.9 67.0002ZM150.97 51.1791C151.356 50.9087 151.739 50.6491 152.12 50.4003C152.122 50.7491 152.114 51.0926 152.114 51.4388C152.093 57.9349 151.321 64.2119 149.845 69.8859C148.097 69.1503 144.603 68.8392 142.985 69.2747C145.531 71.925 146.94 75.4679 147.253 77.5936C147.253 77.5936 147.253 77.5963 147.253 77.599C143.77 74.1238 139.631 71.2706 135.668 69.2422C138.568 62.2918 145.003 55.3711 150.973 51.1791H150.97ZM46.1322 42.5519C45.3282 42.4519 44.5216 42.3653 43.7149 42.2869V14.7745C43.7149 14.0415 44.3112 13.3005 45.0423 13.1301C47.2383 12.6163 49.4371 12.1349 51.6439 11.6833C52.3804 11.5318 52.9793 12.0105 52.9793 12.7434V42.2436C52.9793 42.7575 52.6826 43.2578 52.2536 43.5661C50.2275 43.1496 48.188 42.8034 46.1295 42.5465V42.5546L46.1322 42.5519ZM47.8858 51.4307C47.8858 51.0872 47.875 50.7464 47.8804 50.403C48.2608 50.6518 48.6466 50.9114 49.0324 51.1818C55.0027 55.3738 61.4344 62.2945 64.3372 69.2449C60.3741 71.2733 56.2356 74.1265 52.7527 77.6017C52.7527 77.6017 52.7527 77.599 52.7527 77.5963C53.063 75.4706 54.4739 71.9277 57.018 69.2774C55.3993 68.842 51.9056 69.153 50.1574 69.8886C48.6817 64.2119 47.9101 57.9295 47.8885 51.4307H47.8858ZM153.906 123.001C153.123 131.05 150.266 137.941 145.267 143.631C145 139.015 143.856 135.001 141.981 131.496C140.076 155.977 121.235 177.786 100 184.333C78.7653 177.786 59.9236 155.98 58.0189 131.496C56.1412 135.001 55 139.015 54.7329 143.631C49.7338 137.938 46.8768 131.05 46.0944 123.001C44.9964 122.807 43.5558 122.715 41.7752 122.72C47.2599 118.139 54.0261 114.888 60.6493 113.571C60.3687 111.129 60.4793 108.8 60.9299 106.569C65.6646 112.724 71.8534 117.025 79.804 119.077V128.692C77.2572 131.52 74.5998 134.796 71.7266 138.96C72.6115 153.197 81.7059 166.386 91.259 170.981C90.8327 169.929 90.5522 168.918 90.4982 167.801C92.6592 169.02 96.2905 169.58 99.9946 169.58C103.699 169.58 107.33 169.02 109.491 167.801C109.44 168.918 109.156 169.929 108.73 170.981C118.283 166.389 127.378 153.197 128.263 138.96C125.389 134.796 122.735 131.52 120.185 128.692V119.077C128.136 117.022 134.327 112.724 139.059 106.569C139.51 108.8 139.621 111.129 139.34 113.571C145.966 114.888 152.732 118.139 158.214 122.72C156.431 122.712 154.993 122.807 153.895 123.001H153.906ZM77.554 107.048C78.5225 107.048 79.3777 106.591 79.9389 105.893C80.6268 106.372 81.3309 106.837 82.0674 107.27C80.4595 108.895 77.7968 109.322 75.7815 108.698C71.8426 107.475 70.1376 102.932 71.473 97.3632C73.1376 99.7187 75.0045 101.828 77.1169 103.683C76.6637 104.17 76.0216 104.479 75.3013 104.479C75.0315 104.479 74.7752 104.424 74.5324 104.346C74.705 105.866 75.9838 107.051 77.5594 107.051L77.554 107.048ZM124.701 104.479C123.981 104.479 123.339 104.17 122.886 103.683C124.998 101.828 126.862 99.7214 128.53 97.3632C129.865 102.932 128.16 107.475 124.221 108.698C122.206 109.322 119.543 108.895 117.935 107.27C118.674 106.837 119.376 106.374 120.064 105.893C120.625 106.591 121.478 107.048 122.449 107.048C124.022 107.048 125.303 105.863 125.476 104.343C125.233 104.422 124.977 104.476 124.707 104.476L124.701 104.479ZM146.638 107.034C145.496 101.028 142.993 95.9325 139.502 91.4945C138.285 92.9008 136.834 94.0259 135.199 94.9373C134.114 90.9428 131.638 86.5048 129.744 84.6116C124.011 93.1117 117.574 99.6403 110.438 104.219L106.766 125.392C108.563 124.943 110.246 124.162 111.803 122.993C114.371 130.106 116.26 137.484 117.258 145.208C118.585 144.031 119.915 141.808 121.246 139.158C121.731 147.696 119.368 154.873 112.747 160.017C110.397 159.601 106.769 157.289 105.088 154.906C108.719 153.316 111.525 151.266 113.692 148.856C112.788 144.345 111.107 140.883 108.76 138.322C108.808 139.85 108.428 142.609 107.921 144.212C106.105 145.605 103.186 146.527 100 146.527C96.8139 146.527 93.8948 145.608 92.0791 144.212C91.5693 142.609 91.1915 139.85 91.2401 138.322C88.893 140.883 87.2149 144.345 86.3085 148.856C88.4748 151.266 91.2806 153.316 94.9119 154.906C93.2311 157.289 89.6025 159.598 87.2527 160.017C80.6322 154.873 78.2689 147.696 78.7545 139.158C80.0845 141.808 81.4119 144.029 82.7419 145.208C83.7428 137.481 85.6286 130.103 88.1969 122.993C89.7536 124.162 91.4371 124.943 93.2338 125.392L89.5621 104.219C82.4263 99.6403 75.9892 93.1117 70.2563 84.6116C68.3624 86.5048 65.8858 90.9428 64.8013 94.9373C63.1691 94.0259 61.7149 92.9008 60.4982 91.4945C57.0072 95.9325 54.5036 101.028 53.3624 107.034C48.2122 107.537 42.9946 109.498 37.7284 112.457C40.2941 108.768 43.5153 106.044 47.2761 104.113C50.9856 92.3924 59.3894 81.4988 69.3094 74.597C78.0612 76.858 88.4937 82.9105 94.7014 88.5737L100 116.527L105.299 88.5737C111.506 82.9105 121.939 76.858 130.691 74.597C140.613 81.4988 149.014 92.3924 152.724 104.113C156.485 106.044 159.706 108.768 162.272 112.457C157.008 109.495 151.79 107.535 146.638 107.034ZM31.0459 58.0268V39.7907C30.1043 39.1173 29.1628 38.4493 28.2212 37.7867C29.1601 36.5372 30.1016 35.2959 31.0459 34.0572V15.8238C29.152 14.4688 27.2662 13.1383 25.3831 11.832C18.1637 14.1822 11.0279 16.8812 4 19.9291C4 21.3652 4 22.8013 4 24.2373C4.15378 24.1697 4.31025 24.1021 4.46673 24.0372C5.26529 23.6938 5.91817 24.0994 5.91817 24.9351V67.0002C5.91817 67.8359 5.26529 68.7933 4.46673 69.1394C4.31295 69.2071 4.15647 69.2747 4 69.3396C4 70.7756 4 72.2117 4 73.6478C11.0279 70.5999 18.1637 67.9008 25.3831 65.5506C27.2662 63.0193 29.1547 60.5122 31.0459 58.0268ZM22.9038 58.2567C22.9038 58.9896 22.321 59.7847 21.6034 60.0308C19.0216 60.9179 16.4532 61.8509 13.8957 62.8272V46.1462C16.4532 45.1698 19.0216 44.2368 21.6034 43.3497C22.321 43.1036 22.9038 43.5039 22.9038 44.2368V58.2567ZM22.9038 34.7901C22.9038 35.523 22.321 36.3182 21.6034 36.5643C19.0216 37.4513 16.4532 38.3844 13.8957 39.3607V22.6796C16.4532 21.7033 19.0216 20.7702 21.6034 19.8832C22.321 19.6371 22.9038 20.0373 22.9038 20.7702V34.7901ZM109.607 41.6135C109.472 41.6081 109.337 41.6027 109.2 41.5973C108.299 41.5621 107.562 40.8211 107.565 39.934V22.4984C110.991 30.3873 114.417 38.3519 117.838 46.3868C120.703 46.6005 123.568 46.8709 126.425 47.1874C126.763 47.2252 127.103 47.255 127.44 47.2928V46.6924C127.44 45.4565 127.44 44.2206 127.44 42.9846C127.275 42.9657 127.111 42.9468 126.946 42.9278C126.096 42.8332 125.406 42.0786 125.406 41.243C125.406 29.8843 125.406 18.5228 125.406 7.16411C125.406 6.32843 126.096 5.71993 126.946 5.81459C127.111 5.83352 127.275 5.85245 127.44 5.87138C127.44 4.43531 127.44 2.99925 127.44 1.56318C123.282 1.0872 119.117 0.719392 114.946 0.459764V4.76796C115.111 4.77878 115.278 4.7896 115.442 4.80042C116.292 4.85451 116.986 5.58471 116.986 6.42309V23.9453C113.565 15.9211 110.138 7.97004 106.712 0.0919577C103.502 0.00271066 100.289 -0.0216294 97.0782 0.0162329V4.32443C97.2428 4.32443 97.4101 4.32173 97.5746 4.31902C98.4272 4.31091 99.1205 4.98973 99.1205 5.82541V39.9043C99.1205 40.7399 98.4272 41.4242 97.5746 41.4323C97.4101 41.4323 97.2428 41.435 97.0782 41.4377V45.7459C101.255 45.6945 105.433 45.754 109.607 45.919V41.6108V41.6135ZM196 30.1222C196 28.6429 196 27.1663 196 25.6869C194.168 22.9717 192.328 20.2834 190.483 17.6168C185.891 15.7589 181.254 14.047 176.584 12.4811C174.706 13.7711 172.82 15.0855 170.932 16.4215V36.8185C172.259 38.5764 173.584 40.3451 174.906 42.1246C178.882 43.4255 182.835 44.8291 186.757 46.3436C187.467 46.6167 188.044 47.4416 188.044 48.1745V62.1457C188.044 62.8786 187.469 63.2518 186.757 62.976C184.631 62.1565 182.497 61.3695 180.355 60.6096C179.64 60.3581 179.058 59.5576 179.058 58.8246V56.7476C176.36 55.8119 173.651 54.9248 170.932 54.0891V58.5244C172.82 61.0261 174.706 63.5493 176.584 66.0969C181.256 67.6628 185.891 69.372 190.483 71.2327C192.328 70.0617 194.168 68.9123 196 67.7899C196 60.9909 196 54.1919 196 47.3929C194.713 45.4863 193.421 43.5904 192.126 41.7081C188.233 40.099 184.308 38.5953 180.353 37.1998C179.638 36.9456 179.055 36.1478 179.055 35.4149V21.4436C179.055 20.7107 179.638 20.3132 180.353 20.5674C182.495 21.3246 184.629 22.1143 186.754 22.9338C187.464 23.2069 188.041 24.0318 188.041 24.7647V26.8417C190.707 27.8884 193.362 28.981 195.997 30.1277L196 30.1222Z" fill="#503629"/>
<path d="M139.351 113.574C139.631 111.132 139.521 108.803 139.07 106.572C134.336 112.727 128.147 117.027 120.196 119.08V128.694C122.743 131.523 125.4 134.798 128.274 138.963C127.389 153.199 118.294 166.389 108.741 170.984C109.167 169.932 109.448 168.92 109.502 167.803C107.341 169.023 103.71 169.583 100.006 169.583C96.3014 169.583 92.6701 169.023 90.5092 167.803C90.5631 168.92 90.8437 169.932 91.27 170.984C81.7169 166.392 72.6225 153.199 71.7376 138.963C74.6108 134.798 77.2654 131.523 79.8149 128.694V119.08C71.8644 117.025 65.6728 112.727 60.9408 106.572C60.4903 108.803 60.3797 111.132 60.6602 113.574C54.0343 114.891 47.2681 118.141 41.7861 122.723C43.5694 122.715 45.0074 122.809 46.1054 123.004C46.8878 131.053 49.7448 137.944 54.7439 143.634C55.011 139.017 56.1548 135.004 58.0298 131.499C59.9345 155.98 78.7762 177.788 100.011 184.336C121.246 177.788 140.087 155.982 141.992 131.499C143.87 135.004 145.011 139.017 145.278 143.634C150.277 137.941 153.134 131.053 153.917 123.004C155.015 122.809 156.455 122.717 158.236 122.723C152.751 118.141 145.985 114.891 139.362 113.574H139.351ZM75.7816 108.698C77.7969 109.322 80.4597 108.895 82.0676 107.27C81.3284 106.837 80.627 106.374 79.939 105.893C79.3779 106.591 78.5253 107.048 77.5541 107.048C75.9813 107.048 74.6998 105.863 74.5271 104.343C74.77 104.422 75.0262 104.476 75.296 104.476C76.0163 104.476 76.6584 104.168 77.1117 103.681C74.9993 101.826 73.1351 99.7187 71.4678 97.3605C70.1324 102.929 71.8374 107.472 75.7762 108.695L75.7816 108.698ZM124.219 108.698C128.158 107.475 129.863 102.932 128.527 97.3632C126.863 99.7187 124.996 101.828 122.883 103.683C123.336 104.17 123.979 104.479 124.699 104.479C124.969 104.479 125.225 104.424 125.468 104.346C125.295 105.866 124.016 107.051 122.441 107.051C121.472 107.051 120.617 106.593 120.056 105.896C119.368 106.374 118.664 106.84 117.927 107.272C119.535 108.898 122.198 109.325 124.213 108.7L124.219 108.698ZM100 146.527C103.186 146.527 106.105 145.608 107.921 144.212C108.431 142.609 108.809 139.85 108.76 138.322L106.545 142.341C104.56 142.949 102.666 143.174 99.9975 143.174C97.3293 143.174 95.4354 142.949 93.4498 142.341L91.2349 138.322C91.1863 139.85 91.5667 142.609 92.0739 144.212C93.8896 145.605 96.8086 146.527 99.9948 146.527H100ZM50.1548 69.8886C51.903 69.153 55.3967 68.842 57.0154 69.2774C54.4687 71.9277 53.0604 75.4706 52.7502 77.5963C52.7502 77.5963 52.7502 77.599 52.7502 77.6017C56.2331 74.1265 60.3716 71.2733 64.3347 69.2449C61.4345 62.2945 55.0002 55.3738 49.0298 51.1819C48.644 50.9114 48.2583 50.6491 47.8779 50.403C47.8752 50.7464 47.8833 51.0872 47.8833 51.4307C47.9021 57.9295 48.6764 64.2119 50.1521 69.8886H50.1548ZM147.253 77.5936C146.943 75.4679 145.532 71.925 142.985 69.2747C144.604 68.8393 148.097 69.1503 149.845 69.8859C151.319 64.2119 152.093 57.9349 152.114 51.4388C152.114 51.0926 152.125 50.7464 152.12 50.4003C151.739 50.6464 151.356 50.9087 150.97 51.1792C145 55.3711 138.566 62.2918 135.666 69.2422C139.629 71.2706 143.767 74.1238 147.25 77.599C147.25 77.599 147.25 77.5963 147.25 77.5936H147.253Z" fill="white"/>
<path d="M164.516 140.602V144.029H163.575V140.602H162.271V139.731H165.822V140.602H164.519H164.516Z" fill="#503629"/>
<path d="M170.246 144.026V141.221L169.04 143.055H169.016L167.821 141.238V144.023H166.896V139.726H167.913L169.038 141.543L170.165 139.726H171.182V144.023H170.246V144.026Z" fill="#503629"/>
</g>
</g>
<defs>
<clipPath id="clip0_5_200078">
<rect width="200" height="200" fill="white" transform="translate(0 0.299805)"/>
</clipPath>
<clipPath id="clip1_5_200078">
<rect width="192" height="200" fill="white" transform="translate(4)"/>
</clipPath>
</defs>
</svg>
