<?xml version="1.0" encoding="UTF-8"?>
<svg width="200px" height="200px" viewBox="0 0 200 200" version="1.1" xmlns="http://www.w3.org/2000/svg" xmlns:xlink="http://www.w3.org/1999/xlink">
    <!-- Generator: Sketch 54.1 (76490) - https://sketchapp.com -->
    <title>st-thomas-mn</title>
    <desc>Created with Sketch.</desc>
    <g id="st-thomas-mn" stroke="none" stroke-width="1" fill="none" fill-rule="evenodd">
        <g id="st-thomas-mn_BGL">
            <g id="st-thomas-mn" transform="translate(10.000000, 0.000000)">
                <g id="g10" transform="translate(88.991530, 99.836802) scale(-1, 1) rotate(-180.000000) translate(-88.991530, -99.836802) translate(0.000000, 0.067751)" fill-rule="nonzero">
                    <g id="g12">
                        <path d="M175.432174,184.67744 C151.101459,170.273129 112.378134,172.299303 88.8301748,199.146415 C65.2809837,172.299303 26.5579054,170.273129 2.22719625,184.67744 C-6.40591208,118.723323 7.55436471,23.9181518 88.8301748,0 C170.104384,23.9181518 184.064661,118.723323 175.432174,184.67744" id="path14" fill="#412784"></path>
                        <path d="M46.8634322,168.529634 C33.9075588,166.824322 20.6430172,168.368279 8.98334081,172.713776 C8.33958409,165.308079 7.99150095,157.888834 7.99150095,150.534869 C7.99150095,124.868357 11.8670359,99.9987658 19.3228017,79.2775962 C32.5064811,42.6378434 55.9021387,17.5945184 88.8301748,7.1600922 C121.756425,17.5945184 145.152883,42.6378434 158.336563,79.2775962 C165.791528,99.9987658 169.667124,124.868357 169.667124,150.534869 C169.667124,157.888834 169.31978,165.308079 168.675592,172.713776 C157.015546,168.368279 143.75119,166.824322 130.795378,168.529634 C114.940721,170.616778 100.328866,177.38814 88.8301748,187.812774 C77.330868,177.38814 62.7190131,170.616778 46.8634322,168.529634" id="path16" fill="#FFFFFF"></path>
                        <path d="M47.7311766,161.935023 L47.7311766,161.935023 C36.7311461,160.487756 25.5862657,161.174438 15.0351343,163.878056 C14.7846648,159.344107 14.6430173,154.874823 14.6430173,150.534869 C14.6430173,125.278519 18.4254961,101.417088 25.5809693,81.5297901 C37.7350568,47.7531012 59.0235551,24.3165506 88.8301748,14.2010774 C118.635255,24.3165506 139.924246,47.7531012 152.07821,81.5297901 C159.233868,101.417088 163.01647,125.278519 163.01647,150.534869 C163.01647,154.874823 162.874207,159.344723 162.624168,163.878056 C152.073899,161.174438 140.927479,160.487756 129.927633,161.935023 C114.709158,163.93841 100.62263,169.863583 88.8301748,179.135946 C77.0364877,169.863583 62.9499599,163.93841 47.7311766,161.935023" id="path18" fill="#412784"></path>
                        <polyline id="path20" fill="#FFFFFF" points="29.9415543 151.065739 29.9415543 124.993992 42.8745794 124.993992 42.8745794 136.285139 81.4675884 136.285139 81.4675884 91.3274804 95.8380269 91.3274804 95.8380269 136.285139 134.432021 136.285139 134.432021 124.993992 147.365046 124.993992 147.365046 151.065739 29.9415543 151.065739"></polyline>
                        <polyline id="path22" fill="#FFFFFF" points="79.1919919 120.218011 57.4494828 120.218011 49.5460496 112.314085 49.5460496 84.7033081 58.4250024 75.8250943 114.929019 75.8250943 114.929019 60.8905912 97.684986 60.8905912 97.684986 47.7518695 119.855886 47.7518695 127.759812 55.6550563 127.759812 82.0347939 120.728557 89.0660486 64.0184742 89.0660486 64.0184742 105.23233 79.2092359 105.23233 79.1919919 120.218011"></polyline>
                        <polyline id="path24" fill="#FFFFFF" points="98.0187812 120.243261 98.0187812 105.308696 114.569974 105.308696 114.569974 99.3810599 128.272822 99.3810599 128.272822 112.237103 120.343646 120.265432 98.0187812 120.243261"></polyline>
                        <polyline id="path26" fill="#FFFFFF" points="79.1581197 61.0438168 64.223555 61.0438168 64.223555 67.2024618 49.597289 67.2024618 49.597289 56.1939324 58.1033396 47.6878818 79.1581197 47.6878818 79.1581197 61.0438168"></polyline>
                        <polyline id="path28" fill="#FFFFFF" points="95.7862948 39.6427396 95.7862948 73.8229389 81.4675884 73.8229389 81.4675884 39.6427396 75.6169342 39.6427396 75.6169342 29.9429708 101.636949 29.9429708 101.636949 39.6427396 95.7862948 39.6427396"></polyline>
                    </g>
                </g>
            </g>
        </g>
    </g>
</svg>