<?xml version="1.0" encoding="UTF-8"?>
<svg width="200px" height="200px" viewBox="0 0 200 200" version="1.1" xmlns="http://www.w3.org/2000/svg" xmlns:xlink="http://www.w3.org/1999/xlink">
    <!-- Generator: Sketch 54.1 (76490) - https://sketchapp.com -->
    <title>stonehill</title>
    <desc>Created with Sketch.</desc>
    <g id="stonehill" stroke="none" stroke-width="1" fill="none" fill-rule="evenodd">
        <g id="stonehill_BGL">
            <g id="stonehill" transform="translate(0.000000, 28.000000)">
                <g id="g10" transform="translate(99.999998, 71.745100) scale(-1, 1) rotate(-180.000000) translate(-99.999998, -71.745100) translate(0.000000, 0.176474)" fill-rule="nonzero">
                    <g id="g12">
                        <path d="M199.784962,142.823526 C199.784962,142.823526 160.339212,142.823526 143.838558,142.823526 L5.57164038,142.823526 L0,142.823526 L1.18719605,119.310455 C1.86249015,105.946403 10.3936599,94.3163375 23.1183654,89.1045729 C26.9526137,81.9098019 33.3264698,76.1947693 41.085816,72.9934622 C44.905293,65.7999984 51.2607177,60.0803907 59.0055541,56.8681032 C59.0387567,56.8058156 59.0757502,56.7483646 59.1077109,56.6875803 C58.6724168,53.4573843 53.351698,13.9705879 53.351698,13.9705879 L56.9515672,12.3483657 C71.3941159,5.84175802 85.8267952,0 103.58235,0 C115.198036,0 129.227448,1.23979082 145.194768,10.4386272 C157.281042,17.453529 167.079734,28.205947 172.801303,40.7248356 C176.157512,48.0685609 177.847054,55.4792143 177.847054,62.5242468 C177.847054,67.2640506 177.033983,71.819606 175.497381,76.0967301 C176.464701,78.7542464 199.784962,142.823526 199.784962,142.823526" id="path14" fill="#FFFFFF"></path>
                        <path d="M143.838558,137.526794 L5.57164038,137.526794 L6.4779933,119.577775 C7.09457499,107.383657 15.4398689,97.2535923 26.8964699,93.3248343 C30.2563391,85.8169913 36.7922867,79.9457496 44.8873845,77.1712399 C48.2460119,69.6627434 54.7814365,63.7928742 62.8747697,61.0169266 C63.3803252,59.8869266 63.9522206,58.7959462 64.5956193,57.7443123 L59.1281031,17.1777773 C74.616338,10.1999344 87.5823508,5.29794758 103.58235,5.29794758 C114.49869,5.29794758 127.658167,6.44965343 142.550977,15.0281042 C165.292806,28.2273849 178.527447,55.8685607 169.862741,76.1006517 C176.043786,93.084965 181.952937,109.316337 187.756204,125.261435 C172.962087,131.877774 163.818297,137.526794 143.838558,137.526794" id="path16" fill="#231F20"></path>
                        <path d="M106.456206,44.5386263 C93.8947689,44.5386263 86.6620893,52.5960118 86.1026122,53.2503255 C93.0346382,51.551502 104.767318,52.600064 115.380389,52.600064 C117.480389,51.2321556 118.103265,50.4960772 118.283657,50.2019595 C118.163396,49.4528746 116.400651,44.5386263 106.456206,44.5386263 Z M143.838558,128.033984 L15.556078,128.033984 C15.0505225,107.877121 26.6283653,102.396076 34.2787573,101.293462 C35.9331364,93.0189519 43.2916983,86.4333312 52.2666654,85.1405207 C53.9223516,76.864704 61.2816325,70.2797368 70.256861,68.9862728 C70.8993446,65.773201 72.3980374,62.8143122 74.5235275,60.3222207 L69.481044,22.924836 C83.2483639,16.72281 91.4130696,14.7901303 103.58235,14.7901303 C113.243788,14.7901303 124.860128,15.7939865 137.785617,23.2386269 C159.527447,35.8575808 170.426793,62.0131357 157.080388,79.1477104 C148.935944,89.6006514 137.171238,91.788233 134.081042,94.8496708 C136.715683,100.058821 149.861434,101.126141 163.607185,86.6679717 L175.813721,120.203265 C166.075159,124.55882 159.350323,128.033984 143.838558,128.033984 L143.838558,128.033984 Z" id="path18" fill="#B9B7B8"></path>
                        <path d="M19.4250387,124.24052 C19.3818949,107.657514 30.3980385,105.685618 37.4726788,104.665357 C39.0939206,96.5607819 43.3862081,90.2522853 52.8066,88.8954226 L55.4605868,88.5130697 C56.9822208,80.9104555 61.0122861,74.1516321 70.7980374,72.7411747 L73.4522857,72.3588217 C75.3607824,62.8104559 80.079083,58.6966652 87.0065338,56.9360116 C92.9999977,55.4659463 103.288886,56.3939855 115.380389,56.3939855 C118.43137,56.3939855 122.030062,53.0371882 122.030062,49.5999334 C121.971239,49.2386916 120.445749,40.7449663 106.456206,40.7449663 C92.1843114,40.7449663 84.0908476,49.7620249 83.2150306,50.7914366 C83.2150306,50.7914366 80.1490176,54.3908483 77.9058804,57.0235933 C77.3150307,52.6320248 74.2209132,29.6836594 73.6222204,25.2443131 C85.3392136,20.1738557 92.6908474,18.5843133 103.58235,18.5843133 C112.741827,18.5843133 123.741827,19.5274505 135.892153,26.5254895 C147.636598,33.3425482 156.324833,44.7260773 158.556205,56.230064 C159.606532,61.6549004 159.686924,69.62941 154.088231,76.8163379 C146.262741,86.8588214 135.386925,88.2150305 131.411761,92.1542461 L129.44967,94.0973833 C131.111761,97.3830041 133.930062,101.221566 139.197382,101.995422 C146.133983,103.01503 154.376467,99.8019583 162.00261,93.3509781 C164.438558,100.045749 169.432022,113.764703 171.043133,118.187579 C163.111107,121.737905 156.801957,124.24052 143.838558,124.24052 C143.838558,124.24052 26.7062085,124.24052 19.4250387,124.24052" id="path20" fill="#FFFFFF"></path>
                        <path d="M142.480389,106.157514 C149.622872,106.157514 155.583003,103.301305 160.17712,99.4457491 L166.258819,116.158167 C159.873199,119.011762 151.822218,120.443134 143.824833,120.443134 L23.4528099,120.443134 C23.7796072,113.918951 30.0495417,108.639867 37.4535285,108.649017 L109.572546,108.649017 C108.017644,107.28954 106.560782,105.82418 105.229409,104.277775 L41.4522212,104.277775 C41.7815676,97.7529387 48.0494106,92.4764683 55.4516326,92.4862722 L98.2392132,92.4862722 C97.6967296,90.9470565 97.2869257,89.4928082 96.9967296,88.1137233 L59.4523515,88.1137233 C59.7816979,81.5895404 66.0509787,76.3078412 73.4549001,76.3202595 L97.7490172,76.3202595 C98.4254877,74.7078413 99.3365988,73.2653576 100.419605,71.9483642 L77.4542464,71.9483642 C77.7810438,65.4261422 84.0516319,60.146273 91.4542461,60.156273 L117.49869,60.156273 C123.313069,56.7412404 127.493461,53.2046392 125.245749,47.0312407 C122.333984,39.0320905 112.843788,36.8915677 106.416337,36.8915677 C96.1339845,36.8915677 86.0862724,41.4613715 80.4797366,48.0299988 L77.7071876,27.4639862 C85.3150305,24.0379733 94.1169911,22.3235942 103.541827,22.3235942 C113.683004,22.3235942 123.2915,23.6077772 133.951631,29.7503261 C143.549016,35.3201298 150.419604,43.6032015 153.80065,52.8875804 C157.124833,62.0253579 155.750323,68.4555538 151.079081,74.4535929 C147.185617,79.4522856 141.746402,82.1653574 135.98431,85.1653573 C131.531369,87.4509782 124.234637,90.1647036 126.730716,97.0209126 C129.173853,103.730063 136.912415,106.157514 142.480389,106.157514" id="path22" fill="#2F2975"></path>
                        <path d="M133.510454,83.6365992 C130.041827,85.2281024 124.401958,89.4418278 123.039866,94.7607819 C122.536598,85.0568606 131.10784,82.620913 133.876467,81.1196058 C142.84967,76.7411746 147.456205,73.4398674 150.373199,66.4398676 C150.813722,76.5973837 134.747055,82.9281025 133.510454,83.6365992" id="path24" fill="#8271B2"></path>
                        <path d="M143.824833,117.835945 C143.824833,117.835945 32.9294109,117.835945 26.729215,117.835945 C27.0113065,117.151631 27.386666,116.500651 27.8321562,115.892154 C44.0959466,115.892154 145.162741,115.892154 145.162741,115.892154 C151.364049,115.892154 157.350976,115.004572 162.469931,113.367317 C162.645094,113.84771 162.808493,114.296076 162.950976,114.6915 C157.462088,116.727448 150.773199,117.835945 143.824833,117.835945" id="path26" fill="#8271B2"></path>
                        <path d="M105.673854,69.3405211 C103.315684,69.3405211 85.2307168,69.3405211 80.7300633,69.3405211 C81.0130699,68.6562074 81.3875797,68.0052271 81.8326777,67.3973839 C88.991501,67.3973839 107.267971,67.3973839 107.267971,67.3973839 L105.673854,69.3405211" id="path28" fill="#8271B2"></path>
                        <path d="M114.290193,109.312416 C109.264703,105.320912 106.42418,101.669932 106.42418,101.669932 C106.42418,101.669932 50.6275804,101.669932 44.7290838,101.669932 C45.0124825,100.984965 45.3865348,100.335292 45.832025,99.7267949 C57.5196718,99.7267949 107.320259,99.7267949 107.320259,99.7267949 C111.695422,105.011762 117.347709,109.312416 117.347709,109.312416 L114.290193,109.312416" id="path30" fill="#8271B2"></path>
                        <path d="M83.8843116,39.1339859 C91.2601284,34.3601952 98.9882328,32.3404567 107.754246,32.3404567 C115.903919,32.3404567 126.390847,36.9385612 129.032023,44.1954891 C130.719605,48.8286262 129.413722,52.3542471 127.203918,55.0092143 C128.512415,52.6399333 128.999997,49.7214367 127.694114,46.1386917 C124.515683,37.3994108 114.618298,34.2849011 106.416337,34.2849011 C97.6503244,34.2849011 88.7660109,37.4875154 82.3843117,42.650914 C81.7091483,37.6432017 80.8764686,31.4672541 80.5575143,29.1033326 C81.0555535,28.90013 81.8993444,28.4443784 82.4084947,28.2582999 C82.7980371,31.1542476 83.3137234,34.9078423 83.8843116,39.1339859" id="path32" fill="#8271B2"></path>
                        <path d="M101.235292,93.1490173 C99.7248341,89.2424814 99.1124158,85.5071874 99.1124158,85.5071874 C99.1124158,85.5071874 68.18758,85.5071874 62.7279723,85.5071874 C63.0126782,84.8215665 63.3854233,84.1712397 63.8309134,83.5633966 C72.6967302,83.5633966 100.69869,83.5633966 100.69869,83.5633966 C101.611762,89.1281023 103.25686,93.1490173 103.25686,93.1490173 L101.235292,93.1490173" id="path34" fill="#8271B2"></path>
                        <path d="M185.755551,135.140519 L186.315028,135.140519 C186.924832,135.140519 187.294113,135.420258 187.294113,135.941173 C187.294113,136.436598 186.963394,136.753591 186.341825,136.753591 L185.755551,136.753591 L185.755551,135.140519 Z M186.277773,134.41699 L185.755551,134.41699 L185.755551,132.499343 L184.905224,132.499343 L184.905224,137.502611 L186.367316,137.502611 C187.445747,137.502611 188.156858,136.930716 188.156858,135.96601 C188.156858,135.254245 187.762087,134.784964 187.17908,134.556206 L188.728753,132.499343 L187.661433,132.499343 L186.277773,134.41699 Z M186.454897,139.00065 C184.271237,139.00065 182.620257,137.541173 182.620257,134.912415 C182.620257,132.283657 184.296727,130.822873 186.454897,130.822873 C188.626793,130.822873 190.277119,132.283657 190.277119,134.912415 C190.277119,137.541173 188.601302,139.00065 186.454897,139.00065 Z M186.442479,130.366663 C183.840518,130.366663 182.061433,132.194768 182.061433,134.899343 C182.061433,137.616336 183.865355,139.458166 186.454897,139.458166 C189.058165,139.458166 190.836597,137.629408 190.836597,134.924833 C190.836597,132.219605 189.032675,130.366663 186.442479,130.366663 L186.442479,130.366663 Z" id="path36" fill="#231F20"></path>
                    </g>
                </g>
            </g>
        </g>
    </g>
</svg>