<?xml version="1.0" encoding="UTF-8"?>
<svg width="200px" height="200px" viewBox="0 0 200 200" version="1.1" xmlns="http://www.w3.org/2000/svg" xmlns:xlink="http://www.w3.org/1999/xlink">
    <!-- Generator: Sketch 54.1 (76490) - https://sketchapp.com -->
    <title>tarleton-st</title>
    <desc>Created with Sketch.</desc>
    <defs>
        <polygon id="path-1" points="0 1.28584348 199.999558 1.28584348 199.999558 189.217391 0 189.217391"></polygon>
    </defs>
    <g id="tarleton-st" stroke="none" stroke-width="1" fill="none" fill-rule="evenodd">
        <g id="tarleton-st_BGL" transform="translate(0.000000, 0.000000)">
            <g id="tarleton-st" transform="translate(0.000000, 4.000000)">
                <g id="Group-3" transform="translate(0.000000, 1.498157)">
                    <mask id="mask-2" fill="white">
                        <use xlink:href="#path-1"></use>
                    </mask>
                    <g id="Clip-2"></g>
                    <path d="M199.168056,95.3241043 C197.951389,93.3484522 196.354167,89.8980174 195.898611,87.7693217 C195.604167,86.3808 195.273611,85.854887 194.804167,85.2121043 C194.495833,84.7835826 194.143056,84.3049739 193.626389,82.9693217 C192.565278,80.2395826 192.356944,77.6100174 192.3375,77.3540174 L191.826389,49.7449739 L191.818056,49.1940174 L191.3875,48.8517565 C191.329167,48.8044522 189.918056,47.6941913 187.498611,47.0208 C186.470833,46.7369739 185.559722,46.6980174 184.673611,46.6646261 C183.684722,46.6256696 182.751389,46.5894957 181.723611,46.174887 C179.893056,45.4402783 178.351389,45.2288 176.868056,45.022887 C176.406944,44.958887 175.934722,44.894887 175.448611,44.8169739 L174.8125,44.7140174 C172.768056,44.3745391 169.348611,43.8096696 167.281944,43.0694957 C165.8375,42.554713 164.723611,42.1901913 163.554167,42.1901913 C162.7125,42.1901913 161.859722,42.3794087 160.881944,42.7912348 C159.318056,43.4423652 157.984722,43.834713 157.315278,43.834713 C157.254167,43.834713 157.215278,43.8291478 157.198611,43.8263652 C156.976389,43.7261913 156.726389,43.6733217 156.448611,43.6733217 C156.048611,43.6733217 155.609722,43.7818435 155.145833,43.8931478 C154.684722,44.0072348 154.1625,44.1324522 153.7375,44.1324522 C153.315278,44.1324522 153.209722,44.0100174 153.1625,43.9571478 C152.229167,42.8886261 150.8625,42.7411478 149.526389,42.7411478 C149.170833,42.7411478 148.793056,42.7522783 148.398611,42.7634087 C147.973611,42.7773217 147.523611,42.7884522 147.054167,42.7884522 C146.373611,42.7884522 145.790278,42.7634087 145.226389,42.7049739 C144.798611,42.6632348 144.3625,42.6409739 143.923611,42.6409739 C142.656944,42.6409739 141.570833,42.8246261 140.693056,42.9721043 C140.076389,43.0778435 139.5375,43.1641043 139.1125,43.1641043 C138.854167,43.1641043 138.659722,43.1334957 138.501389,43.0639304 C137.879167,42.7856696 137.245833,42.6298435 136.6875,42.4962783 C135.681944,42.2514087 135.095833,42.0844522 134.693056,41.5501913 C133.690278,40.2089739 131.370833,38.8176696 129.234722,38.8176696 C128.606944,38.8176696 128.029167,38.9373217 127.509722,39.1738435 C127.429167,39.2100174 127.340278,39.226713 127.2375,39.226713 C126.665278,39.226713 125.804167,38.7314087 124.970833,38.2500174 C123.890278,37.626713 122.770833,36.9811478 121.554167,36.8893217 C120.4625,36.8030609 119.718056,36.0461913 118.854167,35.1724522 C118.406944,34.718887 117.943056,34.2458435 117.404167,33.8618435 C116.548611,33.246887 115.520833,33.0938435 114.101389,32.8851478 C113.973611,32.8656696 113.840278,32.8434087 113.704167,32.8239304 L113.704167,1.28584348 L54.5041667,1.28584348 L54.5041667,71.7832348 L-0.00138888889,71.7832348 L0.445833333,73.2830609 C0.531944444,73.5724522 2.57916667,80.4121043 5.81527778,84.6555826 C6.50694444,85.562713 8.02638889,88.5734957 9.03472222,90.5658435 C9.54583333,91.5759304 9.9875,92.446887 10.2652778,92.9477565 C10.7208333,93.7686261 12.0402778,95.1515826 14.1569444,97.338713 C15.9736111,99.2141913 18.0319444,101.340104 18.6819444,102.400278 C20.1069444,104.715409 21.6069444,106.259757 23.4097222,107.261496 C24.5458333,107.893148 26.4513889,110.992974 27.0958333,112.935235 C27.3902778,113.82567 27.8347222,114.507409 28.2263889,115.10567 C28.8458333,116.057322 29.2541667,116.680626 29.0930556,117.885496 C28.7763889,120.275757 31.4875,123.119583 34.7958333,126.319583 C35.4319444,126.937322 35.9791667,127.466017 36.3291667,127.8528 C38.0625,129.758887 41.1152778,132.324452 43.7236111,133.445843 C44.0819444,133.598887 44.4486111,133.75193 44.8152778,133.904974 C46.6902778,134.695235 48.8208333,135.588452 49.6763889,136.445496 C50.5875,137.358191 51.7402778,137.808974 52.7597222,138.206887 C53.2930556,138.415583 53.7958333,138.610365 54.1486111,138.830191 C54.4875,139.047235 54.8625,139.358887 55.2236111,139.653843 C56.1180556,140.38567 57.0402778,141.142539 58.1236111,141.142539 C58.6069444,141.142539 59.0736111,140.98393 59.4708333,140.677843 C59.5069444,140.655583 59.5375,140.636104 59.5736111,140.605496 C60.2319444,140.21593 60.8291667,139.798539 61.3763889,139.375583 C61.8708333,139.066713 62.3347222,138.799583 62.7708333,138.55193 C63.4902778,138.140104 64.1708333,137.758887 64.8097222,137.277496 C65.8125,136.523409 66.5430556,135.123757 67.1875,133.891061 C67.5430556,133.209322 67.9486111,132.435757 68.2319444,132.143583 C68.8930556,131.464626 69.4319444,130.407235 69.9986111,129.294191 C70.5597222,128.192278 71.2569444,126.826017 71.8625,126.425322 C72.4430556,126.04967 72.9291667,125.760278 73.4541667,125.760278 C73.9402778,125.760278 74.4625,126.019061 75.0486111,126.558887 C76.2263889,127.641322 76.6819444,127.84167 77.3180556,127.90567 C77.3791667,127.914017 77.5430556,127.933496 78.2513889,128.464974 C80.0902778,129.84793 83.1930556,133.657322 83.9680556,135.808278 C85.0458333,138.813496 89.0208333,143.2768 90.2152778,144.573496 C90.6819444,145.07993 91.1930556,145.603061 91.7319444,146.1568 C93.5180556,147.987757 95.5402778,150.063583 96.5180556,152.147757 C96.6902778,152.509496 96.8486111,152.851757 96.9958333,153.174539 C98.0652778,155.495235 98.7708333,157.022887 100.523611,158.2528 C100.670833,158.358539 100.809722,158.453148 100.940278,158.539409 C102.1375,159.363061 102.265278,159.446539 102.654167,161.925843 C102.923611,163.626017 103.570833,164.700104 104.093056,165.562713 C104.651389,166.483757 105.015278,167.090365 104.879167,168.278539 C104.5625,170.938713 106.923611,173.053496 108.334722,174.319583 C108.620833,174.575583 109.006944,174.926191 109.129167,175.07367 C109.731944,176.398191 112.931944,178.930365 114.454167,179.845843 C114.881944,180.104626 115.348611,180.399583 115.8375,180.708452 C117.323611,181.646191 119.004167,182.709148 120.623611,183.382539 C121.251389,183.646887 121.784722,183.833322 122.254167,184.000278 C123.2875,184.3648 123.856944,184.562365 124.509722,185.221843 C125.690278,186.404452 127.376389,187.111235 129.026389,187.111235 C129.784722,187.111235 130.520833,186.963757 131.2125,186.674365 C131.370833,186.607583 131.531944,186.576974 131.709722,186.576974 C132.543056,186.576974 133.554167,187.269843 134.370833,187.829148 C134.873611,188.171409 135.304167,188.463583 135.731944,188.647235 C136.520833,188.98393 137.468056,189.011757 138.451389,189.011757 L138.856944,189.008974 L139.276389,189.008974 C139.979167,189.008974 140.726389,189.022887 141.420833,189.139757 C141.720833,189.192626 142.045833,189.21767 142.379167,189.21767 C143.9625,189.21767 145.6375,188.658365 146.9875,188.210365 C147.4375,188.060104 147.8625,187.918191 148.190278,187.83193 C152.931944,186.576974 154.515278,184.395409 154.679167,184.153322 L155.040278,183.616278 L154.779167,183.023583 C154.773611,183.006887 154.0125,181.273322 153.390278,179.194713 C153.098611,178.237496 152.970833,177.447235 152.848611,176.6848 C152.681944,175.613496 152.518056,174.608974 151.973611,173.404104 C150.8375,170.908104 149.118056,165.582191 149.7375,163.845843 C150.081944,162.874713 150.326389,161.703235 150.584722,160.459409 C150.973611,158.570017 151.420833,156.424626 152.276389,154.986017 C153.720833,152.581843 156.773611,150.236104 157.343056,150.005148 C157.979167,149.746365 158.534722,149.045148 159.634722,147.612104 C160.304167,146.738365 161.551389,145.110539 162.045833,144.907409 C162.948611,144.682017 163.545833,144.133843 164.123611,143.602365 C164.693056,143.082017 165.331944,142.492104 166.529167,141.9328 C169.198611,140.680626 171.840278,138.248626 173.181944,136.910191 C175.954167,134.130365 178.370833,132.346713 179.023611,132.291061 C180.265278,132.291061 181.573611,131.23367 183.573611,129.486191 C184.401389,128.768278 185.334722,127.950191 185.804167,127.741496 C186.415278,127.4688 187.273611,126.965148 188.265278,126.372452 C189.559722,125.607235 191.723611,124.324452 192.465278,124.240974 C194.609722,124.004452 194.881944,123.203061 195.026389,121.294191 L195.068056,120.784974 C195.209722,119.054191 195.915278,118.063583 196.726389,116.91993 C197.498611,115.840278 197.320833,114.056626 197.1125,111.99193 C197.001389,110.867757 196.884722,109.710191 196.945833,108.786365 C197.034722,107.459061 197.643056,106.282017 198.234722,105.146713 C198.645833,104.356452 199.070833,103.538365 199.301389,102.68967 C199.804167,100.83367 200.645833,97.7310609 199.168056,95.3241043" id="Fill-1" fill="#5A2B81" mask="url(#mask-2)"></path>
                </g>
                <polygon id="Fill-4" fill="#FEFEFE" points="105.898333 9.74747826 111.653889 3.95130435 55.7177778 3.95130435 61.1816667 9.74747826"></polygon>
                <path d="M106.6875,10.6128696 L106.6875,40.4925217 C107.495833,41.0685217 109.168056,42.1481739 110.090278,42.2511304 C110.368056,42.2817391 110.693056,42.2928696 111.0375,42.3067826 C112.490278,42.3568696 114.481944,42.432 114.973611,44.0737391 C115.301389,45.170087 117.759722,46.0048696 119.945833,46.1746087 C120.804167,46.2386087 121.790278,46.578087 122.740278,46.9036522 C124.134722,47.3794783 125.623611,47.8302609 126.404167,47.4824348 C128.240278,46.6448696 130.504167,47.2236522 131.654167,48.7624348 C132.145833,49.4163478 132.895833,49.6 133.765278,49.8114783 C134.279167,49.9366957 134.8125,50.0674783 135.345833,50.3067826 C136.5875,50.8577391 139.776389,51.1777391 142.593056,51.4587826 L143.165278,51.5144348 C143.698611,51.5673043 144.245833,51.5923478 144.8875,51.5923478 C145.326389,51.5923478 145.743056,51.5812174 146.131944,51.570087 C146.493056,51.5589565 146.834722,51.5506087 147.154167,51.5506087 C148.190278,51.5506087 149.3625,51.6229565 150.129167,52.4994783 C150.254167,52.6413913 150.479167,52.8250435 151.023611,52.8250435 C151.470833,52.8250435 151.981944,52.7026087 152.434722,52.594087 C153.109722,52.429913 153.651389,52.3297391 154.026389,52.5161739 C154.031944,52.5217391 154.104167,52.5523478 154.309722,52.5523478 C154.998611,52.5523478 156.2625,52.1878261 157.770833,51.5561739 C158.245833,51.3613913 158.559722,51.1833043 158.815278,51.0413913 C159.201389,50.8243478 159.534722,50.6351304 160.031944,50.6351304 C160.434722,50.6351304 160.895833,50.752 161.798611,51.0775652 C162.745833,51.4114783 164.020833,51.456 165.020833,51.456 C165.493056,51.456 165.965278,51.4448696 166.420833,51.4337391 C166.8625,51.4253913 167.293056,51.4142609 167.698611,51.4142609 C168.431944,51.4142609 168.951389,51.4476522 169.381944,51.52 C171.5625,51.8845217 174.026389,52.4104348 175.656944,54.0382609 C176.790278,55.1763478 177.676389,55.2876522 179.0125,55.4601739 C179.334722,55.4991304 179.676389,55.5436522 180.040278,55.6048696 C180.3875,55.6605217 180.706944,55.7273043 181.0125,55.794087 C181.081944,55.8107826 181.154167,55.8274783 181.218056,55.8413913 C181.801389,55.9777391 182.301389,56.128 182.720833,56.2782609 C182.779167,56.2977391 182.829167,56.3172174 182.881944,56.3366957 C183.056944,56.4006957 183.223611,56.4674783 183.370833,56.5286957 C183.4375,56.5593043 183.493056,56.5843478 183.556944,56.6121739 C183.6375,56.6483478 183.715278,56.6845217 183.7875,56.717913 C183.865278,56.7568696 183.940278,56.7958261 184.004167,56.8292174 L190.156944,50.9245217 C190.026389,50.8438261 189.870833,50.7547826 189.698611,50.6573913 C189.648611,50.6323478 189.595833,50.6045217 189.540278,50.5766957 C189.404167,50.5043478 189.2625,50.4347826 189.104167,50.3596522 C189.029167,50.3234783 188.945833,50.2873043 188.865278,50.2511304 C188.701389,50.1787826 188.526389,50.1064348 188.343056,50.034087 C188.256944,50.0034783 188.173611,49.9673043 188.081944,49.9366957 C187.801389,49.8337391 187.504167,49.7363478 187.184722,49.6445217 C185.145833,49.0796522 183.4625,49.6333913 181.284722,48.7568696 C179.045833,47.858087 177.306944,47.8107826 175.256944,47.4685217 C173.206944,47.1262609 169.279167,46.528 166.890278,45.6709565 C165.4875,45.170087 164.523611,44.8556522 163.554167,44.8556522 C162.868056,44.8556522 162.181944,45.0114783 161.331944,45.3676522 C159.720833,46.0410435 158.215278,46.5001739 157.315278,46.5001739 C157.068056,46.5001739 156.865278,46.4667826 156.723611,46.3944348 C156.648611,46.3582609 156.556944,46.3443478 156.448611,46.3443478 C155.845833,46.3443478 154.7375,46.8006957 153.7375,46.8006957 C153.184722,46.8006957 152.665278,46.6615652 152.281944,46.2246957 C151.681944,45.5401739 150.743056,45.4121739 149.526389,45.4121739 C148.793056,45.4093913 147.965278,45.4566957 147.054167,45.4566957 C146.445833,45.4566957 145.793056,45.4372174 145.106944,45.3676522 C144.695833,45.325913 144.301389,45.3092174 143.923611,45.3092174 C141.8625,45.3092174 140.323611,45.8351304 139.1125,45.8351304 C138.718056,45.8351304 138.359722,45.7794783 138.029167,45.6292174 C136.490278,44.9474783 134.781944,45.1172174 133.7625,43.7509565 C132.940278,42.6601739 130.956944,41.485913 129.234722,41.485913 C128.798611,41.485913 128.376389,41.5638261 127.993056,41.7363478 C127.751389,41.8448696 127.495833,41.8949565 127.2375,41.8949565 C125.490278,41.8949565 123.398611,39.7022609 121.459722,39.552 C119.245833,39.3794783 118.179167,37.3509565 116.726389,36.3102609 C115.890278,35.7147826 114.629167,35.6813913 112.5375,35.3196522 L112.5375,4.72208696 L106.6875,10.6128696 Z" id="Fill-6" fill="#FEFEFE"></path>
                <polygon id="Fill-8" fill="#FEFEFE" points="54.8186111 74.4484174 1.63805556 74.4484174 11.7241667 80.0637217 61.1463889 80.0637217"></polygon>
                <path d="M198.1725,103.880626 C198.683611,101.9968 199.366944,99.3755826 198.1725,97.4361043 C196.975278,95.4938435 195.269722,91.9042783 194.758611,89.5084522 C194.244722,87.1154087 193.728056,87.9696696 192.536389,84.8893217 C191.339167,81.8117565 191.169722,78.9011478 191.169722,78.9011478 L190.6725,52.0489739 L190.6725,52.0489739 L184.764167,57.7199304 L185.233611,79.8806261 C185.236389,79.8834087 185.3975,82.4795826 186.4475,85.178713 C186.944722,86.4642783 187.305833,86.9568 187.589167,87.3491478 C187.939167,87.8277565 188.241944,88.2423652 188.511389,89.5084522 C188.9475,91.5397565 190.411389,94.7119304 191.575278,96.6013217 C192.8225,98.6270609 192.111389,101.245496 191.639167,102.979061 C191.441944,103.705322 191.083611,104.398191 190.705833,105.130017 C190.136389,106.223583 189.553056,107.347757 189.466944,108.672278 C189.405833,109.562713 189.516944,110.650713 189.6225,111.702539 C189.800278,113.491757 189.958611,115.044452 189.358611,115.879235 C188.603056,116.942191 187.886389,117.949496 187.739167,119.674713 C187.716944,119.939061 187.683611,120.167235 187.641944,120.378713 C187.628056,120.451061 187.605833,120.517843 187.589167,120.587409 C187.561389,120.709843 187.528056,120.832278 187.483611,120.938017 C187.461389,121.010365 187.430833,121.07993 187.400278,121.146713 C187.361389,121.224626 187.3225,121.302539 187.278056,121.372104 C187.236389,121.436104 187.200278,121.500104 187.158611,121.558539 C187.116944,121.608626 187.0725,121.653148 187.025278,121.69767 C186.811389,121.914713 186.555833,122.064974 186.261389,122.162365 C186.241944,122.170713 186.2225,122.176278 186.205833,122.184626 C186.089167,122.2208 185.966944,122.254191 185.839167,122.279235 L193.225278,124.410713 C193.305833,124.380104 193.369722,124.34393 193.430833,124.302191 C193.458611,124.282713 193.483611,124.25767 193.505833,124.235409 C193.539167,124.2048 193.569722,124.168626 193.594722,124.12967 C193.611389,124.101843 193.633611,124.074017 193.650278,124.037843 C193.675278,123.990539 193.694722,123.929322 193.711389,123.870887 C193.725278,123.818017 193.739167,123.765148 193.750278,123.709496 C193.766944,123.631583 193.780833,123.545322 193.794722,123.450713 C193.803056,123.38393 193.811389,123.311583 193.819722,123.236452 C193.825278,123.155757 193.833611,123.06393 193.839167,122.966539 C193.853056,122.810713 193.866944,122.632626 193.883611,122.443409 C193.889167,122.35993 193.8975,122.276452 193.903056,122.184626 C194.0725,120.131061 194.928056,118.931757 195.780833,117.735235 C196.633611,116.538713 195.611389,112.771061 195.780833,110.205496 C195.950278,107.642713 197.658611,105.76167 198.1725,103.880626" id="Fill-10" fill="#FEFEFE"></path>
                <path d="M186.575833,119.578991 C186.748056,117.530991 187.589722,116.3456 188.409167,115.20473 C188.750833,114.720557 188.598056,113.178991 188.459167,111.815513 C188.350833,110.719165 188.234167,109.581078 188.300833,108.593252 C188.403611,107.026643 189.073056,105.73273 189.6675,104.589078 C190.0175,103.915687 190.348056,103.275687 190.514722,102.669078 C190.931389,101.130296 191.561944,98.8096 190.578611,97.2151652 C189.553611,95.5456 187.878611,92.1285565 187.370278,89.7522087 C187.150833,88.7309913 186.961944,88.4694261 186.645278,88.0381217 C186.3175,87.5901217 185.914722,87.0308174 185.361944,85.6033391 C184.2425,82.7233391 184.075833,80.0409043 184.0675,79.9268174 L183.603611,57.9358609 C183.136944,57.6742957 181.939722,57.1038609 179.850833,56.7588174 C179.500833,56.7003826 179.173056,56.6586435 178.8675,56.6224696 C177.461944,56.4416 176.245278,56.2857739 174.828611,54.8666435 C173.445278,53.4809043 171.1925,53.0078609 169.1925,52.6739478 C168.831389,52.615513 168.353611,52.5849043 167.698056,52.5849043 C167.303611,52.5849043 166.881389,52.5960348 166.448056,52.6043826 C165.981389,52.615513 165.500833,52.6266435 165.020278,52.6266435 C163.928611,52.6266435 162.523056,52.5737739 161.406389,52.1758609 C160.673056,51.9142957 160.273056,51.8085565 160.031389,51.8085565 C159.848056,51.8085565 159.731389,51.8697739 159.384167,52.0645565 C159.1175,52.2120348 158.756389,52.4151652 158.223056,52.6349913 C157.253611,53.0412522 155.456389,53.7229913 154.309167,53.7229913 C153.984167,53.7229913 153.720278,53.6701217 153.506389,53.5643826 C153.3425,53.5782957 153.020278,53.6562087 152.709167,53.7285565 C152.1925,53.8565565 151.609167,53.9984696 151.023056,53.9984696 C150.270278,53.9984696 149.673056,53.7536 149.248056,53.2694261 C148.900833,52.8687304 148.331389,52.7212522 147.156389,52.7212522 C146.8425,52.7212522 146.514722,52.7323826 146.164722,52.7407304 C145.761944,52.7490783 145.334167,52.7629913 144.886944,52.7629913 C144.2175,52.7629913 143.614722,52.7379478 143.045278,52.679513 L142.475833,52.6238609 C139.431389,52.3177739 136.284167,52.0033391 134.873056,51.3744696 C134.434167,51.179687 133.953611,51.0600348 133.489722,50.9487304 C132.4925,50.7066435 131.461944,50.4534261 130.725833,49.4656 C129.900833,48.363687 128.223056,47.9351652 126.884167,48.5445565 C126.528611,48.7059478 126.114722,48.7894261 125.659167,48.7894261 C124.634167,48.7894261 123.478611,48.391513 122.361944,48.0102957 C121.439722,47.6958609 120.5675,47.3953391 119.856389,47.339687 C117.906389,47.1894261 114.450833,46.4019478 113.853611,44.4123826 C113.620278,43.6332522 112.473056,43.527513 110.995278,43.4746435 C110.620278,43.463513 110.264722,43.4468174 109.959167,43.4134261 C108.434167,43.243687 106.023056,41.4600348 105.753611,41.259687 L105.520278,41.0843826 L105.520278,10.9181217 L62.3202778,10.9181217 L62.3202778,81.2318609 L13.6286111,81.2318609 C14.0813889,82.3977739 15.0869444,84.6489043 16.5730556,86.2461217 C17.6952778,87.4509913 19.1341667,90.0527304 19.9925,91.6054261 L20.1341667,91.8614261 C20.4591667,92.4429913 22.1008333,93.9873391 23.6925,95.4788174 C25.7036111,97.3709913 27.7813889,99.3243826 28.4869444,100.476383 C29.7619444,102.546643 30.5869444,103.654122 31.8397222,104.352557 C33.3091667,105.170643 34.3452778,107.786296 35.2480556,110.488209 C35.4508333,111.100383 35.7675,111.587339 36.1008333,112.099339 C36.7313889,113.064904 37.3813889,114.061078 37.1536111,115.777948 C36.9202778,117.517078 39.5786111,120.319165 41.1619444,121.991513 C41.4619444,122.305948 41.7369444,122.595339 41.9647222,122.845774 C43.5147222,124.551513 46.0063889,126.674643 48.0897222,127.567861 L49.0869444,127.988035 C51.0425,128.808904 53.0619444,129.663165 54.0758333,130.676035 C55.3175,131.922643 56.6258333,132.668383 57.5091667,132.551513 C58.5313889,132.423513 61.4952778,130.400557 62.2175,128.669774 C62.4480556,128.116035 62.6647222,127.42873 62.8980556,126.705252 C63.4647222,124.916035 64.0508333,123.0656 65.0730556,122.300383 C65.3730556,122.072209 65.6758333,121.818991 65.9758333,121.560209 C66.9841667,120.70873 68.0286111,119.829426 69.1841667,119.829426 C69.4813889,119.829426 70.1063889,119.7376 70.8341667,119.629078 C72.0702778,119.448209 73.6119444,119.220035 74.9536111,119.220035 C76.1425,119.220035 76.9786111,119.403687 77.5147222,119.779339 C78.0758333,120.17447 78.4897222,120.216209 79.0091667,120.274643 C79.7591667,120.355339 80.6091667,120.447165 81.8063889,121.549078 C82.7175,122.386643 83.1786111,123.018296 83.5841667,123.5776 C84.0341667,124.198122 84.4230556,124.735165 85.3675,125.439165 C87.2480556,126.85273 91.6452778,131.597078 92.5036111,133.990122 C92.8425,134.930643 93.7008333,135.87673 93.7175,136.794991 C93.7397222,138.164035 94.6036111,139.346643 95.6008333,140.429078 C96.2286111,141.110817 96.2675,141.859339 97.2036111,142.655165 C99.0175,144.19673 100.231389,145.941426 101.106389,147.802991 C101.998056,149.697948 104.061944,150.927861 105.720278,151.912904 C106.2175,152.210643 106.686944,152.491687 107.0675,152.758817 L107.2425,152.881252 C108.811944,153.972035 109.031389,154.230817 109.503611,157.227687 C109.700833,158.46873 110.156389,159.231165 110.600833,159.965774 C111.161944,160.895165 111.7425,161.852383 111.5425,163.510817 C111.311944,165.483687 112.211944,167.192209 112.748056,168.216209 C112.8925,168.491687 113.006389,168.714296 113.073056,168.881252 C113.439722,169.791165 114.481389,171.722296 115.809167,172.520904 C116.359167,172.852035 117.053611,173.325078 117.784167,173.82873 C119.203611,174.805426 120.8175,175.915687 122.009167,176.410991 C123.911944,177.206817 124.920278,178.005426 126.114722,179.207513 C127.414722,180.506991 128.373056,180.737948 129.709167,180.175861 C130.381389,179.900383 131.020278,179.761252 131.661944,179.761252 C132.695278,179.761252 133.503611,180.114643 134.2175,180.423513 L134.398056,180.501426 C134.781389,180.662817 135.1675,180.888209 135.578611,181.12473 C136.395278,181.606122 137.323056,182.143165 138.495278,182.34073 C140.795278,182.721948 142.170278,182.719165 143.228611,182.362991 C144.459167,181.951165 145.256389,181.322296 145.600833,181.005078 C145.328611,179.808557 144.300833,175.501078 143.284167,173.976209 C142.489722,172.779687 142.420278,171.683339 142.361944,170.712209 C142.3175,170.019339 142.281389,169.365426 141.984167,168.70873 C141.109167,166.785948 141.325833,160.920209 142.120278,158.694122 C142.881389,156.557078 144.6175,152.725426 146.0925,150.262817 C147.578611,147.78073 150.650833,145.357078 151.550833,144.998122 C151.7675,144.875687 152.434167,143.985252 152.9175,143.339687 C154.206389,141.620035 155.114722,140.479165 155.973056,140.262122 C156.511944,140.125774 157.0675,139.750122 157.764722,139.274296 C158.484167,138.790122 159.375833,138.186296 160.573056,137.626991 C162.786944,136.591861 165.053611,134.502122 166.209167,133.347339 C167.625833,131.928209 171.095278,128.62247 172.736944,128.62247 C173.345278,128.62247 174.839722,127.320209 175.831389,126.4576 C176.798056,125.611687 177.636944,124.882643 178.300833,124.59047 C178.7675,124.378991 179.553611,123.917078 180.384167,123.424557 C180.675833,123.249252 180.953611,123.090643 181.2175,122.932035 C181.223056,122.929252 181.225833,122.92647 181.228611,122.923687 C181.253611,122.909774 181.275833,122.898643 181.298056,122.88473 L181.425833,122.812383 C181.525833,122.75673 181.614722,122.703861 181.703611,122.650991 C181.739722,122.634296 181.773056,122.614817 181.806389,122.595339 C181.884167,122.550817 181.961944,122.506296 182.034167,122.464557 C182.039722,122.461774 182.0425,122.458991 182.048056,122.456209 C182.048056,122.456209 182.050833,122.453426 182.053611,122.453426 C182.056389,122.450643 182.059167,122.450643 182.064722,122.447861 C182.0675,122.445078 182.070278,122.442296 182.073056,122.442296 C182.123056,122.41447 182.175833,122.386643 182.225833,122.358817 L182.231389,122.356035 C182.234167,122.353252 182.234167,122.353252 182.236944,122.353252 C182.239722,122.35047 182.2425,122.347687 182.245278,122.344904 C182.2425,122.347687 182.239722,122.35047 182.236944,122.35047 C182.323056,122.303165 182.400833,122.264209 182.484167,122.219687 C182.4175,122.255861 182.350833,122.289252 182.281389,122.325426 C182.489722,122.211339 182.6925,122.1056 182.881389,122.005426 C182.906389,121.994296 182.931389,121.980383 182.953611,121.96647 L182.950833,121.96647 C182.9675,121.958122 182.981389,121.955339 182.998056,121.946991 C183.2175,121.835687 183.431389,121.729948 183.628611,121.640904 C183.850833,121.543513 184.050833,121.471165 184.2425,121.404383 C184.286944,121.39047 184.328611,121.376557 184.373056,121.365426 C184.559167,121.304209 184.739722,121.259687 184.898056,121.242991 C186.153611,121.106643 186.450833,121.073252 186.575833,119.578991" id="Fill-12" fill="#FEFEFE"></path>
                <polygon id="Fill-14" fill="#5A2B81" points="40.5011111 26.5138087 40.5011111 74.4303304 78.3844444 74.4303304 78.3844444 63.7395478 90.1927778 63.7395478 90.1927778 131.137113 79.7233333 131.137113 79.7233333 168.788591 138.565 168.788591 138.565 131.053635 128.087222 131.053635 128.087222 63.7395478 139.99 63.7395478 139.99 74.533287 179.103889 74.533287 179.103889 26.5138087"></polygon>
                <polygon id="Fill-16" fill="#FEFEFE" points="130.879167 161.092452 87.4069444 161.092452 87.4069444 138.834365 97.8791667 138.834365 97.8791667 56.0406261 70.6958333 56.0406261 70.6958333 66.8315826 48.1847222 66.8315826 48.1847222 34.2138435 170.509722 34.2138435 177.001389 27.6858435 41.5347222 27.6858435 47.0180556 33.0534957 47.0180556 68.0030609 71.8652778 68.0030609 71.8652778 57.2121043 71.8652778 57.2093217 96.7097222 57.2093217 96.7097222 137.662887 91.3597222 132.303583 80.8902778 132.303583 86.2402778 137.662887 86.2402778 162.261148 132.048611 162.261148 137.395833 167.620452 137.395833 133.152278 130.879167 139.599583"></polygon>
                <polygon id="Fill-18" fill="#FEFEFE" points="127.816667 132.22567 121.230556 138.75367 129.861111 138.75367 136.455556 132.22567"></polygon>
                <polygon id="Fill-20" fill="#FEFEFE" points="171.4175 35.1713391 171.4175 66.8318609 147.673056 66.8318609 147.673056 56.0409043 120.403611 56.0409043 120.403611 137.718817 126.898056 131.293774 126.9175 63.5650783 121.570278 57.2096 146.506389 57.2096 146.506389 68.0033391 172.586944 68.0033391 177.936944 73.3626435 177.936944 28.6210783"></polygon>
                <polygon id="Fill-22" fill="#5A2B81" points="158.065556 180.407652 159.735 180.407652 159.735 185.455304 160.337778 185.455304 160.337778 180.407652 162.096111 180.407652 162.096111 179.801043 158.065556 179.801043"></polygon>
                <polygon id="Fill-24" fill="#5A2B81" points="166.770556 179.801878 165.323333 184.404313 163.876111 179.801878 162.903889 179.801878 162.903889 185.456139 163.509444 185.456139 163.509444 180.656139 165.020556 185.456139 165.626111 185.456139 167.137222 180.656139 167.137222 185.456139 167.742778 185.456139 167.742778 179.801878"></polygon>
            </g>
        </g>
    </g>
</svg>