<?xml version="1.0" encoding="UTF-8"?>
<svg width="200px" height="200px" viewBox="0 0 200 200" version="1.1" xmlns="http://www.w3.org/2000/svg" xmlns:xlink="http://www.w3.org/1999/xlink">
    <!-- Generator: Sketch 54.1 (76490) - https://sketchapp.com -->
    <title>tcu</title>
    <desc>Created with Sketch.</desc>
    <g id="tcu" stroke="none" stroke-width="1" fill="none" fill-rule="evenodd">
        <g id="tcu_BGL" transform="translate(0.000000, -0.000000)" fill="#393563">
            <g id="tcu" transform="translate(0.000000, 52.000000)">
                <g id="g10" transform="translate(99.999998, 48.450576) scale(-1, 1) rotate(-180.000000) translate(-99.999998, -48.450576) translate(0.076628, 0.098086)" fill-rule="nonzero">
                    <g id="g12" transform="translate(0.137931, 0.137931)">
                        <path d="M187.172409,11.1756472 C187.687352,11.1756472 188.144057,11.1363675 188.144057,10.5933944 C188.144057,10.0111875 187.347122,10.1088427 186.764746,10.1088427 L186.10421,10.1088427 L186.10421,11.1756472 L187.172409,11.1756472 Z M187.619919,9.4871875 C188.190034,9.50622198 188.763214,9.81765493 188.763214,10.6609806 C188.763214,11.5642909 188.064363,11.7969346 187.288884,11.7969346 L185.48352,11.7969346 L185.48352,7.50790786 L186.10421,7.50790786 L186.10421,9.4871875 L186.901145,9.4871875 L187.99693,7.50790786 L188.704976,7.50790786 L187.619919,9.4871875 Z M186.959382,5.86697303 C189.094248,5.86697303 190.781604,7.55537146 190.781604,9.6809193 C190.781604,11.8065744 189.094248,13.4948502 186.959382,13.4948502 C184.822984,13.4948502 183.135628,11.8065744 183.135628,9.6809193 C183.135628,7.55537146 184.822984,5.86697303 186.959382,5.86697303 Z M186.959382,12.8747583 C188.704976,12.8747583 190.162447,11.4856855 190.162447,9.6809193 C190.162447,7.88553237 188.704976,6.48844428 186.959382,6.48844428 C185.212256,6.48844428 183.756317,7.88553237 183.756317,9.6809193 C183.756317,11.4856855 185.212256,12.8747583 186.959382,12.8747583 L186.959382,12.8747583 Z" id="path14"></path>
                        <path d="M3.32727961,75.3212242 L3.32727961,49.1622976 L3.64990029,49.3158608 C5.29794623,50.0940984 9.8569806,52.1819144 16.5604594,54.7546346 L16.7080456,54.8084277 L16.7080456,65.8678911 L17.1609191,66.0317225 C20.1814554,67.1308795 22.8422983,68.0599217 25.293486,68.8718757 L26.1944821,69.171186 L26.1944821,24.1773174 L25.7636775,24.0039841 C22.9218385,22.8652868 20.3831413,21.7969343 18.0016854,20.742375 L17.8694248,20.6853635 L17.8694248,5.32124125 L18.1725666,5.46881212 C27.7396162,10.0572871 37.628045,14.0133483 47.5633705,17.2275858 L47.7244433,17.2777007 L47.7244433,31.5155548 L47.4415314,31.4301908 C45.0579299,30.7436008 42.6128725,29.9909571 40.1696542,29.1934092 L39.2700373,28.9023748 L39.2700373,73.0101131 L39.7851331,73.1420671 C42.9999989,73.9704196 45.625133,74.60291 48.0412249,75.1324119 L48.8760141,75.3120288 L48.8760141,64.5552474 L49.158926,64.6209946 C53.2924125,65.5622972 57.2301901,66.3468183 60.8648261,66.9449792 L61.0442897,66.9760903 L61.0442897,91.0665111 L60.782987,91.0323349 C29.52521,86.8531779 4.50891943,75.8476609 3.46102673,75.3814541 L3.32727961,75.3212242" id="path16"></path>
                        <path d="M109.465438,92.5687333 C105.877545,92.9373157 101.910036,93.1258214 97.6507255,93.1258214 C91.5518751,93.1258214 86.8688101,92.7454383 85.9908024,92.6695762 L85.8986952,92.6635992 L71.6947109,78.0358601 L71.6947109,37.1328726 L85.0226799,23.0101144 L85.1249021,23.018237 C85.6841358,23.0657465 90.7632161,23.4758615 97.3785416,23.4758615 C101.806434,23.4758615 105.867584,23.2931795 109.453331,22.9249036 L109.569039,22.9085052 L123.443215,37.1396159 L123.443215,48.0504203 L110.361836,49.5275083 L110.361836,43.0655928 L110.16199,42.8652863 C109.72199,42.4225277 105.021913,37.7351715 104.51494,37.2370872 L104.300381,37.0258995 L103.999691,37.0421447 C101.983139,37.1422213 99.8527178,37.1923362 97.6675838,37.1923362 C94.6591547,37.1923362 92.0806107,37.0950182 90.4484269,37.0163975 L90.1336376,37.0013784 L88.9342507,38.2605354 C87.6445955,39.6199224 85.5668944,41.8091944 85.2521051,42.1314932 L85.0579289,42.3317997 L85.0579289,72.5094235 L85.2508791,72.7106495 C85.4281971,72.8967032 86.3725649,73.8691169 87.4793848,75.0133315 C89.1967794,76.7858985 91.3129479,78.9710325 91.5803809,79.2547107 L91.7739441,79.45609 L92.0548636,79.4655919 C95.8695761,79.6039827 99.6252849,79.6039827 103.108963,79.4655919 L103.374863,79.45609 L103.563216,79.2703428 C103.999691,78.8390785 109.694403,73.1929484 110.164748,72.7207645 L110.361836,72.5189254 L110.361836,66.7025271 L123.443215,65.392642 L123.443215,78.0392318 L109.532564,92.5659747 L109.465438,92.5687333" id="path18"></path>
                        <path d="M171.141758,82.4413772 L170.847505,82.5264347 L170.847505,68.188504 C172.102678,67.7728719 175.448271,66.661301 175.560149,66.6237531 L176.022984,66.4663585 L176.022984,29.0243671 L175.790034,28.822528 C175.259766,28.3567809 170.591567,24.2977772 169.917237,23.7088117 L169.606126,23.4407657 L169.222984,23.5855933 C168.294249,23.9417619 159.106509,27.376551 158.60536,27.563371 L158.387736,27.644597 L158.263598,27.8462828 C157.923368,28.3946353 153.413023,35.9143286 153.184057,36.3177002 L153.09195,36.4773937 L153.09195,73.1708794 L153.952487,72.9468181 C154.557851,72.78973 157.97241,71.9265882 159.592333,71.5173928 L159.592333,85.5872776 L159.443674,85.6222201 C147.492104,88.5855917 137.592334,90.1339441 133.888732,90.6637525 L133.623292,90.7043655 L133.623292,76.8859751 L133.827736,76.8582356 C134.575782,76.7733314 136.264977,76.5245958 138.723675,76.0927184 L139.290878,75.9920288 L139.290878,33.5178536 L149.91218,15.9115705 L149.987429,15.8887352 C151.811797,15.3794632 161.379306,12.5768732 171.272026,7.60398448 L171.400762,7.53903429 L189.158616,22.8924132 L189.158616,61.2297303 L190.127198,60.7914161 C192.162447,59.8714161 194.088884,58.9402284 196.015321,57.9448261 L196.346355,57.7779296 L196.346355,72.7454388 L196.21762,72.8056687 C189.138693,76.328887 180.703444,79.5694999 171.141758,82.4413772" id="path20"></path>
                        <path d="M62.4183892,65.8144045 L61.0888874,65.5911095 C57.4827572,64.9960137 53.5713397,64.2205348 49.4649796,63.2822973 L47.5037536,62.8350942 L47.5037536,73.6052089 C45.4642134,73.1485039 43.248428,72.6131783 40.6435239,71.9458986 L40.6435239,30.7911103 C42.7999989,31.4830643 44.9535621,32.1422214 47.055631,32.7501908 L49.0959375,33.3541754 L49.0959375,16.2487352 L47.9675084,15.9183138 C38.1078918,12.7244441 28.2789265,8.79143273 18.7719536,4.23557078 L16.495785,3.11984667 L16.495785,21.5803826 L17.4452103,21.9987734 C19.7204593,23.0033711 22.138237,24.020076 24.8226814,25.1032944 L24.8226814,67.2662052 C22.7593864,66.5736382 20.5403826,65.7958604 18.0815321,64.9042129 L18.0815321,53.8452094 L17.0410724,53.470037 C10.3917086,50.9193857 5.86888874,48.8478149 4.23443668,48.0727957 L1.95371643,47.0013781 L1.95371643,76.2033697 L2.89475855,76.6311092 C3.95929492,77.1040594 29.1515702,88.1849786 60.6021441,92.3924881 L62.4183892,92.6317218 L62.4183892,65.8144045 Z M61.3888107,94.4519517 L60.3503433,94.3132543 C28.627892,90.0717219 3.18211486,78.879998 2.11458999,78.4075076 L1.55196931,78.1492701 L0.0152658042,77.4533314 L0.0152658042,75.762297 L0.0152658042,48.0815314 L0.0152658042,43.9485046 L3.75443669,45.7071253 L5.05860524,46.3190793 C6.67888106,47.0839835 11.14613,49.13088 17.7227582,51.6562439 L18.2870494,51.8576232 L20.0190033,52.4838301 L20.0190033,54.3264354 L20.0190033,63.5439065 C21.0098079,63.8999218 21.9635244,64.2370865 22.8842906,64.5552474 L22.8842906,26.4111871 C20.6524133,25.4973174 14.5596318,22.8395397 14.5596318,22.8395397 L14.5596318,0.0151460717 L18.335785,1.86344823 L19.6294248,2.49701143 C29.0303441,7.00292703 38.7676619,10.9022373 48.5503436,14.0702219 L49.1527957,14.2462832 L51.034788,14.7999843 L51.034788,35.952183 C51.034788,35.952183 43.9013016,33.8413785 42.5819146,33.4324896 L42.5819146,70.4373929 C43.6281981,70.7016074 44.6179299,70.944366 45.5650563,71.1678143 L45.5650563,63.6956306 L45.5650563,60.4012245 L48.7737919,61.1350176 L49.8960907,61.3932552 C53.9550944,62.3186191 57.8260522,63.0876613 61.4030636,63.6793854 L62.1659755,63.8052091 L64.3558605,64.1737915 L64.3558605,66.3941746 L64.3558605,91.8508789 L64.3558605,94.842603 L61.3888107,94.4519517 L61.3888107,94.4519517 Z" id="path22"></path>
                        <path d="M124.816702,63.8776996 L108.990342,65.4583892 L108.990342,71.9517223 C107.96199,72.9751706 103.786511,77.1161667 102.789423,78.1055919 C99.4967025,78.2277375 95.9717984,78.2246724 92.3819134,78.1055919 C91.7604575,77.4597682 89.9610705,75.6015307 88.4643656,74.058389 C87.5796147,73.1420671 86.798925,72.3365499 86.4314155,71.9581591 L86.4314155,42.8856694 C87.0590017,42.2343284 88.7987717,40.401225 89.9307257,39.2084281 L90.6948636,38.4013784 C92.3508023,38.4813783 94.8176222,38.565363 97.6675838,38.565363 C99.7661278,38.565363 101.817928,38.5178534 103.766894,38.4271255 C104.721377,39.3721063 108.077085,42.7190794 108.990342,43.6329491 L108.990342,51.0611481 L124.816702,49.2754011 L124.816702,36.5817615 L110.072028,21.4599228 L109.295629,21.5601527 C105.776089,21.9201527 101.759691,22.1057466 97.3785416,22.1057466 C90.8202276,22.1057466 85.7937143,21.6996163 85.2433695,21.6521067 L84.4804577,21.5857466 L70.319845,36.5885048 L70.319845,78.5932547 L85.2826032,94.0015302 L85.8898063,94.036013 C86.7590783,94.111875 91.4957832,94.4990015 97.6507255,94.4990015 C101.960151,94.4990015 105.971185,94.3101892 109.577315,93.9354766 L110.152028,93.9013003 L124.816702,78.5903429 L124.816702,63.8776996 Z M126.026664,80.1296532 L111.736702,95.0470474 L111.026664,95.7903424 L110.001683,95.8533309 L109.72199,95.8692696 C106.064518,96.2465876 102.004135,96.4358597 97.6519516,96.4358597 C91.4924115,96.4358597 86.7245955,96.0547102 85.7388484,95.9696528 L85.432335,95.9504957 L84.4162431,95.8911853 L83.7060515,95.1607639 L69.1250557,80.1428332 L68.3831401,79.3805344 L68.3831401,78.3164731 L68.3831401,36.8593094 L68.3831401,35.8168573 L69.1000749,35.0573171 L82.8422968,20.4959382 L83.7127948,19.5711873 L84.9767029,19.680919 L85.4111856,19.7189267 C85.9488101,19.7635244 90.9169326,20.16567 97.3845186,20.16567 C101.682603,20.16567 105.616396,19.9869727 109.078311,19.6334095 L109.478311,19.5806892 L110.781453,19.4101145 L126.754939,35.7911102 L126.754939,51.007355 L107.052871,53.2308033 L107.052871,50.292719 L107.052871,44.4386196 C105.977928,43.3649031 104.093944,41.4842902 103.004595,40.401225 C101.277852,40.4675852 99.4865876,40.502681 97.6594612,40.502681 C95.2439823,40.502681 93.1069709,40.4418381 91.4936376,40.3768572 C90.5763962,41.3394626 89.2219135,42.7705736 88.370266,43.6640602 L88.370266,71.1745576 C88.8223733,71.6399982 89.4297296,72.2698833 90.0829096,72.9411476 C91.217469,74.1124886 92.4530245,75.3875843 93.2280436,76.1908027 C94.7417601,76.2347874 96.242603,76.2565498 97.7054382,76.2565498 C99.1488098,76.2565498 100.577009,76.2347874 101.964135,76.1935613 C103.225438,74.9400748 105.762449,72.4272779 107.052871,71.1454388 L107.052871,66.0821439 L107.052871,63.7046727 L109.416702,63.4685042 L123.869116,62.0225272 L126.754939,61.7333318 L126.754939,64.6338681 L126.754939,78.3164731 L126.754939,79.3681206 L126.026664,80.1296532 L126.026664,80.1296532 Z" id="path24"></path>
                        <path d="M197.719535,55.557853 L195.391566,56.7198453 C193.788501,57.5511097 192.191566,58.3324123 190.531796,59.1006882 L190.531796,22.2668194 L171.604593,5.8981148 L170.654402,6.37595386 C160.876624,11.2947124 151.419766,14.0634632 149.621912,14.5672334 L149.020073,14.7336548 L137.917391,33.1400758 L137.917391,74.8395384 C135.797851,75.2052088 134.338847,75.4190019 133.656548,75.4976226 L132.251797,75.6867414 L132.251797,92.3013004 L134.090418,92.0211471 C137.80628,91.4885801 147.762908,89.9330246 159.759383,86.9573925 L160.963981,86.6859748 L160.963981,69.753868 L160.111873,69.9708795 C160.111873,69.9708795 156.292716,70.9342511 154.465897,71.3978526 L154.465897,36.8458228 C155.097314,35.7829876 158.573176,29.9840606 159.310341,28.7655165 C160.686586,28.2524131 167.483521,25.7085051 169.324134,25.015325 C170.449038,25.9927963 173.676624,28.7981602 174.651337,29.6470491 L174.651337,65.4807646 C173.379306,65.9026803 169.944823,67.0427569 169.944823,67.0427569 L169.472793,67.1967799 L169.472793,84.3563197 L171.527965,83.7578523 C181.172409,80.8634463 189.679689,77.5950938 196.821451,74.0398449 L197.719535,73.6052089 L197.719535,55.557853 Z M198.173175,75.5385422 L197.659765,75.7875843 C190.452103,79.377316 181.840608,82.687201 172.09195,85.6122584 L170.890417,85.9627565 L167.534095,86.9354768 L167.534095,83.4427565 L167.534095,67.6945577 L167.534095,65.7984658 L169.334862,65.20337 C170.361682,64.8602283 171.670494,64.4255923 172.712639,64.0824505 L172.712639,30.5298077 C171.69195,29.6416851 170.056701,28.221302 168.924134,27.2357081 C166.637544,28.0954782 162.435245,29.667279 160.622218,30.3457464 C159.616854,32.0163977 157.295015,35.8858229 156.403061,37.3819148 L156.403061,68.9074312 C157.969345,68.5097301 159.514172,68.1224504 159.63831,68.0910328 L162.902678,67.2662052 L162.902678,70.635707 L162.902678,86.1386952 L162.902678,88.2355533 L160.855168,88.6985418 L160.19923,88.8464346 C148.148196,91.8321816 138.114326,93.4030628 134.358464,93.9419134 L133.333023,94.099308 L130.311721,94.5592314 L130.311721,91.5042123 L130.311721,76.288274 L130.311721,73.9984656 L132.579614,73.6867415 L133.377008,73.5797683 L133.404748,73.573025 L133.431721,73.5705729 C133.904211,73.5172395 134.764748,73.3935614 135.980533,73.1989254 L135.980533,33.3296543 L135.980533,32.5986199 L136.358158,31.9716467 L147.21854,13.965992 L147.761529,13.0657315 L148.776241,12.7880763 L149.118923,12.6961223 C150.864671,12.204628 160.173176,9.47785417 169.783904,4.64427575 L170.329498,4.37350181 L171.894249,3.58560911 L173.218386,4.73239835 L191.561681,20.5947888 L192.470493,21.3786968 L192.470493,22.5822217 L192.470493,56.0269718 C193.146355,55.6931787 199.658233,52.4214546 199.658233,52.4214546 L199.658233,56.6663587 L199.658233,73.174251 L199.658233,74.8209943 L198.173175,75.5385422 L198.173175,75.5385422 Z" id="path26"></path>
                    </g>
                </g>
            </g>
        </g>
    </g>
</svg>