<?xml version="1.0" encoding="UTF-8"?>
<svg width="200px" height="200px" viewBox="0 0 200 200" version="1.1" xmlns="http://www.w3.org/2000/svg" xmlns:xlink="http://www.w3.org/1999/xlink">
    <!-- Generator: Sketch 54.1 (76490) - https://sketchapp.com -->
    <title>tex-am-commerce</title>
    <desc>Created with Sketch.</desc>
    <g id="tex-am-commerce" stroke="none" stroke-width="1" fill="none" fill-rule="evenodd">
        <g id="tex-am-commerce_BGL" transform="translate(0.000000, -0.000000)">
            <g id="tex-am-commerce">
                <g id="g10" transform="translate(99.999998, 100.422942) scale(-1, 1) rotate(-180.000000) translate(-99.999998, -100.422942) translate(0.000000, 0.243733)" fill-rule="nonzero">
                    <g id="g12" transform="translate(0.000000, 0.322581)">
                        <path d="M107.15842,159.532254 C97.2354814,159.53082 93.8154098,151.564512 93.5261625,144.202505 C93.2387073,136.839782 92.1598543,129.30143 88.238349,127.19462 C88.238349,127.19462 103.212184,127.838348 108.246592,137.928312 C108.440499,138.316842 108.642291,138.684943 108.846592,139.045875 C108.252685,139.086735 107.65627,139.11505 107.052685,139.11505 C104.035123,139.11505 101.135123,138.593545 98.4172018,137.643007 C102.479926,142.126161 107.870965,145.242649 113.917201,146.270606 C111.439065,146.897487 107.987811,147.164154 105.580284,146.792469 C110.664513,149.034763 116.375624,149.774548 122.110033,148.584584 C122.822219,148.436555 123.51756,148.252326 124.20394,148.052326 C123.290678,149.407882 116.178492,159.534046 107.15842,159.532254" id="path14" fill="#1D2953"></path>
                        <path d="M149.957702,123.002147 C149.957702,123.002147 149.957702,123.00394 149.959136,123.00394 C149.627595,123.56057 149.309315,124.118635 149.02186,124.676699 C147.785301,127.064513 146.807523,128.345517 146.141215,129.030104 C146.140498,129.028671 142.408599,129.605015 139.136556,129.050893 C134.80824,128.31756 132.591395,126.788527 132.591395,126.788527 C133.407165,126.913617 134.405015,126.83333 135.400713,126.66523 C135.282075,126.384585 135.145158,125.836556 135.550176,125.14695 C137.258778,122.562004 141.299638,121.304298 145.534405,122.322219 C147.673473,120.04695 153.064512,114.877058 158.913258,113.660212 C155.721501,115.280284 152.332613,119.03118 149.957702,123.002147" id="path16" fill="#1D2953"></path>
                        <path d="M169.094619,96.7476678 C170.895695,95.2641553 176.274906,94.3813596 176.461286,91.5551948 C176.461286,91.5551948 178.391035,92.7204278 180.276698,92.9473095 C179.340856,91.4587791 177.973831,89.3720408 176.598203,87.5853025 C175.841214,86.6017899 175.110748,86.078134 174.480999,85.8064495 C174.834404,86.9422917 175.123652,88.1480265 175.256626,89.3426501 C175.256626,89.3426501 171.323652,86.4200695 168.41039,85.5845857 C168.41039,85.5845857 153.618276,81.5652309 148.068455,82.3261628 C145.774548,82.6412166 143.372398,84.2376323 143.411108,84.2293886 C143.500355,84.2093169 144.19462,74.5974892 153.781358,76.7555536 C159.603939,78.0641558 170.763795,82.3530445 171.287092,82.5551951 C170.929745,80.7899621 170.09211,78.0103923 168.129745,75.2777759 C168.129745,75.2777759 171.7853,68.5752671 168.625444,61.1645146 C165.465229,53.7544789 158.346233,50.1953392 158.346233,50.1953392 C158.346233,50.1953392 160.475265,55.1451599 155.614691,60.5347655 C151.107165,64.9175611 144.857344,68.2283137 138.697488,70.8734749 L138.727954,70.8835108 C114.689961,80.534765 115.216485,95.5247288 115.216485,95.5247288 C113.045158,91.2003561 112.429029,87.4021484 112.787811,84.1060911 C104.754478,93.7917539 106.337632,107.792829 106.337632,107.792829 C105.108241,105.674549 90.8802845,77.7992812 121.418993,65.9164858 C126.562004,63.9154106 130.798921,61.8017906 134.287093,59.6469519 L134.286377,59.6451598 C140.411466,56.5487441 152.763795,44.5853035 138.682792,26.372795 C139.161287,28.0911104 139.418276,29.8588881 139.418276,31.6648379 C139.418276,43.7591387 128.224728,54.1688159 112.146951,58.8311813 C122.959137,53.6609306 129.914692,45.5956978 129.914692,36.530465 C129.914692,28.914372 125.002864,22.0021141 117.021861,16.9212182 C118.844083,20.9537271 119.862004,25.5603219 119.635122,30.8135835 C119.635122,30.8135835 115.689603,21.164874 95.6039403,16.318315 C98.0788506,23.4638345 98.1064492,34.2355547 84.4433671,45.2867372 C64.1448013,61.7032243 62.8569877,81.6286718 62.8569877,81.6286718 C58.6727584,63.1075253 61.8849447,46.8860203 65.8032242,35.7623647 C57.2075255,41.7154111 51.0781349,50.9788518 49.2659486,61.713977 C48.6842282,58.9903211 48.3706081,56.1673821 48.3706081,53.2691743 C48.3706081,44.0559129 51.4673822,35.5716479 56.6731169,28.7892107 C39.709318,42.4623645 28.8530459,63.40645 28.8530459,86.8913957 C28.8530459,108.637632 38.1616478,128.208241 53.0064503,141.843724 C37.2068091,132.58566 25.1208237,117.681717 19.5109314,99.9010728 C16.8999279,150.051968 59.2820774,168.538705 66.3103926,171.251609 C61.564873,171.254834 56.9114681,170.829386 52.3838697,170.016842 C65.6025073,178.733329 81.3770589,183.603221 98.2100334,183.148383 C108.221503,182.87849 118.116843,180.765587 126.893545,177.102146 C124.926162,179.456985 122.628312,181.594619 120.051968,183.459852 C139.965229,181.233687 155.358777,166.382433 155.358777,148.380641 C155.358777,148.078849 155.343007,147.780641 155.334405,147.481717 C150.386735,151.136914 138.589961,153.376699 138.589961,153.376699 C145.807882,149.679925 151.977774,144.416484 154.677774,141.948742 C154.675265,141.930104 154.671681,141.911824 154.667738,141.893545 C159.083867,137.737989 164.117917,131.855911 164.667021,125.274549 C164.893544,122.575266 166.572039,120.580642 166.572039,120.580642 L182.207164,100.739782 C178.324368,101.010033 172.175265,99.4881696 167.665946,101.625445 C167.665946,101.625445 167.293544,98.2318972 169.094619,96.7476678 Z M170.460211,170.495336 C151.600713,189.355909 126.52437,199.742289 99.8530441,199.742289 C73.1817186,199.742289 48.1053751,189.355909 29.2463434,170.495336 C10.38767,151.63548 0,126.56057 0,99.8892448 C0,73.2172025 10.38767,48.1426511 29.2463434,29.2820423 C48.1053751,10.4222578 73.1817186,0.0355622751 99.8530441,0.0355622751 C126.52437,0.0355622751 151.600713,10.4222578 170.460211,29.2820423 C189.31935,48.1426511 199.706447,73.2172025 199.706447,99.8892448 C199.706447,126.56057 189.31935,151.63548 170.460211,170.495336 L170.460211,170.495336 Z" id="path18" fill="#1D2953"></path>
                        <path d="M145.534047,122.322219 C141.299638,121.304298 137.258778,122.562004 135.550176,125.14695 C135.145158,125.836556 135.282075,126.384585 135.400713,126.66523 C134.405015,126.83333 133.407165,126.913617 132.591395,126.788527 C132.591395,126.788527 134.80824,128.31756 139.136197,129.050893 C142.408599,129.605015 146.140498,129.028671 146.141215,129.030104 C146.807523,128.345517 147.784943,127.064513 149.02186,124.676699 C149.309315,124.118635 149.627595,123.56057 149.959136,123.00394 C149.957702,123.00394 149.957702,123.002147 149.957702,123.002147 C152.332613,119.03118 155.72186,115.280284 158.913258,113.660212 C153.064512,114.877058 147.673473,120.04695 145.534047,122.322219 L145.534047,122.322219 Z M122.110033,148.584584 C116.375624,149.774548 110.664513,149.034763 105.580284,146.792469 C107.987811,147.164154 111.439065,146.897487 113.917201,146.270606 C107.870965,145.242649 102.479926,142.126161 98.4172018,137.643007 C101.134764,138.593545 104.035123,139.11505 107.052685,139.11505 C107.655911,139.11505 108.252685,139.086735 108.846592,139.045875 C108.642291,138.684943 108.440499,138.316842 108.246951,137.928312 C103.212184,127.838348 88.238349,127.19462 88.238349,127.19462 C92.1598543,129.30143 93.2390658,136.839782 93.5261625,144.202505 C93.8154098,151.564512 97.2354814,159.53082 107.15842,159.532254 C116.178133,159.534046 123.290678,149.407882 124.203581,148.052326 C123.51756,148.252326 122.822219,148.436555 122.110033,148.584584 L122.110033,148.584584 Z M182.207164,100.739782 L166.572039,120.580642 C166.572039,120.580642 164.893544,122.575266 164.667021,125.274549 C164.117917,131.855911 159.083867,137.737631 154.668096,141.893186 C154.671322,141.911824 154.675265,141.930104 154.677415,141.948742 C151.977774,144.416125 145.80824,149.679925 138.589961,153.376699 C138.589961,153.376699 150.386735,151.136914 155.334405,147.481717 C155.343007,147.780641 155.358777,148.078849 155.358777,148.380641 C155.358777,166.382433 139.965229,181.233687 120.051968,183.459852 C122.628312,181.594619 124.926162,179.456985 126.893545,177.102146 C118.116843,180.765587 108.221503,182.87849 98.2100334,183.148383 C81.3770589,183.603221 65.6028657,178.733329 52.3838697,170.016842 C56.9118265,170.829386 61.5645146,171.254834 66.3103926,171.251609 C59.2820774,168.538705 16.8999279,150.051968 19.5110748,99.9010728 C25.1208237,117.681359 37.2068091,132.58566 53.0064503,141.843724 C38.1616478,128.208241 28.8530459,108.637632 28.8530459,86.8913957 C28.8530459,63.40645 39.7096764,42.4623645 56.6731169,28.7892107 C51.4673822,35.5716479 48.3706081,44.0559129 48.3706081,53.2691743 C48.3706081,56.1673821 48.6842282,58.9903211 49.2655902,61.713977 C51.0781349,50.9788518 57.2075255,41.7154111 65.8032242,35.7623647 C61.8849447,46.8860203 58.6727584,63.1075253 62.8569877,81.6286718 C62.8569877,81.6286718 64.1448013,61.7032243 84.4433671,45.2867372 C98.1064492,34.2355547 98.0788506,23.4638345 95.6039403,16.318315 C115.689244,21.164874 119.635122,30.8135835 119.635122,30.8135835 C119.862004,25.5603219 118.844083,20.9537271 117.021861,16.9212182 C125.002864,22.0021141 129.914692,28.914372 129.914692,36.530465 C129.914692,45.5956978 122.959137,53.6609306 112.147309,58.8311813 C128.224728,54.1688159 139.418635,43.7591387 139.418635,31.6648379 C139.418635,29.8588881 139.161287,28.0911104 138.682792,26.372795 C152.763795,44.5853035 140.411466,56.5487441 134.286377,59.6451598 L134.287093,59.6469519 C130.798921,61.8017906 126.562004,63.9154106 121.418993,65.9164858 C90.8802845,77.7992812 105.108241,105.674549 106.33799,107.792829 C106.33799,107.792829 104.754478,93.7917539 112.787811,84.1060911 C112.429029,87.4021484 113.045158,91.2003561 115.216485,95.5247288 C115.216485,95.5247288 114.689961,80.534765 138.727954,70.8835108 L138.697488,70.8734749 C144.857344,68.2283137 151.107165,64.9175611 155.614691,60.5347655 C160.475265,55.1451599 158.346233,50.1953392 158.346233,50.1953392 C158.346233,50.1953392 165.465229,53.7544789 168.625085,61.1645146 C171.7853,68.5752671 168.129745,75.2777759 168.129745,75.2777759 C170.09211,78.0103923 170.929745,80.7899621 171.287092,82.5551951 C170.763795,82.3530445 159.604297,78.0641558 153.781358,76.7555536 C144.19462,74.5974892 143.500355,84.2093169 143.411108,84.2293886 C143.372398,84.2376323 145.774548,82.6412166 148.068455,82.3261628 C153.618276,81.5652309 168.41039,85.5845857 168.41039,85.5845857 C171.323293,86.4200695 175.256268,89.3426501 175.256268,89.3426501 C175.123652,88.1480265 174.834763,86.9422917 174.480999,85.8064495 C175.110748,86.0777756 175.841214,86.6017899 176.598203,87.5853025 C177.973472,89.3720408 179.340497,91.4587791 180.276698,92.9473095 C178.391035,92.7204278 176.461286,91.5551948 176.461286,91.5551948 C176.274906,94.3813596 170.896053,95.2641553 169.094261,96.7476678 C167.293544,98.2318972 167.665946,101.625445 167.665946,101.625445 C172.175265,99.4881696 178.324727,101.010033 182.207164,100.739782 L182.207164,100.739782 Z" id="path20" fill="#E8A311"></path>
                    </g>
                </g>
            </g>
        </g>
    </g>
</svg>