<?xml version="1.0" encoding="UTF-8"?>
<svg width="200px" height="200px" viewBox="0 0 200 200" version="1.1" xmlns="http://www.w3.org/2000/svg" xmlns:xlink="http://www.w3.org/1999/xlink">
    <!-- Generator: Sketch 54.1 (76490) - https://sketchapp.com -->
    <title>uc-san-diego</title>
    <desc>Created with Sketch.</desc>
    <g id="uc-san-diego" stroke="none" stroke-width="1" fill="none" fill-rule="evenodd">
        <g id="uc-san-diego_BGL">
            <g id="uc-san-diego">
                <g id="g10" transform="translate(99.770112, 99.981609) scale(-1, 1) rotate(-180.000000) translate(-99.770112, -99.981609) translate(0.000000, 0.671267)" fill-rule="nonzero">
                    <g id="g12">
                        <path d="M196.087351,75.6440441 L116.137009,80.7891474 C115.804135,80.810021 115.486894,80.6447796 115.31402,80.3613773 C115.142066,80.0772394 115.140227,79.7194463 115.311261,79.4335612 L125.375629,62.684964 L98.6317217,46.6152632 C94.4358597,51.9906194 89.729561,57.5477687 84.62786,63.1512628 L151.448272,127.7131 L164.419306,114.742986 C164.63264,114.528733 164.941605,114.437698 165.237697,114.500227 C165.533789,114.563675 165.777467,114.772411 165.886892,115.055629 L196.845972,195.6708 C197.099765,196.33103 196.34942,197.081374 195.689191,196.827581 L115.073101,165.868502 C114.791721,165.759076 114.582066,165.515398 114.519537,165.218387 C114.456089,164.923214 114.547124,164.614249 114.762296,164.399996 L127.731491,151.429881 L63.160918,84.6188485 C57.5707572,89.7058368 52.0165504,94.409193 46.633654,98.6142504 L62.7032628,125.357238 L79.4525957,115.29379 C79.7381129,115.122756 80.0955382,115.123675 80.3793083,115.295629 C80.6630784,115.468503 80.8283198,115.786664 80.8060669,116.118618 L75.6623429,196.068961 C75.6368717,196.458846 75.3599062,196.786202 74.9813315,196.880915 C74.5998142,196.972869 74.2040441,196.808271 74.0018372,196.471719 L40.0697001,140.000916 C40.0043208,139.891491 39.9705737,139.771951 39.9634013,139.648732 L9.59981585,89.1181587 C9.47448252,88.9076759 9.43926413,88.6536989 9.5061147,88.4173771 C9.57039057,88.1803196 9.73020665,87.9805955 9.94758596,87.865653 C18.6073559,83.2790784 30.7916314,74.170297 42.6662978,63.4152628 L1.69468502,21.0215167 L21.0222523,1.69396777 L63.4220674,42.6612403 C74.1814234,30.7851946 83.2945267,18.5958616 87.8846875,9.93103423 C87.9985265,9.71117217 88.1989863,9.55209172 88.4371472,9.48781585 C88.673469,9.42170091 88.9270782,9.45655149 89.1371932,9.58335608 L139.639537,39.9274473 C139.769192,39.9393093 139.898847,39.9798611 140.018387,40.0514013 L196.49011,73.9824349 C196.827581,74.1850096 196.992179,74.5811476 196.900225,74.9619292 C196.805512,75.3427108 196.478156,75.6192165 196.087351,75.6440441" id="path14" fill="#FBCB07"></path>
                        <path d="M79.1142049,116.008675 C79.1154049,116.007675 79.1154049,116.004675 79.1154049,116.003675 L79.1142049,116.008675 Z M165.612869,115.947066 L165.618869,115.942066 C165.616869,115.944066 165.613869,115.945066 165.612869,115.947066 Z M10.7352641,89.3677598 C10.7372641,89.3665598 10.7391641,89.3658598 10.7415641,89.3638598 C10.7391641,89.3658598 10.7372641,89.3665598 10.7352641,89.3677598 Z M116.027583,79.0981739 C116.029583,79.0981739 116.030583,79.0962739 116.032583,79.0962739 L116.027583,79.0981739 Z M195.976087,73.9540211 C195.976087,73.9540211 195.977087,73.9540211 195.979087,73.9540211 L195.976087,73.9540211 Z M139.483376,41.6157196 C139.482376,41.6157196 139.482376,41.6157196 139.481376,41.6146196 C139.482376,41.6157196 139.482376,41.6157196 139.483376,41.6157196 Z M88.2640081,11.0358434 C88.2625081,11.0346434 88.2609081,11.0346434 88.2593081,11.0326434 L88.2640081,11.0358434 Z M89.3757219,10.7366055 C89.3780219,10.7327055 89.3804219,10.7288055 89.3823219,10.7245055 C89.3804219,10.7288055 89.3780219,10.7327055 89.3757219,10.7366055 Z M4.07111714,21.0420225 L21.0423903,4.07075852 L62.2442283,43.8803667 C62.5739754,44.1986196 63.0218835,44.3943897 63.4780674,44.3548495 C63.9371018,44.3401368 64.3699294,44.1390334 64.6777915,43.7985276 C75.2068947,32.178482 84.2270324,20.1691949 88.9824346,11.4665744 L138.765974,41.3804128 C138.924134,41.4748495 139.097008,41.5438151 139.276318,41.5815162 L193.424363,74.1177913 L117.551261,78.9996302 L126.828503,63.5577915 C127.309422,62.7557685 127.050112,61.7147571 126.248273,61.2319985 L99.5052849,45.1623897 C98.7705722,44.7180678 97.8234458,44.8965506 97.2965493,45.5714931 C93.1301126,50.9084125 88.4457909,56.4403664 83.3742508,62.0100214 C82.7575152,62.6885502 82.7912623,63.7335156 83.449745,64.3714007 L150.27218,128.932411 C150.936088,129.576089 151.99172,129.566893 152.647353,128.912181 L164.746663,116.812871 L194.619765,194.601374 L116.831261,164.727352 L128.929652,152.628962 C129.583445,151.975169 129.591721,150.917697 128.948962,150.25287 L64.3793087,83.4399979 C63.7406881,82.7827106 62.6979295,82.7474922 62.0197686,83.3645956 C56.4648262,88.4213311 50.9371022,93.1025264 45.5901598,97.279078 C44.9159529,97.805055 44.7399529,98.753101 45.1810563,99.4868941 L61.2507571,126.230801 C61.4812858,126.616089 61.8566421,126.89379 62.2931479,127.002296 C62.7295617,127.111721 63.1903432,127.042755 63.5761823,126.810112 L79.0165497,117.532871 L74.1354464,193.403214 L41.6195852,139.290111 C41.5807806,139.108962 41.5118151,138.936088 41.415907,138.776088 L11.4845974,88.9636759 C20.1878616,84.2068944 32.1867578,75.1935613 43.8045966,64.6713547 C44.1439989,64.3631248 44.3451943,63.9299294 44.3606426,63.4723662 C44.375723,63.0125961 44.2040449,62.5682743 43.8850564,62.2363203 L4.07111714,21.0420225 Z M21.0215167,0 C20.5876776,0 20.1537466,0.16451126 19.8239995,0.496408263 L0.496766884,19.8232639 C-0.157327812,20.4773328 -0.166666663,21.5348041 0.476293321,22.2004592 L40.2274013,63.3304812 C28.8843211,73.4694235 17.355218,82.0248255 9.15481356,86.3689174 C8.52981128,86.6960898 8.05998141,87.2809174 7.87105268,87.9698369 C7.68390785,88.6400897 7.78268486,89.3764575 8.1426021,89.983446 L38.3574243,140.266663 C38.4162749,140.479077 38.5025278,140.682295 38.6142519,140.869882 L72.5496074,197.344363 C73.1371936,198.319995 74.2733775,198.793558 75.3785728,198.528731 C76.492136,198.25011 77.2805498,197.306662 77.3534693,196.177466 L82.4974692,116.226204 C82.5621129,115.266204 82.0879979,114.352181 81.2600439,113.848273 C80.4386187,113.346204 79.4116762,113.343445 78.5826187,113.839078 L63.2826651,123.032641 L48.8566425,99.0225263 C53.5072171,95.3443654 58.2816537,91.3020667 63.0822973,86.9766415 L125.35448,151.410571 L113.564135,163.201835 C112.941606,163.822525 112.679537,164.707122 112.859767,165.566892 C113.044595,166.43218 113.645055,167.133789 114.464365,167.449191 L195.082294,198.41011 C196.001834,198.763213 197.074938,198.524133 197.808731,197.79034 C198.540685,197.058386 198.784363,195.987122 198.426662,195.062064 L167.469421,114.447813 C167.148502,113.623905 166.447812,113.027124 165.59172,112.844135 C164.722755,112.661147 163.836318,112.925055 163.216548,113.550342 L151.428042,125.337928 L86.9849174,63.0732858 C91.3229402,58.2593089 95.369193,53.4823895 99.0409171,48.837608 L123.050112,63.2654697 L113.859307,78.5611015 C113.361836,79.3875842 113.364595,80.4148945 113.865744,81.2413773 C114.366894,82.0700669 115.306664,82.5452853 116.251032,82.4791704 L196.195857,77.3351705 L196.195857,77.3351705 C197.327811,77.2625268 198.272179,76.4733774 198.546202,75.3692855 C198.816547,74.2575614 198.340225,73.1181591 197.365512,72.53232 L140.891031,38.5995393 C140.696088,38.4827577 140.486433,38.3936542 140.270341,38.330114 L90.0096529,8.12967336 C89.4080897,7.76472624 88.6659288,7.66056073 87.9791242,7.85668026 C87.2973771,8.04130555 86.7094231,8.51400438 86.3800438,9.15121816 C82.039906,17.3444593 73.480274,28.8771487 63.3365501,40.2227116 L22.1993558,0.474497459 C21.8703443,0.159123674 21.4461604,0 21.0215167,0 L21.0215167,0 Z" id="path16" fill="#FFFFFF"></path>
                        <polygon id="path18" fill="#FFFFFF" points="184.553559 177.504363 158.216088 129.774709 163.160456 124.830342"></polygon>
                        <polygon id="path20" fill="#FFFFFF" points="175.972409 67.3333316 88.4870782 23.9705741 91.7485954 18.5434478"></polygon>
                        <polygon id="path22" fill="#FFFFFF" points="72.9051936 167.701145 74.970205 123.825284 69.6253776 127.037238"></polygon>
                        <path d="M196.087351,75.6440441 L116.137009,80.7891474 C115.804135,80.810021 115.486894,80.6447796 115.31402,80.3613773 C115.142066,80.0772394 115.140227,79.7194463 115.311261,79.4335612 L125.375629,62.684964 L98.6317217,46.6152632 C94.4358597,51.9906194 89.729561,57.5477687 84.62786,63.1512628 L151.448272,127.7131 L164.419306,114.742986 C164.63264,114.528733 164.941605,114.437698 165.237697,114.500227 C165.533789,114.563675 165.777467,114.772411 165.886892,115.055629 L196.845972,195.6708 C197.099765,196.33103 196.34942,197.081374 195.689191,196.827581 L115.073101,165.868502 C114.791721,165.759076 114.582066,165.515398 114.519537,165.218387 C114.456089,164.923214 114.547124,164.614249 114.762296,164.399996 L127.731491,151.429881 L63.160918,84.6188485 C57.5707572,89.7058368 52.0165504,94.409193 46.633654,98.6142504 L62.7032628,125.357238 L79.4525957,115.29379 C79.7381129,115.122756 80.0955382,115.123675 80.3793083,115.295629 C80.6630784,115.468503 80.8283198,115.786664 80.8060669,116.118618 L75.6623429,196.068961 C75.6368717,196.458846 75.3599062,196.786202 74.9813315,196.880915 C74.5998142,196.972869 74.2040441,196.808271 74.0018372,196.471719 L40.0697001,140.000916 C40.0043208,139.891491 39.9705737,139.771951 39.9634013,139.648732 L9.59981585,89.1181587 C9.47448252,88.9076759 9.43926413,88.6536989 9.5061147,88.4173771 C9.57039057,88.1803196 9.73020665,87.9805955 9.94758596,87.865653 C18.6073559,83.2790784 30.7916314,74.170297 42.6662978,63.4152628 L1.69468502,21.0215167 L21.0222523,1.69396777 L63.4220674,42.6612403 C74.1814234,30.7851946 83.2945267,18.5958616 87.8846875,9.93103423 C87.9985265,9.71117217 88.1989863,9.55209172 88.4371472,9.48781585 C88.673469,9.42170091 88.9270782,9.45655149 89.1371932,9.58335608 L139.639537,39.9274473 C139.769192,39.9393093 139.898847,39.9798611 140.018387,40.0514013 L196.49011,73.9824349 C196.827581,74.1850096 196.992179,74.5811476 196.900225,74.9619292 C196.805512,75.3427108 196.478156,75.6192165 196.087351,75.6440441" id="path24" fill="#192847"></path>
                        <path d="M79.1142049,116.008675 C79.1154049,116.007675 79.1154049,116.004675 79.1154049,116.003675 L79.1142049,116.008675 Z M165.612869,115.947066 L165.618869,115.942066 C165.616869,115.944066 165.613869,115.945066 165.612869,115.947066 Z M10.7352641,89.3677598 C10.7372641,89.3665598 10.7391641,89.3658598 10.7415641,89.3638598 C10.7391641,89.3658598 10.7372641,89.3665598 10.7352641,89.3677598 Z M116.027583,79.0981739 C116.029583,79.0981739 116.030583,79.0962739 116.032583,79.0962739 L116.027583,79.0981739 Z M195.976087,73.9540211 C195.976087,73.9540211 195.977087,73.9540211 195.979087,73.9540211 L195.976087,73.9540211 Z M139.483376,41.6157196 C139.482376,41.6157196 139.482376,41.6157196 139.481376,41.6146196 C139.482376,41.6157196 139.482376,41.6157196 139.483376,41.6157196 Z M88.2640081,11.0358434 C88.2625081,11.0346434 88.2609081,11.0346434 88.2593081,11.0326434 L88.2640081,11.0358434 Z M89.3757219,10.7366055 C89.3780219,10.7327055 89.3804219,10.7288055 89.3823219,10.7245055 C89.3804219,10.7288055 89.3780219,10.7327055 89.3757219,10.7366055 Z M4.07111714,21.0420225 L21.0423903,4.07075852 L62.2442283,43.8803667 C62.5739754,44.1986196 63.0218835,44.3943897 63.4780674,44.3548495 C63.9371018,44.3401368 64.3699294,44.1390334 64.6777915,43.7985276 C75.2068947,32.178482 84.2270324,20.1691949 88.9824346,11.4665744 L138.765974,41.3804128 C138.924134,41.4748495 139.097008,41.5438151 139.276318,41.5815162 L193.424363,74.1177913 L117.551261,78.9996302 L126.828503,63.5577915 C127.309422,62.7557685 127.050112,61.7147571 126.248273,61.2319985 L99.5052849,45.1623897 C98.7705722,44.7180678 97.8234458,44.8965506 97.2965493,45.5714931 C93.1301126,50.9084125 88.4457909,56.4403664 83.3742508,62.0100214 C82.7575152,62.6885502 82.7912623,63.7335156 83.449745,64.3714007 L150.27218,128.932411 C150.936088,129.576089 151.99172,129.566893 152.647353,128.912181 L164.746663,116.812871 L194.619765,194.601374 L116.831261,164.727352 L128.929652,152.628962 C129.583445,151.975169 129.591721,150.917697 128.948962,150.25287 L64.3793087,83.4399979 C63.7406881,82.7827106 62.6979295,82.7474922 62.0197686,83.3645956 C56.4648262,88.4213311 50.9371022,93.1025264 45.5901598,97.279078 C44.9159529,97.805055 44.7399529,98.753101 45.1810563,99.4868941 L61.2507571,126.230801 C61.4812858,126.616089 61.8566421,126.89379 62.2931479,127.002296 C62.7295617,127.111721 63.1903432,127.042755 63.5761823,126.810112 L79.0165497,117.532871 L74.1354464,193.403214 L41.6195852,139.290111 C41.5807806,139.108962 41.5118151,138.936088 41.415907,138.776088 L11.4845974,88.9636759 C20.1878616,84.2068944 32.1867578,75.1935613 43.8045966,64.6713547 C44.1439989,64.3631248 44.3451943,63.9299294 44.3606426,63.4723662 C44.375723,63.0125961 44.2040449,62.5682743 43.8850564,62.2363203 L4.07111714,21.0420225 Z M21.0215167,0 C20.5876776,0 20.1537466,0.16451126 19.8239995,0.496408263 L0.496766884,19.8232639 C-0.157327812,20.4773328 -0.166666663,21.5348041 0.476293321,22.2004592 L40.2274013,63.3304812 C28.8843211,73.4694235 17.355218,82.0248255 9.15481356,86.3689174 C8.52981128,86.6960898 8.05998141,87.2809174 7.87105268,87.9698369 C7.68390785,88.6400897 7.78268486,89.3764575 8.1426021,89.983446 L38.3574243,140.266663 C38.4162749,140.479077 38.5025278,140.682295 38.6142519,140.869882 L72.5496074,197.344363 C73.1371936,198.319995 74.2733775,198.793558 75.3785728,198.528731 C76.492136,198.25011 77.2805498,197.306662 77.3534693,196.177466 L82.4974692,116.226204 C82.5621129,115.266204 82.0879979,114.352181 81.2600439,113.848273 C80.4386187,113.346204 79.4116762,113.343445 78.5826187,113.839078 L63.2826651,123.032641 L48.8566425,99.0225263 C53.5072171,95.3443654 58.2816537,91.3020667 63.0822973,86.9766415 L125.35448,151.410571 L113.564135,163.201835 C112.941606,163.822525 112.679537,164.707122 112.859767,165.566892 C113.044595,166.43218 113.645055,167.133789 114.464365,167.449191 L195.082294,198.41011 C196.001834,198.763213 197.074938,198.524133 197.808731,197.79034 C198.540685,197.058386 198.784363,195.987122 198.426662,195.062064 L167.469421,114.447813 C167.148502,113.623905 166.447812,113.027124 165.59172,112.844135 C164.722755,112.661147 163.836318,112.925055 163.216548,113.550342 L151.428042,125.337928 L86.9849174,63.0732858 C91.3229402,58.2593089 95.369193,53.4823895 99.0409171,48.837608 L123.050112,63.2654697 L113.859307,78.5611015 C113.361836,79.3875842 113.364595,80.4148945 113.865744,81.2413773 C114.366894,82.0700669 115.306664,82.5452853 116.251032,82.4791704 L196.195857,77.3351705 L196.195857,77.3351705 C197.327811,77.2625268 198.272179,76.4733774 198.546202,75.3692855 C198.816547,74.2575614 198.340225,73.1181591 197.365512,72.53232 L140.891031,38.5995393 C140.696088,38.4827577 140.486433,38.3936542 140.270341,38.330114 L90.0096529,8.12967336 C89.4080897,7.76472624 88.6659288,7.66056073 87.9791242,7.85668026 C87.2973771,8.04130555 86.7094231,8.51400438 86.3800438,9.15121816 C82.039906,17.3444593 73.480274,28.8771487 63.3365501,40.2227116 L22.1993558,0.474497459 C21.8703443,0.159123674 21.4461604,0 21.0215167,0 L21.0215167,0 Z" id="path26" fill="#FBCB07"></path>
                        <polygon id="path28" fill="#FBCB07" points="184.553559 177.504363 158.216088 129.774709 163.160456 124.830342"></polygon>
                        <polygon id="path30" fill="#FBCB07" points="175.972409 67.3333316 88.4870782 23.9705741 91.7485954 18.5434478"></polygon>
                        <polygon id="path32" fill="#FBCB07" points="72.9051936 167.701145 74.970205 123.825284 69.6253776 127.037238"></polygon>
                    </g>
                </g>
            </g>
        </g>
    </g>
</svg>