<svg width="200" height="201" viewBox="0 0 200 201" fill="none" xmlns="http://www.w3.org/2000/svg">
<g clip-path="url(#clip0_5_234790)">
<path d="M186.684 155.007C186.684 155.007 186.684 154.998 186.684 154.995C186.677 154.968 186.665 154.943 186.659 154.916L186.687 155.01L186.684 155.007Z" fill="#1F5C48"/>
<path d="M185.451 155.591C185.451 155.591 185.451 155.585 185.451 155.582C185.445 155.564 185.439 155.546 185.436 155.527L185.454 155.591H185.451Z" fill="#1F5C48"/>
<path d="M119.195 110.852C119.195 110.852 119.195 110.846 119.195 110.843C119.189 110.824 119.183 110.806 119.18 110.788L119.198 110.852H119.195Z" fill="#1F5C48"/>
<path d="M185.39 83.3569H180.759C175.152 83.3569 171.981 84.4157 170.53 85.082L185.429 32H128.83L116.45 76.1098H103.906C103.906 76.1098 101.862 83.4026 101.332 85.2889H98.1072C97.7482 85.079 97.1914 84.8112 96.4643 84.5466L111.205 32H54.6059L42.2261 76.1098H8.95665L0.571592 105.984C-1.67375 113.979 2.63135 119.763 14.6339 119.763H24.0017C26.4965 119.763 28.5167 119.526 30.1292 119.212L25.5047 135.691C22.5535 146.205 27.896 169.255 82.9739 169.255C146.197 169.255 155.175 139.792 155.525 138.541L161.178 118.397H163.663C163.663 118.397 164.047 117.034 164.05 117.025C165.851 117.95 168.826 118.835 173.755 118.835H178.386C188.463 118.835 194.365 115.257 196.428 107.901C196.428 107.901 199.446 97.1363 199.449 97.1363C201.323 90.452 198.786 83.3569 185.387 83.3569M130.147 33.7403H183.135L171.245 76.1098H152.017C152.017 76.1098 149.972 83.4026 149.443 85.2889H147.143C145.987 84.6317 143.026 83.3569 137.282 83.3569H132.651C127.078 83.3569 123.877 84.4249 122.423 85.0881C123.156 82.4685 124.942 76.1098 124.942 76.1098H118.261L130.147 33.7403ZM55.9233 33.7403H108.911L94.7939 84.0445C93.8417 83.8133 92.6642 83.6216 91.2829 83.4999C90.358 83.4178 89.3631 83.36 88.2283 83.36H84.5408C78.4589 83.36 74.7471 84.8204 72.8273 85.8852C71.7746 84.72 69.9521 83.36 67.0435 83.36H49.1934C49.7927 81.2242 51.2288 76.1128 51.2288 76.1128H44.0333L55.9233 33.7403ZM153.854 138.07C153.517 139.272 144.879 167.515 82.98 167.515C25.0513 167.515 25.4377 142.387 27.1811 136.165L30.2722 125.145H49.8688C49.8688 125.145 51.1132 120.719 51.6425 118.835H55.2935C60.7639 118.835 64.0376 117.028 65.7687 115.61C67.4299 117.092 70.804 118.835 77.5401 118.835H82.1707C83.1991 118.835 84.1605 118.79 85.0672 118.71L82.9253 126.341C82.548 127.68 83.0348 128.194 84.0844 128.194H99.9783C101.892 128.194 104.14 126.399 104.694 124.433L106.389 118.394H116.097C116.767 118.613 117.658 118.832 118.823 118.832H123.205C124.495 118.832 125.791 118.674 127.056 118.394H145.378C145.378 118.394 145.777 116.976 145.78 116.961C146.866 117.752 148.354 118.394 150.386 118.394H159.377L153.854 138.07ZM86.9322 118.491C91.3012 117.822 94.082 116.298 95.7462 114.986C96.8659 116.745 98.8982 118.394 102.275 118.394H104.582L103.021 123.962C102.68 125.173 101.119 126.451 99.9814 126.451H84.7021L86.9352 118.491H86.9322ZM197.779 96.6647L194.757 107.429C193.13 113.234 188.624 117.095 178.392 117.095H173.761C164.972 117.095 163.061 114.132 163.061 114.132L162.352 116.654H150.389C146.315 116.654 144.98 113.386 144.98 113.386L144.064 116.654H126.926C125.809 116.922 124.565 117.095 123.208 117.095H118.826C117.661 117.095 116.767 116.824 116.322 116.654H102.278C97.0606 116.654 96.3669 111.895 96.3669 111.895C96.3669 111.895 93.2666 117.095 82.1707 117.095H77.5401C67.3782 117.095 65.8965 113.009 65.8965 113.009C65.8965 113.009 63.2465 117.095 55.2935 117.095H53.3159C52.2571 117.095 51.2896 116.955 50.4256 116.727L48.5514 123.405H32.049L34.0814 116.155C34.0814 116.155 30.9568 118.02 24.0047 118.02H14.6369C2.33927 118.02 0.684164 112.023 2.24799 106.449L10.2771 77.844H48.9378L46.9024 85.0942H67.0466C70.9653 85.0942 72.3983 88.2401 72.3983 88.2401C72.3983 88.2401 75.7815 85.0942 84.5439 85.0942H88.2313C95.3081 85.0942 97.5991 87.0231 97.5991 87.0231H102.65L105.224 77.844H122.645L120.068 87.0231H122.45C122.45 87.0231 125.359 85.0942 132.651 85.0942H137.282C144.176 85.0942 146.653 87.0231 146.653 87.0231H150.76L153.337 77.844H170.755L168.178 87.0231H170.561C170.561 87.0231 173.375 85.0942 180.762 85.0942H185.393C196.829 85.0942 199.549 90.3485 197.779 96.6617" fill="white"/>
<path d="M88.2256 88.6234H84.5381C76.2412 88.6234 72.858 91.1182 71.565 95.7124C70.4758 99.5915 72.7759 100.535 72.7759 100.535L83.6071 104.958C84.0878 105.156 84.3525 105.786 84.1912 106.355L83.6527 108.269C83.4915 108.841 82.8921 109.309 82.3201 109.309H79.7705C79.1985 109.309 78.8639 108.841 79.0251 108.269L80.0413 104.648H69.061L68.5468 106.477C67.2599 111.068 69.2436 113.566 77.5404 113.566H82.171C90.4648 113.566 93.8541 111.068 95.1441 106.477C96.3064 102.333 93.7598 101.289 93.7598 101.289L83.1781 96.9628C82.6974 96.7651 82.4327 96.1383 82.5939 95.5663L83.0594 93.9173C83.2176 93.3453 83.817 92.8768 84.392 92.8768H85.9985C86.5704 92.8768 86.9082 93.3453 86.7469 93.9173L85.9559 96.7316H96.9392L97.2252 95.7093C98.5152 91.1182 96.5285 88.6204 88.2316 88.6204" fill="white"/>
<path d="M137.282 88.6234H132.652C124.358 88.6234 120.969 91.1182 119.679 95.7124L118.93 98.3806H129.913L131.164 93.9204C131.322 93.3484 131.922 92.8798 132.494 92.8798H135.046C135.618 92.8798 135.956 93.3484 135.795 93.9204L134.708 97.7813L121.096 101.347C119.317 101.813 117.467 103.598 116.983 105.311L115.833 109.41C115.191 111.694 116.539 113.569 118.821 113.569H123.202C124.413 113.569 125.511 113.392 126.476 113.127H141.384L146.27 95.7124C147.56 91.1213 145.573 88.6234 137.279 88.6234M131.766 108.269C131.608 108.844 131.009 109.309 130.437 109.309H127.884C127.315 109.309 126.974 108.841 127.139 108.269L128.103 104.828C128.264 104.256 128.867 103.559 129.442 103.279L133.747 101.21L131.766 108.266V108.269Z" fill="white"/>
<path d="M185.39 88.6234H180.759C172.465 88.6234 169.079 91.1182 167.786 95.7124L164.765 106.477C163.475 111.068 165.461 113.566 173.755 113.566H178.386C186.68 113.566 190.069 111.068 191.359 106.477L192.314 103.081H181.331L179.874 108.269C179.712 108.841 179.113 109.309 178.541 109.309H175.991C175.42 109.309 175.082 108.841 175.243 108.269L177.138 101.52H192.749L193.945 97.264L194.38 95.7124C195.67 91.1182 193.683 88.6234 185.387 88.6234M183.902 93.9204L182.965 97.264H178.334L179.271 93.9204C179.433 93.3484 180.032 92.8798 180.604 92.8798H183.153C183.725 92.8798 184.063 93.3484 183.899 93.9204" fill="white"/>
<path d="M67.0438 88.6235H42.2476L44.28 81.3733H32.3383L25.7027 105.016C25.5414 105.588 24.9421 106.057 24.3701 106.057H19.0031C18.4312 106.057 18.0934 105.588 18.2547 105.016L24.8903 81.3733H12.9486L5.64365 107.402C4.35364 111.996 6.34037 114.491 14.6372 114.491H24.005C32.2988 114.491 35.6881 111.993 36.9781 107.402L40.7051 94.1182H58.5766C59.1486 94.1182 59.4833 94.5868 59.325 95.1587L56.3769 105.667C56.2126 106.242 55.6163 106.705 55.0443 106.705H50.6144C50.0455 106.705 49.7078 106.239 49.866 105.667L51.7493 98.9588H42.5701L36.7012 119.879H45.8804L48.2444 111.46C48.2444 111.46 49.8295 113.566 53.3192 113.566H55.2968C60.0948 113.566 63.7032 112.257 65.3278 106.477L69.4139 91.9124C69.922 90.1021 68.8571 88.6235 67.0468 88.6235" fill="white"/>
<path d="M114.415 94.1213H116.901L117.902 90.5555H115.419L117.99 81.3763H107.901L105.324 90.5555H102.839L101.838 94.1213H104.323L99.9149 109.839C99.4068 111.646 100.472 113.128 102.279 113.128H111.571L112.642 109.309H111.193C110.621 109.309 110.284 108.841 110.445 108.269L114.415 94.1213Z" fill="white"/>
<path d="M166.009 90.5524H163.527L166.101 81.3733H156.006L153.432 90.5524H150.943L149.942 94.1182H152.431L148.022 109.836C147.514 111.643 148.579 113.125 150.386 113.125H159.678L160.749 109.309H159.301C158.729 109.309 158.394 108.841 158.552 108.269L162.523 94.1213H165.012L166.009 90.5555V90.5524Z" fill="white"/>
<path d="M163.904 125.015V120.837H165.361V120.335H162.018V120.837H163.402V125.015H163.904Z" fill="white"/>
<path d="M170.037 125.015V120.335H169.231L168.032 124.141L166.834 120.335H166.027V125.015H166.529V121.038L167.783 125.015H168.285L169.535 121.038V125.015H170.037Z" fill="white"/>
<path d="M82.9775 163.989C142.917 163.989 150.46 137.114 150.46 137.114L155.714 118.397H150.39C148.36 118.397 146.869 117.755 145.783 116.964C145.777 116.979 145.382 118.397 145.382 118.397H127.063C125.794 118.68 124.501 118.835 123.211 118.835H118.83C117.665 118.835 116.77 118.616 116.104 118.397H110.059L108.096 125.386C107.117 128.872 103.466 131.723 99.9819 131.723H84.088C80.6044 131.723 78.5507 128.872 79.5304 125.386L81.3711 118.835H77.5467C70.8107 118.835 67.4366 117.095 65.7754 115.61C64.0442 117.028 60.7675 118.835 55.3002 118.835H51.6492C51.1198 120.722 49.8754 125.145 49.8754 125.145H33.945L30.5862 137.114C30.5862 137.114 23.0439 163.989 82.9836 163.989" fill="#008445"/>
<path d="M49.1941 83.3569H67.0442C69.9528 83.3569 71.7783 84.7169 72.828 85.8822C74.7478 84.8142 78.4596 83.3569 84.5415 83.3569H88.229C89.3669 83.3569 90.3618 83.4147 91.2836 83.4969L104.257 37.2665H58.6014L47.7002 76.1067H51.2295C51.2295 76.1067 49.7934 81.218 49.1941 83.3539" fill="#008445"/>
<path d="M122.42 85.0881C123.874 84.4248 127.075 83.3569 132.649 83.3569H137.279C143.023 83.3569 145.984 84.6287 147.14 85.2858H149.44C149.969 83.3995 152.014 76.1067 152.014 76.1067H167.576L178.477 37.2665H132.822L121.921 76.1067H124.939C124.939 76.1067 123.153 82.4655 122.417 85.085" fill="#008445"/>
<path d="M85.068 118.71C84.1613 118.79 83.1999 118.835 82.1715 118.835H81.3653L79.5276 125.386C78.551 128.872 80.6016 131.723 84.0853 131.723H99.9791C103.463 131.723 107.114 128.872 108.093 125.386L110.056 118.394H106.393L104.698 124.433C104.144 126.399 101.896 128.194 99.9822 128.194H84.0883C83.0387 128.194 82.5488 127.677 82.9291 126.341L85.071 118.71H85.068Z" fill="#231F20"/>
<path d="M132.822 37.2695H178.477L167.576 76.1097H171.242L183.136 33.7402H130.148L118.258 76.1097H121.921L132.822 37.2695Z" fill="#231F20"/>
<path d="M33.9389 125.145H30.2728L27.1816 136.165C25.4352 142.39 25.0519 167.515 82.9775 167.515C144.88 167.515 153.517 139.272 153.852 138.07L159.374 118.397H155.708L150.453 137.117C150.453 137.117 142.911 163.989 82.9714 163.989C23.0317 163.989 30.574 137.117 30.574 137.117L33.9328 125.148L33.9389 125.145Z" fill="#231F20"/>
<path d="M58.5985 37.2695H104.254L91.2807 83.4999C92.6651 83.6246 93.8395 83.8133 94.7918 84.0445L108.912 33.7402H55.9242L44.0342 76.1097H47.7004L58.6015 37.2695H58.5985Z" fill="#231F20"/>
<path d="M183.903 93.9204C184.064 93.3484 183.726 92.8799 183.157 92.8799H180.608C180.036 92.8799 179.436 93.3484 179.275 93.9204L178.338 97.2641H182.969L183.906 93.9204H183.903Z" fill="#231F20"/>
<path d="M14.6346 118.023H24.0024C30.9514 118.023 34.079 116.155 34.079 116.155L32.0467 123.405H48.549L50.4232 116.727C51.2873 116.955 52.2548 117.098 53.3135 117.095H55.2911C63.2442 117.095 65.8942 113.009 65.8942 113.009C65.8942 113.009 67.3759 117.095 77.5377 117.095H82.1684C93.2673 117.095 96.3645 111.895 96.3645 111.895C96.3645 111.895 97.0582 116.654 102.276 116.654H116.32C116.764 116.824 117.656 117.095 118.824 117.095H123.205C124.562 117.095 125.807 116.922 126.923 116.654H144.061L144.977 113.386C144.977 113.386 146.313 116.654 150.387 116.654H162.35L163.059 114.132C163.059 114.132 164.972 117.095 173.759 117.095H178.39C188.621 117.095 193.127 113.237 194.755 107.429L197.776 96.6647C199.547 90.3516 196.827 85.0973 185.39 85.0973H180.76C173.373 85.0973 170.558 87.0262 170.558 87.0262H168.176L170.753 77.847H153.335L150.758 87.0262H146.651C146.651 87.0262 144.174 85.0973 137.28 85.0973H132.649C125.359 85.0973 122.448 87.0262 122.448 87.0262H120.065L122.642 77.8501H105.221L102.647 87.0262H97.5967C97.5967 87.0262 95.3027 85.0973 88.229 85.0973H84.5415C75.7761 85.0973 72.3959 88.2432 72.3959 88.2432C72.3959 88.2432 70.9629 85.0973 67.0442 85.0973H46.9L48.9324 77.847H10.2747L2.24564 106.452C0.681804 112.026 2.33691 118.023 14.6346 118.023ZM180.76 88.6235H185.39C193.684 88.6235 195.671 91.1183 194.384 95.7124L193.946 97.2641L192.753 101.517H177.142L175.247 108.266C175.085 108.841 175.423 109.306 175.995 109.306H178.545C179.117 109.306 179.716 108.841 179.874 108.266L181.332 103.078H192.315L191.36 106.474C190.07 111.065 186.683 113.563 178.387 113.563H173.756C165.462 113.563 163.475 111.065 164.765 106.474L167.787 95.7094C169.077 91.1183 172.463 88.6204 180.76 88.6204M148.023 109.839L152.431 94.1212H149.942L150.943 90.5555H153.432L156.006 81.3763H166.098L163.524 90.5555H166.007L165.009 94.1212H162.523L158.553 108.272C158.394 108.847 158.729 109.312 159.301 109.312H160.749L159.678 113.131H150.39C148.579 113.131 147.518 111.649 148.026 109.842M135.047 92.8769H132.497C131.925 92.8769 131.326 93.3454 131.167 93.9174L129.917 98.3777H118.934L119.682 95.7124C120.972 91.1214 124.358 88.6235 132.652 88.6235H137.283C145.577 88.6235 147.563 91.1183 146.276 95.7124L141.39 113.128H126.485C125.521 113.389 124.422 113.566 123.211 113.566H118.83C116.548 113.566 115.2 111.695 115.842 109.41L116.992 105.311C117.473 103.599 119.326 101.813 121.106 101.347L134.718 97.7844L135.804 93.9235C135.962 93.3515 135.628 92.8829 135.053 92.8829M99.9121 109.839L104.321 94.1212H101.835L102.836 90.5555H105.322L107.899 81.3763H117.987L115.416 90.5555H117.899L116.898 94.1212H114.412L110.442 108.272C110.281 108.847 110.619 109.312 111.19 109.312H112.639L111.568 113.131H102.276C100.469 113.131 99.404 111.649 99.9121 109.842M71.5684 95.7124C72.8584 91.1214 76.2447 88.6235 84.5415 88.6235H88.229C96.5227 88.6235 98.5095 91.1183 97.2195 95.7124L96.9335 96.7347H85.9501L86.7412 93.9204C86.8994 93.3484 86.5647 92.8799 85.9927 92.8799H84.3863C83.8113 92.8799 83.215 93.3484 83.0568 93.9204L82.5913 95.5695C82.433 96.1384 82.6947 96.7682 83.1754 96.9659L93.7571 101.292C93.7571 101.292 96.3037 102.333 95.1415 106.48C93.8514 111.071 90.4652 113.569 82.1684 113.569H77.5377C69.2439 113.569 67.2572 111.071 68.5442 106.48L69.0583 104.651H80.0417L79.0255 108.272C78.8673 108.847 79.2019 109.312 79.7739 109.312H82.3235C82.8955 109.312 83.4949 108.847 83.6531 108.272L84.1916 106.358C84.3498 105.789 84.0851 105.159 83.6044 104.962L72.7762 100.538C72.7762 100.538 70.4761 99.5977 71.5653 95.7155M5.64408 107.405L12.9491 81.3763H24.8908L18.2551 105.019C18.0939 105.591 18.4316 106.06 19.0036 106.06H24.3705C24.9425 106.06 25.5419 105.591 25.7031 105.019L32.3387 81.3763H44.2804L42.245 88.6265H67.0442C68.8515 88.6265 69.9194 90.1052 69.4113 91.9154L65.3252 106.48C63.7005 112.26 60.0922 113.569 55.2942 113.569H53.3166C49.8269 113.569 48.2417 111.463 48.2417 111.463L45.8777 119.882H36.6986L42.5675 98.9618H51.7467L49.8634 105.67C49.7021 106.245 50.0398 106.708 50.6088 106.708H55.0386C55.6106 106.708 56.2069 106.242 56.3712 105.67L59.3194 95.1618C59.4776 94.5898 59.1429 94.1212 58.5709 94.1212H40.6995L36.9724 107.405C35.6824 111.996 32.2961 114.494 23.9993 114.494H14.6315C6.33776 114.494 4.34798 111.996 5.63799 107.405" fill="#231F20"/>
<path d="M128.103 104.828L127.139 108.269C126.975 108.844 127.315 109.309 127.884 109.309H130.437C131.009 109.309 131.608 108.841 131.767 108.269L133.747 101.213L129.442 103.282C128.867 103.562 128.262 104.259 128.103 104.828Z" fill="#231F20"/>
</g>
<defs>
<clipPath id="clip0_5_234790">
<rect width="200" height="137.255" fill="white" transform="translate(0 32)"/>
</clipPath>
</defs>
</svg>
