<svg width="200" height="200" viewBox="0 0 200 200" fill="none" xmlns="http://www.w3.org/2000/svg">
<path d="M60.4966 51V79.0604H76.2285V120.005H42.9936V51H9.79337L0 79.0257H7.43185V127.993C7.43185 139.036 16.4265 148.031 27.4701 148.031H111.825V79.0604H129.779V148.031H165.306V79.0604H190.207L200 51H60.4966Z" fill="white"/>
<path d="M62.1292 52.6672V77.4285H77.8611V121.672H41.327V52.6672H10.9745L2.32715 77.3938H9.06443V127.993C9.06443 130.528 9.58535 132.959 10.523 135.147C11.9121 138.446 14.2389 141.259 17.1561 143.239C20.0733 145.218 23.6503 146.399 27.4357 146.364H110.124V77.3938H131.412V146.364H163.64V77.3938H189.026L197.708 52.6672H62.1292Z" fill="#003058"/>
<path d="M188.366 59.2654H68.7618V70.7952H84.4937V128.27H34.7281V59.2654H15.6623L11.6338 70.7952H15.6623V128.027C15.6623 134.522 20.941 139.8 27.4351 139.8H103.525V70.7952H138.01V139.765H157.006V70.7952H184.337L188.366 59.2654ZM186.039 60.9323L183.157 69.1282H155.374V138.099H139.677V69.1282H101.858V138.099H27.4351C21.8439 138.099 17.3292 133.549 17.3292 127.993V69.1282H13.9606L16.843 60.9323H33.0958V129.903H86.1606V69.1282H70.4287V60.9323H186.039Z" fill="white"/>
<path d="M186.039 60.932L183.157 69.1279H155.374V138.098H139.677V69.1279H101.858V138.098H27.4355C21.8442 138.098 17.3296 133.549 17.3296 127.992V69.1279H13.9609L16.8434 60.932H33.0962V129.902H86.161V69.1279H70.4291V60.932H186.039Z" fill="#BA1C21"/>
<path d="M173.328 145.009H172.147V144.454H175.169V145.009H173.988V148.031H173.328V145.009Z" fill="white"/>
<path d="M178.954 148.031V145.669L177.774 147.614H177.461L176.28 145.669V147.996H175.655V144.419H176.211L177.635 146.78L179.024 144.419H179.58V147.996H178.954V148.031Z" fill="white"/>
</svg>
