<svg width="200" height="200" viewBox="0 0 200 200" fill="none" xmlns="http://www.w3.org/2000/svg">
<g clip-path="url(#clip0_5_234679)">
<path d="M32.3836 107.37C31.7036 106.784 31.305 105.916 31.305 105.025C31.3519 103.665 32.196 102.446 33.4623 101.93C25.7943 98.2719 12.522 95.2939 0 93.8635C11.2323 89.3846 23.1915 86.9693 35.2914 86.6879C26.404 83.4519 4.80713 82.5139 4.80713 82.5139C18.8768 78.082 32.2898 74.4239 43.1469 74.8929C35.4555 72.501 27.6234 70.5782 19.6975 69.1478C19.6975 69.1478 46.594 61.4564 61.9064 63.7779L39.864 54.7967C102.005 50.1069 121.937 66.8263 134.717 86.4534L135.303 87.368L142.666 83.9912L141.541 92.5972L142.807 92.7379C162.692 95.3173 189.94 100.898 200 127.044C167.054 120.572 129.323 130.749 96.7054 146.367C73.1153 128.334 49.6189 120.174 14.3745 113.842L32.3836 107.37Z" fill="white"/>
<path fill-rule="evenodd" clip-rule="evenodd" d="M35.033 104.064H35.7365V103.338H33.4385V104.064H34.142V106.691H35.033V104.064Z" fill="#0A2240"/>
<path fill-rule="evenodd" clip-rule="evenodd" d="M35.9482 106.691H36.8159L37.0973 104.744L37.8711 106.691H38.1994L39.0201 104.744L39.2781 106.691H40.1457L39.6298 103.338H38.7622L38.0352 105.12L37.3787 103.338H36.511L35.9482 106.691Z" fill="#0A2240"/>
<path d="M25.3258 113.046L44.8123 106.691C36.7222 95.1772 14.4688 93.0668 14.4688 93.0668C26.17 89.7604 38.4809 89.2211 50.4167 91.5191C41.928 82.4207 24.0127 80.8496 24.0127 80.8496C49.1739 73.8148 65.3305 83.8981 65.3305 83.8981C58.9288 74.3307 35.3622 69.1015 35.3622 69.1015C66.3623 61.7618 82.261 74.0493 82.261 74.0493C75.8359 65.1385 56.7949 57.6347 56.7949 57.6347C110.729 55.2898 128.667 81.0841 133.756 91.7536L138.446 89.6432L137.555 95.5524C158.12 98.2491 183.258 102.47 193.411 122.425C163.701 117.97 128.667 127.702 97.2686 142.193C76.0703 126.67 51.3547 116.657 25.3258 113.046Z" fill="#0A2240"/>
<path d="M122.594 103.385C119.311 106.222 113.214 109.341 107.445 105.26C104.561 103.291 103.787 99.3512 105.757 96.4669C106.296 95.6697 107.023 94.9896 107.867 94.5206L112.932 97.5925C112.417 98.0146 111.971 98.5539 111.666 99.1636C110.634 100.946 111.221 103.22 113.003 104.276C113.378 104.51 113.8 104.651 114.246 104.721C116.708 105.284 119.287 104.369 120.858 102.376L122.594 103.385Z" fill="white"/>
<path d="M88.2168 82.1393C88.2168 82.1393 107.867 79.7943 120.225 88.9631L123.016 83.2883L126.744 100.899C126.744 100.899 118.115 87.9078 88.2168 82.1393Z" fill="#E04403"/>
<path d="M113.425 115.437C116.661 112.788 125.15 106.785 141.119 101.368C159.151 103.713 174.815 107.863 183.093 116.61C183.093 116.61 141.353 111.92 113.425 115.391" fill="white"/>
<path d="M140.696 104.111C137.624 105.26 134.623 106.597 131.738 108.145C138.961 106.949 146.253 106.456 153.57 106.644C149.513 104.862 145.128 103.994 140.696 104.111Z" fill="#0A2240"/>
<path d="M113.237 119.142H150.452C141.728 120.526 133.122 122.496 124.657 125.028C120.436 123.973 116.52 121.98 113.214 119.166" fill="white"/>
<path d="M98.1594 97.9442C96.0255 105.917 102.052 109.95 110.165 110.841C105.945 112.999 96.4007 114.101 90.2335 109.364C87.912 107.394 86.8333 104.322 87.4195 101.344C75.4369 101.813 63.7591 105.354 53.5352 111.615C63.7122 97.7097 85.8484 88.6817 102.474 92.5274C100.528 93.864 99.027 95.7634 98.1594 97.9442Z" fill="#E04403"/>
<path d="M90.0928 130.375L104.772 121.581L99.8008 118.744L90.0928 130.375Z" fill="#E04403"/>
<path d="M95.5332 135.557L115.84 128.499L107.492 123.504L95.5332 135.557Z" fill="#E04403"/>
</g>
<defs>
<clipPath id="clip0_5_234679">
<rect width="200" height="92.3672" fill="white" transform="translate(0 54)"/>
</clipPath>
</defs>
</svg>
