<svg width="200" height="201" viewBox="0 0 200 201" fill="none" xmlns="http://www.w3.org/2000/svg">
<g clip-path="url(#clip0_5_200187)">
<path d="M148.219 187.89V171.178C143.978 169.307 142.682 166.293 144.296 161.181C145.066 158.745 188.014 44.6055 188.014 44.6055C191.682 34.6192 195.153 31.5753 200 28.9863V12H115.89V28.9863C122.241 30.5589 121.567 35.8548 119.973 39.8904C118.378 43.926 100 91.4521 100 91.4521C100 91.4521 81.6219 43.926 80.0274 39.8904C78.4329 35.8548 77.7589 30.5589 84.1096 28.9863V12H0V28.9863C4.84932 31.5781 8.31781 34.6192 11.9863 44.6055C11.9863 44.6055 54.9342 158.742 55.7041 161.181C57.3178 166.293 56.0192 169.307 51.7808 171.178V187.89H148.219Z" fill="#001F5B"/>
<path d="M57.5343 182.411V174.466C64.0493 170.082 62.8438 163.97 61.0301 159.17L17.2493 42.3124C14.8685 36.0686 11.9178 29.6494 5.47946 25.6987V17.2056H78.6301V25.6987C73.5617 27.7316 71.7808 33.233 73.5808 38.1563C75.3069 42.8768 100 107.89 100 107.89C100 107.89 124.693 42.8768 126.419 38.1563C128.219 33.233 126.438 27.7316 121.37 25.6987V17.2056H194.521V25.6987C188.082 29.6494 185.132 36.0686 182.751 42.3124L138.97 159.17C137.156 163.97 135.951 170.082 142.466 174.466V182.411H57.5343Z" fill="white"/>
<path d="M134.521 176.11C129.474 171.208 130.189 164.463 132.926 157.312C137.529 145.293 176.816 40.611 176.816 40.611C179.89 32.5726 182.975 27.0274 187.395 23.5042H128.764C132.923 26.6548 134.929 32.8192 132.082 40.5096C129.792 46.6987 99.9973 125.696 99.9973 125.696C99.9973 125.696 70.2028 46.6987 67.9123 40.5096C65.0658 32.8192 67.0712 26.6548 71.2301 23.5042H12.6028C17.0219 27.0274 20.1096 32.5726 23.1808 40.611C23.1808 40.611 62.4712 145.29 67.0712 157.312C69.8082 164.46 70.5233 171.206 65.4767 176.11H134.518H134.521Z" fill="#001F5B"/>
<path d="M94.7945 176.11L35.0685 23.5068H42.1918L100 170.904L157.808 23.5068H164.931L105.205 176.11H94.7945Z" fill="#3DB7E4"/>
<path d="M151.652 184.384H150.507V183.285H154V184.384H152.871V187.89H151.652V184.384ZM154.608 183.282H155.871L156.792 184.945L157.729 183.282H158.978V187.89H157.789V185.274L156.808 186.984H156.764L155.797 185.274V187.89H154.608V183.282Z" fill="#001F5B"/>
</g>
<defs>
<clipPath id="clip0_5_200187">
<rect width="200" height="175.89" fill="white" transform="translate(0 12)"/>
</clipPath>
</defs>
</svg>
