<svg width="200" height="201" viewBox="0 0 200 201" fill="none" xmlns="http://www.w3.org/2000/svg">
<g clip-path="url(#clip0_5_234659)">
<path d="M119.492 60.8591L124.449 45.2389C125.033 43.404 126.713 42.1768 128.631 42.1768H132.336V30H94.0427V42.1768H99.7379C101.93 42.1768 103.944 43.1896 105.242 44.9649C106.541 46.7401 106.899 48.9563 106.243 51.0533L93.9593 89.7403L81.425 46.621C81.1152 45.5606 81.3178 44.4525 81.985 43.5708C82.6522 42.6891 83.653 42.1887 84.7611 42.1887H88.4666V30H47.0392V42.1768H51.8885C53.1395 42.1768 54.2595 43.0228 54.605 44.2142L57.8458 55.3783L46.932 89.7403L34.3858 46.621C34.076 45.5606 34.2786 44.4525 34.9458 43.5708C35.613 42.6891 36.6138 42.1887 37.7219 42.1887H41.4274V30H0V42.1768H4.84928C6.10032 42.1768 7.2203 43.0228 7.56583 44.2142L35.4343 140.092H47.2894L65.6499 82.2817L82.4497 140.092H94.3048L115.108 74.6086C117.908 76.0622 119.909 78.6239 119.909 82.651V155.497C119.909 157.308 118.444 158.774 116.633 158.774H104.194V170.951H164.911V158.774H152.198C150.542 158.774 149.208 157.428 149.208 155.783V121.993H158.835C160.324 121.993 163.684 127.581 163.684 131.62V135.326H175.861V94.804H163.684V98.5095C163.684 102.537 160.312 108.137 158.835 108.137H149.208V86.3446C149.208 77.1464 157.095 73.024 164.911 73.024H166.329C179.983 73.024 187.823 80.554 187.823 93.6721V98.5571H200V60.8471H119.492V60.8591ZM196.295 66.9475V94.8636H191.529V93.684C191.529 78.2188 181.794 69.3304 166.329 69.3304H164.911C154.2 69.3304 145.502 75.6333 145.502 86.3446V111.83H158.835C163.565 111.83 167.389 103.228 167.389 98.4976H172.155V131.608H167.389C167.389 126.878 163.553 118.276 158.835 118.276H145.502V155.771C145.502 159.465 148.505 162.468 152.198 162.468H161.218V167.233H107.911V162.468H116.645C120.505 162.468 123.627 159.346 123.627 155.486V82.6391C123.627 75.6452 119.064 71.2725 112.749 69.8308L91.6121 136.374H85.2496L82.5569 127.105L65.8287 69.5449L44.6086 136.374H38.2462L35.5534 127.105L11.1283 43.1896C10.3181 40.4015 7.75646 38.4713 4.84928 38.4713H3.70547V33.7055H37.7219V38.4713C32.9441 38.4713 29.5008 43.0585 30.8352 47.6457L46.7652 102.465L61.7062 55.426L59.7403 48.6465L58.1556 43.1776C57.3454 40.3896 54.7837 38.4594 51.8766 38.4594H50.7328V33.7055H84.7492V38.4713C79.9714 38.4713 76.5281 43.0585 77.8625 47.6457L93.7924 102.465L109.758 52.1732C111.915 45.3938 106.851 38.4713 99.726 38.4713H97.7362V33.7055H128.631V38.4713C125.104 38.4713 121.983 40.759 120.922 44.1189L114.429 64.5645H196.295V66.9475Z" fill="#16191E"/>
<path d="M119.135 64.5646H114.429L120.922 44.119C121.995 40.7591 125.104 38.4714 128.631 38.4714V33.7056H97.7363V38.4714H99.7261C106.839 38.4714 111.903 45.3939 109.758 52.1733L93.7925 102.465L77.8626 47.6458C76.5282 43.0586 79.9715 38.4714 84.7493 38.4714V33.7056H50.7329V38.4714H51.8767C54.7838 38.4714 57.3455 40.3897 58.1557 43.1897L59.7404 48.6585L61.7063 55.438L46.7653 102.477L30.8353 47.6458C29.5009 43.0586 32.9442 38.4714 37.722 38.4714V33.7056H3.70557V38.4714H4.84938C7.75656 38.4714 10.3182 40.3897 11.1284 43.1897L35.5297 127.129L38.2224 136.398H44.5849L65.8049 69.5688L82.5332 127.129L85.2259 136.398H91.5883L112.725 69.8547C119.04 71.2964 123.603 75.6691 123.603 82.663V155.509C123.603 159.37 120.481 162.491 116.621 162.491H107.888V167.257H161.194V162.491H152.175C148.469 162.491 145.478 159.489 145.478 155.795V118.3H158.811C163.541 118.3 167.366 126.902 167.366 131.632H172.132V98.5215H167.366C167.366 103.252 163.529 111.854 158.811 111.854H145.478V86.3685C145.478 75.6572 154.164 69.3543 164.888 69.3543H166.305C181.771 69.3543 191.505 78.2427 191.505 93.708V94.8875H196.271V64.5765H119.111L119.135 64.5646Z" fill="#D0B787"/>
</g>
<defs>
<clipPath id="clip0_5_234659">
<rect width="200" height="140.963" fill="white" transform="translate(0 30)"/>
</clipPath>
</defs>
</svg>
