<?xml version="1.0" encoding="UTF-8"?>
<svg width="200px" height="200px" viewBox="0 0 200 200" version="1.1" xmlns="http://www.w3.org/2000/svg" xmlns:xlink="http://www.w3.org/1999/xlink">
    <!-- Generator: Sketch 54.1 (76490) - https://sketchapp.com -->
    <title>west-ga</title>
    <desc>Created with Sketch.</desc>
    <g id="west-ga" stroke="none" stroke-width="1" fill="none" fill-rule="evenodd">
        <g id="west-ga_BGL" transform="translate(0.000000, 0.000000)">
            <g id="west-ga" transform="translate(0.000000, 31.000000)">
                <g id="g10" transform="translate(99.999998, 69.390247) scale(-1, 1) rotate(-180.000000) translate(-99.999998, -69.390247) translate(0.000000, 0.284557)" fill-rule="nonzero">
                    <g id="g12">
                        <path d="M185.359345,26.9569505 C181.926012,23.9540644 173.313817,15.0622354 173.313817,15.0622354 L170.679264,19.4016662 C157.245931,26.5402839 134.529265,31.8657716 100.376827,31.9804464 C66.2239821,31.8657716 43.507316,26.5402839 30.0741456,19.4016662 L27.4393489,15.0622354 C27.4393489,15.0622354 18.8276418,23.9540644 15.3939427,26.9569505 L14.4070728,27.8199587 L15.5489427,28.4638611 C35.6758121,39.8139014 64.3243886,46.1296736 100.376827,46.1459338 C136.428858,46.1296736 165.077638,39.8139014 185.204467,28.4638611 L186.346337,27.8199587 L185.359345,26.9569505 Z M45.0939013,114.1939 C45.0939013,114.1939 44.9536574,84.5853637 45.0308932,62.5723562 C45.0365842,61.0016245 44.6999989,57.0231693 47.4101614,57.1520311 C49.0341451,57.1520311 53.3256084,58.2223563 54.7662588,61.152844 C55.5292669,62.7048765 55.4113807,63.810974 55.4113807,65.5410553 L55.4178848,114.145119 L71.9056893,114.145119 L67.5138195,105.93455 L67.3739821,63.1589415 C67.3739821,61.4426814 67.1345512,58.2134132 66.5569089,56.5853644 C63.8800797,49.0418687 59.7991855,48.3764216 43.5386168,44.5048769 C37.7224787,43.1199176 32.8231293,48.3626004 32.827113,53.9260149 L32.8617065,103.825607 L27.3431294,114.145119 L45.0939013,114.1939 Z M84.1154451,128.291867 L89.8028433,79.351624 L95.7475586,128.291867 L107.781705,128.291867 L114.187802,79.2390224 L119.665444,128.291867 L135.778858,128.291867 L131.376419,120.130485 L122.261379,51.8609743 C117.186176,52.3337385 113.292274,52.6999987 107.420323,52.7646328 L101.675201,91.0203229 L97.3540626,52.8934946 C92.2886156,52.9060962 87.2878027,52.6353645 82.3837378,52.1191044 L72.7048762,119.922761 L67.4987788,128.291867 L84.1154451,128.291867 Z M136.715444,111.871135 C138.866663,113.689835 140.738614,114.1939 143.555281,114.1939 L168.333736,114.1939 L168.333736,85.6731686 L157.484549,94.9650383 L157.484549,104.515038 C157.484549,104.515038 150.679671,104.491054 148.239021,104.491054 C145.455687,104.491054 144.575606,103.614225 144.575606,100.835363 C144.575606,96.3621927 144.587801,68.6378032 144.587801,68.6378032 C144.588614,65.9235756 144.245118,63.9666651 145.878452,61.7983724 C146.962191,60.3585351 148.376826,59.7808928 149.620728,59.0882099 C152.383736,57.5499986 157.493492,55.990649 157.493492,55.990649 L157.484549,71.6065023 L148.970321,83.1869898 L168.485768,79.6170712 L168.333736,41.4772347 C160.825199,44.6284542 140.610566,47.9142264 136.279265,52.384145 C133.102029,55.8613807 133.230891,61.5402424 133.230891,61.5402424 L133.230891,104.90203 C133.230891,107.724794 134.394712,109.909753 136.715444,111.871135 L136.715444,111.871135 Z M186.912597,33.9271943 C183.410158,35.9020723 179.662191,37.7207308 175.691053,39.3821535 L175.704874,102.575201 L183.819914,121.569509 C183.819914,121.569509 141.647557,121.699184 141.232517,121.679265 L148.201216,135.10081 L54.7662588,135.069102 L62.7674781,121.421135 L15.052398,121.486989 L25.4849587,101.979672 L25.4568286,39.7837388 C20.754593,37.9166657 16.3665443,35.8471536 12.3473981,33.5804057 L4.53203241,28.9276822 L29.2646334,4.70447143 L34.0799585,14.7052842 C34.8488203,15.0763817 35.9393893,15.5821134 36.7854462,15.8967069 C46.1825192,19.9801621 66.7711365,25.8476416 100.526827,25.9492676 C133.018696,25.8512595 156.336581,19.5755686 166.417882,15.452398 L171.999183,4.9874389 L195.465442,28.4638611 L186.912597,33.9271943 L186.912597,33.9271943 Z" id="path14" fill="#1E59AE"></path>
                        <polyline id="path16" fill="#1E59AE" points="157.595118 15.7460159 158.517882 15.4187395 158.517882 12.0690241 159.634142 11.6739834 159.634142 15.0231704 160.557313 14.6963817 160.557313 15.6418289 157.595118 16.6911378 157.595118 15.7460159"></polyline>
                        <polyline id="path18" fill="#1E59AE" points="164.326825 14.3068696 163.404467 12.3382111 162.532516 14.9423574 161.433329 15.3317069 160.704061 11.2947965 161.81463 10.9016257 162.173573 13.2463005 162.185362 13.2423574 163.170728 10.4215851 163.61463 10.2639022 164.645931 12.3712192 164.657313 12.3666257 164.970728 9.78418675 166.087394 9.3886583 165.437801 13.9134143 164.326825 14.3068696"></polyline>
                        <path d="M100.376827,46.1459338 C64.3243886,46.1296736 35.6758121,39.8139014 15.5489427,28.4638611 L14.4070728,27.8199587 L15.3939427,26.9569505 C18.8276418,23.9540644 27.4393489,15.0622354 27.4393489,15.0622354 L30.0741456,19.4016662 C43.507316,26.5402839 66.2239821,31.8657716 100.376827,31.9804464 C134.529265,31.8657716 157.245931,26.5402839 170.679264,19.4016662 L173.313817,15.0622354 C173.313817,15.0622354 181.926012,23.9540644 185.359345,26.9569505 L186.346337,27.8199587 L185.204467,28.4638611 C165.077638,39.8139014 136.428858,46.1296736 100.376827,46.1459338" id="path20" fill="#EE293D"></path>
                        <path d="M166.417882,15.452398 C156.336581,19.5755686 133.018696,25.8512595 100.526827,25.9492676 C66.7711365,25.8476416 46.1825192,19.9801621 36.7854462,15.8967069 C35.9393893,15.5821134 34.8488203,15.0763817 34.0799585,14.7052842 L29.2646334,4.70447143 L4.53203241,28.9276822 L12.3473981,33.5804057 C16.3665443,35.8471536 20.754593,37.9166657 25.4568286,39.7837388 L25.4849587,101.979672 L15.052398,121.486989 L62.7674781,121.421135 L54.7662588,135.069102 L148.201216,135.10081 L141.232517,121.679265 C141.647557,121.699184 183.819914,121.569509 183.819914,121.569509 L175.704874,102.575201 L175.691053,39.3821535 C179.662191,37.7207308 183.410158,35.9020723 186.912597,33.9271943 L195.465442,28.4638611 L171.999183,4.9874389 L166.417882,15.452398 Z M164.970728,9.78418675 L164.657313,12.3666257 L164.645931,12.3712192 L163.61463,10.2639022 L163.170728,10.4215851 L162.185362,13.2423574 L162.173573,13.2463005 L161.81463,10.9016257 L160.704061,11.2947965 L161.433329,15.3317069 L162.532516,14.9423574 L163.404467,12.3382111 L164.326825,14.3068696 L165.437801,13.9134143 L166.087394,9.3886583 L164.970728,9.78418675 Z M160.557313,14.6963817 L159.634142,15.0231704 L159.634142,11.6739834 L158.517882,12.0690241 L158.517882,15.4187395 L157.595118,15.7460159 L157.595118,16.6911378 L160.557313,15.6418289 L160.557313,14.6963817 Z M188.345117,36.3130479 C185.258125,38.0536982 181.925605,39.7126006 178.475605,41.2199177 L178.488613,102.004875 L188.031703,124.341054 C188.031703,124.341054 157.16585,124.434956 145.812191,124.458127 L152.784549,137.886175 L49.9081288,137.851216 L57.9044701,124.211786 L10.4030079,124.277639 L22.7005685,101.282518 L22.6736986,41.658942 C18.5052841,39.9304462 14.570772,38.0300397 10.9516257,35.9889422 L0,29.4699586 L30.0892269,0 L36.1597958,12.607642 C36.7155682,12.8630078 37.3342267,13.1324793 37.8248771,13.315081 C46.8093484,17.2191053 67.071543,23.0646742 100.526827,23.1654872 C125.94146,23.0886173 140.411785,20.9565442 155.48211,16.2126825 L155.48211,12.7199184 C155.48211,11.8308534 156.172354,10.8763818 157.02276,10.5881705 L167.554874,7.04426812 L171.311378,0.361407715 L199.883328,28.9454871 L188.345117,36.3130479 L188.345117,36.3130479 Z" id="path22" fill="#B3B5B7"></path>
                        <path d="M82.3837378,52.1191044 C87.2878027,52.6353645 92.2886156,52.9060962 97.3540626,52.8934946 L101.675201,91.0203229 L107.420323,52.7646328 C113.292274,52.6999987 117.186176,52.3337385 122.261379,51.8609743 L131.376419,120.130485 L135.778858,128.291867 L119.665444,128.291867 L114.187802,79.2390224 L107.781705,128.291867 L95.7475586,128.291867 L89.8028433,79.351624 L84.1154451,128.291867 L67.4987788,128.291867 L72.7048762,119.922761 L82.3837378,52.1191044" id="path24" fill="#FFFFFF"></path>
                        <path d="M32.827113,53.9260149 C32.8231293,48.3626004 37.7224787,43.1199176 43.5386168,44.5048769 C59.7991855,48.3764216 63.8800797,49.0418687 66.5569089,56.5853644 C67.1345512,58.2134132 67.3739821,61.4426814 67.3739821,63.1589415 L67.5138195,105.93455 L71.9056893,114.145119 L55.4178848,114.145119 L55.4113807,65.5410553 C55.4113807,63.810974 55.5292669,62.7048765 54.7662588,61.152844 C53.3256084,58.2223563 49.0341451,57.1520311 47.4101614,57.1520311 C44.6999989,57.0231693 45.0365842,61.0016245 45.0308932,62.5723562 C44.9536574,84.5853637 45.0939013,114.1939 45.0939013,114.1939 L27.3431294,114.145119 L32.8617065,103.825607 L32.827113,53.9260149" id="path26" fill="#FFFFFF"></path>
                        <path d="M133.230891,61.5402424 C133.230891,61.5402424 133.102029,55.8613807 136.279265,52.384145 C140.610566,47.9142264 160.825199,44.6284542 168.333736,41.4772347 L168.485768,79.6170712 L148.970321,83.1869898 L157.484549,71.6065023 L157.493492,55.990649 C157.493492,55.990649 152.383736,57.5499986 149.620728,59.0882099 C148.376826,59.7808928 146.962191,60.3585351 145.878452,61.7983724 C144.245118,63.9666651 144.588614,65.9235756 144.587801,68.6378032 C144.587801,68.6378032 144.575606,96.3621927 144.575606,100.835363 C144.575606,103.614225 145.455687,104.491054 148.239021,104.491054 C150.679671,104.491054 157.484549,104.515038 157.484549,104.515038 L157.484549,94.9650383 L168.333736,85.6731686 L168.333736,114.1939 L143.555281,114.1939 C140.738614,114.1939 138.866663,113.689835 136.715444,111.871135 C134.394712,109.909753 133.230891,107.724794 133.230891,104.90203 L133.230891,61.5402424" id="path28" fill="#FFFFFF"></path>
                        <polyline id="path30" fill="#FFFFFF" points="143.29146 33.0068691 138.317476 33.8313 138.561379 35.4447552 141.427639 34.9695113 141.595118 36.078495 138.729265 36.5540641 138.948777 38.0028852 143.861785 37.188617 144.029671 38.2976007 137.672354 39.3516657 136.687801 32.8483732 143.105687 31.7844708 143.29146 33.0068691"></polyline>
                        <path d="M163.030484,26.6207717 L166.707719,25.2952026 C167.825606,24.8926417 168.293898,25.0604872 168.679264,26.2312595 L168.961378,27.0877636 C169.346337,28.2577635 169.076419,28.6926822 167.958126,29.0960155 L164.246337,30.4338204 L164.686581,31.7724382 L168.582923,30.3682513 L168.349183,29.655731 L169.669914,29.5186984 L169.713004,29.6508123 C170.067475,30.7243895 169.74715,31.1629667 168.686581,31.5452025 L165.309345,32.7626415 C164.19024,33.165487 163.733329,32.9927228 163.349183,31.8227634 L163.123167,31.1350399 C162.738207,29.9642675 162.995931,29.5345928 164.113817,29.1317472 L167.826419,27.7931294 L167.357719,26.3698774 L163.150402,27.8861782 L163.392679,28.6223164 L162.082516,28.7976416 L162.026825,28.6285359 C161.642679,27.4577635 161.911785,27.0231701 163.030484,26.6207717" id="path32" fill="#FFFFFF"></path>
                        <polyline id="path34" fill="#FFFFFF" points="115.171542 35.1251211 119.064225 41.4406494 117.604469 41.5471534 114.866664 36.9767877 112.64268 41.9105681 110.976013 42.0325193 114.162192 35.1988203 115.171542 35.1251211"></polyline>
                        <polyline id="path36" fill="#FFFFFF" points="88.6939002 37.0398365 88.5158514 42.3833323 87.0536564 42.3300802 87.2731685 35.7499585 93.4508107 35.9751211 93.4097538 37.2122755 88.6939002 37.0398365"></polyline>
                        <polyline id="path38" fill="#FFFFFF" points="38.9165844 29.3357716 35.98943 32.9833732 35.0155682 32.6519504 34.7306902 27.9130074 31.9077228 31.5955277 30.4698773 31.1064626 34.7217877 25.6292677 35.6842268 25.9560969 36.0089422 30.8565033 39.0005681 27.0841457 39.9398364 27.404105 40.3029665 34.4504056 39.0620315 34.0280479 38.9165844 29.3357716"></polyline>
                        <path d="M61.402844,34.1025195 L60.7792668,38.2239421 L65.5479658,39.0137389 L66.1715431,34.8923569 L61.402844,34.1025195 Z M67.0499983,38.8752836 C66.865039,40.0979665 66.4439008,40.3507713 65.2760146,40.1573567 L60.6999985,39.3988202 C59.5317058,39.2057307 59.2060961,38.8284543 59.3910554,37.606056 L59.9101611,34.1780886 C60.0951204,32.9552431 60.5162586,32.7024382 61.6841448,32.8955276 L66.2601609,33.6541048 C67.4284536,33.8474788 67.7540633,34.2247959 67.5686975,35.4476414 L67.0499983,38.8752836 L67.0499983,38.8752836 Z" id="path40" fill="#FFFFFF"></path>
                    </g>
                </g>
            </g>
        </g>
    </g>
</svg>