<svg width="200" height="201" viewBox="0 0 200 201" fill="none" xmlns="http://www.w3.org/2000/svg">
<g clip-path="url(#clip0_5_234597)">
<path d="M190.904 169.992C190.418 169.512 190.08 168.906 189.929 168.238L173.582 97.1154L147.707 136.98L127.003 105.079C130.576 104.17 133.285 102.088 135.081 98.851C139.949 90.0793 132.89 80.7122 129.119 77.9952C126.128 75.8411 123.509 74.7983 123.509 74.7983C123.509 74.7983 123.351 77.638 122.394 80.1024C121.429 82.5958 119.832 84.5947 116.669 86.2798C118.95 83.2994 120.325 79.5793 120.353 75.6065C120.397 70.0029 118.097 64.4426 114.049 60.3544C110.919 57.1935 105.313 53.4229 96.3784 53.4229C96.2417 53.4229 96.1085 53.4229 95.9718 53.4229C95.3889 53.4301 94.8024 53.459 94.223 53.5059L100.315 33.5341C100.578 32.6753 101.063 31.8996 101.722 31.2898L111.455 22.2799H82.5432C79.8913 22.2799 77.5885 23.9902 76.8113 26.5341L71.3384 44.4852L55.7293 19L40.1094 44.4924L34.6365 26.5413C33.8593 23.9975 31.5564 22.2871 28.9045 22.2871H0L9.72959 31.3042C10.3881 31.914 10.8738 32.6898 11.1329 33.5485L32.5531 103.784L55.7257 65.9689L72.8604 93.9329C67.5278 99.7675 64.5197 107.883 64.5197 116.669C64.5197 125.455 67.8841 133.011 73.9902 138.997C80.0461 144.936 88.0161 148.205 96.4288 148.205C101.524 148.205 106.45 147.007 110.886 144.748L105.489 168.238C105.338 168.902 105 169.508 104.514 169.988L95.4249 179.002H123.376C126.182 179.002 128.586 177.086 129.216 174.34L132.749 158.965L147.703 182.004L162.658 158.965L166.191 174.34C166.821 177.086 169.224 179.002 172.031 179.002H199.996L190.9 169.999L190.904 169.992ZM172.031 175.455C170.916 175.455 169.948 174.682 169.696 173.593L164.259 149.944L147.7 175.455L131.141 149.944L125.704 173.593C125.452 174.682 124.484 175.455 123.369 175.455H104.172L107.033 172.618C108.001 171.659 108.677 170.443 108.983 169.115L116.525 136.29C111.354 141.454 104.201 144.662 96.418 144.662C81.0392 144.662 68.1108 132.159 68.1108 116.734C68.1108 108.038 71.3887 99.8649 77.4194 94.5572L55.7185 59.1384L33.6542 95.1453L14.5728 32.5563C14.123 31.0877 13.2954 29.7599 12.1692 28.7171L9.19346 25.9604H28.9009C29.9552 25.9604 30.8835 26.6495 31.193 27.6598L38.9975 53.2605L55.7257 25.9604L72.4538 53.2605L80.2584 27.6598C80.5678 26.6495 81.4961 25.9604 82.5504 25.9604H102.258L99.2894 28.7099C98.1595 29.7526 97.3319 31.0805 96.8821 32.5527L89.02 58.3265C91.2257 57.5688 93.5826 57.1394 96.0258 57.1069C109.39 56.9301 116.827 66.5354 116.759 75.6498C116.708 82.5813 111.167 88.8345 104.241 89.5273C94.752 90.4798 92.3484 84.104 92.1469 80.9576C97.4543 81.0334 100.304 78.522 100.57 75.9962C100.873 73.1132 99.3217 70.3529 95.9178 69.9091C90.7904 69.2416 87.5196 73.8241 87.6203 78.8973C87.7319 84.4865 91.0314 89.4443 95.1478 93.7237C92.0425 95.5278 80.8341 101.878 82.4281 115.676C83.4176 124.246 90.5745 128.865 97.2492 128.598C104.892 128.291 111.16 122.63 111.199 114.655C111.214 111.491 110.228 108.817 108.915 106.843C106.648 103.434 101.614 103.199 99.552 106.739C99.0663 107.572 98.8288 108.507 98.9511 109.56C99.3577 113.089 102.754 113.944 106.684 113.854C108.382 118.563 103.838 123.752 98.5913 124.502C89.808 125.762 84.0617 117.47 86.8575 108.583C88.2536 104.152 91.9634 96.6969 112.207 91.8077C121.717 89.5092 125.071 84.353 125.855 80.1927C129.388 82.2746 135.811 90.1803 131.936 97.1623C129.46 101.622 125.045 102.337 120.656 101.987L147.703 143.666L171.973 106.273L186.417 169.122C186.723 170.454 187.399 171.673 188.371 172.633L191.228 175.458H172.031V175.455Z" fill="#F3B120"/>
<path d="M188.374 172.626C187.402 171.666 186.726 170.446 186.42 169.115L171.977 106.266L147.707 143.659L120.659 101.979C125.049 102.329 129.464 101.615 131.939 97.1551C135.818 90.1695 129.395 82.2638 125.858 80.1854C125.07 84.3458 121.72 89.5056 112.21 91.8004C91.9666 96.6897 88.2568 104.144 86.8607 108.575C84.0649 117.462 89.8076 125.754 98.5945 124.495C103.841 123.744 108.385 118.556 106.687 113.847C102.758 113.937 99.3573 113.086 98.9543 109.553C98.832 108.496 99.0694 107.565 99.5552 106.731C101.617 103.195 106.651 103.43 108.918 106.836C110.231 108.81 111.217 111.487 111.203 114.648C111.163 122.619 104.899 128.284 97.2523 128.59C90.5812 128.857 83.4208 124.239 82.4313 115.669C80.8373 101.871 92.0457 95.5206 95.151 93.7164C91.0346 89.437 87.7351 84.4793 87.6235 78.8901C87.5228 73.8168 90.7899 69.2379 95.921 69.9019C99.3249 70.3457 100.879 73.106 100.574 75.989C100.307 78.5148 97.4574 81.0298 92.1501 80.9504C92.3516 84.0968 94.7552 90.469 104.244 89.52C111.17 88.8272 116.712 82.5705 116.762 75.6426C116.83 66.5281 109.389 56.9229 96.029 57.0997C93.5858 57.1322 91.2289 57.5616 89.0232 58.3193L96.8853 32.5454C97.3351 31.0733 98.1663 29.749 99.2925 28.7026L102.261 25.9531H82.5536C81.4993 25.9531 80.571 26.6423 80.2615 27.6526L72.457 53.2533L55.7289 25.9531L39.0007 53.2533L31.1962 27.6526C30.8867 26.6423 29.9584 25.9531 28.9041 25.9531H9.18945L12.1652 28.7098C13.2914 29.7526 14.119 31.0769 14.5688 32.549L33.6574 95.1345L55.7217 59.1276L77.4225 94.5463C71.3919 99.8541 68.1139 108.027 68.1139 116.723C68.1139 132.145 81.0424 144.651 96.4212 144.651C104.208 144.651 111.357 141.443 116.528 136.28L108.986 169.104C108.68 170.435 108.004 171.651 107.036 172.608L104.175 175.444H123.372C124.487 175.444 125.455 174.672 125.707 173.582L131.144 149.933L147.703 175.444L164.262 149.933L169.699 173.582C169.951 174.672 170.919 175.444 172.034 175.444H191.231L188.374 172.618V172.626Z" fill="#095540"/>
</g>
<defs>
<clipPath id="clip0_5_234597">
<rect width="200" height="163" fill="white" transform="translate(0 19)"/>
</clipPath>
</defs>
</svg>
