<?xml version="1.0" encoding="UTF-8"?>
<svg width="200px" height="200px" viewBox="0 0 200 200" version="1.1" xmlns="http://www.w3.org/2000/svg" xmlns:xlink="http://www.w3.org/1999/xlink">
    <!-- Generator: Sketch 54.1 (76490) - https://sketchapp.com -->
    <title>gonzaga</title>
    <desc>Created with Sketch.</desc>
    <g id="gonzaga" stroke="none" stroke-width="1" fill="none" fill-rule="evenodd">
        <g id="gonzaga_BGL">
            <g id="gonzaga" transform="translate(0.000000, 25.000000)">
                <g id="g10" transform="translate(99.963883, 74.998919) scale(-1, 1) rotate(-180.000000) translate(-99.963883, -74.998919) translate(0.000000, 0.026007)" fill-rule="nonzero">
                    <g id="g12" transform="translate(0.000000, 0.260022)">
                        <path d="M53.0461525,78.2694094 L73.7118075,78.2694094 C73.7118075,78.2694094 72.986347,85.3755125 60.8520028,85.3755125 C60.8520028,85.3755125 52.4012988,85.8088819 47.7786915,80.7529052 C43.1560842,75.6969284 37.5682186,60.7433715 47.0431191,58.6860224 L53.0461525,78.2694094 Z M143.347053,64.1955925 L131.739108,25.8219423 C130.473092,20.4250194 141.799635,21.0247449 141.799635,21.0247449 C151.793712,20.8913538 153.913467,28.7870271 153.913467,28.7870271 L166.005919,68.8346678 L199.806134,68.8346678 L198.676485,65.0620424 C198.586344,64.7601284 189.62253,34.8273014 187.904654,29.3428667 C186.155575,23.7599416 185.719894,22.6470489 184.054889,18.9012346 C182.242827,14.8243839 178.628815,11.3283349 178.47598,11.1812782 L178.390461,11.1026072 C172.20888,5.62195724 162.714044,2.17350663 150.168577,0.852856606 C144.972189,0.305728559 139.82896,0.0286655825 134.881037,0.0286655825 L134.881037,0.0286655825 C124.514551,0.0286655825 115.11159,1.23657057 106.93362,3.61898149 C90.3251693,8.45680008 90.2358952,19.9358897 90.2974336,21.4356369 C90.3219912,23.8960485 91.4828435,28.6592698 91.7171519,29.597688 L91.7573108,29.7424333 L94.1015506,37.4234732 L74.7943643,37.4959904 L74.2364734,41.4321405 C64.1057405,36.0104 47.6781498,36.3709633 47.6781498,36.3709633 C21.9157524,36.0158893 10.5448607,46.3205478 10.5448607,46.3205478 C-7.3998987,59.1127468 2.99386052,79.5455379 2.99386052,79.5455379 C18.4512816,108.861247 60.7373044,107.084432 60.7373044,107.084432 C62.3664845,107.036761 64.1028514,106.945465 65.6121327,106.857058 L65.6595144,106.895194 C66.5441659,107.986129 70.7091351,109.705162 70.7091351,109.705162 C70.6626201,109.30964 72.5099296,121.460452 77.9712512,127.894255 C77.9712512,127.894255 73.992053,132.943298 74.9064626,134.22376 C75.821161,135.504222 81.0363288,133.22441 81.0363288,133.22441 C81.0363288,133.22441 81.7872136,132.675475 82.7016231,133.22441 C83.6166104,133.773056 84.1678563,134.757093 84.1678563,134.757093 C82.1613558,135.577028 81.3888026,136.22766 80.7029232,136.822243 C80.016755,137.416826 78.0041873,139.56056 77.6381346,140.886381 C77.2723708,142.212492 78.6374845,143.751242 78.6374845,143.751242 C78.6374845,143.751242 79.2979395,144.408808 83.3681453,143.951459 C87.4380621,143.49411 89.1732733,144.227949 90.0879717,145.965471 C91.0026702,147.703572 92.2828435,149.624265 93.8837102,149.487031 C95.4839991,149.350087 98.77674,149.07533 101.017549,147.794868 C103.258358,146.514695 104.721413,144.868469 105.224699,144.136652 C105.727986,143.404836 107.681037,139.912456 109.419138,139.775511 C111.15666,139.638277 114.179557,140.127985 115.460019,140.21957 C116.74077,140.310867 122.274031,140.256262 126.298011,138.9758 C130.322279,137.695338 129.233366,137.959982 129.584684,138.354348 C130.082481,138.913106 130.347415,141.450051 131.094832,142.08537 C132.009531,142.862546 134.125529,144.755504 136.869336,144.572622 C139.613431,144.390029 141.993785,143.846584 144.509061,141.285659 C147.024048,138.725024 147.952615,135.515778 151.793712,133.823615 C151.793712,133.823615 154.24225,132.247595 154.725312,131.513756 C155.208375,130.780206 156.048533,129.001658 154.814008,128.315779 C153.579194,127.629899 152.237772,127.249401 152.237772,127.249401 C152.237772,127.249401 152.448967,126.775873 154.369949,126.272586 C156.290354,125.769589 159.548136,124.62376 161.743297,123.252001 C163.938746,121.879954 166.360126,119.020871 166.451711,116.322713 C166.543297,113.624555 164.960054,111.924013 161.210541,111.96995 C161.210541,111.96995 163.542069,109.993786 164.319245,109.216032 C165.096998,108.438856 165.588439,108.375584 165.588439,108.375584 C165.588439,108.375584 169.845283,109.599419 172.314622,107.084143 C174.783961,104.569156 174.484358,103.633078 174.713177,100.066159 C174.713177,100.066159 176.11036,100.962367 174.802162,106.639795 C174.802162,106.639795 179.054094,106.004476 181.020436,101.842684 C181.020436,101.842684 182.366193,98.9477765 182.708554,96.06847 C182.708554,96.06847 184.623758,95.7983364 185.995517,94.3809294 C187.367276,92.9632335 187.630476,90.8611028 187.675835,89.2145879 C187.721483,87.5686508 187.59465,86.3023453 187.59465,86.1191744 C187.59465,85.9362925 186.806785,82.8125656 181.319461,81.029106 C181.319461,81.029106 181.159403,80.4339453 180.976521,79.6564805 C180.793639,78.8790157 180.220436,74.8007204 176.379049,72.1944366 C172.537952,69.587575 169.049905,69.7955923 169.049905,69.7955923 C169.049905,69.7955923 166.262473,70.0036097 165.119245,69.7288534 C163.975727,69.454675 160.271863,67.98093 157.390534,68.5298647 C157.390534,68.5298647 154.603102,65.7170081 146.463846,64.6653649 C146.463846,64.6653649 145.083131,64.5968926 143.410036,64.4431909 L143.347053,64.1955925 L143.347053,64.1955925 Z" id="path14" fill="#1F2F5F"></path>
                        <path d="M179.131234,4.53558674 L179.131234,0.993025616 L179.590895,0.993025616 L179.590895,3.91826642 L180.498081,1.02597903 L180.957164,1.02597903 L181.875907,3.94513533 L181.875907,0.993025616 L182.259006,0.993025616 L182.259006,4.55127471 L181.642466,4.55127471 L180.69512,1.71440371 L179.842249,4.53558674 L179.131234,4.53558674 Z M178.711155,4.14182727 L177.611263,4.14182727 L177.611263,0.960072204 L177.185117,0.960072204 L177.185117,4.14182727 L176.135496,4.14182727 L176.135496,4.56832058 L178.726756,4.56832058 L178.711155,4.14182727 L178.711155,4.14182727 Z" id="path16" fill="#1F2F5F"></path>
                        <path d="M93.0227496,133.344309 C90.0957724,132.818487 86.9633781,133.801658 86.9633781,133.801658 L84.746549,131.932102 C84.746549,131.932102 86.5747902,131.126324 86.9862022,130.874681 C87.3979032,130.623326 87.8506298,130.01112 88.0586471,129.448317 C88.0586471,129.448317 90.5799905,132.949654 93.0683978,133.115779 C93.4113375,133.138314 93.0227496,133.344309 93.0227496,133.344309 L93.0227496,133.344309 Z M80.919319,115.448462 L85.4364731,123.238422 C81.7528329,122.918596 80.0086654,126.297144 80.0086654,126.297144 C74.5248085,119.829538 73.5685066,110.05908 73.5685066,110.05908 C79.1742848,111.560272 80.3097127,110.174356 80.3097127,110.174356 C79.5172244,112.552399 80.919319,115.448462 80.919319,115.448462 Z M78.1604892,84.7789072 L82.9850467,88.4145879 C82.9850467,88.4145879 84.3568054,89.2836381 85.7973254,88.643118 C85.7973254,88.643118 82.8434793,93.6834935 82.2396512,96.765328 C81.6358232,99.8471625 81.2056318,101.847307 81.0207275,102.676487 C81.0207275,102.676487 79.4634866,101.881977 77.908846,101.927625 C76.3542054,101.973273 73.5644619,102.842323 73.5644619,102.842323 C73.5644619,102.842323 73.8389292,95.2970724 75.5079793,90.9755124 C77.1770295,86.6539523 78.1604892,84.7789072 78.1604892,84.7789072 L78.1604892,84.7789072 Z M88.7026341,81.5624393 C88.447524,80.5333313 88.1066067,80.229106 86.2315616,79.7258196 C84.3568054,79.2228221 81.0640644,79.3369428 81.0640644,79.3369428 C81.0640644,79.3369428 82.3904638,75.8616088 86.6097486,71.8332954 C90.8287446,67.8049821 97.3734898,64.8176221 97.3734898,64.8176221 C97.3734898,64.8176221 97.7785458,67.0812551 98.1443096,68.3160691 C98.5103623,69.5505941 98.9677115,69.7565891 98.9677115,69.7565891 C98.9677115,69.7565891 96.7956639,69.5962424 95.2863826,70.6028151 C93.7771013,71.6082322 91.6507019,75.0384958 91.6507019,75.0384958 C91.6507019,75.0384958 90.0729483,77.8964228 89.6615362,79.3828799 C89.2498353,80.8693371 88.7497269,81.752544 88.7026341,81.5624393 L88.7026341,81.5624393 Z M104.981435,62.6912227 C105.849907,62.2338735 109.371178,60.7477052 113.852796,60.3362932 C118.334125,59.9243033 123.708484,60.1721906 123.708484,60.1721906 C123.708484,60.1721906 123.272803,61.0909338 123.204331,62.2795217 C123.135569,63.4686875 124.169011,63.875188 124.169011,63.875188 C116.238061,62.5435882 112.89216,63.1485719 109.988585,63.6741046 C107.084721,64.2002151 105.998408,65.8990233 105.998408,65.8990233 C105.998408,65.8990233 105.849907,65.0002151 105.621377,64.5659789 C105.392269,64.1317427 105.170095,63.6749713 104.572334,62.8631259 L104.981435,62.6912227 Z M134.957021,64.2002151 C133.56995,62.8902837 131.597541,62.0351014 131.597541,62.0351014 C131.597541,62.0351014 131.412926,62.8741046 131.344742,63.1257478 C131.275692,63.3771021 131.022604,63.6680374 131.022604,63.6680374 C131.226866,63.8445632 131.618921,63.9260367 131.618921,63.9260367 L135.231777,64.5648232 C135.231777,64.5648232 135.368722,64.588803 134.957021,64.2002151 L134.957021,64.2002151 Z" id="path18" fill="#D51A35"></path>
                        <path d="M174.975799,92.5792682 C174.975799,92.5792682 177.440227,92.2331505 178.629681,93.376379 C179.818558,94.5196076 180.184033,95.38808 180.047088,96.8060648 C179.909855,98.2237606 179.406568,99.9612832 178.949508,100.967278 C178.492159,101.973273 177.429826,103.153771 177.160848,102.975223 C176.89187,102.796675 177.137446,101.917224 177.137446,101.917224 C177.137446,101.917224 177.39429,99.8240495 177.029104,99.0925219 C176.663051,98.3607054 175.245355,95.6628362 175.107832,94.3823739 C174.970599,93.1019117 174.975799,92.5792682 174.975799,92.5792682 L174.975799,92.5792682 Z M169.117222,92.4616806 C169.117222,92.4616806 170.580855,92.1872133 171.266735,91.9583942 C171.952614,91.7298641 172.135785,91.2725149 172.912672,92.0956279 C173.690425,92.9190298 173.461895,94.7024895 173.095843,95.434306 C172.730079,96.1658336 171.037916,96.1658336 171.037916,96.1658336 C171.037916,96.1658336 169.254456,96.0286 168.111227,95.7084844 C166.968288,95.38808 167.201729,92.6483184 167.201729,92.6483184 L169.117222,92.4616806 Z M162.716645,93.3382425 C163.314694,93.3610666 165.223542,92.9242303 165.223542,92.9242303 C165.536724,93.203898 165.59624,94.6109041 165.59624,95.1595498 C165.59624,95.7084844 165.47663,96.0063537 165.47663,96.0063537 C165.47663,96.0063537 164.818486,95.7084844 164.49866,95.616899 C164.178544,95.5256025 163.675836,95.7084844 163.264135,95.7541327 C162.852145,95.7997809 161.343441,95.434306 160.70321,95.205487 C160.06269,94.9769568 160.108916,94.9310197 159.742863,94.2907885 C159.3771,93.6505574 158.873813,93.0103263 158.873813,93.0103263 C158.873813,93.0103263 162.118595,93.3154184 162.716645,93.3382425 Z M152.197324,95.0223162 C152.197324,95.0223162 150.870924,95.0682533 150.642105,94.1079066 C150.413864,93.14756 150.873813,92.6072927 150.987067,92.7401927 C151.099743,92.8730927 151.252001,93.051063 151.694326,92.9646781 C152.136363,92.8780042 155.444416,92.8274444 155.444416,92.8274444 C155.444416,92.8274444 157.998118,92.9389648 157.978472,93.7063176 C157.959404,94.4736704 157.449761,94.7414928 157.449761,94.7414928 C157.449761,94.7414928 156.587356,94.5652559 156.312889,94.5652559 C156.312889,94.5652559 154.849834,94.3364368 154.392484,94.3364368 C153.935135,94.3364368 153.15767,94.7940749 153.15767,94.7940749 C153.15767,94.7940749 152.608736,95.0682533 152.197324,95.0223162 L152.197324,95.0223162 Z M145.337952,101.653446 C145.337952,101.653446 144.834666,102.339326 144.789307,101.744743 C144.743369,101.150449 144.331957,96.9886577 144.194724,96.4859492 C144.057201,95.9829517 143.417259,94.2451403 143.417259,94.2451403 C143.417259,94.2451403 142.868324,92.8274444 143.463196,92.8274444 C143.463196,92.8274444 144.947342,92.8872494 146.06948,93.1932082 C147.191618,93.499167 148.073091,93.8189937 148.218992,94.1535549 C148.364604,94.488405 148.493171,94.7481378 148.173055,95.7541327 C147.85294,96.7604165 145.886887,100.875982 145.337952,101.653446 L145.337952,101.653446 Z M154.575366,108.101406 C154.575366,108.101406 153.725384,108.073959 153.723362,107.87432 C153.721629,107.674681 154.696999,107.491799 155.184973,107.491799 C155.672947,107.491799 157.563304,107.369878 158.0507,106.759983 C158.538674,106.150377 158.843477,105.662403 158.843477,105.357888 C158.843477,105.053085 158.91455,104.005487 159.427659,104.102273 C159.941058,104.199347 160.327623,105.121269 160.347847,105.666158 C160.368071,106.211048 159.453373,107.247957 158.599346,107.613721 C157.745897,107.979484 157.319462,108.101406 154.575366,108.101406 Z M100.796819,68.0416018 C100.796819,68.0416018 100.492016,67.9806411 100.248463,67.34041 C100.004331,66.7001789 99.3337642,63.5293592 99.6082315,62.8891281 C99.6082315,62.8891281 99.6992391,62.8284564 99.8520741,63.4380627 C100.004331,64.047669 100.522641,65.2368348 100.522641,65.2368348 C100.522641,65.2368348 101.010615,66.4869611 101.193208,66.6392183 C101.37609,66.7914754 101.437339,66.9440214 101.37609,67.34041 C101.315418,67.7367986 101.163161,67.9191027 100.796819,68.0416018 Z M104.119896,67.8587199 C104.119896,67.8587199 104.668831,67.5232919 104.820799,67.0049821 C104.973345,66.4866722 103.449329,64.047958 102.503717,62.8891281 C101.558972,61.7305871 99.3057397,59.6429021 99.3057397,59.6429021 C99.3057397,59.6429021 98.8457902,62.6455745 98.7848296,63.865365 C98.7235801,65.0845776 99.1505934,67.5232919 99.6689033,68.5902475 C100.187213,69.6574919 101.040951,69.6271561 101.040951,69.6271561 C102.565256,69.5052348 104.119896,67.8587199 104.119896,67.8587199 L104.119896,67.8587199 Z M124.6983,94.229539 C124.179701,95.0829879 123.78389,95.9367257 123.363522,96.075115 C122.943442,96.2135043 122.625349,95.6012977 122.046079,94.8088095 C121.466519,94.0163212 120.918162,93.5586831 120.918162,93.5586831 C120.918162,93.5586831 120.522063,93.1013339 120.55731,94.3503046 C120.593713,95.5989864 121.985118,97.6745371 121.985118,97.6745371 C121.985118,97.6745371 122.838567,98.9549993 123.296205,99.1072565 C123.753265,99.2598025 124.545753,97.6745371 124.545753,97.6745371 L126.435533,94.4124209 C126.435533,94.4124209 126.924085,93.5893079 127.28956,93.5283472 C127.655613,93.4673866 129.850773,96.7295028 129.850773,96.7295028 C129.850773,96.7295028 131.009025,98.3757289 132.350448,98.4976501 C133.691871,98.6195714 134.209892,95.5100012 134.484359,94.717513 C134.758538,93.9247358 134.758538,93.7721898 135.429682,93.5283472 C136.100249,93.2845047 137.258501,95.1136126 137.258501,95.1136126 L139.698082,97.8270831 C139.698082,97.8270831 135.521557,99.7778234 134.728202,100.540265 C134.728202,100.540265 133.813503,101.272081 133.691582,101.363378 C133.56995,101.454963 133.295482,101.66847 132.990679,101.515924 C132.685876,101.363378 132.045356,99.9913301 130.917151,100.052291 C129.789813,100.113251 129.13658,101.871287 129.13658,101.871287 C129.13658,101.871287 128.386851,103.772045 127.716573,103.711084 C127.046006,103.650124 126.009098,102.613504 125.521124,101.759766 C125.033727,100.906317 124.972478,100.448968 124.393496,100.479593 C123.813937,100.50964 123.387501,101.302706 123.387501,101.302706 C123.387501,101.302706 122.603681,102.583457 121.684648,102.400286 C120.765039,102.217116 119.881543,98.1015505 119.881543,98.1015505 C119.881543,98.1015505 119.180062,91.7601999 120.09476,89.290572 C121.00917,86.8212329 123.052073,86.5771015 124.667675,87.3395428 C126.283565,88.1016952 126.750448,89.1481379 126.928708,88.8993838 C127.106967,88.6506298 128.14272,85.5936418 129.941492,86.0703482 C129.941492,86.0703482 130.368794,86.0284558 131.313828,86.6993117 C132.259152,87.3701676 136.009242,90.2055593 137.533258,90.9674228 C139.057562,91.7295752 141.543658,92.2900663 141.809458,92.9701674 C142.075836,93.6502685 142.890571,96.3510268 142.890571,96.3510268 C142.890571,96.3510268 141.496277,97.2478127 140.917006,96.7295028 C140.337736,96.211193 137.746764,93.1625834 137.746764,93.1625834 C137.746764,93.1625834 135.932391,91.2205105 135.162727,91.4293946 C134.392774,91.6379898 134.179556,92.4004311 134.179556,92.4004311 C134.179556,92.4004311 132.319823,95.7538438 131.649256,95.4793765 C130.978689,95.2051981 129.515056,92.6442736 129.515056,92.6442736 C129.515056,92.6442736 128.526974,91.0110486 127.388657,90.9694452 C126.603392,90.9405539 125.216609,93.3760901 124.6983,94.229539 L124.6983,94.229539 Z M130.654529,112.566267 C131.123435,112.550087 132.472369,113.100756 132.441745,114.259297 C132.411409,115.417837 131.313828,115.448462 131.313828,115.448462 C131.313828,115.448462 129.644778,115.298805 129.454096,113.710651 C129.36251,112.94821 130.185912,112.582446 130.654529,112.566267 L130.654529,112.566267 Z M127.502778,115.14337 C127.685948,115.692016 128.204258,116.515129 128.509061,116.637339 C128.813865,116.75926 128.883782,116.936364 128.883782,116.936364 C128.883782,116.936364 129.209964,117.216321 127.899166,118.161355 C126.588368,119.106678 121.740986,122.002742 121.740986,122.002742 C121.740986,122.002742 121.344598,122.215959 120.978834,122.429755 C120.612781,122.643262 120.32069,122.595302 120.186057,122.39913 C120.052001,122.203536 118.753338,120.844201 118.905595,118.679954 C119.05843,116.515129 119.210398,117.094399 118.936219,115.966483 C118.661752,114.838567 119.942214,114.716357 120.399853,114.746982 C120.856913,114.777317 122.68631,115.295916 123.692016,114.991113 C124.6983,114.686021 126.143442,114.277498 127.112745,113.003392 C127.112745,113.003392 127.320185,114.594436 127.502778,115.14337 L127.502778,115.14337 Z M80.6070041,130.486093 C80.6070041,130.486093 80.6070041,130.280098 80.9499438,129.983095 C81.2928835,129.685804 83.2745375,128.06818 83.2745375,128.06818 C83.2745375,128.06818 84.0557581,127.703283 84.2403735,127.631344 C84.4252778,127.559116 84.676921,127.376523 84.8369787,127.30805 C84.9970365,127.239289 85.1796295,127.056118 85.1796295,127.330585 C85.1796295,127.605342 84.7225692,128.199347 84.4712149,128.314045 C84.2195717,128.428166 80.9955921,130.806208 80.6070041,130.486093 L80.6070041,130.486093 Z M85.6369787,129.457274 C87.2375565,128.633872 86.8264334,127.262113 86.8264334,127.262113 C86.8264334,127.262113 86.5976143,124.975656 85.0918,124.848534 C83.5854078,124.720835 82.4820492,125.935714 82.4820492,125.935714 C82.4820492,125.935714 79.3268308,129.823038 78.536365,130.874103 C77.7467658,131.925457 78.0460797,131.97255 78.0460797,131.97255 C78.4121324,132.361138 84.0366898,130.280098 85.6369787,129.457274 L85.6369787,129.457274 Z M73.2443463,106.706534 C73.2443463,106.706534 72.6000704,106.740337 72.5336204,106.586346 C72.4668815,106.432356 73.0626201,106.402309 73.0626201,106.402309 C73.0626201,106.402309 73.998987,106.226361 74.4560473,106.134775 C74.9133965,106.043479 76.6055597,105.906245 76.6055597,105.906245 C76.6055597,105.906245 78.6868886,105.704006 78.7438045,105.965183 C78.8004314,106.226361 77.7716124,106.477715 77.7716124,106.477715 C77.7716124,106.477715 75.3479216,106.775295 73.2443463,106.706534 L73.2443463,106.706534 Z M73.1071127,105.197542 C72.787286,105.334775 70.5005399,106.11224 69.9978314,106.203537 C69.494545,106.294833 69.4743211,106.563233 69.4743211,106.563233 C69.5687957,106.968578 71.8266504,107.758177 73.1758739,108.215526 C74.5248085,108.672876 76.9253863,109.244634 78.1833133,109.244634 C79.4406625,109.244634 79.7151298,109.015815 80.1496549,108.192702 C80.5838911,107.369589 80.3097127,105.197542 79.8067152,104.511662 C79.3037178,103.825494 77.9544943,103.871142 77.9544943,103.871142 C76.3770295,103.757022 73.4275171,105.060308 73.1071127,105.197542 Z M84.3339813,84.8933168 C84.3339813,84.8933168 83.9451044,84.8933168 82.7334035,84.3672063 C81.5214136,83.8416736 79.761067,82.8582139 79.761067,82.8582139 C79.761067,82.8582139 79.6463685,82.7440933 79.7151298,82.6525079 C79.7838911,82.5612114 79.9664841,82.675332 79.9664841,82.675332 C79.9664841,82.675332 81.0184162,83.0410958 81.2241222,83.0642088 C81.4301171,83.087033 82.5276975,83.3843244 82.9622226,83.5669174 C83.3964587,83.7500882 84.0788711,84.2542413 84.2403735,84.3224248 C84.4024537,84.3903193 84.8629809,84.4414569 84.8387122,84.690211 C84.8141546,84.938965 84.3339813,84.8933168 84.3339813,84.8933168 L84.3339813,84.8933168 Z M86.8264334,85.3734901 C86.8264334,85.3734901 87.6036092,83.315852 87.2615363,82.0931724 C86.9188855,80.8707817 83.4423959,81.234812 82.4820492,81.2576361 C81.5214136,81.2807491 77.9544943,81.0062818 77.5430822,81.0519301 C77.1313812,81.0978672 77.1542054,81.4864552 77.1542054,81.4864552 C77.1542054,81.4864552 77.2226777,82.1035732 80.7214137,84.7560831 C84.2195717,87.4083041 84.7685064,87.0653644 84.7685064,87.0653644 C86.1630892,86.996892 86.8264334,85.3734901 86.8264334,85.3734901 Z M126.519607,61.5936424 C126.519607,61.5936424 126.200069,61.4566976 126.222893,61.1819414 C126.245428,60.9074741 126.680242,60.1759465 126.680242,60.1759465 L128.147631,58.1480664 C128.147631,58.1480664 128.453879,57.7392546 128.538531,57.8031044 C128.62376,57.8666652 128.285732,58.5617898 128.285732,58.5617898 L127.868541,59.5131802 C127.868541,59.5131802 127.640011,60.1071852 127.502778,60.2675319 C127.365833,60.4275897 127.273959,60.7471274 127.273959,60.7471274 C127.273959,60.7471274 127.320185,60.9305871 127.251712,61.1591173 C127.182951,61.3876474 126.88566,61.5936424 126.519607,61.5936424 L126.519607,61.5936424 Z M128.875403,63.4224614 C129.332174,63.3314538 129.515056,62.5999262 129.515056,62.5999262 L130.246873,59.6275897 C130.246873,59.6275897 130.978689,55.7399769 130.155287,55.6946176 C129.332174,55.6486804 127.000069,58.5753687 127.000069,58.5753687 C127.000069,58.5753687 125.033727,61.0449967 125.125024,61.730876 C125.216609,62.4170443 125.893532,62.8171888 125.893532,62.8171888 C126.936508,63.3089186 128.417765,63.5146246 128.875403,63.4224614 L128.875403,63.4224614 Z" id="path20" fill="#FFFFFF"></path>
                        <path d="M100.309423,89.5653282 C100.309423,89.5653282 100.431056,87.3219191 100.858069,87.3765236 C101.284505,87.4311282 101.711229,87.9800628 101.833728,88.2241943 C101.95536,88.4677479 103.296494,92.0043314 103.662547,92.9799905 C104.028311,93.9550717 107.565183,101.333331 109.942648,103.711373 C112.320691,106.089416 112.480171,106.033656 112.522063,106.549365 C112.564533,107.064497 111.650124,107.30834 110.978979,106.881904 C110.308412,106.454891 107.869698,105.540481 103.296494,97.4919441 C103.296494,97.4919441 100.674609,93.2235441 100.309423,89.5653282 L100.309423,89.5653282 Z M122.049546,136.700611 C122.049546,136.700611 119.716862,137.478075 119.397036,136.883492 C119.07692,136.28891 120.906028,135.923146 120.906028,135.923146 C120.906028,135.923146 123.832716,134.50545 124.472947,133.956804 C125.113467,133.408158 126.436978,132.100249 127.125457,131.899166 C127.813937,131.697794 128.359982,131.533402 128.543153,132.0364 C128.725746,132.539108 128.223038,133.454096 127.857274,133.682626 C127.49151,133.911156 123.650123,136.197613 122.049546,136.700611 L122.049546,136.700611 Z M170.032498,103.299672 C170.032498,103.299672 169.209097,103.299672 168.820509,102.522208 C168.431632,101.744743 168.865868,101.333331 169.117222,101.26457 C169.369154,101.196097 170.055034,101.310218 170.37486,101.813504 C170.694976,102.316502 170.969443,103.048029 170.032498,103.299672 Z M166.945464,102.567856 C166.945464,102.567856 168.248461,102.590969 168.065868,103.734197 C167.882697,104.877426 166.80823,104.808665 166.80823,104.808665 C166.80823,104.808665 165.821881,104.858647 165.756298,103.848607 C165.687825,102.796675 166.945464,102.567856 166.945464,102.567856 Z M152.151676,102.293389 C152.151676,102.293389 151.122568,102.202092 151.008158,101.127625 C151.008158,101.127625 151.168505,100.030044 152.197324,100.075693 C153.226432,100.121341 153.249256,101.172984 153.249256,101.172984 C153.249256,101.172984 153.317439,102.13362 152.151676,102.293389 L152.151676,102.293389 Z M148.60758,104.14561 C148.60758,104.14561 147.624121,104.076848 147.487176,103.230911 C147.487176,103.230911 147.555648,102.476559 148.493171,102.522208 C149.430693,102.567856 149.643044,103.231778 149.636688,103.391258 C149.630043,103.55016 149.659223,104.099961 148.60758,104.14561 Z M141.313395,102.842323 C141.313395,102.842323 140.467458,102.728203 140.376161,101.90509 C140.284576,101.081688 141.222098,101.058863 141.450628,101.127625 C141.679448,101.196097 142.205269,101.630333 142.068035,102.202092 C141.930513,102.773851 141.313395,102.842323 141.313395,102.842323 Z M149.270635,104.930875 C150.475403,104.609315 153.721629,103.955216 154.453156,103.833295 C155.184973,103.711373 156.770238,102.735714 157.441383,101.699384 C158.111661,100.662764 159.059295,100.583024 159.059295,100.583024 C160.25135,100.442901 161.709205,102.613793 161.953048,104.747704 C162.197179,106.882193 160.977389,108.284288 160.977389,108.284288 C160.977389,108.284288 159.453373,110.113396 155.428526,109.869553 C155.428526,109.869553 154.026143,109.525169 151.77031,108.711012 C149.514767,107.897433 147.437483,107.455974 147.014514,106.272298 C146.709422,105.418849 148.06558,105.252435 149.270635,104.930875 L149.270635,104.930875 Z M114.195736,99.8699867 C114.881615,102.796675 115.979195,106.363594 117.031127,108.329936 C118.082482,110.296566 120.597758,112.399853 122.152687,112.719968 C123.707328,113.040373 126.634305,110.890571 126.634305,110.890571 C126.634305,110.890571 131.436039,107.232644 133.813503,105.997831 C136.191835,104.763017 137.014659,104.717368 138.615526,104.397253 C140.215814,104.076848 142.73138,104.25973 142.73138,104.25973 C142.73138,104.25973 144.834666,104.351316 144.615381,104.677209 C144.396674,105.003103 143.051495,104.976234 143.051495,104.976234 C143.051495,104.976234 141.359621,105.174429 139.804402,105.494544 C138.249762,105.814949 136.933474,106.931308 136.933474,106.931308 C138.81892,109.099311 142.913973,108.284288 143.737086,108.421232 C144.560488,108.558466 143.554493,110.113396 143.417259,110.433222 C143.280025,110.753627 141.81697,110.982446 140.581578,111.347921 C139.347342,111.713973 136.51195,114.183312 136.51195,114.183312 L124.255974,123.32943 C124.255974,123.32943 121.466519,125.295772 118.878726,125.722207 C116.290355,126.148931 115.43055,124.198191 115.110145,123.375078 C114.790319,122.551676 114.835967,121.957382 115.110145,121.7745 C115.384613,121.591618 115.841673,121.911734 115.841673,121.911734 C115.841673,121.911734 116.527552,122.734847 117.396602,122.826432 C118.265941,122.917729 118.717223,121.674248 118.717223,121.674248 C117.477209,120.613937 117.122424,119.716862 117.031127,117.521702 C116.939542,115.326541 117.866664,114.130152 117.866664,114.130152 C117.866664,114.130152 118.54012,113.543081 118.533475,113.095266 C118.52683,112.647451 118.220004,112.216971 117.21372,111.896855 C116.207726,111.57674 115.65908,111.80527 115.037917,111.99133 C114.416465,112.177101 112.595158,111.57674 112.411987,111.531091 C112.229394,111.485154 111.588874,111.347921 111.543226,111.80527 C111.497578,112.262619 113.921268,114.274609 113.921268,114.274609 C113.921268,114.274609 116.162366,116.470058 115.979195,117.155938 C115.796313,117.841817 115.338675,118.161933 115.338675,118.161933 C115.338675,118.161933 113.189741,119.716862 112.000286,121.408448 C110.811409,123.1009 110.857346,125.067241 110.857346,125.067241 C110.99458,129.091221 114.830477,128.827155 114.830477,128.827155 C120.999058,129.066086 128.600358,122.460669 131.573272,120.173923 C134.545609,117.887465 140.627804,113.58873 140.627804,113.58873 C140.627804,113.58873 143.005558,112.171323 144.423254,111.988441 C145.840661,111.80527 147.030116,113.81726 147.145681,114.659152 C147.260957,115.501044 146.709422,116.378184 146.317656,116.384251 C145.925312,116.389741 145.949581,115.234089 145.949581,115.234089 C145.949581,115.234089 145.977895,114.503428 145.075619,114.222027 C144.173055,113.940914 141.267458,116.515418 141.267458,116.515418 C141.267458,116.515418 137.243478,120.494038 132.121629,125.295772 C127.000069,130.097505 123.204331,131.652434 120.003464,132.932608 C116.802308,134.213359 113.738386,134.258718 112.09216,134.030188 C110.445645,133.801658 107.107545,130.554854 106.941998,125.860307 C106.775873,121.165761 111.909567,118.116285 111.909567,118.116285 C111.909567,118.116285 113.281037,117.292883 113.372623,117.018704 C113.463919,116.744237 113.326686,116.424121 112.823688,115.875476 C112.320691,115.326541 110.308412,113.085732 109.942648,112.308267 C109.576884,111.531091 109.805992,111.531091 109.816682,110.726469 C109.827661,109.921557 107.565183,108.466881 107.565183,108.466881 C107.565183,108.466881 98.5103623,102.293389 93.3428651,98.3607054 C88.175368,94.4280222 87.6264333,90.4037536 87.6264333,90.4037536 C85.4772099,93.7877911 83.9679286,99.0925219 83.5565165,101.150449 C83.1448155,103.208087 83.6021648,103.299672 83.6021648,103.299672 C84.3339813,103.711373 85.2064984,102.998336 86.6663756,101.744743 C88.1259638,100.491438 88.5645337,98.8353894 88.5645337,98.8353894 C88.5645337,98.8353894 88.58678,97.7664114 89.0244831,97.8464403 C89.4624752,97.9264692 89.2726594,99.2756927 89.1357146,100.05258 C88.998481,100.830044 88.4951946,101.607798 87.8093152,102.659441 C87.1234359,103.711373 82.8706371,107.232644 82.5502327,107.461175 C82.230406,107.689705 81.8646422,108.101117 81.825639,108.357383 C81.7866357,108.613071 82.3219914,108.786996 82.3219914,108.786996 C82.3219914,108.786996 82.6874663,108.878582 82.7334035,109.381579 C82.7793407,109.884865 81.7274086,111.256624 81.7730568,112.125674 C81.8187051,112.994147 82.0931724,114.092016 82.9159965,115.463486 C83.7393984,116.835533 87.9009007,124.106606 89.0475962,126.94142 C90.1942917,129.775656 91.9916192,130.690354 91.9916192,130.690354 C91.9916192,130.690354 93.525747,131.514912 93.8317059,130.759404 C94.1373758,130.003608 94.3147683,127.309206 94.3032118,126.759116 C94.2916553,126.209025 94.3378814,126.228094 94.3378814,126.228094 C94.6920886,126.337592 95.2179102,128.085226 95.6290334,129.32004 C96.0407343,130.554854 95.9037896,131.835027 95.7206188,132.109495 C95.5377369,132.383962 95.2115541,133.818415 95.2115541,133.818415 C96.3490045,134.200936 97.9614277,135.265002 98.5560105,136.133763 C99.1505934,137.002525 99.3285638,136.83091 99.3285638,136.83091 C100.284288,136.979989 102.031633,135.31065 102.306101,134.990535 C102.580279,134.670419 103.128925,134.670419 103.037628,135.767999 C102.946043,136.865291 101.665581,137.643045 101.665581,137.643045 L100.133475,138.418198 L100.065003,139.288982 C100.065003,139.288982 100.156588,140.661029 99.653302,140.661029 C99.1505934,140.661029 98.6929553,139.97515 98.0530131,138.786273 C97.4124931,137.597396 96.4524353,137.002525 96.4524353,137.002525 C94.6233274,135.904944 92.2452848,135.31065 87.4894886,135.767999 C82.7334035,136.225349 80.6295393,140.340914 80.4472353,140.981145 C80.2640644,141.621665 80.5838911,141.987429 80.5838911,141.987429 C80.5838911,141.987429 80.8889832,142.27692 81.4376289,142.124373 C81.9865635,141.971827 83.9901749,141.380712 86.4485352,141.615309 C86.4485352,141.615309 86.6207273,141.30126 86.2243388,140.782951 C85.8279502,140.264641 85.735498,139.798335 85.735498,139.798335 C85.735498,139.798335 85.8279502,139.594363 86.7729845,140.295554 C87.7180188,140.996168 87.5351369,141.484142 88.2363286,141.850195 C88.9375203,142.215959 89.5471267,142.429177 90.5531216,143.618053 C91.5591165,144.807508 92.4434791,146.331524 92.4434791,146.331524 C92.4434791,146.331524 92.9921248,147.398768 93.8152378,147.398768 C94.6386397,147.398768 96.6809654,146.94113 97.2296111,146.727624 C97.7785458,146.514695 100.156588,145.965471 101.528347,144.47208 C102.900395,142.978111 105.491655,139.594074 105.491655,139.594074 C105.491655,139.594074 107.930947,136.514839 108.5706,135.965905 C109.21112,135.417548 109.95536,134.673597 110.345682,135.152326 C110.345682,135.152326 110.460958,135.265002 110.278365,135.752687 C110.095483,136.240661 109.912023,136.545464 110.308412,136.728346 C110.705089,136.911517 116.131164,138.557454 121.923868,137.368577 C121.923868,137.368577 127.015093,135.874608 129.515056,135.08212 C132.015309,134.289343 139.544959,131.789379 139.544959,131.789379 C139.544959,131.789379 143.111878,130.630838 144.606136,129.7771 C146.099816,128.923652 149.17905,126.606859 149.17905,126.606859 C149.17905,126.606859 150.145753,125.873597 149.997829,125.67627 C149.849617,125.478653 149.392557,125.56995 149.392557,125.56995 C149.392557,125.56995 148.774861,125.563594 148.824265,125.21632 C148.873958,124.868758 149.971538,124.65554 149.971538,124.65554 C149.971538,124.65554 153.233655,124.442034 153.965182,124.198191 C153.965182,124.198191 155.520112,123.893388 158.843477,122.124952 C162.166554,120.356805 162.684286,119.746909 163.202885,118.374862 C163.721195,117.003103 163.751531,115.326541 163.23351,114.68631 C162.715489,114.046079 161.282481,113.64969 159.544669,113.710651 C157.806858,113.7719 154.544742,114.198336 152.136074,116.515418 C149.727696,118.832211 149.026793,121.454385 149.026793,121.454385 C149.026793,121.454385 147.893387,123.955504 147.197396,124.746837 C146.501405,125.538458 145.124446,127.216465 144.484215,126.972333 C144.484215,126.972333 144.301333,126.911373 144.51455,126.393352 C144.728346,125.874753 147.881831,120.800286 147.881831,120.800286 C147.881831,120.800286 146.862257,120.631272 144.331957,123.222532 C141.80108,125.813792 138.29541,128.252796 137.472297,128.100539 C136.648895,127.947992 136.191546,127.856696 136.221882,127.460307 C136.252795,127.063919 137.228454,126.454024 137.228454,126.454024 L146.191401,119.320185 C146.191401,119.320185 148.600069,117.582373 148.873958,115.143659 C149.149003,112.704367 148.355937,111.088766 146.922929,110.052435 C145.489921,109.015815 144.210036,108.192702 144.088115,107.857274 C143.965905,107.521846 144.518884,107.706751 144.68472,107.73622 C144.850267,107.765689 150.520473,109.5035 151.83156,109.869264 C153.142647,110.235317 155.97775,110.905884 157.044994,110.875259 C158.11195,110.844923 159.514333,110.509784 161.099599,108.893605 C162.684575,107.278004 162.562654,106.820655 162.562654,106.820655 C162.562654,106.820655 162.288187,106.363594 163.142213,106.424266 C163.995662,106.485516 166.007652,107.034161 168.385695,105.967206 C170.763737,104.899961 172.166121,102.887971 172.440588,101.363667 C172.715055,99.839073 172.623181,98.1928469 172.135785,97.9490044 C171.647811,97.7051619 170.885658,97.8270831 170.885658,97.8270831 C170.885658,97.8270831 168.772549,98.2815432 168.167565,98.2370506 C167.56287,98.1928469 165.30646,98.1318863 165.215164,98.1318863 C165.123578,98.1318863 163.050628,97.9796292 161.526034,99.1381701 C161.526034,99.1381701 161.065507,99.5192463 160.853734,99.8012254 C160.64225,100.082916 160.368071,100.327336 160.215236,100.082916 C160.06269,99.839073 160.1849,99.3513879 160.1849,99.3513879 C160.1849,99.3513879 160.215236,98.5282749 159.575005,98.0405898 C158.935063,97.5526158 156.934918,96.277354 155.724373,96.3053786 C154.514695,96.3334032 153.823615,96.8312002 151.699816,96.765328 C149.575439,96.699167 149.636688,96.6382063 149.484142,97.1565162 C149.331307,97.674826 147.197396,103.375656 143.782734,103.833006 C143.782734,103.833006 143.356298,103.924302 143.356298,103.070853 C143.356298,102.217116 143.325674,101.942937 143.356298,101.363667 C143.386345,100.784396 143.706172,97.7430095 142.936797,97.8005032 C142.167133,97.8577079 141.100177,98.680532 141.100177,98.680532 L134.636905,102.827011 L127.015093,108.436256 C127.015093,108.436256 124.362872,110.204692 122.868903,110.082771 C121.375223,109.960561 120.064136,108.070492 119.850918,107.125458 C119.637411,106.180423 119.816826,105.747921 120.003464,105.845284 C120.189524,105.942359 121.283637,107.095122 121.466519,107.034161 C121.64969,106.973201 121.40527,106.515851 121.40527,106.515851 C121.40527,106.515851 120.125385,103.832717 119.332319,101.363667 C118.54012,98.8943276 117.442251,94.2298279 117.930225,89.9617168 C118.41791,85.6933167 118.997469,81.7609225 119.911879,78.9561555 C120.826577,76.1510996 123.021449,71.6082322 123.021449,71.6082322 C123.021449,71.6082322 123.630766,70.2977231 123.265002,69.0475967 C122.899239,67.7974703 121.954493,64.6881891 117.960272,64.6578532 C113.966917,64.6269395 109.668759,64.5966037 107.777823,66.2431186 C105.887755,67.8890557 104.759838,70.2673872 100.034089,71.1817967 C100.034089,71.1817967 97.5650391,71.2730932 96.7722619,71.8523637 C95.9794848,72.4319231 94.760561,73.5295034 92.8395788,77.2790158 C90.9188854,81.029106 88.9981921,85.815238 89.1201133,88.1629447 C89.2420346,90.5100736 90.8882606,92.6139377 90.8882606,92.6139377 C90.8882606,92.6139377 93.3578886,96.0892717 97.3211966,99.0769206 C101.284505,102.064569 108.44839,107.003537 108.44839,107.003537 C108.44839,107.003537 112.944165,110.189669 115.543804,110.197469 C115.543804,110.197469 114.332969,108.161789 113.600864,104.625494 C112.869336,101.089199 111.65648,98.1223522 111.65648,98.1223522 C111.65648,98.1223522 111.104945,97.1030673 111.771756,97.0952666 C112.438278,97.0871771 113.357021,97.186852 113.661825,97.9490044 C113.966917,98.7108679 114.195736,99.8699867 114.195736,99.8699867 L114.195736,99.8699867 Z M103.677859,120.265508 C103.677859,120.265508 102.900395,122.140264 102.625638,123.009314 C102.35146,123.878076 102.306101,124.47237 102.306101,125.707184 C102.306101,126.942286 101.574573,127.07952 101.574573,127.07952 C101.574573,127.07952 101.254169,127.033294 101.162583,126.575945 C101.071287,126.118596 101.025061,124.792774 101.116935,124.243839 C101.20852,123.695483 101.756877,122.003319 102.076993,121.408448 C102.397397,120.814154 103.266158,119.533691 103.083277,118.756516 C102.900395,117.978762 103.010759,117.615887 101.743298,115.625277 C101.743298,115.625277 103.952038,116.652651 103.952038,118.939398 L103.677859,120.265508 Z M150.779917,114.544454 C150.779917,114.544454 150.455179,112.634161 150.411553,112.014154 C150.367927,111.393858 150.641527,110.841167 150.641527,110.841167 L153.721629,111.698661 C153.721629,111.698661 152.898515,115.011626 150.779917,114.544454 Z M178.598479,80.7243028 C178.598479,80.7243028 174.452867,80.4804602 173.110866,78.5291421 C171.769732,76.5781129 169.269768,74.8099656 169.269768,74.8099656 C169.269768,74.8099656 166.331235,72.5651119 166.67273,72.2241947 C167.013936,71.8832774 168.420653,72.0860943 168.420653,72.0860943 C168.420653,72.0860943 172.623181,72.4928837 174.330945,73.773057 C176.037843,75.0540971 177.318305,75.6634145 178.598479,80.7243028 L178.598479,80.7243028 Z M178.449111,83.1953753 C184.761859,83.7760904 185.244921,86.3947974 185.550013,87.1875746 C185.854528,87.9800628 185.489053,88.2241943 185.427803,90.0533022 C185.366554,91.882699 184.452433,92.7361479 183.781866,93.0406622 C183.11101,93.3457543 182.805918,94.3214133 179.818558,92.6751873 C176.83062,91.0286723 174.269407,91.0286723 174.269407,91.0286723 C174.269407,91.0286723 176.418919,90.1821574 176.746836,90.0261444 C177.074463,89.8704203 177.562437,89.3827352 177.074463,88.9557219 C176.586489,88.5287085 175.67179,88.4680368 175.123434,88.5899581 C174.574499,88.7118793 172.623181,90.0530133 166.770093,90.9067511 C160.916428,91.7604889 154.620437,91.1072567 154.620437,91.1072567 C154.620437,91.1072567 154.087103,90.9677117 152.501838,91.2725149 C150.91715,91.577318 149.088042,91.882699 147.56316,91.882699 C146.038855,91.882699 141.039216,90.9677117 137.685226,88.5287085 C134.332102,86.0899942 131.03965,82.9801352 131.03965,82.9801352 C131.03965,82.9801352 128.966122,81.0900666 125.978762,81.2122768 C122.990824,81.3339091 121.22441,83.1032121 121.22441,83.1032121 C121.22441,83.1032121 122.503428,77.6754043 123.539759,75.4805326 C124.576378,73.2853719 125.552037,71.0905002 125.308195,69.2004316 C125.064063,67.3097852 124.393496,66.4560475 124.393496,66.4560475 C124.393496,66.4560475 123.966483,66.0908615 124.6983,65.7857694 C125.429827,65.4809662 127.319896,64.8103992 129.271503,65.0542418 C131.222821,65.2980843 135.490354,66.3953757 135.490354,66.3953757 C135.490354,66.3953757 138.216248,67.0905003 139.576161,67.1271923 C140.935786,67.1641731 144.636472,67.0662316 146.40433,67.3707459 C148.173055,67.6761269 154.269985,68.9565891 155.79429,71.1514608 C157.319462,73.3466215 157.319462,74.1391097 158.233871,74.6270837 C159.14857,75.1150577 159.270491,74.7487161 159.14857,74.3222806 C159.026359,73.8949783 157.725384,71.5339816 157.725384,71.5339816 C157.725384,71.5339816 158.757959,71.1829524 160.416608,71.349944 C162.075258,71.5175136 163.354853,72.0049097 166.404041,74.3222806 C169.45265,76.6390736 172.261751,79.6992396 172.261751,79.6992396 C172.261751,79.6992396 169.45265,79.3828799 165.855395,80.1146964 C162.257851,80.8462241 156.587356,83.4074374 156.587356,83.4074374 C156.587356,83.4074374 152.014442,85.1755847 147.928924,85.0533745 C143.843694,84.9317422 139.698082,83.8951225 139.698082,83.8951225 C139.698082,83.8951225 135.355721,82.8819048 135.392702,83.6322117 C135.429682,84.3828076 136.283131,84.7485714 136.283131,84.7485714 C136.283131,84.7485714 141.773055,87.8977226 145.765832,87.634234 C149.758609,87.3704565 156.648895,86.2728761 159.696926,85.480099 C162.745536,84.6876107 170.184178,81.7609225 172.806063,81.7609225 C175.428237,81.7609225 176.830331,82.1269752 177.684358,82.4317784 C178.537807,82.7362926 178.449111,83.1953753 178.449111,83.1953753 L178.449111,83.1953753 Z M141.907978,140.661029 C143.188729,139.97515 144.51455,137.276992 145.337952,135.950592 C146.160776,134.624771 148.218992,132.978256 148.676053,132.704078 C149.133402,132.42961 151.785623,131.194796 151.785623,131.194796 C151.785623,131.194796 152.471502,130.829032 152.596601,130.391329 C152.721701,129.953626 151.648678,129.365399 150.505161,129.136869 C149.362221,128.908339 148.218992,129.457274 147.487176,130.005919 C146.755359,130.554854 145.474897,131.423904 144.28602,132.063558 C143.097143,132.704078 141.999563,134.944886 141.999563,134.944886 C141.999563,134.944886 140.774572,137.567349 140.581578,137.917223 C140.389162,138.267385 139.85034,138.648751 139.532535,138.441311 C139.215309,138.233872 139.621521,137.688404 140.033221,137.048462 C140.444634,136.408231 140.673742,135.585118 140.856335,134.898949 C141.039216,134.213359 141.40498,133.435605 141.222098,133.481831 C141.039216,133.527191 138.844056,134.213359 138.204114,134.4416 C137.563594,134.670419 132.76186,136.133763 132.213214,136.362293 C131.664569,136.590824 131.771467,137.368577 131.771467,137.368577 C131.771467,137.368577 132.13723,139.1061 133.234811,140.661029 C134.332102,142.215959 136.648895,142.002452 136.648895,142.002452 C140.170166,141.789234 140.627804,141.346909 141.907978,140.661029 L141.907978,140.661029 Z" id="path22" fill="#C4C7CC"></path>
                        <path d="M97.966917,57.2902839 L93.3899579,42.0122778 L78.6735986,42.0122778 L77.6277337,49.3157084 L75.6041873,47.604477 C75.5241585,47.5371602 67.3788354,40.8306238 48.9430107,40.8300459 C48.2761996,40.8300459 47.594365,40.8387133 46.9162863,40.8566259 L46.8553257,40.8583594 L46.7952318,40.8546035 C46.7888757,40.8540257 46.1292874,40.8176227 44.992126,40.8176227 C41.4000712,40.8176227 32.0641379,41.1929206 22.9726538,44.6694102 C8.78228942,50.0946177 2.86576808,58.6643539 4.88421801,70.8668816 C6.92839275,83.2251333 18.4927984,91.3253859 25.2040442,95.0540966 C33.0955571,99.4383507 47.3912592,102.508629 59.9690848,102.520763 L60.0988067,102.520763 L60.0988067,102.520763 C63.8873223,102.520763 67.5634508,102.342215 70.9532666,102.020944 C70.9532666,102.020944 71.6417461,94.8920164 72.1750795,92.9820128 C72.7078349,91.0722982 73.5222806,88.2412401 75.1916196,84.8485353 C72.9378097,87.2540245 68.6688318,89.8068594 60.6991679,89.8068594 L60.4613925,89.8059927 C46.5698797,89.7172964 42.5383882,81.4295393 40.3721189,76.9771017 C40.2169726,76.6581418 40.0704938,76.3565167 39.9289264,76.07656 C38.1541341,72.5628006 36.1840367,65.0559753 38.4528701,59.8696988 C39.5646072,57.3287093 41.516792,55.6431911 44.255109,54.8608148 C47.1153473,54.0434801 50.1974708,53.6115552 53.1683627,53.6115552 C60.1797024,53.6115552 66.0287452,55.9055241 69.2163219,59.9049461 L71.1121687,62.2841443 L52.8046213,62.2841443 L56.3380268,73.7912585 L81.835462,73.7912585 C81.835462,73.7912585 86.7660506,66.4644259 96.6269387,62.6663762 C96.6269387,62.6663762 97.1264692,57.9692293 97.4595859,57.6361127 C97.6390008,57.4566977 97.7369423,57.3989151 97.8218827,57.3570228 C97.894111,57.3217754 97.966917,57.2902839 97.966917,57.2902839 Z M105.521702,59.8347403 C105.521702,59.8347403 108.669698,59.0020931 110.168867,58.6857335 C111.667747,58.3690849 113.949871,57.7863474 119.596097,57.7528335 C119.596097,57.7528335 123.194219,57.8028155 124.010398,57.8695543 C124.010398,57.8695543 125.942359,55.8870336 127.724663,54.4381352 C127.724663,54.4381352 130.123507,52.5558672 131.206064,52.6223172 C131.206064,52.6223172 132.255396,52.4726603 132.705233,54.4881171 C133.154782,56.5035739 133.005125,58.9853362 132.938386,60.001732 C132.938386,60.001732 134.574789,60.6512083 135.674392,61.4006485 C136.74857,62.132754 136.752326,62.1321761 137.502344,62.783097 C138.453734,63.5345596 138.451712,63.5351375 138.572478,63.6157442 L138.589235,63.6244116 C137.126468,58.8417465 129.42116,33.8487532 127.614876,27.7480672 C127.418126,27.1982081 126.35926,23.8755068 128.356804,20.9487897 C130.224915,18.2116861 134.051279,16.8236616 139.729863,16.8239794 C139.891076,16.8239794 140.05489,16.8251061 140.200791,16.8271574 L143.70935,16.8269263 C149.818414,16.8269263 153.424337,19.7351241 155.373633,22.1751963 C157.340263,24.6364746 158.036255,27.108385 158.136796,27.4950372 L169.27208,64.4371237 L193.900465,64.4371237 C191.641743,56.891584 183.224264,28.9126176 180.270996,21.0753046 C176.331379,10.6204981 160.312889,4.53795583 136.322423,4.38774998 C135.96186,4.38572759 135.606786,4.38460083 135.252868,4.38460083 C109.162583,4.38460083 100.866447,10.3249113 96.5535548,15.5005269 C93.1282028,19.6105448 95.4666643,27.0974352 95.4961334,27.1902052 L105.521702,59.8347403 L105.521702,59.8347403 Z" id="path24" fill="#FFFFFF"></path>
                        <path d="M97.966917,57.2902839 C98.9292861,56.7994208 99.4083038,57.0033933 99.4083038,57.0033933 L94.5271193,40.7087025 L77.4480298,40.7087025 L76.6006481,46.6513531 C76.6006481,46.6513531 67.712241,39.0205841 46.9246648,39.5536285 C46.9246648,39.5536285 34.576525,38.8426137 22.4949073,43.4623319 C6.57684346,49.5488612 1.52954565,59.4527974 3.48400136,71.2684706 C5.43832417,83.083566 15.7432715,91.6116987 24.5381865,96.4977946 C33.3327547,101.383602 48.1684351,104.13752 60.0132885,104.149076 C63.2733823,104.151966 66.6747546,104.038134 70.1107964,103.745754 L70.908774,103.442106 L70.9532666,102.020944 C67.5634508,102.342215 63.8873223,102.520763 60.0988067,102.520763 L60.0988067,102.520763 L59.9690848,102.520763 C47.3912592,102.508629 33.0955571,99.4383507 25.2040442,95.0540966 C18.4927984,91.3253859 6.92839275,83.2251333 4.88421801,70.8668816 C2.86576808,58.6643539 8.78228942,50.0946177 22.9726538,44.6694102 C32.0641379,41.1929206 41.4000712,40.8176227 44.992126,40.8176227 C46.1292874,40.8176227 46.7888757,40.8540257 46.7952318,40.8546035 L46.8553257,40.8583594 L46.9162863,40.8566259 C47.594365,40.8387133 48.2761996,40.8300459 48.9430107,40.8300459 C67.3788354,40.8306238 75.5241585,47.5371602 75.6041873,47.604477 L77.6277337,49.3157084 L78.6735986,42.0122778 L93.3899579,42.0122778 L97.9484266,57.2252785 L97.966917,57.2902839 Z M76.1389652,83.1875747 L75.2392903,82.3774627 C73.6993842,84.7557942 69.8074378,88.3995644 60.4706377,88.3400484 C46.5236536,88.2513521 43.3242315,79.5475603 41.2374132,75.4158161 C39.1500171,71.2834941 35.9520395,58.7573839 44.6578537,56.2701322 C53.3636679,53.7825916 63.5391822,55.1329708 68.0699152,60.8184889 L50.8212338,60.8184889 L55.2548921,75.2572029 L80.769951,75.2572029 L81.835462,73.7912585 L56.3380268,73.7912585 L52.8046213,62.2841443 L71.1121687,62.2841443 L69.2163219,59.9049461 C66.0287452,55.9055241 60.1797024,53.6115552 53.1683627,53.6115552 C50.1974708,53.6115552 47.1153473,54.0434801 44.255109,54.8608148 C41.516792,55.6431911 39.5646072,57.3287093 38.4528701,59.8696988 C36.1840367,65.0559753 38.1541341,72.5628006 39.9289264,76.07656 C39.9289264,76.07656 40.2169726,76.6581418 40.3721189,76.9771017 C42.5383882,81.4295393 46.5698797,89.7172964 60.4613925,89.8059927 L60.6991679,89.8068594 C68.6688318,89.8068594 72.9378097,87.2540245 75.1916196,84.8485353 C75.1916196,84.8485353 75.8717207,84.1383872 76.1389652,83.1875747 L76.1389652,83.1875747 Z M105.521702,59.8347403 L95.4961334,27.1902052 C95.4666643,27.0974352 93.1282028,19.6105448 96.5535548,15.5005269 C100.866447,10.3249113 109.162583,4.38460083 135.252868,4.38460083 C135.606786,4.38460083 135.96186,4.38572759 136.322423,4.38774998 C160.312889,4.53795583 176.331379,10.6204981 180.270996,21.0753046 C183.224264,28.9126176 191.641743,56.891584 193.900465,64.4371237 L169.27208,64.4371237 L158.136796,27.4950372 C158.036255,27.108385 157.340263,24.6364746 155.373633,22.1751963 C153.424337,19.7351241 149.818414,16.8269263 143.70935,16.8269263 L140.200791,16.8271574 C140.05489,16.8251061 139.891076,16.8239794 139.729863,16.8239794 C134.051279,16.8236616 130.224915,18.2116861 128.356804,20.9487897 C126.35926,23.8755068 127.418126,27.1982081 127.614876,27.7480672 C129.42116,33.8487532 137.126468,58.8417465 138.589235,63.6244116 L138.589235,63.6244116 C139.05554,63.8948341 140.225638,64.0531584 140.225638,64.0531584 C137.946981,56.6020932 129.582662,29.2429028 129.007436,27.2874822 C129.007436,27.2874822 125.409603,18.093174 140.200791,18.2931595 L143.598696,18.2931595 C154.392195,18.226334 156.724012,27.8873232 156.724012,27.8873232 L168.182878,65.9027791 L195.868251,65.9027791 C195.868251,65.9027791 185.10711,29.7528342 181.642466,20.5584105 C178.17811,11.3638711 165.119245,3.10208732 136.331669,2.92209455 C107.544382,2.74173774 99.4250607,9.76491128 95.4273721,14.5617909 C91.4299724,19.3591906 94.0949056,27.6206566 94.0949056,27.6206566 L104.130586,60.2597312 L105.421449,59.8639205 L105.521702,59.8347403 L105.521702,59.8347403 Z" id="path26" fill="#D51A35"></path>
                    </g>
                </g>
            </g>
        </g>
    </g>
</svg>