<?xml version="1.0" encoding="UTF-8"?>
<svg width="200px" height="200px" viewBox="0 0 200 200" version="1.1" xmlns="http://www.w3.org/2000/svg" xmlns:xlink="http://www.w3.org/1999/xlink">
    <!-- Generator: Sketch 54.1 (76490) - https://sketchapp.com -->
    <title>oral-roberts</title>
    <desc>Created with Sketch.</desc>
    <g id="oral-roberts" stroke="none" stroke-width="1" fill="none" fill-rule="evenodd">
        <g id="oral-roberts_BGL" transform="translate(0.000000, -0.000000)">
            <g id="oral-roberts" transform="translate(0.000000, 57.000000)">
                <g id="g10" transform="translate(100.000000, 43.318862) scale(-1, 1) rotate(-180.000000) translate(-100.000000, -43.318862) translate(0.000000, 0.383797)" fill-rule="nonzero">
                    <g id="g12" transform="translate(0.000000, 0.000000)">
                        <path d="M75.5272485,71.5367102 L63.481866,81.9185406 C63.481866,81.9185406 109.05637,91.1691047 140.370518,78.2268062 C157.499515,63.3384236 158.390633,63.397912 158.390633,63.397912 L114.455599,60.4703933 L75.5272485,71.5367102" id="path14" fill="#15213B"></path>
                        <path d="M88.5044338,73.3376525 C88.5044338,73.3376525 83.0881911,78.781455 78.7936132,82.5729126 C78.7936132,82.5729126 116.723093,88.4899068 143.075927,76.3922937 C152.897706,65.502714 152.419352,63.9347883 152.419352,63.9347883 L102.725831,56.853945 L88.5044338,73.3376525" id="path16" fill="#15213B"></path>
                        <path d="M1.03850055,57.1780455 C1.03850055,57.1780455 73.7866832,39.4033665 117.328678,1.01289094 C115.153403,5.92027868 101.718577,75.1694499 101.718577,75.1694499 C101.718577,75.1694499 67.418172,80.5883215 1.03850055,57.1780455" id="path18" fill="#15213B"></path>
                        <path d="M117.329171,1.01289094 C117.329171,1.01289094 141.696839,16.9976787 160.407361,19.5905568 L159.533996,20.3532667 L131.018462,32.7870755 L121.041095,33.0092312 L117.329171,1.01289094" id="path20" fill="#15213B"></path>
                        <path d="M129.593018,19.8521575 C139.571618,21.9969722 153.334142,21.5553513 168.605204,17.9135033 L183.144189,38.1202938 C184.573824,50.5454631 141.988043,79.7428956 141.988043,79.7428956 L143.099351,70.7747161 C122.668483,86.16912 84.7261816,80.4500913 84.7261816,80.4500913 L92.5941088,71.3064088 C92.5941088,71.3064088 59.2772875,70.0820839 30.596549,56.0615896 C30.596549,56.0615896 85.6044779,42.7877854 117.31487,2.48525265 L129.593018,19.8521575" id="path22" fill="#C1B572"></path>
                        <path d="M117.353336,0.982808587 L116.609176,1.92793307 C85.4444515,41.5380361 30.8618626,55.0611484 30.3660024,55.1929608 L28.0395775,55.8125284 L30.2027705,56.8694959 C54.5874516,68.7903718 84.0318295,71.5280708 90.7435715,72.079017 L82.9838903,81.0963176 L84.5917989,81.3392079 C84.6874695,81.3537714 94.299414,82.7753212 106.287838,82.2836165 C116.832572,81.8509065 131.327173,79.810036 141.956728,72.688711 L140.850844,81.6129531 L142.494999,80.4848957 C142.602012,80.4118312 153.298882,73.0587237 163.682109,64.2781423 C177.816713,52.3234494 184.666043,43.4878228 184.036786,38.0176085 L184.010156,37.7840981 L169.0229,16.9565058 L168.437041,17.1026843 C154.042055,20.5354097 140.430435,21.1814386 130.122906,19.0448189 L117.353336,0.982808587 Z M33.0894114,56.256593 C43.1409971,53.104697 89.5772769,38.5026485 117.272953,3.98258713 L129.061898,20.6578669 L129.404883,20.7309561 C139.868,22.9819119 153.634715,22.3373395 168.227453,18.9265087 L182.272303,38.446369 C182.889478,47.8828034 155.689662,69.0421483 143.125981,77.8582746 L144.251591,68.7807451 L142.558615,70.0566594 C125.052853,83.2475255 93.9571694,80.6241133 86.4988015,79.7680732 L94.4833582,70.4893694 L92.6335606,70.4081591 C92.359617,70.396064 60.5365405,69.0920099 33.0894114,56.256593 L33.0894114,56.256593 Z" id="path24" fill="#15213B"></path>
                        <path d="M140.480243,73.2085554 L138.336283,85.8121898 C138.336283,85.8121898 181.721704,59.7335768 184.703769,38.0247668 L183.858267,37.4639471 L181.100584,39.9965222 L176.417159,50.9060959 L162.969264,63.702759 L149.707532,73.4104702 L143.070502,78.1359692 L143.099351,70.7749629 L140.480243,73.2085554" id="path26" fill="#15213B"></path>
                        <path d="M176.508638,44.1999553 C176.508638,44.1999553 176.022394,50.2149448 165.527962,60.569376 L168.188248,60.7471006 L175.859409,53.9686359 L180.243,46.8981599 L182.803423,39.4480445 L176.508638,44.1999553" id="path28" fill="#15213B"></path>
                        <path d="M192.073123,12.0572317 L167.629511,18.1576524 C167.629511,18.1576524 172.289512,20.4826601 164.352544,25.0503545 C164.352544,25.0503545 191.844796,17.393412 192.073123,12.0572317" id="path30" fill="#C1B572"></path>
                        <path d="M192.946981,10.9866633 L165.253771,17.8970144 L167.26039,18.8986405 C167.263595,18.9000968 168.144357,19.3666732 168.161124,20.1543386 C168.172467,20.6731957 167.783373,22.1203921 163.940519,24.3327915 L158.243675,27.6101067 L164.573721,25.8476714 C169.262077,24.5419141 192.657504,17.743406 192.899393,12.0925298 L192.946981,10.9866633 Z M169.316816,18.5896219 L190.568036,13.2857528 C187.868791,16.1609415 177.605892,20.1503892 168.527533,22.9586843 C169.417172,21.987617 169.843005,21.0385431 169.814896,20.0956155 C169.796403,19.488069 169.587555,18.9877496 169.316816,18.5896219 L169.316816,18.5896219 Z" id="path32" fill="#15213B"></path>
                        <path d="M142.392671,32.8803809 L184.817686,17.7522923 C184.817686,17.7522923 194.735135,14.1506544 193.945852,4.66756727 L198.667003,13.2191061 C198.816427,12.9880888 201.085154,20.8711364 192.834544,29.1363165 C185.623489,36.3613142 170.570645,49.6119154 170.570645,49.6119154 L175.22818,35.8424571 L170.167003,30.9851458 L142.392671,32.8803809" id="path34" fill="#C1B572"></path>
                        <path d="M192.738873,0.677922078 L193.077172,4.73969382 C193.378486,8.36332512 192.054877,11.5038665 189.144318,14.0732208 C186.914304,16.0417673 184.543742,16.923454 184.519578,16.9315503 L136.145474,34.1819666 L169.840786,31.8819144 L174.224377,36.0892968 L168.700628,52.4216916 L171.145902,50.2682622 C171.297791,50.1354624 186.302554,36.9154693 193.451718,29.7541562 C202.041367,21.1486583 199.611381,13.1707008 199.584011,13.0917368 C199.526067,12.9236884 199.451601,12.7819283 199.360369,12.6694188 L192.738873,0.677922078 Z M148.639867,31.5795357 L185.110122,18.5742931 C185.208259,18.538995 193.387362,15.4754677 194.688286,7.81679737 L197.973391,13.7675592 C198.415498,15.1666465 198.928125,21.7977479 192.218849,28.5199578 C186.85414,33.8939046 177.018553,42.7174361 172.447812,46.7833795 L176.231242,35.5970985 L170.491741,30.0878835 L148.639867,31.5795357 L148.639867,31.5795357 Z" id="path36" fill="#15213B"></path>
                        <path d="M153.020006,33.0719285 C153.020006,33.0719285 166.591435,31.7799696 169.892567,35.0999634 C173.193698,38.420204 172.464826,41.6266515 171.489133,44.6492035 C172.141074,43.3330543 173.708791,40.3364205 173.708791,40.3364205 L175.078263,36.2867686 L170.16651,30.9851458 L163.929669,31.4106974 L153.020006,33.0719285" id="path38" fill="#15213B"></path>
                        <path d="M141.341033,59.7330832 L129.887181,58.9703485 L116.913694,53.659099 C118.673739,42.9003443 130.330768,34.6472594 144.430111,34.6472594 C144.565973,34.6472594 144.701096,34.6477531 144.836711,34.6494809 C154.367533,34.755622 162.736252,38.6100237 167.709894,44.3989081 L145.053696,59.4763699 L141.341033,59.7330832" id="path40" fill="#9B8B20"></path>
                        <path d="M142.346808,59.8004704 L138.075408,56.7724879 L126.201394,55.9808731 C127.493442,49.4823246 132.133716,43.3328075 139.140361,39.8832228 C149.007756,35.0241836 160.244869,37.1536696 165.985849,44.4438329 L142.346808,59.8004704" id="path42" fill="#FFFFFF"></path>
                        <polyline id="path44" fill="#15213B" points="167.169404 43.698377 139.990547 61.5095884 140.896953 62.8941122 168.075317 45.0829009 167.169404 43.698377"></polyline>
                        <path d="M149.601752,55.2531897 C142.571683,57.3384913 129.473923,55.4874405 129.342006,55.4689276 L129.105788,57.1067089 C129.656881,57.1871786 142.692998,59.0293432 150.071969,56.8403689 L149.601752,55.2531897" id="path46" fill="#15213B"></path>
                        <path d="M126.556707,54.4956387 C126.556707,54.4956387 127.274237,51.4113768 130.044988,47.4273842 C126.074409,49.8046972 122.948344,54.25497 122.948344,54.25497 L126.556707,54.4956387" id="path48" fill="#15213B"></path>
                        <path d="M174.887908,39.5682554 L176.230996,35.596358 L176.22927,35.5948769 L176.243571,35.5539015 L170.554864,30.1365109 L170.543768,30.1372514 L170.492234,30.0881303 L148.650963,31.5780547 L180.183082,20.3508477 L180.205521,20.3429488 L183.477063,19.178063 L183.473118,19.1649558 L184.519331,18.7878588 C184.519331,18.7878588 184.66407,18.7411814 184.917795,18.6429392 L185.109876,18.5737994 C185.140451,18.5631853 185.939351,18.2639909 187.068413,17.6308965 C188.606541,16.7862358 190.55842,15.44365 192.095068,13.4911234 C192.502409,12.9737228 192.822215,12.5457027 193.071501,12.1926973 C193.776209,12.5474306 194.670533,13.5829231 195.110174,16.4500154 C196.07847,24.8630032 179.493662,36.5079369 174.887908,39.5682554" id="path50" fill="#9B8B20"></path>
                        <path d="M184.917795,18.642643 C185.361381,18.4703489 186.139322,18.1421262 187.068413,17.6313655 C185.939351,18.2644846 185.140204,18.5629138 185.109876,18.5740956 L184.917795,18.642643 Z M148.636662,31.5832383 L148.650963,31.5785484 L170.492234,30.088624 L170.543522,30.1377451 L148.636662,31.5832383 Z M174.852647,39.591952 L176.22927,35.5951238 L176.230996,35.5968517 L174.887908,39.5677617 C174.876072,39.5756606 174.86399,39.5838063 174.852647,39.591952 L174.852647,39.591952 Z" id="path52" fill="#132935"></path>
                        <path d="M170.555111,30.1370046 C170.555111,30.1370046 174.884949,31.2485237 176.243571,35.5541484 L175.17492,37.8075479 L172.077951,35.6153646 L168.027728,31.7602224 L170.555111,30.1370046" id="path54" fill="#15213B"></path>
                        <path d="M177.484824,33.138822 C176.531569,31.3679941 175.069139,30.3095455 173.948954,29.7188582 C173.948954,29.7188582 177.601207,29.3192247 178.654817,30.0328383 L177.484824,33.138822" id="path56" fill="#15213B"></path>
                        <path d="M191.829262,13.2297202 C191.829262,13.2297202 198.861057,19.3654143 191.477401,29.3046612 C194.349494,29.1397723 197.278545,22.8281308 197.278545,22.8281308 L198.76366,14.0494995 L195.742143,7.92190171 L193.945852,4.66786347 L192.828133,10.923497 L191.829262,13.2297202" id="path58" fill="#15213B"></path>
                        <path d="M180.183082,20.3510452 L184.519331,18.7880563 C184.519331,18.7880563 189.098949,17.2981319 192.095068,13.4906297 C195.092421,9.68391745 193.379225,10.7070433 193.379225,10.7070433 L191.139595,12.374939 L189.345769,14.2412692 L187.363315,16.0463832 L185.299738,16.8782329 L182.672739,17.816989 L180.183082,20.3510452" id="path60" fill="#15213B"></path>
                        <path d="M168.989366,22.4699171 C169.087996,22.3509403 170.587658,20.4885349 169.384624,18.627882 L189.707,13.538566 C189.707,13.538566 187.62493,15.7316626 184.342045,16.9954818 L168.989366,22.4699171" id="path62" fill="#9B8B20"></path>
                        <path d="M168.984188,22.4758906 C168.984188,22.4758906 168.985668,22.4741627 168.98912,22.4702133 L184.341798,16.9947906 C184.235032,17.0367287 184.127279,17.0762724 184.017307,17.1157174 C180.548752,18.3536678 168.984188,22.4758906 168.984188,22.4758906" id="path64" fill="#132935"></path>
                        <path d="M167.659593,19.2513497 C167.659593,19.2513497 132.696151,28.4893497 102.121232,26.584241 C102.121232,26.584241 122.974974,20.414014 125.062716,13.443977 C126.758405,7.78372085 140.736434,15.9555709 140.736434,15.9555709 L154.376903,20.4591363 L167.859071,18.8492725 L167.927372,19.1451839 L167.659593,19.2513497" id="path66" fill="#15213B"></path>
                        <path d="M135.773394,25.1664432 C134.006938,25.731163 117.152871,31.5538644 110.636416,42.2291872 C110.636416,42.2291872 99.6670817,34.2328155 92.3726854,27.3657354 C92.3726854,27.3657354 106.935094,17.3588792 117.144734,3.78193115 L124.677074,14.365479 C124.677074,14.365479 122.607579,20.3404311 102.121232,26.5837473 C102.121232,26.5837473 121.062301,26.8404606 135.773394,25.1664432" id="path68" fill="#9B8B20"></path>
                        <path d="M33.0124803,56.2289469 C58.1058148,48.6297403 86.0352426,31.7422031 86.0352426,31.7422031 C110.109734,52.4567428 127.348209,56.7969251 140.168081,60.9811046 C140.168081,60.9811046 107.117066,70.3025117 33.0124803,56.2289469" id="path70" fill="#9B8B20"></path>
                        <path d="M143.038941,56.6586948 C143.038941,56.6586948 118.000099,55.4109202 103.714346,45.1594212 C106.291537,49.0765202 125.355646,60.9707373 140.527832,60.9319835 C146.186703,57.6169265 143.038941,56.6586948 143.038941,56.6586948" id="path72" fill="#15213B"></path>
                        <path d="M161.688806,47.7978906 C160.109746,44.6067471 156.924258,42.31879 153.118389,42.0652857 C147.431409,41.6863867 142.513245,45.9952203 142.134508,51.6893183 C141.945879,54.5353799 142.926256,57.1903875 144.666822,59.1796686 L161.688806,47.7978906" id="path74" fill="#FFFFFF"></path>
                        <path d="M152.425763,40.9841278 C146.492455,40.9841278 141.479607,45.6074352 141.080158,51.6184753 C140.878707,54.6546034 141.869441,57.5877994 143.871867,59.876497 L144.482878,60.575547 L163.047675,48.1617323 L162.635403,47.329142 C160.840345,43.6993644 157.2199,41.2786076 153.18891,41.0097992 C152.932473,40.9930141 152.678008,40.9841278 152.425763,40.9841278 M144.888492,57.7591062 C143.644526,56.0198737 143.045845,53.9224769 143.189104,51.7594207 C143.528883,46.6565039 147.954392,42.7796397 153.048362,43.121019 C156.022537,43.3187376 158.722768,44.9557784 160.290485,47.4609544 L144.888492,57.7591062" id="path76" fill="#15213B"></path>
                        <path d="M154.493039,51.414092 L154.494025,51.414092 L146.713632,53.1451787 C146.221717,52.1768266 145.969225,51.072219 146.047389,49.9088636 C146.27547,46.4617473 149.25359,43.8536392 152.696255,44.0819659 C155.635909,44.2784503 157.959129,46.4817414 158.435016,49.266093 L154.493039,51.414092" id="path78" fill="#15213B"></path>
                        <path d="M162.300309,46.7693096 L170.181305,41.7717933 L168.403013,47.4175106 C168.403013,47.4175106 167.882003,45.0582169 164.693309,47.1706709 C161.503875,49.283125 162.300309,46.7693096 162.300309,46.7693096" id="path80" fill="#15213B"></path>
                        <path d="M146.058978,59.5430166 L137.945956,65.2000886 C137.945956,65.2000886 140.81657,60.5960347 141.31391,57.4809178 L143.039187,56.6589417 L144.059017,59.1399274 L146.058978,59.5430166" id="path82" fill="#15213B"></path>
                        <path d="M87.1763867,30.9848989 C87.1763867,30.9848989 103.265581,20.6828224 118.833765,3.89426789 L117.31487,2.48476884 L85.4254653,27.0068305 L87.1763867,30.9848989" id="path84" fill="#15213B"></path>
                    </g>
                </g>
            </g>
        </g>
    </g>
</svg>