<?xml version="1.0" encoding="UTF-8"?>
<svg width="200px" height="200px" viewBox="0 0 200 200" version="1.1" xmlns="http://www.w3.org/2000/svg" xmlns:xlink="http://www.w3.org/1999/xlink">
    <!-- Generator: Sketch 54.1 (76490) - https://sketchapp.com -->
    <title>tba</title>
    <desc>Created with Sketch.</desc>
    <g id="tba" stroke="none" stroke-width="1" fill="none" fill-rule="evenodd">
        <g id="_GENERIC-LOGO_BGL" fill="#434445">
            <g id="Group" transform="translate(48.000000, 26.000000)">
                <path d="M52,148 C51.6104869,148 51.0262172,147.805007 50.247191,147.41502 L2.92134831,126.940711 C1.16853933,126.355731 0,124.600791 0,122.84585 L0,4.6798419 C0,2.33992095 1.75280899,0 4.6741573,0 L99.3258427,0 C101.662921,0 104,1.75494071 104,4.6798419 L104,123.43083 C104,125.185771 102.831461,126.940711 101.078652,127.525692 L53.752809,148 C53.1685393,148 52.5842697,148 52,148 Z M6.35555556,28.6640316 L6.35555556,37.4387352 L98.0858926,37.4387352 L98.0858926,28.6640316 L6.35555556,28.6640316 Z" id="Shape" fill-rule="nonzero"></path>
            </g>
        </g>
    </g>
</svg>