<?xml version="1.0" encoding="UTF-8"?>
<svg width="200px" height="200px" viewBox="0 0 200 200" version="1.1" xmlns="http://www.w3.org/2000/svg" xmlns:xlink="http://www.w3.org/1999/xlink">
    <!-- Generator: Sketch 54.1 (76490) - https://sketchapp.com -->
    <title>west-virginia</title>
    <desc>Created with Sketch.</desc>
    <g id="west-virginia" stroke="none" stroke-width="1" fill="none" fill-rule="evenodd">
        <g id="west-virginia_BGL" transform="translate(0.000000, 0.000000)" fill="#EDAE09">
            <g id="west-virginia" transform="translate(0.000000, 4.000000)">
                <g id="g10" transform="translate(99.999998, 96.607597) scale(-1, 1) rotate(-180.000000) translate(-99.999998, -96.607597) translate(0.000000, 0.405068)" fill-rule="nonzero">
                    <g id="g12">
                        <path d="M100.884386,107.995778 L78.9432048,77.1940909 L122.38987,4.58234588 C126.534174,-2.48351893 130.011811,4.58234588 130.011811,4.58234588 L171.97046,70.277551 C175.953582,76.6768757 181.117295,75.867593 181.117295,75.867593 L199.918138,75.867593 L199.918138,108.170461 L164.05738,108.170461 C156.163709,108.170461 152.297886,101.709702 152.297886,101.709702 L127.399153,65.6318971 L100.884386,107.995778 L100.884386,107.995778" id="path14"></path>
                        <path d="M0,160.726578 L0.0715321501,192.174679 L40.7964547,192.086915 C46.9112225,192.086915 50.7416865,183.593244 50.7416865,183.593244 L72.5194075,147.224469 L97.9991537,185.33586 C101.556116,193.143455 104.750208,185.33586 104.750208,185.33586 L128.270039,147.224469 L152.660756,183.593244 C158.167929,193.510544 162.315608,192.086915 162.315608,192.086915 L199.918138,192.086915 L199.918138,160.726578 L180.536704,160.726578 C173.529953,161.212654 171.97046,156.589026 171.97046,156.589026 L131.172993,90.8210948 C127.151896,84.663289 123.842191,90.8210948 123.842191,90.8210948 L101.556116,126.391558 L75.713669,90.8210948 C71.1794919,84.9713059 68.6715595,90.8210948 68.6715595,90.8210948 L28.4562862,156.589026 C25.6616027,161.212654 19.3819404,160.726578 19.3819404,160.726578 L0,160.726578 L0,160.726578" id="path16"></path>
                        <path d="M143.58565,7.91139221 L142.627001,7.91139221 L142.627001,5.85475935 L143.61603,5.85475935 C144.176368,5.85475935 144.576368,5.93255681 144.82025,6.08847242 C145.062444,6.24373824 145.184806,6.49624456 145.184806,6.8423627 C145.184806,7.21848927 145.058224,7.49109686 144.805904,7.65987323 C144.551895,7.82799137 144.145988,7.91139221 143.58565,7.91139221 Z M143.793245,8.67679303 C144.659068,8.67679303 145.309701,8.53409261 145.745144,8.24894494 C146.180587,7.96380571 146.397465,7.53922344 146.397465,6.97389012 C146.397465,6.53250617 146.27257,6.16626989 146.023625,5.87255682 C145.77468,5.58148509 145.422781,5.38996611 144.968773,5.30129101 L146.367929,2.47923201 L145.043034,2.47923201 L143.778899,5.11636274 L142.627001,5.11636274 L142.627001,2.47923201 L141.466663,2.47923201 L141.466663,8.67679303 L143.793245,8.67679303 Z M148.428688,5.42029522 C148.428688,6.0818817 148.313076,6.70028675 148.081853,7.27749349 C147.851473,7.85403356 147.515608,8.36200823 147.075102,8.80075927 C146.618562,9.25898711 146.101262,9.60776347 145.524047,9.84641326 C144.945988,10.0860757 144.329954,10.2059913 143.675946,10.2059913 C143.03122,10.2059913 142.423625,10.0902951 141.854005,9.8582276 C141.283541,9.62717276 140.784807,9.29358627 140.358646,8.85974661 C139.89198,8.39167912 139.535018,7.86425297 139.284385,7.27749349 C139.033752,6.6904049 138.908013,6.08616862 138.908013,5.46512223 C138.908013,4.84902098 139.028689,4.25567078 139.269195,3.68605054 C139.509701,3.11741764 139.854849,2.60416871 140.306326,2.15091134 C140.752739,1.69798308 141.264975,1.34856537 141.842191,1.10462444 C142.421093,0.860691962 143.016874,0.738396606 143.63122,0.738396606 C144.275946,0.738396606 144.886072,0.857400822 145.464975,1.09275947 C146.04219,1.33075946 146.569617,1.67524046 147.045566,2.12981429 C147.490292,2.56362019 147.833752,3.06237123 148.070882,3.62605898 C148.309701,4.19172141 148.428688,4.78902942 148.428688,5.42029522 Z M143.653161,10.9443879 C144.40084,10.9443879 145.108857,10.8059913 145.776368,10.5291137 C146.445566,10.2514765 147.038815,9.84801663 147.558646,9.318312 C148.069195,8.80337531 148.459912,8.21532469 148.731642,7.55109686 C149.003372,6.8885146 149.140081,6.19495343 149.140081,5.47270872 C149.140081,4.72475094 149.003372,4.02360327 148.731642,3.36794928 C148.459912,2.71129951 148.064131,2.13178898 147.5443,1.6261181 C147.004216,1.10133331 146.399152,0.699498717 145.728266,0.420292816 C145.058224,0.140097887 144.366241,0 143.653161,0 C142.925735,0 142.23122,0.140097887 141.570461,0.420292816 C140.908857,0.699498717 140.317296,1.10627845 139.792402,1.64128266 C139.27257,2.16640501 138.87679,2.75613495 138.60506,3.41178894 C138.332486,4.06843028 138.196621,4.75441338 138.196621,5.47270872 C138.196621,6.19495343 138.338393,6.89378886 138.623625,7.56955255 C138.90717,8.24564536 139.317296,8.85316434 139.852317,9.39248922 C140.351895,9.90312212 140.924047,10.2887761 141.570461,10.5502107 C142.21603,10.8125736 142.911389,10.9443879 143.653161,10.9443879 L143.653161,10.9443879 Z" id="path18"></path>
                    </g>
                </g>
            </g>
        </g>
    </g>
</svg>