<svg width="200" height="200" viewBox="0 0 200 200" fill="none" xmlns="http://www.w3.org/2000/svg">
<path d="M2.33079 135.193C6.6377 131.656 10.154 128.244 13.379 124.457C8.36463 120.753 6.11755 114.969 6.72093 107.188C7.36593 98.8027 11.1943 93.5803 14.3152 90.6674C18.0812 87.1303 22.9291 84.9665 27.6313 84.7376C27.7769 84.7376 27.9226 84.7376 28.0682 84.7376C30.5442 84.6752 32.8329 85.0497 34.8719 85.8611C36.1619 82.6986 37.3478 79.6608 38.409 76.7896C37.7848 75.8325 37.223 74.9378 36.7861 74.2304C32.9161 67.8637 30.8979 61.1848 31.0851 55.4215C31.1892 52.1757 32.063 49.5749 33.6651 47.6399C35.4753 45.4552 38.1593 44.2485 41.6756 44.0196C41.7172 44.0196 41.7796 44.0196 41.8212 44.0196C44.8381 43.8532 47.106 44.7478 48.5625 46.6412C50.4142 49.0547 50.9136 53.1328 50.0813 58.7921C49.3947 63.4319 47.9591 68.1966 47.002 71.3591L46.8147 71.9625C46.461 73.1277 46.0865 74.3344 45.6704 75.5828C48.3752 79.6608 51.4129 84.5087 53.6808 89.7311C56.344 95.869 57.4676 101.445 57.1555 106.771C56.8018 112.785 54.0761 118.132 49.2283 122.231C45.0254 125.788 39.4285 128.14 33.894 128.66C33.2698 128.722 32.6248 128.764 31.9798 128.805C28.7964 128.972 24.0734 128.868 19.5584 127.474C14.9186 132.218 9.44656 135.131 2.80934 136.337L0.375 136.774L2.33079 135.172V135.193ZM24.4271 121.419C26.4245 121.731 28.7548 121.835 31.3556 121.69C32.0214 121.648 32.708 121.606 33.4154 121.544C38.7835 121.045 43.2776 119.026 46.357 115.697C48.6665 113.201 50.1645 109.976 50.3726 107.063C50.7055 102.485 49.4779 97.159 46.7315 91.2292C45.6496 88.9197 44.3596 86.4853 42.7783 83.8013C42.0085 85.8195 41.197 87.9002 40.3648 89.9808C41.9252 92.0822 42.6951 94.6206 42.6118 97.367C42.5078 101.133 40.8433 104.42 39.4701 106.543C37.972 108.831 36.0579 109.976 35.9746 110.017L34.9759 110.6L35.4337 109.56C36.7237 106.626 37.6599 101.924 36.9317 98.0328C34.2061 104.108 31.3972 109.768 29.1085 113.679C28.9005 114.033 28.6924 114.407 28.4843 114.782C27.236 116.967 25.9252 119.214 24.4063 121.461M27.985 91.1459C27.881 91.1459 27.7561 91.1459 27.6313 91.1667C25.1345 91.354 22.8874 92.0822 20.9525 93.3098C19.2879 94.3709 17.8523 95.8274 16.6872 97.6167C14.5025 100.987 13.7119 104.878 13.691 107.375C13.691 111.182 14.128 115.885 17.7691 118.818C22.6586 111.931 27.3192 103.318 32.3543 91.7701C31.1268 91.2708 29.6495 91.0627 27.985 91.1459ZM41.1762 50.3655C41.1762 50.3655 41.093 50.3655 41.0514 50.3655C39.7614 50.4904 38.8459 51.0938 38.2217 52.2381C37.3687 53.8194 37.2022 56.3162 37.764 59.2706C38.3049 62.1003 39.4909 65.2421 41.197 68.4254C42.487 64.1601 43.2985 60.519 43.6314 57.6478C44.0059 54.402 43.777 52.1965 42.9447 51.0938C42.5286 50.532 41.9668 50.3031 41.1762 50.3447" fill="#5D1725"/>
<path d="M43.6725 155.874C38.0964 152.899 28.6295 148.696 15.1886 145.471C7.07415 143.536 0.062419 142.101 0 142.101L180.557 111.703C185.114 110.974 188.276 109.747 189.962 108.041C191.377 106.626 191.543 105.086 191.543 103.879C191.543 102.61 191.418 100.967 190.357 99.6974C189.088 98.1577 186.674 97.4711 183.221 97.6583C182.846 97.6583 182.43 97.6999 182.035 97.7416C177.145 98.2409 174.44 100.218 171.59 102.319C168.614 104.504 165.556 106.772 159.876 107.583C159.293 107.666 158.731 107.729 158.191 107.749C154.341 107.957 151.22 106.855 148.89 104.504C148.453 105.086 147.995 105.648 147.475 106.189C146.06 107.687 143.709 109.601 140.526 110.371C139.881 110.517 139.236 110.621 138.633 110.641C134.95 110.829 132.848 108.748 131.662 106.709C130.019 109.414 127.064 112.535 121.904 113.325C121.28 113.43 120.656 113.492 120.073 113.513C116.994 113.679 114.539 112.889 112.812 111.162C112.417 110.766 112.042 110.309 111.73 109.83C110.419 111.432 108.963 112.785 107.361 113.866C105.218 115.323 102.846 116.259 100.286 116.696C99.3918 116.842 98.518 116.946 97.7273 116.987C94.2527 117.175 91.5478 116.363 89.6753 114.574C88.5309 115.989 86.5751 117.799 83.683 118.423C83.1005 118.548 82.5179 118.631 81.9769 118.652C78.7311 118.818 76.0887 117.3 74.3826 114.22C73.8208 113.201 73.4463 112.202 73.1967 111.349C72.3436 112.909 71.012 115.26 69.3891 117.653C67.9951 119.713 66.8507 120.816 65.2486 121.586C63.6674 122.355 61.6491 122.813 58.5698 123.5L55.4281 124.207L57.3006 122.543C63.7506 116.759 71.8859 106.147 73.8625 88.4203C74.2994 84.6336 74.7155 80.7428 75.1316 76.8728L61.3787 79.8897L61.9612 73.5022L75.7766 70.7974C76.4008 64.6387 76.7753 60.7479 76.7962 60.6023L76.8586 59.8532L82.5387 60.7479C82.5387 60.7479 82.1642 64.8468 81.7272 69.6322L89.4464 68.1133L88.947 73.8559L81.1863 75.562C80.4165 84.051 79.4386 94.9743 79.0224 99.4893C78.5023 105.107 79.1889 109.331 80.8534 111.099C81.4152 111.682 82.1018 111.973 82.8716 111.931C83.1005 111.931 83.3501 111.89 83.5998 111.807C85.1187 111.411 86.159 109.747 86.7832 108.374C86.1174 104.004 87.0745 98.9067 87.6362 95.8482L87.7195 95.4529C88.5933 90.709 90.5907 86.2565 93.3164 82.9066C96.3333 79.2031 100.078 76.9976 104.136 76.5191C104.365 76.4983 104.593 76.4775 104.843 76.4567C106.861 76.3527 109.088 76.7896 111.168 77.6843C111.231 76.9144 111.251 76.4775 111.251 76.4567L111.293 75.8741L117.452 75.2499L117.41 75.9989C117.41 75.9989 117.098 80.9508 116.557 90.3969C116.515 91.1043 116.474 91.8326 116.432 92.4984C116.078 98.2825 115.704 104.275 117.847 106.439C118.492 107.084 119.324 107.375 120.427 107.312C121.03 107.292 121.717 107.146 122.466 106.896C125.296 106.002 127.335 103.193 128.708 98.3657C129.936 94.038 130.414 88.8364 130.83 84.2591C130.934 82.9899 131.059 81.8247 131.163 80.7012C131.558 76.9144 131.975 73.0444 132.391 69.1537L118.658 72.1498L119.241 65.7622L133.015 63.0574C133.66 56.7739 134.076 52.8831 134.076 52.8415L134.159 52.1133L139.839 53.008L139.028 61.8923L146.747 60.3734L146.248 66.1159L138.487 67.8221C137.717 76.311 136.739 87.2344 136.323 91.7493C135.928 95.9938 135.865 101.487 137.8 103.505C138.3 104.025 138.861 104.233 139.569 104.212C139.631 104.212 139.694 104.212 139.756 104.212C141.754 103.983 143.48 102.797 144.854 100.696C145.166 100.218 145.457 99.6974 145.707 99.1564C144.375 95.224 144.125 90.1264 144.958 84.0302C145.748 78.2044 147.704 73.523 150.763 70.0691C153.53 66.969 157.171 64.93 161.54 64.0145C162.227 63.8689 162.934 63.7856 163.6 63.744C166.867 63.5776 169.842 64.7011 171.985 66.9066C174.003 68.9872 175.085 71.8585 174.877 74.6257C174.648 77.5802 173.899 81.0965 170.071 84.7168C166.451 88.1498 160.5 91.3332 151.408 94.7038C151.886 97.0758 152.802 98.8443 154.133 99.9886C155.34 101.029 156.88 101.528 158.627 101.445C158.981 101.445 159.335 101.383 159.709 101.32C161.748 100.946 164.162 99.4269 166.95 97.6999C171.007 95.1408 175.626 92.2695 181.015 91.6245C181.868 91.5205 182.7 91.458 183.512 91.4164C188.006 91.1876 191.689 91.8326 194.435 93.3722C197.972 95.328 199.845 98.657 199.99 103.276C200.074 105.918 199.616 108.166 198.576 110.101C197.618 111.869 196.224 113.325 194.289 114.595C190.856 116.821 186.3 118.09 180.661 119.505H180.62C180.037 119.63 121.592 131.177 99.5583 135.942C89.2799 138.168 78.6687 140.457 69.3059 143.536C59.3813 146.803 51.454 150.714 44.3591 155.874L44.0054 156.124L43.6517 155.937L43.6725 155.874ZM104.365 82.4489C102.284 82.5529 99.9536 83.9886 97.977 86.3605C95.7923 88.9613 94.1902 92.4984 93.462 96.3059C93.2331 97.5127 92.6714 100.342 92.6298 103.089C92.5673 106.106 93.1083 108.29 94.2319 109.58C95.1265 110.621 96.4581 111.12 98.1851 111.016C98.83 110.974 99.5375 110.87 100.286 110.683C102.742 110.059 104.885 108.977 106.612 107.479C107.922 106.355 109.004 104.982 109.857 103.38C109.753 102.257 109.753 101.008 109.816 99.7182C110.024 95.224 110.419 88.8781 110.731 84.2799C108.921 82.9899 106.82 82.3657 104.489 82.4489C104.469 82.4489 104.427 82.4489 104.406 82.4489M163.309 69.8195C162.497 69.8611 161.644 70.0483 160.791 70.3812C158.669 71.1927 156.484 72.2746 154.778 74.709C153.031 77.2265 151.949 80.8884 151.345 86.2773C151.262 87.0055 151.2 87.7129 151.158 88.3995L151.283 88.3371C155.486 86.6102 159.834 84.8 163.101 82.5529C164.807 81.367 166.076 80.1602 166.95 78.8702C167.907 77.4554 168.365 75.9573 168.365 74.3344C168.365 72.9196 167.886 71.7545 166.992 70.943C166.076 70.1316 164.807 69.7362 163.309 69.8195Z" fill="#5D1725"/>
<path d="M186.758 123.417H185.51V122.751H188.797V123.417H187.549V127.099H186.758V123.417Z" fill="#5D1725"/>
<path d="M192.958 125.331C192.938 124.769 192.896 124.082 192.917 123.5C192.771 124.041 192.584 124.623 192.397 125.164L191.772 127.058H191.148L190.566 125.206C190.399 124.644 190.253 124.061 190.129 123.521C190.129 124.082 190.087 124.79 190.045 125.372L189.941 127.12H189.192L189.484 122.771H190.524L191.086 124.519C191.252 125.039 191.377 125.539 191.481 126.038C191.606 125.56 191.752 125.039 191.918 124.519L192.521 122.771H193.562L193.811 127.12H193.042L192.958 125.351V125.331Z" fill="#5D1725"/>
</svg>
