<svg width="201" height="200" viewBox="0 0 201 200" fill="none" xmlns="http://www.w3.org/2000/svg">
<path d="M200 94.7L194.5 86V83.3L191.1 79L190.8 48.9L177.3 47.9L170.8 44.6L164 41.4V37.9H106.8V3H49.4V79.6H0V94L8.9 103.7L11.8 105.8L13 107.1L16.5 112.5L22.3 116.4L24.2 117.8L25.5 120.8L26.2 121.7L27 127L30.3 133.3L35.8 140.1H37.4L40.2 143.2H43L46.1 146.2H48.1L51.1 148.6H63.1L65.3 144.7L69.3 143.6L70.7 135.5L73.5 135.1L77.3 135.6L84.3 141.5L85 143.6L87.2 148.5L91.8 160.1H95.1L96.5 161.9L98.1 166L102.5 168.6L103 170.1L104.4 177.2L107.4 179.8L109.8 189.2L123.2 193.7L128.6 196.6H138.5L155.6 197.8V184.9L150.5 174.7L149.5 171.7V168.5L150.8 163.9L165.7 148.2L175.1 143.7L180.1 135.5L191.4 128.8L195.1 123.9L199.9 115L198.2 108.6L200.4 102.7V94.7H200Z" fill="#5D0025"/>
<path d="M87.6 139.2L78.9 131.8L72.8 131.2L68.3 131.8L67.3 131.9L67 132.5L66.2 137.3L65.7 140.4L62.6 141.2L62.2 142L60.8 144.5H52.6L51.2 143.4L49.6 142.1H47.7L46.3 140.8L44.6 139.2H41.9L40.4 137.5L39.1 136H37.7L36.2 134.1L34 131.3L33.7 130.9L33.5 130.5L31.3 126.2L30.9 125.5L30.8 124.7L30 119.9L29.4 119L29.1 118.6L28.9 118.1L27.6 114.9L24.7 112.8L20.3 109.9L19.4 109.3L18.8 108.4L16.1 104.2L14.3 102.4L11.8 100.6L11.4 100.3L11.1 99.9001L5.2 93.4001L4 92.4001V83.7001H53.4V7.1001H102.7V38.0001H97.7V12.0001H58.4V88.6001H9V90.4001L14.9 96.9001L17.7 98.9001L20.1 101.3L23.1 105.9L27.5 108.9L31.6 111.9L33.5 116.3L34.8 118.1L35.7 124L37.9 128.3L40.1 131.1H41.4L44.2 134.2H46.6L49.7 137.2H51.4L54.4 139.6H57.9L59.4 137L61.4 136.5L62.3 131.1L64 127.2L67.9 126.8V124.9L70.1 125.3L71.4 126L81 126.9L87.6 132.5V139.2ZM195.2 94.6001L190.4 87.1001V84.6001L189.3 83.3001L187 80.4001L186.8 57.2001V52.6001L182.2 52.3001L176.2 51.9001L168.9 48.3001L165.2 46.5001L164 45.9001V51.4001L166.8 52.7001L174.9 56.8001L181.9 57.3001L182.1 82.1001L185.4 86.4001V88.6001L190.9 97.3001V101.4L188.3 108.4L189.8 114.1L187 119.3L184.8 122.3L172.4 129.7V130.4L168.3 137.1L159.8 141.2L142.4 159.6L140.2 167.5V170.8L138.9 171.2V173.6L140.9 175.6L141.8 178.4L144.8 184.3L146.3 187.3V188.4L138.5 187.8H130.5L126.4 185.6L117 182.6L115.2 175.2L112.4 172.8L111.5 168.2L109.8 163L105.2 160.2L104.3 157.8L99.5 151.3H97.8L96.6 148.1H91.3L93.3 153.1L94.5 156.2H97L99.9 160.1L100.6 161.9L101.2 163.5L102.7 164.4L105.7 166.2L106.7 169.3L107.6 173.6L107.9 175.3L109.2 176.4L110.8 177.8L112.3 183.7L113 186.3L115.6 187.2L124.6 190.2L128.3 192.2L129.4 192.8H138.4L146 193.3L151.3 193.7V186.1L150.8 185.1L149.3 182.1L146.5 176.5L145.7 174.1L145.3 173L145.2 172.9V168.2L146.9 162.1L163 145.2L170.7 141.5L172 140.9L172.8 139.7L176.9 132.9L187.5 126.6L188.3 126.1L188.9 125.3L191.1 122.3L191.3 122L191.5 121.7L194.3 116.5L195.2 114.8L194.7 112.9L193.6 108.7L195.6 103.2L195.9 102.4V96.0001L195.2 94.6001ZM81.7 110.8L79.8 106.3H65.9L64 110.8H66.5V119.4H49.5V110.8H54.3L65.9 84.0001H63.3V75.4001H82V84.0001H79.8L91.4 110.8H96V119.4H79.1V110.8H81.7ZM76.1 97.7001L72.9 90.2001L69.7 97.7001H76.1ZM91.6 144.1V125.3H102.2V59.1001H82.2V69.7001H63.4V42.0001H160V69.6001H141V59.1001H121.1V125.3H131.7V144.1H91.6ZM123.8 136.4L127.8 140.2V129L123.8 133.1V136.4ZM117.2 55.2001L113.2 51.2001V133.1L117.2 129.2V55.2001ZM156.2 48.0001L152.2 52.1001V62.2001L156.2 66.0001V48.0001ZM148.9 49.8001L154 45.8001H67L71.1 49.8001H148.9ZM174.2 119.4V110.8H170.8V84.1001H174.2V75.5001H160L159.7 76.1001L150.7 94.7001L141.7 76.1001L141.4 75.5001H127.6V84.1001H130.8V110.8H127.5V119.4H143.2V110.8H139.7V91.9001L149.7 112.5L150.7 114.6L151.7 112.5L161.8 91.8001V110.8H158.5V119.4H174.2Z" fill="white"/>
</svg>
