<?xml version="1.0" encoding="UTF-8"?>
<svg width="200px" height="200px" viewBox="0 0 200 200" version="1.1" xmlns="http://www.w3.org/2000/svg" xmlns:xlink="http://www.w3.org/1999/xlink">
    <!-- Generator: Sketch 54.1 (76490) - https://sketchapp.com -->
    <title>wagner</title>
    <desc>Created with Sketch.</desc>
    <g id="wagner" stroke="none" stroke-width="1" fill="none" fill-rule="evenodd">
        <g id="wagner_BGL">
            <g id="wagner" transform="translate(-1.000000, 51.000000)">
                <g fill-rule="nonzero" id="Shape">
                    <path d="M0.686695279,0.109871245 C14.3793991,0.12360515 28.0583691,0.109871245 41.751073,0.109871245 C42.6300429,0.12360515 43.4815451,0.0274678112 44.360515,0.0549356223 C66.7055794,0.0549356223 89.0369099,0.0412017167 111.381974,0.0412017167 C114.678112,0.0961373391 117.974249,0.178540773 121.270386,0.370815451 C129.112446,0.83776824 136.830901,1.90901288 144.425751,4.03776824 C147.708155,4.86180258 150.935622,6.00171674 154.066953,7.30643777 C161.167382,10.2729614 167.84206,14.1596567 173.884979,18.9253219 C179.570815,23.4437768 184.679828,28.7862661 188.786266,34.7879828 C194.128755,42.5201717 197.781974,51.2961373 199.759657,60.4703863 C199.814592,60.7175966 199.883262,60.951073 199.965665,61.1845494 L199.965665,61.8712446 C199.773391,62.4343348 199.732189,62.9974249 199.59485,63.5742489 C198.482403,68.806867 196.449785,73.8746781 193.675536,78.4480687 C191.244635,82.472103 188.181974,86.0978541 184.611159,89.160515 C180.834335,92.4017167 176.535622,94.9424893 171.92103,96.7965665 C170.396567,97.4283262 168.817167,97.9090129 167.265236,98.4446352 L167.03176,98.4446352 C167.141631,98.0738197 167.265236,97.7167382 167.416309,97.3733906 C167.938197,96.0961373 168.432618,94.8051502 168.885837,93.5004292 C170.327897,89.2978541 171.467811,84.7793991 171.660086,80.3296137 C171.632618,80.0549356 171.742489,79.6978541 171.371674,79.6291845 C168.075536,78.6815451 164.559657,78.3656652 161.153648,78.7502146 C157.129614,79.1484979 153.256652,80.3570815 149.5897,82.032618 C146.060086,83.6806867 142.695279,85.7545064 139.60515,88.1167382 C137.490129,89.7236052 135.457511,91.4678112 133.644635,93.4180258 C133.27382,93.7751073 132.95794,94.2145923 132.532189,94.5030043 C132.051502,93.7201717 131.625751,92.9098712 131.158798,92.1133047 C127.203433,85.0815451 122.424034,78.4892704 116.806867,72.6798283 C112.178541,67.9004292 107.000858,63.6566524 101.369957,60.0995708 C94.5167382,55.7596567 87.0592275,52.4635193 79.2858369,50.1974249 C72.1030043,48.1098712 64.7004292,46.8875536 57.2429185,46.4206009 C56.0480687,46.3244635 54.8669528,46.3381974 53.672103,46.255794 C51.7905579,46.2145923 49.9227468,46.2283262 48.0412017,46.2420601 C47.12103,46.2695279 46.2145923,46.3381974 45.2944206,46.3519313 C41.9845494,46.544206 38.688412,46.832618 35.4060086,47.3545064 C33.0849785,47.6978541 30.7776824,48.3158798 28.4703863,48.8240343 C28.3055794,48.8515021 28.1545064,48.8652361 27.9896996,48.8652361 C28.1819742,48.3158798 28.5253219,47.9175966 28.8412017,47.4094421 C30.3244635,45.0746781 31.7253219,42.767382 33.3871245,40.5562232 C37.6583691,34.760515 43.055794,29.5828326 49.3321888,26.0120172 C50.0463519,25.6 50.7879828,25.2566524 51.488412,24.8309013 C51.2824034,24.583691 51.0077253,24.4875536 50.7193133,24.3502146 C48.4120172,23.2652361 45.9124464,22.4549356 43.4815451,21.7133047 C36.4909871,19.6532189 29.3218884,18.1150215 22.1802575,16.6592275 C18.2111588,15.8626609 14.2420601,15.12103 10.2592275,14.4206009 C10.0257511,14.3793991 9.80600858,14.3107296 9.58626609,14.2145923 C9.94334764,14.2008584 10.3141631,14.2008584 10.6712446,14.2008584 C26.8360515,14.2008584 42.9871245,14.2008584 59.1519313,14.2008584 C59.3579399,14.2008584 59.5502146,14.1871245 59.7562232,14.1733906 C59.6051502,13.8987124 59.193133,13.8025751 58.9184549,13.6652361 C51.9690987,10.8085837 44.5527897,8.67982833 37.2188841,6.86695279 C26.7261803,4.31244635 16.0549356,2.38969957 5.35622318,0.920171674 C3.61201717,0.672961373 1.85407725,0.508154506 0.12360515,0.233476395 C0.274678112,0.0824034335 0.480686695,0.12360515 0.686695279,0.109871245 Z" fill="#BABBBF"></path>
                    <path d="M27.8798283,2.25236052 C44.8549356,2.25236052 61.8575107,2.2248927 78.832618,2.2248927 C79.3819742,2.23862661 79.9313305,2.18369099 80.4806867,2.16995708 C89.0918455,2.16995708 97.6892704,2.16995708 106.300429,2.15622318 C111.381974,2.04635193 116.477253,2.2248927 121.545064,2.58197425 C129.153648,3.15879828 136.96824,4.1751073 144.329614,6.23519313 C146.829185,6.85321888 149.27382,7.67725322 151.677253,8.59742489 C158.997425,11.4266094 165.933047,15.3133047 172.113305,20.1339056 C178.815451,25.3527897 184.583691,31.6978541 188.992275,38.9630901 C193.153648,45.7888412 196.024034,53.3012876 197.699571,61.1158798 C197.823176,61.6377682 197.617167,62.2283262 197.507296,62.7502146 C196.504721,66.9939914 194.95279,71.1004292 192.947639,74.9733906 C190.722747,79.2446352 187.866094,83.2549356 184.377682,86.5922747 C180.490987,90.3553648 175.739056,93.2806867 170.602575,94.9974249 C171.811159,91.9072961 172.73133,88.6798283 173.308155,85.4111588 C173.706438,82.9665236 173.939914,80.5630901 173.761373,78.0909871 C171.577682,77.239485 169.215451,76.7450644 166.880687,76.4978541 C161.963948,76.0171674 157.102146,76.8137339 152.47382,78.4755365 C148.243777,79.9862661 144.206009,82.1974249 140.539056,84.7793991 C137.888412,86.6472103 135.320172,88.72103 133.040343,91.0283262 C128.521888,83.0626609 123.083262,75.7150215 116.532189,69.3012876 C108.387983,61.2806867 98.6094421,54.9493562 87.9656652,50.760515 C75.4266094,45.7888412 61.8025751,43.7012876 48.3433476,44.0309013 C43.0283262,44.1819742 37.6858369,44.6626609 32.4669528,45.7064378 C36.6695279,39.0454936 42.2454936,32.9339056 48.9476395,28.7587983 C51.4472103,27.206867 54.1665236,25.8472103 57.0094421,25.0369099 C56.8309013,24.8858369 56.6386266,24.7347639 56.432618,24.6111588 C53.1364807,22.4549356 49.3459227,20.9304721 45.5965665,19.7630901 C41.9982833,18.6369099 38.2901288,17.7991416 34.5819742,17.1399142 C32.8652361,16.8515021 31.1347639,16.576824 29.3905579,16.4120172 C30.0223176,16.3845494 30.6678112,16.3845494 31.3133047,16.3845494 C43.8523605,16.3845494 56.4051502,16.3845494 68.944206,16.3845494 C69.095279,16.3845494 69.2463519,16.3708155 69.3974249,16.3570815 C68.7793991,15.9313305 68.1201717,15.5742489 67.4746781,15.2171674 C63.1622318,12.8 58.5201717,10.8497854 53.8643777,9.18798283 C44.8961373,6.02918455 35.5982833,3.80429185 26.2317597,2.29356223 C26.7811159,2.27982833 27.3304721,2.26609442 27.8798283,2.25236052 Z" fill="#00483A"></path>
                    <path d="M61.7751073,8.02060086 C62.3793991,8.02060086 62.983691,7.99313305 63.5879828,7.99313305 C78.5991416,7.99313305 93.6240343,7.99313305 108.635193,7.99313305 C116.669528,7.82832618 124.73133,8.43261803 132.669528,9.69613734 C136.048069,10.2454936 139.412876,10.9321888 142.722747,11.783691 C147.927897,13.2532189 153.023176,15.2034335 157.843777,17.6755365 C163.804292,20.7381974 169.297854,24.6248927 174.049785,29.3493562 C178.911588,34.1562232 182.949356,39.8145923 186.012017,45.9399142 C186.643777,47.2446352 186.987124,48.9201717 186.533906,50.32103 C186.135622,51.5158798 185.160515,52.3399142 184.020601,52.8206009 C183.361373,53.095279 182.564807,53.3699571 181.850644,53.2738197 C180.724464,53.1639485 179.749356,52.2849785 179.241202,51.3236052 C180.037768,51.2412017 180.751931,51.0077253 181.150215,50.2523605 C180.092704,48.4532189 178.815451,46.7502146 177.51073,45.1296137 C175.533047,42.6849785 173.321888,40.432618 170.945923,38.3862661 C164.985408,33.2360515 158.008584,29.4454936 150.578541,26.8772532 C145.016309,24.9545064 139.234335,23.7321888 133.397425,23.0180258 C128.659227,22.4686695 123.852361,22.2077253 119.086695,22.3175966 C123.509013,23.6909871 127.807725,25.4901288 131.996567,27.4815451 C135.224034,29.0197425 138.382833,30.7364807 141.43176,32.6042918 C146.581974,35.7630901 151.553648,39.4712446 155.769957,43.8111588 C158.544206,46.6403433 160.988841,49.7579399 162.993991,53.1639485 C162.609442,53.672103 162.115021,53.9742489 161.579399,54.2763948 C159.835193,55.2377682 157.761373,55.6909871 155.769957,55.7459227 C154.396567,55.8145923 152.981974,55.6085837 151.636052,55.3751073 C152.597425,56.0755365 153.6,56.7072961 154.643777,57.2978541 C157.788841,59.055794 161.167382,60.3879828 164.724464,61.088412 C165.095279,61.1570815 165.466094,61.2120172 165.83691,61.3081545 C163.900429,62.6815451 161.551931,63.560515 159.285837,64.2197425 C157.212017,64.8240343 155.000858,65.2223176 152.995708,66.0051502 C151.237768,63.0386266 149.150215,60.2643777 146.760515,57.7648069 C143.134764,53.9879828 138.904721,50.8566524 134.303863,48.3708155 C129.840343,45.9811159 125.04721,44.1133047 120.103004,43.0420601 C126.434335,46.9150215 131.502146,52.9304721 134.770815,59.5502146 C130.018884,55.5948498 124.772532,52.3261803 119.224034,49.593133 C113.565665,46.7914163 107.632618,44.511588 101.5897,42.6712446 C99.4746781,42.039485 97.3596567,41.448927 95.2034335,40.9682403 C100.449785,43.3854077 105.462661,46.1871245 110.077253,49.6755365 C113.043777,51.9141631 115.845494,54.4549356 118.303863,57.2429185 C122.16309,61.5965665 125.184549,66.6643777 127.285837,72.0892704 C120.267811,63.1759657 111.272103,55.9656652 101.356223,50.5407725 C93.5553648,46.2832618 85.1364807,43.1244635 76.4703863,41.1467811 C67.5708155,39.1004292 58.4240343,38.2901288 49.304721,38.6197425 C51.4472103,36.8480687 53.9055794,35.4060086 56.3639485,34.1150215 C63.9175966,30.2420601 72.2678112,28.1545064 80.7416309,27.7287554 C88.006867,27.3579399 95.3545064,28.2369099 102.386266,30.0635193 C102.592275,30.1184549 102.784549,30.1459227 102.990558,30.1871245 C101.878112,29.4317597 100.696996,28.8 99.488412,28.2094421 C96.5905579,26.8223176 93.5553648,25.6274678 90.5476395,24.5150215 C86.3862661,22.9905579 82.183691,21.5484979 77.9399142,20.2575107 C78.1321888,20.2437768 78.3381974,20.2437768 78.5304721,20.2300429 C84.504721,20.216309 90.4927039,20.2437768 96.4669528,20.216309 C96.0824034,19.8317597 95.5879828,19.5433476 95.1484979,19.2274678 C91.5776824,16.8240343 87.6360515,14.8738197 83.639485,13.2669528 C77.2532189,10.7261803 70.4412017,9.06437768 63.5879828,8.21287554 C62.983691,8.1304721 62.3793991,8.1304721 61.7751073,8.02060086 Z" fill="#FFFFFF"></path>
                    <path d="M158.063519,36.9716738 C159.36824,37.5484979 160.63176,38.2351931 161.867811,38.9218884 C164.930472,40.6660944 167.938197,42.6849785 170.547639,45.0746781 C172.333047,46.695279 173.898712,48.5356223 175.079828,50.6369099 C174.365665,50.7467811 173.637768,50.7330472 172.909871,50.7467811 C170.066953,50.760515 167.182833,50.3347639 164.724464,48.8240343 C163.406009,44.4429185 161.112446,40.3776824 158.063519,36.9716738 Z" fill="#FFFFFF"></path>
                    <path d="M186.341631,55.2515021 C187.28927,57.4763948 187.893562,59.7699571 188.48412,62.104721 C188.593991,62.6266094 188.456652,63.2034335 188.415451,63.7253219 C188.23691,65.5793991 187.893562,67.4060086 187.261803,69.1502146 C186.066953,72.5287554 183.883262,75.5914163 181.342489,78.0909871 C181.672103,76.3879828 181.507296,74.6575107 181.054077,72.9819742 C176.31588,70.4686695 170.79485,69.1227468 165.479828,68.504721 C163.735622,68.3261803 161.950215,68.1751073 160.192275,68.1751073 C160.206009,68.1476395 160.219742,68.1339056 160.219742,68.1064378 C162.705579,67.1175966 165.260086,66.3072961 167.814592,65.4969957 C169.737339,64.8927039 171.67382,64.3158798 173.6103,63.7390558 C176.549356,62.8463519 179.460944,61.6927039 181.960515,59.8523605 C183.567382,58.6849785 184.954506,57.2154506 186.012017,55.5399142 C186.108155,55.4712446 186.204292,55.1553648 186.341631,55.2515021 Z" fill="#BABBBF"></path>
                    <path d="M185.970815,60.1133047 C186.218026,60.3467811 186.245494,60.8 186.341631,61.1158798 C186.47897,61.8987124 186.739914,62.8051502 186.547639,63.5879828 C186.314163,64.6180258 185.984549,65.6755365 185.435193,66.5819742 C185.201717,66.2111588 184.954506,65.7716738 184.611159,65.4969957 C184.08927,65.1399142 183.430043,65.0987124 182.825751,65.0025751 C183.224034,64.6454936 183.732189,64.439485 184.116738,64.0549356 C185.256652,63.0523605 185.860944,61.6377682 185.970815,60.1133047 Z" fill="#FFFFFF"></path>
                </g>
            </g>
        </g>
    </g>
</svg>